<?xml version="1.0" encoding="UTF-8" standalone="no"?>
<svg
   id="Layer_1"
   viewBox="0 0 127.99999 127.99999"
   version="1.1"
   sodipodi:docname="WFLR.svg"
   width="128"
   height="128"
   inkscape:export-filename="..\Tokens_128x128\wflr.png"
   inkscape:export-xdpi="96"
   inkscape:export-ydpi="96"
   xmlns:inkscape="http://www.inkscape.org/namespaces/inkscape"
   xmlns:sodipodi="http://sodipodi.sourceforge.net/DTD/sodipodi-0.dtd"
   xmlns="http://www.w3.org/2000/svg"
   xmlns:svg="http://www.w3.org/2000/svg">
  <sodipodi:namedview
     id="namedview26"
     pagecolor="#ffffff"
     bordercolor="#000000"
     borderopacity="0.25"
     inkscape:showpageshadow="2"
     inkscape:pageopacity="0.0"
     inkscape:pagecheckerboard="0"
     inkscape:deskcolor="#d1d1d1"
     showgrid="false" />
  <defs
     id="defs7">
    <style
       id="style2">.cls-1{fill:none;}.cls-2{clip-path:url(#clippath);}.cls-3{fill:#e62058;}.cls-4{fill:#fff;}</style>
    <clipPath
       id="clippath">
      <circle
         class="cls-1"
         cx="288.89001"
         cy="288.85001"
         r="278.78"
         id="circle4" />
    </clipPath>
  </defs>
  <circle
     class="cls-4"
     cx="64"
     cy="64"
     r="64"
     id="circle9"
     style="stroke-width:0.229572" />
  <path
     class="cls-3"
     d="m 122.57521,62.232296 v 0 c 0.0115,0.381089 0.32829,0.679532 0.70938,0.668053 0.38109,-0.01148 0.67953,-0.328287 0.66805,-0.709376 -0.0115,-0.381089 -0.32828,-0.679532 -0.70937,-0.668054 -0.38109,0.01148 -0.67954,0.328288 -0.66806,0.709377 z m -0.005,-0.117082 v 0 c 0.0115,0.381089 0.33059,0.679532 0.70938,0.665758 0.37879,-0.01377 0.67953,-0.330583 0.66576,-0.709376 v 0 c -0.0115,-0.381089 -0.33059,-0.679533 -0.70938,-0.665758 -0.37879,0.01377 -0.67953,0.330583 -0.66576,0.709376 z m -0.60836,-6.786139 v 0 c 0.0551,0.376497 0.40634,0.635913 0.78284,0.580816 0.37649,-0.0551 0.63591,-0.406342 0.58081,-0.78284 v 0 c -0.0551,-0.376497 -0.40634,-0.635913 -0.78284,-0.580816 -0.37649,0.0551 -0.63591,0.406342 -0.58081,0.78284 z m -1.39121,-6.669058 v 0 c 0.0987,0.367314 0.47751,0.585407 0.84483,0.484396 0.36731,-0.09872 0.5854,-0.477509 0.48439,-0.844824 v 0 c -0.0987,-0.367315 -0.47751,-0.585408 -0.84482,-0.484396 -0.36732,0.09871 -0.58541,0.477509 -0.4844,0.844824 z m -2.16027,-6.462444 v 0 c 0.14234,0.35354 0.54179,0.523423 0.89533,0.383385 0.35354,-0.140039 0.52343,-0.54179 0.38339,-0.89533 v 0 c -0.14234,-0.35354 -0.54179,-0.525719 -0.89533,-0.383385 -0.35354,0.142335 -0.52343,0.54179 -0.38339,0.89533 z m -2.89949,-6.164 v 0 c 0.18136,0.335174 0.59918,0.456847 0.93436,0.275486 0.33517,-0.181362 0.45685,-0.599182 0.27548,-0.934357 v 0 c -0.18136,-0.335175 -0.59918,-0.456848 -0.93435,-0.275486 -0.33518,0.181361 -0.45685,0.599182 -0.27549,0.934357 z m -3.59739,-5.782912 v 0 c 0.22039,0.309922 0.64969,0.385681 0.95961,0.165292 0.30992,-0.220389 0.38568,-0.649688 0.16529,-0.95961 v 0 c -0.22038,-0.309922 -0.64968,-0.38568 -0.95961,-0.165291 -0.30992,0.220388 -0.38568,0.649688 -0.16529,0.959609 z m -4.24478,-5.328359 v 0 c 0.25483,0.282373 0.68872,0.307626 0.97339,0.0528 0.28237,-0.254825 0.30762,-0.688716 0.0528,-0.973384 v 0 c -0.25483,-0.282374 -0.68872,-0.307627 -0.97339,-0.0528 -0.28237,0.254825 -0.30762,0.688715 -0.0528,0.973384 z m -4.83248,-4.804936 v 0 c 0.28467,0.252529 0.72085,0.224981 0.97109,-0.05969 0.25023,-0.284669 0.22498,-0.720856 -0.0597,-0.971089 -0.28467,-0.252529 -0.72086,-0.22498 -0.97109,0.05969 -0.25023,0.284669 -0.22498,0.720855 0.0597,0.971089 z M 97.480324,15.90243 v 0 c 0.31222,0.218093 0.74152,0.140038 0.95961,-0.169883 0.21809,-0.312218 0.14004,-0.741517 -0.16988,-0.95961 v 0 c -0.31222,-0.218093 -0.74152,-0.140039 -0.95961,0.169883 -0.2181,0.309922 -0.14004,0.741517 0.16988,0.95961 z m -5.80587,-3.567545 v 0 c 0.33518,0.179066 0.753,0.0551 0.93206,-0.280077 0.17907,-0.335175 0.0551,-0.752995 -0.28007,-0.932061 v 0 c -0.33518,-0.179066 -0.753,-0.0551 -0.93207,0.280077 -0.17906,0.335175 -0.0551,0.752995 0.28008,0.932061 z M 85.49209,9.4675346 v 0 c 0.35354,0.140039 0.752995,-0.03444 0.893034,-0.387976 0.140038,-0.353541 -0.03444,-0.752996 -0.387977,-0.893034 v 0 c -0.35354,-0.140039 -0.752995,0.03443 -0.893034,0.387976 -0.140038,0.35354 0.03444,0.752995 0.387977,0.893034 z m -6.476218,-2.125834 v 0 c 0.367315,0.09642 0.743812,-0.121673 0.842528,-0.488988 0.09872,-0.367315 -0.121673,-0.743812 -0.488988,-0.842528 v 0 c -0.367314,-0.09642 -0.743812,0.121673 -0.842528,0.488988 -0.09872,0.367314 0.121673,0.743812 0.488988,0.842528 z m -6.675945,-1.354473 v 0 c 0.376497,0.0528 0.725446,-0.208911 0.778248,-0.585408 0.0528,-0.376498 -0.208911,-0.725447 -0.585408,-0.778248 v 0 c -0.376498,-0.0528 -0.725447,0.20891 -0.778248,0.585408 -0.0528,0.376497 0.20891,0.725446 0.585408,0.778248 z m -6.788436,-0.567042 v 0 c 0.381089,0.0092 0.695603,-0.291556 0.707081,-0.67035 0.01148,-0.378793 -0.291556,-0.695602 -0.670349,-0.707081 -0.378794,-0.01148 -0.695603,0.291556 -0.707081,0.67035 -0.01148,0.378793 0.291556,0.695602 0.670349,0.707081 z m -6.811392,0.215797 v 0 c 0.378793,-0.03444 0.658871,-0.367315 0.624435,-0.746108 -0.03444,-0.378793 -0.367315,-0.658871 -0.746108,-0.624435 v 0 c -0.378794,0.03444 -0.658871,0.367315 -0.624435,0.746108 0.03444,0.378793 0.367314,0.658871 0.746108,0.624435 z m -6.740226,0.996341 v 0 c 0.371907,-0.07805 0.610661,-0.443073 0.534902,-0.814979 -0.07805,-0.371906 -0.443073,-0.610661 -0.814979,-0.534902 -0.371906,0.07805 -0.610661,0.443073 -0.534902,0.814979 0.07805,0.371906 0.443073,0.610661 0.814979,0.534902 z m -6.577229,1.77459 v 0 c 0.360428,-0.119378 0.555564,-0.50965 0.436186,-0.872373 -0.119377,-0.362723 -0.509649,-0.555563 -0.872372,-0.436186 v 0 c -0.360428,0.119377 -0.555564,0.509649 -0.436186,0.872372 0.119377,0.362724 0.509649,0.555564 0.872372,0.436187 z m -6.3247,2.5321754 v 0 c 0.344357,-0.1607 0.491283,-0.571633 0.330583,-0.915991 -0.1607,-0.3443574 -0.571634,-0.4912834 -0.915991,-0.3305834 v 0 c -0.344358,0.1607 -0.491284,0.5716344 -0.330584,0.9159914 0.160701,0.344358 0.571634,0.491284 0.915992,0.330583 z m -5.982639,3.250736 v 0 c 0.323696,-0.199728 0.422412,-0.624435 0.220389,-0.948131 -0.202023,-0.323696 -0.624435,-0.422412 -0.948131,-0.220389 v 0 c -0.323697,0.199727 -0.422412,0.624435 -0.222685,0.948131 0.199727,0.323696 0.624435,0.422412 0.948131,0.222685 v 0 z m -5.567114,3.925676 v 0 c 0.298853,-0.236459 0.347063,-0.670349 0.110604,-0.968793 -0.236458,-0.298443 -0.670349,-0.346653 -0.968792,-0.110194 v 0 c -0.298443,0.236459 -0.346653,0.670349 -0.110195,0.968793 0.236459,0.298443 0.67035,0.346653 0.968793,0.110194 z m -5.078126,4.543224 v 0 c 0.268599,-0.268599 0.266303,-0.704785 -0.0023,-0.973384 -0.268599,-0.268599 -0.704785,-0.266303 -0.973384,0.0023 v 0 c -0.268599,0.268599 -0.266303,0.704785 0.0023,0.973384 0.268599,0.268599 0.704785,0.266303 0.973384,-0.0023 z m -4.520267,5.098788 v 0 c 0.236459,-0.298444 0.183657,-0.732334 -0.114786,-0.966497 -0.298443,-0.234163 -0.732334,-0.183658 -0.966497,0.114786 v 0 c -0.236459,0.298443 -0.183657,0.732333 0.114786,0.966497 0.298443,0.234163 0.732334,0.183657 0.966497,-0.114786 z m -3.900423,5.587775 v 0 c 0.199727,-0.323696 0.09871,-0.748404 -0.224981,-0.948131 -0.323696,-0.199728 -0.748403,-0.09872 -0.948131,0.22498 v 0 c -0.199727,0.323696 -0.09872,0.748404 0.224981,0.948131 0.323696,0.199728 0.748403,0.09872 0.948131,-0.22498 z m -3.227779,6.0033 v 0 c 0.160701,-0.344357 0.01148,-0.755291 -0.335174,-0.913695 -0.346654,-0.158405 -0.7552909,-0.01148 -0.9136959,0.335174 -0.158404,0.346654 -0.01148,0.755291 0.335175,0.913696 0.3466529,0.158404 0.7552909,0.01148 0.9136949,-0.335175 z m -2.5046269,6.338475 v 0 c 0.119377,-0.360428 -0.07805,-0.7507 -0.438482,-0.870077 -0.360427,-0.119377 -0.750699,0.07805 -0.870077,0.438482 v 0 c -0.119377,0.360428 0.07805,0.7507 0.438482,0.870077 0.360428,0.119377 0.7507,-0.07805 0.870077,-0.438482 z m -1.747041,6.588708 v 0 c 0.07576,-0.371906 -0.165291,-0.736925 -0.537197,-0.812684 -0.371906,-0.07576 -0.736926,0.165292 -0.812684,0.537198 v 0 c -0.07576,0.371906 0.165291,0.736925 0.537198,0.812684 0.371906,0.07576 0.736925,-0.165292 0.812683,-0.537198 z m -0.964201,6.744817 v 0 c 0.03214,-0.378794 -0.250233,-0.711673 -0.629026,-0.743813 -0.378793,-0.03214 -0.711672,0.250233 -0.743813,0.629027 v 0 c -0.03214,0.378793 0.250234,0.711672 0.629027,0.743812 0.378793,0.03214 0.711672,-0.250233 0.743812,-0.629026 z m -0.179066,6.811392 v 0 c -0.01148,-0.381089 -0.330583,-0.679532 -0.709376,-0.668054 -0.378794,0.01148 -0.679532,0.330584 -0.668054,0.709377 v 0 c 0.01148,0.381089 0.330583,0.679532 0.709377,0.668054 0.378793,-0.01148 0.679532,-0.330584 0.668053,-0.709377 z m 0.601478,6.78614 v 0 c -0.0551,-0.376498 -0.406342,-0.635914 -0.782839,-0.580817 -0.376498,0.0551 -0.635914,0.406342 -0.580817,0.78284 v 0 c 0.0551,0.376497 0.406342,0.635914 0.78284,0.580816 0.376497,-0.0551 0.635913,-0.406342 0.580816,-0.782839 z m 1.384318,6.671354 v 0 c -0.09872,-0.367315 -0.47751,-0.585408 -0.844824,-0.486692 -0.367315,0.09871 -0.585408,0.477509 -0.486692,0.844823 v 0 c 0.09872,0.367315 0.477509,0.585408 0.844824,0.486692 0.367314,-0.09871 0.585407,-0.477509 0.486692,-0.844823 z m 2.153382,6.462443 v 0 c -0.140039,-0.35354 -0.541789,-0.525719 -0.895329,-0.383385 -0.353541,0.142335 -0.52572,0.54179 -0.383385,0.89533 v 0 c 0.140039,0.35354 0.541789,0.525719 0.895329,0.383385 0.353541,-0.142335 0.52572,-0.541789 0.383385,-0.89533 z m 2.8948989,6.168595 v 0 c -0.181361,-0.33518 -0.599182,-0.45915 -0.934356,-0.27778 -0.335175,0.18136 -0.459144,0.59918 -0.277782,0.93435 v 0 c 0.181361,0.33518 0.599182,0.45915 0.934357,0.27778 0.335174,-0.18136 0.459143,-0.59918 0.277781,-0.93435 z m 3.590502,5.7875 v 0 c -0.218093,-0.30992 -0.649688,-0.38568 -0.95961,-0.16759 -0.309922,0.2181 -0.38568,0.64969 -0.167587,0.95961 v 0 c 0.218093,0.30992 0.649688,0.38568 0.95961,0.16759 0.309921,-0.21809 0.38568,-0.64969 0.167587,-0.95961 z m 4.237894,5.332948 v 0 c -0.252529,-0.28467 -0.688715,-0.30763 -0.973384,-0.0551 -0.284669,0.25253 -0.307626,0.68872 -0.0551,0.97339 v 0 c 0.252529,0.28237 0.688716,0.30762 0.973384,0.0551 0.284669,-0.25252 0.307627,-0.68871 0.0551,-0.97338 z m 4.827893,4.80953 v 0 c -0.284669,-0.25253 -0.720856,-0.22728 -0.973384,0.0574 -0.252529,0.28467 -0.227276,0.72086 0.05739,0.97338 0.284668,0.25253 0.720855,0.22728 0.973384,-0.0574 0.252528,-0.28467 0.227276,-0.72085 -0.05739,-0.97338 z m 5.351316,4.21953 v 0 c -0.312217,-0.2181 -0.741517,-0.14234 -0.95961,0.16988 -0.218093,0.31222 -0.142334,0.74152 0.169883,0.95961 0.312218,0.21809 0.741517,0.14233 0.95961,-0.16988 0.218093,-0.31222 0.142335,-0.74152 -0.169883,-0.95961 z m 5.803573,3.57213 v 0 c -0.335175,-0.18136 -0.752995,-0.0551 -0.932061,0.28008 -0.181362,0.33517 -0.0551,0.75299 0.280077,0.93206 v 0 c 0.335175,0.18136 0.752995,0.0551 0.932061,-0.28008 0.179066,-0.33517 0.0551,-0.75299 -0.280077,-0.93206 z m 6.18007,2.87424 v 0 c -0.35354,-0.14004 -0.752995,0.0321 -0.893034,0.38798 -0.140039,0.35583 0.03214,0.75299 0.387976,0.89303 0.355837,0.14004 0.752996,-0.0321 0.893034,-0.38798 0.140039,-0.35583 -0.03214,-0.75299 -0.387976,-0.89303 z m 6.473922,2.13272 v 0 c -0.367314,-0.0987 -0.743812,0.12167 -0.842528,0.48899 -0.09872,0.36731 0.121673,0.74381 0.488988,0.84253 v 0 c 0.367315,0.0987 0.743812,-0.12168 0.842528,-0.48899 0.09872,-0.36732 -0.121673,-0.74381 -0.488988,-0.84253 z m 6.675945,1.36136 v 0 c -0.376497,-0.0551 -0.725446,0.20661 -0.780543,0.58311 -0.0551,0.3765 0.206614,0.72545 0.583112,0.78055 0.376497,0.0551 0.725446,-0.20662 0.780544,-0.58312 0.0551,-0.37649 -0.206615,-0.72544 -0.583113,-0.78054 z m 6.788436,0.57393 v 0 c -0.381089,-0.009 -0.695602,0.28926 -0.707081,0.67035 -0.01148,0.38109 0.28926,0.6956 0.670349,0.70708 v 0 c 0.381089,0.009 0.695603,-0.28926 0.707081,-0.67035 0.0092,-0.38109 -0.28926,-0.6956 -0.670349,-0.70708 z m 6.811392,-0.20891 v 0 c -0.378793,0.0344 -0.65887,0.36731 -0.624435,0.74611 0.03444,0.37879 0.367315,0.65887 0.746108,0.62443 v 0 c 0.378794,-0.0344 0.658871,-0.36731 0.626731,-0.74611 -0.03214,-0.37879 -0.367315,-0.65887 -0.746108,-0.62673 v 0 z m 6.740226,-0.98945 v 0 c -0.371906,0.078 -0.612957,0.44077 -0.534902,0.81497 0.07805,0.37191 0.440777,0.61296 0.814979,0.53491 v 0 c 0.371906,-0.0781 0.612957,-0.44078 0.534902,-0.81498 -0.07805,-0.37191 -0.440777,-0.61296 -0.814979,-0.5349 z m 6.579525,-1.76771 v 0 c -0.360428,0.11938 -0.555564,0.50965 -0.436186,0.87008 0.119377,0.36043 0.509649,0.55556 0.870076,0.43619 v 0 c 0.360428,-0.11938 0.555564,-0.50965 0.436187,-0.87008 -0.119378,-0.36043 -0.50965,-0.55556 -0.870077,-0.43619 z m 6.326996,-2.52529 v 0 c -0.344358,0.1607 -0.493579,0.57164 -0.330583,0.916 0.162996,0.34435 0.571633,0.49357 0.915991,0.33058 0.344357,-0.163 0.493578,-0.57163 0.330583,-0.91599 -0.162996,-0.34436 -0.571633,-0.49358 -0.915991,-0.33059 z m 5.987226,-3.24384 v 0 c -0.32369,0.19972 -0.42241,0.62443 -0.22268,0.94813 0.19973,0.32369 0.62443,0.42241 0.94813,0.22268 v 0 c 0.3237,-0.19973 0.42241,-0.62443 0.22269,-0.94813 -0.19973,-0.3237 -0.62444,-0.42241 -0.94814,-0.22268 z m 5.571706,-3.91879 v 0 c -0.29844,0.23646 -0.34665,0.67035 -0.1102,0.96649 0.23646,0.29845 0.67035,0.34666 0.9665,0.1102 v 0 c 0.29845,-0.23646 0.34666,-0.67035 0.1102,-0.9665 -0.23646,-0.29844 -0.67035,-0.34665 -0.9688,-0.11019 v 0 z m 5.08272,-4.53864 v 0 c -0.2686,0.2686 -0.2686,0.70479 0,0.97339 0.2686,0.2686 0.70478,0.2686 0.97338,0 0.2686,-0.2686 0.2686,-0.70479 0,-0.97339 -0.2686,-0.26859 -0.70478,-0.26859 -0.97338,0 z m 4.52486,-5.09419 v 0 c -0.23646,0.29844 -0.18366,0.73233 0.11478,0.9665 0.29844,0.23416 0.73233,0.18365 0.9665,-0.11479 0.23416,-0.29844 0.18366,-0.73233 -0.11479,-0.9665 -0.29844,-0.234158 -0.73233,-0.183648 -0.96649,0.11479 z m 3.90731,-5.583188 v 0 c -0.19973,0.3237 -0.0987,0.74841 0.22498,0.94814 0.32369,0.19972 0.7484,0.0987 0.94813,-0.22498 v 0 c 0.19972,-0.3237 0.0987,-0.74841 -0.22498,-0.94814 -0.3237,-0.19972 -0.74841,-0.0987 -0.94813,0.22498 z m 3.23237,-6.001 v 0 c -0.1607,0.344358 -0.0115,0.755291 0.33287,0.915991 0.34436,0.1607 0.7553,0.01148 0.916,-0.332879 v 0 c 0.1607,-0.344357 0.0115,-0.755291 -0.33288,-0.915991 -0.34436,-0.1607 -0.75529,-0.01148 -0.91599,0.332879 z m 2.51151,-6.336179 v 0 c -0.11938,0.360428 0.0758,0.750699 0.43848,0.870077 0.36273,0.119377 0.7507,-0.07576 0.87008,-0.438482 v 0 c 0.11938,-0.360428 -0.0758,-0.7507 -0.43848,-0.870077 -0.36043,-0.119377 -0.7507,0.07576 -0.87008,0.438482 z m 1.75393,-6.586412 v 0 c -0.0758,0.371906 0.16529,0.736925 0.5372,0.812684 0.3719,0.07576 0.73692,-0.165292 0.81268,-0.537198 v 0 c 0.0758,-0.371906 -0.16529,-0.736925 -0.5372,-0.812684 -0.3719,-0.07576 -0.73692,0.165292 -0.81268,0.537198 z m 0.97109,-6.742521 v 0 c -0.0321,0.378793 0.24793,0.711672 0.62673,0.743812 0.37879,0.03214 0.71167,-0.247937 0.74381,-0.626731 v 0 c 0.0321,-0.378793 -0.24794,-0.711672 -0.62673,-0.743812 -0.37879,-0.03214 -0.71167,0.247937 -0.74381,0.626731 z"
     id="path11"
     style="stroke-width:0.229572" />
  <g
     class="cls-2"
     clip-path="url(#clippath)"
     id="g15"
     transform="matrix(0.22957171,0,0,0.22957171,-2.3209736,-2.3117898)">
    <path
       class="cls-3"
       d="M 342.63,476.24 H 233.61 c -10.47,0 -18.95,8.48 -18.95,18.95 v 62.48 c 23.64,6.51 48.52,10.01 74.23,10.01 25.71,0 50.59,-3.5 74.23,-10.01 v -60.95 c 0,-11.32 -9.17,-20.49 -20.49,-20.49 z"
       id="path13" />
  </g>
  <path
     class="cls-3"
     d="m 81.066357,58.513234 -30.363154,-0.02296 c -8.278355,0 -15.163211,6.547385 -15.379008,14.961188 -0.0069,0.22498 0.179066,0.410933 0.404046,0.410933 l 30.363154,0.01837 v 0.0046 c 8.278355,0 15.163211,-6.547385 15.379008,-14.961189 0.0069,-0.22498 -0.179066,-0.410933 -0.404046,-0.410933 z"
     id="path17"
     style="stroke-width:0.229572" />
  <path
     class="cls-3"
     d="m 96.456844,35.461939 -45.753641,-0.02296 c -8.278355,0 -15.163211,6.547385 -15.379008,14.961188 -0.0069,0.22498 0.179066,0.410933 0.404046,0.410933 l 45.753641,0.01837 v 0.0046 c 8.278356,0 15.163212,-6.547385 15.379012,-14.961189 0.007,-0.22498 -0.17907,-0.410933 -0.40405,-0.410933 z"
     id="path19"
     style="stroke-width:0.229572" />
  <circle
     class="cls-3"
     cx="43.017143"
     cy="89.135803"
     r="7.6952438"
     id="circle21"
     style="stroke-width:0.229572" />
  <path
     class="cls-4"
     d="M 59.385605,122.51094 56.745531,111.83126 H 58.7451 l 1.205252,5.88852 c 0.30533,1.51058 0.351244,1.84575 0.488987,2.66991 h 0.02984 c 0.197431,-0.84023 0.410933,-1.81591 0.640505,-2.66991 l 1.510582,-5.88852 h 1.967429 l 1.556496,5.88852 c 0.259416,1.00781 0.443074,1.81591 0.610661,2.66991 h 0.02984 c 0.151518,-0.84023 0.275486,-1.64832 0.488988,-2.66991 l 1.175407,-5.88852 h 1.99957 l -2.640075,10.67968 h -2.059258 l -1.510582,-5.76684 c -0.243346,-0.88386 -0.472918,-1.84576 -0.640505,-2.69977 h -0.02984 c -0.167588,0.88385 -0.351245,1.75393 -0.594591,2.73191 l -1.510582,5.73699 h -2.075328 z"
     id="path23"
     style="stroke-width:0.229572" />
</svg>
