<svg xmlns="http://www.w3.org/2000/svg" width="128" height="128" xmlns:v="https://vecta.io/nano"><defs><clipPath id="A"><circle cx="288.89" cy="288.85" r="278.78" fill="none"/></clipPath></defs><circle cx="64" cy="64" r="64" fill="#fff"/><path d="M122.575 62.232h0a.69.69 0 0 0 .709.668.69.69 0 0 0 .668-.709.69.69 0 0 0-.709-.668.69.69 0 0 0-.668.709zm-.005-.117h0c.011.381.331.68.709.666a.69.69 0 0 0 .666-.709h0c-.011-.381-.331-.68-.709-.666a.69.69 0 0 0-.666.709zm-.608-6.786h0a.69.69 0 0 0 .783.581.69.69 0 0 0 .581-.783h0a.69.69 0 0 0-.783-.581.69.69 0 0 0-.581.783zm-1.391-6.669h0c.099.367.478.585.845.484s.585-.478.484-.845h0c-.099-.367-.478-.585-.845-.484s-.585.478-.484.845zm-2.16-6.462h0a.69.69 0 0 0 .895.383.69.69 0 0 0 .383-.895h0a.69.69 0 0 0-.895-.383.69.69 0 0 0-.383.895zm-2.899-6.164h0a.69.69 0 0 0 .934.275.69.69 0 0 0 .275-.934h0a.69.69 0 0 0-.934-.275.69.69 0 0 0-.275.934zm-3.597-5.783h0a.69.69 0 0 0 .96.165.69.69 0 0 0 .165-.96h0a.69.69 0 0 0-.96-.165.69.69 0 0 0-.165.96zm-4.245-5.328h0a.69.69 0 0 0 .973.053.69.69 0 0 0 .053-.973h0a.69.69 0 0 0-.973-.053.69.69 0 0 0-.053.973zm-4.832-4.805h0c.285.253.721.225.971-.06a.69.69 0 0 0-.06-.971c-.285-.253-.721-.225-.971.06a.69.69 0 0 0 .06.971zm-5.356-4.215h0a.69.69 0 0 0 .96-.17.69.69 0 0 0-.17-.96h0a.69.69 0 0 0-.96.17.69.69 0 0 0 .17.96zm-5.806-3.568h0a.69.69 0 0 0 .932-.28.69.69 0 0 0-.28-.932h0a.69.69 0 0 0-.932.28.69.69 0 0 0 .28.932zm-6.182-2.867h0a.69.69 0 0 0 .893-.388.69.69 0 0 0-.388-.893h0a.69.69 0 0 0-.893.388.69.69 0 0 0 .388.893zm-6.476-2.126h0a.69.69 0 0 0 .843-.489.69.69 0 0 0-.489-.843h0a.69.69 0 0 0-.843.489.69.69 0 0 0 .489.843zM72.34 5.987h0a.69.69 0 0 0 .778-.585.69.69 0 0 0-.585-.778h0a.69.69 0 0 0-.778.585.69.69 0 0 0 .585.778zm-6.788-.567h0a.69.69 0 0 0 .707-.67.69.69 0 0 0-.67-.707.69.69 0 0 0-.707.67.69.69 0 0 0 .67.707zm-6.811.216h0c.379-.034.659-.367.624-.746s-.367-.659-.746-.624h0c-.379.034-.659.367-.624.746s.367.659.746.624zM52 6.632h0a.69.69 0 0 0 .535-.815.69.69 0 0 0-.815-.535.69.69 0 0 0-.535.815.69.69 0 0 0 .815.535zm-6.577 1.775h0a.69.69 0 0 0 .436-.872.69.69 0 0 0-.872-.436h0a.69.69 0 0 0-.436.872.69.69 0 0 0 .872.436zm-6.325 2.532h0a.69.69 0 0 0 .331-.916.69.69 0 0 0-.916-.331h0a.69.69 0 0 0-.331.916.69.69 0 0 0 .916.331zm-5.983 3.251h0c.324-.2.422-.624.22-.948s-.624-.422-.948-.22h0a.69.69 0 0 0-.223.948.69.69 0 0 0 .948.223h0zm-5.567 3.926h0a.69.69 0 0 0 .111-.969.69.69 0 0 0-.969-.11h0a.69.69 0 0 0-.11.969.69.69 0 0 0 .969.11zm-5.078 4.543h0a.69.69 0 0 0-.002-.973.69.69 0 0 0-.973.002h0a.69.69 0 0 0 .002.973.69.69 0 0 0 .973-.002zm-4.52 5.099h0c.236-.298.184-.732-.115-.966a.69.69 0 0 0-.966.115h0c-.236.298-.184.732.115.966a.69.69 0 0 0 .966-.115zm-3.9 5.588h0a.69.69 0 0 0-.225-.948.69.69 0 0 0-.948.225h0a.69.69 0 0 0 .225.948.69.69 0 0 0 .948-.225zm-3.228 6.003h0c.161-.344.011-.755-.335-.914s-.755-.011-.914.335-.011.755.335.914.755.011.914-.335zm-2.505 6.338h0a.69.69 0 0 0-.438-.87.69.69 0 0 0-.87.438h0a.69.69 0 0 0 .438.87.69.69 0 0 0 .87-.438zM6.57 52.276h0a.69.69 0 0 0-.537-.813.69.69 0 0 0-.813.537h0a.69.69 0 0 0 .537.813.69.69 0 0 0 .813-.537zm-.964 6.745h0a.69.69 0 0 0-.629-.744.69.69 0 0 0-.744.629h0a.69.69 0 0 0 .629.744.69.69 0 0 0 .744-.629zm-.179 6.811h0a.69.69 0 0 0-.709-.668.69.69 0 0 0-.668.709h0a.69.69 0 0 0 .709.668.69.69 0 0 0 .668-.709zm.601 6.786h0a.69.69 0 0 0-.783-.581.69.69 0 0 0-.581.783h0a.69.69 0 0 0 .783.581.69.69 0 0 0 .581-.783zm1.384 6.671h0a.69.69 0 0 0-.845-.487.69.69 0 0 0-.487.845h0a.69.69 0 0 0 .845.487.69.69 0 0 0 .487-.845zm2.153 6.462h0c-.14-.354-.542-.526-.895-.383a.69.69 0 0 0-.383.895h0c.14.354.542.526.895.383a.69.69 0 0 0 .383-.895zm2.895 6.169h0a.69.69 0 0 0-.934-.278.69.69 0 0 0-.278.934h0a.69.69 0 0 0 .934.278.69.69 0 0 0 .278-.934zm3.591 5.787h0a.69.69 0 0 0-.96-.168.69.69 0 0 0-.168.96h0a.69.69 0 0 0 .96.168.69.69 0 0 0 .168-.96zm4.238 5.333h0a.69.69 0 0 0-.973-.055.69.69 0 0 0-.055.973h0a.69.69 0 0 0 .973.055.69.69 0 0 0 .055-.973zm4.828 4.81h0a.69.69 0 0 0-.973.057.69.69 0 0 0 .057.973.69.69 0 0 0 .973-.057.69.69 0 0 0-.057-.973zm5.351 4.22h0a.69.69 0 0 0-.96.17.69.69 0 0 0 .17.96.69.69 0 0 0 .96-.17.69.69 0 0 0-.17-.96zm5.804 3.572h0c-.335-.181-.753-.055-.932.28s-.055.753.28.932h0c.335.181.753.055.932-.28a.69.69 0 0 0-.28-.932zm6.18 2.874h0c-.354-.14-.753.032-.893.388s.032.753.388.893.753-.032.893-.388-.032-.753-.388-.893zm6.474 2.133h0a.69.69 0 0 0-.843.489.69.69 0 0 0 .489.843h0a.69.69 0 0 0 .843-.489.69.69 0 0 0-.489-.843zm6.676 1.361h0a.69.69 0 0 0-.781.583.69.69 0 0 0 .583.781.69.69 0 0 0 .781-.583.69.69 0 0 0-.583-.781zm6.788.574h0a.69.69 0 0 0-.707.67.69.69 0 0 0 .67.707h0a.69.69 0 0 0 .707-.67.69.69 0 0 0-.67-.707zm6.811-.209h0c-.379.034-.659.367-.624.746s.367.659.746.624h0a.69.69 0 0 0 .627-.746.69.69 0 0 0-.746-.627h0zm6.74-.989h0a.69.69 0 0 0-.535.815.69.69 0 0 0 .815.535h0a.69.69 0 0 0 .535-.815.69.69 0 0 0-.815-.535zm6.58-1.768h0a.69.69 0 0 0-.436.87.69.69 0 0 0 .87.436h0a.69.69 0 0 0 .436-.87.69.69 0 0 0-.87-.436zm6.327-2.525h0c-.344.161-.494.572-.331.916s.572.494.916.331.494-.572.331-.916-.572-.494-.916-.331zm5.987-3.244h0a.69.69 0 0 0-.223.948.69.69 0 0 0 .948.223h0a.69.69 0 0 0 .223-.948.69.69 0 0 0-.948-.223zm5.572-3.919h0c-.298.236-.347.67-.11.966s.67.347.966.11h0c.298-.236.347-.67.11-.966a.69.69 0 0 0-.969-.11h0zm5.083-4.539h0a.69.69 0 0 0 0 .973.69.69 0 0 0 .973 0 .69.69 0 0 0 0-.973.69.69 0 0 0-.973 0zm4.525-5.094h0c-.236.298-.184.732.115.966a.69.69 0 0 0 .966-.115.69.69 0 0 0-.115-.966.69.69 0 0 0-.966.115zm3.907-5.583h0a.69.69 0 0 0 .225.948.69.69 0 0 0 .948-.225h0a.69.69 0 0 0-.225-.948.69.69 0 0 0-.948.225zm3.232-6.001h0a.69.69 0 0 0 .333.916.69.69 0 0 0 .916-.333h0a.69.69 0 0 0-.333-.916.69.69 0 0 0-.916.333zm2.512-6.336h0a.69.69 0 0 0 .438.87c.363.119.751-.076.87-.438h0a.69.69 0 0 0-.438-.87.69.69 0 0 0-.87.438zm1.754-6.586h0a.69.69 0 0 0 .537.813.69.69 0 0 0 .813-.537h0a.69.69 0 0 0-.537-.813.69.69 0 0 0-.813.537zm.971-6.743h0c-.032.379.248.712.627.744s.712-.248.744-.627h0c.032-.379-.248-.712-.627-.744s-.712.248-.744.627z" fill="#e62058"/><g clip-path="url(#A)" transform="matrix(.229572 0 0 .229572 -2.320974 -2.31179)"><path d="M342.63 476.24H233.61c-10.47 0-18.95 8.48-18.95 18.95v62.48a279.17 279.17 0 0 0 148.46 0v-60.95a20.49 20.49 0 0 0-20.49-20.49z" fill="#e62058"/></g><g fill="#e62058"><path d="M81.066 58.513l-30.363-.023c-8.278 0-15.163 6.547-15.379 14.961-.007.225.179.411.404.411l30.363.018v.005c8.278 0 15.163-6.547 15.379-14.961.007-.225-.179-.411-.404-.411zm15.391-23.051l-45.754-.023c-8.278 0-15.163 6.547-15.379 14.961-.007.225.179.411.404.411l45.754.018v.005c8.278 0 15.163-6.547 15.379-14.961.007-.225-.179-.411-.404-.411z"/><circle cx="43.017" cy="89.136" r="7.695"/></g><path d="M59.386 122.511l-2.64-10.68h2l1.205 5.889.489 2.67h.03l.641-2.67 1.511-5.889h1.967l1.556 5.889.611 2.67h.03l.489-2.67 1.175-5.889h2l-2.64 10.68h-2.059l-1.511-5.767-.641-2.7h-.03l-.595 2.732-1.511 5.737h-2.075z" fill="#fff"/></svg>