<svg xmlns="http://www.w3.org/2000/svg" xmlns:xlink="http://www.w3.org/1999/xlink" width="128" height="128" fill="none" xmlns:v="https://vecta.io/nano"><path d="M64 128A64 64 0 0 1 4.872 88.492a64 64 0 0 1 13.873-69.747A64 64 0 0 1 88.492 4.872 64 64 0 0 1 128 64c-.019 16.968-6.769 33.235-18.767 45.233a64.06 64.06 0 0 1-21.376 14.13C80.344 126.388 72.255 127.991 64 128zM64 2.014c-12.262 0-24.247 3.636-34.442 10.448S11.417 28.957 6.726 40.285.806 64.078 3.199 76.104a61.99 61.99 0 0 0 16.968 31.741c8.67 8.67 19.717 14.573 31.743 16.965s24.491 1.162 35.818-3.531 21.009-12.64 27.82-22.836S125.994 76.261 125.993 64A62.06 62.06 0 0 0 64 1.994z" fill="#04112e"/><g clip-path="url(#F)" transform="matrix(3.2 0 0 3.2 0 -.337499)"><path d="M39.687 20.207a19.69 19.69 0 0 1-12.152 18.191 19.69 19.69 0 0 1-21.457-4.267 19.69 19.69 0 0 1-4.269-21.456A19.69 19.69 0 0 1 19.999.521a19.69 19.69 0 0 1 19.688 19.686z" fill="url(#A)"/><path d="M20 40.105A20 20 0 0 1 1.522 27.759 20 20 0 0 1 5.858 5.963a20 20 0 0 1 21.796-4.335A20 20 0 0 1 40 20.106c-.006 5.302-2.115 10.386-5.865 14.135A20.02 20.02 0 0 1 20 40.105zM20 .735C16.168.735 12.423 1.871 9.237 4s-5.669 5.155-7.135 8.695S.252 20.13 1 23.888s2.593 7.21 5.302 9.919 6.162 4.554 9.92 5.301 7.653.363 11.193-1.103 6.565-3.95 8.694-7.136 3.264-6.932 3.264-10.763c-.005-5.137-2.047-10.062-5.679-13.695S25.137.734 20 .729z" fill="#061c4c"/><path style="mix-blend-mode:overlay" opacity=".5" d="M32.477 20.183a12.16 12.16 0 0 1-7.505 11.24c-2.222.921-4.668 1.162-7.028.693a12.16 12.16 0 0 1-6.228-3.328c-1.701-1.701-2.86-3.868-3.329-6.228s-.228-4.805.692-7.028a12.16 12.16 0 0 1 11.238-7.507 12.16 12.16 0 0 1 12.16 12.158z" fill="url(#B)"/><g style="mix-blend-mode:soft-light"><path d="M19.983 1.444c5.199.002 10.191 2.036 13.912 5.666s5.876 8.572 6.006 13.769c0-.174.025-.341.025-.512-.054-5.254-2.179-10.275-5.913-13.971S25.236.625 19.982.625 9.685 2.699 5.95 6.395.091 15.113.037 20.367c0 .171.023.339.027.512A19.93 19.93 0 0 1 19.983 1.444z" fill="#f3eff9"/></g><g style="mix-blend-mode:multiply" opacity=".4"><path d="M19.974 38.892c-5.201-.002-10.196-2.036-13.918-5.67S.18 24.644.053 19.444c-.004.159-.025.32-.025.487-.027 2.636.469 5.252 1.459 7.695s2.455 4.666 4.31 6.54 4.062 3.361 6.496 4.376 5.043 1.538 7.68 1.538 5.247-.523 7.68-1.538 4.641-2.503 6.496-4.376 3.319-4.097 4.31-6.54 1.486-5.059 1.459-7.695c0-.165-.021-.326-.025-.491a19.93 19.93 0 0 1-19.918 19.452z" fill="#000"/></g><g style="mix-blend-mode:overlay" opacity=".58"><path d="M20.024 2.342c-3.642 0-7.202 1.079-10.23 3.102s-5.389 4.898-6.783 8.262-1.76 7.066-1.051 10.638 2.462 6.853 5.036 9.429 5.854 4.331 9.426 5.043 7.274.349 10.639-1.043 6.242-3.751 8.267-6.778 3.107-6.586 3.109-10.228a18.4 18.4 0 0 0-1.395-7.052c-.924-2.236-2.28-4.268-3.99-5.979a18.4 18.4 0 0 0-13.027-5.394z" fill="#f3eff9"/></g><g style="mix-blend-mode:soft-light"><path d="M11.758 3.311l2.267 3.747a13.93 13.93 0 0 1 13.149.479h.109l2.24-3.676a18.29 18.29 0 0 0-17.764-.55z" fill="#f3eff9"/></g><path d="M8.783 20.526c-.001-2.188.589-4.336 1.708-6.217s2.724-3.425 4.648-4.469 4.093-1.55 6.279-1.463 4.309.762 6.144 1.955c-1.294-1.01-2.78-1.748-4.368-2.168s-3.243-.514-4.868-.277-3.185.802-4.585 1.659-2.613 1.989-3.564 3.328-1.621 2.856-1.97 4.461-.368 3.263-.058 4.876.944 3.145 1.863 4.506 2.104 2.521 3.484 3.411a12.13 12.13 0 0 1-4.713-9.6z" fill="#fff"/><path style="mix-blend-mode:overlay" opacity=".53" d="M20.121 7.767a12.11 12.11 0 0 0-1.92.167l-8.011 4.99c-1.462 2.061-2.243 4.528-2.232 7.055s.812 4.987 2.291 7.036l13.247-18.76c-1.096-.321-2.233-.485-3.375-.487z" fill="url(#C)"/><path style="mix-blend-mode:overlay" opacity=".53" d="M20.119 32.088c3.018 0 5.926-1.128 8.156-3.162l.335-17.691A12.13 12.13 0 0 0 23.59 8.28l-5.539 23.63c.683.118 1.375.177 2.068.178z" fill="url(#D)"/><path style="mix-blend-mode:overlay" opacity=".4" d="M20.12 7.765a12.15 12.15 0 0 0-11.312 7.68c-.897 2.268-1.09 4.753-.555 7.132a12.15 12.15 0 0 0 3.555 6.208c.595-3.628 2.157-7.027 4.523-9.841 3.268-3.833 9.368-5.517 13.551-6.248a12.13 12.13 0 0 0-9.762-4.931z" fill="url(#E)"/><g style="mix-blend-mode:multiply" opacity=".25"><path d="M29.257 35.55l-2.16-3.789c-2.15 1.285-4.606 1.968-7.111 1.978a13.96 13.96 0 0 1-7.126-1.924l-2.173 3.781a18.3 18.3 0 0 0 18.569-.046z" fill="#000"/></g><g style="mix-blend-mode:multiply" opacity=".15"><path d="M38.388 19.688l-.013-.261-4.364-.023.013.284a14.03 14.03 0 0 1-6.901 12.083l2.156 3.785a18.4 18.4 0 0 0 6.666-6.721c1.598-2.784 2.44-5.937 2.443-9.146z" fill="#000"/></g><g style="mix-blend-mode:multiply" opacity=".1"><path d="M12.901 31.817a14.03 14.03 0 0 1-6.982-12.129c0-.086.01-.167.013-.253H1.567c0 .084-.013.163-.013.247a18.39 18.39 0 0 0 9.17 15.914z" fill="#000"/></g><g fill="#fff"><path d="M15.714 25.106c-1.135-1.058-1.702-2.751-1.702-5.077 0-4.443 2.161-6.665 6.483-6.665a10.74 10.74 0 0 1 2.928.379 6.87 6.87 0 0 1 2.01.836v4.143H21.46v-1.19c.028-.334-.073-.665-.282-.926-.238-.194-.536-.299-.843-.299a1.34 1.34 0 0 0-.843.299c-.209.261-.31.593-.282.926v4.994c-.028.334.073.665.282.926.239.192.536.297.843.297s.604-.105.843-.297c.209-.261.31-.593.282-.926v-1.34h3.973v4.285a7.11 7.11 0 0 1-2.01.836c-.939.26-1.911.389-2.886.381-2.084.004-3.692-.523-4.822-1.581zm4.316 10.661h-.207l-.002-.002h.002zm-7.227-1.701l-.187-.094c-.011-.004-.021-.01-.029-.018s-.015-.018-.019-.029-.006-.022-.006-.034.004-.023.009-.033.013-.02.022-.027.02-.013.031-.015.023-.003.034-.001a.08.08 0 0 1 .032.013l.18.103c.009.005.017.011.023.019s.011.017.014.026.004.02.003.029-.004.02-.009.028-.011.017-.019.023-.017.011-.026.014c-.019.006-.04.004-.058-.006zm-5.754-4.811l-.125-.169a.31.31 0 0 1 .061-.433.31.31 0 0 1 .433.061l.013.019.109.174a.3.3 0 0 1-.086.404.3.3 0 0 1-.407-.067zm-3.007-7.024l-.036-.209a.65.65 0 0 1 .535-.744.65.65 0 0 1 .744.535.3.3 0 0 1 0 .061l.013.209c.019.168-.03.336-.136.468a.64.64 0 0 1-.427.235c-.168.019-.336-.03-.468-.136a.64.64 0 0 1-.235-.427zm.587-7.777l.071-.209a1.01 1.01 0 0 1 1.913.653.52.52 0 0 1-.031.079l-.077.178v.017a1 1 0 0 1-1.276.518 1 1 0 0 1-.587-1.245zm4.289-6.7l.165-.155a1.3 1.3 0 0 1 .925-.327c.339.016.659.165.889.414a1.3 1.3 0 0 1 .344.919c-.01.34-.153.662-.398.897l-.059.05-.146.121-.019.015a1.29 1.29 0 0 1-1.804-.137 1.29 1.29 0 0 1 .112-1.805zm7.067-3.881l.222-.044c.185-.051.379-.064.57-.038s.374.088.54.185.311.226.426.38a1.46 1.46 0 0 1 .246.515 1.44 1.44 0 0 1 .027.57 1.45 1.45 0 0 1-.584.955 1.45 1.45 0 0 1-.52.236h-.034-.021l-.184.04h-.023a1.44 1.44 0 0 1-1.062-.2c-.314-.202-.539-.518-.625-.882s-.028-.747.163-1.069.499-.557.86-.656zm8.099-.003l.209.059c.371.093.69.33.887.658s.255.722.162 1.093-.33.69-.659.887-.721.255-1.093.162h-.025l-.184-.044h-.015a1.45 1.45 0 0 1-1.07-1.752 1.45 1.45 0 0 1 1.752-1.071zm7.074 3.882l.163.155a1.29 1.29 0 0 1-1.715 1.926l-.021-.019-.146-.121a1.3 1.3 0 0 1-.457-.882c-.015-.17.005-.341.056-.504a1.3 1.3 0 0 1 2.074-.6zm4.284 6.703l.067.209a1 1 0 0 1-1.869.705l-.01-.021-.075-.18a1.01 1.01 0 0 1 .549-1.293 1.01 1.01 0 0 1 1.312.5zm.586 7.79l-.038.209a.63.63 0 1 1-1.255-.155v-.015l.015-.209c.017-.168.099-.322.228-.43s.295-.161.464-.148a.65.65 0 0 1 .436.217.64.64 0 0 1 .16.459l-.01.071zm-3.024 7.018l-.128.167c-.047.059-.114.099-.188.11s-.151-.007-.212-.05-.105-.108-.12-.182-.002-.151.038-.215l.111-.172c.044-.068.113-.115.191-.132s.161-.002.229.042.115.113.132.192.002.161-.042.229zm-5.751 4.806l-.187.092c-.017.007-.036.008-.053.001s-.032-.019-.04-.035a.08.08 0 0 1-.006-.053c.004-.018.016-.033.032-.043l.189-.09c.009-.007.019-.011.03-.014s.022-.002.033 0 .021.007.03.013.016.015.022.024.009.02.01.031 0 .022-.004.032-.009.02-.017.028a.08.08 0 0 1-.027.018z"/></g></g><defs><linearGradient id="A" x1="12.437" y1="2.192" x2="28.7" y2="40.939" xlink:href="#G"><stop offset=".02" stop-color="#00abff"/><stop offset="1" stop-color="#002f9c"/></linearGradient><linearGradient id="B" x1="8.154" y1="20.185" x2="32.477" y2="20.185" xlink:href="#G"><stop stop-color="#fff"/></linearGradient><linearGradient id="C" x1="1291.91" y1="2327.42" x2="1165.56" y2="1636.24" xlink:href="#G"><stop stop-color="#fff"/></linearGradient><linearGradient id="D" x1="1262.02" y1="3480.66" x2="915.825" y2="2440.1" xlink:href="#G"><stop stop-color="#fff"/></linearGradient><linearGradient id="E" x1="842.192" y1="1859.45" x2="3140.78" y2="1859.45" xlink:href="#G"><stop stop-color="#fff"/></linearGradient><clipPath id="F"><path fill="#fff" d="M0 0h40v40H0z"/></clipPath><linearGradient id="G" gradientUnits="userSpaceOnUse"/></defs></svg>