<svg xmlns="http://www.w3.org/2000/svg" width="128" height="128" viewBox="0 0 33.867 33.867" xmlns:v="https://vecta.io/nano"><defs><linearGradient id="A" x1="0" y1="33.867" x2="33.867" y2="0" gradientUnits="userSpaceOnUse"><stop offset="0" stop-color="#f4d3ae"/><stop offset=".282" stop-color="#fde78a"/><stop offset=".514" stop-color="#eef7fb"/><stop offset=".821" stop-color="#97d4e5"/></linearGradient></defs><circle cx="16.933" cy="16.933" r="16.933" fill="url(#A)"/><path d="M12.329 3.726c-1.2.168-2.165 1.178-2.326 2.433-.098.76.235 1.746.794 2.342l.147.156-.055.321c-.171 1.011-.049 1.871.351 2.461.113.171.479.531.516.51.015-.009.049-.067.073-.128l.049-.11.055.122.055.143c.003.012-.076.037-.171.055-.687.137-1.209.427-1.209.672 0 .052.021.116.049.143.046.046.024.064-.293.232-1.169.62-2.076 1.435-2.806 2.522-.418.626-.898 1.664-.931 2.018-.012.116 0 .159.082.284.055.079.137.165.186.189.101.052.25.058.333.015.052-.027.061-.018.076.082a3.41 3.41 0 0 0 .318.971c.403.827.992 1.484 1.792 2.003.305.198.345.235.33.299-.021.104.043.269.131.339.104.079.232.076.592-.015.513-.128 1.02-.354 1.441-.635.128-.085.211-.125.22-.104.113.372.159.488.244.659l.171.311.064.107-.201.281c-.769 1.069-1.759 2.925-2.091 3.929a2.81 2.81 0 0 1-.168.418c-.082.122-.04.241.159.458.907.983 3.999 2.723 5.196 2.925.849.143 1.505-.278 1.374-.879a1.13 1.13 0 0 0-.388-.565c-.101-.07-.131-.113-.122-.159.006-.034.186-.659.397-1.395l.394-1.472.012-.14a24.65 24.65 0 0 1 .488.293c.815.488 1.514.809 2.525 1.157.452.153.418.15.928.079.846-.116 2.22-1.072 3.062-2.125.412-.516.876-1.325 1.007-1.746.092-.296.082-.623-.018-.827-.241-.482-.858-.614-1.337-.284l-.134.095-.134-.073c-.128-.07-1.432-.522-1.951-.675l-.266-.079.085-.205c.235-.553.363-1.224.388-1.991.027-.907-.085-1.624-.421-2.638l-.18-.574c0-.012.015-.024.034-.024a5.6 5.6 0 0 0 .449-.156c.525-.195 1.178-.507 1.649-.788.366-.214.919-.611 1.026-.73.11-.125-.006-.372-.171-.372-.113 0-.043-.052.321-.238.498-.256.873-.531 1.313-.953.54-.519.998-1.157 1.236-1.725l.153-.342c.064-.125.027-.272-.162-.672-.36-.763-1.114-1.557-1.957-2.064-.305-.183-.867-.443-1.096-.504l-.214-.058.009-.104a3.13 3.13 0 0 0-.137-.891c-.25-.794-.797-1.42-1.499-1.713-.782-.327-1.911-.293-2.797.089l-.253.11-.137-.061c-.281-.119-1.585-.531-2.1-.666-.965-.247-1.334-.208-1.014.113l.116.116-.183.021-.495.079-.308.058-.211-.14c-.663-.446-1.701-.696-2.452-.592z" fill="#fff"/><path d="M12.329 3.726c-1.2.168-2.165 1.178-2.326 2.433-.098.76.235 1.746.794 2.342l.147.156-.055.321c-.171 1.011-.049 1.871.351 2.461.113.171.479.531.516.51.015-.009.049-.067.073-.128l.049-.11.055.122.055.143c.003.012-.076.037-.171.055-.687.137-1.209.427-1.209.672 0 .052.021.116.049.143.046.046.024.064-.293.232-1.169.62-2.076 1.435-2.806 2.522-.418.626-.898 1.664-.931 2.018-.012.116 0 .159.082.284.055.079.137.165.186.189.101.052.25.058.333.015.052-.027.061-.018.076.082a3.41 3.41 0 0 0 .318.971c.403.827.992 1.484 1.792 2.003.305.198.345.235.33.299-.021.104.043.269.131.339.104.079.232.076.592-.015.513-.128 1.02-.354 1.441-.635.128-.085.211-.125.22-.104.113.372.159.488.244.659l.171.311.064.107-.201.281c-.769 1.069-1.759 2.925-2.091 3.929a2.81 2.81 0 0 1-.168.418c-.082.122-.04.241.159.458.907.983 3.999 2.723 5.196 2.925.849.143 1.505-.278 1.374-.879a1.13 1.13 0 0 0-.388-.565c-.101-.07-.131-.113-.122-.159.006-.034.186-.659.397-1.395l.394-1.472.012-.14a24.65 24.65 0 0 1 .488.293c.815.488 1.514.809 2.525 1.157.452.153.418.15.928.079.846-.116 2.22-1.072 3.062-2.125.412-.516.876-1.325 1.007-1.746.092-.296.082-.623-.018-.827-.241-.482-.858-.614-1.337-.284l-.134.095-.134-.073c-.128-.07-1.432-.522-1.951-.675l-.266-.079.085-.205c.235-.553.363-1.224.388-1.991.027-.907-.085-1.624-.421-2.638l-.18-.574c0-.012.015-.024.034-.024a5.6 5.6 0 0 0 .449-.156c.525-.195 1.178-.507 1.649-.788.366-.214.919-.611 1.026-.73.11-.125-.006-.372-.171-.372-.113 0-.043-.052.321-.238.498-.256.873-.531 1.313-.953.54-.519.998-1.157 1.236-1.725l.153-.342c.064-.125.027-.272-.162-.672-.36-.763-1.114-1.557-1.957-2.064-.305-.183-.867-.443-1.096-.504l-.214-.058.009-.104a3.13 3.13 0 0 0-.137-.891c-.25-.794-.797-1.42-1.499-1.713-.782-.327-1.911-.293-2.797.089l-.253.11-.137-.061c-.281-.119-1.585-.531-2.1-.666-.965-.247-1.334-.208-1.014.113l.116.116-.183.021-.495.079-.308.058-.211-.14c-.663-.446-1.701-.696-2.452-.592zm.55 1.31c.409.153.415.162.131.26-.546.192-.992.501-1.093.751-.027.07-.043.137-.034.153s.07.018.137.009c.147-.021.153.006.027.162-.134.168-.391.55-.488.724l-.079.147-.128-.14c-.26-.281-.382-.721-.314-1.117.052-.305.168-.531.385-.748.266-.266.421-.321.858-.305.284.009.376.024.598.107zm9.254.76c.772.379.882 1.481.214 2.137-.107.107-.205.183-.217.168s-.07-.14-.125-.284a7.08 7.08 0 0 0-.232-.525l-.134-.287c0-.009.061-.009.137 0 .134.021.137.018.137-.058 0-.278-.476-.757-1.032-1.035-.092-.046-.159-.089-.153-.095s.122-.043.256-.076c.183-.046.324-.058.592-.052.33.006.366.012.556.107zm-6.814.714a.54.54 0 0 1 .275.464c0 .186-.031.214-.186.186-.073-.012-.278-.031-.455-.043-.299-.018-.321-.021-.33-.085a.65.65 0 0 1 .122-.391c.159-.201.348-.244.574-.131zm3.541.397a.48.48 0 0 1 .238.412c.009.143 0 .192-.049.253l-.061.073-.198-.079c-.11-.046-.29-.092-.4-.104s-.217-.04-.235-.061c-.073-.092.082-.394.256-.501.134-.082.324-.079.449.006zm5.291 1.004c.586.189 1.02.449 1.456.87a4.07 4.07 0 0 1 .98 1.508l.089.25-.156.278-.308.501c-.568.846-1.615 1.78-2.387 2.131-.318.143-.363.201-.339.412.012.092.043.201.067.241.058.089.07.079-.394.357-.586.348-1.215.644-1.875.885l-.281.101-.266-.647c-.314-.757-.391-.916-.571-1.188l-.137-.201.168-.131c.22-.177.583-.565.641-.69.061-.131.085-.128.11.018.009.067.031.128.043.137.04.024.409-.235.583-.409.519-.519.769-1.224.818-2.314.015-.379.027-.44.073-.467.128-.067.434-.348.589-.54.296-.366.464-.675.638-1.175.024-.061.049-.058.458.073zm-6.924.663c.553.119.953.327 1.298.675a1.93 1.93 0 0 1 .58 1.444c0 .342-.067.589-.214.803-.171.247-.452.437-.754.504-.217.049-.595.04-.806-.018a.89.89 0 0 1-.614-.696c-.009-.082-.003-.089.214-.143.656-.168 1.105-.586 1.105-1.035-.003-.519-.391-.736-1.49-.821-.843-.067-1.304.095-1.414.492-.128.476.217.977.882 1.282l.214.104c.006.003-.024.079-.07.171-.177.354-.418.495-.84.495s-.748-.122-1.023-.382c-.29-.275-.418-.663-.354-1.084.143-.965.806-1.639 1.795-1.829a5.35 5.35 0 0 1 1.49.04zm-.601 3.374c.186.198.559.369.882.409.15.015.162.024.162.098 0 .131-.14.391-.299.546-.186.189-.537.363-.791.397-.717.098-1.447-.418-1.523-1.075l-.021-.171h.272c.446 0 .797-.134 1.014-.385l.11-.125.058.11a1.17 1.17 0 0 0 .137.195zm-4.039.833c.724.806 1.899 1.472 2.989 1.694 1.221.247 2.595.031 3.722-.595l.296-.165.376.556.4.592c.012.018-.076-.012-.192-.07-.608-.305-1.462-.339-2.125-.079a2.97 2.97 0 0 0-.479.256c-.345.229-.943.775-1.096 1.004-.577.846-.687 1.939-.33 3.215.147.513.44 1.218.574 1.371.046.055.04.055-.195.031-.382-.043-.684-.034-.714.015-.076.122.04.165.644.232.452.049.803.113.998.183.067.024.43.113.803.198 1.856.427 2.662.663 4.863 1.423l.366.125c.018.003.052.024.082.046.082.061.269-.018.47-.198.211-.192.339-.266.464-.266.14 0 .168.061.153.308-.015.189-.043.266-.247.678a6.24 6.24 0 0 1-1.319 1.841c-.415.412-.977.837-1.499 1.139l-.479.284c-.082.058-.082.058-.275-.034-.104-.049-.327-.131-.495-.18-.907-.272-2.558-.968-3.303-1.395-1.13-.647-1.719-1.136-3.236-2.684-.919-.94-.907-.925-1.017-1.359-.021-.073-.076-.177-.125-.226l-.092-.089.195-.205a4.5 4.5 0 0 0 1.197-2.4c.085-.516.055-.721-.137-.937-.14-.162-.314-.244-.702-.333-.186-.043-.269-.073-.253-.098a2.43 2.43 0 0 1 .116-.159c.26-.327.717-1.108.717-1.224 0-.082-.073-.143-.143-.122-.031.009-.092.079-.14.153a4.66 4.66 0 0 1-.788.855l-.357.305-.101.095-.556.003c-.488 0-.589.009-.83.076-.25.067-.275.079-.275.147 0 .082-.076.064 1.084.263.568.101 1.264.272 1.566.388.272.104.266.092.186.476-.263 1.291-1.069 2.357-2.198 2.91-.186.089-.742.302-.794.302-.003 0-.021-.04-.043-.089-.052-.125-.134-.192-.412-.339-.546-.284-1.157-.846-1.527-1.404-.226-.336-.537-.928-.705-1.34-.079-.186-.14-.293-.18-.308-.034-.012-.089-.052-.119-.089-.055-.061-.055-.067.027-.299a8.85 8.85 0 0 1 .724-1.398c.675-1.007 1.533-1.82 2.528-2.39.485-.278.727-.504.656-.617-.037-.058.473-.223.846-.272l.211-.031c.009 0 .113.101.226.229zm6.793 2.14c.311.104.534.244.843.537.473.446.739.91.818 1.41.134.867.143 2.265.024 2.946-.116.644-.363 1.359-.461 1.331-.171-.049-1.105-.244-1.472-.308-.464-.076-1.12-.153-1.633-.183l-.305-.021-.034-.186c-.018-.104-.095-.357-.171-.562a6.42 6.42 0 0 1-.281-.917 5 5 0 0 1-.107-1.091c0-.739.107-1.27.382-1.893.131-.296.177-.36.369-.553.55-.54 1.337-.739 2.027-.51zm-5.801 8.084c.11.073.26.162.336.198s.226.14.336.229l1.991 1.462.54.363-.079.101c-.043.058-.116.223-.165.369l-.882 3.059c0 .11.137.275.235.281l.143.009c.067.003.11.031.162.107.143.214.119.369-.067.449-.232.095-.327.067-1.343-.391-.983-.446-1.856-.916-2.659-1.438l-1.429-.992c0-.012.134-.296.299-.632.779-1.597.998-1.997 1.673-3.029l.363-.556.174.14a4.3 4.3 0 0 0 .372.269z" paint-order="stroke markers fill"/><path d="M24.3 8.641c-.311.189-.171.672.195.672.113 0 .156-.018.25-.104.104-.098.113-.119.11-.266s-.012-.168-.113-.26c-.134-.122-.287-.137-.443-.043zm-.8.919c-.11.046-.211.147-.284.287-.089.162-.095.675-.015.934.113.363.437.721.76.84.296.11.794.043 1.191-.156.263-.134.379-.354.302-.577s-.29-.29-.717-.217c-.437.07-.58.055-.678-.073-.067-.092-.079-.305-.031-.556.055-.272.04-.36-.079-.44a.68.68 0 0 0-.449-.043zm2.103.159c-.189.128-.232.33-.11.513.079.119.256.195.376.168a.53.53 0 0 0 .186-.125c.082-.082.101-.125.101-.229 0-.159-.076-.29-.201-.351-.134-.064-.229-.058-.351.024z"/></svg>