<svg xmlns="http://www.w3.org/2000/svg" width="128" height="128" xmlns:v="https://vecta.io/nano"><style>.B{isolation:isolate}.E,.F{mix-blend-mode:screen}</style><defs><clipPath id="A"><path d="M395.05 15.7c-150 0-308.47 216.68-308.47 422.22 0 194.24 134.81 346.38 306.76 346.38 157.41 0 320.08-129.54 320.08-346.38 0-193.31-172.58-422.22-318.37-422.22z" fill="none"/></clipPath></defs><g class="B"><path d="M63.208 2.512c-24 0-49.355 34.669-49.355 67.555 0 31.078 21.57 55.421 49.082 55.421 25.186 0 51.213-20.726 51.213-55.421 0-30.93-27.613-67.555-50.939-67.555z" fill="#e44848"/><g clip-path="url(#A)" transform="scale(.16)"><path class="E" d="M204.59 114.74c-48.94 48.9-109.4 150.46-79.65 313.15S351.72 737.28 525.69 681.8 746.5 510.65 709.07 298.11 508.81 18.82 412.84 7.53 253.53 65.84 204.59 114.74z" fill="#f37c7d" opacity=".1"/></g><path class="F" d="M43.029 20.742c-5.811 8.736-14.15 38.56 4.499 56.187s39.286 19.283 54.094 6.478 9.638-37.509-1.531-54.08S72.918 4.925 64.426 5.075 48.84 12 43.029 20.742z" fill="#fcdede" opacity=".08"/><g opacity=".3"><path d="M111.147 73.178c-.946-1.019-2.522-1.075-3.806-.915-2.92.366-4.085 2.848-4.31 5.44-.029.092-.05.186-.064.282-.224 1.717-.147 3.347 1.531 4.32a3.32 3.32 0 0 0 1.531.442l.045.011c3.171.626 5.459-2.454 5.794-5.253.158-1.328.259-3.264-.72-4.326z" fill="#ea7467"/><g fill="#e07979"><path d="M93.253 108.16c-.52-.946-1.349-1.261-2.24-1.227h-.075a3.58 3.58 0 0 0-1.461.211c-.152.016-.3.062-.434.136-1.557.827-2.666 2.645-1.784 4.371.824 1.616 3.339 1.939 4.837 1.083 1.354-.778 1.888-3.245 1.157-4.574zm11.08-16.246a3.03 3.03 0 0 0-.894-.64 4 4 0 0 0-.781-.366c-1.064-.373-2.302-.32-3.2.309a1.12 1.12 0 0 0-.406.278c-1.267 1.336-1.488 3.485-.243 4.923s3.49 1.677 4.96.48c1.429-1.158 1.938-3.568.565-4.984zM24.219 50.616a2.93 2.93 0 0 0-.677-1.824c-.872-.986-2.466-.976-3.168.195a.67.67 0 0 0-.086.525c-.195.739-.096 1.6.254 2.162.576.915 2.248 1.808 3.216.918.464-.432.486-1.405.461-1.976z"/></g><g fill="#e26d6d"><path d="M86.442 103.77c-.725-1.054-2.125-1.317-3.114-.48a.94.94 0 0 0-.298.523c-.677.88-.674 2.08.139 2.907s2.224.715 3.019-.061c.763-.779.869-1.99.253-2.89zm-42.602 3.144c-1.522-1.963-4.666-3.182-7.04-2.184-.427.015-.846.119-1.23.306-1.029.517-1.402 1.587-1.483 2.672-.09 1.194.051 2.499.765 3.498.664.93 1.677 1.554 2.68 2.064 2.021 1.032 4.68 1.579 6.36-.366 1.499-1.736 1.307-4.235-.051-5.989z"/></g><path d="M51.63 98.674c-1.517.088-2.958 1.6-2.893 3.125a.8.8 0 0 0 .107.379c-.026.225-.009.452.05.67.218.766.96 1.062 1.686 1.149 1.544.187 3.075-.762 3.386-2.328.296-1.491-.714-3.09-2.336-2.995z" fill="#ea7467"/><path d="M27.824 44.699c-.16-.552-.706-.883-1.165-.755h0c-.64.022-1.206.782-1.141 1.44.077.742.941 1.104 1.539.91s.958-.934.766-1.595z" fill="#e26d6d"/></g><path d="M44.768 103.123l-.032-.174-5.259-24.741a20.034 20.034 0 0 1 4.709-17.534l-2.366-5.491a5.51 5.51 0 0 1 .32-5.035l.035-.059a5.626 5.626 0 0 1 7.701-2.008 10.24 10.24 0 0 1 7.555-12.32c5.475-1.165 9.997 2.022 12.013 7.802l7.051 20.307a2.907 2.907 0 0 1 1.101.094l13.15 3.746a3.139 3.139 0 0 1 2.149 3.84 3.259 3.259 0 0 1-1.078 1.622l-9.57 7.544c-.043.038-.099.048-.144.085l5.939 18.56a35.189 35.189 0 0 0 11.242-25.824c0-19.488-15.798-52.445-35.286-52.445S28.71 54.051 28.71 73.536a35.259 35.259 0 0 0 16.058 29.587zM74.68 72.875v-.029a4.206 4.206 0 1 0-3.2 5.011v-.029a4.178 4.178 0 0 0 3.2-4.954z" fill="#fff"/></g></svg>