<svg xmlns="http://www.w3.org/2000/svg" width="128" height="128" xmlns:v="https://vecta.io/nano"><path d="M63.249 5.715c-22.723 0-46.783 32.863-46.783 64.037 0 29.46 20.446 52.534 46.549 52.534 23.849 0 48.52-19.648 48.52-52.534 0-29.319-26.173-64.037-48.286-64.037z" fill="#fff" stroke="#df3f3e" stroke-width="11.428"/><g transform="matrix(2.583405 -.467911 .467911 2.583405 -137.11227 -98.197189)" fill="#df3f3e"><path d="M70.886 77.335l-1.545-12.243c-.34-2.684-2.003-4.465-4.465-4.465a4.531 4.531 0 0 0-4.413 4.635 2.501 2.501 0 0 0-3.535.17 2.619 2.619 0 0 0-.602 2.161l1.309 6.547 5.238.694v-.327z"/><path d="M69.485 81.316l-.511-5.238a1.388 1.388 0 0 1 1.244-1.506 1.309 1.309 0 0 1 .773.157l5.342 2.828a1.388 1.388 0 0 1 0 2.462l-4.884 2.396a1.309 1.309 0 0 1-1.846-.615 1.571 1.571 0 0 1-.118-.484z"/><path d="M72.614 95.888l-1.727-18.553c-.537-5.46-4.269-9.166-9.493-8.826-4.643.351-8.224 4.234-8.197 8.891v11.183c-.901 14.204 11.549 7.853 19.418 7.305zM67.063 80.15a1.85 1.85 0 1 1 1.846-1.846h0c0 1.02-.827 1.846-1.846 1.846z"/></g></svg>