<svg xmlns="http://www.w3.org/2000/svg" xmlns:xlink="http://www.w3.org/1999/xlink" width="128" height="128" viewBox="0 0 33.867 33.867" xmlns:v="https://vecta.io/nano"><defs><linearGradient id="A" x1="113.14" y1="-27.69" x2="113.14" y2="156.47" gradientUnits="userSpaceOnUse"><stop offset="0" stop-color="#ff6746"/><stop offset="1" stop-color="#ff0546"/></linearGradient><linearGradient id="B" y1="56.18" y2="142.46" xlink:href="#A"/><linearGradient id="C" y1="85.1" y2="160.8" xlink:href="#A"/><linearGradient id="D" y1="107.76" y2="240.03" xlink:href="#A"/><linearGradient xlink:href="#A" id="E"/></defs><circle cx="16.933" cy="16.933" r="16.933" fill="#fff"/><g transform="matrix(.116921 0 0 .116921 3.703823 2.767188)"><path d="M87.16 15.57c11.11-20.76 40.86-20.76 51.97 0l83.48 156.02c14.69 27.46-17.7 55.97-43.07 37.91l-49.3-35.09a29.48 29.48 0 0 0-34.18 0l-49.3 35.09C21.39 227.56-11 199.05 3.69 171.59z" fill="url(#E)"/><path d="M222.6 171.59L157.66 50.2l-1.06 1-5.28 5.17c-23.34 22.89-60.97 22.02-83.23-1.92l-1.11-1.19-63.3 118.33c-4.58 8.56-4.58 17.22-1.65 24.54h63.52l30.51-21.72a29.48 29.48 0 0 1 34.18 0l30.51 21.72h63.52c2.93-7.32 2.93-15.98-1.65-24.54z" fill="url(#B)"/><path d="M46.75 209.5l49.3-35.09a29.48 29.48 0 0 1 34.18 0l49.3 35.09c25.37 18.06 57.76-10.45 43.07-37.91l-51.44-96.14c-5.28 2.64-10.21 6.11-14.57 10.38L151.31 91c-23.34 22.89-60.97 22.02-83.23-1.92l-1.63-1.75c-3.69-3.97-7.88-7.28-12.39-9.93L3.68 171.59c-14.69 27.46 17.7 55.97 43.07 37.91z" fill="url(#C)"/><path d="M46.75 209.5l49.3-35.09a29.48 29.48 0 0 1 34.18 0l49.3 35.09c25.37 18.06 57.76-10.45 43.07-37.91l-35.7-66.72c-11.21 1.98-21.83 7.27-30.31 15.59l-5.28 5.17c-23.34 22.89-60.97 22.02-83.23-1.92l-1.63-1.75c-7.6-8.17-17.29-13.6-27.66-16.02L3.68 171.59c-14.69 27.46 17.7 55.97 43.07 37.91z" fill="url(#D)"/></g></svg>