<svg xmlns="http://www.w3.org/2000/svg" width="128" height="128" viewBox="0 0 33.867 33.867" xmlns:v="https://vecta.io/nano"><path d="M14.711 33.798c-2.579-.378-5.146-1.347-7.158-2.704-3.577-2.412-6.014-5.854-7.12-10.059-.371-1.409-.401-1.7-.413-3.906-.018-3.346.335-4.896 1.779-7.812.907-1.832 1.724-2.968 3.154-4.385 1.478-1.464 2.522-2.203 4.459-3.158C12.205.397 14.594-.11 17.682.02c7.587.319 13.919 5.585 15.797 13.137.255 1.024.297 1.556.302 3.774.005 2.41-.019 2.677-.365 4.002-1.643 6.299-6.192 10.872-12.412 12.48-1.193.308-1.711.365-3.643.402-1.239.023-2.431.016-2.649-.016z" fill="#dae37e"/><path d="M14.181 33.686c-2.54-.463-4.677-1.308-6.686-2.645-.95-.632-1.303-.937-1.231-1.065.056-.098.542-.645 1.082-1.216 1.717-1.818 2.029-2.187 1.204-1.424-.658.608-2.778 2.041-3.021 2.041-.054 0-.499-.403-.988-.896-.79-.795-.863-.912-.657-1.041.128-.08 1.185-.651 2.35-1.27l3.339-1.958c-.049 0-1.441.655-3.093 1.457l-3.104 1.457c-.144 0-1.064-1.489-1.681-2.72C1.069 23.156.564 21.692.243 20.2c-.322-1.5-.324-5.031-.004-6.522.728-3.386 2.328-6.349 4.695-8.697C6.44 3.488 7.608 2.649 9.412 1.767c2.4-1.174 4.092-1.614 6.689-1.74 2.883-.14 5.454.373 8.033 1.604 3.865 1.845 6.61 4.661 8.31 8.526 1.555 3.534 1.853 7.737.806 11.349-1.042 3.596-3.215 6.772-6.13 8.964-3.067 2.305-6.475 3.423-10.356 3.396-.911-.006-2.073-.087-2.583-.18zm1.099-4.336c.224-.224.198-.836-.044-1.036-.479-.397-1.259.513-.856.998a.68.68 0 0 0 .899.038zm5.981-.165a.73.73 0 0 0 .116-.497c-.034-.241-.127-.305-.441-.305-.321 0-.406.062-.443.324a.52.52 0 0 0 .191.497c.301.22.382.217.577-.018zm7.793-2.752c.379-.795-.542-1.525-1.187-.942-.271.245-.314.723-.101 1.121.222.414 1.061.297 1.288-.179zm-16.409-2.68c.621-.817.993-1.395.898-1.395-.039 0-.369.402-.734.894l-1.029 1.357-.366.463.362-.327c.199-.18.59-.627.868-.993zm13.379-.246c.207-1.39.092-2.264-.718-5.452-.544-2.141-.618-2.62-.732-4.707-.165-3.026-.45-4.033-1.435-5.069-.522-.55-.922-.793-1.542-.94l-.397-.094.573.587c.463.474 1.215 1.738 1.215 2.04 0 .037-.188-.133-.418-.377-.553-.588-.607-.349-.184.823.503 1.394.595 1.911.44 2.477-.243.89-.261.905-.424.361l-.159-.53-.237.45c-.183.347-.226.673-.188 1.426.048.947.042.967-.178.676-.345-.457-.504-.168-.369.67.133.823.542 1.571 1.356 2.482.786.88 1.553 1.9 1.553 2.067 0 .075-.095.1-.211.055-.478-.183-.849-.233-.849-.115 0 .069.355.549.789 1.065.776.924 1.473 2.128 1.645 2.843.152.632.3.4.469-.738zm-2.641-6.272c-.446-.703-.5-1.007-.167-.943.3.058.833.859.833 1.253 0 .48-.232.372-.665-.31zm.146-1.413c-.429-.694-.314-.868.193-.293.497.563.562.739.27.739-.103 0-.312-.201-.464-.446zm.033-1.806c-.158-.291-.24-.529-.182-.529.152 0 .367.286.524.699.206.541-.016.43-.342-.171zm-.008 9.866c-.518-.349-.829-.464-1.257-.466-.313-.001-1.015-.115-1.562-.252s-1.008-.236-1.027-.218c-.099.094 3.682 1.388 4.072 1.393l.462.006zM9.948 22.166c.379-.379.402-.566.119-.97-.39-.557-1.383-.238-1.383.445 0 .281.548.85.819.85.066 0 .267-.146.446-.325zm10.717-.314c-1.124-.981-1.331-1.082-2.193-1.073l-.847.009.53.207c.518.203 2.458.918 2.576.95.033.009.003-.033-.066-.094zm-3.007-.114a1.09 1.09 0 0 0-.464 0c-.127.033-.023.061.232.061s.359-.027.232-.061zM3.645 20.313c.267-.321.04-.757-.369-.709-.357.041-.512.339-.369.711.095.247.533.246.739-.001zm14.471-.61c-.24-.218-.494-.362-.564-.319-.156.096.081.339.537.552.499.233.503.2.027-.233zm-8.902-.257c-.109-.071-.348-.125-.53-.121-.303.007-.309.017-.066.121.146.063.384.117.53.121.219.006.23-.015.066-.121zm-.988-1.082c-.288-.152-.914-.411-1.391-.577s-1.094-.398-1.371-.517c-.488-.21-.5-.209-.369.035.2.373 1.034 1.069 1.372 1.145.163.037.594.086.958.11 1.416.094 1.371.105.801-.196zm2.505-.653c-.715-.743-1.429-1.178-1.933-1.178-.388 0-.358.032.391.406.446.223.856.417.911.43s.31.218.567.455c.654.601.69.537.064-.113zm1.513.047c-.1-.127-.232-.268-.292-.313s-.106-.134-.099-.199-.048-.125-.121-.134c-.305-.038-.322-.06-.136-.177.243-.154.176-.223-.328-.342-.379-.089-.364-.06.327.651.716.736 1.003.963.65.513zm-3.295.039c0-.033-.259-.213-.577-.398s-.673-.445-.792-.575c-.155-.171-.35-.222-.697-.181l-.482.056.693.244c.381.134.94.393 1.241.574.6.362.614.368.614.28zm4.36-.78c-.03-.026-.264-.114-.519-.197-.421-.137-.44-.132-.206.047.21.161.909.306.725.15zm16.675-1.834c.176-.176.21-.754.058-.976-.319-.465-1.223-.194-1.223.366 0 .599.772 1.003 1.166.61zm-2.914-5.164c.371-.371.01-.997-.485-.84-.368.117-.46.466-.2.753s.461.31.685.087zM12.577 8.246c.044-.115.08-.323.08-.461 0-.314-.583-.487-.863-.255-.201.167-.268.678-.109.837.174.174.811.087.891-.121zM7.54 6.852c.269-.383.131-.671-.296-.621-.388.045-.529.405-.277.709.217.261.342.242.573-.088zm7.633-3.889c.236-.284.061-.624-.295-.574-.339.048-.482.484-.214.653.248.157.321.146.508-.08z" fill="#999666"/><path d="M15.042 33.796c-1.95-.247-4.11-.904-5.828-1.775-1.114-.564-2.804-1.702-2.88-1.937s3.192-3.536 4.395-4.438a9.62 9.62 0 0 0 3.326-4.227c.255-.596.44-1.107.411-1.137s-.208.211-.398.535c-.638 1.089-3.124 3.006-6.841 5.275C4.254 27.907 4.074 28 3.887 27.813c-.099-.099-.111-.202-.032-.278.069-.066 1.109-.639 2.311-1.272 3.427-1.806 4.884-2.708 5.769-3.573.447-.437.884-.929.971-1.092.248-.468.099-.351-.352.276-.409.569-1.451 1.441-2.216 1.854l-3.695 1.806c-3.037 1.466-3.311 1.573-3.469 1.36C2.022 25.337.878 22.766.371 20.588c-.474-2.035-.492-5.169-.04-7.167C1.612 7.757 5.405 3.304 10.753 1.186 15.713-.778 21.32-.24 26 2.649c1.424.879 3.964 3.339 4.902 4.747a18.13 18.13 0 0 1 2.634 6.223c.374 1.723.348 5.053-.055 6.853-1.478 6.609-6.365 11.503-13.008 13.026-1.104.253-4.366.431-5.431.297zm.267-4.487c.261-.277.292-.393.186-.695-.154-.44-.633-.546-.994-.22-.312.282-.326.684-.035 1.006s.47.305.842-.091zm6.094-.202c.277-.517-.128-1.026-.677-.852-.357.113-.45.566-.178.866.3.332.673.325.855-.014zm7.506-2.401c.585-.549.243-1.433-.554-1.433-.313 0-.511.089-.655.294-.277.395-.26.661.068 1.078.334.424.732.445 1.141.061zm-2.917-2.625c.061-.328.102-1.221.091-1.986-.016-1.143-.108-1.721-.513-3.244-.691-2.6-.816-3.329-.919-5.363-.102-2.001-.342-3.472-.676-4.129-.561-1.104-1.744-2.095-2.501-2.095-.187 0-.12.13.298.584.296.321.698.902.893 1.291l.355.707-.387-.364c-.444-.418-.785-.489-.634-.132.42.993.852 2.43.846 2.814-.005.255-.082.702-.172.993l-.164.53-.097-.497c-.053-.273-.152-.497-.22-.497s-.22.335-.339.745c-.171.589-.189.885-.084 1.415.132.668.132.669-.111.347-.612-.809-.616.646-.006 1.834.139.271.667.969 1.174 1.551s1.025 1.262 1.152 1.509c.222.434.222.446-.015.347-.445-.186-.841-.234-.841-.102 0 .158.404.699 1.096 1.466.452.501.837 1.211 1.406 2.59.193.468.228.437.368-.315zm-2.602-6.852c-.44-.7-.495-.96-.206-.96.256 0 .866.907.866 1.289 0 .47-.23.356-.66-.329zm.132-1.484c-.147-.288-.268-.566-.268-.616 0-.17.555.408.746.776.165.32.164.364-.011.364-.11 0-.32-.236-.467-.524zm.041-1.728c-.158-.29-.234-.528-.169-.528.183 0 .549.624.5.852-.028.127-.152.005-.331-.325zm.618 10.277c0-.029-.283-.231-.629-.448a3.19 3.19 0 0 0-1.424-.481 15.27 15.27 0 0 1-1.783-.34c-.544-.14-1.014-.229-1.046-.198s.026.087.127.124l1.443.522c.692.25 1.467.547 1.722.659.409.18 1.59.301 1.59.162zm-14.174-2.066c.37-.37.335-.852-.084-1.182-.192-.151-.433-.274-.536-.274-.254 0-.837.6-.837.861 0 .3.6.861.921.861.149 0 .39-.119.536-.265zm8.239-.345c-.241-.105-.858-.28-1.372-.388s-.988-.229-1.052-.269-.118-.041-.118-.001.253.205.563.367c.461.242 1.205.396 2.285.473.073.005-.065-.077-.305-.182zm-2.778-.185c-.496-.302-.56-.317-.56-.128 0 .146.466.371.795.384.109.004.004-.111-.235-.256zm4.676-.317c-.646-.565-.683-.578-1.854-.666-.657-.049-1.344-.125-1.526-.168s-.292-.036-.245.015.405.173.795.271 1.275.388 1.967.647 1.318.471 1.391.474-.164-.255-.527-.572zm-6.609-1.233c-.065-.065-.487.828-.475 1.003.003.046.127-.146.275-.426s.238-.54.201-.577zm-.878.203c0-.057-.134-.054-.298.006s-.387.084-.497.053-.05.065.132.214c.305.25.344.254.497.051.091-.121.166-.267.166-.324zm-9.134.154c.064 0 .178-.114.252-.253.103-.192.078-.323-.103-.546-.455-.561-1.178.041-.791.66.094.151.251.244.348.207s.229-.068.294-.068zm7.587-.66c-.148-.131-2.846-.688-2.929-.604s.01.114 1.274.512c.878.276 1.928.335 1.655.092zm7.105-.121c-.479-.4-.642-.413-1.849-.144l-.464.103.53.026a8.93 8.93 0 0 1 1.258.194l.856.186c.07.01-.079-.154-.331-.365zm-1.816-.711c.346-.073.627-.169.625-.214s-.144-.183-.315-.308c-.304-.221-.324-.214-.89.318-.318.299-.46.498-.314.44s.548-.164.894-.237zm-7.584-.338c0-.148-.775-.506-2.119-.981-.619-.219-1.29-.482-1.49-.585-.476-.245-.454-.092.071.489.683.755.853.835 2.129.996l1.31.171c.055.01.099-.031.099-.09zm7.087-.478c.253-.091.25-.104-.066-.28-.449-.25-.489-.242-.581.125a7.19 7.19 0 0 1-.168.563c-.079.218-.054.215.231-.034.176-.153.438-.321.584-.374zm-4.973-.418c-.751-.771-1.616-1.284-2.193-1.301-.248-.007-.45.017-.449.053s.314.203.696.37a9.82 9.82 0 0 1 1.488.883c1.033.752 1.194.75.458-.006zm1.126-.444c-.433-.701-.548-.803-.904-.803h-.408l.85.857c.467.471.874.833.904.803s-.169-.415-.442-.857zm1.371.252c-.171-.701-.194-.729-.691-.847l-.385-.091.428.487c.235.268.493.629.572.803.21.461.24.322.076-.352zm-3.949.48c0-.029-.283-.217-.629-.418s-.848-.535-1.116-.744c-.42-.328-.561-.368-1.028-.293l-.541.086.862.301a11 11 0 0 1 1.558.704c.669.387.894.479.894.364zm5.115-.683c-.04-.105-.161-.191-.269-.191-.162 0-.171.072-.052.414.122.351.163.38.269.191.069-.123.092-.309.052-.414zm15.505-2.391c.204-.311.207-.382.031-.695-.152-.271-.297-.349-.649-.349s-.497.078-.649.349c-.176.313-.173.384.031.695a.67.67 0 0 0 .618.346.67.67 0 0 0 .618-.346zm-2.823-5.108c.165-.264-.21-.769-.571-.769-.468 0-.703.574-.371.906.221.221.768.141.942-.137zM12.653 8.15c.193-.353.187-.386-.116-.635-.403-.331-.677-.28-.93.171-.182.324-.177.378.054.634.33.365.738.295.992-.17zM7.598 6.973c.221-.221.198-.57-.051-.777-.23-.191-.529-.072-.767.305-.272.432.444.846.818.472zm7.5-3.894c.264-.101.271-.498.013-.713-.394-.327-.924.202-.596.596.18.217.273.236.584.117z" fill="#25c39e"/><path d="M15.042 33.796c-1.95-.247-4.11-.904-5.828-1.775-1.114-.564-2.804-1.702-2.88-1.937s3.192-3.536 4.395-4.438a9.62 9.62 0 0 0 3.326-4.227c.255-.596.44-1.107.411-1.137s-.208.211-.398.535c-.638 1.089-3.124 3.006-6.841 5.275C4.254 27.907 4.074 28 3.887 27.813c-.099-.099-.111-.202-.032-.278.069-.066 1.109-.639 2.311-1.272 3.427-1.806 4.884-2.708 5.769-3.573.447-.437.884-.929.971-1.092.248-.468.099-.351-.352.276-.409.569-1.451 1.441-2.216 1.854l-3.695 1.806c-3.037 1.466-3.311 1.573-3.469 1.36C2.022 25.337.878 22.766.371 20.588c-.474-2.035-.492-5.169-.04-7.167C1.612 7.757 5.405 3.304 10.753 1.186 15.713-.778 21.32-.24 26 2.649c1.424.879 3.964 3.339 4.902 4.747a18.13 18.13 0 0 1 2.634 6.223c.374 1.723.348 5.053-.055 6.853-1.478 6.609-6.365 11.503-13.008 13.026-1.104.253-4.366.431-5.431.297zm.267-4.487c.261-.277.292-.393.186-.695-.154-.44-.633-.546-.994-.22-.312.282-.326.684-.035 1.006s.47.305.842-.091zm6.094-.202c.277-.517-.128-1.026-.677-.852-.357.113-.45.566-.178.866.3.332.673.325.855-.014zm7.506-2.401c.585-.549.243-1.433-.554-1.433-.313 0-.511.089-.655.294-.277.395-.26.661.068 1.078.334.424.732.445 1.141.061zm-3.752-1.367c.765-.363.958-1.039.926-3.244-.016-1.143-.108-1.721-.513-3.244-.691-2.6-.816-3.329-.919-5.363-.15-2.951-.419-3.975-1.345-5.118-1.046-1.291-2.3-1.404-5.018-.451-.874.306-2.543.762-3.709 1.013-3.725.802-4.714 1.265-7.65 3.582-1.386 1.094-3.508 3.2-3.602 3.576-.11.438.221 1.086.875 1.713l.542.519-.48-.639c-.561-.747-.59-1.068-.146-1.612l.325-.397 2.353-.019c3.887-.031 6.079.234 8.303 1.006 1.196.415 1.853.856 3.242 2.176 1.455 1.383 3.18 2.687 4.718 3.566 1.279.731 2.184 1.48 2.184 1.808 0 .132-.181.434-.402.671-.397.424-.413.429-1.292.344-.489-.047-1.068-.123-1.287-.169s-.36-.044-.315.005c.122.133 1.696.454 2.282.466.28.006.698-.079.928-.188zm-5.564-6.161c-1.188-1.224-3.915-2.844-5.412-3.216-1.607-.399-5.312-.697-8.445-.68-.741.004-1.159-.045-1.159-.136 0-.249 2.014-2.137 3.113-2.92 1.374-.978 3.351-1.966 4.74-2.368.607-.176 1.994-.508 3.083-.739s2.505-.593 3.147-.806c1.477-.49 1.549-.489 1.549.026 0 .293-.205.686-.71 1.357a33.55 33.55 0 0 0-1.194 1.702c-.557.872-.984 2.3-.757 2.528.104.104.145.035.147-.247.002-.215.119-.646.261-.958.304-.67 1.833-2.809 2.008-2.809.262 0 .265.441.008 1.163-.401 1.127-.454 1.692-.299 3.203.077.754.109 1.402.071 1.44-.21.21-.833-1.132-.849-1.827-.008-.344-.048-.419-.162-.305s-.115.339 0 .908c.178.886.604 1.66 1.419 2.577.737.829 1.046 1.298.933 1.412-.049.049-.479-.104-.955-.339s-.824-.358-.772-.273.385.537.739 1.004.643.906.643.975c0 .315-.433.06-1.145-.673zm4.589 5.116c0-.029-.283-.231-.629-.448a3.19 3.19 0 0 0-1.424-.481 15.27 15.27 0 0 1-1.783-.34c-.544-.14-1.014-.229-1.046-.198s.026.087.127.124l1.443.522c.692.25 1.467.547 1.722.659.409.18 1.59.301 1.59.162zm-14.174-2.066c.37-.37.335-.852-.084-1.182-.192-.151-.433-.274-.536-.274-.254 0-.837.6-.837.861 0 .3.6.861.921.861.149 0 .39-.119.536-.265zm8.239-.345c-.241-.105-.858-.28-1.372-.388s-.988-.229-1.052-.269-.118-.041-.118-.001.253.205.563.367c.461.242 1.205.396 2.285.473.073.005-.065-.077-.305-.182zm-2.778-.185c-.496-.302-.56-.317-.56-.128 0 .146.466.371.795.384.109.004.004-.111-.235-.256zm4.676-.317c-.646-.565-.683-.578-1.854-.666-.657-.049-1.344-.125-1.526-.168s-.292-.036-.245.015.405.173.795.271 1.275.388 1.967.647 1.318.471 1.391.474-.164-.255-.527-.572zm-6.609-1.233c-.065-.065-.487.828-.475 1.003.003.046.127-.146.275-.426s.238-.54.201-.577zm-.878.203c0-.057-.134-.054-.298.006s-.387.084-.497.053-.05.065.132.214c.305.25.344.254.497.051.091-.121.166-.267.166-.324zm-9.134.154c.064 0 .178-.114.252-.253.103-.192.078-.323-.103-.546-.455-.561-1.178.041-.791.66.094.151.251.244.348.207s.229-.068.294-.068zm7.587-.66c-.148-.131-2.846-.688-2.929-.604s.01.114 1.274.512c.878.276 1.928.335 1.655.092zm7.105-.121c-.479-.4-.642-.413-1.849-.144l-.464.103.53.026a8.93 8.93 0 0 1 1.258.194l.856.186c.07.01-.079-.154-.331-.365zm-1.816-.711c.346-.073.627-.169.625-.214s-.144-.183-.315-.308c-.304-.221-.324-.214-.89.318-.318.299-.46.498-.314.44s.548-.164.894-.237zm-7.584-.338c0-.148-.775-.506-2.119-.981-.619-.219-1.29-.482-1.49-.585-.476-.245-.454-.092.071.489.683.755.853.835 2.129.996l1.31.171c.055.01.099-.031.099-.09zm7.087-.478c.253-.091.25-.104-.066-.28-.449-.25-.489-.242-.581.125a7.19 7.19 0 0 1-.168.563c-.079.218-.054.215.231-.034.176-.153.438-.321.584-.374zm-4.973-.418c-.751-.771-1.616-1.284-2.193-1.301-.248-.007-.45.017-.449.053s.314.203.696.37a9.82 9.82 0 0 1 1.488.883c1.033.752 1.194.75.458-.006zm1.126-.444c-.433-.701-.548-.803-.904-.803h-.408l.85.857c.467.471.874.833.904.803s-.169-.415-.442-.857zm1.371.252c-.171-.701-.194-.729-.691-.847l-.385-.091.428.487c.235.268.493.629.572.803.21.461.24.322.076-.352zm-3.949.48c0-.029-.283-.217-.629-.418s-.848-.535-1.116-.744c-.42-.328-.561-.368-1.028-.293l-.541.086.862.301a11 11 0 0 1 1.558.704c.669.387.894.479.894.364zm5.115-.683c-.04-.105-.161-.191-.269-.191-.162 0-.171.072-.052.414.122.351.163.38.269.191.069-.123.092-.309.052-.414zm15.505-2.391c.204-.311.207-.382.031-.695-.152-.271-.297-.349-.649-.349s-.497.078-.649.349c-.176.313-.173.384.031.695a.67.67 0 0 0 .618.346.67.67 0 0 0 .618-.346zm-2.823-5.108c.165-.264-.21-.769-.571-.769-.468 0-.703.574-.371.906.221.221.768.141.942-.137zM12.653 8.15c.193-.353.187-.386-.116-.635-.403-.331-.677-.28-.93.171-.182.324-.177.378.054.634.33.365.738.295.992-.17zM7.598 6.973c.221-.221.198-.57-.051-.777-.23-.191-.529-.072-.767.305-.272.432.444.846.818.472zm7.5-3.894c.264-.101.271-.498.013-.713-.394-.327-.924.202-.596.596.18.217.273.236.584.117z" fill="#199575"/><path d="M15.042 33.796c-1.95-.247-4.11-.904-5.828-1.775-1.114-.564-2.804-1.702-2.88-1.937s3.192-3.536 4.395-4.438a9.62 9.62 0 0 0 3.326-4.227c.255-.596.44-1.107.411-1.137s-.208.211-.398.535c-.638 1.089-3.124 3.006-6.841 5.275C4.254 27.907 4.074 28 3.887 27.813c-.099-.099-.111-.202-.032-.278.069-.066 1.109-.639 2.311-1.272 3.427-1.806 4.884-2.708 5.769-3.573.447-.437.884-.929.971-1.092.248-.468.099-.351-.352.276-.409.569-1.451 1.441-2.216 1.854l-3.695 1.806c-3.037 1.466-3.311 1.573-3.469 1.36C2.022 25.337.878 22.766.371 20.588c-.474-2.035-.492-5.169-.04-7.167C1.612 7.757 5.405 3.304 10.753 1.186 15.713-.778 21.32-.24 26 2.649c1.424.879 3.964 3.339 4.902 4.747a18.13 18.13 0 0 1 2.634 6.223c.374 1.723.348 5.053-.055 6.853-1.478 6.609-6.365 11.503-13.008 13.026-1.104.253-4.366.431-5.431.297zm.267-4.487c.261-.277.292-.393.186-.695-.154-.44-.633-.546-.994-.22-.312.282-.326.684-.035 1.006s.47.305.842-.091zm6.094-.202c.277-.517-.128-1.026-.677-.852-.357.113-.45.566-.178.866.3.332.673.325.855-.014zm7.506-2.401c.585-.549.243-1.433-.554-1.433-.313 0-.511.089-.655.294-.277.395-.26.661.068 1.078.334.424.732.445 1.141.061zm-3.665-1.369c.213-.11.443-.306.513-.435.233-.435.346-1.409.326-2.808-.016-1.143-.108-1.721-.513-3.244-.691-2.6-.816-3.329-.919-5.363-.15-2.951-.419-3.975-1.345-5.118-1.061-1.309-2.198-1.413-5.065-.46-1.067.355-2.853.833-3.969 1.063-2.332.481-3.841.993-4.752 1.614-2.384 1.624-5.709 4.503-6.12 5.299-.103.2-.147.5-.1.686.115.458.923 1.396 1.657 1.925.675.486 1.869 1.128 1.949 1.048.028-.028-.315-.309-.763-.624s-1.043-.78-1.322-1.033-.51-.408-.513-.345c-.012.325-.393-.46-.39-.804.005-.751.35-1.008 1.461-1.089 1.385-.101 6.365.181 7.477.423 2.783.605 3.719 1.089 5.624 2.908 1.384 1.322 2.866 2.445 4.443 3.37 1.376.806 2.318 1.536 2.318 1.794 0 .099-.154.363-.343.587-.315.375-.409.407-1.159.404-1.012-.004-1.767-.168-2.838-.617-.955-.4-1.01-.572-.083-.256.344.117.646.193.671.168s-.714-.319-1.642-.654-1.708-.588-1.734-.562c-.108.108 3.638 1.847 4.451 2.066 1.1.297 2.169.319 2.679.055zM5.122 18.453c-.445-.328-.809-.662-.809-.744s.224.053.497.298.676.578.894.739.359.295.313.298-.449-.264-.894-.591zm10.45-2.043c-1.328-.697-4.001-1.038-8.642-1.103-1.304-.018-2.351-.087-2.351-.154-.002-.246 2.35-2.416 3.311-3.056 2.262-1.506 3.91-2.149 7.484-2.922 1.238-.268 2.694-.632 3.235-.808s1.104-.303 1.252-.282c.247.036.236.076-.155.519-.232.264-.748.65-1.147.859-.454.237-.739.477-.763.641-.051.348-.699.768-1.865 1.209-.67.253-1.103.519-1.452.892-.554.592-.609.752-.259.752.171 0 .284.175.405.629.206.77.756 1.649 1.47 2.344.295.288.537.571.537.629 0 .184-.579.103-1.06-.149zm-.397-.686a7.46 7.46 0 0 0-.822-.616c-.197-.118-.383-.338-.412-.488-.054-.273-.054-.273-.072.003-.013.195.225.457.81.891.942.7 1.183.802.497.209zm-2.757-3.25c.178-.099.226-.172.115-.174-.238-.006.546-.595 1.028-.773.195-.072.703-.202 1.127-.289s.748-.182.719-.211c-.131-.131-1.888.354-2.427.67-.568.333-1.384 1.264-1.382 1.578 0 .08.116-.029.257-.243s.394-.465.562-.558zm3.816-1.768c.255-.14.404-.254.331-.254s-.341.114-.596.254-.404.254-.331.254.341-.114.596-.254zm.342-.777c-.039-.063.199-.219.53-.345s.575-.256.542-.289-.439.118-.902.334c-.706.329-.782.395-.471.404.205.006.34-.041.301-.104zm2.262-1.149c.462-.258.841-.5.841-.536s-.402.155-.894.426c-1.009.556-1.047.58-.896.58.06 0 .487-.211.949-.47zm4.086 16.019c-.364-.101-.722-.179-.795-.173-.224.019.91.361 1.192.359.146-.001-.033-.085-.397-.186zm1.222-.412c.094-.283-1.191-.935-2.017-1.024a15.27 15.27 0 0 1-1.783-.34c-.544-.14-1.014-.229-1.046-.198s.026.087.127.124l3.629 1.336c.837.313 1.014.33 1.09.102zm-14.138-2.161c.37-.37.335-.852-.084-1.182-.192-.151-.433-.274-.536-.274-.254 0-.837.6-.837.861 0 .3.6.861.921.861.149 0 .39-.119.536-.265zm8.239-.345c-.241-.105-.858-.28-1.372-.388s-.988-.229-1.052-.269-.118-.041-.118-.001.253.205.563.367c.461.242 1.205.396 2.285.473.073.005-.065-.077-.305-.182zm-2.778-.185c-.496-.302-.56-.317-.56-.128 0 .146.466.371.795.384.109.004.004-.111-.235-.256zm4.676-.317c-.646-.565-.683-.578-1.854-.666-.657-.049-1.344-.125-1.526-.168s-.292-.036-.245.015.405.173.795.271 1.275.388 1.967.647 1.318.471 1.391.474-.164-.255-.527-.572zm-6.609-1.233c-.065-.065-.487.828-.475 1.003.003.046.127-.146.275-.426s.238-.54.201-.577zm-.878.203c0-.057-.134-.054-.298.006s-.387.084-.497.053-.05.065.132.214c.305.25.344.254.497.051.091-.121.166-.267.166-.324zm-9.134.154c.064 0 .178-.114.252-.253.103-.192.078-.323-.103-.546-.455-.561-1.178.041-.791.66.094.151.251.244.348.207s.229-.068.294-.068zm7.587-.66c-.148-.131-2.846-.688-2.929-.604s.01.114 1.274.512c.878.276 1.928.335 1.655.092zm7.105-.121c-.479-.4-.642-.413-1.849-.144l-.464.103.53.026a8.93 8.93 0 0 1 1.258.194l.856.186c.07.01-.079-.154-.331-.365zm-1.816-.711c.346-.073.627-.169.625-.214s-.144-.183-.315-.308c-.304-.221-.324-.214-.89.318-.318.299-.46.498-.314.44s.548-.164.894-.237zm-7.584-.34c0-.134-.903-.55-2.318-1.069l-1.49-.561c-.382-.153-.456-.145-.662.074-.128.135-.154.202-.058.148s.298.007.464.147l.29.245-.252-.298c-.139-.164-.188-.298-.108-.298s.27.176.423.392c.518.727 1.031.98 2.318 1.142l1.296.169c.055.01.099-.031.099-.092zm7.087-.476c.253-.091.25-.104-.066-.28-.449-.25-.489-.242-.581.125a7.19 7.19 0 0 1-.168.563c-.079.218-.054.215.231-.034.176-.153.438-.321.584-.374zm-4.973-.418c-.751-.771-1.616-1.284-2.193-1.301-.248-.007-.45.017-.449.053s.314.203.696.37a9.82 9.82 0 0 1 1.488.883c1.033.752 1.194.75.458-.006zm1.126-.444c-.433-.701-.548-.803-.904-.803h-.408l.85.857c.467.471.874.833.904.803s-.169-.415-.442-.857zm1.371.252c-.171-.701-.194-.729-.691-.847l-.385-.091.428.487c.235.268.493.629.572.803.21.461.24.322.076-.352zm-3.949.48c0-.029-.283-.217-.629-.418s-.848-.535-1.116-.744c-.42-.328-.561-.368-1.028-.293l-.541.086.862.301a11 11 0 0 1 1.558.704c.669.387.894.479.894.364zm5.115-.683c-.04-.105-.161-.191-.269-.191-.162 0-.171.072-.052.414.122.351.163.38.269.191.069-.123.092-.309.052-.414zm15.505-2.391c.204-.311.207-.382.031-.695-.152-.271-.297-.349-.649-.349s-.497.078-.649.349c-.176.313-.173.384.031.695a.67.67 0 0 0 .618.346.67.67 0 0 0 .618-.346zm-2.823-5.108c.165-.264-.21-.769-.571-.769-.468 0-.703.574-.371.906.221.221.768.141.942-.137zM12.653 8.15c.193-.353.187-.386-.116-.635-.403-.331-.677-.28-.93.171-.182.324-.177.378.054.634.33.365.738.295.992-.17zM7.598 6.973c.221-.221.198-.57-.051-.777-.23-.191-.529-.072-.767.305-.272.432.444.846.818.472zm7.5-3.894c.264-.101.271-.498.013-.713-.394-.327-.924.202-.596.596.18.217.273.236.584.117z" fill="#414a88"/><path d="M15.638 33.798c-2.25-.221-4.411-.83-6.358-1.793-1.103-.545-2.867-1.694-2.941-1.915-.07-.211 3.037-3.373 4.083-4.156 1.825-1.365 3.03-2.865 3.74-4.657.393-.992.403-1.037.218-1.037-.073 0-.132.095-.132.21 0 .238-1.387 1.728-2.186 2.347-.49.38-.477.353.173-.345.702-.754 1.426-2.07 1.31-2.38-.038-.102-.098-.063-.157.101-.37 1.023-.825 1.714-1.608 2.446-.724.677-1.24.992-3.076 1.874l-3.762 1.838-1.557.777-.533-.784C.08 22.246-.713 16.816.754 11.965c.398-1.316 1.554-3.679 2.333-4.767C5.693 3.554 9.742 1.021 14.115.296c.692-.115 1.944-.211 2.782-.213 2.774-.009 4.91.491 7.484 1.751 4.167 2.039 7.174 5.511 8.601 9.932.585 1.813.786 3.135.786 5.164 0 2.819-.525 5.059-1.785 7.618-2.264 4.597-6.952 8.118-11.973 8.994-1.151.201-3.523.34-4.371.256zm3.99-.786c6.896-1.2 12.163-6.493 13.373-13.44.314-1.802.198-4.753-.257-6.515-1.587-6.151-6.003-10.459-12.341-12.039C18.81.621 15.248.583 13.718.947c-3.416.812-5.715 2.019-8.001 4.199C3.193 7.552 1.78 10.08.907 13.752c-.37 1.555-.325 5.084.086 6.753.328 1.333.763 2.579 1.217 3.487.5 1.001 1.229 2.206 1.335 2.206.057 0 1.371-.628 2.92-1.396 2.571-1.274 4.869-2.627 4.869-2.866 0-.053-.21-.135-.467-.183s-.525-.195-.595-.327c-.344-.642-.899-.84-1.311-.468-.183.165-.39.102-1.68-.511-1.991-.948-2.921-1.607-3.877-2.751-.907-1.085-.976-1.378-.531-2.261.606-1.203 4.466-4.598 6.484-5.703 1.473-.807 2.337-1.069 6.614-2.008.765-.168 2.076-.527 2.914-.798 2.53-.818 3.515-.694 4.674.589 1.091 1.207 1.436 2.241 1.682 5.045.1 1.14.346 2.459.789 4.237 1.376 5.526 1.26 7.714-.468 8.819-.387.248-.871.449-1.075.447s-1.026-.174-1.828-.383c-5.109-1.331-6.637-1.816-7.808-2.481l-.523-.296-.459.688c-.638.956-2.025 2.292-3.161 3.047-.797.529-3.484 3.152-3.48 3.397.002.126 1.5 1.036 2.582 1.569a17.51 17.51 0 0 0 4.295 1.407c1.381.25 4.088.25 5.523.001zm5.618-7.676c.609-.315.802-.847.88-2.427.076-1.532-.068-2.421-.886-5.449-.333-1.235-.435-1.945-.537-3.757-.179-3.175-.493-4.336-1.47-5.449-1.078-1.227-2.119-1.299-4.995-.343a42.29 42.29 0 0 1-3.966 1.062c-2.332.481-3.841.993-4.752 1.614-2.384 1.624-5.709 4.503-6.12 5.299-.103.2-.147.5-.1.686.115.458.923 1.396 1.657 1.925.675.486 1.869 1.128 1.949 1.048.028-.028-.315-.309-.763-.624s-1.043-.78-1.322-1.033-.51-.408-.513-.345c-.012.325-.393-.46-.39-.804.005-.751.35-1.008 1.461-1.089 1.385-.101 6.365.181 7.477.423 2.783.605 3.719 1.089 5.624 2.908 1.384 1.322 2.866 2.445 4.443 3.37 1.376.806 2.318 1.536 2.318 1.794 0 .099-.154.363-.343.587-.315.375-.409.407-1.159.404-1.012-.004-1.767-.168-2.838-.617-.955-.4-1.01-.572-.083-.256.344.117.646.193.671.168s-.714-.319-1.642-.654-1.708-.588-1.734-.562c-.108.108 3.638 1.847 4.451 2.066 1.101.297 2.17.319 2.68.054zM5.122 18.453c-.445-.328-.809-.662-.809-.744s.224.053.497.298.676.578.894.739.359.295.313.298-.449-.264-.894-.591zm10.45-2.043c-1.328-.697-4.001-1.038-8.642-1.103-1.304-.018-2.351-.087-2.351-.154-.002-.246 2.35-2.416 3.311-3.056 2.262-1.506 3.91-2.149 7.484-2.922 1.238-.268 2.694-.632 3.235-.808s1.104-.303 1.252-.282c.247.036.236.076-.155.519-.232.264-.748.65-1.147.859-.454.237-.739.477-.763.641-.051.348-.699.768-1.865 1.209-.67.253-1.103.519-1.452.892-.554.592-.609.752-.259.752.171 0 .284.175.405.629.206.77.756 1.649 1.47 2.344.295.288.537.571.537.629 0 .184-.579.103-1.06-.149zm-.397-.686a7.46 7.46 0 0 0-.822-.616c-.197-.118-.383-.338-.412-.488-.054-.273-.054-.273-.072.003-.013.195.225.457.81.891.942.7 1.183.802.497.209zm-2.757-3.25c.178-.099.226-.172.115-.174-.238-.006.546-.595 1.028-.773.195-.072.703-.202 1.127-.289s.748-.182.719-.211c-.131-.131-1.888.354-2.427.67-.568.333-1.384 1.264-1.382 1.578 0 .08.116-.029.257-.243s.394-.465.562-.558zm3.816-1.768c.255-.14.404-.254.331-.254s-.341.114-.596.254-.404.254-.331.254.341-.114.596-.254zm.342-.777c-.039-.063.199-.219.53-.345s.575-.256.542-.289-.439.118-.902.334c-.706.329-.782.395-.471.404.205.006.34-.041.301-.104zm2.262-1.149c.462-.258.841-.5.841-.536s-.402.155-.894.426c-1.009.556-1.047.58-.896.58.06 0 .487-.211.949-.47zm4.086 16.019c-.364-.101-.722-.179-.795-.173-.224.019.91.361 1.192.359.146-.001-.033-.085-.397-.186zm1.224-.418c.027-.08-.227-.335-.563-.567a2.48 2.48 0 0 0-1.365-.483c-.414-.034-1.221-.181-1.794-.325s-1.109-.237-1.192-.206c-.176.066-.319.006 2.034.855 2.592.934 2.572.927 2.707.899.068-.015.146-.092.173-.172zm-8.311-2.391c0-.102-.693-.558-.848-.558-.043 0-.079.081-.079.179s.194.242.431.318l.464.152c.018.007.033-.033.033-.09zm2.835-.029c-.073-.073-.689-.254-1.369-.402s-1.353-.332-1.495-.408-.289-.107-.326-.07c-.138.138 1.37.804 2.011.888 1.072.141 1.326.139 1.179-.008zm2.259.025c-1.275-1.091-1.425-1.166-2.658-1.325-.664-.086-1.469-.151-1.788-.144-.546.011-.521.026.412.246.546.129 1.649.478 2.451.775 1.486.552 1.811.644 1.583.449zm-8.178-1.696c-.025-.025-.309.002-.633.059l-.588.104.397.219c.38.209.408.207.633-.059.129-.153.215-.298.19-.323zm-1.684-.305c.311-.09.314-.101.063-.185-1.233-.409-3.279-.758-3.043-.518.152.154 2.152.81 2.451.803.109-.002.348-.048.53-.1zm7.55.063c0-.033-.202-.213-.448-.401-.438-.334-.469-.338-1.391-.186-.519.086-.943.208-.943.271s.134.083.298.043.715.012 1.225.114c1.075.216 1.258.239 1.258.158zm-3.007-.756c.158-.084.585-.22.949-.3l.662-.147-.425-.303-.425-.303-.63.603c-.63.604-.669.737-.131.45zm.279-1.038c.327 0 .252-.184-.179-.439l-.391-.231-.146.542a12.5 12.5 0 0 1-.228.765c-.045.123.101.03.325-.207s.503-.43.62-.43zm-6.941.466c0-.113-1.308-.731-2.393-1.131-.579-.213-1.226-.477-1.438-.587-.357-.185-.408-.179-.695.073-.17.15-.231.232-.136.183s.304.021.464.155l.29.245-.252-.298c-.139-.164-.193-.298-.122-.298s.322.238.556.529c.701.872 1.082 1.002 3.427 1.171.164.012.298-.007.298-.043zm1.994-.922c-.466-.47-1.015-.924-1.221-1.009s-.375-.208-.375-.272-.268-.116-.596-.116c-.658 0-.803.19-.232.305.2.04.99.492 1.755 1.003s1.419.933 1.453.936-.319-.378-.784-.847zm1.229-.378c-.434-.736-.568-.867-.937-.912-.237-.029-.431-.022-.431.016 0 .111 1.768 1.861 1.824 1.806.028-.028-.178-.437-.456-.909zm1.284.117c-.084-.406-.201-.739-.26-.739s-.305-.04-.547-.088l-.44-.088.466.465c.256.256.544.655.64.887.254.612.318.413.141-.437zm-3.711.667c0-.028-.402-.29-.894-.582s-1.008-.656-1.146-.81c-.26-.287-.831-.354-1.337-.156-.215.084-.128.144.464.32.401.119 1.176.453 1.722.743.944.5 1.192.601 1.192.486zm4.724-.964c-.382-.207-.408-.151-.211.444l.168.505.164-.397c.149-.36.137-.412-.121-.552zM3.871 27.732c-.052-.135.538-.511 2.072-1.324l3.005-1.612c.474-.262.772-.386.662-.276-.222.224-5.43 3.399-5.575 3.399-.051 0-.125-.085-.164-.188z" fill="#186a67"/><path d="M15.638 33.798c-2.25-.221-4.411-.83-6.358-1.793-1.103-.545-2.867-1.694-2.941-1.915-.07-.211 3.037-3.373 4.083-4.156 1.825-1.365 3.03-2.865 3.74-4.657.393-.992.403-1.037.218-1.037-.073 0-.132.095-.132.21 0 .238-1.387 1.728-2.186 2.347-.49.38-.477.353.173-.345.702-.754 1.426-2.07 1.31-2.38-.038-.102-.098-.063-.157.101-.37 1.023-.825 1.714-1.608 2.446-.724.677-1.24.992-3.076 1.874l-3.762 1.838-1.557.777-.533-.784C.08 22.246-.713 16.816.754 11.965c.398-1.316 1.554-3.679 2.333-4.767C5.693 3.554 9.742 1.021 14.115.296c.692-.115 1.944-.211 2.782-.213 2.774-.009 4.91.491 7.484 1.751 4.167 2.039 7.174 5.511 8.601 9.932.585 1.813.786 3.135.786 5.164 0 2.819-.525 5.059-1.785 7.618-2.264 4.597-6.952 8.118-11.973 8.994-1.151.201-3.523.34-4.371.256zm3.99-.786c6.896-1.2 12.163-6.493 13.373-13.44.314-1.802.198-4.753-.257-6.515-1.587-6.151-6.003-10.459-12.341-12.039C18.81.621 15.248.583 13.718.947c-3.416.812-5.715 2.019-8.001 4.199C3.193 7.552 1.78 10.08.907 13.752c-.37 1.555-.325 5.084.086 6.753.328 1.333.763 2.579 1.217 3.487.5 1.001 1.229 2.206 1.335 2.206.057 0 1.371-.628 2.92-1.396 2.571-1.274 4.869-2.627 4.869-2.866 0-.053-.21-.135-.467-.183s-.525-.195-.595-.327c-.344-.642-.899-.84-1.311-.468-.183.165-.39.102-1.68-.511-1.991-.948-2.921-1.607-3.877-2.751-.907-1.085-.976-1.378-.531-2.261.606-1.203 4.466-4.598 6.484-5.703 1.473-.807 2.337-1.069 6.614-2.008.765-.168 2.076-.527 2.914-.798 2.53-.818 3.515-.694 4.674.589 1.091 1.207 1.436 2.241 1.682 5.045.1 1.14.346 2.459.789 4.237 1.376 5.526 1.26 7.714-.468 8.819-.387.248-.871.449-1.075.447s-1.026-.174-1.828-.383c-5.109-1.331-6.637-1.816-7.808-2.481l-.523-.296-.459.688c-.638.956-2.025 2.292-3.161 3.047-.797.529-3.484 3.152-3.48 3.397.002.126 1.5 1.036 2.582 1.569a17.51 17.51 0 0 0 4.295 1.407c1.381.25 4.088.25 5.523.001zm5.88-7.839c.318-.287.43-.533.531-1.159.287-1.782.121-3.147-.799-6.554-.333-1.235-.435-1.945-.537-3.757-.179-3.175-.493-4.336-1.47-5.449-1.09-1.241-2.26-1.342-4.946-.423-.947.324-2.199.693-2.782.82-2.569.562-3.761.863-4.49 1.136-1.413.529-4.486 2.807-6.604 4.896-1.028 1.014-1.159 1.197-1.159 1.618 0 .868 1.326 2.217 3.014 3.066.382.192.695.291.695.22s-.432-.451-.96-.845-1.109-.883-1.292-1.088l-.331-.372.53.31c.291.17.619.382.729.471.475.384 1.069.558 2.157.632.64.043 1.136.035 1.103-.019-.176-.285-3.866-1.772-4.352-1.754-.327.012-.364-.031-.364-.425 0-.241.072-.511.159-.598.114-.114.954-.159 2.947-.158 3.215.001 4.649.135 6.483.604 2.066.529 2.747.902 4.32 2.364 1.655 1.538 3.358 2.832 4.901 3.723.619.358 1.378.882 1.686 1.164.493.452.542.547.411.797-.214.406-.367.478-1.029.48-.739.003-2.162-.393-4.095-1.139-2.526-.975-2.541-.684-.027.536 1.943.943 2.955 1.245 4.211 1.258.866.009.997-.026 1.361-.355zM15.15 16.199c-.099-.099-1.381-.442-2.227-.595-.804-.145-6.031-.431-7.465-.407l-.908.015.554-.661c1.042-1.244 3.155-2.791 5.103-3.737 1.363-.661 2.649-1.05 5.578-1.686 1.303-.283 2.69-.642 3.082-.797 1.11-.439.927-.245-.35.373-3.063 1.482-3.043 1.471-2.531 1.392.289-.045.518-.016.573.073.119.193-.812.602-2.104.925-1.324.331-2.122.813-2.603 1.571-.383.603-.511 1.22-.255 1.22.073 0 .132-.136.132-.302 0-.361.311-.834.677-1.03.256-.137.262-.114.177.646-.078.686-.057.806.158.926.187.105.305.086.487-.079.208-.188.256-.191.362-.024.067.106.123.347.124.535.002.264.166.455.724.839.756.52 1.121.871.906.871-.07 0-.157-.031-.195-.069zm9.006 8.245c.073-.377-1.084-1.043-1.937-1.114-.414-.034-1.221-.181-1.794-.325s-1.109-.237-1.192-.206c-.097.036-.08.085.047.133l2.252.828c1.129.414 2.111.804 2.181.868.175.159.394.067.443-.185zm-8.32-2.455c0-.102-.693-.558-.848-.558-.043 0-.079.081-.079.179s.194.242.431.318l.464.152c.018.007.033-.033.033-.09zm2.835-.029c-.073-.073-.689-.254-1.369-.402s-1.353-.332-1.495-.408-.289-.107-.326-.07c-.138.138 1.37.804 2.011.888 1.072.141 1.326.139 1.179-.008zm2.259.025c-1.275-1.091-1.425-1.166-2.658-1.325-.664-.086-1.469-.151-1.788-.144-.546.011-.521.026.412.246.546.129 1.649.478 2.451.775 1.486.552 1.811.644 1.583.449zm-8.178-1.696c-.025-.025-.309.002-.633.059l-.588.104.397.219c.38.209.408.207.633-.059.129-.153.215-.298.19-.323zm-1.684-.305c.311-.09.314-.101.063-.185-1.233-.409-3.279-.758-3.043-.518.152.154 2.152.81 2.451.803.109-.002.348-.048.53-.1zm7.55.063c0-.033-.202-.213-.448-.401-.438-.334-.469-.338-1.391-.186-.519.086-.943.208-.943.271s.134.083.298.043.715.012 1.225.114c1.075.216 1.258.239 1.258.158zm-3.007-.756c.158-.084.585-.22.949-.3l.662-.147-.425-.303-.425-.303-.63.603c-.63.604-.669.737-.131.45zm.279-1.038c.327 0 .252-.184-.179-.439l-.391-.231-.146.542a12.5 12.5 0 0 1-.228.765c-.045.123.101.03.325-.207s.503-.43.62-.43zm-4.948-.457c-.466-.47-1.015-.924-1.221-1.009s-.375-.208-.375-.272-.268-.116-.596-.116c-.658 0-.803.19-.232.305.2.04.99.492 1.755 1.003s1.419.933 1.453.936-.319-.378-.784-.847zm1.229-.378c-.434-.736-.568-.867-.937-.912-.237-.029-.431-.022-.431.016 0 .111 1.768 1.861 1.824 1.806.028-.028-.178-.437-.456-.909zm1.284.117c-.084-.406-.201-.739-.26-.739s-.305-.04-.547-.088l-.44-.088.466.465c.256.256.544.655.64.887.254.612.318.413.141-.437zm-3.711.667c0-.028-.402-.29-.894-.582s-1.008-.656-1.146-.81c-.26-.287-.831-.354-1.337-.156-.215.084-.128.144.464.32.401.119 1.176.453 1.722.743.944.5 1.192.601 1.192.486zm4.724-.964c-.382-.207-.408-.151-.211.444l.168.505.164-.397c.149-.36.137-.412-.121-.552zM3.871 27.732c-.052-.135.538-.511 2.072-1.324l3.005-1.612c.474-.262.772-.386.662-.276-.222.224-5.43 3.399-5.575 3.399-.051 0-.125-.085-.164-.188z" fill="#0c1446"/><path d="M16.267 33.384c.346-.027.912-.027 1.258 0s.063.05-.629.05-.975-.022-.629-.05zm-1.954-.123l-.971-.195c-1.27-.247-.651-.233.773.017.764.134 1.181.242.926.24s-.583-.03-.729-.062zm4.274-.005a1.45 1.45 0 0 1 .53.003c.127.033-.008.059-.3.058s-.395-.029-.23-.06zm1.61-.251c.467-.102.874-.162.903-.132.068.068-1.227.349-1.528.331-.124-.007.157-.097.624-.199zm-8.665-.442a17.22 17.22 0 0 1-3.368-1.648l-.937-.672c0-.036.373.175.828.47a18.6 18.6 0 0 0 3.639 1.773c.494.173.808.314.699.314s-.497-.107-.861-.237zm10.862-.192c2.092-.764 3.589-1.645 5.197-3.058 2.299-2.019 4.049-4.621 4.877-7.251.132-.418.264-.735.295-.704.091.091-.368 1.38-.917 2.574-1.469 3.195-4.406 6.209-7.598 7.796-.864.43-2.636 1.094-2.889 1.084-.087-.004.379-.203 1.034-.442zM6.402 29.973c.251-.473 3.427-3.582 4.43-4.337 1.608-1.21 2.778-2.759 3.491-4.625.193-.505.378-.89.412-.857.126.126-.785 2.152-1.345 2.99-.721 1.079-1.594 1.977-2.841 2.923-.528.401-1.709 1.503-2.624 2.45s-1.601 1.602-1.524 1.457zm.693-.022c0-.277 2.998-3.16 4.107-3.95.991-.706 1.682-1.413 2.783-2.846l.333-.434.925.475c.509.261.879.477.822.481s-.457-.172-.89-.391-.814-.397-.846-.397-.325.372-.651.828a12.09 12.09 0 0 1-3.087 2.921c-.565.365-1.347 1.07-2.033 1.832l-1.289 1.432c-.097.107-.175.129-.175.049zm-3.1-2.275c-.044-.072.412-.395 1.013-.718l3.677-1.907c0 .071-4.081 2.553-4.397 2.674-.117.045-.249.023-.293-.049zm-.277-.924c.397-.24 1.244-.655 4.514-2.208 3.029-1.439 4.116-2.317 4.77-3.854.198-.465.404-.846.459-.846s-.137.476-.426 1.057c-.844 1.699-1.366 2.083-5.78 4.251-3.559 1.749-4.433 2.144-3.536 1.6zm.011-.465c.152-.113 1.434-.77 2.848-1.462 2.306-1.127 4.889-2.652 4.89-2.885 0-.049-.164-.148-.364-.221s-.286-.138-.19-.143c.238-.014.687.236.687.383 0 .269-2.585 1.818-5.148 3.084-3.024 1.494-3.118 1.537-2.722 1.244zm-.765-.525c-.437-.698-1.37-2.566-1.5-3.005-.153-.516.006-.271.344.53.169.401.594 1.229.944 1.842.669 1.17.807 1.583.212.634zm19.431-.23c-.801-.211-1.505-.385-1.564-.387s-.066-.07-.017-.151c.06-.097.002-.118-.172-.063-.144.046-.405.022-.58-.053-.276-.118-.258-.127.146-.064.353.055.155-.091-.834-.611-.714-.376-1.28-.7-1.258-.72s.802.34 1.734.801c2.368 1.171 4.393 1.636 5.234 1.202.64-.331.841-.684 1.041-1.827.245-1.407.117-2.447-.697-5.618-.54-2.104-.613-2.575-.72-4.606-.172-3.264-.513-4.323-1.762-5.473-1.102-1.015-2.092-1.049-4.651-.157-.853.297-2.515.746-3.693.998-3.75.801-4.501 1.145-7.374 3.37-1.453 1.125-3.823 3.375-3.976 3.773-.212.553.027 1.037.983 1.986.587.583 1.272 1.104 1.826 1.388.487.25.865.474.84.5s-.236-.052-.468-.172-.452-.188-.489-.151c-.079.079 1.276.778 2.178 1.124.518.198.684.212.938.08.17-.089.419-.133.553-.098.306.08 1.126.965.894.965-.094 0-.229-.133-.301-.296-.174-.393-.787-.608-1.128-.395-.207.129-.381.11-.921-.103-1.889-.744-3.46-1.738-4.441-2.811-1.293-1.413-1.297-1.428-.777-2.473.6-1.203 3.906-4.197 6.076-5.504.763-.459 2.722-1.227 3.443-1.35.219-.037-.262.163-1.067.446-1.712.6-2.269.909-4.019 2.226-2.457 1.85-4.232 3.694-4.537 4.712-.138.462-.129.555.08.753.226.215.234.209.155-.129-.141-.602.146-1.055 1.48-2.344 1.379-1.332 4.603-3.821 5.587-4.313.927-.463 2.131-.821 4.441-1.318 1.166-.251 2.835-.706 3.709-1.012 2.108-.737 2.988-.812 3.96-.336.822.402 1.389.988 1.866 1.927.47.926.599 1.643.742 4.11.13 2.247.204 2.69.89 5.296.623 2.365.76 3.557.558 4.828-.093.585-.226 1.174-.295 1.308s-.095.274-.058.311c.12.12.641-1.044.747-1.669.095-.558.104-.57.115-.143.014.494-.38 1.489-.75 1.899-.363.402-1.169.75-1.709.74-.276-.005-1.158-.182-1.959-.393zm-17.029-6.47c-.786-.514-1.209-.891-1.774-1.58-.259-.316-.471-.524-.471-.461 0 .399 2.261 2.427 2.707 2.427.07 0-.138-.173-.462-.385zm16.749 5.35c-1.174-.347-2.207-.736-2.138-.804.024-.024.446.103.939.281 1.486.539 1.316.351-.243-.27-.801-.319-1.397-.584-1.323-.589.173-.011 3.563 1.264 4.02 1.512.55.299.008.242-1.255-.131zm2.125.095c.11-.346-1.251-1.22-1.897-1.219-.517.001-3.097-.539-3.007-.629.03-.03.653.069 1.383.221s1.514.275 1.741.275c.537 0 2.04.995 1.931 1.279-.055.143.004.185.221.154.432-.062.438-.451.014-.844-.203-.188-.997-.721-1.764-1.184-1.827-1.103-2.982-1.979-4.628-3.511-1.577-1.468-1.985-1.735-3.331-2.185-1.873-.625-3.403-.832-6.887-.933-2.963-.086-3.271-.074-3.477.132-.192.192-.226.196-.226.024 0-.329.757-.386 3.887-.293 3.179.094 3.893.176 5.815.663 1.875.475 2.613.892 4.133 2.333 1.637 1.552 3.049 2.629 4.755 3.631 1.99 1.167 2.502 1.71 2.047 2.165-.087.087-.3.159-.473.159-.241 0-.296-.055-.238-.237zm-6.992-.378c-.572-.181-1.017-.352-.988-.38s.586.118 1.239.327 1.098.38.988.38-.667-.146-1.239-.327zm1.794-.8c-.314-.111-.548-.225-.519-.254.06-.06 1.289.343 1.289.423s-.151.05-.77-.169zm-6.431-1.273a5.81 5.81 0 0 0 .845-1.358c.163-.402.32-.708.347-.68s-.043.275-.158.549c-.298.712-.153.719.331.015.525-.762.655-.791.191-.042-.405.655-1.142 1.458-1.708 1.861-.345.246-.325.2.151-.344zm-11.465-.238c-.09-.299-.138-.568-.109-.598s.127.19.217.489.138.568.109.598-.127-.19-.217-.489zm14.037.225c-.477-.172-.648-.394-.414-.538.079-.049.108-.007.068.098-.047.124.097.233.447.338.625.187.686.19.686.032 0-.068-.104-.158-.232-.201s-.381-.196-.563-.342l-.331-.265.346.056c.19.031.607.193.927.36s1.029.375 1.575.462c.902.143.936.159.369.171a4.36 4.36 0 0 1-1.246-.197c-.569-.193-.632-.193-.74 0-.138.246-.272.25-.892.026zm4.231-.292a30.6 30.6 0 0 0-2.186-.71c-.51-.136-.838-.251-.729-.256.454-.021 4.103 1.131 4.344 1.372.145.145-.203.047-1.43-.406zm1.38.042c-.152-.088-.545-.384-.875-.657-.502-.416-.704-.499-1.247-.511-.357-.008-1.006-.062-1.443-.12-.541-.072-.307-.082.729-.033l1.523.072.729.604.854.709c.183.153.049.121-.269-.065zm-3.734-.33c-.675-.183-1.204-.357-1.175-.387.065-.065 2.592.568 2.7.676.129.129-.239.059-1.526-.29zm9.603-.493l-.162-1.39c-.033-.255.031-.076.141.397s.183 1.099.162 1.39c-.03.425-.058.346-.141-.397zm6.135.188c.043-.497.506-2.737.514-2.483.012.401-.346 2.365-.45 2.47-.038.038-.067.044-.064.014zM.742 20.349c-.084-.387-.176-1.092-.206-1.565l-.054-.861.122.856c.067.471.185 1.15.262 1.509s.115.679.084.709-.125-.261-.208-.648zm11.121.474c-.222-.136-.244-.173-.066-.113.618.211.679.202.856-.13.1-.187.209-.311.244-.277.103.103-.365.733-.54.727-.089-.003-.312-.096-.494-.208zm3.444.014c-.143-.172-.087-.196.414-.177.526.019.537.026.124.076-.335.041-.405.087-.265.175.104.066.123.121.041.122s-.224-.087-.314-.197zm-3.643-.522c.343-.152 1.156-.316 1.048-.212-.067.065-.36.152-.651.194s-.47.05-.397.018zm3.81-.037c.201-.03.499-.03.662.002s-.002.056-.366.055-.498-.027-.296-.057zm2.747-.046c-.182-.066-.838-.178-1.457-.248l-1.126-.127 1.141.052c.628.029 1.343.14 1.59.247.491.214.383.269-.148.076zm-9.053-.32c-.866-.3-1.199-.465-.937-.465.067 0 .444.123.838.272s1.05.321 1.457.381l.741.109-.596.008c-.328.005-1.004-.133-1.503-.306zm9.069-.253c-.505-.421-.574-.442-1.091-.326-.767.172-1.885.239-1.75.104.206-.206 1.561-.495 1.651-.352.047.073.226.1.397.059.236-.056.458.052.908.445.73.637.632.696-.117.07zm-11.143-.042c0-.077-.534-.535-1.187-1.019-1.492-1.107-1.614-1.287-.357-.532.793.476 1.1.588 1.625.593.815.007 1.78.19 1.889.357.046.07.475.201.953.29s.955.221 1.06.293c.146.1.128.114-.075.059-.662-.179-2.233-.476-2.516-.476a.83.83 0 0 1-.512-.199c-.125-.124-.45-.199-.873-.199h-.674l.433.386c.238.212.388.431.333.486s-.099.037-.099-.04zm7.948-.484c0-.242.745-.877 1.028-.877.158 0 .113.106-.176.409-.512.538-.853.725-.853.468zm.927-.708c0-.101-.497.228-.673.445-.116.143-.024.111.243-.084.237-.173.431-.336.431-.361zm-1.115.127c.097-.272.184-.613.193-.759s.045-.195.08-.109c.079.193-.183 1.198-.337 1.293-.062.038-.033-.153.064-.425zm-4.316-.456c-1.183-.836-2.162-1.348-2.414-1.264-.083.028.203.268.635.534 1.165.718 1.254.794.509.437a9 9 0 0 1-1.293-.796c-.514-.392-.736-.475-1.313-.49l-.694-.018.662-.094c.533-.076.722-.048.969.143.169.13.388.206.487.167.268-.103 1.268.38 2.382 1.149.816.564 1.455 1.097 1.245 1.04-.027-.007-.556-.371-1.175-.809zm6.601.708c-.024-.063-.461-.399-.971-.746s-.817-.593-.682-.546c.359.124 1.808 1.161 1.808 1.294 0 .147-.098.146-.155-.002zm-8.779-.497c-.359-.191-1.044-.481-1.522-.644a17.71 17.71 0 0 1-1.499-.594c-.346-.163-.718-.263-.828-.221s-.199.019-.199-.052c0-.206.5-.148 1.032.118.27.136.819.353 1.22.482.753.243 2.517 1.079 2.517 1.193 0 .098-.021.09-.721-.283zm2.543-.552c-1.232-1.154-1.516-1.325-2.302-1.386l-.646-.05.613-.024c.808-.031 1.522.374 2.629 1.493.471.477.814.867.762.867s-.527-.405-1.056-.9zm.642-.146c-.589-.592-1.001-1.109-.949-1.192.165-.266.866-.162 1.207.179.179.179.325.257.325.174 0-.246.798.586 1.072 1.118.39.758.296.781-.133.032-.39-.68-.758-1.079-.881-.956-.037.037.119.369.348.737.37.595.425.954.146.954-.052 0-.563-.47-1.134-1.046zm1.245.849c0-.131-1.1-1.86-1.242-1.953s-.877-.145-.877-.064c0 .021.432.491.96 1.045.871.913 1.159 1.155 1.159.972zm.87-.294c-.325-1.345-.327-1.349-.808-1.439-.254-.048-.496-.142-.537-.209-.099-.16.591 0 .942.217.176.109.322.427.429.935.163.775.142 1.186-.025.496zm-5.175-.307c-.583-.291-1.377-.623-1.765-.738s-.681-.234-.652-.264c.117-.117 1.551.404 2.615.95.619.318 1.066.578.993.579s-.609-.237-1.192-.528zm17.634.119c-.11-.552-.003-.659.116-.116.05.229.064.444.03.478s-.099-.129-.146-.362zm-11.531.017c.049-.182.144-.42.211-.53.085-.138.096-.098.034.132-.049.182-.144.42-.211.53-.085.138-.096.098-.034-.132zm-.496-.132a6.97 6.97 0 0 0-.167-.596c-.05-.146.005-.098.124.107s.194.473.167.596c-.034.16-.07.129-.124-.107zm19.277-.861c0-.655.022-.94.05-.633s.028.844.001 1.192-.05.097-.051-.559zM.381 16.93c0-.473.024-.667.053-.43s.029.624 0 .861-.053.043-.053-.43zm25.27-.74c-.158-.631-.263-1.171-.234-1.201s.184.462.342 1.093.263 1.171.234 1.201-.184-.462-.342-1.093zm-11.404-.326c-.474-.134-1.397-.304-2.053-.378-1.796-.204-6.692-.432-7.219-.337-.448.081-.422.042.795-1.157a15.26 15.26 0 0 1 4.356-3.089c1.429-.695 2.421-1.015 4.519-1.459 1.971-.417 4.069-.96 4.438-1.149.161-.083.213-.084.132-.005-.126.125-2.96 1.447-3.378 1.576-.109.034.129-.118.53-.337s.644-.401.541-.405c-.393-.013-4.468.955-5.237 1.244-2.003.754-4.069 2.033-5.637 3.49-.546.508-.964.954-.927.992s1.527.139 3.312.226c2.846.139 4.292.292 5.762.61l.397.086-.472-.448c-.499-.473-.441-.44.582.329.352.264.59.474.53.467a19.31 19.31 0 0 1-.971-.257zm-13.74-.523c0-.328.026-.462.057-.298s.032.432 0 .596-.057.03-.057-.298zm32.577-.946l-.231-1.437c-.06-.291-.054-.298.054-.059.16.355.462 2.234.393 2.442-.029.088-.127-.337-.216-.946zm-7.891.007c-.046-.23-.076-.664-.066-.965.013-.403.045-.305.124.378.113.977.082 1.289-.058.587zm-24.577.052c-.015-.347.257-1.668.328-1.597.027.027-.033.463-.133.969s-.188.788-.195.628zm12.855-.014c-.012-.203-.073-.274-.184-.212-.131.074-.132.057-.002-.083.214-.231.336-.096.263.291l-.059.309-.018-.306zm-.945-.29c-.146-.146-.26-.399-.253-.563.01-.239.035-.217.131.111.065.225.254.474.419.554s.225.148.134.153-.285-.11-.431-.256zm-1.194-.268c-.084-.156-.123-.313-.087-.349s.104.059.152.21c.121.38.334.345.334-.054 0-.335.707-1.259.853-1.114.044.044.023.223-.047.397-.109.272-.128.28-.135.057-.008-.239-.026-.243-.221-.048-.117.117-.252.408-.301.647-.108.529-.342.637-.548.253zm.008-.606c-.003-.08.167-.403.378-.717.504-.751 1.69-1.527 2.501-1.637a8.68 8.68 0 0 0 1.285-.303c.544-.18.614-.236.397-.321-.191-.075-.119-.102.268-.101l.53.002-.678.321c-.373.177-1.029.385-1.457.464-1.328.243-2.44.983-2.97 1.974-.136.255-.25.398-.254.318zm13.68-1.245c0-.473.024-.667.053-.43s.029.624 0 .861-.053.043-.053-.43zm-24.012.571c-.013-.315.699-2.121 1.291-3.274 1.525-2.969 4.22-5.621 7.246-7.13.972-.484 2.751-1.162 3.021-1.151.087.004-.391.206-1.061.449C6.729 3.23 3.189 6.775 1.447 11.567c-.238.656-.436 1.121-.44 1.034zm31.463-.804c-.632-2.025-2.074-4.397-3.706-6.097-1.696-1.766-3.455-2.974-5.769-3.96-.549-.234-.931-.428-.849-.43.441-.014 2.986 1.272 4.273 2.159 2.135 1.472 4.401 4.19 5.486 6.579.502 1.105.943 2.367.858 2.453-.031.031-.163-.286-.293-.704zm-8.142-2.766c-.377-.859-1.302-1.931-1.869-2.165-.223-.092-.376-.197-.341-.232s.324.087.641.273c.587.344 1.486 1.49 1.815 2.314.293.734.091.579-.246-.19zm-11.074-.58c.594-.203 2.33-.558 2.397-.49.052.052-1.598.436-2.464.573-.26.041-.246.023.066-.083zm3.709-.866c.364-.101.722-.179.795-.173.224.019-.91.361-1.192.359-.146-.001.033-.085.397-.186zm2.186-.653c.255-.098.553-.178.662-.178s-.01.08-.265.178-.553.178-.662.178.01-.08.265-.178zm1.755-.426a2.93 2.93 0 0 1 .729 0c.2.03.036.055-.364.055s-.565-.025-.364-.055zm.431-5.334c-.167-.072-.191-.114-.066-.114a1.46 1.46 0 0 1 .464.114c.167.072.191.114.066.114a1.46 1.46 0 0 1-.464-.114zM13.021.905c.163-.066.61-.15.993-.188.686-.068.684-.066-.164.12-.992.217-1.252.238-.829.068zm6.79-.072A11.45 11.45 0 0 0 18.42.632c-.375-.017-.434-.042-.201-.086.355-.066 2.133.187 2.578.368.383.155.02.125-.986-.081zM15.009.55a1.89 1.89 0 0 1 .596 0c.164.032.03.057-.298.057s-.462-.026-.298-.057zm1.523-.134a2.93 2.93 0 0 1 .729 0c.2.03.036.055-.364.055s-.565-.025-.364-.055z" fill="#020339"/></svg>