<svg xmlns="http://www.w3.org/2000/svg" width="128" height="128" viewBox="0 0 33.867 33.867" xmlns:v="https://vecta.io/nano"><circle cx="16.933" cy="16.933" r="16.933" fill="#262626" paint-order="stroke fill markers"/><path d="M5.652 8.205c0 .746.288 1.976.636 2.688.577 1.204 1.687 2.043 3.188 2.425.594.144 1.051.187 2.756.22l2.154.11c.059.034.254.585.432 1.229.305 1.102.382 1.306.441 1.221.017-.017.153-.195.305-.39l.271-.365.534 1.085.534 1.077.551-1.094.543-1.085.288.365.314.407c.059.085.136-.119.441-1.212l.382-1.221c.034-.034.967-.085 2.069-.11 2.349-.059 3.035-.178 4.078-.678.907-.441 1.552-1.085 1.993-1.976a7.31 7.31 0 0 0 .644-2.696c0-.56.119-.704.246-.305.432 1.348.517 3.222.187 4.426-.424 1.586-1.475 2.857-3.002 3.621-.678.348-1.823.721-2.73.882-.899.17-1.272.348-1.636.763-.153.161-.704 1.162-1.221 2.213l-.958 1.908-.034 1.365-.025 1.357-.509.882-.517.882h-1.077-1.085l-.517-.89-.517-.882v-1.009c0-.56-.034-1.221-.085-1.467-.085-.509-1.738-3.858-2.145-4.367-.331-.399-.729-.585-1.619-.746-3.222-.61-5.104-2.12-5.783-4.63-.178-.661-.203-2.391-.042-3.197.153-.806.348-1.391.432-1.34.051.034.085.271.085.534z" fill="#00c864"/></svg>