<svg xmlns="http://www.w3.org/2000/svg" width="128" height="128" viewBox="0 0 33.867 33.867" xmlns:v="https://vecta.io/nano"><circle cx="16.933" cy="16.933" r="16.933" fill="#16449a" paint-order="fill markers stroke"/><g fill="#fff"><path d="M12.719 5.744c.476-.061 1.959-.217 1.67.668-.173.53-.866 1.047-1.229 1.467-.702.814-1.316 1.694-1.909 2.589-1.231 1.861-2.327 4.194-2.327 6.473 0 2.018.899 3.979 1.872 5.696.837 1.477 1.913 2.769 3.009 4.056.299.351 1.077 1.203.207 1.438-.848.229-2.033-.126-2.846-.367-2.943-.87-5.33-3.184-6.523-5.99-2.725-6.409.644-15.069 8.077-16.03m7.082.007c.927-.262 2.222.11 3.101.402 2.915.967 5.169 3.229 6.351 6.041 2.759 6.566-.955 15.214-8.508 15.954-.55.054-1.629.005-1.203-.851.267-.537.877-1.008 1.267-1.467.712-.84 1.355-1.749 1.948-2.675 1.275-1.991 2.355-4.489 2.118-6.904-.185-1.883-.98-3.656-1.939-5.264-.841-1.409-1.873-2.64-2.933-3.884-.261-.306-.968-1.135-.203-1.351M12.46 6.844c-.909.324-1.813.503-2.675.974-2.096 1.144-3.64 3.187-4.429 5.412-1.445 4.075-.31 9.046 3.048 11.844 1.129.941 2.646 1.776 4.143 1.878-.803-1.213-1.796-2.281-2.552-3.538-2.012-3.346-2.757-6.929-1.209-10.615.619-1.475 1.451-2.851 2.393-4.143.341-.467 1.258-1.244 1.282-1.812m8.889 0c.287.685.948 1.298 1.392 1.899.738.999 1.408 2.077 1.953 3.193.745 1.529 1.315 3.29 1.315 5.006 0 2.314-1.023 4.613-2.194 6.559-.726 1.207-1.79 2.235-2.466 3.452 4.953-.336 8.197-6.28 7.756-10.788-.343-3.501-2.067-6.768-5.253-8.47-.792-.423-1.644-.624-2.503-.851"/><path d="M18.114 22.798h-2.436c-.205-.003-.258.007-.255-.208v-2.062h-2.676c-.127-.002-.22-.021-.224-.203v-1.463c-.002-.151.001-.288.208-.289h2.691v-.888l-2.691-.016c-.132-.007-.201-.029-.208-.187V15.9c.004-.2.075-.303.245-.302h1.77l-2.28-4.16c-.129-.21.016-.367.176-.37h2.317c.069.015.077-.018.115.042l2.051 3.649 2.051-3.649c.013-.027.028-.04.094-.042h2.405c.128.007.261.164.151.37l-2.337 4.16h1.754c.178.004.229.096.224.26v1.588c-.003.151.006.229-.135.234l-2.764-.005v.898h2.733c.141.003.17.074.167.273v1.437c.002.144 0 .243-.13.245h-2.769v2.025c.006.154-.048.249-.245.245z" paint-order="stroke fill markers"/></g></svg>