<svg xmlns="http://www.w3.org/2000/svg" xmlns:xlink="http://www.w3.org/1999/xlink" width="128" height="128" viewBox="0 0 33.867 33.867" xmlns:v="https://vecta.io/nano"><style><![CDATA[.B{fill:#5552fd}.C{fill:#9695f8}.D{fill:#fed955}]]></style><defs><filter id="A" x="-.208" y="-.208" width="1.417" height="1.417" color-interpolation-filters="sRGB"><feGaussianBlur stdDeviation="2.067"/></filter><path id="B" d="M20.461 27.517h-1.764v-1.764h1.764z"/></defs><circle cx="16.933" cy="16.933" r="16.802" fill="#1c1042" stroke="#473d64" stroke-width=".263" stroke-linejoin="bevel" paint-order="normal"/><circle cx="16.933" cy="16.933" r="11.906" transform="matrix(1.003921 0 0 1.003921 -.066405 -.066405)" opacity=".298" fill="#fff" paint-order="normal" filter="url(#A)"/><g class="D"><path d="M11.642 15.169H9.878v-1.764h1.764zm0 3.528H9.878v-1.764h1.764z"/><path d="M11.642 16.933H9.878v-1.764h1.764zm0 3.528H9.878v-1.764h1.764zm7.055-8.819h-1.764V9.878h1.764zm0 10.583h-1.764v1.764h1.764z"/><path d="M20.461 11.642h-1.764V9.878h1.764z"/></g><g class="C"><path d="M22.225 11.642h-1.764V9.878h1.764zm-10.583 0h1.764V9.878h-1.764zm10.583 10.583h1.764v-1.764h-1.764zm-10.583 0H9.878v-1.764h1.764z"/><path d="M20.461 9.878h-1.764V8.114h1.764z"/></g><g class="B"><path d="M20.461 8.114h-1.764V6.35h1.764z"/><use xlink:href="#B"/></g><g class="C"><use xlink:href="#B" y="-1.764"/><path d="M16.933 9.878h-1.764V8.114h1.764z"/></g><g class="B"><path d="M16.933 8.114h-1.764V6.35h1.764z"/><use xlink:href="#B" x="-3.528"/></g><g class="C"><use xlink:href="#B" x="-3.528" y="-1.764"/><path d="M18.697 9.878h-1.764V8.114h1.764z"/></g><g class="B"><path d="M18.697 8.114h-1.764V6.35h1.764z"/><use xlink:href="#B" x="-1.764"/></g><g class="C"><use xlink:href="#B" x="-1.764" y="-1.764"/><path d="M15.169 9.878h-1.764V8.114h1.764z"/></g><g class="B"><path d="M15.169 8.114h-1.764V6.35h1.764z"/><use xlink:href="#B" x="-5.292"/></g><g class="C"><use xlink:href="#B" x="-5.292" y="-1.764"/><use xlink:href="#B" x="3.528" y="-14.111"/><path d="M9.878 13.406h1.764v-1.764H9.878zm10.583 10.583h1.764v-1.764h-1.764z"/><use xlink:href="#B" x="-7.055" y="-3.528"/><use xlink:href="#B" x="5.292" y="-12.348"/><path d="M9.878 15.169H8.114v-1.764h1.764z"/></g><g class="B"><path d="M8.114 15.169H6.35v-1.764h1.764z"/><path d="M9.878 13.406H8.114v-1.764h1.764zm14.111 0h1.764v-1.764h-1.764z"/><use xlink:href="#B" x="1.764" y="-1.764"/><path d="M8.114 22.225v-1.764h1.764v1.764zm3.528-10.583H9.878V9.878h1.764zm10.583 0h1.764V9.878h-1.764z"/><use xlink:href="#B" x="3.528" y="-3.528"/><path d="M9.878 23.989v-1.764h1.764v1.764zm3.528-14.111h-1.764V8.114h1.764zm7.055 0h1.764V8.114h-1.764z"/><use xlink:href="#B" x="5.292" y="-5.292"/><path d="M11.642 25.753v-1.764h1.764v1.764z"/><use xlink:href="#B" x="7.056" y="-12.348"/></g><g class="C"><use xlink:href="#B" x="5.292" y="-10.584"/><path d="M9.878 16.933H8.114v-1.764h1.764z"/></g><g class="B"><path d="M8.114 16.933H6.35v-1.764h1.764z"/><use xlink:href="#B" x="7.056" y="-10.584"/></g><g class="C"><use xlink:href="#B" x="5.292" y="-8.82"/><path d="M9.878 18.697H8.114v-1.764h1.764z"/></g><g class="B"><path d="M8.114 18.697H6.35v-1.764h1.764z"/><use xlink:href="#B" x="7.056" y="-8.82"/></g><g class="C"><use xlink:href="#B" x="5.292" y="-7.056"/><path d="M9.878 20.461H8.114v-1.764h1.764z"/></g><g class="B"><path d="M8.114 20.461H6.35v-1.764h1.764z"/><use xlink:href="#B" x="7.056" y="-7.056"/></g><g class="D"><path d="M20.461 22.225h-1.764v1.764h1.764z"/><use xlink:href="#B" x="-1.764" y="-12.348"/><use xlink:href="#B" x="-1.764" y="-8.82"/><use xlink:href="#B" x="-1.764" y="-7.056"/><use xlink:href="#B" x="-1.764" y="-14.111"/><path d="M18.697 20.461h-1.764v1.764h1.764z"/><use xlink:href="#B" x="-5.292" y="-8.82"/><use xlink:href="#B" x="-5.292" y="-10.584"/><use xlink:href="#B" x="-5.292" y="-7.056"/><use xlink:href="#B" x="-5.292" y="-14.111"/><path d="M15.169 20.461h-1.764v1.764h1.764z"/><use xlink:href="#B" y="-8.82"/><use xlink:href="#B" y="-10.584"/><use xlink:href="#B" y="-7.056"/><use xlink:href="#B" y="-14.111"/><path d="M20.461 20.461h-1.764v1.764h1.764zm-3.528-8.819h-1.764V9.878h1.764zm0 10.583h-1.764v1.764h1.764z"/><path d="M15.169 11.642h-1.764V9.878h1.764zm0 10.583h-1.764v1.764h1.764z"/><use xlink:href="#B" x="-3.528" y="-12.348"/><use xlink:href="#B" x="-3.528" y="-8.82"/></g><g class="B"><use xlink:href="#B" x="-5.292" y="-12.348"/><use xlink:href="#B" x="-1.764" y="-10.584"/><use xlink:href="#B" x="1.764" y="-12.348"/><use xlink:href="#B" x="1.764" y="-8.82"/><use xlink:href="#B" x="1.764" y="-10.584"/><use xlink:href="#B" x="1.764" y="-7.056"/><use xlink:href="#B" x="1.764" y="-14.111"/><path d="M22.225 20.461h-1.764v1.764h1.764z"/><use xlink:href="#B" x="-7.055" y="-12.348"/><use xlink:href="#B" x="-7.055" y="-8.82"/><use xlink:href="#B" x="-7.055" y="-10.584"/><use xlink:href="#B" x="-7.055" y="-7.056"/><use xlink:href="#B" x="-7.055" y="-14.111"/><path d="M13.406 20.461h-1.764v1.764h1.764z"/><use xlink:href="#B" y="-12.348"/><use xlink:href="#B" x="-3.528" y="-10.584"/></g><g class="D"><use xlink:href="#B" x="-3.528" y="-7.056"/><use xlink:href="#B" x="-3.528" y="-14.111"/><path d="M16.933 20.461h-1.764v1.764h1.764z"/><use xlink:href="#B" x="3.528" y="-12.348"/><use xlink:href="#B" x="3.528" y="-8.82"/><use xlink:href="#B" x="3.528" y="-10.584"/><use xlink:href="#B" x="3.528" y="-7.056"/></g></svg>