<svg xmlns="http://www.w3.org/2000/svg" width="128" height="128" viewBox="0 0 33.867 33.867" xmlns:v="https://vecta.io/nano"><circle cx="16.933" cy="16.933" r="16.933" fill="#e5be2f" paint-order="fill markers stroke"/><path d="M13.828 2.562c-1.282.27-2.043.541-3.405 1.212-1.492.741-2.613 1.582-3.915 2.934-2.553 2.644-3.855 5.688-4.105 9.533-.25 4.085 1.672 8.732 4.746 11.445 1.122.991 3.254 2.423 3.395 2.283.02-.02-.32-.531-.761-1.122a15.96 15.96 0 0 1-2.784-6.349c-.21-1.172-.24-3.995-.04-5.107.2-1.182.611-2.674.981-3.605.941-2.323 2.734-4.496 4.636-5.597 2.283-1.332 4.857-1.552 7.64-.661l.791.25 1.061-.26c2.343-.551 2.303-.551 2.023-.36-1.192.821-1.742 1.402-2.193 2.353-1.152 2.413-.15 5.387 2.213 6.589 2.043 1.031 4.306.671 6.088-.981.711-.661 1.101-1.182 1.101-1.482 0-.12-.12-.06-.471.25-2.403 2.113-6.078 1.031-7.039-2.073-.2-.671-.25-1.422-.1-1.782.07-.18.08-.17.14.1.21.971.391 1.362.801 1.792.721.741 1.152.911 2.263.911 1.071 0 1.462-.15 2.223-.831 2.844-2.563-2.603-7.81-9.683-9.332-1.452-.32-4.346-.37-5.608-.11zm3.996 5.918c-.741.31-.691 1.422.08 1.692.621.22 1.332-.391 1.202-1.041-.09-.501-.801-.861-1.282-.651zm12.927 11.936c-1.182 1.742-3.244 3.725-5.067 4.867-1.502.951-3.895 1.913-5.547 2.233-1.041.21-3.415.18-4.406-.05a10.14 10.14 0 0 1-3.054-1.242c-.901-.561-2.213-1.792-2.924-2.744-.28-.381-.521-.671-.541-.651-.06.06.32 1.692.581 2.473.981 3.034 3.154 5.077 6.288 5.928 1.192.32 3.445.32 4.726 0 4.416-1.091 7.75-3.945 9.623-8.211.36-.801 1.111-3.354 1.051-3.535-.02-.06-.35.36-.731.931z"/></svg>