<svg xmlns="http://www.w3.org/2000/svg" width="128" height="128" fill="none" xmlns:v="https://vecta.io/nano"><path d="M55.686 2.23c5.145-2.973 11.483-2.973 16.627 0l40.973 23.678c5.144 2.973 8.314 8.468 8.314 14.414v47.356a16.65 16.65 0 0 1-8.314 14.414L72.314 125.77c-5.144 2.973-11.483 2.973-16.627 0l-40.972-23.678C9.569 99.119 6.4 93.624 6.4 87.678V40.322c0-5.946 3.169-11.441 8.314-14.414z" fill="#006dff"/><path d="M84.719 68.477c-1.503-2.672-3.908-2.672-5.412 0l-9.492 16.776c-1.503 2.628-.258 4.819 2.706 4.819h18.812c3.007 0 4.252-2.19 2.749-4.819zM73.724 48.722l-4.94-8.892-2.104-3.811c-1.503-2.672-3.908-2.672-5.412 0L33.78 85.21c-1.503 2.672-.258 4.819 2.749 4.819h7.645 5.24.902c2.491 0 5.583-1.796 6.829-4.03l16.579-29.26c1.203-2.146 1.203-5.782 0-8.016z" fill="#fff"/></svg>