<svg xmlns="http://www.w3.org/2000/svg" xmlns:xlink="http://www.w3.org/1999/xlink" width="128" height="128" xmlns:v="https://vecta.io/nano"><defs><linearGradient id="A" gradientUnits="userSpaceOnUse"><stop offset=".35" stop-color="#00b2ec"/><stop offset=".43" stop-color="#2ec0ef"/><stop offset=".55" stop-color="#6dd3f4"/><stop offset=".66" stop-color="#a1e3f8"/><stop offset=".77" stop-color="#caeffb"/><stop offset=".86" stop-color="#e7f8fd"/><stop offset=".94" stop-color="#f9fdff"/><stop offset="1" stop-color="#fff"/></linearGradient><linearGradient id="B" x1="59.528" y1="8.416" x2="120.366" y2="62.768" xlink:href="#A"/><linearGradient xlink:href="#A" id="C" x1="57.742" y1="125.09" x2="118.578" y2="56.994"/></defs><circle cx="64" cy="64" r="64"/><path d="M78.904 98.221l-.499-.67.499.67a15.724 15.724 0 0 0 1.696 1.783 15.724 15.724 0 0 1-1.696-1.783z" fill="url(#C)"/><path d="M81.227 100.542l.345.271h0z" fill="url(#B)"/><path d="M64.098 88.378h-.084a24.381 24.381 0 1 1-.027-48.762h0a24.367 24.367 0 0 1 23.127 32.099l10.956 14.722a40.805 40.805 0 1 0-22.783 16.758c-.418-.445-11.189-14.817-11.189-14.817z" fill="#fff"/><path d="M104.246 104.707L90.224 85.865l-7.555-10.15h0l-.499-.67-.459-.543a16.345 16.345 0 0 0-1.243-1.248l-.621-.543-.347-.271-.356-.271-.784-.543c-2.472-1.628-6.057-3.151-10.882-3.151H56.827l.041.054-.041.027L70.85 87.401l7.555 10.152h0l.499.67c.125.157.285.339.459.543a15.868 15.868 0 0 0 1.243 1.248c.195.176.402.356.621.543l.345.271.358.271c.247.182.507.366.782.543 2.472 1.628 6.06 3.151 10.885 3.151h10.649l-.035-.041z" fill="#00b2ec"/></svg>