<svg xmlns="http://www.w3.org/2000/svg" width="128" height="128" viewBox="0 0 33.867 33.867" xmlns:v="https://vecta.io/nano"><path d="M15.219 33.197c-3.987-1.937-9.462-9.66-11.756-16.582C1.9 11.901 1.469 7.507 2.397 5.757c3.921-7.397 25.272-7.397 29.108 0 1.876 3.618-1.322 14.269-6.346 21.135-4.141 5.659-7.233 7.62-9.94 6.305zm3.843-14.509c.537-.376 1.939-2.903 1.932-3.482-.008-.683-1.572-3.28-2.128-3.534-.512-.233-3.203-.262-3.787-.04-.532.202-2.147 2.881-2.155 3.574-.007.579 1.396 3.107 1.932 3.482.5.35 3.706.35 4.206 0z" fill="#76c1eb"/><path d="M15.716 33.402C9.525 30.891 1.875 16.955 1.875 8.187c0-10.357 29.389-10.74 30.128-.393.712 9.958-10.686 27.88-16.287 25.608zm.235-9.031l2.169-3.854c0-.05-2.163-.09-4.807-.09l-4.807.063c0 .116 1.529 2.828 2.113 3.75 1.004 1.583 2.938 4.121 3.053 4.006.061-.061 1.087-1.804 2.279-3.874zm3.184-5.652c.38-.289 1.969-3.103 1.969-3.488 0-.444-1.603-3.202-2.038-3.507-.506-.354-3.707-.354-4.213 0-.435.304-2.038 3.063-2.038 3.507 0 .384 1.588 3.198 1.969 3.488.37.282 3.981.282 4.351 0zm9.4-9.993c.099-2.279-.912-3.637-3.701-4.971-1.474-.705-3.989-1.471-4.49-1.368-.203.042-4.544 7.229-4.544 7.523 0 .04 2.853.073 6.341.073h6.341z" fill="#58b2db"/><path d="M15.605 33.303C7.855 30.044-.888 10.624 2.893 5.067c4.332-6.367 23.789-6.367 28.135 0 3.169 4.643-2.132 18.966-9.657 26.089-2.369 2.243-4.049 2.868-5.765 2.146zm.114-8.404l2.546-4.388-5.651-.044c-3.108-.024-5.688-.007-5.733.039-.401.401 5.591 9.015 6.143 8.832.083-.028 1.296-2.025 2.696-4.439zm3.3-6.064c.349-.134 2.085-3.096 2.085-3.558 0-.47-1.26-2.758-1.843-3.345-.44-.443-.504-.456-2.301-.456s-1.862.013-2.301.456c-.587.592-1.843 2.876-1.843 3.352 0 .425 1.711 3.413 2.027 3.541.303.122 3.863.13 4.176.01zM30.383 8.616c-.009-3.205-2.516-5.162-8.037-6.273-2.226-.448-1.868-.733-4.227 3.358l-2.282 3.91-.242.373h7.396 7.396l-.004-1.368z" fill="#e84564"/><path d="M15.605 33.303C7.855 30.044-.888 10.624 2.893 5.067c4.332-6.367 23.789-6.367 28.135 0 3.169 4.643-2.132 18.966-9.657 26.089-2.369 2.243-4.049 2.868-5.765 2.146zm.114-8.404l2.546-4.388-5.651-.044c-3.108-.024-5.688-.007-5.733.039-.401.401 5.591 9.015 6.143 8.832.083-.028 1.296-2.025 2.696-4.439zm11.419-9.074c.544-1.648 1.107-4.028.995-4.209s-7.239-.182-7.167.003c.03.079 1.093 1.941 2.361 4.138l2.306 3.994.541-1.322a48.35 48.35 0 0 0 .964-2.604zm-14.206 2.986c-.038-.068-1.699-2.95-3.69-6.403L5.62 6.129l-.203.56c-.635 1.754.131 6.572 1.691 10.65l.611 1.597h2.64c1.452 0 2.609-.056 2.571-.124zm6.087.023c.349-.134 2.085-3.096 2.085-3.558 0-.47-1.26-2.758-1.843-3.345-.44-.443-.504-.456-2.301-.456s-1.862.013-2.301.456c-.587.592-1.843 2.876-1.843 3.352 0 .425 1.711 3.413 2.027 3.541.303.122 3.863.13 4.176.01zM30.383 8.616c-.009-3.205-2.516-5.162-8.037-6.273-2.226-.448-1.868-.733-4.227 3.358l-2.282 3.91-.242.373h7.396 7.396l-.004-1.368z" fill="#d33457"/><path d="M15.605 33.303C7.855 30.044-.888 10.624 2.893 5.067c4.332-6.367 23.789-6.367 28.135 0 3.169 4.643-2.132 18.966-9.657 26.089-2.369 2.243-4.049 2.868-5.765 2.146zm.114-8.404l2.546-4.388-5.651-.044c-3.108-.024-5.688-.007-5.733.039-.401.401 5.591 9.015 6.143 8.832.083-.028 1.296-2.025 2.696-4.439zm12.791-7.704c.542-1.409 1.545-4.966 1.545-5.481 0-.2-.715-.237-4.576-.237-4.076 0-4.565.028-4.477.258.099.257 2.255 4.015 4.447 7.749l1.148 1.957.669-1.376c.368-.757.928-2.048 1.244-2.868zm-15.529 1.657c0-.089-7.766-13.539-7.887-13.661-.142-.142-.904.722-1.228 1.392-.775 1.602-.059 6.485 1.576 10.736l.621 1.616h3.459c1.903 0 3.459-.038 3.459-.084zm6.038-.017c.349-.134 2.085-3.096 2.085-3.558 0-.47-1.26-2.758-1.843-3.345-.44-.443-.504-.456-2.301-.456s-1.862.013-2.301.456c-.587.592-1.843 2.876-1.843 3.352 0 .425 1.711 3.413 2.027 3.541.303.122 3.863.13 4.176.01zM30.383 8.616c-.009-3.205-2.516-5.162-8.037-6.273-2.226-.448-1.868-.733-4.227 3.358l-2.282 3.91-.242.373h7.396 7.396l-.004-1.368z" fill="#732f87"/><path d="M15.762 33.367C8.497 30.527-.454 11.81 2.542 5.724c3.56-7.232 25.29-7.233 28.832-.001 2.663 5.438-4.201 21.461-11.393 26.596-1.844 1.317-2.877 1.573-4.219 1.049zm.306-2.416c2.364-1.257 5.597-4.716 8.018-8.577l.674-1.075-1.318-2.28-1.318-2.28-.506.891-3.971 6.859-3.465 5.968.518.451c.625.545.436.539 1.367.043zm-.37-6.007l2.576-4.434-5.656-.044c-3.111-.024-5.693-.007-5.738.039-.375.375 5.48 8.873 6.114 8.873.071 0 1.288-1.995 2.705-4.434zm12.811-7.75c.542-1.409 1.545-4.966 1.545-5.481 0-.2-.715-.237-4.576-.237-4.019 0-4.565.031-4.48.251.106.277 3.484 6.162 4.782 8.332l.821 1.372.667-1.372a44.47 44.47 0 0 0 1.242-2.864zm-9.576 1.665c.547-.283 2.17-3.011 2.17-3.648 0-.431-1.372-2.88-1.967-3.519-.582-.626-3.821-.617-4.417.03-.633.688-1.905 3.04-1.905 3.517 0 .597 1.617 3.33 2.139 3.613.599.326 3.354.33 3.98.006zm-5.953-.012c0-.076-7.369-12.861-7.782-13.501-.212-.329-.872.282-1.334 1.236-.775 1.602-.059 6.485 1.576 10.736l.621 1.616h3.459c1.903 0 3.459-.039 3.459-.087zm2.663-11.801l2.95-5.103-1.273-.053c-2.638-.11-7.174.893-8.92 1.973l-.566.35.314.523 2.349 4.049c1.119 1.939 2.071 3.49 2.116 3.445s1.408-2.377 3.031-5.184zm14.739 1.569c-.009-3.205-2.516-5.162-8.037-6.273-2.226-.448-1.868-.733-4.231 3.358l-2.282 3.91-.238.373h7.396 7.396l-.004-1.368z" fill="#642973"/><path d="M15.847 33.357C9.795 31.205 1.875 16.885 1.875 8.095c0-8.87 25.193-10.864 29.545-2.338 2.432 4.764-3.3 19.246-10.057 25.409-2.392 2.181-3.881 2.773-5.516 2.191zm2.564-1.829c1.092-.626 2.904-2.326 4.224-3.962 1.016-1.259 3.11-4.339 3.11-4.574 0-.206-3.504-6.211-3.621-6.208-.06.002-1.749 2.846-3.755 6.321l-3.969 6.875c-.374.648-.368.656 1.151 1.556 1.067.632 1.747.63 2.861-.009zm-2.628-6.708l2.493-4.31-5.656-.044c-3.111-.024-5.691-.009-5.733.033-.095.095 1.081 2.253 2.081 3.816 1.626 2.542 3.994 5.385 4.195 5.036l2.62-4.532zm11.747-5.18c1.035-2.192 1.892-4.639 2.327-6.645l.329-1.519h-4.723-4.723l.314.539 2.874 4.973c1.408 2.439 2.605 4.434 2.661 4.434s.479-.802.942-1.782zm-14.383-.624c0-.087-7.941-13.853-8.078-14.005-.169-.186-1.223 1.298-1.447 2.037-.594 1.959 1.098 10.185 2.437 11.846.166.206 7.089.325 7.089.122zm5.799-.128c.524-.265 2.153-3.024 2.156-3.652.002-.491-1.49-3.182-1.964-3.543-.285-.217-3.732-.31-4.243-.114-.404.155-2.08 3.1-2.077 3.652.003.633 1.628 3.39 2.156 3.657.245.124 1.051.208 1.986.208s1.742-.085 1.986-.208zM15.29 7.794l3.327-5.843c0-.049-.951-.089-2.114-.088-3.453.002-6.654.615-9.117 1.746l-1.201.552 1.759 3.036 2.776 4.81c.559.975 1.068 1.721 1.13 1.658s1.61-2.705 3.44-5.869zm13.579 2.248l1.517-.108V8.543c0-2.109-.982-3.516-3.253-4.66-2.12-1.068-6.499-2.131-6.928-1.681-.243.254-4.572 7.69-4.572 7.853 0 .131 11.361.121 13.236-.012z" fill="#09354b" stroke="#09354b" stroke-width=".472" stroke-linejoin="bevel" paint-order="normal"/><path d="M16.491 18.842c-.562-.022-1.207-.096-1.361-.158s-.426-.389-.83-1c-.529-.8-1.025-1.738-1.192-2.253-.075-.231-.02-.427.32-1.123.431-.884 1.128-2.034 1.443-2.379.14-.153.165-.16.732-.192 1.149-.067 3.209.039 3.397.174.349.25 1.631 2.501 1.827 3.208.034.123.034.134-.014.291-.144.475-.581 1.323-1.104 2.14-.36.562-.742 1.044-.886 1.118-.235.121-1.419.209-2.332.173z" fill="#fff" paint-order="normal"/></svg>