<svg xmlns="http://www.w3.org/2000/svg" xmlns:xlink="http://www.w3.org/1999/xlink" width="128" height="128" viewBox="0 0 33.867 33.867" xmlns:v="https://vecta.io/nano"><defs><linearGradient id="A" x1="16.935" y1="26.22" x2="16.935" y2="14.249" xlink:href="#G"><stop stop-color="#ff78f1"/><stop offset="1" stop-color="#00fff7"/></linearGradient><linearGradient id="B" x1="6.138" y1="29.881" x2="27.731" y2="29.881" xlink:href="#G"><stop stop-color="#009bec"/><stop offset="1" stop-color="#00caef"/></linearGradient><linearGradient id="C" x1="27.314" y1="3.922" x2="10.684" y2="3.922" xlink:href="#G"><stop stop-color="#008deb"/><stop offset="1" stop-color="#956de7"/></linearGradient><linearGradient id="D" x1="3.965" y1="6.129" x2="3.965" y2="26.799" xlink:href="#G"><stop stop-color="#8172e8"/><stop offset="1" stop-color="#00c4ef"/></linearGradient><linearGradient id="E" x1="29.904" y1="6.013" x2="29.904" y2="27.726" xlink:href="#G"><stop stop-color="#8172e8"/><stop offset="1" stop-color="#00c4ef"/></linearGradient><linearGradient id="F" x1="9.243" y1="-10.56" x2="24.219" y2="42.972" xlink:href="#G"><stop offset=".14" stop-color="#ff78f1"/><stop offset=".299" stop-color="#c199f2"/><stop offset=".489" stop-color="#7dbdf4"/><stop offset=".661" stop-color="#47d9f5"/><stop offset=".809" stop-color="#20eef6"/><stop offset=".927" stop-color="#09faf7"/><stop offset="1" stop-color="#00fff7"/></linearGradient><linearGradient id="G" gradientUnits="userSpaceOnUse"/></defs><circle cx="16.933" cy="16.933" r="16.933" fill="#1b063f" paint-order="fill markers stroke"/><path d="M16.933 0C7.564 0 0 7.564 0 16.933s7.564 16.933 16.933 16.933 16.933-7.564 16.933-16.933S26.303 0 16.933 0zm0 26.045c-4.985 0-9.111-4.04-9.111-9.111 0-4.985 4.04-9.111 9.111-9.111 4.985 0 9.111 4.04 9.111 9.111 0 4.985-4.126 9.111-9.111 9.111z" fill="url(#F)"/><path d="M33.824 16.89v-.257c-.086-4.03-1.543-7.716-3.944-10.546-2.486 2.915-3.944 6.688-3.944 10.803s1.458 7.888 3.944 10.803c2.401-2.915 3.858-6.516 3.944-10.546v-.257z" fill="url(#E)"/><path d="M3.987 6.087C1.586 8.917.129 12.604.043 16.633v.257.257c.086 4.03 1.543 7.717 3.944 10.546 2.486-2.915 3.944-6.688 3.944-10.803S6.388 9.002 3.987 6.087z" fill="url(#D)"/><path d="M27.736 3.944C24.907 1.543 21.22.086 17.191 0h-.257-.257C12.646.086 8.96 1.543 6.13 3.944c2.915 2.486 6.688 3.944 10.803 3.944 4.115-.086 7.888-1.543 10.803-3.944z" fill="url(#C)"/><path d="M6.13 29.923c2.915 2.401 6.688 3.944 10.803 3.944s7.888-1.457 10.803-3.944c-2.915-2.401-6.688-3.944-10.803-3.944S9.045 27.436 6.13 29.923z" fill="url(#B)"/><path d="M16.933 21.092a4.2 4.2 0 1 0 0-8.402 4.2 4.2 0 1 0 0 8.402z" fill="url(#A)"/></svg>