<svg xmlns="http://www.w3.org/2000/svg" width="128" height="128" viewBox="0 0 33.867 33.867" xmlns:v="https://vecta.io/nano"><circle cx="16.933" cy="16.933" r="16.933" fill="#fff" paint-order="stroke fill markers"/><path d="M20.579 13.685c-.358.023-.491.298-.653.577l-.89 1.527-3.877 6.647-1.031 1.769c-.159.277-.335.567-.111.868.234.315.566.228.871.097l1.934-.838 2.725-1.18.648-.281c.163-.071.312-.146.494-.111.16.031.313.124.461.188l.934.413 2.945 1.3 1.055.466c.184.081.374.194.582.162a.57.57 0 0 0 .451-.72c-.06-.211-.22-.414-.328-.604l-.684-1.198-3.987-6.966-.924-1.615c-.145-.247-.275-.521-.615-.5z" fill="#0199f9"/><path d="M13.395 20.182c-.358-.023-.491-.298-.653-.577l-.89-1.527-3.877-6.647-1.031-1.769c-.159-.277-.335-.567-.111-.868.234-.315.566-.228.871-.097l1.934.838 2.725 1.18.648.281c.163.071.312.146.494.111.16-.031.313-.124.461-.188l.934-.413 2.945-1.3L18.9 8.74c.184-.081.374-.194.582-.162a.57.57 0 0 1 .451.72c-.06.211-.22.414-.328.604l-.684 1.198-3.987 6.966-.924 1.615c-.145.247-.275.521-.615.5z" fill="#93c5fe"/></svg>