<svg xmlns="http://www.w3.org/2000/svg" width="128" height="128" viewBox="0 0 33.867 33.867" xmlns:v="https://vecta.io/nano"><circle cx="16.933" cy="16.933" r="16.933" fill="#86ad74"/><path fill="#4f2e4b" fill-rule="evenodd" d="M15.854 6.374c-3.725.524-5.968 2.599-6.109 5.651-.136 2.943 1.362 4.478 6.052 6.201 3.974 1.46 4.798 2.031 4.798 3.326 0 1.617-1.447 2.487-3.621 2.178-1.362-.193-2.044.053-2.395.864-1.369 3.17 5.316 4.08 8.278 1.128 1.767-1.761 2.144-4.73.848-6.672-.956-1.431-2.527-2.433-5.904-3.764-3.88-1.53-4.706-2.306-4.036-3.798.817-1.82 4.274-2.068 6.304-.452l.706.568c1.25 1.021 2.851.257 2.865-1.366.012-1.433-2.266-3.165-4.906-3.73-.545-.117-2.391-.203-2.879-.134M10.798 21.09c-2.136.605-1.73 3.733.484 3.733a1.89 1.89 0 0 0 1.412-3.178c-.435-.481-1.281-.729-1.895-.555"/></svg>