<svg xmlns="http://www.w3.org/2000/svg" width="128" height="128" viewBox="0 0 33.867 33.867" xmlns:v="https://vecta.io/nano"><circle cx="16.933" cy="16.933" r="16.933" fill="#f9df4b" paint-order="stroke fill markers"/><path d="M15.665 3.758c-.274.171-.737.566-1.011.857-.377.394-.668.531-1.08.531-.994 0-2.228.788-2.725 1.748-.257.514-.326 1.971-.086 2.348.103.154-.274.651-1.337 1.714-1.714 1.697-2.502 3.085-3.119 5.501-.326 1.285-.394 2.022-.446 6.118l-.086 4.678h11.156 11.156v-4.336l-.189-5.364c-.566-3.205-1.919-5.604-4.233-7.489-.548-.428-.566-.497-.394-1.011.103-.291.189-.754.189-1.028 0-.566-.497-1.628-.977-2.056-.446-.411-1.491-.823-2.074-.823-.326 0-.668-.189-1.062-.6-.308-.326-.823-.703-1.131-.857-.754-.36-1.919-.326-2.553.069zm2.485 2.005c.685.634 1.645 1.097 2.348 1.097.651 0 1.251.617 1.251 1.32 0 .308-.034.566-.086.566-.034 0-.668-.206-1.405-.446-1.919-.634-4.524-.651-6.478-.017-1.474.48-1.714.428-1.542-.394.137-.583.703-1.028 1.302-1.028.737 0 1.645-.428 2.211-1.028.531-.566 1.148-.857 1.542-.72.137.051.531.343.857.651zm1.902 4.233c1.491.531 3.239 1.782 4.198 2.999l.754 1.097c0 .051-.411 0-.891-.137-2.091-.548-4.918-.925-7.112-.925-2.228 0-5.484.428-7.214.943-.428.137-.823.223-.84.189-.034-.034.291-.531.72-1.097 1.217-1.628 3.102-2.845 5.158-3.376 1.457-.36 3.787-.223 5.227.308zm1.782 5.175l3.067.72c.874.274 1.045.394 1.165.823.069.274.103.531.069.548-.034.034-.857-.086-1.834-.274-4.884-.96-10.299-.925-15.132.086-.651.137-1.217.206-1.268.154s-.017-.308.069-.566c.189-.548 1.028-.857 3.753-1.422 3.616-.754 6.563-.771 10.111-.069zm-.428 3.016c1.508.171 3.17.497 4.421.823l.72.206v1.611 1.628h-9.614-9.631l.137-1.594c.051-.857.171-1.628.223-1.697.154-.137 3.342-.788 4.832-.977 1.645-.206 7.232-.223 8.911 0zm5.141 6.923v.96l-9.545-.051-9.562-.051-.051-.908-.051-.891h9.596 9.614z"/></svg>