<svg xmlns="http://www.w3.org/2000/svg" width="128" height="128" viewBox="0 0 33.867 33.867" xmlns:v="https://vecta.io/nano"><circle cx="16.933" cy="16.933" r="16.933" fill="#fff" paint-order="markers stroke fill"/><path d="M15.988 28.792c-1.983-.181-3.787-1.01-5.227-2.4-1.306-1.261-1.974-2.677-2.228-4.717-.18-1.446-.19-1.697-.189-4.792l.19-4.844c.087-.672.284-1.493.459-1.911.505-1.207 1.172-2.14 2.072-2.896 1.188-.999 2.641-1.721 4.032-2.006 2.043-.417 4.076-.175 5.891.701.314.152 1.196.688 1.257.764a2.63 2.63 0 0 0 .236.187c.351.258 1.352 1.287 1.659 1.704.494.672.844 1.262 1.095 2.093l.165.547h2.239l-4.617 6.027-4.572-6.027h1.124c0-.13-.919-.855-1.39-1.004-.844-.267-1.256-.256-1.687-.174-1.623.307-2.671 1.359-2.902 2.911-.103.693-.101 7.752.002 8.091.142.465.221.639.45.985.856 1.291 2.169 1.862 3.589 1.562 1.192-.252 2.053-.825 2.669-2.127.114-.24.231-.623.231-.623l5.138-.031c-.029.684-.249 1.4-.457 2.042-.739 2.244-2.21 3.989-4.211 4.996-.443.223-.942.418-1.617.631-.319.101-1.274.262-1.859.315-.67.06-.861.06-1.545-.003zm1.928-.676c2.45-.344 4.383-1.476 5.639-3.304.492-.716.988-1.746 1.147-2.385l.133-.534c.045-.182.069-.353.053-.38s-.858-.048-1.99-.048h-1.96l-.176.353c-.325.654-.646 1.078-1.131 1.493-.883.756-2.11 1.133-3.182.979-.855-.123-1.409-.369-2.082-.922-.356-.293-.896-.972-1.113-1.399-.364-.719-.381-.927-.382-4.747-.001-4.202.049-4.8.48-5.642.54-1.055 1.366-1.602 2.719-2.039.316-.102 1.362-.182 1.811-.062 1.323.354 2.095.933 2.719 1.908.261.408.234.44-.37.44-.275 0-.499.018-.499.041l3.299 4.384 3.3-4.364c0-.043-.198-.061-.679-.061-.785 0-.695.065-.945-.683-.411-1.227-1.034-2.237-1.937-3.141-1.236-1.237-2.664-1.952-4.504-2.253-.499-.082-1.962-.081-2.467.001a8.06 8.06 0 0 0-2.648.866c-1.822.936-3.091 2.331-3.644 4.005-.392 1.188-.564 3.131-.563 6.362.002 3.676.249 5.688.862 7.015.891 1.929 2.974 3.513 5.266 4.004.763.163 2.096.215 2.844.11z" paint-order="markers stroke fill"/><path d="M16.143 28.126a7.9 7.9 0 0 1-2.323-.537c-1.115-.447-2.245-1.238-2.993-2.096-1.125-1.29-1.54-2.523-1.773-5.261-.074-.873-.074-5.812 0-6.681.161-1.887.339-2.725.766-3.616.678-1.415 1.893-2.575 3.538-3.381a8.51 8.51 0 0 1 2.008-.698c.502-.111.575-.116 1.66-.117 1.013 0 1.18.01 1.559.092 1.682.366 2.881.979 3.993 2.039.94.897 1.579 1.862 2.008 3.033l.221.604c.12.33.146.341.802.342.318 0 .602.016.632.035.066.042-.178.382-1.741 2.432-1.548 2.031-1.451 1.914-1.537 1.827-.168-.169-3.178-4.229-3.159-4.261.012-.019.206-.034.431-.034.286 0 .434-.018.49-.059.079-.058.079-.063.004-.221-.12-.253-.421-.654-.698-.932-.448-.448-1.063-.802-1.795-1.031-.493-.155-.792-.194-1.475-.194-.534 0-.638.012-.922.107-1.242.417-2.002 1.051-2.535 2.118-.199.398-.312.863-.382 1.578-.077.789-.078 7.202 0 7.727s.199.863.457 1.275c.651 1.036 1.525 1.728 2.513 1.989.429.113 1.247.153 1.683.083 1.398-.226 2.498-1.073 3.233-2.492l.168-.325h1.219l1.943.027c.687.026.725.032.725.111 0 .155-.262 1.093-.402 1.441-.401.995-.998 1.943-1.665 2.645-1.17 1.231-2.672 2-4.593 2.351-.368.067-1.603.114-2.059.078z" stroke="#000" stroke-width=".21" stroke-linejoin="bevel" paint-order="markers stroke fill"/></svg>