<svg xmlns="http://www.w3.org/2000/svg" width="128" height="128" viewBox="0 0 33.867 33.867" xmlns:v="https://vecta.io/nano"><circle cx="16.933" cy="16.933" r="16.933" fill="#fc3f5c" paint-order="fill markers stroke"/><g fill="#fff"><path d="M5.534 12.006h4.134v3.497H5.534zm0 5.087h4.134v4.134H5.534z"/><path d="M8.468 7.013v19.842h5.996v-7.716c1.499 0 2.392-.327 3.37 1.469l3.37 6.247h7.128l-4.872-7.717c-.691-.735-1.499-.735-2.623-1.103 2.247-.368 4.345-1.3 5.074-3.3a5.92 5.92 0 0 0-.802-5.742c-1.183-1.24-2.396-1.983-5.394-1.983zm5.996 4.133h3.932c.947.091 1.67.886 1.67 1.837s-.723 1.747-1.67 1.837h-3.932z"/></g></svg>