<svg xmlns="http://www.w3.org/2000/svg" width="128" height="128" fill-rule="evenodd" xmlns:v="https://vecta.io/nano"><path d="M63.999.544c35.046 0 63.457 28.411 63.457 63.457s-28.411 63.457-63.457 63.457S.544 99.045.544 64.001 28.955.544 63.999.544" fill="#fff"/><path d="M49.335 124.535h29.33q2.139-.517 4.223-1.179H45.114q2.079.663 4.221 1.179m-9.58-3.16h48.489q1.322-.559 2.611-1.179h-53.71q1.29.617 2.611 1.179m-6.395-3.156h61.285q1.008-.571 1.993-1.176H31.37q.985.605 1.994 1.176m-5.008-3.154H99.64l1.635-1.179H26.726l1.635 1.179m-4.137-3.155h79.553q.695-.579 1.373-1.178H22.851l1.373 1.178m-3.514-3.155h86.582q.599-.581 1.184-1.178H19.524l1.185 1.178m-3.04-3.155h92.663l1.032-1.178H16.637q.511.594 1.032 1.178m-2.657-3.153h97.976q.457-.585.903-1.179H14.109q.444.594.903 1.179m-2.317-3.155h102.612q.4-.584.792-1.179H11.902q.383.594.793 1.179m-2.041-3.156h106.692q.353-.582.695-1.178H9.963q.344.594.695 1.178m-1.781-3.15h110.247q.309-.586.604-1.179H8.272q.295.594.605 1.179m-1.553-3.159h113.352l.521-1.178H6.803l.521 1.178m-1.336-3.155h116.024q.23-.586.447-1.178H5.54q.221.593.448 1.178m-1.134-3.155h118.293l.383-1.178H4.487l.383 1.178m-.964-3.153h120.192q.161-.588.309-1.179H3.598q.149.59.308 1.179m-.768-3.155h121.725l.243-1.179H2.896l.243 1.179m-.597-3.156h122.916q.096-.586.18-1.178H2.363q.084.591.179 1.178m-.429-3.154h123.776l.118-1.179H1.994l.119 1.179m-.269-3.155h124.31l.059-1.178H1.788l.057 1.178m-.108-3.155h124.525l.008-.589-.008-.589H1.737L1.729 64l.008.589m.051-3.152h124.425l-.059-1.178H1.844q-.034.589-.057 1.178m.207-3.156h124.012l-.118-1.179H2.113l-.119 1.179m.369-3.155h123.275l-.18-1.179H2.542l-.179 1.179m.533-3.156h122.209l-.243-1.178H3.137l-.243 1.178m.704-3.154h120.809l-.309-1.179H3.906l-.308 1.179m.879-3.155h119.042l-.383-1.178H4.854l-.383 1.178m1.069-3.154h116.92q-.216-.593-.447-1.179H5.988l-.448 1.179m1.263-3.155h114.394l-.521-1.178H7.324l-.521 1.178m1.469-3.154h111.457l-.604-1.179H8.877q-.31.586-.605 1.179m1.691-3.156h108.078l-.695-1.178H10.654l-.695 1.178m1.943-3.154h104.203q-.391-.591-.792-1.178H12.694q-.402.586-.792 1.178m2.207-3.155h99.782q-.444-.594-.903-1.179H15.012q-.459.585-.903 1.179m2.526-3.154h94.728q-.511-.594-1.031-1.178H17.669q-.525.582-1.033 1.178m2.888-3.155h88.952q-.586-.598-1.185-1.178H20.71q-.602.581-1.185 1.178m3.324-3.155h82.3l-1.373-1.178H24.224q-.695.579-1.374 1.178m3.876-3.154h74.548l-1.635-1.179H28.356l-1.634 1.179m4.645-3.155h65.269l-1.993-1.179H33.36l-1.993 1.179m5.778-3.156h53.711q-1.29-.617-2.611-1.178H39.754q-1.322.559-2.609 1.178m7.967-3.153h37.783q-2.083-.663-4.224-1.179H49.334q-2.139.511-4.221 1.179"/><path d="M84.726 33.498s3.875-4.45 3.832-8.608-1.216-10.636-1.216-10.636l-3.666 1.766S75.43 29.11 71.764 30.418s-5.89 1.047-5.89 1.047l.849-3.796-1.373-1.93-3.306-9.557c-.457-1.244-1.894-4.057-3.532-3.538s-5.365 6.153-5.365 6.153-5.634 13.878-5.435 19.048-4.124-1.309-8.967 7.722-5.893 12.826-7.536 14.397-5.824 6.02-7.919 10.798S8.703 83.001 8.703 83.001s14.069 30.237 19.37 32.986 29.45 13.09 36.192 8.313 5.563-8.443 5.563-8.443l6.02-18.911c.851-2.876 3.861-15.772 3.861-15.772s3.142-10.014 3.665-10.346 4.087-.409 5.237-.663 1.465-.848 1.979-1.353l-.534-1.916 1.308-6.386 3.501-1.309s2.028-.312 2.143-1.081.082-1.654-.295-2.044-1.427-1.597-1.427-1.597l-3.257-2.194c-.393-.278-4.63-2.487-5.382-4.615s-.046-2.583-.046-2.583.713-1.378 1.95-.068c0 0 1.143-.653 1.022-1.99s-1.212-3.69-1.703-4.508-5.988-4.745-5.988-4.745z" fill="#fff"/><path d="M72.533 43.447c.255.096.752.383 1.224 1.235.685 1.238-1.128 1.459-2.124 1.277s-1.814-.708-1.991-1.417c-.128-.525.457-.977 1.484-1.121-.24.305-.254.73-.034 1.05s.622.459.993.343.622-.459.622-.847c0-.189-.061-.373-.172-.526M60.302 31.383c-3.23-1.902-2.456-5.308-2.456-5.308.359.545.888.957 1.505 1.171-2.876-2.83-.443-8.228-2.124-6.724s-2.523 4.598-2.523 4.598c-.309-.797-.22-2.299-.22-2.299-1.639 4.38.485 8.783.485 8.783-1.105.575-2.079 2.123-2.079 2.123s1.991-1.327 3.187-1.372 1.547 2.523 1.547 2.523c-2.83 1.061-8.493 5.971-8.493 5.971.442-1.681 1.724-3.362 1.724-3.362-2.829-2.873-.619-8.757-.619-8.757.752 2.035 2.832 3.449 2.832 3.449-4.598-7.609 4.114-18.757 4.822-17.872s1.022 3.008 1.022 3.008l.309-3.576c2.299.929 3.008 6.724 4.159 9.379s2.171 3.671 2.171 3.671-3.656 1.321-5.248 4.594zm36.075 27.044c-1.712-2.153-5.161-.916-5.161-.916s3.805-2.889 5.161.916zm-9.371-1.257c.179 1.636.686 3.794.332 4.9a1.98 1.98 0 0 1 1.227-.475c.797-.045 1.857 1.687.708 2.661s-8.685 5.522-14.62.213-7.653-4.955-8.006-3.797.708.84 1.788 1.194 2.976.829 5.72 2.776c6.347 4.504 10.829 2.764 15.04 4.358 1.637.619 1.77-1.022 2.081-1.814s1.238.443 1.636-1.372 1.063-2.787 2.171-3.405-.028-1.39-.36-1.544 1.66.383 2.353-1.133c2.512-5.506-7.353-8.615-9.567-10.945-.526-.554.457-1.562.128-2.845a7.51 7.51 0 0 0-.349-1.059c.298-.571 1.253.142 1.253.142-.885-1.371-1.759-1.133-1.759-1.133.073-.399.485-1.15.485-1.15-2.026.704-2.005 3.097-2.005 3.097-1.18-.709-2.005-2.065-2.005-2.065 1.878 6.45 12.284 10.365 13.198 12.577h0c-2.675-2.457-9.835-2.714-9.449.819zm-44.239 63.412c.846-1.733 2.555-5.791 1.945-9.231 0 0-1.681 4.335-6.991 5.928 0 0 1.903-1.107 3.053-3.186a14.8 14.8 0 0 1-5.707 2.609c0 0 2.345-1.277 3.76-3.672 0 0-1.503 1.305-5.087 2.013 0 0 2.39-1.505 3.627-3.405 0 0-2.256.972-4.598 1.238 0 0 2.344-1.327 3.229-2.699 0 0-1.46.797-3.717 1.196 0 0 1.277-.709 1.903-1.726 0 0-1.903 1.15-3.141 1.636-.462.181-1.079 1.036-1.614 2.272 4.134 2.891 8.615 5.252 13.337 7.026zm12.932 3.274c-4.317-.594-8.557-1.656-12.645-3.166 3.382-3.845 3.694-9.514 3.694-9.514.796 2.171.178 4.556.178 4.556 2.654-1.15 2.92-2.345 2.92-2.345.706 1.277.972 3.539.972 3.539 1.417-1.77 1.46-3.321 1.46-3.321 1.417 1.77 1.991 4.204 1.991 4.204 1.15-2.39.797-4.514.797-4.514 1.061.754 4.158 1.593 4.158 1.593-6.104-3.539-7.919-7.365-7.919-7.365.842 2.427 2.611 4.202 2.611 4.202-7.431-5.748-8.627-13.271-8.627-13.271-.354 2.875.442 4.956.442 4.956-3.051-3.193-2.653-7.831-2.653-7.831-.581 1.246-.691 2.66-.31 3.981-4.069-5.22-1.194-10.618-1.194-10.618-1.105.222-1.726 1.239-1.726 1.239 2.875-6.061 6.77-2.035 7.167.973s-.619 4.69-.619 4.69c1.256-.54 2.342-1.412 3.141-2.521 1.328 5.927 6.282 7.343 6.282 7.343-2.742-2.171-2.83-4.533-2.83-4.533.952 1.533 2.985 2.1 2.985 2.1-1.703-.992-1.943-3.027-1.943-3.027.729 1.261 2.81 2.123 2.81 2.123-.907-.839-1.04-2.367-1.04-2.367.929 1.239 2.654 1.373 2.654 1.373-1.15-.797-1.503-2.434-1.503-2.434.972 1.15 2.698 1.548 2.698 1.548-1.947-1.681-1.46-4.158-1.46-4.158.709 1.415 2.344 1.902 2.344 1.902-1.415-1.46-1.193-3.716-1.193-3.716.972 1.061 1.99 1.277 1.99 1.277-2.433-2.477-1.415-6.635-.043-6.192s3.251.442 3.251.442c-3.096-1.947-3.251-5.973-3.251-5.973.972.797 3.008 1.593 3.008 1.593-1.726-1.277-3.053-4.556-3.053-4.556 1.46.84 3.362 1.105 3.362 1.105-7.255-4.511-10.617-12.74-10.617-12.74a6.18 6.18 0 0 0 .399 1.947c-2.478-2.655-1.417-7.61-1.417-7.61-.884.399-1.415 1.373-1.415 1.373.089-3.449 1.394-6.414 1.394-6.414a10.22 10.22 0 0 0-1.571 1.105c.347-1.397.98-2.708 1.858-3.848-.722.182-1.414.465-2.056.84 3.184-4.578 7.652-6.149 7.652-6.149-.31.929-.575 2.876-.575 2.876 1.194-2.787 2.477-3.629 3.65-3.783s2.1.93 2.1.93c.93-3.407 3.164-3.496 3.164-3.496a1.83 1.83 0 0 0 .022.975c2.427-2.655 5.973-.975 3.229-.487s-4.29 2.543-4.29 2.543c2.521-.397 3.407.752 4.556 1.947s3.27 1.201 3.27 1.201c-.929.796-2.653 1.238-2.653 1.238 3.848.929 5.573-.708 5.573-.708a6.74 6.74 0 0 1-.376 1.372c3.141-1.902 2.92-6.68 2.92-6.68-.331.995-.946 1.872-1.77 2.521.156-.708-.128-1.548-.128-1.548-.101.449-.297.872-.575 1.239-.639-2.5-2.41-4.225-2.41-4.225a10.91 10.91 0 0 1 .264 1.084c-1.593-1.35-2.344-2.654-2.344-2.654.354.041.713.019 1.06-.065-.686-.244-1.326-1.063-1.326-1.063 1.061.487 2.653.266 2.653.266-1.194-.752-1.591-3.274-1.591-3.274 1.549 1.15 4.202 1.548 4.202 1.548-2.299-2.92-2.654-6.813-2.654-6.813 4.424 2.345 6.989 6.813 6.989 6.813 3.449-.442 4.47 1.814 4.47 1.814-.124-.753-.412-1.469-.842-2.1 3.584 2.254 4.16 5.882 4.16 5.882-.267-7.343-6.328-8.803-5.177-11.496s1.194-6.131 1.194-6.131c.377.552.465 1.902.465 1.902.663-3.141.045-7.167-1.106-6.105s-3.407 4.29-3.407 4.29c.885-.331 1.749.089 1.749.089-1.107.399-1.417.962-1.417.962.828-.198 1.847-.055 1.492 1.095a3.8 3.8 0 0 1-1.115 1.743c-1.947-.354-2.102-2.721-2.102-2.721-2.699.531-1.815-1.305-.619-2.938s6.554-10.994 7.567-8.519 1.46 9.688 1.46 9.688c1.451-15.484-2.09-13.097-4.299-11.151s-5.199 7.743-6.968 9.246-2.013 3.385-4.866 3.251-4.38.023-4.38.023c-1.061-1.277-1.814-1.35-1.814-1.35.376.598.465 1.616.465 1.616-2.566-2.171-2.92-11.414-6.194-14.156s-5.398 1.15-8.14 5.928-6.547 18.669-6.547 18.669c-9.024 5.57-14.781 20.703-14.781 20.703-4.247 2.389-5.222 6.016-5.222 6.016-7.424 2.655-8.752 11.768-8.752 11.768s-4.26 3.143-11.027 5.657c-1.636-5.555-2.465-11.316-2.461-17.107 0-33.37 27.053-60.424 60.423-60.424s60.422 27.053 60.422 60.423c0 31.549-24.188 57.453-55.034 60.18.365-1.069.742-.174.464-2.81s2.091-5.462 4.215-10.888c3.576-9.13 5.472-21.913 7.986-31.71.571-2.224.229-7.408 3.15-7.784 1.608-.206 3.405-.826 3.405-.826-8.199.059-14.332-2.537-14.332-2.537s4.532 3.229 8.302 3.553c-1.562.973-1.976 5.693-4.1 7.108s-1.533 5.072-2.359 5.957c-4.409 4.726-.317-.052-.826 6.577-.088 1.15-1.327 3.598-4.307 3.332s-4.362 1.898-4.362 1.898c1.503-.678 3.391-.207 3.391-.207-5.426 1.417-3.57 6.695-3.57 6.695-1.267-.531-1.208-2.035-1.208-2.035-.589 2.005.059 3.421 2.478 3.065s2.83-2.36 2.83-2.36c.561.797.531 1.858.531 1.858.88-1.07 1.825-2.634 2.778-4.485-1.505 10.539-5.518 25.093-18.153 25.271zM32.783 60.758c-12.607 7.091 10.218 14.056 4.541 8.106-4.284-4.488-2.984-8.685-4.541-8.104zm3.74-6.687c-.328 4.495 4.399 9.963 3.809 2.348-.429-5.538 9.61-28.879-3.809-2.346zM63.999 0C99.347 0 128 28.653 128 64.001S99.347 128 63.999 128 0 99.347 0 64.001 28.653 0 63.999 0z"/></svg>