<svg xmlns="http://www.w3.org/2000/svg" width="128" height="128" viewBox="0 0 33.867 33.867" xmlns:v="https://vecta.io/nano"><defs><filter id="A" x="-.795" y="-.816" width="2.591" height="2.632" color-interpolation-filters="sRGB"><feGaussianBlur stdDeviation="5.758"/></filter><linearGradient id="B" x1="5.938" y1="4.056" x2="29.222" y2="15.84" gradientUnits="userSpaceOnUse"><stop offset="0" stop-color="#86ed00"/><stop offset=".644" stop-color="#af8bde"/></linearGradient><clipPath id="C"><circle cx="16.933" cy="16.933" r="16.933" opacity="1" fill="none" stroke-width=".265" stroke-linecap="round" stroke-linejoin="round"/></clipPath></defs><circle cx="16.933" cy="16.933" r="16.933"/><path d="M16.064 29.896s1.225-.674 4.278-9.421l2.016-5.841c0-.036-.669-.066-1.487-.066s-1.487.019-1.487.042c0 .038-1.843 6.646-2.157 7.73-.074.256-.155.446-.18.421s-.585-1.869-1.244-4.097l-1.199-4.052-1.548-.024c-.95-.015-1.548.009-1.548.06 0 .046.911 2.675 2.024 5.843l2.024 5.758-.152.437c-.327.94-.696 1.18-1.818 1.181h-.591v1.147 1.148h1.291l1.291-.039c.226-.079.327-.107.487-.229zm2.678-16.836c1.064-2.233 2.049-3.943 2.992-5.195l.272-.361-.931.201-1.99.345-1.326.182-.268.038-.151 3.521-.198 4.265-.047.744.568-1.335 1.078-2.405zm-1.722-.45l.175-3.989v-.323l-1.334.036c-.734.02-1.708 0-2.166-.045s-.845-.07-.862-.056.085.194.227.402c1.375 2.02 3.002 5.39 3.541 7.334.115.415.208.632.221.513.012-.114.1-1.856.197-3.872zm.056-4.481l.187-.05.057-1.764.103-2.114.046-.35-.371.612c-.985 1.625-2.223 2.806-3.58 3.412l-.391.175.481.051c.651.069 3.235.09 3.468.027zm2.132-.35l1.732-.314.901-.189-.463-.145c-1.377-.43-2.542-1.43-3.318-2.847l-.317-.579-.052.554-.11 2.151-.057 1.597.427-.052 1.258-.176z" fill="#fff"/><ellipse cy="7.142" cx="20.197" rx="8.688" ry="8.467" clip-path="url(#C)" fill="url(#B)" filter="url(#A)"/></svg>