<?xml version="1.0" encoding="UTF-8" standalone="no"?>
<!-- Generator: Adobe Illustrator 27.0.1, SVG Export Plug-In . SVG Version: 6.00 Build 0)  -->

<svg
   version="1.1"
   id="katman_1"
   x="0px"
   y="0px"
   viewBox="0 0 128 128"
   xml:space="preserve"
   sodipodi:docname="COINLOGO-FLARE_Circle.svg"
   width="128"
   height="128"
   inkscape:export-filename="..\..\..\..\..\..\..\Users\llcry\Downloads\Networks\Tokens_128x128\pfl.png"
   inkscape:export-xdpi="96"
   inkscape:export-ydpi="96"
   xmlns:inkscape="http://www.inkscape.org/namespaces/inkscape"
   xmlns:sodipodi="http://sodipodi.sourceforge.net/DTD/sodipodi-0.dtd"
   xmlns="http://www.w3.org/2000/svg"
   xmlns:svg="http://www.w3.org/2000/svg"><defs
   id="defs55" /><sodipodi:namedview
   id="namedview53"
   pagecolor="#ffffff"
   bordercolor="#000000"
   borderopacity="0.25"
   inkscape:showpageshadow="2"
   inkscape:pageopacity="0.0"
   inkscape:pagecheckerboard="0"
   inkscape:deskcolor="#d1d1d1"
   showgrid="false" />
<style
   type="text/css"
   id="style2">
	.st0{fill:#FFC800;}
	.st1{fill:#E1AA00;}
	.st2{fill:#E61E57;}
	.st3{fill:#FFFFFF;}
</style>
<g
   id="g50"
   transform="scale(0.11851852)">
	<polygon
   class="st0"
   points="521.6,466.4 521.6,466.2 521.6,362 358.8,243.6 331.3,327.9 "
   id="polygon4" />
	<polygon
   class="st0"
   points="721.1,243.8 558.3,362 558.3,466.2 748.5,328.3 "
   id="polygon6" />
	<polygon
   class="st0"
   points="521.6,789.1 521.6,511.8 352.3,634.6 331.8,649.6 331.3,650.8 "
   id="polygon8" />
	<polygon
   class="st0"
   points="558.3,511.8 558.3,789.1 748.5,650.9 748,649.6 727.3,634.6 558.3,511.6 "
   id="polygon10" />
	<path
   class="st0"
   d="m 942.7,369.8 c -18.1,-43 -43,-82.6 -73.7,-117.6 -2.5,-2.9 -5.1,-5.6 -7.7,-8.4 -4,-4.3 -8.1,-8.6 -12.3,-12.8 C 678.6,60.1 402,60 231.2,230.4 c -0.2,0.2 -0.3,0.3 -0.3,0.3 -4.2,4.2 -8.1,8.4 -12.1,12.8 -2.5,2.8 -4.9,5.4 -7.4,8.3 -159,181.5 -140.7,457.7 40.7,616.8 181.4,159.1 457.7,140.7 616.8,-40.7 110.3,-126.1 139,-303.8 73.8,-458.1 z M 687.6,873.7 748.5,829.5 713.2,720.8 579,818.2 558,833.4 v 71.1 c -6,0.3 -12.1,0.5 -18.2,0.5 -6.1,0 -12.3,-0.2 -18.4,-0.5 v -71.1 l -0.2,0.2 -21,-15.3 -133.5,-97.4 -35.4,108.6 61.2,44.6 c -128,-56.8 -217.3,-184.9 -217.3,-334 0,-15.3 0.9,-30.7 2.9,-46 L 331.6,605.7 492.3,489.2 310.4,356.9 l -21,-15.3 8.1,-24.9 21.9,-67.4 c 130.5,-99.1 310.9,-99.1 441.4,0 l 21.9,67.9 7.9,24.9 -21.2,15.3 L 588.1,489 748.5,605.7 902.1,494.3 c 1.8,15.2 2.9,30.5 2.8,45.8 -0.1,148.9 -89.3,277 -217.3,333.6 z"
   id="path12" />
	<path
   class="st1"
   d="m 540,121.5 c 231.2,0 418.6,187.4 418.6,418.6 0,231.2 -187.4,418.5 -418.6,418.5 -231.2,0 -418.5,-187.5 -418.5,-418.6 0,-111 44,-217.4 122.5,-295.9 78.3,-78.8 184.8,-123 296,-122.6 m 0,-23.2 C 296,98.3 98.3,296 98.3,540 98.3,784 296,981.7 540,981.7 784,981.7 981.7,784 981.7,540 981.7,296 783.9,98.3 540,98.3 Z"
   id="path14" />
	<path
   class="st1"
   d="m 743.6,814.6 -56,59.2 c 0,0 46.9,-20 76.7,-46 l -15.8,1.8 z"
   id="path16" />
	<path
   class="st1"
   d="m 336.4,814.6 56,59.2 c 0,0 -46.9,-20 -76.7,-46 l 15.8,1.8 z"
   id="path18" />
	<path
   class="st1"
   d="m 331.3,605.6 -146,-180.5 c 0,0 -4.6,17.5 -7.5,68.6 z"
   id="path20" />
	<path
   class="st1"
   d="m 748.6,605.6 146,-180.3 c 0,0 4.6,17.5 7.5,68.6 z"
   id="path22" />
	<polygon
   class="st1"
   points="521.6,789.1 331.3,650.8 521.6,733.2 "
   id="polygon24" />
	<polygon
   class="st1"
   points="558.3,789.1 748.6,650.8 558.3,733.2 "
   id="polygon26" />
	<polygon
   class="st1"
   points="521.6,466.4 521.6,430.2 331.3,327.9 "
   id="polygon28" />
	<polygon
   class="st1"
   points="558.3,466.4 558.3,430.2 748.6,327.9 "
   id="polygon30" />
	<circle
   class="st1"
   cx="760.90002"
   cy="760.90002"
   r="220.89999"
   id="circle32" />
	<g
   id="g38">
		<g
   id="g36">
			<g
   id="g34">
			</g>
		</g>
	</g>
	<circle
   class="st2"
   cx="760.90002"
   cy="760.90002"
   r="181.2"
   id="circle40" />
	<g
   id="g48">
		<path
   class="st3"
   d="m 806.3,737.8 -92,-0.1 c -25.1,0 -45.9,19.8 -46.6,45.3 0,0.7 0.5,1.2 1.2,1.2 l 92,0.1 v 0 c 25.1,0 45.9,-19.8 46.6,-45.3 0,-0.6 -0.6,-1.2 -1.2,-1.2 z"
   id="path42" />
		<path
   class="st3"
   d="m 852.9,668 -138.6,-0.1 c -25.1,0 -45.9,19.8 -46.6,45.3 0,0.7 0.5,1.2 1.2,1.2 l 138.6,0.1 v 0 c 25.1,0 45.9,-19.8 46.6,-45.3 0,-0.6 -0.5,-1.2 -1.2,-1.2 z"
   id="path44" />
		
			<circle
   transform="matrix(0.9487,-0.3162,0.3162,0.9487,-227.1896,261.1398)"
   class="st3"
   cx="691"
   cy="830.59998"
   id="ellipse46"
   r="23.299999" />
	</g>
</g>
</svg>
