<svg xmlns="http://www.w3.org/2000/svg" width="128" height="128" xmlns:v="https://vecta.io/nano"><g transform="scale(.11851852)"><path d="M521.6 466.4v-.2V362L358.8 243.6l-27.5 84.3zm199.5-222.6L558.3 362v104.2l190.2-137.9zM521.6 789.1V511.8L352.3 634.6l-20.5 15-.5 1.2zm36.7-277.3v277.3l190.2-138.2-.5-1.3-20.7-15-169-123zm384.4-142c-18.1-43-43-82.6-73.7-117.6-2.5-2.9-5.1-5.6-7.7-8.4-4-4.3-8.1-8.6-12.3-12.8-170.4-170.9-447-171-617.8-.6l-.3.3c-4.2 4.2-8.1 8.4-12.1 12.8l-7.4 8.3c-159 181.5-140.7 457.7 40.7 616.8s457.7 140.7 616.8-40.7c110.3-126.1 139-303.8 73.8-458.1zM687.6 873.7l60.9-44.2-35.3-108.7L579 818.2l-21 15.2v71.1c-6 .3-12.1.5-18.2.5s-12.3-.2-18.4-.5v-71.1l-.2.2-21-15.3-133.5-97.4-35.4 108.6 61.2 44.6c-128-56.8-217.3-184.9-217.3-334 0-15.3.9-30.7 2.9-46l153.5 111.6 160.7-116.5-181.9-132.3-21-15.3 8.1-24.9 21.9-67.4c130.5-99.1 310.9-99.1 441.4 0l21.9 67.9 7.9 24.9-21.2 15.3L588.1 489l160.4 116.7 153.6-111.4c1.8 15.2 2.9 30.5 2.8 45.8-.1 148.9-89.3 277-217.3 333.6z" fill="#ffc800"/><g fill="#e1aa00"><path d="M540 121.5c231.2 0 418.6 187.4 418.6 418.6S771.2 958.6 540 958.6 121.5 771.1 121.5 540c0-111 44-217.4 122.5-295.9 78.3-78.8 184.8-123 296-122.6m0-23.2C296 98.3 98.3 296 98.3 540S296 981.7 540 981.7 981.7 784 981.7 540 783.9 98.3 540 98.3zm203.6 716.3l-56 59.2s46.9-20 76.7-46l-15.8 1.8zm-407.2 0l56 59.2s-46.9-20-76.7-46l15.8 1.8zm-5.1-209l-146-180.5s-4.6 17.5-7.5 68.6zm417.3 0l146-180.3s4.6 17.5 7.5 68.6zm-227 183.5L331.3 650.8l190.3 82.4zm36.7 0l190.3-138.3-190.3 82.4zm-36.7-322.7v-36.2L331.3 327.9zm36.7 0v-36.2l190.3-102.3z"/><circle cx="760.9" cy="760.9" r="220.9"/></g><circle cx="760.9" cy="760.9" r="181.2" fill="#e61e57"/><g fill="#fff"><path d="M806.3 737.8l-92-.1c-25.1 0-45.9 19.8-46.6 45.3 0 .7.5 1.2 1.2 1.2l92 .1h0c25.1 0 45.9-19.8 46.6-45.3 0-.6-.6-1.2-1.2-1.2zm46.6-69.8l-138.6-.1c-25.1 0-45.9 19.8-46.6 45.3 0 .7.5 1.2 1.2 1.2l138.6.1h0c25.1 0 45.9-19.8 46.6-45.3 0-.6-.5-1.2-1.2-1.2z"/><circle transform="matrix(.9487 -.3162 .3162 .9487 -227.1896 261.1398)" cx="691" cy="830.6" r="23.3"/></g></g></svg>