<svg xmlns="http://www.w3.org/2000/svg" width="128" height="128" viewBox="0 0 33.867 33.867" xmlns:v="https://vecta.io/nano"><circle cx="16.933" cy="16.933" r="16.933" fill="#4446ef" paint-order="fill markers stroke"/><path d="M16.933 30.162h-.01a.59.59 0 0 1-.314-.088l-4.135-2.087c-.161-.081-.284-.222-.343-.392-.062-.177-.048-.373.039-.539.076-.167.218-.295.392-.353s.374-.041.539.049l3.136 1.587v-3.743c0-.392.304-.696.696-.696a.67.67 0 0 1 .686.686v3.753l3.155-1.587c.342-.166.753-.031.931.304a.7.7 0 0 1-.304.931l-4.135 2.087c-.101.059-.216.09-.333.088zm6.918-3.479c-.266-.002-.509-.153-.627-.392-.166-.342-.031-.753.304-.931l2.92-1.47-2.92-1.46c-.164-.079-.291-.22-.353-.392-.059-.179-.042-.374.049-.539.076-.167.218-.295.392-.353s.374-.041.539.049l3.155 1.568v-3.743a.67.67 0 0 1 .686-.686.67.67 0 0 1 .686.686v4.86c.01.098 0 .196-.049.294l-.029.039a.62.62 0 0 1-.294.294l-4.155 2.087a.59.59 0 0 1-.304.088zm-13.837 0c-.105-.002-.208-.025-.304-.069l-4.135-2.087c-.13-.064-.236-.166-.304-.294l-.029-.049c-.045-.091-.069-.192-.069-.294v-4.87c0-.392.304-.686.686-.686.392 0 .696.294.696.686v3.743l3.155-1.587c.344-.164.756-.025.931.314.167.343.02.764-.304.931l-2.92 1.47 2.92 1.47c.161.081.284.222.343.392.062.177.048.373-.039.539-.115.242-.36.395-.627.392zm6.918-6.272c-.183.001-.358-.07-.49-.196s-.199-.307-.196-.49v-3.753l-3.773-1.891c-.437-.224-.517-.814-.157-1.147.208-.192.515-.231.764-.098l3.851 1.921 3.841-1.93c.342-.166.753-.031.931.304a.7.7 0 0 1-.304.931l-3.773 1.911v3.743c.007.285-.166.544-.431.647-.084.033-.174.05-.265.049zm11.073-4.87c-.187 0-.367-.074-.5-.206s-.199-.307-.196-.49v-3.743l-3.155 1.587c-.344.17-.76.03-.931-.314-.166-.342-.031-.753.304-.931l2.92-1.47-2.92-1.45c-.165-.086-.288-.234-.343-.412s-.045-.365.039-.529c.186-.343.588-.49.931-.294l4.135 2.077c.13.064.236.166.304.294l.029.039a.49.49 0 0 1 .069.284v4.86c.005.183-.066.361-.196.49s-.307.199-.49.196zm-22.147 0c-.184-.002-.36-.076-.49-.206s-.199-.307-.196-.49v-4.87c0-.098.01-.196.059-.294l.029-.039c.061-.129.165-.233.294-.294l4.155-2.087c.341-.171.756-.036.931.304a.71.71 0 0 1-.304.931l-2.92 1.48 2.92 1.46c.161.081.284.222.343.392.062.177.048.373-.039.539-.186.343-.598.49-.931.323l-3.155-1.587v3.743c.004.183-.067.36-.196.49s-.307.199-.49.196zm11.073-5.576c-.282-.001-.537-.171-.647-.431-.034-.084-.051-.174-.049-.265V5.527l-3.155 1.587c-.344.162-.754.018-.921-.323s-.025-.756.314-.931l4.135-2.087a.67.67 0 0 1 .314-.069h.01c.107.001.212.031.304.088l4.145 2.087c.161.08.285.221.343.392.061.177.047.372-.039.539-.076.167-.218.295-.392.353s-.374.041-.539-.049l-3.136-1.587V9.27c.007.285-.166.544-.431.647a.7.7 0 0 1-.265.049z" fill="#fff"/></svg>