<svg xmlns="http://www.w3.org/2000/svg" xmlns:xlink="http://www.w3.org/1999/xlink" width="128" height="128" viewBox="0 0 33.867 33.867" xmlns:v="https://vecta.io/nano"><style><![CDATA[.B{stroke:#362745}.C{stroke-miterlimit:10}.D{fill:#6b00fa}.E{stroke-width:.373}.F{fill:#4300bf}.G{fill:#100342}.H{fill:#362745}.I{fill:#e0e3bd}]]></style><circle cx="16.933" cy="16.933" r="16.933" fill="#16072b" paint-order="stroke fill markers"/><g class="B C E"><path d="M9.636 22.019l.244-4.347.342-2.374c.091-1.085-.021-2.17-.049-3.262-.007-.319-.042-.637.042-.956.042-.163.105-.332.279-.366.3-.068.216-.231.154-.407l-.209-.583c-.419-.997-.063-1.892.447-2.733.433-.719.998-1.363 1.591-1.967.663-.678 1.486-1.017 2.456-1.031l.551-.02.279-.014c.084-.007.174 0 .258-.014l.084-.02c.049 0 .098.014.14.014l.307.047.607.109 1.2.271c.216.054.433.115.635.217.37.197.635.529.991.746.244.149.516.237.74.414.251.197.412.475.565.753.167.298.335.597.447.922l.077.251c.084.346.126.699.167 1.051.042.346.091.698.209 1.031.028.081.063.163.098.244.014.034.035.068.042.102l-.007.142-.119 3.066-.342 4.958c-.035.292.007.576.077.855.202.827.265 1.655.14 2.509-.105.719-.105 1.458-.154 2.191-.021.326-.202.461-.53.468-.384.007-.733-.149-1.117-.156-.537-.014-1.054.109-1.577.163-.879.081-1.731-.075-2.596-.176-.154-.014-.3-.081-.454-.075h-.475c-.077-.007-.154-.007-.23-.027-.049-.014-.084-.034-.133-.041l-.628-.034-.628-.027-1.263-.047-1.263-.041c-.105 0-.209-.007-.314-.007-.098 0-.209-.02-.307-.007-.028.007-.056.02-.077.027-.098.027-.216.014-.314-.007-.307-.081-.384-.4-.391-.671-.007-.183.014-.366.021-.549-.014-.183-.014-.366-.014-.59z" class="D"/><path d="M22.511 27.709c-.056.353-.007.753-.112 1.133-.042.149-.077.292-.244.353-.16.054-.272-.014-.349-.149-.056-.095-.154-.088-.251-.095l-2.359-.136-8.074-.407-2.261-.095c-.202-.014-.607 0-.656-.265-.014-.081-.063-.149-.084-.231-.049-.17-.056-.353-.056-.529l-.035-1.228-.007-.203c0-.047-.014-.075-.035-.109-.049-.102-.007-.217.063-.298.091-.109.216-.156.349-.102.433.156.886.122 1.326.149l6.211.298 5.646.278c.649.034.9.292.9.929l.028.705z" class="F"/><path d="M16.503 24.081l-1.905-.136-1.2-.203c-.433-.054-.879-.061-1.312-.068-.663-.014-1.34-.02-1.982.136s-1.27.502-1.612 1.058c.607.434 1.403.488 2.156.529l1.382.075c3.399.183 6.797.366 10.196.373l-.321-.943c-.098-.278-.237-.604-.572-.671-.112-.02-.223 0-.335.007-.195 0-.398-.014-.593-.02l-2.498-.088-1.403-.047z" class="D"/><path d="M24.228 23.511c.105-.054.223-.109.286-.203s.07-.21.077-.319l.084-1.336.056-1.506-.028-1.417c.028-.434.119-.861.167-1.295.174-1.533-.195-3.079-.126-4.619l.153-1.716c.105-1.553-.174-3.133-.802-4.564-.056-.122-.112-.244-.216-.326-.14-.109-.328-.122-.482-.21-.216-.129-.3-.387-.419-.61-.293-.556-.851-.936-1.458-1.146s-1.249-.271-1.884-.332l-1.34-.129c-.216-.02-.53.047-.495.258.642.468 1.382.807 2.059 1.228s1.319.956 1.64 1.675c.14.305.209.638.279.97.209.949.412 1.899.461 2.869.035.705-.014 1.417-.063 2.13l-.147 2.794-.084 2.794-.021 2.794.014 1.397.014.699c.007.217-.014.454.014.678.049.332.433.285.67.183l1.284-.604c.077-.027.23-.136.307-.136z" class="F"/><g class="G"><path d="M22.406 25.763c.028.047.063.102.119.102.035 0 .07-.02.098-.034.321-.21.586-.495.935-.651.237-.109.495-.149.74-.231.349-.115.663-.312.977-.502.112-.068.237-.17.216-.298-.007-.047-.035-.088-.063-.122-.174-.231-.384-.427-.621-.59-.049-.034-.098-.061-.154-.068-.07-.007-.14.027-.202.054l-1.514.739-.754.373c-.209.102-.384.176-.244.421l.468.807z"/><path d="M22.63 28.679c.007.047.014.102.042.136.077.081.209.034.307-.02l2.533-1.384c.084-.047.174-.095.23-.176.056-.088.063-.197.07-.298l.077-1.655c.007-.156.007-.326-.084-.448-.098-.136-.286-.176-.454-.156s-.321.102-.468.183l-2.031 1.085c-.223.122-.495.203-.475.488.021.332.077.665.112.99l.07.624c.021.21.07.427.07.631z"/></g></g><path d="M18.806 7.397c.133.109.119.332-.021.434s-.363.034-.426-.122.056-.353.223-.38c.077-.007.16.014.223.068zm1.13.956c-.007.034-.014.061-.014.095.007.061.049.109.105.129.147.075.363-.034.384-.197.014-.163-.167-.319-.328-.271-.014-.007-.035.007-.042.02-.063.075-.077.142-.105.224zm-.691.956h-.307c-.028 0-.056 0-.077.02-.014.014-.014.034-.021.054a2.73 2.73 0 0 0-.028.237c-.007.095-.007.217.077.265.056.027.119.02.174.034.049.014.091.041.14.034.098 0 .16-.102.181-.197.021-.102.028-.203-.021-.298s-.147-.163-.251-.149" class="F"/><path d="M23.956 12.259c-.07-.068-.154-.061-.244-.034-.084.027-.133.109-.126.19 0 .068.049.136.098.183.077.075.216.007.272-.061.07-.068.07-.197 0-.278zm-.489 1.14c-.007-.041-.035-.109-.07-.142-.042-.041-.126-.02-.174 0a.46.46 0 0 0-.119.081c-.014.014-.028.02-.035.041-.021.034-.028.068-.035.109 0 .02-.021.115 0 .129a.32.32 0 0 0 .293.027c.084-.047.154-.149.14-.244z" class="D"/><path d="M11.443 21.971c-.133 0-.258.061-.321.17s-.042.265.056.346c.105.088.447.081.544-.007s-.035-.244-.091-.373l-.265-.136m-.53-2.244c-.042.109-.077.217-.098.332-.007.02-.007.047.007.068.021.034.063.041.105.047.105.007.223.007.286-.068a.18.18 0 0 0 .042-.081c.035-.109.014-.237-.084-.298s-.251-.027-.272.081m1.57 1.031c-.014-.034-.042-.088-.077-.102-.021-.007-.056 0-.084 0h-.077c-.021 0-.042 0-.056.007-.028.014-.056.054-.077.075-.014.007-.021.014-.028.027-.021.034-.028.081-.028.122 0 .014 0 .122.014.122.07.014.314.034.384.047.042.007-.077.02-.042-.007.014-.014.028-.027.042-.047.035-.081.056-.17.028-.244z" class="F"/><path d="M19.231 28.123c.133.095.349.068.44-.068.07-.102.056-.231.035-.353-.007-.034-.014-.068-.035-.088s-.056-.027-.091-.027c-.098-.014-.181-.007-.279-.007h-.042c-.035.014-.07.041-.098.068-.07.068-.098.149-.077.244.021.088.07.176.147.231zm-.886-1.323c-.098.041-.147.156-.112.251a.38.38 0 0 0 .202.095c.076.007.161-.041.174-.115.014-.061-.021-.115-.056-.17s-.077-.109-.14-.129c-.063-.014-.147.041-.119.102m4.943-4.741c-.112-.034-.237.014-.314.095-.077.088-.112.203-.119.312-.007.061 0 .122.035.17.049.061.14.068.216.047.154-.027.293-.136.335-.278s-.056-.326-.209-.346c.112-.014-.021-.075.056 0zm.495-1.715c-.147.027-.286.129-.3.271s.154.278.286.21c.133-.122.119-.359-.021-.475" class="D"/><g class="G"><path d="M19.148 6.569c-.084.02-.119.129-.084.203s.126.115.216.115c.042 0 .091-.014.112-.047.007-.02.014-.041.014-.061 0-.075 0-.156-.021-.231-.077-.007-.154-.007-.23.007M18.38 7.77c-.063.007-.133.014-.188.041s-.105.088-.098.149c.007.081.098.136.174.169.063.027.147.054.202.007s.035-.129.077-.19c.014-.02.035-.041.042-.068.007-.047-.049-.081-.098-.088s-.105-.014-.126-.054M17.34 6.305c-.063.034-.133.081-.168.142-.07.115-.014.298.119.326s.251-.088.321-.203c.007-.014.014-.027.014-.041s-.014-.027-.028-.034l-.23-.156c-.021-.014-.056-.027-.07 0m-5.339 1.159c-.035.081-.049.176-.042.271.063.034.14.027.202 0 .063-.034.112-.081.154-.142.007-.014.021-.027.021-.047a.11.11 0 0 0-.035-.075c-.042-.047-.098-.081-.161-.088s-.133.041-.14.095m-.312 1.092c-.056.027-.063.115-.028.163.042.047.112.068.174.061.042-.007.091-.02.105-.054.028-.054-.014-.115-.056-.156-.042-.047-.105-.102-.174-.081m2.805-3.419a.35.35 0 0 0-.007.224c.035.054.119.068.174.034s.084-.102.077-.17c-.014-.075-.098-.149-.167-.115m6.05 6.66c-.049.081-.028.203.056.258s.209.027.258-.054c.028-.041.028-.102.014-.149a.2.2 0 0 0-.181-.115c-.077-.007-.154.027-.209.075.028.007.049.02.077.027"/><use xlink:href="#B"/></g><use xlink:href="#B" class="B C E"/><path d="M19.531 20.54c.035.075.091.149.167.17.133.041.286-.115.23-.237s-.279-.129-.335 0m-2.909 1.885c-.049.122.056.271.188.292s.265-.088.3-.217c.007-.02.007-.047-.007-.068s-.035-.027-.063-.034l-.342-.088a.67.67 0 0 0-.035.109" fill="#100641"/><path d="M11.471 17.461c-.014.061-.035.122-.021.183.007.061.049.122.112.136.07.02.147-.034.174-.102s.028-.142.021-.21l-.244-.041" class="G"/><path d="M10.808 26.597c-.028.088-.049.203.028.265.084.068.202.007.307.027a.51.51 0 0 0 .007-.251c-.021-.081-.084-.163-.167-.176-.084-.02-.181.047-.174.136h.063zm1.591.59l.007.319.244.034c.021 0 .049.007.07-.007s.028-.041.035-.068c.028-.115.028-.244-.056-.332-.084-.081-.265-.061-.279.054m7.188.19c-.077.061-.119.17-.077.258s.167.136.251.075c.035-.075.07-.156.056-.237s-.126-.142-.195-.088m3.789.005c-.014.054-.021.115 0 .17s.098.088.147.054c.021-.014.028-.034.035-.054.028-.061.042-.122.035-.183s-.056-.122-.119-.129-.133.054-.112.109m-.363-8.126c-.014.061-.035.122-.021.183s.063.122.126.115c.098 0 .14-.115.154-.21.014-.081.014-.19-.063-.224-.084-.034-.16.054-.209.122" fill="#100641"/><path d="M23.76 9.004c-.014.061-.021.129.007.183s.105.088.161.054c.028-.014.042-.041.056-.068.021-.054.042-.109.028-.163s-.056-.109-.112-.115-.119.047-.105.102m-.419.916l.007.217c.105.014.209-.061.223-.163s-.07-.203-.174-.21a.23.23 0 0 1-.028.136m.893.189a.46.46 0 0 0-.035.237c.014.081.098.149.174.136.105-.02.126-.163.119-.271-.007-.075-.014-.163-.077-.203s-.181.007-.154.075" class="G"/><g class="B C E"><path d="M13.488 17.8c.119-.407-.105-.773-.426-1.139-.495-.563-.949-1.153-1.054-1.94-.23-1.777.789-3.513 2.47-4.144 1.766-.665 3.72-.068 4.773 1.451.468.671.705 1.411.705 2.225 0 .746-.244 1.39-.782 1.926l-.747.78c-.286.244-.391.522-.37.875.014.278-.021.556-.014.834v.054c0 .027-.007.047-.007.068l.007.142-.14.007c-.056 0-.112.007-.167 0-.105-.014-.202-.014-.307-.02-.021 0-.042 0-.07-.007-.042 0-.077-.007-.119-.007-.014 0-.028-.007-.049-.007h-.063-.244c0-.041-.007-.081-.007-.122-.007-.081-.007-.163-.007-.244l-.007-.468c0-.007 0-.014-.007-.02s-.014-.007-.021-.007c-.167-.014-.335 0-.502.02l-.007.292v.081c0 .041 0 .075-.007.115 0 .014-.007.02-.007.027-.007.014-.007.034-.007.047a.85.85 0 0 0 .007.231h-.154c-.063 0-.133 0-.195-.014-.077-.014-.161-.007-.237-.014-.028 0-.063 0-.091-.007-.077 0-.154-.014-.23-.014h-.119c-.007 0-.112.007-.119.014l.007-.21c0-.034 0-.068.007-.109 0-.034.007-.068.007-.102l-.007-.414a3.05 3.05 0 0 0-.558-.047l-.028.468-.014.237v.061c0 .014 0 .027-.007.034-.007.014-.042.014-.056.014a2.21 2.21 0 0 1-.3-.007c-.042 0-.091-.007-.133-.007l-.335-.014c-.035 0-.077-.007-.112-.007-.021-.007-.042-.014-.07-.014-.007 0-.119-.007-.119-.007v-.02-.237c0-.034-.007-.068.007-.102.007-.014 0-.027 0-.041v-.102l.007-.258c.014 0 .014-.027.021-.136zm2.261-1.248l.188.014.3.027-.112-.298c-.014-.041-.035-.075-.049-.109s-.035-.061-.049-.095c-.007-.007-.007-.02-.007-.027-.007-.034-.021-.061-.028-.095l-.098-.258a.82.82 0 0 0-.049-.115c0 .007-.014.027-.014.027-.007.014-.021.027-.028.041l-.251.373c-.042.061-.077.129-.119.197-.021.034-.035.068-.056.095l-.021.041c-.007.027-.035.054-.056.081-.028.034-.056.068-.077.109h.028.028.063c.042 0 .077 0 .119-.007.014 0 .035-.007.049-.007.021 0 .042 0 .063.007.042 0 .077.007.119.007.021-.014.042-.014.056-.007z" class="H"/><path d="M13.327 17.61c.112-.4-.105-.76-.419-1.119-.488-.556-.935-1.133-1.033-1.899-.223-1.743.775-3.438 2.422-4.056 1.731-.651 3.643-.068 4.683 1.424a3.82 3.82 0 0 1 .698 2.177c0 .732-.237 1.363-.768 1.885-.251.251-.461.536-.733.76-.279.237-.384.509-.363.861.014.271-.021.543-.014.814v.054c0 .02-.007.047-.007.068 0 .014 0 .136.007.136h-.14c-.056 0-.112.007-.167 0-.098-.014-.202-.014-.3-.02-.021 0-.042 0-.063-.007-.042 0-.077-.007-.119-.007-.014 0-.028-.007-.042-.007h-.063-.237c0-.041-.007-.075-.007-.115-.007-.081-.007-.156-.007-.237l-.007-.461c0-.007 0-.014-.007-.02s-.014-.007-.021-.007c-.16-.014-.328 0-.488.02l-.007.285v.081c0 .034 0 .075-.007.115 0 .014-.007.02-.007.027-.007.014-.007.034-.007.047a.8.8 0 0 0 .007.224h-.147c-.063 0-.126 0-.188-.014-.077-.014-.154-.007-.237-.014-.028 0-.063 0-.091-.007-.077 0-.147-.014-.223-.014h-.119c-.007 0-.112.007-.112.014l.007-.21c0-.034 0-.068.007-.102 0-.034.007-.068.007-.102l-.007-.407a3.7 3.7 0 0 0-.544-.047l-.021.461-.014.231v.061c0 .014 0 .027-.007.034-.007.014-.042.014-.056.014-.098.007-.195 0-.293-.007-.042 0-.091-.007-.133-.007l-.328-.014c-.035 0-.07-.007-.112-.007-.021 0-.042-.014-.07-.014-.007 0-.112-.007-.112-.007v-.02-.231c0-.034-.007-.068.007-.095.007-.014 0-.027 0-.041v-.102l.007-.251c-.014 0-.014-.02-.007-.129zm2.219-1.228l.181.014.293.027-.105-.298c-.014-.041-.035-.075-.049-.109s-.035-.061-.049-.095c-.007-.007-.007-.02-.007-.027-.007-.034-.021-.061-.028-.095l-.098-.251c-.014-.041-.028-.075-.049-.115 0 .007-.014.02-.014.027-.007.014-.021.027-.028.041l-.244.366c-.042.061-.077.129-.112.19l-.056.095-.021.041c-.007.027-.035.054-.056.075l-.077.102h.028.028.063c.042 0 .077 0 .119-.007.014 0 .035-.007.049-.007.021 0 .042 0 .063.007.042 0 .077.007.119.007.014.014.035.014.049.014z" class="I"/></g><path d="M18.247 10.93c-1.277-.99-2.722-1.153-4.215-.502-2.394 1.044-3.036 4.137-1.598 5.677.202.217.356.468.565.685a.83.83 0 0 1 .237.671c-.021.366-.056.739 0 1.139l1.228.054.021-.848.475.014v.007.02.027.034.041.047.054.061.061.061.061.061.054.054.047.041.034.02c0 .02-.007.041-.007.068h.021.007.028.063l.244.007.307.014.279.014.174.007h.021c.014 0 .021 0 .035-.007 0-.02.007-.047.007-.068v-.007c0-.007 0-.02.007-.027 0-.02.007-.041.007-.054v-.041-.034-.034-.041-.054-.054-.061-.061-.061-.061-.054-.041-.034-.02-.007l.475.014-.021.841 1.291.054v-.739-.346c0-.034 0-.068-.007-.095 0-.081 0-.163.014-.237.014-.081.042-.17.098-.237.014-.014.028-.034.042-.047l.056-.054.105-.109.209-.217.202-.217.195-.217.195-.217.188-.217c.035-.034.063-.075.098-.108a1.97 1.97 0 0 0 .461-.97c.251-1.567-.244-2.869-1.507-3.845zm-3.957 6.653h-.049-.021v.102l-.007.21-.014.434-.621-.027.007-.183.014-.414.014-.434.007-.163c0-.027-.007-.054-.007-.075 0-.027-.007-.054-.007-.081 0-.014-.007-.02-.007-.034-.007-.007-.007-.02-.014-.027-.007-.02-.014-.041-.028-.061l-.063-.122c-.021-.041-.049-.075-.077-.115a.54.54 0 0 0-.056-.068l-.851-1.065c-.398-.529-.468-1.146-.391-1.77.174-1.404.928-2.421 2.275-2.943 1.333-.515 2.596-.298 3.657.631 1.082.943 1.479 2.143 1.13 3.547-.084.359-.321.617-.558.875l-.893.943c-.014.014-.028.02-.035.034-.014.02-.014.027-.021.034-.007.014-.021.027-.028.041-.007.007-.007.014-.014.02l-.049.095c-.028.061-.042.129-.056.197-.007.034-.007.068-.007.102v.047.027.041.068.115.231.231.231.115.061.02.007h-.042c-.035 0-.077 0-.112-.007l-.461-.02.014-.38c0-.041.007-.088.007-.129v-.156-.054l-.091-.014a.55.55 0 0 0-.105-.014l-.223-.02c-.077-.007-.154-.007-.23-.007h-.23-.195l-.028.78-.621-.027.028-.766-.112-.02c-.077-.014-.147-.02-.223-.027l-.23-.014c-.077 0-.154 0-.23-.007h-.112m1.516-2.26c-.007-.007-.007-.02-.014-.027-.014-.02-.021-.047-.035-.068l-.021-.041c-.007-.014-.014-.02-.021-.034-.028-.041-.049-.088-.077-.129-.014-.02-.021-.041-.035-.068-.007-.02-.014-.027-.014-.027-.007.014-.014.014-.014.02s-.007.014-.007.02c-.007.014-.014.027-.021.034a1.25 1.25 0 0 0-.077.129 1.25 1.25 0 0 0-.077.129l-.098.17c-.014.02-.021.041-.035.054-.014.02-.028.041-.035.061a.58.58 0 0 0-.042.068c-.014.02-.028.047-.042.068l-.042.075-.042.075-.042.075-.042.075-.042.075-.042.075-.042.075-.042.068c-.014.02-.028.041-.035.061-.014.02-.021.041-.035.061-.007.02-.021.034-.028.054-.007.014-.021.027-.028.047l-.021.041c-.007.007-.014.02-.014.027-.007.007-.007.014-.014.02l-.007.007h.007a.68.68 0 0 1 .119.007h.028.028.035.028.028.035.042.042.049.049.056.056.056.063.063.063.063.063.063.063.063.056.056.056.049.049.042.042.035l.251.007c-.007-.041-.028-.075-.042-.115l-.572-1.167zm-.719 1.024l.495-.821.335.855-.83-.034z" class="H"/><path d="M11.164 11.113c0 .034.007.061.007.088zm0 0c0 .034.007.061.007.088z" class="I"/><path d="M11.164 11.113c0 .034.007.061.007.088m-.007-.088c0 .034.007.061.007.088z" stroke-width="1.491" class="B C"/><path d="M25.938 24.067c-.356-.278-.621-.638-.956-.95l.063-.97-.021-2.564c-.042-.522.105-1.024.251-1.526.286-.956.126-1.94-.021-2.882-.105-.671-.119-1.323-.07-1.987l.105-1.75c.063-.827.14-1.641-.077-2.475-.189-.705-.23-1.445-.524-2.123-.23-.529-.23-.529-.942-1.445-.635-.651-.733-.658-1.277-.977-.419-.244-.83-.475-1.34-.522-.649-.061-1.249-.339-1.891-.441-1.117-.176-2.219-.081-3.322.081-1.479.224-2.938.502-4.075 1.601-.537.522-1.089 1.017-1.319 1.743-.063.203-.202.38-.307.563-.482.793-.37 1.153-.44 2.184.042.075-.098.522-.147.644-.063.692-.07.251-.063.549l.035 2.699c.007.814.042 1.628-.112 2.428-.167.848-.154 1.702-.161 2.557 0 .19.007.387-.042.57-.147.637-.112 1.275-.077 1.913l.112 2.618-1.542 1.166c-.181.129-.286.271-.286.502l.021 2.869c0 .258.126.4.398.421l3.775.231 4.892.298 5.548.353a1.2 1.2 0 0 0 .698-.17l2.924-1.696a.59.59 0 0 0 .328-.576l.049-2.496c0-.17-.035-.326-.188-.441zM9.88 19.781c.084-.57.161-1.133.147-1.709-.021-.746.07-1.479.181-2.211.154-1.017.098-2.041.077-3.066l-.007-1.112c0-.095.007-.19.014-.285l.014-.17c0-.027.021-.047.042-.068l.091-.102c.007-.007.014-.014.028-.02.007 0 .021 0 .028.007a1.57 1.57 0 0 1 .349.265c0 .007.251.19.251.197.007.007-.154.346-.154.359.3 0 .223-.095.468-.522.014-.027-.244-.197-.244-.231-.042-.041-.056-.095-.077-.142-.021-.061-.056-.115-.091-.163l-.063-.075-.063-.061a.06.06 0 0 1-.021-.047c-.007-.027-.021-.047-.028-.075a1.66 1.66 0 0 1-.077-.197l-.133-.4-.133-.407-.084-.217c.049-.638.174-1.248.607-1.763.098-.122.161-.278.209-.421.195-.624.628-1.072 1.124-1.472.307-.251.586-.549.942-.719.007-.007.035.014.042.014l.042.02c.028.02.049.041.063.068.028.034.035.081.056.115l.042.109.077.217c.007.014.007.02.014.027.007.014.021.02.028.02.028.007.056.02.084.027.007 0-.028.183-.028.197v.034c0 .027-.007.061-.007.088l-.014.183c0 .02-.007.047 0 .068l.021.054c.056.109.084.515.084.515l.084-.244c-.007-.02-.007-.034-.014-.054l-.021-.109-.021-.149c0-.02-.007-.034-.007-.054 0-.014-.007-.02 0-.034.007-.02.014-.041.028-.054.007-.02.021-.041.028-.061 0 0 .042.007.049.014.014.007.028.014.042.014.042.007.077.02.112.041.014.007.028.014.042.027l.021.041.112.271c.007.014.014.034.028.047s.028.02.042.027l.279.163c-.042-.068-.105-.122-.16-.19-.084-.102-.14-.224-.161-.353-.007-.027-.007-.054-.007-.081l-.209-.136c-.028-.02-.063-.034-.084-.054-.007-.007-.014-.02-.014-.034l-.021-.054-.077-.217c-.007-.02-.014-.047-.035-.054-.007-.007-.021-.007-.035-.014-.021-.014-.028-.041-.035-.061l-.021-.088c-.007-.02-.014-.047-.014-.075v-.027c-.007-.047-.021-.095-.021-.142-.007-.122.021-.244.091-.353 2.128-.305 4.278-.556 6.148 1.038v.95c0 .027 0 .061-.014.088-.007.007-.007.014-.014.027-.007.02-.014.041-.028.054l-.07.109c-.028.041-.056.081-.07.129.007-.007.014-.007.021-.014l.021-.02c.014-.014.035-.027.049-.034.035-.02.063-.047.091-.075.014-.014.021-.027.035-.047s.028-.054.042-.075c.021-.02.035-.054.042-.088.007-.014.014-.02.014-.034.007-.014.007-.027.014-.047l.021-.095c.028-.136.035-.271.056-.407.007-.054.021-.102.035-.156.579.441 1.179.827 1.263 1.601.07.651.188 1.289.377 1.919.056.183.105.373.105.563 0 1.268.063 2.53-.147 3.791-.112.671-.105 1.37-.112 2.055 0 .732-.042 1.465-.112 2.191-.07.712-.07 1.417.112 2.109.098.366.035.732-.007 1.106l-.167 2.191c-.014.176-.007.359-.084.549l-11.396-.617-.014-.122-.021-.142-.028-.278s0-.183.007-.271v-.034c0-.034.007-.075.014-.102l.021-.109a1.63 1.63 0 0 1 .077-.244c.007-.014.007-.02.014-.034.007-.007.021-.014.035-.02l.537-.203c.021-.007.028-.034.042-.054s.028-.041.049-.061c.014-.014.035-.027.049-.041.028-.027.042-.061.056-.095a1.82 1.82 0 0 0 .077-.17.63.63 0 0 0 .035-.075c0-.007 0-.014.007-.02.021-.034.07-.061.098-.081.063-.047.119-.102.161-.163-.056.027-.098.061-.154.095-.021.014-.049.027-.077.034-.007 0-.014 0-.028.007-.021.02-.035.041-.049.061l-.084.122-.105.149s-.056.109-.112.136c-.014.007-.035.014-.056.02l-.53.17c-.035.014-.07.02-.105.047v-.068c.007-.034 0-.068.007-.095v-.136l-.007-.278-.028-.543a3.49 3.49 0 0 1-.014-1.044zm-.154 4.402c.098-.075.223-.054.335-.047l6.72.359 4.403.237.216.027c.14.271.251.549.335.888l-12.84-.807c.293-.285.572-.461.83-.658zM21.96 28.72c-.314.047-.621.007-.907-.027-.014 0-.028-.014-.035-.02-.014-.007-.021-.014-.035-.027a.45.45 0 0 1-.063-.054c-.042-.041-.07-.095-.112-.136-.014-.014-.035-.027-.042-.041-.014-.027-.021-.054-.028-.081 0-.007 0-.014-.007-.027-.007-.007-.014-.014-.014-.027-.035-.041-.063-.081-.084-.129-.007-.014-.007-.034-.007-.047.007-.041-.014-.081-.028-.115l-.021-.095c0-.007-.007-.02-.014-.027-.014-.02-.035-.034-.056-.047a3.03 3.03 0 0 0-.147-.149c-.021-.02-.042-.034-.063-.047.014.007.021.027.035.041.007.014.021.027.035.041.021.027.042.054.056.095 0 .014.014.034.021.047.021.041.035.075.042.115a.66.66 0 0 1 .021.163c.007.047.007.102.014.149 0 0 .035.014.042.014.007.007.007.02.007.034.014.034.035.068.056.102l.021.041v.115c0 .014 0 .034-.007.047-.014.02-.042.034-.035.061-.028 0-.07.007-.098 0-.007 0-.014 0-.021-.007-.049-.007-.091-.007-.14-.007l-.272-.014-2.366-.149-2.366-.149-2.366-.149-2.366-.149-1.186-.075-.593-.034-.293-.02a3.33 3.33 0 0 1-.286-.02v-.651l.007-.007c.021-.027.028-.034.035-.047l.056-.075c.021-.027.049-.054.07-.081.007-.014.014-.02.021-.034a.22.22 0 0 1 .049-.034c.021-.014.042-.02.063-.034.042-.02.084-.041.133-.054.035-.014.07-.02.105-.014.028.007.056.02.077.041.077.054.161.109.251.129.021.007.028-.014.042-.02a.58.58 0 0 1 .112-.081c.007-.007.021-.014.028-.014.021-.014.042-.02.063-.034a.87.87 0 0 1 .265-.047c-.063-.02-.133-.034-.209-.041-.042 0-.084 0-.119.02-.021.02-.035.027-.042.034l-.063.041c-.028.014-.042.02-.049.034-.007.007-.028.02-.042.02-.007 0-.021-.007-.035-.014-.007-.007-.021-.007-.028-.014l-.056-.034c-.056-.041-.112-.095-.167-.142-.007-.007-.014-.007-.021-.014h-.028c-.021.007-.042.007-.063.014-.014 0-.021.007-.035.007h-.021c-.021 0-.042.007-.063.007l-.091.02-.265.068v-1.363l13.727.861zM20.655 5.491l-.202-.278h-.091c-.014 0-.021-.014-.035-.014l-.209-.163a6.2 6.2 0 0 0-.433-.305c-.293-.197-.6-.38-.928-.529-.147-.014-.265-.081-.433-.183l.433.068c.433-.007.837.129 1.249.251.321.095.642.197.977.224.509.034.907.298 1.305.563.314.21.419.556.516.882.07.251-.174.359-.328.502v.027c0 .014.007.027.007.041.007.027.021.047.028.075l.077.156c.014.027.021.054.028.081s.014.061.007.088c0 .014-.021.027-.028.034l-.133.156.293-.095c.021-.02.035-.041.056-.054s.042-.034.063-.047c-.021-.014-.021-.02-.021-.041l-.021-.088-.021-.081c0-.014-.007-.027-.007-.041 0-.007-.014-.034-.007-.041.077-.149.244-.176.328-.271.516.034.803.298.949.753.188.576.237 1.187.412 1.763.3 1.031.112 2.048.035 3.072-.042.59.021 1.194-.098 1.777-.049.224-.105.434-.286.563-.063.251-.007.482-.021.712-.028.068-.091.122-.147.17a1.46 1.46 0 0 1-.16.129c-.056.041-.112.075-.154.115l-.063.061c-.021.02-.049.034-.077.054-.049.027-.098.061-.147.095-.014.014-.035.02-.042.041l-.028.027-.028.027c-.007.007-.014.014-.014.02.042.054.056.115.084.163.007.014.021.027.028.047.007.007.007.014.007.027.014.027.021.054.021.081v.041c-.007.027.007.054-.014.075l-.091.081c-.014.014-.028.027-.042.034-.028.027-.063.047-.091.075-.021.02-.021.034-.014.047l.063.454c0 .02.007.047.007.075-.007.02-.007.041-.007.068 0 .061.007.122.014.176l.133-.631c.098-.176.342-.21.405-.387 0-.156-.147-.197-.195-.332l.816-.583.028-.468c.098.02.112.095.119.156.049.916.279 1.831.077 2.754-.07.332-.188.651-.23.983-.112.936.035 1.865.014 2.794-.014.468.049.943-.112 1.431l-2.163 1.024.091-1.146c.063-.59.035-1.194.167-1.777.056-.251.035-.522-.028-.773-.216-.814-.209-1.628-.105-2.448.112-.895.084-1.797.098-2.699s.154-1.79.202-2.692c.049-.943.133-1.892-.035-2.821l-.44-2.218c-.07-.556-.356-1.017-.803-1.377l-.488-.421c-.042-.034-.077-.068-.119-.109-.028-.027-.028-.041-.035-.061zm3.671 18.535c.021.007.021.007.028.014.014 0 .021.007.028.014.014.014.021.027.028.041 0 .02.007.041.007.068 0 .047.007.102 0 .149 0 .027 0 .047-.007.075v.027c0 .014.014.014.028.02.021.007.035.027.042.041s.014.027.007.041c0 .014-.007.027-.014.034-.014.027-.035.041-.063.054-.063.027-.126.061-.181.095l-1.703.875c-.154-.278-.258-.556-.363-.875l2.317-1.065c.258.156.419.393.607.597-.105.115-.237.149-.37.21l-.042-.02-.049-.027s-.028-.02-.049-.02c-.021-.007-.049-.02-.063-.034-.007-.007-.007-.014-.007-.027-.007-.027-.014-.047-.014-.075a.48.48 0 0 0-.028-.095c-.007-.027-.021-.061-.028-.088zm.475 1.838v-.102c0-.02 0-.047.014-.068.007-.014.007-.02.014-.027a.85.85 0 0 1 .077-.115c.119-.136.188-.292.174-.482.077-.054.154-.115.286-.109.049.665.014 1.356-.007 2.062l-2.673 1.54v-2.299l2.128-1.085c.021.027.035.061.042.095.007.02 0 .047 0 .068 0 .014-.007.02-.014.034 0 .007-.007.014-.014.027l-.028.027c-.014.007-.021.02-.035.034s-.028.034-.035.047c-.007.007-.014.014-.014.027-.007.007-.014.02-.014.034-.021.034-.042.075-.07.109-.014.014-.028.034-.028.054 0 .007 0 .014.007.02v.265c0 .047.007.088.007.136 0 .034-.007.081-.028.109l-.021.02c-.007.02-.014.02-.021.027-.049.054-.112.095-.174.136.042-.007.084-.014.119-.034.028-.014.056-.034.091-.047.007 0 .014-.014.028-.014.021-.02.028-.041.042-.068.007-.007.007-.02.014-.034s.007-.02.014-.034c0-.007.007-.014.007-.02.007-.027.014-.054.028-.081.007-.014.007-.027.014-.041 0-.007.007-.014.007-.027s0-.027.007-.034c0-.014.007-.027.021-.034z" class="I"/><g class="B C E"><path d="M20.655 5.491l-.202-.278h-.091c-.014 0-.021-.014-.035-.014l-.209-.163-.433-.305c-.293-.197-.6-.38-.928-.529-.147-.014-.265-.081-.433-.183l.433.068c.433-.007.837.129 1.249.251.321.095.642.197.977.224.509.034.907.298 1.305.563.314.21.419.556.516.882.07.251-.174.359-.328.502v.027c0 .014.007.027.007.041.007.027.021.047.028.075l.077.156c.014.027.021.054.028.081s.014.061.007.088c0 .014-.021.027-.028.034l-.133.156.293-.095c.021-.02.035-.041.056-.054s.042-.034.063-.047c-.021-.014-.021-.02-.021-.041l-.021-.088-.021-.081c0-.014-.007-.027-.007-.041 0-.007-.014-.034-.007-.041.077-.149.244-.176.328-.271.516.034.803.298.949.753.188.576.237 1.187.412 1.763.3 1.031.112 2.048.035 3.072-.042.59.021 1.194-.098 1.777-.049.224-.105.434-.286.563-.063.251-.007.482-.021.712-.028.068-.091.122-.147.17a1.46 1.46 0 0 1-.16.129c-.056.041-.112.075-.154.115l-.063.061c-.021.02-.049.034-.077.054-.049.027-.098.061-.147.095-.014.014-.035.02-.042.041l-.028.027-.028.027c-.007.007-.014.014-.014.02.042.054.056.115.084.163.007.014.021.027.028.047.007.007.007.014.007.027.014.027.021.054.021.081v.041c-.007.027.007.054-.014.075l-.091.081c-.014.014-.028.027-.042.034-.028.027-.063.047-.091.075-.021.02-.021.034-.014.047l.063.454c0 .02.007.047.007.075-.007.02-.007.041-.007.068 0 .061.007.122.014.176l.133-.631c.098-.176.342-.21.405-.387 0-.156-.147-.197-.195-.332l.816-.583.028-.468c.098.02.112.095.119.156.049.916.279 1.831.077 2.754-.07.332-.188.651-.23.983-.112.936.035 1.865.014 2.794-.014.468.049.943-.112 1.431l-2.163 1.024.091-1.146c.063-.59.035-1.194.167-1.777.056-.251.035-.522-.028-.773-.216-.814-.209-1.628-.105-2.448.112-.895.084-1.797.098-2.699s.154-1.79.202-2.692c.049-.943.133-1.892-.035-2.821l-.44-2.218c-.07-.556-.356-1.017-.803-1.377l-.488-.421c-.042-.034-.077-.068-.119-.109zm0 0c-.028-.027-.028-.041-.035-.061zm3.782 18.563c.007.027.021.061.028.088.014.034.021.061.028.095 0 .027.007.047.014.075 0 .014 0 .02.007.027.014.014.042.027.063.034.021 0 .035.014.049.02l.049.027.042.02c.133-.061.265-.095.37-.21-.188-.203-.349-.441-.607-.597l-2.317 1.065c.105.319.209.597.363.875l1.703-.875c.056-.034.119-.068.181-.095.028-.014.049-.027.063-.054.007-.007.014-.02.014-.034.007-.014 0-.027-.007-.041s-.021-.034-.042-.041c-.014-.007-.028-.007-.028-.02v-.027c.007-.027.007-.047.007-.075.007-.047 0-.102 0-.149 0-.027-.007-.047-.007-.068-.007-.014-.014-.027-.028-.041-.007-.007-.014-.014-.028-.014-.021-.007-.028-.014-.028-.014zm0 0l-.147-.054m1.647.068c-.356-.278-.621-.638-.956-.95l.063-.97-.021-2.564c-.042-.522.105-1.024.251-1.526.286-.956.126-1.94-.021-2.882-.105-.671-.119-1.323-.07-1.987l.105-1.75c.063-.827.14-1.641-.077-2.475-.189-.705-.23-1.445-.524-2.123-.23-.529-.23-.529-.942-1.445-.635-.651-.733-.658-1.277-.977-.419-.244-.83-.475-1.34-.522-.649-.061-1.249-.339-1.891-.441-1.117-.176-2.219-.081-3.322.081-1.479.224-2.938.502-4.075 1.601-.537.522-1.089 1.017-1.319 1.743-.063.203-.202.38-.307.563-.482.793-.37 1.153-.44 2.184.042.075-.098.522-.147.644-.063.692-.07.251-.063.549l.035 2.699c.007.814.042 1.628-.112 2.428-.167.848-.154 1.702-.161 2.557 0 .19.007.387-.042.57-.147.637-.112 1.275-.077 1.913l.112 2.618-1.542 1.166c-.181.129-.286.271-.286.502l.021 2.869c0 .258.126.4.398.421l3.775.231 4.892.298 5.548.353a1.2 1.2 0 0 0 .698-.17l2.924-1.696a.59.59 0 0 0 .328-.576l.049-2.496c0-.17-.035-.326-.188-.441zM9.88 19.781c.084-.57.161-1.133.147-1.709-.021-.746.07-1.479.181-2.211.154-1.017.098-2.041.077-3.066l-.007-1.112c0-.095.007-.19.014-.285l.014-.17c0-.027.021-.047.042-.068l.091-.102c.007-.007.014-.014.028-.02.007 0 .021 0 .028.007a1.57 1.57 0 0 1 .349.265c0 .007.251.19.251.197.007.007-.154.346-.154.359.3 0 .223-.095.468-.522.014-.027-.244-.197-.244-.231-.042-.041-.056-.095-.077-.142-.021-.061-.056-.115-.091-.163l-.063-.075-.063-.061a.06.06 0 0 1-.021-.047c-.007-.027-.021-.047-.028-.075a1.66 1.66 0 0 1-.077-.197l-.133-.4-.133-.407-.084-.217c.049-.638.174-1.248.607-1.763.098-.122.161-.278.209-.421.195-.624.628-1.072 1.124-1.472.307-.251.586-.549.942-.719.007-.007.035.014.042.014l.042.02c.028.02.049.041.063.068.028.034.035.081.056.115l.042.109.077.217c.007.014.007.02.014.027.007.014.021.02.028.02.028.007.056.02.084.027.007 0-.028.183-.028.197v.034c0 .027-.007.061-.007.088l-.014.183c0 .02-.007.047 0 .068l.021.054c.056.109.084.515.084.515l.084-.244c-.007-.02-.007-.034-.014-.054l-.021-.109-.021-.149c0-.02-.007-.034-.007-.054 0-.014-.007-.02 0-.034.007-.02.014-.041.028-.054.007-.02.021-.041.028-.061 0 0 .042.007.049.014.014.007.028.014.042.014.042.007.077.02.112.041.014.007.028.014.042.027l.021.041.112.271c.007.014.014.034.028.047s.028.02.042.027l.279.163c-.042-.068-.105-.122-.16-.19-.084-.102-.14-.224-.161-.353-.007-.027-.007-.054-.007-.081l-.209-.136c-.028-.02-.063-.034-.084-.054-.007-.007-.014-.02-.014-.034l-.021-.054-.077-.217c-.007-.02-.014-.047-.035-.054-.007-.007-.021-.007-.035-.014-.021-.014-.028-.041-.035-.061l-.021-.088c-.007-.02-.014-.047-.014-.075v-.027c-.007-.047-.021-.095-.021-.142-.007-.122.021-.244.091-.353 2.128-.305 4.278-.556 6.148 1.038v.95c0 .027 0 .061-.014.088-.007.007-.007.014-.014.027-.007.02-.014.041-.028.054l-.07.109c-.028.041-.056.081-.07.129.007-.007.014-.007.021-.014l.021-.02c.014-.014.035-.027.049-.034.035-.02.063-.047.091-.075.014-.014.021-.027.035-.047s.028-.054.042-.075c.021-.02.035-.054.042-.088.007-.014.014-.02.014-.034.007-.014.007-.027.014-.047l.021-.095c.028-.136.035-.271.056-.407.007-.054.021-.102.035-.156.579.441 1.179.827 1.263 1.601a10.62 10.62 0 0 0 .377 1.919c.056.183.105.373.105.563 0 1.268.063 2.53-.147 3.791-.112.671-.105 1.37-.112 2.055 0 .732-.042 1.465-.112 2.191-.07.712-.07 1.417.112 2.109.098.366.035.732-.007 1.106l-.167 2.191c-.014.176-.007.359-.084.549l-11.396-.617-.014-.122-.021-.142-.028-.278s0-.183.007-.271v-.034c0-.034.007-.075.014-.102l.021-.109c.021-.081.042-.163.077-.244.007-.014.007-.02.014-.034.007-.007.021-.014.035-.02l.537-.203c.021-.007.028-.034.042-.054s.028-.041.049-.061c.014-.014.035-.027.049-.041.028-.027.042-.061.056-.095a1.82 1.82 0 0 0 .077-.17l.035-.075c0-.007 0-.014.007-.02.021-.034.07-.061.098-.081.063-.047.119-.102.161-.163-.056.027-.098.061-.154.095-.021.014-.049.027-.077.034-.007 0-.014 0-.028.007-.021.02-.035.041-.049.061l-.084.122a2.83 2.83 0 0 0-.105.149c-.035.054-.056.109-.112.136-.014.007-.035.014-.056.02l-.53.17c-.035.014-.07.02-.105.047v-.068c.007-.034 0-.068.007-.095v-.136l-.007-.278-.028-.543a3.49 3.49 0 0 1-.014-1.044zm-.154 4.402c.098-.075.223-.054.335-.047l6.72.359 4.403.237.216.027c.14.271.251.549.335.888l-12.84-.807c.293-.285.572-.461.83-.658zM21.96 28.72c-.314.047-.621.007-.907-.027-.014 0-.028-.014-.035-.02-.014-.007-.021-.014-.035-.027a.45.45 0 0 1-.063-.054c-.042-.041-.07-.095-.112-.136-.014-.014-.035-.027-.042-.041-.014-.027-.021-.054-.028-.081 0-.007 0-.014-.007-.027-.007-.007-.014-.014-.014-.027-.035-.041-.063-.081-.084-.129-.007-.014-.007-.034-.007-.047.007-.041-.014-.081-.028-.115l-.021-.095c0-.007-.007-.02-.014-.027-.014-.02-.035-.034-.056-.047a3.03 3.03 0 0 0-.147-.149.38.38 0 0 0-.063-.047c.014.007.021.027.035.041.007.014.021.027.035.041.021.027.042.054.056.095 0 .014.014.034.021.047.021.041.035.075.042.115a.66.66 0 0 1 .021.163c.007.047.007.102.014.149 0 0 .035.014.042.014.007.007.007.02.007.034.014.034.035.068.056.102l.021.041v.115c0 .014 0 .034-.007.047-.014.02-.042.034-.035.061-.028 0-.07.007-.098 0-.007 0-.014 0-.021-.007-.049-.007-.091-.007-.14-.007l-.272-.014-2.366-.149-2.366-.149-2.366-.149-2.366-.149-1.186-.075-.593-.034-.293-.02a3.33 3.33 0 0 1-.286-.02v-.651l.007-.007c.021-.027.028-.034.035-.047l.056-.075c.021-.027.049-.054.07-.081.007-.014.014-.02.021-.034a.22.22 0 0 1 .049-.034c.021-.014.042-.02.063-.034.042-.02.084-.041.133-.054.035-.014.07-.02.105-.014.028.007.056.02.077.041.077.054.161.109.251.129.021.007.028-.014.042-.02a.58.58 0 0 1 .112-.081c.007-.007.021-.014.028-.014.021-.014.042-.02.063-.034a.87.87 0 0 1 .265-.047c-.063-.02-.133-.034-.209-.041-.042 0-.084 0-.119.02-.021.02-.035.027-.042.034l-.063.041c-.028.014-.042.02-.049.034-.007.007-.028.02-.042.02-.007 0-.021-.007-.035-.014-.007-.007-.021-.007-.028-.014a.67.67 0 0 0-.056-.034c-.056-.041-.112-.095-.167-.142-.007-.007-.014-.007-.021-.014H8.77c-.021.007-.042.007-.063.014-.014 0-.021.007-.035.007h-.021c-.021 0-.042.007-.063.007l-.091.02-.265.068v-1.363l13.727.861zm2.84-2.855v-.102c0-.02 0-.047.014-.068.007-.014.007-.02.014-.027.028-.047.049-.081.077-.115.119-.136.188-.292.174-.482.077-.054.154-.115.286-.109.049.665.014 1.356-.007 2.062l-2.673 1.54v-2.299l2.128-1.085c.021.027.035.061.042.095.007.02 0 .047 0 .068 0 .014-.007.02-.014.034 0 .007-.007.014-.014.027l-.028.027c-.014.007-.021.02-.035.034s-.028.034-.035.047c-.007.007-.014.014-.014.027-.007.007-.014.02-.014.034-.021.034-.042.075-.07.109-.014.014-.028.034-.028.054 0 .007 0 .014.007.02v.265c0 .047.007.088.007.136 0 .034-.007.081-.028.109l-.021.02c-.007.02-.014.02-.021.027-.049.054-.112.095-.174.136.042-.007.084-.014.119-.034.028-.014.056-.034.091-.047.007 0 .014-.014.028-.014.021-.02.028-.041.042-.068.007-.007.007-.02.014-.034s.007-.02.014-.034c0-.007.007-.014.007-.02.007-.027.014-.054.028-.081.007-.014.007-.027.014-.041 0-.007.007-.014.007-.027s0-.027.007-.034c0-.014.007-.027.021-.034z"/><path d="M16.831 14.016c-.168.244-.181.576-.063.848.035.081.084.156.16.203.154.088.349.007.509-.075.209-.109.426-.237.509-.454a.6.6 0 0 0-.042-.488.91.91 0 0 0-.174-.251c-.049-.047-.091-.109-.167-.115a.79.79 0 0 0-.509.115.84.84 0 0 0-.223.217zm-3.176.047c-.056.095-.098.197-.105.305-.014.183.077.353.161.515.014.034.035.068.063.088s.063.027.098.034c.349.047.712-.088.935-.353.042-.054.077-.109.098-.17.028-.095.028-.19.021-.285-.007-.136-.021-.292-.126-.387-.049-.047-.112-.081-.174-.109a1.67 1.67 0 0 0-.251-.115c-.063-.014-.14.007-.195.027-.147.047-.272.142-.377.251l-.084.095c-.014.02-.028.034-.035.054-.007.007-.014.034-.028.047z" class="D"/></g><g class="H"><use xlink:href="#C"/><use xlink:href="#C" x="3.098" y="0.068"/><path d="M13.655 14.864c-.098-.142-.335-.305-.335-.468 0-.482.237-.868.733-.868h.377c.056.054.112.102.154.156-.063-.014-.119-.02-.181-.02-.412 0-.754.326-.754.732a.72.72 0 0 0 .209.509zm3.322.122c-.07-.007-.447-.149-.516-.162-.098-.142 0-.671 0-.848 0-.461.572-.414 1.04-.441l.14.203a.88.88 0 0 0-.14-.014c-.412 0-.754.326-.754.732a.76.76 0 0 0 .23.529z"/></g><defs ><path id="B" d="M20.145 21.714c-.007.102-.056.197-.056.298s.07.217.174.217c.091 0 .154-.081.195-.156.035-.047.063-.102.091-.149.021-.027.035-.061.021-.095-.007-.014-.021-.027-.035-.034-.119-.075-.265-.109-.412-.102"/><path id="C" d="M14.102 15.196c-.53 0-.963-.421-.963-.936s.433-.936.963-.936.963.421.963.936-.433.936-.963.936zm0-1.601c-.377 0-.684.298-.684.665s.307.665.684.665.684-.298.684-.665-.307-.665-.684-.665z"/></defs></svg>