<svg xmlns="http://www.w3.org/2000/svg" width="128" height="128" fill="none" xmlns:v="https://vecta.io/nano"><path d="M64 128c35.346 0 64-28.654 64-64S99.346 0 64 0 0 28.654 0 64s28.654 64 64 64z" fill="#ffc800"/><path d="M64 123.429c32.821 0 59.429-26.607 59.429-59.429S96.821 4.571 64 4.571 4.571 31.179 4.571 64 31.179 123.429 64 123.429z" fill="#000"/><path d="M92.452 32.247h-9.486l2.103 6.487.708 2.185-1.86 1.348-16 11.611 14.144 10.295 16.795-12.183z" fill="#ffc800"/><path d="M43.401 42.231l-1.856-1.371.713-2.185 2.103-6.459h-9.454L28.48 51.941l16.777 12.21 14.171-10.277zm18.638.452L47.684 32.238l-2.423 7.438 16.777 12.21v-9.198z" fill="#e1aa00"/><path d="M79.643 32.251L65.271 42.679v9.198l16.786-12.178z" fill="#ffc800"/><path d="M47.113 66.729l-1.829 1.321-.037.105 16.777 12.21V55.895z" fill="#e1aa00"/><path d="M82.016 68.05l-1.829-1.33-14.903-10.843v24.462l16.763-12.165z" fill="#ffc800"/><path d="M62.034 84.27l-1.856-1.371-11.799-8.585-3.118 9.573 16.777 12.21V84.247z" fill="#e1aa00"/><path d="M78.948 74.341l-11.831 8.581-1.828 1.339V96.11l16.786-12.174z" fill="#ffc800"/></svg>