<svg xmlns="http://www.w3.org/2000/svg" width="128" height="128" viewBox="0 0 33.867 33.867" xmlns:v="https://vecta.io/nano"><defs><linearGradient id="A" x1="6.193" y1="16.252" x2="32.527" y2="21.662" gradientUnits="userSpaceOnUse"><stop offset=".156" stop-color="#277287"/><stop offset=".425" stop-color="#65ba8e"/><stop offset=".758" stop-color="#8dc121"/></linearGradient></defs><circle cx="16.933" cy="16.933" r="16.933" fill="#4d4d4d"/><path d="M27.954 26.956l-.975-.025-1.284-.014-1.284-.014-.003-.002-.003-.002-.007-2.895-.007-2.895.786-.012.786-.012.576-.007.576-.007.076.684.076.684-.005.004-.005.004-.764.032-.764.032-.006.006-.006.006-.015.423-.015.423h.127.127l.388-.02.388-.02.657-.03.657-.03h.112.112l.012.383.012.383.006.214.006.214h-1.297-1.297l-.011.075-.011.075-.013.515-.013.515.853-.012.853-.012.91-.013.91-.013v.028.028l.059.637.059.637v.035.035l-.184-.003-.184-.003-.975-.025zm-23.7-.125l-.199-.033.001-.089.001-.089.131-.259.131-.259.194-.328.194-.328.473-.876.473-.876.301-.577.301-.577.353-.694.353-.694.062-.067.062-.067h.051.051l.049.045.049.045.497.935.497.935.284.547.284.547.522.985.522.985.184.354.184.354-.011.011-.011.011-.314.01-.314.01-.087-.024-.087-.024-.102-.095-.102-.095-.129-.086-.129-.086-.308-.231-.308-.231-.119-.081-.119-.081-.109-.056-.109-.056-.08-.024-.08-.024-.005-.355-.005-.355.017-.017.017-.017.108.023.108.023.119.063.119.063.146.138.146.138.102.131.102.131.019.02.019.02-.01-.02-.01-.02-.427-.786-.427-.786-.353-.652-.353-.652-.055.115-.055.115-.13.208-.13.208-.602 1.124-.602 1.124-.011.02-.011.02.02-.02.02-.02.096-.147.096-.147.132-.132.132-.132.112-.055.112-.055.135-.029.135-.029.015.015.015.015-.005.355-.005.355-.159.034-.159.034-.13.049-.13.049-.119.061-.119.061-.148.104-.148.104-.124.126-.124.126-.1.155-.1.155-.066.078-.066.078-.064.027-.064.027-.155-.002-.155-.002zm8.221.021l-.01-.016-.199-.732-.199-.732-.011-.011-.011-.011-.024.024-.024.024h-.016-.016v-.644-.644l.16-.124.16-.124.132-.123.132-.123-.011-.597-.011-.597-.032-.103-.032-.103-.067-.059-.067-.059-.097-.021-.097-.021-.244-.012-.244-.012v2.408 2.408h-.617-.617v-2.897-2.897l1.04.009 1.04.009.167.043.167.043.162.083.162.083.15.15.15.15.072.139.072.139.036.109.036.109.007.988.007.988-.205.176-.205.176-.074.06-.074.06.308 1.123.308 1.123v.026.026h-.626-.626zm1.381-2.227v-2.224l.02-.174.02-.174.049-.131.049-.131.092-.139.092-.139.129-.106.129-.106.142-.069.142-.069.119-.035.119-.035 1.199-.007 1.199-.007v2.886 2.886h-.617-.617l-.005-.881-.005-.881-.07-.005-.07-.005-.184-.012-.184-.012v-.456-.456h.259.259v-1.042-1.042l-.062-.012-.062-.012h-.152-.152l-.169.021-.169.021-.07.036-.07.036-.044.078-.044.078-.021.129-.021.129v2.144 2.144h-.617-.617v-2.224zm3.701-.662v-2.887l1.199.007 1.199.007.119.035.119.035.142.069.142.069.129.106.129.106.092.139.092.139.049.13.049.13.021.165.021.165v.449.449l-.204.172-.204.172-.05.04-.05.04.01.008.01.008.245.206.245.206-.009.817-.009.817-.034.118-.034.118-.066.132-.066.132-.073.089-.073.089-.102.085-.102.085-.13.068-.13.068-.149.045-.149.045-1.189.007-1.189.007zm1.978 1.891l.117-.019.072-.037.072-.037.05-.097.05-.097.007-.49.007-.49-.131-.104-.131-.104-.023.014-.023.014-.251.172-.251.172-.025.015-.025.015v-.663-.663l.154-.108.154-.108.274-.21.274-.21v-.191-.191l-.032-.106-.032-.106-.055-.055-.055-.055-.078-.023-.078-.023-.219-.016-.219-.016-.174.009-.174.009v1.908 1.908h.313.313l.117-.019zm1.724-1.891v-2.885h.617.617v2.44 2.44l.254-.014.254-.014.012-.007.012-.007-.01-.616-.01-.616.048-.01.048-.01.436-.031.436-.031.009.009.009.009.073 1.115.073 1.115h-1.438-1.438zM7.174 25.949l-.124-.099v-.345-.345l-.148-.146-.148-.146-.023-.087-.023-.087.025-.208.025-.208-.032-.088-.032-.088.053.033.053.033.047.042.047.042.026.05.026.05.023.107.023.107.094.176.094.176h.01.01l.04-.074.04-.074.109-.065.109-.065.061-.055.061-.055.07-.085.07-.085-.012.176-.012.176-.026.049-.026.049-.186.19-.186.19-.005.43-.005.43-.124-.099zm1.895-5.522l-.06-.008-.348-.05-.348-.05-.348-.068-.348-.068-.025-.034-.025-.034v-.072-.072l.04-.154.04-.154.097-.243.097-.243.103-.229.103-.229.266-.527.266-.527.241-.448.241-.448.37-.667.37-.667 1.654-3.303 1.654-3.303.564-1.164.564-1.164.377-.786.377-.786.813-1.708.813-1.708.063-.093.063-.093.082-.086.082-.086.094-.048.094-.048h.091.091l.076.039.076.039.084.095.084.095.871 1.741.871 1.741.816 1.652.816 1.652.323.667.323.667.517 1.075.517 1.075 1.1 2.298 1.1 2.298.791 1.652.791 1.652.156.326.156.326v.005.005l-.433.012-.433.012-.412.013-.412.013-.165-.024-.165-.024-.16-.05-.16-.05-.143-.078-.143-.078-.104-.114-.104-.114-.055-.086-.055-.086-.257-.175-.257-.175-.247-.187-.247-.187-.398-.32-.398-.32-.458-.369-.458-.369-.279-.209-.279-.209-.209-.14-.209-.14-.199-.115-.199-.115-.178-.078-.178-.078-.161-.046-.161-.046-.005-1.216-.005-1.216h.033.033l.24.041.24.041.12.04.12.04.177.089.177.089.145.1.145.1.186.155.186.155.194.202.194.202.153.184.153.184.2.269.2.269.129.193.129.193.016.001h.016l-.633-1.249-.633-1.249-1.851-3.653-1.851-3.653-.041.132-.041.132-.082.173-.082.173-.164.294-.164.294-.242.408-.242.408-2.013 4.016-2.013 4.016.054-.039.054-.039.189-.334.189-.334.203-.306.203-.306.149-.183.149-.183.146-.15.146-.15.125-.103.125-.103.118-.08.118-.08.174-.087.174-.087.129-.042.129-.042.334-.07.334-.07h.02.02l-.005 1.216-.005 1.216-.269.055-.269.055-.179.051-.179.051-.199.068-.199.068-.149.06-.149.06-.211.099-.211.099-.217.125-.217.125-.209.142-.209.142-.199.158-.199.158-.196.178-.196.178-.211.236-.211.236-.14.185-.14.185-.107.163-.107.163-.017-.011-.017-.011.013.034.013.034-.022-.014-.022-.014-.015.045-.015.045.004.015.004.015h-.023-.023l.013.013.013.013-.093.18-.093.18-.112.151-.112.152-.098.083-.098.083-.093.051-.093.051-.154.039-.154.039-.27-.003-.27-.003zm8.209-3.057l-.368-.324-.01-1.164-.01-1.164-.239-.211-.239-.211-.101-.117-.101-.117-.071-.1-.071-.1-.053-.106-.053-.106-.038-.151-.038-.151v-.224-.224l.05-.362.05-.362v-.182-.182l-.029-.136-.029-.136-.054-.113-.054-.113-.008-.017-.008-.017.157.105.157.105.117.111.117.111.076.116.076.116.04.106.04.106.06.286.06.286.061.169.061.169.141.258.141.258.071.139.071.139.044.129.044.129.035-.119.035-.119.072-.137.072-.137.094-.102.094-.102.275-.169.275-.169.221-.219.221-.219.177-.243.177-.243.006.007.006.007-.024.057-.024.057-.014.458-.014.458-.043.133-.043.133-.097.145-.097.145-.342.368-.342.368-.187.189-.187.189v1.417 1.417h-.015-.015l-.368-.324z" fill="url(#A)"/></svg>