<svg xmlns="http://www.w3.org/2000/svg" width="128" height="128" viewBox="0 0 33.867 33.867" xmlns:v="https://vecta.io/nano"><g fill="#216c58"><circle cx="16.933" cy="16.933" r="16.636" stroke="#216c58" stroke-width=".594"/><path d="M32.381 16.933a15.45 15.45 0 0 1-15.448 15.448A15.45 15.45 0 0 1 1.485 16.933 15.45 15.45 0 0 1 16.933 1.485a15.45 15.45 0 0 1 15.448 15.448z"/><path d="M14.854 24.36h1.782v1.782h-1.782zm2.97 0h1.782v1.782h-1.782z"/></g><g fill="#fff"><rect x="11.288" y="5.941" width="12.477" height="1.485" rx=".594"/><path d="M16.933 8.021v20.201c0 .328-.266.594-.594.594h-.297c-.328 0-.594-.266-.594-.594V8.021zm2.377 0v20.201c0 .328-.266.594-.594.594h-.297c-.328 0-.594-.266-.594-.594V8.021z"/><path d="M15.665 13.05h0l.003-.001c.413-.151.934-.232 1.572-.232.939 0 1.645.18 2.147.509.363.238.601.537.73.899s.462.715.928.715h2.744c.487 0 .927-.409.853-.941a4.64 4.64 0 0 0-.928-2.218c-.63-.821-1.505-1.452-2.611-1.901s-2.383-.671-3.834-.671c-1.427 0-2.712.221-3.85.67s-2.044 1.078-2.712 1.895h0l-.001.001a4.43 4.43 0 0 0-.992 2.893c-.006 1.345.495 2.435 1.506 3.238.982.781 2.303 1.342 3.946 1.698l2.085.466h0l.003.001c.689.148 1.262.31 1.724.487h.001c.462.174.785.376.994.593h0l.003.003a1.03 1.03 0 0 1 .299.758 1.3 1.3 0 0 1-.346.894c-.239.269-.587.492-1.063.658h-.001c-.466.164-1.027.25-1.688.25-.671 0-1.264-.091-1.782-.267-.507-.18-.9-.439-1.191-.771a1.98 1.98 0 0 1-.399-.774c-.107-.395-.451-.762-.928-.762h-2.759c-.493 0-.923.413-.863.939.117 1.01.454 1.889 1.018 2.628l.001.002c.681.878 1.622 1.532 2.806 1.97h0c1.188.437 2.57.651 4.143.651 1.584 0 2.952-.211 4.098-.644h.001c1.149-.437 2.047-1.057 2.674-1.87.635-.822.953-1.791.96-2.894h0v-.004c-.007-.75-.162-1.427-.473-2.024-.301-.589-.725-1.099-1.267-1.529-.537-.426-1.168-.781-1.889-1.067s-1.5-.511-2.35-.681l-1.719-.366h0l-.004-.001c-.407-.081-.789-.178-1.145-.291s-.655-.25-.915-.399c-.249-.148-.436-.317-.57-.505-.115-.169-.172-.37-.162-.617v-.006-.006a1.21 1.21 0 0 1 .287-.793c.201-.238.5-.436.918-.584z" stroke="#216c58" stroke-width=".594"/><path d="M15.448 11.883h1.485v2.08h-1.485zm0 7.427h1.485v2.08h-1.485zm0 6.239h1.485v2.08h-1.485zm2.377-13.666h1.485v2.08h-1.485zm0 7.427h1.485v2.08h-1.485zm0 6.239h1.485v2.08h-1.485z"/><path fill-rule="evenodd" d="M31.884 17.825c-.236 0-.431.185-.452.42a14.56 14.56 0 0 1-28.997 0c-.021-.235-.216-.42-.452-.42-.257 0-.461.217-.438.472.69 7.893 7.316 14.085 15.389 14.085s14.698-6.191 15.389-14.085c.022-.255-.182-.472-.438-.472zm-29.9-1.782c.236 0 .431-.185.452-.42a14.56 14.56 0 0 1 28.997 0c.021.235.216.42.452.42.257 0 .461-.217.438-.472-.69-7.893-7.316-14.085-15.389-14.085S2.235 7.677 1.545 15.57c-.022.256.182.472.438.472z"/></g></svg>