<svg xmlns="http://www.w3.org/2000/svg" width="128" height="128" fill="none" xmlns:v="https://vecta.io/nano"><circle cx="64" cy="64" r="64" fill="#f9d549"/><path fill-rule="evenodd" d="M52.499 31.774a2.66 2.66 0 0 1 1.589-.518c.269.002.536.044.792.126 0 0 5.771 1.63 7.125 7.284.714 2.973 2.318 4.19 4.432 5.023 1.166.46 2.434.683 3.641.811v-2.527c0-2.96 2.387-5.358 5.333-5.358s5.334 2.398 5.334 5.358v5.358c0 .711-.281 1.392-.781 1.894a2.66 2.66 0 0 1-1.885.785c-4.438.796-5.334 5.589-5.334 8.037 0 6.874 5.169 16.054 13.026 16.054a2.65 2.65 0 0 1 1.12.109c2.225.715 1.386 2.974 2.536 4.448 3.004 3.851 7.318 5.649 7.318 11.538 0 3.208-2.057 5.815-4.396 6.87s-4.839 1.167-7.135 1.167c-9.221 0-15.284-6.32-17.974-8.498-9.607-7.782-17.27-18.203-26.453-26.456-7.169-6.443-8.026-15.672-8.026-15.672a2.69 2.69 0 0 1 .41-1.729 2.67 2.67 0 0 1 1.397-1.091l6.813-2.281c.471-1.237 1.3-2.98 3.229-4.641 2.346-2.019 7.891-6.091 7.891-6.091zm4.318 8.147c-.358-1.493-1.519-2.318-2.448-2.836-1.389 1.035-4.772 3.542-6.292 4.851-.669.576-1.192 1.461-1.563 2.213l4.146 5.259c2.256 2.714-2.185 6.005-4.182 3.323l-3.917-4.971-3.974 1.334c.471 2.244 1.626 6.477 5.755 10.188 9.108 8.185 16.718 18.566 26.245 26.283 2.973 2.406 6.825 6.277 12.406 7.127-7.75-5.654-19.524-18.449-23.584-26.607.68.809 3.024 2.215 3.896 1.591.946-.68 1.123-1.948.536-2.899-.629-1-1.754-2.142-2.927-3.33-2.017-2.045-4.172-4.231-4.172-6.078 0-1.832 1.173-2.679 2.667-2.679s2.771 2.658 5.333 2.658c1.128 0 2.667-.703 2.667-2.658 0-1.562-.848-3.41-2.469-3.868-4.041-1.141-7.17-4.921-8.125-8.899zm28.412 42.044c-.518-.664-.977-1.469-1.308-2.37-1.646.178-3.177.722-3.177 2.58 0 5.43 6.052 8.367 10 9.727.524-.288.666-.591.666-1.706 0-3.839-4.084-5.542-6.182-8.231z" fill="#141113"/></svg>