<svg xmlns="http://www.w3.org/2000/svg" width="128" height="128" viewBox="0 0 33.867 33.867" xmlns:v="https://vecta.io/nano"><defs><linearGradient id="A" x1="1.058" y1="16.933" x2="32.808" y2="16.933" gradientUnits="userSpaceOnUse"><stop offset="0" stop-color="#0eb946"/><stop offset=".506" stop-color="#028cd4"/><stop offset="1" stop-color="#00b4b8"/></linearGradient></defs><circle cx="16.933" cy="16.933" r="16.933" paint-order="fill markers stroke"/><path d="M16.937 32.808c-3.14.001-6.21-.93-8.821-2.674s-4.646-4.223-5.848-7.124-1.517-6.093-.904-9.173 2.124-5.909 4.345-8.129 5.049-3.732 8.129-4.345 6.272-.298 9.173.904 5.38 3.237 7.124 5.848 2.675 5.681 2.674 8.821a15.89 15.89 0 0 1-15.872 15.872zm0-31.089a15.22 15.22 0 0 0-14.062 9.392 15.22 15.22 0 0 0 3.297 16.585c2.128 2.129 4.84 3.578 7.792 4.166s6.012.286 8.793-.865 5.158-3.102 6.83-5.605a15.22 15.22 0 0 0 2.565-8.455c-.004-4.034-1.608-7.902-4.461-10.755s-6.72-4.458-10.754-4.463z" fill="url(#A)"/><path fill-rule="evenodd" d="M5.75 22.059c-.014.009-.031.014-.048.015-.938-.061-1.525-1.088-1.043-1.848l10.6-16.708a.91.91 0 0 1 .75-.395.91.91 0 0 1 .75.395l3.076 4.831c.237.366.364.792.364 1.229s-.126.863-.364 1.229l-1.86 2.932a4.9 4.9 0 0 1 .925.421 4.05 4.05 0 0 1 1.174 1.024c.048.061.096.134.14.201l.026.039.048.07c.062.09.131.175.204.255l.236.242.07.067.121.131 1.12-1.765a.99.99 0 0 1 .817-.429.99.99 0 0 1 .461.114c.142.075.264.183.356.315l3.829 6.021c.117.184.168.402.144.618a.96.96 0 0 1-.274.572 4.1 4.1 0 0 1 1.11 1.595 2.34 2.34 0 0 1 .16.527 1.56 1.56 0 0 1-.032.597c-.107.363-.321.685-.613.925-.526.437-1.135.762-1.79.957-.628.2-1.277.329-1.934.386-.236.032-.453.032-.667.032h-.319a3.37 3.37 0 0 1-1.028-.191 6.18 6.18 0 0 1-1.701-1.056 16.99 16.99 0 0 1-1.414-1.328l-.874-.938-.424-.466a1.88 1.88 0 0 0-.303-.271c-.103-.072-.209-.138-.319-.198l-.064-.038a2.12 2.12 0 0 1-.826-.727 1.65 1.65 0 0 1-.166-1.13 3.7 3.7 0 0 1 .319-.996c.049-.092.111-.178.182-.255.07-.069.147-.131.23-.185.047-.03.09-.067.128-.108.032-.046.06-.095.083-.147a1.13 1.13 0 0 0 .07-.179c.029-.093.062-.185.102-.274a1.5 1.5 0 0 1 .361-.434 3.37 3.37 0 0 1 .877-.514 6.14 6.14 0 0 1 .935-.297c.314-.075.635-.123.957-.144h.198l-.07-.077-.17-.168-.005-.005-.077-.07-.268-.278a3.74 3.74 0 0 1-.252-.319l-.057-.089-.14-.198a3.45 3.45 0 0 0-.989-.855 5.81 5.81 0 0 0-1.276-.533 13.18 13.18 0 0 0-1.366-.373c-.477-.105-.963-.161-1.452-.166-.431-.002-.86.053-1.276.166-.885.269-1.701.729-2.39 1.347a12.52 12.52 0 0 0-1.037.957l-.274.284-.708.75a13.72 13.72 0 0 0-1.64 2.329l-1.375 2.521v.019c-.008.015-.02.027-.035.037zm11.449-2.752a.61.61 0 0 0-.22.262c-.015.04-.026.08-.035.121a2.61 2.61 0 0 1 .268-.236c.247-.184.541-.295.849-.319h.319.044a.51.51 0 0 0 .281-.14 2.43 2.43 0 0 0 .255-.319 3.39 3.39 0 0 1 .246-.319c.196-.223.432-.407.696-.542.131-.064.265-.121.402-.169l.153-.041c.088-.03.179-.053.271-.067a3.27 3.27 0 0 1 .396-.023c-.096-.172-.203-.338-.319-.498-.126-.006-.251-.002-.376.009a5.51 5.51 0 0 0-.906.201 4.09 4.09 0 0 0-1.596.827 1.01 1.01 0 0 0-.227.319c-.024.057-.043.117-.054.179a2.01 2.01 0 0 1-.083.268c-.037.093-.084.182-.14.265a1.06 1.06 0 0 1-.223.223zm10.386 5.539a1.34 1.34 0 0 0 .421-.638c.029-.115.036-.234.023-.351-.024-.132-.065-.261-.121-.383a3.38 3.38 0 0 0-.999-1.41c-.473-.356-.994-.644-1.548-.855l-.044-.019-.887-.418-.638-.364-.207-.121-.82-.495-.412-.255-.07-.044c-.122-.076-.24-.158-.354-.246l-.044-.035c-.015-.012-.026-.027-.032-.044l-.023-.067c-.142-.439-.32-.866-.53-1.276l-.029-.057h-.077a2.36 2.36 0 0 0-.246.064l-.14.041a2.18 2.18 0 0 0-.255.064l-.131.038c-.115.049-.227.105-.335.166-.224.116-.424.273-.59.463a3.49 3.49 0 0 0-.17.213l-.047.061c-.096.133-.203.258-.319.373a.85.85 0 0 1-.466.246.37.37 0 0 1-.115 0h-.319c-.233.027-.453.118-.638.262a2.59 2.59 0 0 0-.533.552c-.043.044-.081.089-.115.134-.045.237-.014.481.089.699a1.52 1.52 0 0 0 .6.501l.067.038.075.044.286.18a2.28 2.28 0 0 1 .405.361l.293.317.141.155.062.068.793.854c.43.452.886.878 1.366 1.276a5.76 5.76 0 0 0 1.519.957c.271.095.555.146.842.153h.297l.613-.029c.61-.053 1.212-.173 1.797-.357.571-.164 1.104-.441 1.567-.814zm-14.656-4.368c-.021 0-.04-.007-.057-.019l-.057-.044-2.167-1.682c-.011-.01-.021-.022-.027-.036s-.009-.029-.008-.044l.214-2.575c.002-.023.013-.044.03-.06s.039-.025.063-.025l4.713.386c.024.002.046.012.061.029a.09.09 0 0 1 .024.063l-.032 1.873c0 .014-.003.028-.009.041s-.015.024-.025.033l-.156.121-.983.774h0l-.176.135-1.12.844h0l-.083.062-.15.112a.09.09 0 0 1-.054.013zm-.715-.933h0 0l.705.477 1.155-.916.04-.03 1.112-.85.054-.041.061-1.465-4.26-.437-.255 2.329 1.388.933zm2.281-1.731c0-.012-.004-.023-.012-.032-.158-.193-.384-.317-.632-.348-.22-.014-.44.03-.638.128-.412.13-.798.332-1.139.597-.005.023-.003.029 0 .035s.009.017.018.021.018.006.027.004a6.76 6.76 0 0 1 1.197-.112c.189.023.379.023.568 0a1.84 1.84 0 0 0 .6-.262c.008-.009.012-.02.012-.032z" fill="url(#A)"/></svg>