<svg xmlns="http://www.w3.org/2000/svg" width="128" height="128" viewBox="0 0 33.867 33.867" xmlns:v="https://vecta.io/nano"><defs><filter id="A" x="-.055" y="-.197" width="1.11" height="1.394" color-interpolation-filters="sRGB"><feGaussianBlur stdDeviation="16.733"/></filter></defs><circle cx="16.933" cy="16.933" r="16.673" fill="#5f4745" stroke="#290907" stroke-width=".521" stroke-linejoin="bevel" paint-order="markers stroke fill"/><circle cx="17.595" cy="17.595" r="16.272" fill="#290907" paint-order="markers stroke fill"/><path d="M152.005 549.25l.005-41.75 30.989-7.509V511v11l29.866.003h29.984c8.87-12.73 9.695-23.893 0-33h-91.066L160.111 461h41.808c23.902 0 44.084.432 47.121 1.008 19.466 3.692 33.675 20.049 35.582 40.959-.374 24.488-13.539 33.716-27.423 47.034l30.352 38.753 60.43-122.05c.821-.919 30.941-9.131 31.451-8.574.326.357 62.188 130.242 63.258 132.79h-32.424l-7.765-17.418h-60.307l11.075-26.499h35.328c-2.338-6.094-24.019-52.914-24.413-52.52-.271.271-10.456 21.986-22.632 48.255l-22.139 48.182h-67.259l-28.238-40.919H183V570.5v20.42h-31l.005-41.67zm327.575 40.234c-40.813-27.485-43.01-98.575 0-125.699 5.765-2.166 7.17-2.458 53.797-2.458h47.286l-8.007 27.333H534.29c-35.793 0-38.62.469-42.082 2.249-21.262 16.592-22.371 59.092 0 71.09 5.531 1.038 17.957 1.004 42.082 1.004h46.374L572.657 591l-40.556-.08c-30.205-.059-48.098.315-52.521-1.437zM595 461.327h125.013l-8.015 27.333h-87v23.353H706V540l-81 .008v22.994h95.013l-8.015 27.996H595zm133.896 55.28l53.042-65.905-53.774-63.777h35.332l41.109 46.575 41.796-46.575h34.594L827.2 450.702l53.797 65.905h-34.594l-41.796-49.538-41.109 49.538z" fill="#fff" paint-order="markers stroke fill" filter="url(#A)" transform="matrix(.036184 0 0 .036184 -1.787954 -1.288447)"/><path d="M3.712 18.586v-1.511l1.121-.272v.398.398h1.081 1.085c.321-.461.351-.865 0-1.194H3.704l.301-1.013h1.513l1.705.036c.704.134 1.219.725 1.287 1.482-.014.886-.49 1.22-.992 1.702l1.098 1.402 2.187-4.416a9.56 9.56 0 0 1 1.138-.31c.012.013 2.25 4.713 2.289 4.805h-1.173l-.281-.63h-2.182l.401-.959h1.278a41.3 41.3 0 0 0-.883-1.9c-.01.01-.378.796-.819 1.746l-.801 1.743H7.336l-1.022-1.481h-1.48v.742.739H3.712v-1.508zm11.853 1.456c-1.477-.995-1.556-3.567 0-4.548.209-.078.259-.089 1.947-.089h1.711l-.29.989h-1.388c-1.295 0-1.397.017-1.523.081-.769.6-.809 2.138 0 2.572.2.038.65.036 1.523.036h1.678l-.29 1.013-1.467-.003c-1.093-.002-1.74.011-1.9-.052zm4.176-4.637h4.523l-.29.989h-3.148v.845h2.931v1.013h-2.931v.832h3.438l-.29 1.013h-4.233zm4.845 2l1.919-2.385-1.946-2.308h1.278l1.487 1.685 1.512-1.685h1.252l-1.947 2.308 1.947 2.385h-1.252l-1.512-1.792-1.487 1.792z" fill="#e70920" stroke="#fff" stroke-linejoin="round" paint-order="stroke fill markers" stroke-width=".265"/></svg>