<svg xmlns="http://www.w3.org/2000/svg" width="128" height="128" viewBox="0 0 33.867 33.867" xmlns:v="https://vecta.io/nano"><circle cx="16.933" cy="16.933" r="16.867" fill="#fff"/><path d="M14.932 33.786c-2.91-.36-6.451-1.795-8.276-3.353l-.498-.425 3.789-2.104 3.786-2.191c-.002-.048-1.884-1.142-4.184-2.431l-4.181-2.343-1.43 2.449-1.414 2.442-.776-1.402C.893 22.883 0 19.939 0 16.926c0-4.533 1.522-8.386 4.594-11.628C7.066 2.687 9.97 1.06 13.506.302c1.767-.379 5.05-.406 6.677-.056 3.568.769 6.19 2.186 8.719 4.713 2.031 2.03 3.268 3.986 4.104 6.492.673 2.02.861 3.213.861 5.473 0 2.271-.187 3.453-.874 5.512-.53 1.588-1.901 3.853-2.1 4.081-.03.034-3.164-5.356-6.916-11.784L16.92 2.797c-.569-.657-.613-.572-5.425 7.66l-4.602 7.94c-.076.197.121.312 16.122 9.401l4.464 2.384-1.141.861c-1.909 1.44-3.682 2.022-5.949 2.484-1.549.315-4.05.435-5.457.261zm1.595-15.045c-2.813-1.647-2.993-1.776-3.031-2.167-.031-.319.216-.87 1.063-2.372 1.208-2.139 1.488-2.405 2.07-1.965.379.286 4.018 7.114 4.018 7.539 0 .381-.397.738-.808.726-.177-.005-1.668-.798-3.313-1.761z" fill="#bf1e2e"/></svg>