<svg xmlns="http://www.w3.org/2000/svg" width="128" height="128" viewBox="0 0 33.867 33.867" xmlns:v="https://vecta.io/nano"><defs><linearGradient id="A" x1=".059" y1=".176" x2="33.867" y2="34.225" gradientUnits="userSpaceOnUse"><stop offset=".513" stop-color="#5466fd"/><stop offset="1" stop-color="#cbcffe"/></linearGradient></defs><circle cx="16.933" cy="16.933" r="16.933" fill="url(#A)" paint-order="fill markers stroke"/><g fill="#fff"><path d="M17.569 3.736l2.565 4.323 2.537 4.275.062-.007a3.04 3.04 0 0 1 .221-.005c.314.003.608.113.84.315.048.041.091.074.099.074.016 0 4.657-2.548 4.658-2.557a1528.08 1528.08 0 0 0-5.229-3.074l-5.506-3.229c-.258-.152-.274-.159-.248-.117zm-6.73 3.175l-5.496 3.223c-.029.016.129.105 2.305 1.301l2.336 1.285.079-.068a1.37 1.37 0 0 1 .56-.294 1.05 1.05 0 0 1 .321-.036l.225.008c.032.008.119-.138 2.561-4.253l2.561-4.319c.019-.03.029-.056.023-.054a2104.36 2104.36 0 0 0-5.476 3.206zm5.579-2.049l-2.336 3.939-2.266 3.82.098.102a1.28 1.28 0 0 1 .323.552 1.04 1.04 0 0 1 .041.318 1.35 1.35 0 0 1-.012.285l-.019.086 2.117 1.165 2.125 1.158c.003-.004.004-2.602.003-5.774l-.004-5.769zm.966 5.654l.008 5.774a301.58 301.58 0 0 0 2.121-1.162l2.113-1.161-.008-.038a1.32 1.32 0 0 1 .363-1.228l.078-.077-2.301-3.881-2.338-3.94-.036-.06zM4.969 16.788l.017 6.027c.011-.015 1.125-1.895 2.479-4.176l2.462-4.151-.078-.117a1.27 1.27 0 0 1-.224-.678c-.005-.107-.001-.185.013-.265.011-.062.016-.117.011-.122a1135.38 1135.38 0 0 0-4.661-2.564c-.016-.005-.019.959-.019 6.046zm21.579-4.767l-2.329 1.281.007.046.023.168c.036.291-.06.637-.244.886l-.058.081 2.463 4.152 2.475 4.172c.008.012.013-2.423.013-6.026l-.009-6.043c-.007 0-1.059.578-2.34 1.281zM11.84 14.62a1.44 1.44 0 0 1-.474.273l-.077.024v2.007 2.009l.114.04c.144.048.295.135.424.242l.099.084 2.152-1.183 2.153-1.19a841.48 841.48 0 0 0-4.302-2.368c-.007-.003-.045.027-.089.062zm7.955 1.114l-2.144 1.188c-.001.005.966.542 2.15 1.194l2.153 1.183.069-.064a1.41 1.41 0 0 1 .492-.278l.076-.024v-2.009-2.009l-.079-.024c-.166-.05-.348-.155-.485-.278-.038-.033-.074-.061-.079-.06a388.44 388.44 0 0 0-2.152 1.179zm-9.333-.833L5.9 22.604c.003.003.848-.458 1.879-1.025l1.871-1.056a3.29 3.29 0 0 0-.019-.17c-.073-.603.307-1.194.893-1.386l.089-.03v-2.011-2.013l-.056-.016-.066-.02c-.005-.004-.019.008-.029.024zm12.855-.005l-.064.021v2.009 2.009l.079.024c.45.135.802.533.902 1.021.021.103.021.376 0 .476-.012.05-.012.082-.004.09a451.53 451.53 0 0 0 3.747 2.06 1995.85 1995.85 0 0 0-4.592-7.732c-.004 0-.035.011-.069.023zm-8.962 3.829l-2.107 1.159.019.094a1.63 1.63 0 0 1-.029.595 1.36 1.36 0 0 1-.329.559l-.091.097 2.328 3.927 2.34 3.938a826.61 826.61 0 0 0 .011-5.759l-.016-5.771a203.1 203.1 0 0 0-2.125 1.162zm3.029 4.609v5.774l.064-.106 2.336-3.94 2.275-3.834-.091-.091a1.34 1.34 0 0 1-.35-1.21l.009-.041-2.115-1.162-2.121-1.162a1174.38 1174.38 0 0 0-.007 5.773zm-9.729-.925L5.331 23.7a3635.54 3635.54 0 0 0 10.987 6.446 1412.2 1412.2 0 0 0-2.556-4.319l-2.578-4.31c-.009.004-.078.011-.152.016a1.35 1.35 0 0 1-.969-.334l-.079-.069z"/><path d="M23.828 21.18a1.46 1.46 0 0 1-.374.244c-.176.077-.314.105-.526.105-.102.001-.201-.003-.221-.008-.034-.011-.062.036-2.574 4.273l-2.566 4.326-.026.044.097-.057 5.508-3.23 5.392-3.186c-.012-.011-4.368-2.407-4.649-2.558-.004-.003-.03.02-.06.049z"/></g></svg>