<svg xmlns="http://www.w3.org/2000/svg" width="128" height="128" viewBox="0 0 33.867 33.867" xmlns:v="https://vecta.io/nano"><style><![CDATA[.B{fill:#fff}.C{fill-opacity:1}.D{stroke-width:.282}.E{stroke-linejoin:bevel}.F{mask:none}]]></style><defs><clipPath id="A"><circle cx="17.115" cy="16.752" r="16.752" class="B C D E"/></clipPath><clipPath id="B"><circle cx="17.115" cy="16.752" r="16.752" class="B C D E"/></clipPath><clipPath id="C"><circle cx="17.115" cy="16.752" r="16.752" class="B C D E"/></clipPath><clipPath id="D"><circle cx="17.115" cy="16.752" r="16.752" class="B C D E"/></clipPath><clipPath id="E"><circle cx="17.115" cy="16.752" r="16.752" class="B C D E"/></clipPath><clipPath id="F"><circle cx="17.115" cy="16.752" r="16.752" class="B C D E"/></clipPath><clipPath id="G"><circle cx="17.115" cy="16.752" r="16.752" class="B C D E"/></clipPath><clipPath id="H"><circle cx="17.115" cy="16.752" r="16.752" class="B C D E"/></clipPath><clipPath id="I"><circle cx="17.115" cy="16.752" r="16.752" class="B C D E"/></clipPath><clipPath id="J"><circle cx="17.115" cy="16.752" r="16.752" class="B C D E"/></clipPath><clipPath id="K"><circle cx="17.115" cy="16.752" r="16.752" class="B C D E"/></clipPath><clipPath id="L"><circle cx="17.115" cy="16.752" r="16.752" class="B C D E"/></clipPath><clipPath id="M"><circle cx="17.115" cy="16.752" r="16.752" class="B C D E"/></clipPath><clipPath id="N"><circle cx="17.115" cy="16.752" r="16.752" class="B C D E"/></clipPath></defs><g transform="matrix(1.010827 0 0 1.010827 -.36662 -.000049)"><path d="M17.116 33.504C7.877 33.504.363 25.989.363 16.752S7.877 0 17.116 0s16.751 7.515 16.751 16.752-7.515 16.752-16.751 16.752z" clip-path="url(#N)" class="B"/><path d="M17.085 32.659c8.804 0 15.941-7.137 15.941-15.941S25.889.776 17.085.776 1.143 7.913 1.143 16.717s7.137 15.941 15.941 15.941z" fill="#343e9a" clip-path="url(#M)"/><g fill="#fbfcfd" class="F"><path d="M29.056 24.945c-.615.427-1.293.787-2.019 1.067 1.533-.59.088-.036-.28.198l-1.295 1.303c-1.835 1.932-4.725 3.956-7.579 3.635-4.19-.471-7.168-2.322-8.988-5.306-1.171-1.468-1.625-3.449-1.919-4.476-.54-1.891-.446-7.482 1.025-9.351s4.416-3.096 4.109-4.828-4.231-2.608-5.266 0-.431 7.489-1.858 7.851-2.74-4.726-.859-7.327C5.917 5.234 4.717.116 1.871.846c-3.587.921-4.187 5.782-2.238 11.42s-.535 9.715-2.212 9.979-1.858-5.276-4.131-7.445c-2.823-2.693-10.433-4.034-12.807 5.221-1.674 6.526 4.484 1.369 9.695 1.39s6.959 3.979 7.05 9.407-2.634 4.804-3.682 4.589-2.626-3.263-3.656-.343c-1.067 3.026 2.052 2.556 5.137 2.872 3.055.311 6.399 4.99 3.629 9.196-1.58 2.398-4.353 3.695-12.304 6.33.108 1.139.099 2.285-.011 3.449 1.009 3.352 3.468 8.331 6.133 10.974 10.21-4.241 21.203-5.464 32.085-6.205l6.758-26c6.955-4.852 3.914-12.039-2.262-10.736z" clip-path="url(#L)"/><path d="M40.346 26.281c-.145-4.087-3.428-4.212-4.845-3.34-1.14.704-1.718 3.007-2.391 2.744s-1.335-2.192-.012-4.376 1.513-4.272.106-4.981c-1.115-.563-2.078 1.471-1.559 2.67.545 1.258-.463 3.269-1.021 2.989s.135-2.268-.059-3.454-1.902-1.172-2.187-.474.826 1.475 1.268 2.391-.027 3.262-.423 4.005c-.12.225-.586.873-2.298 1.616-.616.267-1.982 2.049 1.095.085-.301.318-.638.579-1.003.795.866 1.603.648 3.373-.359 4.743 1.963-1.28 3.921-2.586 6.085-3.507.611-1.621 1.662-2.58 3.451-2.199 2.165.461 4.254 3.175 4.152.292z" clip-path="url(#K)"/><path d="M15.496 4.942c.173-.41-.077-.907-.559-1.112s-1.071.099-1.245.509l-.048.13c-.268.836-.122 1.565.581 1.04.101-.077 1.2-.399 1.27-.566z" clip-path="url(#J)"/><path d="M12.509 4.663c.057-.205.034-.291-.121-.391s-.342.054-.399.259c-.006.02-.011.042-.016.064-.042 1.009.304.498.406.379a1.49 1.49 0 0 0 .13-.312z" clip-path="url(#I)"/><path d="M7.694 19.333c-2.16 2.451 2.697 9.343 2.544 9.121-1.111-1.615-3.545-5.588-3.652-7.239-.06-.913.153-1.978.313-2.378.138-.347.527-.476.761-.341s.28.557.034.837z" clip-path="url(#H)"/><path d="M19.489 31.841c-.022-.39.765-1.715.855-2.169.013-.069.833-1.944.855-2.004-.208-.154-2.119.708-2.427.637-.241.043-.491.057-.744.04.535.035.031.002-.11.02l-.563.209c-.811.32-1.948.523-2.75.036-1.176-.713-1.804-1.669-1.933-2.802-.145-.595-.008-1.244.046-1.588.099-.633.892-2.276 1.584-2.627s1.732-.313 1.878-.867-.895-1.353-1.559-.721-1.154 2.156-1.625 2.069-.164-1.775.749-2.286c.87-.488 1.215-2.169.273-2.341-1.188-.219-2.033 1.137-2.228 3.074s-1.489 2.804-2.023 2.652a.23.23 0 0 1-.094-.056c-.049.47-.008.928-.03 1.433-.057 1.352-.841 2.58-.629 3.938.145.915-.751 1.322-1.433 1.095a1.88 1.88 0 0 1-.558.899l-.053 1.262c.845.292 3.997 3.092 4.838 3.12 2.752.089 4.194.002 5.188-1.152l.975-1.916c.055-.009.102-.025.154-.036.051-.128.155.068.215-.052.253-.51.813.581 1.148.136z" clip-path="url(#G)"/><path d="M28.852 40.29c.003-.507-3.086-.772-7.307-2.61 4.425 1.841 7.244 1.487 7.226 1.582.082-.123-2.677.202-7.075-1.59 4.461 1.717 7.19 1.275 7.128 1.344.031-.149-2.733.214-7.124-1.517 4.459 1.41 7.141.607 7.242.545.158-.288-2.263.163-6.682-1.116 4.362.81 6.403-.072 6.24-.066-.153-.206-2.507.474-6.699-.541.796.133 1.506.209 2.139.247l-3.875-.628c5.309 1.198 4.978 1.411-.484.022 3.548 1.787.7 2.061-2.76-.681-2.498-.49-4.264-2.806-2.43-2.383-2.643-3.103-2.189-3.73-.129-.866-.719-1.597-.856-2.658-.693-3.099-.309-1.332-.039-2.089.077-2.272.237-.178.29.33.72 1.816-.028.153-.048.336-.061.539.137.158.283.378.431.664l.158.478.031-.088a10.48 10.48 0 0 1 .447 1.251c1.059-3.43 1.69-.645 1.401.224 1.332-4.015.534-5.341-1.23-.916-.069-.658-.721-.753-.958-2.548-.253-3.128 1.039-3.883.48-3.973-.301.079-2.249 1.099-1.605 5.481-2.056-4.284-4.39-6.01-1.623.206-.946-1.445-1.489-2.645-1.815-3.567.318.905.846 2.073 1.747 3.475-.873-1.222-1.452-2.258-1.845-3.072l-.188.568c.395.901 1.008 2.005 1.966 3.271-1.027-.808-1.855-1.589-2.511-2.238-.313.359-.844.608-1.285.394.618.979 1.669 2.258 3.375 3.714a16.53 16.53 0 0 1-2.343-.981c-3.716-2.233-5.34-4.516-5.487-4.407-.081-.137 1.59 2.577 6.079 5.143-4.788-2.343-6.916-5.025-6.988-4.697-.01.036 2.035 3.083 7.033 5.46-3.87-1.445-4.043 1.188-1.738 3.414 2.111 2.249 6.7 4.089 7.871 1.581 3.973 4.33 8.839 5.251 10.103 5.15 1.525-.228-.552-1.48-4.435-4.439 4.656 2.556 7.612 2.021 7.476 1.727z" clip-path="url(#F)"/><path d="M13.692 28.084c.134.581.378 1.27.793 2.071-.084-.802-.093-1.467-.057-1.988-.339-.391-.617-.406-.736-.083z" clip-path="url(#E)"/><path d="M20.977 26.542c-.643.986-1.444 1.141-1.601.944-.197-.248.544-1.013.706-1.596s-.623-.941-.902-.681.065.852.074 1.366-.705 1.491-1.045 1.746c-.044.034-.139.089-.303.14-.264.194-.552.33-.862.416l.251-.03c-.207.081-.417.129-.631.15.057.918-.42 1.685-1.175 2.099 1.16-.169 2.322-.347 3.495-.317.011-.454.048-.927.149-1.429.133-.662.551-1.061 1.047-1.24.133-.143 1.165.187.873-.292.015-.031 4.159-7.778-.076-1.275z" clip-path="url(#D)"/><path d="M17.853 13.337c.108-.097.102-.278-.012-.406s-.332-.117-.439-.019c-.011.008-.022.02-.032.032-.197.21-.255.446.03.387.041-.009.411.046.454.005z" clip-path="url(#C)"/><path d="M17.001 12.847c.046-.052.051-.082.019-.132s-.11-.031-.155.022c-.005.006-.009.011-.013.017-.151.293.022.189.068.168.015-.007.063-.053.081-.074z" clip-path="url(#B)"/><path fill-rule="evenodd" d="M26.241 17.662l-.235-.071c.189-1.887-.202-3.752-1.13-5.321-.137-.233-.575-.826-.931-1.159l.564-1.216a.7.7 0 0 1 .804-.36l.082.025 1.09.329.793.238c.142.043.334-.173.427-.48l.253-.839c.092-.307.072-.587-.048-.623l-.772-.233-.038-.011-1.116-.336-1.962-.591c-.307-.093-.664.071-.793.364l-.988 2.247c-.467-.247-1.113-.493-1.549-.625-3.508-1.056-7.339.748-9.184 4.223l-.214-.066c-.524-.157-1.078.14-1.236.664l-.378 1.257a.99.99 0 0 0 .664 1.235l.232.07-2.565 15.825 10.415 3.136 6.605-14.607.263.08c.523.157 1.077-.141 1.235-.664l.378-1.256a.99.99 0 0 0-.664-1.234zm-2.664-5.758c.239.269.502.622.597.781.812 1.376 1.166 3.006 1.033 4.666l-3.651-1.1zm-5.602 22.453l-9.047-2.723 2.433-15.01 12.879 3.878zm7.769-14.438c-.028.091-.128.144-.219.117l-14.949-4.503c-.091-.027-.144-.125-.117-.217l.378-1.256c.028-.091.128-.145.218-.118l2.54.766.007-.02c.393.019.561-.54.224-.741l.006-.021-1.529-.46c1.692-3.039 5.067-4.608 8.15-3.68.43.129 1.056.371 1.456.59l-2.319 5.267-1.693-.493-.002.008c-.463-.097-.671.591-.231.766l-.003.008 7.441 2.241c-.002.008-.002.015-.003.023l.199.037.705.212c.091.027.144.127.117.217z" clip-path="url(#A)"/></g></g></svg>