<svg xmlns="http://www.w3.org/2000/svg" width="128" height="128" viewBox="0 0 33.867 33.867" xmlns:v="https://vecta.io/nano"><defs><clipPath id="A"><circle cx="35.914" cy="21.38" fill="#343e9a" r="21.338" stroke-width="1"/></clipPath></defs><circle cx="16.933" cy="16.933" fill="#343e9a" r="16.933"/><g fill="#fbfcfd"><path d="M-6.155 70.487C4.488 66.962 8.2 65.225 10.309 62.014c3.711-5.629-.767-11.892-4.857-12.31-4.13-.421-8.3.206-6.876-3.844 1.379-3.908 3.491.174 4.894.464s5.05 1.123 4.93-6.143-2.459-12.565-9.434-12.593-15.215 6.874-12.976-1.861C-10.834 13.34-.651 15.133 3.131 18.739c3.041 2.9 3.281 10.319 5.529 9.969s5.571-5.811 2.962-13.359S9.816 1.294 14.616.062s3.5 8.845 2.332 11.733-.072 7.747 1.837 7.265 1.1-7.017 2.486-10.508 6.638-2.319 7.051 0-3.525 3.96-5.5 6.462S20.725 25 21.448 27.528s2.17 9.4 9.014 8.318c5.321-4.708-.724-2.134 0-5.232s4.832-3.549 5.308-.557-.475 5.483 0 8.694 5.393-.051 7.7-2.161c12.58-11.523 22.42 1.827 10.565 10.1l-9.045 34.8c-14.565.993-29.281 2.63-42.947 8.306C-1.529 86.255-4.819 79.587-6.17 75.1a24.44 24.44 0 0 0 .015-4.616z" transform="matrix(.793576 0 0 .793576 -11.56716 -.033327)" fill-rule="evenodd" clip-path="url(#A)"/><path d="M28.66 10.709c.55-.971.202-2.191-.784-2.746a2.4 2.4 0 0 0-3.101.537 3.98 3.98 0 0 0-.594 1.333c-.29 1.246 1.244 1.665 2.553 1.699.753.124 1.51-.199 1.926-.822zm-4.977-3.545c-.051-.604-.591-1.056-1.213-1.014-.659.034-1.185.545-1.223 1.185-.006 1.207 1.975 1.347 2.381.205a1.14 1.14 0 0 0 .055-.376zm2.829 13.547l-1.777-5.946.405-1.467c.06-.217-.071-.441-.294-.501l-9.884-2.581c-.223-.059-.454.069-.515.287l-.405 1.467-4.597 4.295c-.054.051-.093.115-.113.186L5.849 29.08c-.06.217.071.441.294.501l15.24 3.69c.223.059 1.846-.426 1.907-.643l3.223-11.694c.021-.073.021-.15 0-.223zm-2.422-5.18l1.409 4.711-5.05-1.317zm-4.591 3.148l-8.936-2.331 3.968-3.702 8.936 2.33-2.553 2.381-.709.661zm.417.955l2.434.635-2.871 10.414-2.76.55zm-1.934 12.228l1.714-.388 1.325 1.141z"/></g><path d="M17.591 21.701c0-.225-.188-.408-.42-.409h-1.165V20.16c0-.146-.08-.281-.21-.354a.43.43 0 0 0-.42 0c-.13.073-.21.208-.21.354v.94l-.272-.27a.43.43 0 0 0-.406-.106c-.145.038-.258.148-.297.289a.4.4 0 0 0 .109.395l1.587 1.545a.43.43 0 0 0 .594 0 .4.4 0 0 0 0-.578l-.273-.266h.966c.112 0 .219-.042.298-.119s.124-.181.124-.289zm-2.3 1.831a.43.43 0 0 0-.594 0l-.494.481-1.287-1.252a.43.43 0 0 0-.594 0 .4.4 0 0 0 0 .578l1.587 1.545c.079.077.186.12.297.12s.218-.043.297-.12l.794-.772a.4.4 0 0 0-.005-.58zm-2 1.907l-1.587-1.545a.43.43 0 0 0-.406-.106c-.145.038-.258.148-.297.289a.4.4 0 0 0 .109.395l1.587 1.545a.43.43 0 0 0 .406.106c.145-.038.258-.148.297-.289a.4.4 0 0 0-.109-.395zm-1.188 1.156l-1.587-1.545a.43.43 0 0 0-.457-.085.41.41 0 0 0-.257.378v1.133H8.64a.42.42 0 0 0-.388.25.4.4 0 0 0 .088.445l1.587 1.545a.43.43 0 0 0 .594 0 .4.4 0 0 0 0-.578l-.871-.844h.57a.43.43 0 0 0 .297-.119.4.4 0 0 0 .123-.289v-.554l.867.844a.43.43 0 0 0 .594 0 .4.4 0 0 0 0-.578z" fill="#343e9a"/></svg>