<svg xmlns="http://www.w3.org/2000/svg" width="128" height="128" viewBox="0 0 33.867 33.867" xmlns:v="https://vecta.io/nano"><g transform="matrix(.070659 0 0 .070659 -1.348487 -1.331168)"><circle cx="258.732" cy="258.487" r="232.217" fill="#fff"/><path d="M217.324 493.458c-5.775-.692-17.622-2.695-26.327-4.451s-21.994-5.335-29.531-7.952-18.938-7.455-25.334-10.751-14.55-8.301-18.12-11.123-7.646-7.01-9.059-9.308-3.208-6.519-3.991-9.381c-1.046-3.824-4.955-8.894-14.75-19.127-7.33-7.658-17.291-19.491-22.136-26.296s-11.851-17.843-15.569-24.529-9.351-18.611-12.519-26.5-7.478-21.38-9.578-29.979-4.536-21.342-5.414-28.318c-.996-7.913-1.342-21.191-.921-35.302.371-12.44 1.605-27.647 2.742-33.793s3.599-16.482 5.471-22.969 5.728-17.605 8.569-24.706 8.457-18.777 12.48-25.945 11.8-19.077 17.283-26.463S86.253 97.515 93.175 90.65s17.81-16.394 24.195-21.175 17.902-12.282 25.594-16.669 19.892-10.328 27.11-13.203 18.433-6.758 24.92-8.63 16.823-4.334 22.969-5.471 21.352-2.371 33.793-2.742c14.127-.422 27.432-.074 35.437.927 7.05.881 20.55 3.544 29.999 5.917S340.854 36.655 348.777 40s19.828 9.185 26.457 12.979 16.997 10.552 23.042 15.016 15.793 12.635 21.663 18.157 14.437 14.554 19.038 20.072 11.741 15.054 15.866 21.19 10.974 18.244 15.221 26.906 9.772 21.952 12.277 29.531 5.905 19.983 7.557 27.563c2.667 12.24 3.006 17.378 3.027 45.937.02 26.249-.416 34.206-2.372 43.313-1.318 6.136-3.57 15.291-5.006 20.344s-4.13 13.322-5.988 18.375-6.317 15.094-9.909 22.313-9.197 17.259-12.456 22.313-9.636 13.913-14.172 19.688-12.989 15.176-18.785 20.891c-8.425 8.308-10.707 11.393-11.382 15.387-.464 2.748-2.431 7.358-4.37 10.245s-5.581 6.784-8.094 8.66-8.066 5.476-12.341 8.001-13.352 6.913-20.171 9.751-17.792 6.625-24.384 8.416-19.072 4.527-27.735 6.081c-13.097 2.35-21.83 2.89-51.844 3.207-19.852.209-40.819-.185-46.594-.877zm75.469-15.681c8.302-.758 22.216-2.804 30.922-4.546s21.334-4.967 28.063-7.166 17.1-6.278 23.047-9.065 14.309-7.442 18.584-10.344 8.527-6.187 9.449-7.299 1.489-3.822 1.26-6.022l-.418-4.001-8.531 5.997c-4.692 3.298-13.552 8.529-19.687 11.624s-15.461 7.174-20.722 9.065-15.376 4.91-22.479 6.711-19.335 4.304-27.185 5.564c-10.784 1.731-22.128 2.288-46.427 2.281-24.686-.008-35.51-.558-46.594-2.369-7.941-1.298-20.344-3.837-27.562-5.642s-19.031-5.59-26.25-8.41-17.85-7.82-23.625-11.111-12.68-7.731-15.345-9.868-5.175-3.885-5.578-3.885-.733 1.515-.733 3.368.585 4.461 1.3 5.797 5.495 5.218 10.621 8.626 15.083 8.732 22.126 11.832 17.875 7.105 24.07 8.901 16.178 4.273 22.183 5.504 17.71 2.983 26.012 3.894 24.839 1.72 36.75 1.799 28.448-.476 36.75-1.234zm15.636-39.305c8.961-1.567 22.25-4.607 29.531-6.756s19.181-6.733 26.444-10.186 16.465-8.364 20.45-10.913 10.405-7.441 14.267-10.871 9.863-9.555 13.334-13.612 8.673-12.1 11.559-17.875 6.473-15.208 7.972-20.962c2.383-9.145 2.541-11.541 1.262-19.031-.805-4.713-2.427-11.67-3.605-15.46-1.394-4.485-2.86-6.886-4.199-6.878-1.131.007-5.102 1.759-8.824 3.893s-8.797 6.411-11.278 9.503-6.649 8.871-9.262 12.841-6.792 8.591-9.287 10.268-7.337 3.892-10.759 4.922-10.871 1.872-16.554 1.872c-6.756 0-12.931-.879-17.838-2.54-4.128-1.397-12.441-5.512-18.473-9.145s-14.006-7.73-17.719-9.105-8.027-2.893-9.586-3.374c-2.647-.817-2.789-.528-2.135 4.347.385 2.872.346 6.635-.088 8.363s-3.206 5.888-6.16 9.244-5.034 6.648-4.622 7.315 3.512 2.154 6.888 3.304 9.484 2.092 13.573 2.092c5.234 0 9.147-.9 13.219-3.041 3.182-1.673 6.966-4.898 8.41-7.168s3.025-4.15 3.515-4.178 1.288 3.137 1.775 7.032.498 8.843.026 10.994-2.333 5.904-4.135 8.339-6.446 10.924-10.321 18.865-9.906 17.957-13.404 22.259-8.715 9.482-11.595 11.512-8.108 5.199-11.617 7.041-9.711 3.879-13.781 4.526c-5.142.817-9.855.665-15.447-.498-4.426-.921-11.499-3.708-15.716-6.194s-10.391-7.264-13.718-10.618-8.286-9.466-11.018-13.583-7.034-12.3-9.559-18.184-5.674-11.887-7-13.341-3.279-4.724-4.342-7.267c-1.344-3.218-1.707-7.105-1.193-12.779.407-4.485 1.208-8.154 1.781-8.154s1.405 1.144 1.849 2.543 3.522 4.341 6.84 6.538 8.073 4.379 10.567 4.846 7.658.528 11.476.134 8.78-1.667 11.027-2.829 4.085-2.592 4.085-3.178-2.335-3.52-5.189-6.52c-3.234-3.399-5.532-7.283-6.099-10.308-.503-2.682-.288-6.503.481-8.54.834-2.21.894-3.687.151-3.687-.682 0-5.872 1.786-11.532 3.969s-14.353 6.612-19.317 9.842-12.779 7.055-17.367 8.5c-5.359 1.688-11.992 2.627-18.552 2.627-5.851 0-13.037-.913-16.83-2.138-3.641-1.176-8.763-3.905-11.384-6.065s-7.419-7.956-10.663-12.88-7.951-10.755-10.46-12.958-6.884-5.19-9.723-6.638-6.006-2.633-7.038-2.633c-1.24 0-2.872 3.677-4.805 10.828-2.281 8.435-2.778 13.004-2.249 20.672.374 5.414 1.962 13.683 3.529 18.375s5.24 12.587 8.161 17.545 9.393 13.31 14.381 18.562 13.337 12.489 18.553 16.084 13.152 8.381 17.637 10.635 12.554 5.847 17.932 7.984 15.393 5.344 22.254 7.127 18.578 4.165 26.037 5.293 16.218 2.29 19.467 2.583 18.014.35 32.813.126c20.255-.306 30.934-1.111 43.199-3.255zm-90.362-164.104c1.792-.959 2.539-2.756 2.539-6.109 0-3.836-1.012-5.713-5.253-9.748-2.9-2.758-7.632-5.638-10.565-6.427-2.921-.787-6.464-1.064-7.873-.617s-3.152 1.916-3.873 3.263c-.884 1.652-.855 3.654.089 6.146.77 2.032 2.69 5.102 4.266 6.822s5.228 4.217 8.116 5.549 6.322 2.436 7.633 2.452 3.526-.583 4.922-1.33zm94.138-1.146c2.678-1.378 6.483-4.204 8.456-6.282s3.955-5.62 4.405-7.873c.691-3.453.273-4.455-2.661-6.377-3.005-1.969-4.206-2.063-8.796-.688-3.096.927-7.729 4.007-11.097 7.374-4.244 4.244-5.782 6.821-5.782 9.689 0 2.336.923 4.445 2.297 5.245 1.263.736 3.649 1.356 5.302 1.378s5.197-1.087 7.875-2.465zm-64.23-149.417c1.497-1.263 8.057-11.747 14.576-23.297s11.857-22.417 11.861-24.148-2.636-7.995-5.865-13.92-6.753-11.504-7.831-12.398-2.578-1.419-3.335-1.167-10.77 16.922-22.25 37.044-20.564 37.395-20.184 38.384c.528 1.377 4.167 1.799 15.498 1.799 12.191 0 15.289-.406 17.53-2.297zm57.333.911c.471-.762-2.858-7.876-7.398-15.808-6.649-11.616-8.769-14.347-10.9-14.036-1.804.263-5.109 4.654-10.394 13.811-4.436 7.685-7.422 14.279-6.983 15.422.632 1.646 3.761 1.997 17.793 1.997 10.536 0 17.353-.528 17.883-1.386z" fill="#fddba6"/><path d="M217.324 493.458c-5.775-.692-17.622-2.695-26.327-4.451s-21.994-5.335-29.531-7.952-18.938-7.455-25.334-10.751-14.55-8.301-18.12-11.123-7.646-7.01-9.059-9.308-3.208-6.519-3.991-9.381c-1.046-3.824-4.955-8.894-14.75-19.127-7.33-7.658-17.291-19.491-22.136-26.296s-11.851-17.843-15.569-24.529-9.351-18.611-12.519-26.5-7.478-21.38-9.578-29.979-4.536-21.342-5.414-28.318c-.996-7.913-1.342-21.191-.921-35.302.371-12.44 1.605-27.647 2.742-33.793s3.599-16.482 5.471-22.969 5.728-17.605 8.569-24.706 8.457-18.777 12.48-25.945 11.8-19.077 17.283-26.463S86.253 97.515 93.175 90.65s17.81-16.394 24.195-21.175 17.902-12.282 25.594-16.669 19.892-10.328 27.11-13.203 18.433-6.758 24.92-8.63 16.823-4.334 22.969-5.471 21.352-2.371 33.793-2.742c14.127-.422 27.432-.074 35.437.927 7.05.881 20.55 3.544 29.999 5.917S340.854 36.655 348.777 40s19.828 9.185 26.457 12.979 16.997 10.552 23.042 15.016 15.793 12.635 21.663 18.157 14.437 14.554 19.038 20.072 11.741 15.054 15.866 21.19 10.974 18.244 15.221 26.906 9.772 21.952 12.277 29.531 5.905 19.983 7.557 27.563c2.667 12.24 3.006 17.378 3.027 45.937.02 26.249-.416 34.206-2.372 43.313-1.318 6.136-3.57 15.291-5.006 20.344s-4.13 13.322-5.988 18.375-6.317 15.094-9.909 22.313-9.197 17.259-12.456 22.313-9.636 13.913-14.172 19.688-12.989 15.176-18.785 20.891c-8.425 8.308-11.46 11.391-12.55 15.293-.755 2.704-2.047 7.526-3.986 10.413s-4.797 6.711-7.309 8.587-8.066 5.476-12.341 8.001-13.352 6.913-20.171 9.751-17.792 6.625-24.384 8.416-19.072 4.527-27.735 6.081c-13.097 2.35-21.83 2.89-51.844 3.207-19.852.209-40.819-.185-46.594-.877zm75.469-15.681c8.302-.758 22.216-2.804 30.922-4.546s21.334-4.967 28.063-7.166 17.1-6.278 23.047-9.065 14.309-7.442 18.584-10.344 8.527-6.187 9.449-7.299 1.489-3.822 1.26-6.022l-.418-4.001-8.531 5.997c-4.692 3.298-13.552 8.529-19.687 11.624s-15.461 7.174-20.722 9.065-15.376 4.91-22.479 6.711-19.335 4.304-27.185 5.564c-10.784 1.731-22.128 2.288-46.427 2.281-24.686-.008-35.51-.558-46.594-2.369-7.941-1.298-20.344-3.837-27.562-5.642s-19.031-5.59-26.25-8.41-17.85-7.82-23.625-11.111-12.68-7.731-15.345-9.868-5.175-3.885-5.578-3.885-.733 1.515-.733 3.368.585 4.461 1.3 5.797 5.495 5.218 10.621 8.626 15.083 8.732 22.126 11.832 17.875 7.105 24.07 8.901 16.178 4.273 22.183 5.504 17.71 2.983 26.012 3.894 24.839 1.72 36.75 1.799 28.448-.476 36.75-1.234zm15.636-39.305c8.961-1.567 22.25-4.607 29.531-6.756s19.181-6.733 26.444-10.186 16.465-8.364 20.45-10.913 10.405-7.441 14.267-10.871 9.863-9.555 13.334-13.612 8.673-12.1 11.559-17.875 6.473-15.208 7.972-20.962c2.376-9.121 2.54-11.56 1.278-19.031-.796-4.713-2.383-11.522-3.527-15.132s-2.45-6.977-2.903-7.483-3.299.187-6.323 1.541-8.178 4.932-11.454 7.951-8.312 9.221-11.192 13.782-7.207 9.795-9.615 11.631-6.671 4.298-9.474 5.469-9.268 2.431-14.367 2.801c-6.185.448-12.33-.047-18.459-1.488-6.165-1.449-13.074-4.506-21-9.292-6.497-3.923-15.356-8.551-19.687-10.286s-9.255-3.576-10.941-4.093c-2.765-.847-2.926-.678-1.641 1.724.784 1.465 1.425 4.933 1.425 7.707s-.975 6.505-2.167 8.289-3.916 5.114-6.054 7.397-3.524 4.739-3.081 5.455 3.568 2.244 6.944 3.395 9.484 2.092 13.573 2.092c5.234 0 9.147-.9 13.219-3.041 3.182-1.673 6.966-4.898 8.41-7.168s3.025-4.15 3.515-4.178 1.288 3.137 1.775 7.032.498 8.843.026 10.994-2.333 5.904-4.135 8.339-6.446 10.924-10.321 18.865-9.906 17.957-13.404 22.259-8.715 9.482-11.595 11.512-8.108 5.199-11.617 7.041-9.711 3.879-13.781 4.526c-5.142.817-9.855.665-15.447-.498-4.426-.921-11.499-3.708-15.716-6.194s-10.391-7.264-13.718-10.618-8.286-9.466-11.018-13.583-7.034-12.3-9.559-18.184-5.674-11.887-7-13.341-3.279-4.724-4.342-7.267c-1.344-3.218-1.707-7.105-1.193-12.779.407-4.485 1.208-8.154 1.781-8.154s1.405 1.144 1.849 2.543 3.522 4.341 6.84 6.538 8.073 4.379 10.567 4.846 7.658.528 11.476.134 8.78-1.667 11.027-2.829 4.085-2.592 4.085-3.178-2.335-3.52-5.189-6.52c-3.112-3.272-5.536-7.303-6.055-10.073-.477-2.54-.571-5.645-.21-6.9s1.089-3.334 1.619-4.622c.833-2.025-.516-1.801-10.023 1.665-6.042 2.203-16.301 7.215-22.798 11.138s-15.333 8.047-19.635 9.164-11.095 2.024-15.094 2.015-10.435-.858-14.302-1.887-9.352-3.408-12.19-5.285-7.278-6.787-9.868-10.91-7.441-10.37-10.779-13.882-8.983-7.763-12.543-9.446-6.89-2.802-7.399-2.487-2.246 5.451-3.858 11.414c-2.285 8.449-2.782 13.015-2.252 20.686.374 5.414 1.962 13.683 3.529 18.375s5.24 12.587 8.161 17.545 9.393 13.31 14.381 18.562 13.337 12.489 18.553 16.084 13.152 8.381 17.637 10.635 12.554 5.847 17.932 7.984 15.393 5.344 22.254 7.127 18.578 4.165 26.037 5.293 16.218 2.29 19.467 2.583 18.014.35 32.813.126c20.255-.306 30.934-1.111 43.199-3.255zm-88.452-164.928c1.518-1.518 1.952-3.418 1.425-6.234-.472-2.521-3.026-6.141-6.761-9.584-3.538-3.262-7.853-5.88-10.51-6.379-2.479-.465-5.979-.476-7.778-.025-2.087.524-3.584 2.072-4.138 4.28-.573 2.285-.023 5.031 1.621 8.089 1.369 2.547 5.115 6.297 8.324 8.333 3.717 2.359 7.613 3.703 10.734 3.703 2.819 0 5.826-.927 7.083-2.184zm94.434-.811c2.866-1.623 6.558-4.949 8.203-7.391s2.992-5.787 2.992-7.433-.928-3.922-2.062-5.056-3.458-2.062-5.165-2.062-4.586.564-6.4 1.254-5.622 3.354-8.463 5.92-5.903 6.447-6.804 8.623c-1.416 3.419-1.32 4.309.706 6.548 1.517 1.676 4.012 2.584 7.064 2.57 2.595-.012 7.063-1.35 9.93-2.973zm-212.159-44.9c-.985-5.419-1.643-19.178-1.601-33.481.058-19.753.58-26.484 2.801-36.094 1.502-6.497 3.997-15.18 5.544-19.296s4.424-9.136 6.392-11.156 4.742-4.365 6.164-5.212c2.5-1.489 2.493-1.518-.202-.875-1.533.366-4.89 2.398-7.461 4.517-3.416 2.816-5.767 6.687-8.735 14.384-2.234 5.792-5.208 15.379-6.609 21.303s-3.208 17.86-4.016 26.522-1.099 20.77-.649 26.906 1.476 16.738 2.28 23.559l1.461 12.403 3.151-7.141c3.001-6.801 3.072-7.579 1.48-16.34zm320.853-21.012c.069-16.996-.531-27.015-2.138-35.705-1.229-6.644-3.771-16.685-5.65-22.312s-4.497-12.373-5.819-14.989-4.246-6.308-6.499-8.203-4.641-3.446-5.308-3.446 1.113 2.325 3.955 5.167c3.94 3.94 5.95 7.646 8.465 15.609 1.814 5.743 4.29 17.15 5.502 25.349 1.695 11.472 2.017 19.595 1.394 35.251-.445 11.189-1.416 23.294-2.157 26.899-1.181 5.743-.98 7.398 1.625 13.349l2.974 6.794 1.78-10.068c1.025-5.798 1.821-20.088 1.876-33.693zm-304.761 25.398c4.347-7.347 11.594-16.752 18.67-24.23 6.36-6.722 15.151-14.918 19.534-18.212s11.819-8.144 16.525-10.775 12.69-6.467 17.742-8.523c8.739-3.556 9.307-3.628 11.687-1.474 1.852 1.676 4.783 2.257 11.287 2.237 4.832-.015 11.792-1.038 15.468-2.275s7.897-3.381 9.382-4.764 2.949-3.263 3.254-4.177c.414-1.243 5.154-1.626 18.837-1.52 10.621.082 23.784 1.084 31.408 2.392 7.219 1.238 18.232 3.919 24.473 5.957s15.987 6.052 21.656 8.918 14.532 8.194 19.694 11.839 13.243 10.484 17.957 15.198 11.168 11.975 14.341 16.135 7.766 10.935 10.207 15.055 4.662 7.268 4.936 6.994-1.138-3.35-3.137-6.836-7.092-11.441-11.317-17.678-12.952-16.422-19.394-22.632-15.915-14.01-21.052-17.332-13.135-7.763-17.775-9.867-12.907-5.285-18.372-7.068-15.357-4.231-21.983-5.437c-8.049-1.466-19.234-2.201-33.703-2.215-15.015-.015-25.279.666-33.469 2.219-6.497 1.233-15.652 3.452-20.344 4.933s-12.662 4.446-17.711 6.59-14.801 7.641-21.672 12.216c-7.32 4.873-16.848 12.857-23.01 19.282-5.785 6.031-13.833 15.985-17.885 22.121s-8.92 14.257-10.817 18.047-3.241 6.891-2.986 6.891 3.661-5.404 7.569-12.008zm130.248-109.07c1.757-1.624 8.287-11.944 14.511-22.933 7.338-12.957 11.316-21.38 11.316-23.963 0-2.378-2.705-8.74-6.71-15.785-4.573-8.042-7.467-11.802-9.086-11.802-1.73 0-7.527 9.012-21.319 33.141l-21.155 37.445c-1.217 2.367-1.858 4.877-1.425 5.578s7.486 1.274 15.73 1.274c13.675 0 15.214-.251 18.138-2.953zm56.82 1.068c.398-1.037-2.892-8.07-7.31-15.629s-8.841-14.054-9.829-14.433-2.686.305-3.773 1.519-4.982 7.423-8.655 13.796-6.677 12.723-6.677 14.109c0 2.363 1.118 2.521 17.76 2.521 14.226 0 17.904-.375 18.483-1.885z" fill="#afafd5"/><path d="M231.105 494.139l-17.062-1.931c-6.858-.773-19.215-2.895-27.459-4.716s-20.057-5.09-26.25-7.265-17.064-6.926-24.16-10.558-15.714-8.828-19.152-11.546c-3.703-2.927-7.407-7.399-9.084-10.967-1.558-3.314-2.832-7.48-2.832-9.259 0-2.216-1.706-4.596-5.421-7.561-2.981-2.38-10.113-9.643-15.848-16.14s-14.779-18.309-20.096-26.25-12.927-21.23-16.909-29.531-8.975-20.423-11.097-26.936-5.064-17.44-6.539-24.281-3.385-18.936-4.243-26.876c-.922-8.529-1.244-21.689-.787-32.156.425-9.745 1.999-24.438 3.497-32.651s4.837-21.502 7.421-29.531 7.478-20.505 10.877-27.724 9.286-18.122 13.082-24.23 10.642-15.853 15.212-21.656 13.824-15.95 20.565-22.549 16.581-15.298 21.87-19.331 14.581-10.333 20.65-13.999 16.005-8.995 22.079-11.841 18.044-7.51 26.6-10.363 22.348-6.42 30.65-7.927 23.067-3.088 32.813-3.513c10.467-.457 23.627-.135 32.156.787 7.941.858 20.048 2.769 26.906 4.246s17.784 4.44 24.281 6.585 18.47 7.074 26.608 10.954 19.95 10.401 26.25 14.49 15.589 10.735 20.642 14.769 14.033 12.249 19.956 18.256 15.132 16.716 20.466 23.796 12.661 18.139 16.283 24.575 8.527 16.132 10.899 21.546 6.017 14.864 8.1 21 5.281 18.244 7.107 26.906c2.536 12.034 3.494 21.324 4.059 39.375.573 18.301.246 27.027-1.45 38.719-1.205 8.302-3.616 20.517-5.359 27.145s-5.316 17.85-7.94 24.938-7.7 18.422-11.28 25.189-9.447 16.655-13.037 21.975-10.86 14.845-16.155 21.166-13.254 14.943-17.685 19.16c-6.005 5.713-8.057 8.573-8.057 11.227 0 1.959-1.741 6.307-3.869 9.662s-6.705 8.177-10.172 10.714-12.209 7.535-19.428 11.106-18.978 8.344-26.132 10.605-17.194 4.999-22.312 6.083-15.212 2.867-22.431 3.962c-7.717 1.17-25.293 2.174-42.656 2.436-16.242.245-31.598.209-34.125-.081zm74.156-10.574c8.663-1.115 22.321-3.684 30.353-5.709s20.139-5.882 26.906-8.573 16.243-7.178 21.058-9.972 10.654-6.677 12.975-8.63 5.026-5.479 6.011-7.836 1.79-6.371 1.79-8.921-.205-4.636-.455-4.636-5.263 3.218-11.138 7.15-15.181 9.285-20.678 11.894-15.99 6.741-23.315 9.182-19.226 5.628-26.444 7.083-18.736 3.363-25.594 4.241-23.986 1.596-38.062 1.596-31.205-.718-38.062-1.596-18.375-2.783-25.594-4.233-19.327-4.743-26.906-7.317-19.097-7.337-25.594-10.585-15.462-8.494-19.923-11.659-8.447-5.755-8.859-5.755-.749 1.76-.749 3.911.963 6.317 2.139 9.258c1.311 3.275 4.379 7.057 7.92 9.761 3.18 2.428 10.929 7.062 17.22 10.298s16.57 7.685 22.841 9.887 18.379 5.467 26.906 7.257 21.41 3.891 28.629 4.669l20.344 1.911c3.97.272 16.964.238 28.875-.076s28.744-1.484 37.406-2.6zm1.969-24.653c6.858-1.177 17.959-3.591 24.67-5.366s18.326-5.622 25.811-8.548 18.678-8.503 24.872-12.392 14.024-9.327 17.401-12.084 9.25-8.778 13.052-13.378 8.958-12.278 11.458-17.062 5.518-11.947 6.706-15.918 2.668-11.6 3.288-16.956c.629-5.435.628-15.003-.003-21.656-.622-6.556-2.356-15.881-3.853-20.723s-3.176-9.084-3.729-9.426-3.456.474-6.449 1.814-8.122 4.907-11.397 7.926-8.312 9.221-11.192 13.782-7.207 9.795-9.615 11.631-6.671 4.298-9.474 5.469-9.268 2.431-14.367 2.801c-6.185.448-12.33-.047-18.459-1.488-6.165-1.449-13.074-4.506-21-9.292-6.497-3.923-15.356-8.551-19.687-10.286s-9.151-3.543-10.71-4.02c-2.637-.805-2.787-.51-2.153 4.221.438 3.263-.058 6.52-1.383 9.082-1.136 2.197-4.007 5.636-6.379 7.642s-7.414 5.073-11.203 6.815-6.891 3.669-6.891 4.282 2.484 3.241 5.521 5.84 8.459 5.598 12.051 6.665 8.342 1.925 10.557 1.907 6.685-.637 9.934-1.377 8.058-2.759 10.689-4.488c3.111-2.045 6.158-5.895 8.717-11.016 2.164-4.33 4.293-7.513 4.733-7.073s.797 3.211.794 6.158c-.003 3.079-1.169 7.314-2.74 9.953-1.504 2.527-4.782 6.366-7.283 8.531-3.541 3.065-5.42 6.554-8.486 15.75-2.166 6.497-6.276 15.768-9.135 20.602s-7.996 11.648-11.415 15.142-9.17 7.798-12.78 9.565c-5.552 2.719-8.482 3.215-19.031 3.227-11.047.012-13.217-.388-19.031-3.515-3.609-1.941-8.132-4.891-10.05-6.556s-5.652-5.933-8.297-9.485-6.465-9.754-8.488-13.781-5.082-11.731-6.797-17.118c-2.592-8.141-4.264-10.912-9.903-16.406-4.873-4.749-7.04-7.995-7.691-11.524-.499-2.702-.486-6.541.029-8.531.914-3.535 1.003-3.467 3.869 2.959 1.613 3.617 4.801 8.444 7.083 10.726s6.364 4.92 9.072 5.863 9.353 1.715 14.767 1.717c7.024.001 11.16-.689 14.437-2.413 2.527-1.328 6.778-4.507 9.447-7.064l4.853-4.649-9.404-4.723c-6.645-3.337-10.708-6.442-13.851-10.585-3.838-5.059-4.362-6.622-3.822-11.409l.625-5.547-10.658 3.886c-5.862 2.137-15.974 7.096-22.471 11.019s-15.333 8.047-19.635 9.164-11.095 2.024-15.094 2.015-10.435-.858-14.301-1.887-9.352-3.408-12.19-5.285-7.278-6.787-9.868-10.91-7.441-10.37-10.779-13.882-9.024-7.789-12.633-9.503c-5.943-2.822-6.71-2.918-8.129-1.012-.861 1.158-2.781 7.279-4.266 13.603-1.865 7.944-2.693 15.909-2.68 25.773.011 8.148.88 17.928 2.025 22.786 1.103 4.681 4.03 12.719 6.504 17.862s7.692 13.421 11.597 18.395 10.903 12.116 15.551 15.871 12.486 9.279 17.418 12.275 13.574 7.419 19.204 9.829 14.844 5.832 20.475 7.604 16.439 4.469 24.018 5.993 18.211 3.317 23.625 3.984 23.723 1.017 40.688.778c20.682-.291 34.952-1.138 43.313-2.573zm-87.254-185.37c1.518-1.518 1.952-3.418 1.425-6.234-.472-2.521-3.026-6.141-6.761-9.584-3.538-3.262-7.853-5.88-10.51-6.379-2.479-.465-5.979-.476-7.778-.025-2.087.524-3.584 2.072-4.138 4.28-.573 2.285-.023 5.031 1.621 8.089 1.369 2.547 5.115 6.297 8.324 8.333 3.717 2.359 7.613 3.703 10.734 3.703 2.819 0 5.826-.927 7.083-2.184zm94.434-.811c2.866-1.623 6.558-4.949 8.203-7.391s2.992-5.787 2.992-7.433-.928-3.922-2.062-5.056-3.458-2.062-5.165-2.062-4.586.564-6.4 1.254-5.622 3.354-8.463 5.92-5.903 6.447-6.804 8.623c-1.416 3.419-1.32 4.309.706 6.548 1.517 1.676 4.012 2.584 7.064 2.57 2.595-.012 7.063-1.35 9.93-2.973zm-211.878-43.837c-.775-4.462-1.772-15.389-2.214-24.281-.453-9.092-.171-21.913.643-29.293.796-7.219 2.654-17.85 4.128-23.625s4.223-13.665 6.108-17.533c2.222-4.559 5.006-7.964 7.912-9.678 2.466-1.455 4.175-2.954 3.798-3.331s-3.083.901-6.014 2.84-6.436 5.348-7.79 7.575-4.269 9.498-6.477 16.157-5.003 17.66-6.21 24.445c-1.365 7.673-2.226 19.78-2.278 32.024-.045 10.828.714 25.872 1.688 33.43l1.771 13.742 3.172-7.18c2.91-6.585 3.056-7.852 1.763-15.293zm320.573-22.075c.069-16.996-.531-27.015-2.138-35.705-1.229-6.644-3.77-16.685-5.648-22.312s-4.296-12.004-5.374-14.17-3.22-5.323-4.76-7.015-4.394-3.908-6.344-4.922-4.006-1.844-4.57-1.844 1.118 1.457 3.738 3.237 5.948 5.177 7.395 7.547 3.848 8.289 5.336 13.153 3.689 15.495 4.89 23.625c1.676 11.338 1.996 19.521 1.376 35.126-.445 11.189-1.416 23.294-2.157 26.899-1.181 5.743-.98 7.398 1.625 13.349l2.974 6.794 1.78-10.068c1.025-5.798 1.821-20.088 1.876-33.693zm-304.761 25.398c4.347-7.347 11.594-16.752 18.67-24.23 6.36-6.722 15.151-14.918 19.534-18.212s11.819-8.144 16.525-10.775 12.69-6.467 17.742-8.523c8.739-3.556 9.307-3.628 11.687-1.474 1.852 1.676 4.783 2.257 11.287 2.237 4.832-.015 11.792-1.038 15.468-2.275s7.897-3.381 9.382-4.764 2.949-3.263 3.254-4.177c.414-1.243 5.154-1.626 18.837-1.52 10.621.082 23.784 1.084 31.408 2.392 7.219 1.238 18.232 3.919 24.473 5.957s15.987 6.052 21.656 8.918 14.532 8.194 19.694 11.839 13.243 10.484 17.957 15.198 11.168 11.975 14.341 16.135 8.231 11.698 11.238 16.751 5.472 8.543 5.476 7.756-2.864-6.208-6.372-12.046-9.047-14.349-12.307-18.913-11.016-13.18-17.236-19.146-15.491-13.554-20.602-16.861-13.09-7.734-17.73-9.837-12.907-5.285-18.372-7.068-15.357-4.231-21.983-5.437c-8.049-1.466-19.234-2.201-33.703-2.215-15.015-.015-25.279.666-33.469 2.219-6.497 1.233-15.652 3.452-20.344 4.933s-12.566 4.405-17.498 6.5-14.073 7.137-20.315 11.205-15.416 11.309-20.387 16.091-11.721 12.165-15 16.408-9.413 13.375-13.631 20.293-7.67 13.045-7.67 13.614.199 1.035.441 1.035 3.639-5.404 7.547-12.008zm130.248-109.07c1.757-1.624 8.287-11.944 14.511-22.933 7.338-12.957 11.316-21.38 11.316-23.963 0-2.378-2.705-8.74-6.71-15.785-4.573-8.042-7.467-11.802-9.086-11.802-1.73 0-7.527 9.012-21.319 33.141l-21.155 37.445c-1.217 2.367-1.858 4.877-1.425 5.578s7.486 1.274 15.73 1.274c13.675 0 15.214-.251 18.138-2.953zm56.82 1.068c.398-1.037-2.892-8.07-7.31-15.629s-8.841-14.054-9.829-14.433-2.686.305-3.773 1.519-4.982 7.423-8.655 13.796-6.677 12.723-6.677 14.109c0 2.363 1.118 2.521 17.76 2.521 14.226 0 17.904-.375 18.483-1.885z" fill="#fd8c8f"/><path d="M231.105 494.139l-17.062-1.931c-6.858-.773-19.215-2.895-27.459-4.716s-20.057-5.09-26.25-7.265-17.064-6.926-24.16-10.558-15.714-8.828-19.152-11.546c-3.703-2.927-7.407-7.399-9.084-10.967-1.558-3.314-2.832-7.48-2.832-9.259 0-2.216-1.706-4.596-5.421-7.561-2.981-2.38-10.113-9.643-15.848-16.14s-14.779-18.309-20.096-26.25-12.927-21.23-16.909-29.531-8.975-20.423-11.097-26.936-5.064-17.44-6.539-24.281-3.385-18.936-4.243-26.876c-.922-8.529-1.244-21.689-.787-32.156.425-9.745 1.999-24.438 3.497-32.651s4.837-21.502 7.421-29.531 7.478-20.505 10.877-27.724 9.286-18.122 13.082-24.23 10.642-15.853 15.212-21.656 13.824-15.95 20.565-22.549 16.581-15.298 21.87-19.331 14.581-10.333 20.65-13.999 16.005-8.995 22.079-11.841 18.044-7.51 26.6-10.363 22.348-6.42 30.65-7.927 23.067-3.088 32.813-3.513c10.467-.457 23.627-.135 32.156.787 7.941.858 20.048 2.769 26.906 4.246s17.784 4.44 24.281 6.585 18.47 7.074 26.608 10.954 19.95 10.401 26.25 14.49 15.589 10.735 20.642 14.769 14.033 12.249 19.956 18.256 15.132 16.716 20.466 23.796 12.661 18.139 16.283 24.575 8.527 16.132 10.899 21.546 6.017 14.864 8.1 21 5.281 18.244 7.107 26.906c2.536 12.034 3.494 21.324 4.059 39.375.573 18.301.246 27.027-1.45 38.719-1.205 8.302-3.616 20.517-5.359 27.145s-5.316 17.85-7.94 24.938-7.7 18.422-11.28 25.189-9.447 16.655-13.037 21.975-10.86 14.845-16.155 21.166-13.254 14.943-17.685 19.16c-6.005 5.713-8.057 8.573-8.057 11.227 0 1.959-1.741 6.307-3.869 9.662s-6.705 8.177-10.172 10.714-12.209 7.535-19.428 11.106-18.978 8.344-26.132 10.605-17.194 4.999-22.312 6.083-15.212 2.867-22.431 3.962c-7.717 1.17-25.293 2.174-42.656 2.436-16.242.245-31.598.209-34.125-.081zm74.156-10.574c8.663-1.115 22.321-3.684 30.353-5.709s20.139-5.882 26.906-8.573 16.243-7.178 21.058-9.972 10.654-6.677 12.975-8.63 5.026-5.479 6.011-7.836 1.79-6.371 1.79-8.921-.205-4.636-.455-4.636-5.263 3.218-11.138 7.15-15.181 9.285-20.678 11.894-15.99 6.741-23.315 9.182-19.226 5.628-26.444 7.083-18.736 3.363-25.594 4.241-23.986 1.596-38.062 1.596-31.205-.718-38.062-1.596-18.375-2.783-25.594-4.233-19.327-4.743-26.906-7.317-19.097-7.337-25.594-10.585-15.462-8.494-19.923-11.659-8.447-5.755-8.859-5.755-.749 1.76-.749 3.911.963 6.317 2.139 9.258c1.311 3.275 4.379 7.057 7.92 9.761 3.18 2.428 10.929 7.062 17.22 10.298s16.57 7.685 22.841 9.887 18.379 5.467 26.906 7.257 21.41 3.891 28.629 4.669l20.344 1.911c3.97.272 16.964.238 28.875-.076s28.744-1.484 37.406-2.6zm1.969-24.653c6.858-1.177 17.959-3.591 24.67-5.366s18.326-5.622 25.811-8.548 18.678-8.503 24.872-12.392 14.024-9.327 17.401-12.084 9.25-8.778 13.052-13.378 8.958-12.278 11.458-17.062 5.518-11.947 6.706-15.918 2.667-11.594 3.286-16.941.635-14.954.036-21.347-2.406-16.057-4.015-21.475c-2.631-8.862-3.201-9.765-5.679-9-1.515.468-4.822 1.907-7.348 3.198s-7.044 4.907-10.039 8.035-7.57 9.051-10.167 13.163-6.684 8.973-9.083 10.802-6.972 4.247-10.164 5.373-9.181 2.401-13.309 2.832-11.221.062-15.763-.82-11.948-3.622-16.46-6.088l-16.643-9.116c-4.642-2.548-11.822-5.797-15.955-7.219l-7.841-2.586c-.179 0-.022 2.266.35 5.036.431 3.21-.074 6.485-1.39 9.031-1.136 2.197-4.007 5.636-6.379 7.642s-7.414 5.073-11.203 6.815-6.891 3.669-6.891 4.282 2.484 3.241 5.521 5.84 8.459 5.598 12.051 6.665 8.342 1.925 10.557 1.907 6.685-.637 9.934-1.377 8.058-2.759 10.689-4.488c3.111-2.045 6.158-5.895 8.717-11.016 2.164-4.33 4.293-7.513 4.733-7.073s.797 3.211.794 6.158c-.003 3.079-1.169 7.314-2.74 9.953-1.504 2.527-4.782 6.366-7.283 8.531-3.541 3.065-5.42 6.554-8.486 15.75-2.166 6.497-6.276 15.768-9.135 20.602s-7.996 11.648-11.415 15.142-9.17 7.798-12.78 9.565c-5.552 2.719-8.482 3.215-19.031 3.227-11.046.012-13.217-.388-19.031-3.515-3.609-1.941-8.132-4.891-10.05-6.556s-5.652-5.933-8.297-9.485-6.465-9.754-8.488-13.781-5.082-11.731-6.797-17.118c-2.592-8.141-4.264-10.912-9.903-16.406-4.873-4.749-7.04-7.995-7.691-11.524-.499-2.702-.486-6.541.029-8.531.914-3.535 1.003-3.467 3.869 2.959 1.613 3.617 4.801 8.444 7.083 10.726s6.364 4.92 9.072 5.863 9.353 1.715 14.767 1.717c7.024.001 11.16-.689 14.437-2.413 2.527-1.328 6.778-4.507 9.447-7.064l4.853-4.649-9.404-4.723c-6.645-3.337-10.708-6.442-13.851-10.585-3.867-5.096-4.364-6.601-3.81-11.523.596-5.288.454-5.606-2.158-4.819-1.538.463-7.061 2.595-12.273 4.739s-13.185 6.302-17.719 9.241-11.452 6.479-15.375 7.866-11.011 2.845-15.75 3.242c-5.804.486-11.322.028-16.903-1.403-4.557-1.168-10.853-3.891-13.991-6.049s-7.037-6.148-8.664-8.865-5.029-7.717-7.558-11.111-7.009-7.879-9.956-9.967-7.273-4.447-9.615-5.243c-3.696-1.256-4.432-1.121-5.577 1.019-.726 1.356-2.497 7.378-3.936 13.382-1.8 7.508-2.614 15.425-2.607 25.354.006 8.328.859 18.039 2.016 22.949 1.103 4.681 4.03 12.719 6.504 17.862s7.692 13.421 11.597 18.395 10.903 12.116 15.551 15.871 12.486 9.279 17.418 12.275 13.574 7.419 19.204 9.829 14.844 5.832 20.475 7.604 16.439 4.469 24.018 5.993 18.211 3.317 23.625 3.984 23.723 1.017 40.687.778c20.682-.291 34.952-1.138 43.313-2.573zM38.053 221.914c1.588-7.58 4.954-19.983 7.48-27.562s7.116-19.097 10.2-25.594 8.919-17.128 12.967-23.625 11.165-16.537 15.816-22.312 13.697-15.523 20.101-21.662 16.074-14.458 21.488-18.486 14.569-10.181 20.344-13.673 15.328-8.584 21.229-11.316 16.845-7.014 24.321-9.515 20.071-5.846 27.99-7.433c10.024-2.009 21.268-3.087 37.017-3.549 13.685-.401 27.682-.05 35.438.89 7.05.854 18.859 2.981 26.243 4.726s19.196 5.328 26.25 7.962 16.242 6.506 20.417 8.605 11.558 6.182 16.406 9.074 7.367 4.011 5.597 2.487-7.356-5.188-12.412-8.141-14.535-7.859-21.063-10.901-18.366-7.619-26.307-10.17-22.037-5.915-31.326-7.476c-12.58-2.114-22.291-2.827-38.062-2.798-15.081.028-25.517.793-36.268 2.658-8.302 1.44-20.409 4.161-26.906 6.047s-18.051 6.058-25.675 9.272-19.599 9.341-26.611 13.616-17.606 11.585-23.544 16.245-16.17 14-22.738 20.755-15.45 17.038-19.738 22.85-10.589 15.331-14.002 21.154-8.499 15.871-11.3 22.33-6.616 16.564-8.478 22.456-4.581 16.588-6.045 23.77-3.262 20.337-3.997 29.234c-.747 9.046-.89 21.094-.324 27.333.984 10.852 1.033 10.547 1.808-11.156.543-15.223 1.714-26.692 3.685-36.094zM220.8 272.542c.798-1.751 1.103-4.569.679-6.262s-2.715-5.072-5.088-7.51-6.217-5.231-8.54-6.207-5.972-1.775-8.109-1.775-4.814.928-5.948 2.063-2.062 3.41-2.062 5.056 1.346 4.991 2.992 7.433 5.337 5.768 8.203 7.391c3.122 1.768 7.459 2.96 10.817 2.973 4.672.018 5.848-.509 7.057-3.163zm96.22-1.279c2.558-1.951 5.536-5.259 6.618-7.352s1.967-5.192 1.967-6.888-.709-3.793-1.575-4.659-3.73-1.575-6.365-1.575c-3.106 0-6.78 1.336-10.45 3.802-3.113 2.091-7.038 6.078-8.722 8.859s-3.065 5.754-3.068 6.605.986 2.54 2.2 3.754c1.659 1.659 3.764 2.057 8.476 1.604 4.106-.395 7.874-1.826 10.92-4.149zm-214.729-45.308c-.979-6.915-1.718-21.727-1.641-32.916.105-15.432.826-23.601 2.986-33.835 1.566-7.42 4.049-16.703 5.518-20.629 1.847-4.936 4.526-8.771 8.683-12.431 3.307-2.911 5.595-5.293 5.085-5.293s-2.217.663-3.794 1.473-4.476 2.973-6.443 4.807-5.366 7.634-7.554 12.89-5.124 14.462-6.524 20.459-3.25 17.104-4.111 24.684c-.907 7.993-1.242 20.397-.797 29.531.422 8.662 1.476 20.427 2.342 26.143l1.574 10.393 3.228-6.352c3.195-6.287 3.21-6.48 1.448-18.924zm320.521 3.62c1.007-9.119 1.308-21.597.8-33.129-.448-10.175-1.949-23.816-3.335-30.313s-4.355-16.802-6.599-22.9-5.703-12.795-7.686-14.883-5.201-4.628-7.151-5.647-4.017-1.842-4.594-1.829.884 1.261 3.248 2.774 5.708 5.195 7.432 8.181 4.346 9.408 5.826 14.272 3.676 15.495 4.878 23.625c1.631 11.028 1.991 19.449 1.418 33.157-.422 10.106-1.426 21.837-2.232 26.067-1.322 6.945-1.175 8.404 1.509 15.017 2.817 6.941 3.022 7.139 3.92 3.781.521-1.949 1.675-10.126 2.563-18.172zm-18.271 8.457c-2.158-4.275-7.525-13.156-11.926-19.736s-12.393-16.397-17.759-21.815-14.065-12.893-19.332-16.611-13.415-8.704-18.107-11.082-13.681-6.139-19.974-8.36-16.629-4.966-22.969-6.102-18.613-2.421-27.276-2.857c-9.411-.473-21.259-.15-29.437.803-7.528.877-19.089 2.965-25.691 4.64s-16.434 4.889-21.849 7.144-14.818 7.158-20.894 10.898-16.244 11.807-22.593 17.928-14.395 15.009-17.88 19.752-9.142 13.526-12.571 19.517-5.939 11.19-5.577 11.552 2.818-3.204 5.457-7.923 8.219-12.872 12.398-18.115 11.531-13.198 16.336-17.677 12.14-10.421 16.299-13.205 10.319-6.646 13.689-8.583 10.452-5.26 15.739-7.384c9.064-3.642 9.752-3.736 12.061-1.648 1.877 1.697 4.805 2.188 12.543 2.103 7.976-.087 11.689-.841 17.696-3.591 4.966-2.274 7.857-4.456 8.338-6.294.727-2.78 1.015-2.804 24.491-2.077 16.807.521 27.019 1.496 34.912 3.333 6.136 1.428 16.099 4.406 22.14 6.617s14.9 6.166 19.688 8.788 12.594 7.643 17.349 11.157 13.48 11.425 19.389 17.58 13.934 16.085 17.834 22.069 7.822 12.483 8.715 14.443 1.862 3.327 2.153 3.036-1.237-4.027-3.394-8.301zM248.13 123.805c2.168-1.985 9.265-13.033 15.771-24.551s11.829-21.857 11.829-22.976-3.158-7.642-7.018-14.496c-5.77-10.246-7.569-12.462-10.119-12.462-2.684 0-5.888 4.861-23.789 36.094-11.378 19.852-20.704 36.714-20.724 37.472s.672 2.087 1.538 2.953c1.021 1.021 6.325 1.575 15.073 1.575 12.895 0 13.674-.161 17.439-3.609zm56.888.808c1.052-1.671-.314-5.059-6.183-15.335-4.144-7.255-8.372-13.886-9.396-14.736s-2.613-1.258-3.531-.906-5.428 7.209-10.024 15.238c-7 12.23-8.085 14.923-6.687 16.607 1.367 1.647 4.628 1.943 18.07 1.644 13.486-.301 16.642-.747 17.752-2.511z" fill="#f7589d"/><path d="M231.105 494.139l-17.062-1.931c-6.858-.773-19.215-2.895-27.459-4.716s-20.057-5.09-26.25-7.265-17.064-6.926-24.16-10.558-15.714-8.828-19.152-11.546c-3.703-2.927-7.407-7.399-9.084-10.967-1.558-3.314-2.832-7.48-2.832-9.259 0-2.216-1.706-4.596-5.421-7.561-2.981-2.38-10.113-9.643-15.848-16.14s-14.779-18.309-20.096-26.25-12.927-21.23-16.909-29.531-8.975-20.423-11.097-26.936-5.064-17.44-6.539-24.281-3.385-18.936-4.243-26.876c-.922-8.529-1.244-21.689-.787-32.156.425-9.745 1.999-24.438 3.497-32.651s4.837-21.502 7.421-29.531 7.478-20.505 10.877-27.724 9.286-18.122 13.082-24.23 10.642-15.853 15.212-21.656 13.824-15.95 20.565-22.549 16.581-15.298 21.87-19.331 14.581-10.333 20.65-13.999 16.005-8.995 22.079-11.841 18.044-7.51 26.6-10.363 22.348-6.42 30.65-7.927 23.067-3.088 32.813-3.513c10.467-.457 23.627-.135 32.156.787 7.941.858 20.048 2.769 26.906 4.246s17.784 4.44 24.281 6.585 18.47 7.074 26.608 10.954 19.95 10.401 26.25 14.49 15.589 10.735 20.642 14.769 14.033 12.249 19.956 18.256 15.132 16.716 20.466 23.796 12.661 18.139 16.283 24.575 8.527 16.132 10.899 21.546 6.017 14.864 8.1 21 5.281 18.244 7.107 26.906c2.536 12.034 3.494 21.324 4.059 39.375.573 18.301.246 27.027-1.45 38.719-1.205 8.302-3.616 20.517-5.359 27.145s-5.316 17.85-7.94 24.938-7.7 18.422-11.28 25.189-9.447 16.655-13.037 21.975-10.86 14.845-16.155 21.166-13.254 14.943-17.685 19.16c-6.005 5.713-8.057 8.573-8.057 11.227 0 1.959-1.741 6.307-3.869 9.662s-6.705 8.177-10.172 10.714-12.209 7.535-19.428 11.106-18.978 8.344-26.132 10.605-17.194 4.999-22.312 6.083-15.212 2.867-22.431 3.962c-7.717 1.17-25.293 2.174-42.656 2.436-16.242.245-31.598.209-34.125-.081zm74.156-10.574c8.663-1.115 22.321-3.684 30.353-5.709s20.139-5.882 26.906-8.573 16.243-7.178 21.058-9.972 10.654-6.677 12.975-8.63 5.026-5.479 6.011-7.836 1.79-6.371 1.79-8.921-.205-4.636-.455-4.636-5.263 3.218-11.138 7.15-15.181 9.285-20.678 11.894-15.99 6.741-23.315 9.182-19.226 5.628-26.444 7.083-18.736 3.363-25.594 4.241-23.986 1.596-38.062 1.596-31.205-.718-38.062-1.596-18.375-2.783-25.594-4.233-19.327-4.743-26.906-7.317-19.097-7.337-25.594-10.585-15.462-8.494-19.923-11.659-8.447-5.755-8.859-5.755-.749 1.76-.749 3.911.963 6.317 2.139 9.258c1.311 3.275 4.379 7.057 7.92 9.761 3.18 2.428 10.929 7.062 17.22 10.298s16.57 7.685 22.841 9.887 18.379 5.467 26.906 7.257 21.41 3.891 28.629 4.669l20.344 1.911c3.97.272 16.964.238 28.875-.076s28.744-1.484 37.406-2.6zm1.969-24.653c6.858-1.177 17.959-3.591 24.67-5.366s18.326-5.622 25.811-8.548 18.678-8.503 24.872-12.392 14.024-9.327 17.401-12.084 9.25-8.778 13.052-13.378 8.958-12.278 11.458-17.062 5.518-11.947 6.706-15.918 2.667-11.594 3.286-16.941.635-14.954.036-21.347-2.406-16.057-4.015-21.475c-2.631-8.862-3.201-9.765-5.679-9-1.515.468-4.822 1.907-7.348 3.198s-7.044 4.907-10.039 8.035-7.57 9.051-10.167 13.163-6.684 8.973-9.083 10.802-6.972 4.247-10.164 5.373-9.181 2.401-13.309 2.832-11.221.062-15.763-.82-11.948-3.622-16.46-6.088l-16.643-9.116c-4.642-2.548-11.822-5.797-15.955-7.219l-7.841-2.586c-.179 0-.022 2.266.35 5.036.431 3.21-.074 6.485-1.39 9.031-1.136 2.197-4.007 5.636-6.379 7.642s-7.414 5.073-11.203 6.815-6.891 3.669-6.891 4.282 2.484 3.241 5.521 5.84 8.459 5.598 12.051 6.665 8.342 1.925 10.557 1.907 6.685-.637 9.934-1.377 8.058-2.759 10.689-4.488c3.111-2.045 6.158-5.895 8.717-11.016 2.164-4.33 4.293-7.513 4.733-7.073s.797 3.211.794 6.158c-.003 3.079-1.169 7.314-2.74 9.953-1.504 2.527-4.782 6.366-7.283 8.531-3.541 3.065-5.42 6.554-8.486 15.75-2.166 6.497-6.276 15.768-9.135 20.602s-7.996 11.648-11.415 15.142-9.17 7.798-12.78 9.565c-5.552 2.719-8.482 3.215-19.031 3.227-11.046.012-13.217-.388-19.031-3.515-3.609-1.941-8.132-4.891-10.05-6.556s-5.652-5.933-8.297-9.485-6.465-9.754-8.488-13.781-5.082-11.731-6.797-17.118c-2.592-8.141-4.264-10.912-9.903-16.406-4.873-4.749-7.04-7.995-7.691-11.524-.499-2.702-.486-6.541.029-8.531.914-3.535 1.003-3.467 3.869 2.959 1.613 3.617 4.801 8.444 7.083 10.726s6.364 4.92 9.072 5.863 9.353 1.715 14.767 1.717c7.024.001 11.16-.689 14.437-2.413 2.527-1.328 6.778-4.507 9.447-7.064l4.853-4.649-9.404-4.723c-6.645-3.337-10.708-6.442-13.851-10.585-3.867-5.096-4.364-6.601-3.81-11.523.596-5.288.454-5.606-2.158-4.819-1.538.463-7.061 2.595-12.273 4.739s-13.185 6.302-17.719 9.241-11.452 6.479-15.375 7.866-11.011 2.845-15.75 3.242c-5.804.486-11.322.028-16.903-1.403-4.557-1.168-10.853-3.891-13.991-6.049s-7.037-6.148-8.664-8.865-5.029-7.717-7.558-11.111-7.009-7.879-9.956-9.967-7.273-4.447-9.615-5.243c-3.696-1.256-4.432-1.121-5.577 1.019-.726 1.356-2.497 7.378-3.936 13.382-1.8 7.508-2.614 15.425-2.607 25.354.006 8.328.859 18.039 2.016 22.949 1.103 4.681 4.03 12.719 6.504 17.862s7.692 13.421 11.597 18.395 10.903 12.116 15.551 15.871 12.486 9.279 17.418 12.275 13.574 7.419 19.204 9.829 14.844 5.832 20.475 7.604 16.439 4.469 24.018 5.993 18.211 3.317 23.625 3.984 23.723 1.017 40.687.778c20.682-.291 34.952-1.138 43.313-2.573zM38.099 222.741c1.567-7.847 4.632-19.587 6.811-26.09s6.195-16.916 8.926-23.14 7.262-15.299 10.07-20.168 8.935-14.318 13.615-21 15.616-19.236 24.303-27.898 21.395-19.719 28.241-24.57 19.83-12.625 28.854-17.276 22.313-10.497 29.531-12.991 18.441-5.76 24.938-7.257 18.011-3.426 25.587-4.286c8.295-.942 21.87-1.276 34.125-.839 11.193.399 25.379 1.638 31.524 2.753s16.482 3.562 22.969 5.437 17.847 5.816 25.244 8.758 19.652 9.038 27.234 13.548 13.786 7.96 13.786 7.667-5.007-3.798-11.126-7.787-17.784-10.427-25.922-14.307-20.259-8.861-26.937-11.068-17.948-5.197-25.043-6.643-20.15-3.259-29.01-4.028c-11.227-.975-21.225-.988-32.993-.045-9.286.745-22.921 2.605-30.299 4.134s-19.357 4.823-26.62 7.32-19.201 7.441-26.528 10.985-19.435 10.551-26.906 15.569-18.199 13.268-23.839 18.333-14.402 13.823-19.47 19.463-13.563 16.753-18.877 24.694-12.305 20.049-15.536 26.906-7.989 18.582-10.574 26.055-5.868 19.316-7.295 26.318-3.229 19.788-4.004 28.413c-.846 9.414-.997 21.19-.377 29.463l1.032 13.781.858-22.969c.567-15.159 1.827-27.82 3.708-37.235zM220.8 272.542c.798-1.751 1.103-4.569.679-6.262s-2.715-5.072-5.088-7.51-6.217-5.231-8.54-6.207-5.972-1.775-8.109-1.775-4.814.928-5.948 2.063-2.062 3.41-2.062 5.056 1.346 4.991 2.992 7.433 5.337 5.768 8.203 7.391c3.122 1.768 7.459 2.96 10.817 2.973 4.672.018 5.848-.509 7.057-3.163zm96.22-1.279c2.558-1.951 5.536-5.259 6.618-7.352s1.967-5.192 1.967-6.888-.709-3.793-1.575-4.659-3.73-1.575-6.365-1.575c-3.106 0-6.78 1.336-10.45 3.802-3.113 2.091-7.038 6.078-8.722 8.859s-3.065 5.754-3.068 6.605.986 2.54 2.2 3.754c1.659 1.659 3.764 2.057 8.476 1.604 4.106-.395 7.874-1.826 10.92-4.149zm-214.729-45.308c-.979-6.915-1.718-21.727-1.641-32.916.105-15.432.826-23.601 2.986-33.835 1.566-7.42 4.049-16.703 5.518-20.629 1.847-4.936 4.526-8.771 8.683-12.431 3.307-2.911 5.595-5.293 5.085-5.293s-2.217.663-3.794 1.473-4.476 2.973-6.443 4.807-5.366 7.634-7.554 12.89-5.124 14.462-6.524 20.459-3.25 17.104-4.111 24.684c-.907 7.993-1.242 20.397-.797 29.531.422 8.662 1.476 20.427 2.342 26.143l1.574 10.393 3.228-6.352c3.195-6.287 3.21-6.48 1.448-18.924zm320.521 3.62c1.007-9.119 1.308-21.597.8-33.129-.448-10.175-1.949-23.816-3.335-30.313s-4.355-16.802-6.599-22.9-5.703-12.795-7.686-14.883-5.201-4.628-7.151-5.647-4.017-1.842-4.594-1.829.884 1.261 3.248 2.774 5.708 5.195 7.432 8.181 4.346 9.408 5.826 14.272 3.676 15.495 4.878 23.625c1.631 11.028 1.991 19.449 1.418 33.157-.422 10.106-1.426 21.837-2.232 26.067-1.322 6.945-1.175 8.404 1.509 15.017 2.817 6.941 3.022 7.139 3.92 3.781.521-1.949 1.675-10.126 2.563-18.172zm-18.271 8.457c-2.158-4.275-7.525-13.156-11.926-19.736s-12.393-16.397-17.759-21.815-14.065-12.893-19.332-16.611-13.415-8.704-18.107-11.082-13.681-6.139-19.974-8.36-16.629-4.966-22.969-6.102-18.613-2.421-27.276-2.857c-9.411-.473-21.259-.15-29.437.803-7.528.877-19.089 2.965-25.691 4.64s-16.434 4.889-21.849 7.144-14.818 7.158-20.894 10.898-16.244 11.807-22.593 17.928-14.395 15.009-17.88 19.752-9.142 13.526-12.571 19.517-5.939 11.19-5.577 11.552 2.818-3.204 5.457-7.923 8.219-12.872 12.398-18.115 11.531-13.198 16.336-17.677 12.14-10.421 16.299-13.205 10.319-6.646 13.689-8.583 10.452-5.26 15.739-7.384c9.064-3.642 9.752-3.736 12.061-1.648 1.877 1.697 4.805 2.188 12.543 2.103 7.976-.087 11.689-.841 17.696-3.591 4.966-2.274 7.857-4.456 8.338-6.294.727-2.78 1.015-2.804 24.491-2.077 16.807.521 27.019 1.496 34.912 3.333 6.136 1.428 16.099 4.406 22.14 6.617s14.9 6.166 19.688 8.788 12.594 7.643 17.349 11.157 13.48 11.425 19.389 17.58 13.934 16.085 17.834 22.069 7.822 12.483 8.715 14.443 1.862 3.327 2.153 3.036-1.237-4.027-3.394-8.301zm-281.75-31.338c4.127-5.483 11-13.466 15.274-17.74s12.401-11.156 18.062-15.296 11.406-8.179 12.768-8.976c2.243-1.314 1.951-1.718-3.096-4.293-3.065-1.563-9.186-3.769-13.603-4.9-4.583-1.174-9.919-1.703-12.428-1.233-2.418.454-6.254 2.388-8.524 4.298s-5.232 6.049-6.582 9.198-3.397 9.365-4.55 13.813-2.834 14.165-3.736 21.593-1.516 13.506-1.364 13.506 3.653-4.487 7.78-9.97zm279.292 5.048c-.238-2.707-1.057-9.633-1.82-15.391s-2.842-15.074-4.62-20.702c-1.91-6.046-4.844-12.068-7.169-14.717-2.165-2.466-6.061-5.185-8.658-6.042-3.681-1.215-6.342-1.196-12.075.085-4.044.904-10.545 3.053-14.446 4.776s-6.854 3.362-6.563 3.642 5.232 3.646 10.978 7.482 15.226 11.72 21.065 17.521 13.445 14.535 16.901 19.408 6.409 8.859 6.562 8.859.083-2.215-.155-4.922zm-155.329-86.183c1.935-1.072 7.982-10.174 15.448-23.25 6.748-11.819 12.613-22.804 13.033-24.413.525-2.007-1.168-6.533-5.402-14.437-3.392-6.333-7.26-12.646-8.595-14.031-2.034-2.109-2.762-2.239-4.492-.804-1.135.942-10.919 17.252-21.742 36.243l-20.467 36.586c-.434 1.131-.06 2.935.831 4.008 1.244 1.499 4.706 1.941 14.912 1.906 8.586-.03 14.418-.67 16.472-1.808zm57.088 1.058c1.142-.438 2.076-1.859 2.076-3.158s-3.041-7.585-6.757-13.969-7.647-12.641-8.735-13.905-2.75-2.297-3.694-2.297-5.578 6.504-10.297 14.454-8.58 14.919-8.58 15.487.709 1.742 1.575 2.609c1.046 1.046 6.743 1.575 16.955 1.575 8.459 0 16.314-.358 17.456-.797z" fill="#db2f92"/><path d="M231.105 494.139l-17.062-1.931c-6.858-.773-19.215-2.895-27.459-4.716s-20.057-5.09-26.25-7.265-17.064-6.926-24.16-10.558-15.714-8.828-19.152-11.546c-3.703-2.927-7.407-7.399-9.084-10.967-1.558-3.314-2.832-7.48-2.832-9.259 0-2.216-1.706-4.596-5.421-7.561-2.981-2.38-10.113-9.643-15.848-16.14s-14.779-18.309-20.096-26.25-12.927-21.23-16.909-29.531-8.975-20.423-11.097-26.936-5.064-17.44-6.539-24.281-3.385-18.936-4.243-26.876c-.922-8.529-1.244-21.689-.787-32.156.425-9.745 1.999-24.438 3.497-32.651s4.837-21.502 7.421-29.531 7.478-20.505 10.877-27.724 9.286-18.122 13.082-24.23 10.642-15.853 15.212-21.656 13.824-15.95 20.565-22.549 16.581-15.298 21.87-19.331 14.581-10.333 20.65-13.999 16.005-8.995 22.079-11.841 18.044-7.51 26.6-10.363 22.348-6.42 30.65-7.927 23.067-3.088 32.813-3.513c10.467-.457 23.627-.135 32.156.787 7.941.858 20.048 2.769 26.906 4.246s17.784 4.44 24.281 6.585 18.47 7.074 26.608 10.954 19.95 10.401 26.25 14.49 15.589 10.735 20.642 14.769 14.033 12.249 19.956 18.256 15.132 16.716 20.466 23.796 12.661 18.139 16.283 24.575 8.527 16.132 10.899 21.546 6.017 14.864 8.1 21 5.281 18.244 7.107 26.906c2.536 12.034 3.494 21.324 4.059 39.375.573 18.301.246 27.027-1.45 38.719-1.205 8.302-3.616 20.517-5.359 27.145s-5.316 17.85-7.94 24.938-7.7 18.422-11.28 25.189-9.447 16.655-13.037 21.975-10.86 14.845-16.155 21.166-13.254 14.943-17.685 19.16c-6.005 5.713-8.057 8.573-8.057 11.227 0 1.959-1.741 6.307-3.869 9.662s-6.705 8.177-10.172 10.714-12.209 7.535-19.428 11.106-18.978 8.344-26.132 10.605-17.194 4.999-22.312 6.083-15.212 2.867-22.431 3.962c-7.717 1.17-25.293 2.174-42.656 2.436-16.242.245-31.598.209-34.125-.081zm74.156-10.574c8.663-1.115 22.321-3.684 30.353-5.709s20.139-5.882 26.906-8.573 16.243-7.178 21.058-9.972 10.654-6.677 12.975-8.63 5.026-5.479 6.011-7.836 1.79-6.371 1.79-8.921-.205-4.636-.455-4.636-5.263 3.218-11.138 7.15-15.181 9.285-20.678 11.894-15.99 6.741-23.315 9.182-19.226 5.628-26.444 7.083-18.736 3.363-25.594 4.241-23.986 1.596-38.062 1.596-31.205-.718-38.062-1.596-18.375-2.783-25.594-4.233-19.327-4.743-26.906-7.317-19.097-7.337-25.594-10.585-15.462-8.494-19.923-11.659-8.447-5.755-8.859-5.755-.749 1.76-.749 3.911.963 6.317 2.139 9.258c1.311 3.275 4.379 7.057 7.92 9.761 3.18 2.428 10.929 7.062 17.22 10.298s16.57 7.685 22.841 9.887 18.379 5.467 26.906 7.257 21.41 3.891 28.629 4.669l20.344 1.911c3.97.272 16.964.238 28.875-.076s28.744-1.484 37.406-2.6zm1.969-24.653c6.858-1.177 17.959-3.591 24.67-5.366s18.326-5.622 25.811-8.548 18.678-8.503 24.872-12.392 14.024-9.327 17.401-12.084 9.25-8.778 13.052-13.378 8.958-12.278 11.458-17.062 5.518-11.947 6.706-15.918 2.667-11.594 3.286-16.941.635-14.954.036-21.347-2.406-16.057-4.015-21.475c-2.631-8.862-3.201-9.765-5.679-9-1.515.468-4.822 1.907-7.348 3.198s-7.044 4.907-10.039 8.035-7.57 9.051-10.167 13.163-6.684 8.973-9.083 10.802-6.972 4.247-10.164 5.373-9.181 2.401-13.309 2.832-11.221.062-15.763-.82-11.948-3.622-16.46-6.088l-16.643-9.116c-4.642-2.548-11.822-5.797-15.955-7.219l-7.841-2.586c-.179 0-.022 2.266.35 5.036.431 3.21-.074 6.485-1.39 9.031-1.136 2.197-4.007 5.636-6.379 7.642s-7.414 5.073-11.203 6.815-6.891 3.669-6.891 4.282 2.484 3.241 5.521 5.84 8.459 5.598 12.051 6.665 8.342 1.925 10.557 1.907 6.685-.637 9.934-1.377 8.058-2.759 10.689-4.488c3.111-2.045 6.158-5.895 8.717-11.016 2.164-4.33 4.293-7.513 4.733-7.073s.797 3.211.794 6.158c-.003 3.079-1.169 7.314-2.74 9.953-1.504 2.527-4.782 6.366-7.283 8.531-3.541 3.065-5.42 6.554-8.486 15.75-2.166 6.497-6.276 15.768-9.135 20.602s-7.996 11.648-11.415 15.142-9.17 7.798-12.78 9.565c-5.552 2.719-8.482 3.215-19.031 3.227-11.046.012-13.217-.388-19.031-3.515-3.609-1.941-8.132-4.891-10.05-6.556s-5.652-5.933-8.297-9.485-6.465-9.754-8.488-13.781-5.082-11.731-6.797-17.118c-2.592-8.141-4.264-10.912-9.903-16.406-4.873-4.749-7.04-7.995-7.691-11.524-.499-2.702-.486-6.541.029-8.531.914-3.535 1.003-3.467 3.869 2.959 1.613 3.617 4.801 8.444 7.083 10.726s6.364 4.92 9.072 5.863 9.353 1.715 14.767 1.717c7.024.001 11.16-.689 14.437-2.413 2.527-1.328 6.778-4.507 9.447-7.064l4.853-4.649-9.404-4.723c-6.645-3.337-10.708-6.442-13.851-10.585-3.867-5.096-4.364-6.601-3.81-11.523.596-5.288.454-5.606-2.158-4.819-1.538.463-7.061 2.595-12.273 4.739s-13.185 6.302-17.719 9.241-11.452 6.479-15.375 7.866-11.011 2.845-15.75 3.242c-5.804.486-11.322.028-16.903-1.403-4.557-1.168-10.853-3.891-13.991-6.049s-7.037-6.148-8.664-8.865-5.029-7.717-7.558-11.111-7.009-7.879-9.956-9.967-7.273-4.447-9.615-5.243c-3.696-1.256-4.432-1.121-5.577 1.019-.726 1.356-2.497 7.378-3.936 13.382-1.8 7.508-2.614 15.425-2.607 25.354.006 8.328.859 18.039 2.016 22.949 1.103 4.681 4.03 12.719 6.504 17.862s7.692 13.421 11.597 18.395 10.903 12.116 15.551 15.871 12.486 9.279 17.418 12.275 13.574 7.419 19.204 9.829 14.844 5.832 20.475 7.604 16.439 4.469 24.018 5.993 18.211 3.317 23.625 3.984 23.723 1.017 40.687.778c20.682-.291 34.952-1.138 43.313-2.573zm-33.398-34.575c2.884-1.471 7.954-5.573 11.267-9.115s6.748-7.792 7.632-9.445c1.417-2.648 1.166-3.472-2.119-6.932-2.05-2.16-6.68-5.459-10.29-7.333-5.367-2.786-8.834-3.503-19.031-3.938-10.482-.447-13.683-.074-20.088 2.338-4.191 1.578-10.005 5.139-12.921 7.913l-5.302 5.044 2.421 4.161c1.332 2.289 5.512 6.999 9.29 10.468s9.389 7.235 12.469 8.369c3.544 1.305 8.505 1.894 13.514 1.604 4.541-.263 10.149-1.599 13.157-3.134zM38.09 222.741c1.572-7.847 4.641-19.587 6.819-26.09s6.195-16.916 8.926-23.14 7.262-15.299 10.07-20.168 8.935-14.318 13.615-21 15.616-19.236 24.303-27.898 21.395-19.719 28.241-24.57 19.83-12.625 28.854-17.276 22.313-10.497 29.531-12.991 18.441-5.76 24.938-7.257 18.011-3.426 25.587-4.286c8.295-.942 21.87-1.276 34.125-.839 11.193.399 25.379 1.638 31.524 2.753s16.482 3.562 22.969 5.437 17.847 5.816 25.244 8.758 19.652 9.038 27.234 13.548 13.786 7.96 13.786 7.667-4.873-3.699-10.828-7.567-16.144-9.687-22.641-12.93-17.423-7.984-24.281-10.535-19.335-6.17-27.727-8.042-23.059-4.08-32.595-4.906c-13.061-1.131-21.402-1.128-33.82.015-9.066.834-22.305 2.703-29.42 4.153s-18.4 4.446-25.078 6.657-18.343 6.959-25.923 10.55-20.278 10.888-28.219 16.215-19.104 13.768-24.808 18.758-14.453 13.739-19.443 19.443-13.43 16.868-18.758 24.808-12.624 20.639-16.215 28.219-8.339 19.245-10.55 25.923-5.186 17.9-6.61 24.938-3.25 19.292-4.058 27.233c-.939 9.235-1.086 20.349-.407 30.844l1.062 16.406.847-24.281c.583-16.712 1.738-28.729 3.706-38.548zm182.71 49.801c.798-1.751 1.103-4.569.679-6.262s-2.715-5.072-5.088-7.51-6.217-5.231-8.54-6.207-5.972-1.775-8.109-1.775-4.814.928-5.948 2.063-2.062 3.41-2.062 5.056 1.346 4.991 2.992 7.433 5.337 5.768 8.203 7.391c3.122 1.768 7.459 2.96 10.817 2.973 4.672.018 5.848-.509 7.057-3.163zm96.22-1.279c2.558-1.951 5.536-5.259 6.618-7.352s1.967-5.192 1.967-6.888-.709-3.793-1.575-4.659-3.73-1.575-6.365-1.575c-3.106 0-6.78 1.336-10.45 3.802-3.113 2.091-7.038 6.078-8.722 8.859s-3.065 5.754-3.068 6.605.986 2.54 2.2 3.754c1.659 1.659 3.764 2.057 8.476 1.604 4.106-.395 7.874-1.826 10.92-4.149zm-214.729-45.308c-.979-6.915-1.718-21.727-1.641-32.916.105-15.432.826-23.601 2.986-33.835 1.566-7.42 4.049-16.703 5.518-20.629 1.847-4.936 4.526-8.771 8.683-12.431 3.307-2.911 5.595-5.293 5.085-5.293s-2.217.663-3.794 1.473-4.476 2.973-6.443 4.807-5.366 7.634-7.554 12.89-5.124 14.462-6.524 20.459-3.25 17.104-4.111 24.684c-.907 7.993-1.242 20.397-.797 29.531.422 8.662 1.476 20.427 2.342 26.143l1.574 10.393 3.228-6.352c3.195-6.287 3.21-6.48 1.448-18.924zm320.521 3.62c1.007-9.119 1.308-21.597.8-33.129-.448-10.175-1.949-23.816-3.335-30.313s-4.355-16.802-6.599-22.9-5.703-12.795-7.686-14.883-5.201-4.628-7.151-5.647-4.017-1.842-4.594-1.829.884 1.261 3.248 2.774 5.708 5.195 7.432 8.181 4.346 9.408 5.826 14.272 3.676 15.495 4.878 23.625c1.631 11.028 1.991 19.449 1.418 33.157-.422 10.106-1.426 21.837-2.232 26.067-1.322 6.945-1.175 8.404 1.509 15.017 2.817 6.941 3.022 7.139 3.92 3.781.521-1.949 1.675-10.126 2.563-18.172zm-18.271 8.457c-2.158-4.275-7.525-13.156-11.926-19.736s-12.393-16.397-17.759-21.815-14.065-12.893-19.332-16.611-13.415-8.704-18.107-11.082-13.681-6.139-19.974-8.36-16.629-4.966-22.969-6.102-18.613-2.421-27.276-2.857c-9.411-.473-21.259-.15-29.437.803-7.528.877-19.089 2.965-25.691 4.64s-16.434 4.889-21.849 7.144-14.818 7.158-20.894 10.898-16.244 11.807-22.593 17.928-14.395 15.009-17.88 19.752-9.142 13.526-12.571 19.517-5.939 11.19-5.577 11.552 2.818-3.204 5.457-7.923 8.219-12.872 12.398-18.115 11.531-13.198 16.336-17.677 12.14-10.421 16.299-13.205 10.319-6.646 13.689-8.583 10.452-5.26 15.739-7.384c9.064-3.642 9.752-3.736 12.061-1.648 1.877 1.697 4.805 2.188 12.543 2.103 7.976-.087 11.689-.841 17.696-3.591 4.966-2.274 7.857-4.456 8.338-6.294.727-2.78 1.015-2.804 24.491-2.077 16.807.521 27.019 1.496 34.912 3.333 6.136 1.428 16.099 4.406 22.14 6.617s14.9 6.166 19.688 8.788 12.594 7.643 17.349 11.157 13.48 11.425 19.389 17.58 13.934 16.085 17.834 22.069 7.822 12.483 8.715 14.443 1.862 3.327 2.153 3.036-1.237-4.027-3.394-8.301zm-283.017-28.968c4.238-5.985 12.761-15.753 18.94-21.706s16.749-14.431 23.487-18.838l12.252-8.013-5.69-3.901c-3.129-2.145-8.799-5.471-12.6-7.391s-10.465-4.401-14.81-5.514c-6.132-1.571-8.873-1.702-12.256-.586-2.396.791-5.615 2.778-7.154 4.415s-4.017 6.493-5.508 10.79-3.526 11.651-4.521 16.344-1.897 12.666-2.003 17.719-.148 13.883-.093 19.622.584 9.873 1.175 9.187 4.543-6.143 8.78-12.128zm284.299-19.962c-.773-7.58-2.674-18.381-4.225-24.002s-4.083-12.119-5.627-14.437-5.004-5.294-7.689-6.611c-4.213-2.066-5.842-2.195-11.88-.942-3.849.799-10.666 3.188-15.15 5.308s-10.818 5.69-14.076 7.931l-5.925 4.076 13.505 8.934c9.088 6.012 17.588 13.17 25.985 21.885 6.864 7.123 15.132 16.87 18.375 21.66l5.896 8.709 1.108-9.365c.678-5.731.563-14.713-.297-23.146zm-159.069-63.542c1.935-1.072 7.982-10.174 15.448-23.25 6.748-11.819 12.613-22.804 13.033-24.413.525-2.007-1.168-6.533-5.402-14.437-3.392-6.333-7.26-12.646-8.595-14.031-2.034-2.109-2.762-2.239-4.492-.804-1.135.942-10.919 17.252-21.742 36.243l-20.467 36.586c-.434 1.131-.06 2.935.831 4.008 1.244 1.499 4.706 1.941 14.912 1.906 8.586-.03 14.418-.67 16.472-1.808zm57.088 1.058c1.142-.438 2.076-1.859 2.076-3.158s-3.041-7.585-6.757-13.969-7.647-12.641-8.735-13.905-2.75-2.297-3.694-2.297-5.578 6.504-10.297 14.454-8.58 14.919-8.58 15.487.709 1.742 1.575 2.609c1.046 1.046 6.743 1.575 16.955 1.575 8.459 0 16.314-.358 17.456-.797z" fill="#fd9400"/><path d="M231.105 494.139l-17.062-1.931c-6.858-.773-19.215-2.895-27.459-4.716s-20.057-5.09-26.25-7.265-17.064-6.926-24.16-10.558-15.714-8.828-19.152-11.546c-3.703-2.927-7.407-7.399-9.084-10.967-1.558-3.314-2.832-7.48-2.832-9.259 0-2.216-1.706-4.596-5.421-7.561-2.981-2.38-10.113-9.643-15.848-16.14s-14.779-18.309-20.096-26.25-12.927-21.23-16.909-29.531-8.975-20.423-11.097-26.936-5.064-17.44-6.539-24.281-3.385-18.936-4.243-26.876c-.922-8.529-1.244-21.689-.787-32.156.425-9.745 1.999-24.438 3.497-32.651s4.837-21.502 7.421-29.531 7.478-20.505 10.877-27.724 9.286-18.122 13.082-24.23 10.642-15.853 15.212-21.656 13.824-15.95 20.565-22.549 16.581-15.298 21.87-19.331 14.581-10.333 20.65-13.999 16.005-8.995 22.079-11.841 18.044-7.51 26.6-10.363 22.348-6.42 30.65-7.927 23.067-3.088 32.813-3.513c10.467-.457 23.627-.135 32.156.787 7.941.858 20.048 2.769 26.906 4.246s17.784 4.44 24.281 6.585 18.47 7.074 26.608 10.954 19.95 10.401 26.25 14.49 15.589 10.735 20.642 14.769 14.033 12.249 19.956 18.256 15.132 16.716 20.466 23.796 12.661 18.139 16.283 24.575 8.527 16.132 10.899 21.546 6.017 14.864 8.1 21 5.281 18.244 7.107 26.906c2.536 12.034 3.494 21.324 4.059 39.375.573 18.301.246 27.027-1.45 38.719-1.205 8.302-3.616 20.517-5.359 27.145s-5.316 17.85-7.94 24.938-7.7 18.422-11.28 25.189-9.447 16.655-13.037 21.975-10.86 14.845-16.155 21.166-13.254 14.943-17.685 19.16c-6.005 5.713-8.057 8.573-8.057 11.227 0 1.959-1.741 6.307-3.869 9.662s-6.705 8.177-10.172 10.714-12.209 7.535-19.428 11.106-18.978 8.344-26.132 10.605-17.194 4.999-22.312 6.083-15.212 2.867-22.431 3.962c-7.717 1.17-25.293 2.174-42.656 2.436-16.242.245-31.598.209-34.125-.081zm74.156-10.574c8.663-1.115 22.321-3.684 30.353-5.709s20.139-5.882 26.906-8.573 16.243-7.178 21.058-9.972 10.654-6.677 12.975-8.63 5.026-5.479 6.011-7.836 1.79-6.371 1.79-8.921-.205-4.636-.455-4.636-5.263 3.218-11.138 7.15-15.181 9.285-20.678 11.894-15.99 6.741-23.315 9.182-19.226 5.628-26.444 7.083-18.736 3.363-25.594 4.241-23.986 1.596-38.062 1.596-31.205-.718-38.062-1.596-18.375-2.783-25.594-4.233-19.327-4.743-26.906-7.317-19.097-7.337-25.594-10.585-15.462-8.494-19.923-11.659-8.447-5.755-8.859-5.755-.749 1.76-.749 3.911.963 6.317 2.139 9.258c1.311 3.275 4.379 7.057 7.92 9.761 3.18 2.428 10.929 7.062 17.22 10.298s16.57 7.685 22.841 9.887 18.379 5.467 26.906 7.257 21.41 3.891 28.629 4.669l20.344 1.911c3.97.272 16.964.238 28.875-.076s28.744-1.484 37.406-2.6zm1.969-24.653c6.858-1.177 17.959-3.591 24.67-5.366s18.326-5.622 25.811-8.548 18.678-8.503 24.872-12.392 14.024-9.327 17.401-12.084 9.25-8.778 13.052-13.378 8.958-12.278 11.458-17.062 5.518-11.947 6.706-15.918 2.668-11.6 3.288-16.956c.642-5.547.622-15.08-.047-22.154-.799-8.446-2.665-16.666-5.833-25.701-2.562-7.306-6.372-20.075-8.466-28.377s-5.885-20.229-8.425-26.505-6.081-14.299-7.87-17.828-6.848-11.793-11.243-18.364-12.381-16.38-17.747-21.798-14.065-12.893-19.332-16.611-13.415-8.704-18.107-11.082-13.681-6.139-19.974-8.36-16.629-4.966-22.969-6.102-18.613-2.421-27.276-2.857c-9.411-.473-21.259-.15-29.437.803-7.528.877-19.089 2.965-25.691 4.64s-16.434 4.889-21.849 7.144-14.818 7.158-20.894 10.898-16.244 11.807-22.593 17.928-14.395 15.009-17.88 19.752-9.01 13.348-12.278 19.123-8.148 16.08-10.845 22.899S99.106 274.042 97 282.58s-5.026 18.314-6.489 21.726-3.795 10.927-5.18 16.702c-1.701 7.088-2.516 15.191-2.509 24.938.006 8.328.859 18.039 2.016 22.949 1.103 4.681 4.03 12.719 6.504 17.862s7.693 13.421 11.597 18.395 10.903 12.116 15.551 15.871 12.486 9.279 17.418 12.275 13.574 7.419 19.204 9.829 14.844 5.832 20.475 7.604 16.439 4.469 24.018 5.993 18.211 3.317 23.625 3.984 23.723 1.017 40.687.778c20.682-.291 34.952-1.138 43.312-2.573zM246.855 434.7c-1.805-.593-5.644-2.316-8.531-3.829s-6.819-4.112-8.737-5.776-5.652-5.931-8.297-9.483-6.465-9.754-8.488-13.781-5.082-11.731-6.797-17.118c-2.592-8.141-4.264-10.912-9.903-16.406-4.873-4.749-7.04-7.995-7.691-11.524-.499-2.702-.486-6.541.029-8.531.914-3.535 1.003-3.467 3.869 2.959 1.613 3.617 4.801 8.444 7.083 10.726s6.364 4.92 9.072 5.863 9.353 1.715 14.767 1.717c7.024.001 11.16-.689 14.438-2.413 2.527-1.328 6.778-4.507 9.447-7.064l4.853-4.649-9.404-4.723c-6.537-3.283-10.717-6.454-13.713-10.403-2.845-3.75-4.309-7.147-4.309-9.995 0-2.373 1.17-5.802 2.6-7.621s5.122-4.347 8.203-5.62c3.723-1.538 10.484-2.522 20.149-2.934 11.216-.478 16.294-.112 22.178 1.599 4.462 1.297 9.186 3.773 11.375 5.962 2.62 2.62 3.742 5.054 3.739 8.11-.003 2.402-1.134 6.218-2.513 8.48s-4.511 5.641-6.958 7.507-7.223 4.62-10.612 6.12-6.162 3.243-6.162 3.875 2.484 3.275 5.521 5.874 8.459 5.598 12.051 6.665 8.342 1.925 10.557 1.907 6.685-.637 9.934-1.377 8.058-2.759 10.689-4.488c3.111-2.045 6.158-5.895 8.717-11.016 2.164-4.33 4.293-7.513 4.733-7.073s.797 3.211.794 6.158c-.003 3.079-1.169 7.314-2.74 9.953-1.504 2.527-4.782 6.366-7.283 8.531-3.541 3.065-5.42 6.554-8.486 15.75-2.166 6.497-6.276 15.768-9.135 20.602s-7.996 11.648-11.415 15.142-9.17 7.755-12.78 9.469c-4.815 2.287-9.358 3.225-17.062 3.525-5.775.224-11.977-.077-13.781-.67zm26.977-10.362c2.884-1.471 7.954-5.573 11.267-9.115s6.748-7.792 7.632-9.445c1.417-2.648 1.166-3.472-2.119-6.932-2.05-2.16-6.68-5.459-10.29-7.333-5.367-2.786-8.834-3.503-19.031-3.938-10.482-.447-13.683-.074-20.088 2.338-4.191 1.578-10.005 5.139-12.921 7.913l-5.302 5.044 2.421 4.161c1.332 2.289 5.512 6.999 9.29 10.468s9.389 7.235 12.469 8.369c3.544 1.305 8.505 1.894 13.514 1.604 4.541-.263 10.149-1.599 13.157-3.134zM196.98 307.085c-3.97-3.622-11.353-8.627-16.406-11.124-6.494-3.208-11.785-4.779-18.047-5.358-5.538-.512-8.859-1.407-8.859-2.387 0-.863 1.538-2.269 3.419-3.126s6.827-1.914 10.993-2.349c4.406-.461 10.525-.105 14.628.85 3.879.903 10.451 3.425 14.603 5.604s9.911 6.524 12.797 9.655 5.247 6.46 5.247 7.399-.919 3.019-2.043 4.623c-1.279 1.826-3.366 2.895-5.578 2.857-2.358-.04-5.939-2.252-10.754-6.645zm107.962 5.064c-.713-.902-1.591-2.527-1.949-3.609s.166-3.59 1.167-5.572 4.757-5.925 8.348-8.764 9.927-6.45 14.079-8.025 11.093-3.125 15.425-3.445 10.821.188 14.422 1.128c4.048 1.057 6.702 2.519 6.953 3.83.329 1.722-1.296 2.289-8.636 3.012-5.673.559-11.983 2.282-16.937 4.625-4.342 2.054-11.801 7.047-16.575 11.097-5.305 4.501-9.909 7.364-11.84 7.364-1.738 0-3.744-.738-4.457-1.641zM38.09 222.741c1.572-7.847 4.641-19.587 6.819-26.09s6.195-16.916 8.926-23.14 7.262-15.299 10.07-20.168 8.935-14.318 13.615-21 15.616-19.236 24.303-27.898 21.395-19.719 28.241-24.57 19.83-12.625 28.854-17.276 22.313-10.497 29.531-12.991 18.441-5.76 24.938-7.257 18.011-3.426 25.587-4.286c8.295-.942 21.87-1.276 34.125-.839 11.193.399 25.379 1.638 31.524 2.753s16.482 3.562 22.969 5.437 17.847 5.816 25.244 8.758 19.652 9.038 27.234 13.548 13.786 7.96 13.786 7.667-4.873-3.699-10.828-7.567-16.144-9.687-22.641-12.93-17.423-7.984-24.281-10.535-19.335-6.17-27.727-8.042-23.059-4.08-32.595-4.906c-13.061-1.131-21.402-1.128-33.82.015-9.066.834-22.305 2.703-29.42 4.153s-18.4 4.446-25.078 6.657-18.343 6.959-25.923 10.55-20.278 10.888-28.219 16.215-19.104 13.768-24.808 18.758-14.453 13.739-19.443 19.443-13.43 16.868-18.758 24.808-12.624 20.639-16.215 28.219-8.339 19.245-10.55 25.923-5.186 17.9-6.61 24.938-3.25 19.292-4.058 27.233c-.939 9.235-1.086 20.349-.407 30.844l1.062 16.406.847-24.281c.583-16.712 1.738-28.729 3.706-38.548zm68.089-.475c-.762-4.886-1.084-16.857-.716-26.602.454-12.031 1.564-21.089 3.456-28.219 1.533-5.775 4.291-13.587 6.13-17.359s5.226-8.202 7.528-9.844c3.492-2.491 5.813-2.972 14.028-2.907 7.65.061 11.802.89 18.629 3.719 4.832 2.003 13.029 6.565 18.216 10.138l9.431 6.497 5.737-2.191c3.156-1.205 5.731-2.554 5.724-2.997s-4.585-4.199-10.172-8.347-13.998-9.565-18.69-12.04-13.065-6.021-18.606-7.881c-6.088-2.044-13.004-3.382-17.477-3.382-4.071 0-8.692.663-10.269 1.473s-4.476 2.973-6.443 4.807-5.366 7.634-7.554 12.89-5.124 14.462-6.524 20.459-3.25 17.104-4.111 24.684c-.907 7.993-1.242 20.397-.797 29.531.422 8.662 1.478 20.437 2.345 26.166l1.577 10.416 4.971-10.063c4.941-10.003 4.963-10.117 3.586-18.947zm316.633 7.309c1.007-9.119 1.308-21.597.8-33.129-.448-10.175-1.949-23.816-3.335-30.313s-4.355-16.802-6.599-22.9-5.703-12.795-7.686-14.883-5.201-4.628-7.151-5.647-6.294-1.852-9.654-1.852-9.546.89-13.746 1.979-11.658 3.783-16.573 5.988-13.672 7.166-19.459 11.023-11.872 8.458-13.521 10.222l-2.998 3.209 5.954 2.274 5.954 2.274 6.234-4.576c3.429-2.517 10.367-6.641 15.419-9.164s11.547-5.235 14.435-6.026 8.262-1.442 11.944-1.446c5.304-.005 7.78.78 11.927 3.784 3.119 2.259 6.425 6.326 8.182 10.063 1.621 3.449 4.155 10.75 5.63 16.224 1.996 7.407 2.825 15.325 3.239 30.953.306 11.55.061 23.658-.546 26.906-.98 5.244-.585 7.052 3.522 16.126 4.126 9.116 4.722 9.859 5.519 6.879.491-1.837 1.62-9.923 2.509-17.969zm-301.288-20.512c4.238-5.985 12.761-15.753 18.94-21.706s16.749-14.431 23.487-18.838l12.252-8.013-5.69-3.901c-3.129-2.145-8.799-5.471-12.6-7.391s-10.465-4.401-14.81-5.514c-6.132-1.571-8.873-1.702-12.256-.586-2.396.791-5.615 2.778-7.154 4.415s-4.017 6.493-5.508 10.79-3.526 11.651-4.521 16.344-1.897 12.666-2.003 17.719-.148 13.883-.093 19.622.584 9.873 1.175 9.187 4.543-6.143 8.78-12.128zm284.299-19.962c-.773-7.58-2.674-18.381-4.225-24.002s-4.083-12.119-5.627-14.437-5.004-5.294-7.689-6.611c-4.213-2.066-5.842-2.195-11.88-.942-3.849.799-10.666 3.188-15.15 5.308s-10.818 5.69-14.076 7.931l-5.925 4.076 13.505 8.934c9.088 6.012 17.588 13.17 25.985 21.885 6.864 7.123 15.132 16.87 18.375 21.66l5.896 8.709 1.108-9.365c.678-5.731.563-14.713-.297-23.146zm-159.069-63.542c1.935-1.072 7.982-10.174 15.448-23.25 6.748-11.819 12.613-22.804 13.033-24.413.525-2.007-1.168-6.533-5.402-14.437-3.392-6.333-7.26-12.646-8.595-14.031-2.034-2.109-2.762-2.239-4.492-.804-1.135.942-10.919 17.252-21.742 36.243l-20.467 36.586c-.434 1.131-.06 2.935.831 4.008 1.244 1.499 4.706 1.941 14.912 1.906 8.586-.03 14.418-.67 16.472-1.808zm57.088 1.058c1.142-.438 2.076-1.859 2.076-3.158s-3.041-7.585-6.757-13.969-7.647-12.641-8.735-13.905-2.75-2.297-3.694-2.297-5.578 6.504-10.297 14.454-8.58 14.919-8.58 15.487.709 1.742 1.575 2.609c1.046 1.046 6.743 1.575 16.955 1.575 8.459 0 16.314-.358 17.456-.797z" fill="#77638a"/><path d="M237.668 494.119c-3.97-.274-13.125-1.13-20.344-1.901s-18.736-2.553-25.594-3.96-18.243-4.346-25.301-6.532-17.162-5.947-22.454-8.359-13.102-6.586-17.356-9.276-9.703-6.749-12.111-9.019-5.142-5.605-6.076-7.409-2.134-5.348-2.667-7.875c-.715-3.393-4.468-8.197-14.353-18.375-7.362-7.58-16.794-18.396-20.96-24.037s-10.268-14.795-13.56-20.344-8.294-15.092-11.116-21.207-7.141-17.127-9.598-24.47-5.68-19.306-7.164-26.584-3.314-20.926-4.068-30.327c-.944-11.774-.952-22.301-.024-33.828.741-9.204 2.518-22.345 3.95-29.203s4.046-17.194 5.809-22.969 4.481-13.703 6.04-17.617 5.506-12.444 8.77-18.955 8.63-16.007 11.924-21.102 8.547-12.593 11.674-16.661 10.166-12.158 15.64-17.978 15.385-14.975 22.023-20.345 16.204-12.415 21.257-15.656 15.33-8.968 22.838-12.729 20.54-9.141 28.96-11.956 20.978-6.285 27.908-7.711 20.328-3.248 29.775-4.05c12.616-1.071 21.758-1.069 34.438.007 9.494.806 21.75 2.324 27.234 3.373s15.288 3.466 21.784 5.37 17.92 6.064 25.385 9.244 16.915 7.641 21 9.913 11.857 7.073 17.271 10.669 13.978 9.906 19.031 14.021 14.219 12.726 20.368 19.134 13.981 15.306 17.404 19.773 9.275 13.031 13.005 19.031 9.564 16.816 12.964 24.035 8.057 19.005 10.349 26.192 5.069 16.932 6.172 21.656 2.82 15.381 3.815 23.683 1.828 20.413 1.85 26.914-.838 19.2-1.911 28.219-3.105 21.123-4.514 26.898-4.127 15.225-6.04 21-6.645 17.158-10.516 25.295-10.385 19.95-14.474 26.25-10.748 15.575-14.797 20.61-12.086 13.805-17.86 19.487c-8.823 8.682-10.767 11.38-12.181 16.903-.925 3.615-2.875 8.247-4.332 10.294s-6.622 6.346-11.476 9.554-12.409 7.626-16.787 9.819-13.829 6.023-21 8.512-18.354 5.76-24.851 7.272-18.614 3.634-26.926 4.717-25.441 2.221-38.062 2.527-26.197.333-30.168.059zm55.125-8.468c8.302-.758 22.27-2.815 31.04-4.57s21.469-5.041 28.219-7.301 16.997-6.48 22.772-9.378 13.158-7.093 16.406-9.323 7.236-5.487 8.861-7.24 3.589-5.541 4.364-8.42 1.067-6.596.649-8.262c-.739-2.946-1.038-2.838-10.926 3.951-5.591 3.839-14.3 9.053-19.353 11.585s-14.503 6.487-21 8.786-17.789 5.599-25.093 7.331-20.575 4.054-29.492 5.158c-9.042 1.119-26.555 2.007-39.6 2.007-12.863 0-29.123-.612-36.133-1.36s-18.947-2.583-26.526-4.078-19.687-4.654-26.906-7.02-18.145-6.635-24.281-9.488-16.029-8.517-21.984-12.586l-10.828-7.399v5.937c0 3.265.87 7.62 1.934 9.677s4.271 5.74 7.126 8.185 10.495 7.24 16.977 10.658 18.838 8.53 27.458 11.36 22.111 6.371 29.98 7.867 19.622 3.223 26.119 3.837 21.558 1.195 33.469 1.29 28.448-.447 36.75-1.205zm-9.187-23.591c9.745-.741 24.806-2.791 33.469-4.554s20.475-4.752 26.25-6.64 15.193-5.487 20.93-7.997 15.429-7.822 21.538-11.804 14.627-10.589 18.927-14.68 10.418-11.074 13.596-15.516 7.501-11.878 9.607-16.523 4.834-13.402 6.061-19.459c1.644-8.111 2.027-14.366 1.456-23.741-.426-7-1.743-16.461-2.925-21.024s-3.644-11.841-5.47-16.174-4.749-13.784-6.496-21.003-4.694-17.708-6.549-23.31-6.019-15.329-9.255-21.616-8.924-15.879-12.643-21.315-11.825-14.992-18.015-21.235-16.625-14.878-23.189-19.188-16.303-9.655-21.641-11.877-14.693-5.481-20.789-7.241-16.533-3.94-23.194-4.844c-7.984-1.084-19.613-1.384-34.125-.881-14.837.514-25.651 1.607-33.17 3.352-6.136 1.424-16.321 4.465-22.633 6.759s-16.253 7.041-22.09 10.55-14.789 9.795-19.893 13.971-12.773 11.734-17.042 16.797-10.313 13.068-13.431 17.791-8.063 13.349-10.99 19.169-6.931 15.541-8.9 21.601-5.205 17.22-7.193 24.8-5.488 19.053-7.779 25.497c-2.415 6.794-4.771 16.893-5.607 24.041-1.099 9.391-1.053 15.021.195 23.651.901 6.229 3.288 15.575 5.304 20.769s6.414 13.575 9.771 18.625 9.935 12.766 14.618 17.146 12.135 10.423 16.562 13.429 14.031 8.312 21.344 11.791 20.088 8.368 28.39 10.864 21 5.55 28.219 6.787 18.736 2.689 25.594 3.227 17.194 1.063 22.969 1.166 18.473-.419 28.219-1.16zm-34.935-27.372c-2.25-.582-6.808-2.374-10.128-3.981s-8.914-6.071-12.431-9.919-8.798-11.631-11.735-17.295-6.612-14.51-8.168-19.659c-2.317-7.671-3.761-10.111-7.994-13.513-2.841-2.283-5.969-5.749-6.95-7.702s-2.099-5.322-2.483-7.487-.265-5.109.266-6.542c.819-2.212 1.218-1.835 2.649 2.5.927 2.807 4.119 7.535 7.094 10.506 3.086 3.081 7.73 6.094 10.811 7.015 2.971.888 9.173 1.601 13.781 1.585 5.322-.019 10.295-.913 13.629-2.452 2.887-1.333 7.465-4.667 10.172-7.409s4.922-5.339 4.922-5.771-3.017-1.857-6.705-3.167-9.297-4.771-12.465-7.691c-3.363-3.1-6.367-7.337-7.22-10.182-1.203-4.015-1.072-5.624.746-9.139 1.47-2.842 4.255-5.181 8.347-7.009 4.639-2.072 9.7-2.885 20.688-3.323 11.134-.444 16.337-.059 22.178 1.639 4.462 1.297 9.186 3.773 11.375 5.962 2.059 2.059 3.743 5.079 3.743 6.711s-1.24 5.529-2.755 8.658c-1.642 3.391-5.014 7.245-8.346 9.538-3.075 2.116-8.037 4.61-11.026 5.543s-5.435 2.068-5.435 2.522 2.693 3.309 5.986 6.343 7.998 6.358 10.458 7.386 8.114 1.869 12.565 1.869 10.343-.674 13.093-1.498 7.177-3.292 9.837-5.485 6.181-6.887 7.823-10.432c2.507-5.412 3.122-6.016 3.836-3.767.468 1.473.174 5.217-.653 8.321-1.03 3.867-3.489 7.567-7.815 11.758-4.882 4.73-6.814 7.852-8.525 13.781-1.217 4.216-4.619 12.609-7.561 18.651-3.195 6.561-8.207 14.073-12.448 18.653-4.106 4.435-10.023 9.098-14.032 11.06-4.756 2.327-9.774 3.562-15.983 3.936-4.978.299-10.892.067-13.142-.515zm25.162-10.351c2.884-1.471 7.954-5.573 11.267-9.115s6.748-7.792 7.632-9.445c1.417-2.648 1.166-3.472-2.119-6.932-2.05-2.16-6.68-5.459-10.29-7.333-5.367-2.786-8.834-3.503-19.031-3.938-10.482-.447-13.683-.074-20.088 2.338-4.191 1.578-10.005 5.139-12.921 7.913l-5.302 5.044 2.421 4.161c1.332 2.289 5.512 6.999 9.29 10.468s9.389 7.235 12.469 8.369c3.544 1.305 8.505 1.894 13.514 1.604 4.541-.263 10.149-1.599 13.157-3.134zM196.98 307.085c-3.97-3.622-11.353-8.627-16.406-11.124-6.494-3.208-11.785-4.779-18.047-5.358-5.538-.512-8.859-1.407-8.859-2.387 0-.863 1.538-2.269 3.419-3.126s6.827-1.914 10.993-2.349c4.406-.461 10.525-.105 14.628.85 3.879.903 10.451 3.425 14.603 5.604s9.911 6.524 12.797 9.655 5.247 6.46 5.247 7.399-.919 3.019-2.043 4.623c-1.279 1.826-3.366 2.895-5.578 2.857-2.358-.04-5.939-2.252-10.754-6.645zm107.962 5.064c-.713-.902-1.591-2.527-1.949-3.609s.166-3.59 1.167-5.572 4.757-5.925 8.348-8.764 9.927-6.45 14.079-8.025 11.093-3.125 15.425-3.445 10.821.188 14.422 1.128c4.048 1.057 6.702 2.519 6.953 3.83.329 1.722-1.296 2.289-8.636 3.012-5.673.559-11.983 2.282-16.937 4.625-4.342 2.054-11.801 7.047-16.575 11.097-5.305 4.501-9.909 7.364-11.84 7.364-1.738 0-3.744-.738-4.457-1.641zM38.078 222.741c1.579-7.847 4.653-19.587 6.831-26.09s6.195-16.916 8.926-23.14 7.262-15.299 10.07-20.168 8.935-14.318 13.615-21 15.616-19.236 24.303-27.898 21.395-19.719 28.241-24.57 19.83-12.621 28.854-17.266 21.616-10.272 27.982-12.503 16.395-5.288 22.284-6.792 16.922-3.561 24.518-4.573 21.488-1.839 30.873-1.839 23.277.827 30.873 1.839 18.628 3.069 24.518 4.573 15.917 4.565 22.284 6.804 16.301 6.325 22.076 9.082 15.668 8.266 21.984 12.243 11.484 7.005 11.484 6.73-3.691-3.118-8.203-6.315-13.565-8.847-20.117-12.554-17.716-9.109-24.807-12.006-19.448-6.979-27.461-9.073-18.998-4.585-24.412-5.537c-6.057-1.065-19.689-1.695-35.437-1.64-22.416.08-27.64.522-42.077 3.56-9.066 1.908-22.65 5.607-30.187 8.221s-19.5 7.617-26.584 11.119-18.601 10.197-25.594 14.878-18.183 13.303-24.866 19.16-16.683 16.09-22.222 22.741-13.323 17.077-17.296 23.169S58.512 150.62 55.1 157.521s-8.342 18.716-10.955 26.253-6.229 21.003-8.036 29.923c-1.841 9.093-3.633 23.542-4.078 32.889-.437 9.169-.281 22.577.346 29.796l1.14 13.125.845-26.25c.61-18.946 1.643-30.22 3.715-40.517zm68.097-.497c-.76-4.874-1.08-16.835-.712-26.58.454-12.031 1.564-21.089 3.456-28.219 1.533-5.775 4.291-13.587 6.13-17.359s5.226-8.202 7.528-9.844c3.492-2.491 5.813-2.972 14.028-2.907 7.65.061 11.802.89 18.629 3.719 4.832 2.003 13.029 6.565 18.216 10.138l9.431 6.497 5.737-2.191c3.156-1.205 5.731-2.554 5.724-2.997s-4.585-4.199-10.172-8.347-13.998-9.565-18.69-12.04-13.007-6.001-18.477-7.838-13.525-3.48-17.899-3.653c-6.535-.258-8.762.24-12.485 2.791-2.493 1.708-5.872 5.061-7.51 7.452s-4.65 9.236-6.694 15.212-4.784 15.886-6.091 22.022c-1.852 8.699-2.376 17.082-2.376 38.063 0 17.261.65 30.43 1.812 36.735l1.812 9.829 4.992-10.811c4.937-10.693 4.977-10.908 3.61-19.672zm316.011 16.501c1.011-6.731 1.839-21.392 1.842-32.581.003-11.758-.82-25.424-1.948-32.381-1.074-6.621-3.503-16.957-5.398-22.969s-4.862-13.734-6.593-17.159c-1.913-3.785-5.218-7.599-8.427-9.722-4.205-2.783-6.66-3.445-12.062-3.254-3.73.132-10.16 1.115-14.289 2.185s-11.528 3.749-16.443 5.955-13.672 7.166-19.459 11.023-11.872 8.458-13.521 10.222l-2.998 3.209 5.954 2.274 5.954 2.274 6.234-4.576c3.429-2.517 10.367-6.641 15.419-9.164s11.547-5.235 14.435-6.026 8.262-1.442 11.944-1.446c5.304-.005 7.78.78 11.927 3.784 3.119 2.259 6.425 6.326 8.182 10.063 1.621 3.449 4.153 10.75 5.626 16.224 1.938 7.203 2.851 15.573 3.306 30.296.345 11.189.079 23.323-.591 26.964-1.118 6.076-.838 7.502 3.41 17.347 2.545 5.9 4.86 10.495 5.144 10.211s1.343-6.023 2.353-12.753zm-302.08-27.756c3.448-4.926 9.899-12.851 14.337-17.612s12.293-12.024 17.458-16.142 12.72-9.391 16.789-11.719c6.159-3.524 7.133-4.554 5.811-6.147-.874-1.053-5.476-4.2-10.227-6.995s-12.937-6.368-18.191-7.941c-6.273-1.878-11.083-2.573-14.009-2.024-2.723.511-5.969 2.559-8.346 5.266-2.139 2.437-5.1 8.177-6.579 12.756s-3.285 11.574-4.013 15.545a243.74 243.74 0 0 0-2.175 15.366c-.468 4.481-.427 13.238.091 19.458s1.357 10.823 1.864 10.227 3.743-5.114 7.19-10.039zm286.337-16.329c-.414-7.41-1.716-17.746-2.893-22.969s-3.753-13.08-5.726-17.459c-2.8-6.215-4.609-8.448-8.242-10.172-2.56-1.215-5.938-2.209-7.507-2.209s-7.147 1.442-12.397 3.204-13.085 5.279-17.411 7.814-8.549 5.433-9.384 6.44c-1.236 1.489.62 3.131 9.961 8.813 8.064 4.905 15.787 11.31 25.957 21.528 7.963 8 17.114 18.647 20.336 23.66l5.858 9.115 1.1-7.146c.605-3.93.761-13.209.347-20.618zm-159.69-69.101c1.935-1.072 7.982-10.174 15.448-23.25 6.748-11.819 12.613-22.804 13.033-24.413.525-2.007-1.168-6.533-5.402-14.437-3.392-6.333-7.26-12.646-8.595-14.031-2.034-2.109-2.762-2.239-4.492-.804-1.135.942-10.919 17.252-21.742 36.243l-20.467 36.586c-.434 1.131-.06 2.935.831 4.008 1.244 1.499 4.706 1.941 14.912 1.906 8.586-.03 14.418-.67 16.472-1.808zm57.088 1.058c1.142-.438 2.076-1.859 2.076-3.158s-3.041-7.585-6.757-13.969-7.647-12.641-8.735-13.905-2.75-2.297-3.694-2.297-5.578 6.504-10.297 14.454-8.58 14.919-8.58 15.487.709 1.742 1.575 2.609c1.046 1.046 6.743 1.575 16.955 1.575 8.459 0 16.314-.358 17.456-.797z" fill="#f82837"/><path d="M109.12 442.557l303.543-1.667m-285.723 15.326c4.429 3.019 12.698 7.849 18.375 10.734s15.96 7.116 22.851 9.403 18.999 5.439 26.906 7.003 18.807 3.405 24.221 4.09 25.495 1.044 44.625.799c23.98-.308 38.857-1.136 47.906-2.667 7.219-1.221 18.441-3.689 24.938-5.486s16.884-5.18 23.082-7.52 15.861-6.977 21.474-10.304 12.271-7.688 14.795-9.691 5.695-6.171 11.797-10.475c7.951-1.183 2.246 6.186.46 8.669-5.213 7.244-6.359 7.635-14.122 13.164-6.004 4.276-14.4 8.636-21.992 12.162-7.112 3.302-19.495 8.002-27.138 10.249s-20.173 5.03-28.113 6.563c-11.863 2.291-28.182 5.225-53.086 5.225-27.276 0-42.249-1.654-51.536-3.276-7.185-1.255-19.013-3.39-26.226-5.015-7.094-1.599-16.726-4.563-22.426-6.386-5.531-1.769-18.574-7.342-27.597-11.972-12.072-6.195-17.585-10.51-22.509-15.624-5.13-5.329-7.072-8.857-4.504-13.304" fill="#361447"/><path d="M237.668 494.119c-3.97-.274-13.125-1.13-20.344-1.901s-18.736-2.553-25.594-3.96-18.243-4.346-25.301-6.532-17.162-5.947-22.454-8.359-13.102-6.586-17.356-9.276-9.703-6.749-12.111-9.019-5.142-5.605-6.076-7.409-2.134-5.348-2.667-7.875c-.715-3.393-4.468-8.197-14.353-18.375-7.362-7.58-16.794-18.396-20.96-24.037s-10.268-14.795-13.56-20.344-8.294-15.092-11.116-21.207-7.141-17.127-9.598-24.47-5.68-19.306-7.164-26.584-3.314-20.926-4.068-30.327c-.944-11.774-.952-22.301-.024-33.828.741-9.204 2.518-22.345 3.95-29.203s4.046-17.194 5.809-22.969 4.481-13.703 6.04-17.617 5.506-12.444 8.77-18.955 8.63-16.007 11.924-21.102 8.547-12.593 11.674-16.661 10.166-12.158 15.64-17.978 15.385-14.975 22.023-20.345 16.204-12.415 21.257-15.656 15.33-8.968 22.838-12.729 20.54-9.141 28.96-11.956 20.978-6.285 27.908-7.711 20.328-3.248 29.775-4.05c12.616-1.071 21.758-1.069 34.438.007 9.494.806 21.75 2.324 27.234 3.373s15.288 3.466 21.784 5.37 17.92 6.064 25.385 9.244 16.915 7.641 21 9.913 11.857 7.073 17.271 10.669 13.978 9.906 19.031 14.021 14.219 12.726 20.368 19.134 13.981 15.306 17.404 19.773 9.275 13.031 13.005 19.031 9.564 16.816 12.964 24.035 8.057 19.005 10.349 26.192 5.069 16.932 6.172 21.656 2.82 15.381 3.815 23.683 1.828 20.413 1.85 26.914-.838 19.2-1.911 28.219-3.105 21.123-4.514 26.898-4.127 15.225-6.04 21-6.645 17.158-10.516 25.295-10.385 19.95-14.474 26.25-10.748 15.575-14.797 20.61-12.086 13.805-17.86 19.487c-8.823 8.682-10.767 11.38-12.181 16.903-.925 3.615-2.875 8.247-4.332 10.294s-6.622 6.346-11.476 9.554-12.409 7.626-16.787 9.819-13.829 6.023-21 8.512-18.354 5.76-24.851 7.272-18.614 3.634-26.926 4.717-25.441 2.221-38.062 2.527-26.197.333-30.168.059zm55.125-8.468c8.302-.758 22.27-2.815 31.04-4.57s21.469-5.041 28.219-7.301 16.997-6.48 22.772-9.378 13.158-7.093 16.406-9.323 7.236-5.487 8.861-7.24 3.589-5.541 4.364-8.42 1.067-6.596.649-8.262c-.739-2.946-1.038-2.838-10.926 3.951-5.591 3.839-14.3 9.053-19.353 11.585s-14.503 6.487-21 8.786-17.789 5.599-25.093 7.331-20.575 4.054-29.492 5.158c-9.042 1.119-26.555 2.007-39.6 2.007-12.863 0-29.123-.612-36.133-1.36s-18.947-2.583-26.526-4.078-19.687-4.654-26.906-7.02-18.145-6.635-24.281-9.488-16.029-8.517-21.984-12.586l-10.828-7.399v5.937c0 3.265.87 7.62 1.934 9.677s4.271 5.74 7.126 8.185 10.495 7.24 16.977 10.658 18.838 8.53 27.458 11.36 22.111 6.371 29.98 7.867 19.622 3.223 26.119 3.837 21.558 1.195 33.469 1.29 28.448-.447 36.75-1.205zm-9.187-23.591c9.745-.741 24.806-2.791 33.469-4.554s20.475-4.752 26.25-6.64 15.193-5.487 20.93-7.997 15.429-7.822 21.538-11.804 14.627-10.589 18.927-14.68 10.418-11.074 13.596-15.516 7.489-11.852 9.581-16.466 4.739-12.915 5.881-18.446 2.066-13.773 2.051-18.315-.621-12.376-1.348-17.408-3.139-14.187-5.36-20.344-5.756-17.691-7.855-25.632-5.31-18.94-7.135-24.443-6.006-15.23-9.292-21.616-9.017-16.059-12.735-21.495-11.825-14.992-18.015-21.235-16.625-14.878-23.189-19.188-16.303-9.655-21.641-11.877-14.693-5.481-20.789-7.241-16.533-3.94-23.194-4.844c-7.984-1.084-19.613-1.384-34.125-.881-14.837.514-25.651 1.607-33.17 3.352-6.136 1.424-16.321 4.465-22.633 6.759s-16.253 7.041-22.09 10.55-14.789 9.795-19.893 13.971-12.773 11.734-17.042 16.797-10.313 13.068-13.431 17.791-8.063 13.349-10.99 19.169-6.931 15.541-8.9 21.601-5.205 17.22-7.193 24.8-5.488 19.053-7.779 25.497c-2.415 6.794-4.771 16.893-5.607 24.041-1.099 9.391-1.053 15.021.195 23.651.901 6.229 3.288 15.575 5.304 20.769s6.414 13.575 9.771 18.625 9.935 12.766 14.618 17.146 12.135 10.423 16.562 13.429 14.031 8.312 21.344 11.791 20.088 8.368 28.39 10.864 21 5.55 28.219 6.787 18.736 2.689 25.594 3.227 17.194 1.063 22.969 1.166 18.473-.419 28.219-1.16zm-34.935-27.372c-2.25-.582-6.808-2.374-10.128-3.981s-8.914-6.071-12.431-9.919-8.798-11.631-11.735-17.295-6.612-14.51-8.168-19.659c-2.317-7.671-3.761-10.111-7.994-13.513-2.841-2.283-5.969-5.749-6.95-7.702s-2.099-5.322-2.483-7.487-.265-5.109.266-6.542c.819-2.212 1.218-1.835 2.649 2.5.927 2.807 4.119 7.535 7.094 10.506 3.086 3.081 7.73 6.094 10.811 7.015 2.971.888 9.173 1.601 13.781 1.585 5.322-.019 10.295-.913 13.629-2.452 2.887-1.333 7.465-4.667 10.172-7.409s4.922-5.339 4.922-5.771-3.017-1.857-6.705-3.167-9.297-4.771-12.465-7.691c-3.363-3.1-6.367-7.337-7.22-10.182-1.203-4.015-1.072-5.624.746-9.139 1.447-2.798 4.319-5.24 8.347-7.097 5.29-2.439 8.507-2.833 23.204-2.838 13.398-.005 18.398.509 23.283 2.394 3.421 1.32 7.408 3.91 8.859 5.755s2.639 4.566 2.639 6.045-1.24 5.251-2.755 8.381c-1.642 3.391-5.014 7.245-8.346 9.538-3.075 2.116-8.037 4.61-11.026 5.543s-5.435 2.068-5.435 2.522 2.693 3.309 5.986 6.343 7.998 6.358 10.458 7.386 8.114 1.869 12.565 1.869 10.343-.674 13.093-1.498 7.177-3.292 9.837-5.485 6.181-6.887 7.823-10.432c2.507-5.412 3.122-6.016 3.836-3.767.468 1.473.174 5.217-.653 8.321-1.03 3.867-3.489 7.567-7.815 11.758-4.882 4.73-6.814 7.852-8.525 13.781-1.217 4.216-4.619 12.609-7.561 18.651-3.195 6.561-8.207 14.073-12.448 18.653-4.106 4.435-10.023 9.098-14.032 11.06-4.756 2.327-9.774 3.562-15.983 3.936-4.978.299-10.892.067-13.142-.515zm25.162-10.351c2.884-1.471 7.954-5.573 11.267-9.115s6.748-7.792 7.632-9.445c1.417-2.648 1.166-3.472-2.119-6.932-2.05-2.16-6.68-5.459-10.29-7.333-5.367-2.786-8.834-3.503-19.031-3.938-10.482-.447-13.683-.074-20.088 2.338-4.191 1.578-10.005 5.139-12.921 7.913l-5.302 5.044 2.421 4.161c1.332 2.289 5.512 6.999 9.29 10.468s9.389 7.235 12.469 8.369c3.544 1.305 8.505 1.894 13.514 1.604 4.541-.263 10.149-1.599 13.157-3.134zm-76.844-117.234c-3.966-3.611-9.671-8.008-12.678-9.77s-8.893-4.096-13.08-5.187-9.852-1.983-12.587-1.983c-3.488 0-4.974-.573-4.974-1.918 0-1.176 2.632-2.7 6.801-3.937 3.74-1.111 8.932-2.02 11.537-2.02s8.212.905 12.46 2.012 10.597 3.575 14.107 5.486 8.723 6.012 11.583 9.115 5.2 6.409 5.2 7.347-.919 3.019-2.043 4.623c-1.279 1.826-3.366 2.895-5.578 2.857-2.355-.04-5.943-2.252-10.746-6.625zm107.88 5.11c-.866-.866-1.575-3.208-1.575-5.204 0-2.139 1.563-5.399 3.807-7.941 2.094-2.371 6.967-6.206 10.828-8.521s10.541-5.121 14.843-6.234 9.954-2.024 12.559-2.024 7.796.909 11.537 2.02 6.801 2.797 6.801 3.748c0 1.174-2.798 1.989-8.73 2.543-5.462.51-11.766 2.236-16.842 4.611-4.462 2.088-12.033 7.122-16.825 11.187-5.154 4.372-9.962 7.391-11.771 7.391-1.682 0-3.767-.709-4.633-1.575zM106.4 423.055c-.01-.541-3.494-5.074-7.744-10.073s-10.108-13.563-13.018-19.031-6.485-14.259-7.943-19.536-3.035-14.431-3.502-20.344c-.481-6.087-.193-15.59.664-21.907.832-6.136 3.812-17.948 6.62-26.25s6.394-20.114 7.968-26.25 2.873-12.042 2.888-13.125-1.27-7.875-2.854-15.094c-2.023-9.218-3.111-19.775-3.652-35.465-.467-13.539-.186-27.301.714-34.933.817-6.926 2.984-18.363 4.816-25.414s5.285-17.051 7.674-22.221c2.839-6.145 6.12-10.872 9.474-13.651 2.822-2.338 8.289-5.175 12.149-6.304 4.601-1.346 9.026-1.753 12.849-1.179 3.207.481 9.499 2.059 13.983 3.507s12.942 4.929 18.798 7.736 15.306 8.657 21 12.998l13.635 10.532 3.281 2.639 13.125-2.888c11.268-2.479 17.117-2.888 41.344-2.887 24.293.001 30.088.408 41.657 2.928l13.438 2.927 9.045-7.569c4.975-4.163 13.833-10.451 19.686-13.973s16.703-8.499 24.111-11.06c10.034-3.468 15.646-4.656 22.001-4.66 6.168-.004 10.038.775 13.968 2.811 2.99 1.549 7.538 5.27 10.105 8.27 2.776 3.243 6.345 10.045 8.806 16.78 2.276 6.229 5.315 16.642 6.754 23.139 1.839 8.306 2.82 18.852 3.303 35.527.419 14.45.098 28.294-.821 35.438-.829 6.448-2.442 16.448-3.583 22.223l-2.074 10.5 3.916 15.094c2.154 8.302 5.448 19.26 7.321 24.351s4.379 14.837 5.57 21.656c1.536 8.793 1.936 16.025 1.377 24.868-.434 6.858-1.681 15.783-2.771 19.834s-3.252 10.253-4.803 13.781-4.882 9.664-7.401 13.635-7.531 10.636-11.138 14.813-6.122 8.016-5.591 8.531 6.072-4.442 12.312-11.017 14.834-16.811 19.099-22.748 10.916-16.505 14.781-23.484 9.367-18.661 12.228-25.959 6.73-19.314 8.597-26.702 4.234-19.726 5.258-27.418 1.862-20.777 1.862-29.079-.826-21.295-1.836-28.875-3.396-19.932-5.302-27.45-5.821-19.626-8.698-26.906-8.181-18.553-11.785-25.05-10.517-17.423-15.362-24.281-15.307-18.981-23.247-26.94-19.278-18.096-25.194-22.526-16.619-11.374-23.783-15.431-18.803-9.735-25.863-12.619-19.392-6.956-27.405-9.05-18.998-4.585-24.412-5.537c-6.057-1.065-19.689-1.695-35.437-1.64-22.416.08-27.64.522-42.077 3.56-9.066 1.908-22.65 5.607-30.187 8.221s-19.5 7.617-26.584 11.119-18.601 10.197-25.594 14.878-18.183 13.303-24.866 19.16-16.683 16.09-22.222 22.741-13.323 17.077-17.296 23.169S58.512 150.62 55.1 157.521s-8.342 18.716-10.955 26.253-6.316 21.122-8.227 30.188c-3.088 14.645-3.483 19.483-3.547 43.389-.066 24.89.209 28.185 3.678 43.969 2.062 9.384 5.801 22.969 8.309 30.188s7.524 19.031 11.146 26.25 9.259 17.259 12.525 22.313 8.449 12.454 11.518 16.446 9.838 11.818 15.042 17.391 9.995 10.132 10.645 10.132 1.175-.443 1.166-.984zm-.229-201.432c-.745-5.254-1.042-17.23-.661-26.615.45-11.078 1.658-20.746 3.444-27.562 1.513-5.775 4.255-13.587 6.094-17.359s5.226-8.202 7.528-9.844c3.395-2.422 5.917-2.985 13.372-2.985 7.047 0 11.328.866 18.375 3.715 5.053 2.043 13.556 6.668 18.896 10.276l9.709 6.562 5.713-2.182c3.142-1.2 5.713-2.481 5.713-2.847s-1.329-1.813-2.953-3.215-7.331-5.566-12.682-9.254-14.093-8.721-19.427-11.185-14.151-5.62-19.593-7.011-11.997-2.262-14.566-1.933-6.555 1.889-8.859 3.468-5.528 4.826-7.166 7.216-4.65 9.236-6.694 15.212-4.784 15.886-6.091 22.022c-1.852 8.699-2.376 17.082-2.376 38.063 0 17.261.65 30.43 1.812 36.735l1.812 9.829 4.976-10.777c4.956-10.733 4.971-10.815 3.622-20.329zm316.015 17.123c1.011-6.731 1.839-21.392 1.842-32.581.003-11.758-.82-25.424-1.948-32.381-1.074-6.621-3.503-16.957-5.398-22.969s-4.862-13.734-6.593-17.159c-1.937-3.833-5.22-7.6-8.536-9.794-4.412-2.92-6.742-3.533-12.86-3.384-4.127.101-12.291 1.775-18.239 3.741-5.922 1.957-15.286 6.134-20.808 9.281s-13.767 8.529-18.321 11.96-8.295 6.6-8.313 7.044 2.626 1.822 5.876 3.063l5.909 2.257 6.231-4.544c3.427-2.499 9.775-6.305 14.106-8.458s11.038-4.951 14.903-6.217c4.523-1.482 9.478-2.099 13.902-1.733 4.304.357 8.434 1.681 11.049 3.543 2.296 1.635 5.333 5.243 6.749 8.017s4.136 10.255 6.046 16.624c2.883 9.613 3.574 14.922 4.07 31.267.328 10.828.064 22.972-.588 26.986-1.101 6.781-.858 8.057 3.433 18.003 2.54 5.888 4.851 10.473 5.134 10.189s1.343-6.023 2.353-12.753zm-302.08-27.756c3.448-4.926 9.899-12.851 14.337-17.612s12.293-12.024 17.458-16.142 12.72-9.391 16.789-11.719c6.159-3.524 7.133-4.554 5.811-6.147-.874-1.053-5.476-4.2-10.227-6.995s-12.937-6.368-18.191-7.941c-6.273-1.878-11.083-2.573-14.009-2.024-2.723.511-5.969 2.559-8.346 5.266-2.139 2.437-5.1 8.177-6.579 12.756s-3.285 11.574-4.013 15.545a243.74 243.74 0 0 0-2.175 15.366c-.468 4.481-.427 13.238.091 19.458s1.357 10.823 1.864 10.227 3.743-5.114 7.19-10.039zm286.337-16.329c-.414-7.41-1.716-17.746-2.893-22.969s-3.753-13.08-5.726-17.459c-2.8-6.215-4.609-8.448-8.242-10.172-2.56-1.215-5.938-2.209-7.507-2.209s-7.147 1.442-12.397 3.204-13.085 5.279-17.411 7.814-8.549 5.433-9.384 6.44c-1.236 1.489.62 3.131 9.961 8.813 8.064 4.905 15.787 11.31 25.957 21.528 7.963 8 17.114 18.647 20.336 23.66l5.858 9.115 1.1-7.146c.605-3.93.761-13.209.347-20.618z" fill="#542350"/><path d="M212.221 493.287c-7.185-1.206-19.013-3.259-26.226-4.822-7.094-1.537-16.726-4.387-22.426-6.14-5.531-1.701-18.574-7.059-27.597-11.51-12.072-5.956-17.585-10.104-22.509-15.02-5.13-5.123-7.072-8.515-8.274-13.513-1.36-5.651-2.229-8.511-14.41-21.114-7.729-7.996-18.041-20.104-22.915-26.906s-12.987-20.553-18.027-30.557-11.204-24.499-13.697-32.211-5.878-20.199-7.521-27.748c-2.635-12.103-2.993-17.454-3.034-45.227-.041-28.239.275-32.995 3.048-45.937 1.702-7.941 5.119-20.631 7.594-28.201s7.417-19.87 10.982-27.333 10.228-19.284 14.805-26.268 12.982-18.25 18.677-25.034 15.696-17.018 22.226-22.74 18.029-14.541 25.554-19.598 20.275-12.388 28.333-16.292 20.899-9.144 28.536-11.646 20.579-5.905 28.761-7.562c13.078-2.65 18.603-3.007 45.719-2.959 26.979.048 32.571.428 44.625 3.027 7.58 1.635 19.983 5.021 27.563 7.526s20.869 8.029 29.531 12.277 20.77 11.097 26.906 15.221 15.605 11.209 21.043 15.743 14.166 12.75 19.398 18.257 13.09 14.839 17.464 20.739 11.072 16.068 14.883 22.596 9.051 16.617 11.644 22.419 6.508 16.041 8.701 22.753 5.312 18.208 6.93 25.545c2.633 11.94 2.94 16.924 2.927 47.466-.014 32.818-.157 34.724-3.712 49.772-2.033 8.606-5.483 20.714-7.667 26.906s-6.457 16.575-9.496 23.072-8.578 16.722-12.307 22.723-9.572 14.565-12.985 19.031-12.189 14.323-19.504 21.902c-10.642 11.027-12.151 14.958-13.261 19.476-.763 3.106-2.507 7.114-4.293 9.5-5.213 6.964-6.359 7.34-14.122 12.656-6.004 4.111-14.4 8.303-21.992 11.692-7.112 3.175-19.495 7.693-27.138 9.854s-20.173 4.835-28.113 6.31c-11.863 2.202-21.811 3.043-53.086 3.433-27.274.34-42.249 0-51.536-1.559zm99.443-8.923c7.219-1.174 18.441-3.547 24.938-5.274s16.884-4.98 23.082-7.23 15.861-6.707 21.474-9.906 12.271-7.391 14.795-9.317 5.695-5.933 7.044-8.904 2.466-7.617 2.482-10.324-.244-4.922-.577-4.922-5.298 3.195-11.034 7.101-14.916 9.231-20.401 11.834-13.354 5.998-17.486 7.544-12.545 4.208-18.696 5.915-18.271 4.322-26.933 5.811c-10.561 1.815-24.454 2.944-42.171 3.426-16.284.443-32.147.127-41.344-.823-8.207-.848-22.044-2.974-30.749-4.724s-21.994-5.325-29.531-7.943-19.316-7.649-26.173-11.18-15.631-8.829-19.495-11.773-7.408-4.97-7.875-4.503-.792 3.435-.724 6.595c.081 3.738 1.228 7.38 3.281 10.419 1.736 2.57 6.78 7.048 11.209 9.95s12.698 7.546 18.375 10.319 15.96 6.841 22.851 9.04 18.999 5.229 26.906 6.733 18.807 3.274 24.221 3.932 25.495 1.004 44.625.768c23.98-.296 38.857-1.092 47.906-2.564zm-7.219-23.72c7.58-1.172 18.317-3.277 23.861-4.679s15.289-4.386 21.656-6.632 15.12-5.863 19.451-8.038 12.009-6.621 17.063-9.878 13.521-10.122 18.817-15.254 12.273-13.304 15.502-18.16 7.672-13.715 9.871-19.687c3.184-8.647 4.136-13.665 4.674-24.64.372-7.58.016-18.007-.791-23.173s-3.294-14.615-5.527-21-5.721-18.105-7.75-26.046-5.528-19.471-7.775-25.623-7.3-17.002-11.227-24.111-10.436-17.227-14.463-22.484-11.657-13.677-16.957-18.712-13.107-11.509-17.349-14.388-12.439-7.607-18.214-10.506-15.419-6.823-21.432-8.72-16.053-4.37-22.312-5.496c-7.085-1.274-19.307-2.065-32.381-2.095-13.947-.032-25.188.687-33.469 2.14-6.858 1.204-17.737 3.946-24.177 6.094s-16.48 6.387-22.312 9.419-15.134 8.924-20.67 13.092-13.99 11.818-18.786 16.999-12.233 14.671-16.526 21.088-10.098 16.494-12.9 22.391-6.91 16.334-9.129 23.191-4.699 15.422-5.511 19.031-3.757 13.355-6.543 21.656-5.682 18.933-6.434 23.625-1.362 12.961-1.355 18.375.876 13.978 1.93 19.031 4.676 14.776 8.048 21.607c5.114 10.36 8.111 14.415 18.076 24.456 6.57 6.62 16.279 14.825 21.575 18.234s14.451 8.424 20.344 11.145 16.351 6.753 23.242 8.959 18.999 5.235 26.906 6.731 19.398 3.271 25.534 3.944 22.969 1.003 37.406.733c15.066-.282 32.122-1.399 40.031-2.622zm-54.833-25.675c-3.088-.609-8.613-2.739-12.279-4.734s-9.013-6.295-11.884-9.556-7.212-9.494-9.649-13.851-6.286-13.539-8.553-20.404c-3.505-10.611-4.788-12.918-8.557-15.389-2.438-1.598-5.629-5.249-7.089-8.112s-2.65-7.74-2.643-10.836l.013-5.63 3.102 6.563c1.706 3.609 4.801 8.155 6.878 10.102s6.138 4.542 9.025 5.767c3.239 1.374 8.799 2.239 14.514 2.257 7.752.025 10.394-.586 16.187-3.738 3.807-2.072 8.35-5.464 10.095-7.538s3.173-4.222 3.173-4.775-2.267-1.683-5.038-2.514-7.516-3.304-10.543-5.497-6.665-5.89-8.082-8.214-2.579-6.097-2.582-8.384.363-5.118.813-6.29 3.109-3.301 5.91-4.73 9.815-3.233 15.588-4.01c7.493-1.008 13.499-1.008 20.993 0 5.773.777 12.744 2.559 15.491 3.961s5.712 4.121 6.588 6.043c1.16 2.545 1.228 4.849.251 8.476-.842 3.126-3.485 6.957-7.097 10.287-3.166 2.918-8.773 6.377-12.461 7.687s-6.705 2.743-6.705 3.185 2.174 3.041 4.83 5.777 7.529 6.183 10.828 7.661c4.126 1.849 8.671 2.672 14.562 2.639 5.644-.033 10.605-.952 14.549-2.697 3.292-1.456 7.976-5.019 10.41-7.919s5.144-7.258 6.023-9.685l1.597-4.414.1 5.62c.055 3.091-.723 7.59-1.729 9.998s-4.237 6.313-7.181 8.678c-4.192 3.368-5.805 5.895-7.443 11.659-1.15 4.047-4.69 12.75-7.866 19.341-3.38 7.014-8.454 14.915-12.236 19.052-3.554 3.888-9.101 8.388-12.329 10s-8.986 3.522-12.797 4.245-7.882 1.249-9.047 1.17-4.644-.642-7.732-1.25zm22.743-9.076c2.924-1.252 7.536-4.225 10.249-6.606s6.65-6.827 8.748-9.877l3.816-5.547-4.79-4.932c-2.635-2.713-7.783-6.283-11.44-7.933s-9.909-3.391-13.892-3.868c-4.028-.483-10.986-.189-15.679.662-4.64.841-10.536 2.612-13.102 3.936s-6.643 4.466-9.061 6.983c-3.307 3.444-4.175 5.272-3.506 7.381.489 1.542 3.958 5.947 7.709 9.788s8.769 7.993 11.153 9.226 6.799 2.697 9.812 3.254 7.545.742 10.072.411 6.986-1.626 9.91-2.878zm-75.814-119.002c-4.539-4.075-12.081-9.216-16.761-11.423-5.602-2.642-11.206-4.195-16.406-4.545-4.344-.293-8.446-1.045-9.115-1.672-.716-.671.871-2.012 3.858-3.26 3.712-1.551 8.091-1.998 16.31-1.664 9.291.377 12.747 1.171 19.966 4.585 4.801 2.271 11.151 6.55 14.109 9.509 3.344 3.344 5.38 6.586 5.38 8.567 0 1.753-.928 4.116-2.063 5.25s-3.179 2.063-4.544 2.063-6.195-3.334-10.734-7.41zm108.763 5.01c-1.195-1.32-2.172-3.602-2.172-5.07 0-1.513 2.862-5.347 6.604-8.848 3.632-3.398 9.97-7.718 14.083-9.602 5.32-2.435 10.425-3.595 17.683-4.015 6.105-.353 12.593.078 16.152 1.075 3.272.916 5.731 2.321 5.466 3.122s-4.503 1.859-9.417 2.35c-5.906.591-11.709 2.259-17.121 4.923-4.502 2.217-11.826 7.278-16.275 11.247s-9.156 7.217-10.46 7.217-3.349-1.08-4.544-2.4zM102.156 417.047c-3.219-3.452-7.806-9.127-10.195-12.61s-6.284-10.571-8.657-15.75-5.267-13.668-6.431-18.863-2.117-15.113-2.117-22.04.929-17.146 2.065-22.71 3.563-14.251 5.394-19.304 5.054-15.899 7.162-24.103l3.832-14.915-2.576-11.991c-1.417-6.595-3.28-19.374-4.14-28.397-.932-9.776-1.199-22.241-.662-30.844.496-7.941 2.037-20.313 3.424-27.494s4.026-17.573 5.864-23.094 5.244-13.204 7.568-17.074c3.248-5.409 5.853-7.884 11.266-10.703 5.049-2.629 8.955-3.666 13.808-3.666 3.722 0 11.005 1.174 16.184 2.61s12.846 4.125 17.036 5.977 12.049 6.127 17.463 9.499 13.447 9.186 17.85 12.92l8.006 6.789 10.2-2.43c5.61-1.337 17.348-3.12 26.085-3.962 8.898-.858 21.383-1.152 28.387-.668 6.877.475 18.099 1.793 24.938 2.928s13.775 2.573 15.412 3.195c2.511.955 4.697-.248 13.975-7.691 6.049-4.853 15.52-11.409 21.046-14.57s15.199-7.532 21.496-9.714c6.791-2.353 15.186-4.205 20.636-4.551 8.215-.521 9.949-.182 16.384 3.209 4.311 2.272 8.652 5.874 10.826 8.985 1.996 2.856 5.367 10.213 7.491 16.349s5.126 17.358 6.673 24.937 3.133 21.459 3.527 30.844c.405 9.653.04 23.332-.84 31.5-.855 7.941-2.675 19.6-4.044 25.91l-2.489 11.473 3.83 14.777c2.106 8.127 5.066 17.972 6.576 21.878s3.936 12.108 5.389 18.228c1.772 7.462 2.649 15.715 2.662 25.055.01 8.061-.845 17.641-2.031 22.74-1.128 4.847-3.458 12.277-5.179 16.513s-5.326 11.135-8.01 15.331-7.752 10.666-11.262 14.377c-4.365 4.615-6.037 7.304-5.292 8.51.599.969 1.77 1.342 2.603.827s6.857-6.939 13.388-14.278 16.004-19.499 21.052-27.024 12.322-20.224 16.166-28.219 9.066-21.033 11.605-28.974 5.549-19.458 6.689-25.594 2.64-18.205 3.334-26.821c.8-9.938.807-21.454.018-31.5-.684-8.709-1.798-19.084-2.475-23.054s-1.853-9.947-2.612-13.281-2.907-10.894-4.772-16.8-5.465-15.581-7.998-21.501-7.585-15.969-11.226-22.332-10.185-16.404-14.543-22.312-13.594-16.565-20.525-23.68-17.326-16.628-23.101-21.138-14.367-10.626-19.094-13.591-15.358-8.63-23.625-12.59-19.756-8.74-25.531-10.621-15.225-4.52-21-5.862-16.309-3.162-23.408-4.043c-8.283-1.027-20.982-1.329-35.437-.841-14.444.488-27.004 1.683-34.998 3.332-6.858 1.414-19.232 4.763-27.498 7.442s-22.441 8.649-31.5 13.267-22.082 12.374-28.939 17.235-19.854 16.223-28.88 25.249-20.375 22.022-25.22 28.88-12.402 19.394-16.792 27.859-10.547 23.23-13.68 32.813-6.796 23.328-8.14 30.547c-1.934 10.388-2.426 19.146-2.361 42 .07 24.648.503 30.796 2.959 42 1.583 7.219 4.697 18.736 6.92 25.594s6.933 18.573 10.466 26.033 8.613 17.206 11.29 21.656 8.088 12.481 12.025 17.845 12.196 14.979 18.353 21.367c7.438 7.716 11.634 11.174 12.503 10.305s-.656-3.415-4.544-7.585zm-2.462-166.381c0-1.071 1.799-5.649 3.998-10.172l3.998-8.224-1.514-14.435c-.838-7.988-1.118-19.126-.629-24.937.487-5.776 1.778-14.895 2.87-20.263s3.473-13.48 5.293-18.026c1.962-4.901 5.082-9.822 7.665-12.09 2.448-2.149 6.662-4.214 9.62-4.714 3.327-.562 8.26-.121 13.412 1.198 4.482 1.148 11.854 3.856 16.382 6.017s11.297 6.231 15.04 9.043l6.805 5.113 6.448-2.68c5.142-2.137 6.149-3.039 4.974-4.455-.811-.977-5.393-4.672-10.183-8.213s-12.549-8.534-17.241-11.096-13.934-6.464-20.537-8.67-14.243-4.011-16.976-4.011-7.535 1.242-10.67 2.759-7.069 4.618-8.741 6.891-4.317 7.38-5.876 11.35-4.295 12.997-6.079 20.059-3.843 20.211-4.574 29.219c-.885 10.898-.897 21.754-.037 32.441.711 8.834 1.928 19.163 2.704 22.953s1.959 6.891 2.63 6.891 1.219-.877 1.219-1.948zm322.921-11.505c.98-7.399 1.757-22.608 1.727-33.797-.036-13.04-.847-24.773-2.26-32.681-1.212-6.785-4.044-17.886-6.293-24.668s-5.77-14.651-7.824-17.487-6.222-6.425-9.263-7.976c-4.499-2.295-6.914-2.676-12.968-2.043-4.092.428-12.536 2.622-18.764 4.875s-16.345 7.25-22.482 11.102-13.872 9.229-17.19 11.948l-6.033 4.943 6.729 2.97 6.729 2.97 6.83-5.169c3.756-2.843 10.423-6.938 14.815-9.101s11.676-4.877 16.187-6.032c5.231-1.34 10.124-1.776 13.511-1.204 3.313.56 7.165 2.573 10.243 5.354 3.985 3.6 5.738 6.884 9.12 17.082 2.784 8.397 4.683 17.592 5.669 27.455 1.109 11.096 1.102 18.469-.029 29.284l-1.511 14.454 4.761 10.586c2.619 5.823 5.156 10.586 5.639 10.586s1.68-6.054 2.66-13.453zM118.42 214.305c3.228-4.828 8.751-12.163 12.274-16.301s10.836-11.328 16.25-15.977 14.421-11.126 20.016-14.392 10.172-6.166 10.172-6.444-4.126-3.175-9.17-6.438-13.03-7.385-17.749-9.161-11.315-3.229-14.659-3.229c-4.428 0-7.224.873-10.289 3.21-2.51 1.914-5.33 6.019-6.988 10.172-1.529 3.829-3.719 10.506-4.868 14.837s-2.423 15.312-2.832 24.402-.323 19.332.191 22.761 1.126 6.032 1.359 5.786 3.065-4.398 6.293-9.226zm288.399-9.653c0-12.249-.74-22.668-2.065-29.082-1.136-5.497-3.297-13.298-4.803-17.335s-4.732-9.339-7.168-11.782c-4.335-4.348-4.612-4.427-13.096-3.746-6.841.549-11.188 1.968-20.627 6.732-6.578 3.32-13.649 7.442-15.713 9.16l-3.753 3.123 5.997 2.995c3.299 1.647 10.999 6.749 17.113 11.338s15.295 12.878 20.403 18.422 12.09 14.388 15.515 19.653 6.671 9.581 7.212 9.591.984-8.572.984-19.07z" fill="#361447"/><circle cx="258.732" cy="258.487" r="235.961" fill="none" stroke="#361447" stroke-width="7.374" stroke-linejoin="bevel"/></g></svg>