<svg xmlns="http://www.w3.org/2000/svg" width="128" height="128" viewBox="0 0 204.8 204.8" xmlns:v="https://vecta.io/nano"><circle cx="102.4" cy="102.4" r="102.4" fill="#ff6c26"/><path d="M161.952 90.88l-34.432 34.432-5.664-6.24a23.738 23.738 0 0 0 .448-33.536 23.68 23.68 0 0 0-17.088-7.168h-20.16l-31.072-34.4h50.784A56.92 56.92 0 0 1 134.432 52a5.57 5.57 0 0 0-1.696 4v18.592c0 3.008 2.4 5.472 5.408 5.472h18.688c.576 0 1.184-.096 1.728-.288 1.536 3.552 2.656 7.264 3.392 11.072zm1.088 11.168c.032 16.064-6.592 31.456-18.304 42.464l-14.656-16.224 32.608-32.608c.224 2.112.352 4.224.352 6.336zm-41.088 28.832L92.64 160.192H50.432v-19.616h5.216c3.04.064 5.568-2.368 5.632-5.408v-18.72a5.54 5.54 0 0 0-5.536-5.536h-5.312v-59.2l34.016 37.664v36.416h20.896c3.456 0 6.88-.768 10.016-2.24l6.624 7.328zm16.704 18.496A57.878 57.878 0 0 1 104.928 160h-6.816l26.432-26.432zm2.976-93.344h11.648c1.952 0 3.552 1.6 3.552 3.552V71.36c0 1.952-1.6 3.552-3.552 3.552h-11.648c-1.952 0-3.552-1.6-3.552-3.552V59.456a3.54 3.54 0 0 1 3.552-3.424zm23.648-7.808h8.544c1.376 0 2.464 1.12 2.464 2.464v8.576c0 1.376-1.088 2.496-2.432 2.528h-8.576c-1.376 0-2.496-1.12-2.528-2.528V50.72c0-1.376 1.12-2.528 2.528-2.528zm-16.832-9.664h7.072c1.12 0 2.048.928 2.048 2.048v7.072c0 1.12-.928 2.048-2.048 2.048h-7.072c-1.12 0-2.048-.864-2.048-1.984v-7.136c0-1.12.928-2.048 2.048-2.048zm-96.224 96.544H40.416c-1.952 0-3.552-1.6-3.552-3.552v-11.744c0-1.952 1.6-3.552 3.552-3.552h11.808c1.952 0 3.552 1.6 3.552 3.552v11.808c-.032 1.92-1.6 3.456-3.552 3.456zm-24.16 3.424H19.52c-1.376 0-2.496-1.088-2.528-2.432v-8.384c0-1.376 1.152-2.464 2.528-2.464h8.544a2.52 2.52 0 0 1 2.528 2.464v8.544a2.47 2.47 0 0 1-2.528 2.304zm12.48 15.072h-7.072c-1.12 0-2.016-.896-2.016-2.016v-7.072c0-1.12.896-1.984 2.016-2.016h7.072c1.12 0 1.984.896 2.016 2.016v7.072c0 1.12-.896 2.016-2.016 2.016z" fill="#fff" fill-rule="evenodd"/></svg>