<svg xmlns="http://www.w3.org/2000/svg" width="128" height="128" xmlns:v="https://vecta.io/nano"><path fill="url(#A)" d="M63.991 128a64 64 0 1 1 .028-128 64 64 0 0 1-.028 128z"/><g fill-rule="evenodd"><path fill="#a8623e" d="M82.352 105.451h-36.58c1.792 4.153.704 8.825 17.92 8.96h.747c17.216-.135 16.121-4.807 17.92-8.96z"/><path fill="#b66d37" d="M64.432 52.423H21.097v19.762a35.833 35.833 0 0 0 35.833 35.84h14.229a35.833 35.833 0 0 0 35.84-35.84V52.423H64.418z"/><path fill="#a35d3b" d="M106.921 60.018H78.512c-9.742 0-7.182 6.208-14.521 6.45-7.339-.242-4.772-6.45-14.514-6.45H21.09a1.472 1.472 0 0 0-1.472 1.472v4.388c0 .811.661 1.472 1.472 1.472h1.884c0 14.343 4.309 24.434 20.38 24.434 12.729 0 16.356-13.596 17.316-19.257a2.93 2.93 0 0 1 2.901-2.432h.875c1.422 0 2.66 1.024 2.894 2.432.96 5.66 4.594 19.257 17.316 19.257 16.071 0 20.388-10.098 20.388-24.434h1.884a1.472 1.472 0 0 0 1.472-1.472V61.49a1.472 1.472 0 0 0-1.472-1.472zM41.392 88.711s-14.5.725-14.5-12.274v-9.451a2.631 2.631 0 0 1 2.624-2.631c15.559-.1 24.932-.853 26.453 5.17 1.6 6.364-2.83 19.179-14.578 19.179zm59.705-12.274c0 12.992-14.5 12.274-14.5 12.274-11.748 0-16.171-12.814-14.571-19.179 1.522-6.03 10.894-5.262 26.453-5.17a2.638 2.638 0 0 1 2.617 2.631z"/><path fill="#49211b" d="M24.866 60.089h24.619v-1.636a3.925 3.925 0 0 0-4.103-3.918l-16.782.782a3.918 3.918 0 0 0-3.733 3.925v.853z"/><path fill="#b5a595" d="M52.393 75.044H31.266l.078-2.844a5.76 5.76 0 0 1 5.76-5.596h8.626c2.489 0 4.793 1.444 5.767 3.726.526 1.209.903 2.773.903 4.708v.007z"/><path fill="#3a6c7c" d="M45.779 75.044a5.17 5.17 0 1 0-8.014 0h8.021z"/><path fill="#49211b" d="M103.258 60.089H78.654v-1.636c0-2.24 1.87-4.018 4.103-3.918l16.775.782a3.918 3.918 0 0 1 3.733 3.925v.853z"/><path fill="#b5a595" d="M75.738 75.044H96.88l-.085-2.844a5.76 5.76 0 0 0-5.746-5.596h-8.647a6.244 6.244 0 0 0-5.76 3.726c-.526 1.209-.903 2.773-.903 4.708z"/><path fill="#3a6c7c" d="M82.338 75.044a5.17 5.17 0 1 1 8.014 0H82.33z"/><path fill="#7a8dac" d="M75.966 16h-23.95a31.737 31.737 0 0 0-31.73 31.73v5.447a.79.79 0 0 0 .782.782s5.056-1.536 42.923-1.536 42.93 1.536 42.93 1.536a.79.79 0 0 0 .782-.782V47.73A31.73 31.73 0 0 0 75.966 16z"/><path fill="#8a534b" d="M66.835 31.339h-4.779a19.26 19.26 0 0 0-16.619 9.5l-2.076 3.534H85.53l-2.076-3.534a19.271 19.271 0 0 0-16.604-9.5h-.007z"/><path fill="#552416" d="M62.05 35.534h4.772c6.564 0 12.658 3.342 16.199 8.839h2.51l-2.084-3.534a19.271 19.271 0 0 0-16.612-9.5h-4.779a19.26 19.26 0 0 0-16.619 9.5l-2.076 3.534h2.503a19.271 19.271 0 0 1 16.199-8.839z"/><path fill="#574a2b" d="M41.171 70.258a3.705 3.705 0 0 1 1.472.263c.562.213.597 1.294.164 1.671-1.109.953-1.984.782-2.631-.526-.263-.519.42-1.436.996-1.415zm44.8 0a3.705 3.705 0 0 1 1.472.263c.555.213.597 1.294.156 1.671-1.102.953-1.977.782-2.631-.526-.256-.519.427-1.436 1.01-1.415h-.007z"/><path fill="#cbcbcb" d="M106.921 57.088H78.512c-9.742 0-7.182 6.208-14.521 6.45-7.339-.242-4.772-6.45-14.514-6.45H21.09a1.472 1.472 0 0 0-1.472 1.472v6.308c0 .811.661 1.472 1.472 1.472h1.884c0 14.35 4.309 22.514 20.38 22.514 12.729 0 16.356-13.596 17.316-19.257a2.93 2.93 0 0 1 2.901-2.432h.875c1.422 0 2.66 1.024 2.894 2.425.96 5.668 4.594 19.271 17.316 19.271 16.071 0 20.388-8.178 20.388-22.521h1.884a1.472 1.472 0 0 0 1.472-1.472V58.56a1.472 1.472 0 0 0-1.472-1.472zM41.392 85.781s-14.5.725-14.5-12.281v-9.429a2.631 2.631 0 0 1 2.624-2.631c15.559-.1 24.932-.853 26.453 5.17 1.6 6.364-2.83 19.179-14.578 19.179zM101.097 73.5c0 12.999-14.5 12.281-14.5 12.281-11.748 0-16.171-12.814-14.571-19.179 1.522-6.03 10.894-5.262 26.453-5.17a2.638 2.638 0 0 1 2.617 2.631z"/><path fill="#98553f" d="M64.432 91.15H53.765v1.308a3.29 3.29 0 0 0 3.285 3.292h14.009a3.292 3.292 0 0 0 3.285-3.292V91.15z"/><path fill="#824037" d="M58.352 95.787a2.34 2.34 0 0 1 2.34-2.34h7.154c1.287 0 2.34 1.045 2.34 2.347H58.359z"/></g><defs><radialGradient id="A" cx="0" cy="0" r="1" gradientTransform="matrix(-81.911962,131.9099,-131.98656,-81.959606,89.036231,14.257779)" gradientUnits="userSpaceOnUse"><stop stop-color="#93dbfe"/><stop offset=".51" stop-color="#e0dbc9"/><stop offset=".785" stop-color="#eda6a7"/><stop offset="1" stop-color="#d39efe"/></radialGradient></defs></svg>