<svg xmlns="http://www.w3.org/2000/svg" width="128" height="128" viewBox="0 0 33.867 33.867" xmlns:v="https://vecta.io/nano"><circle cx="16.933" cy="16.933" r="16.933" fill="#151c33"/><path d="M23.311 30.121c2.271-.253 3.61-1.768 4.252-4.812.395-1.873.547-4.152.558-8.374l-.206-5.224c-.307-3.052-.929-5.352-1.78-6.583-.309-.447-.743-.853-1.094-1.024-.9-.438-2.466-.528-3.672-.212-1.376.36-2.038 1.283-1.961 2.735.06 1.139.232 1.795.956 3.655l.997 2.975c-.021 0-.225-.266-.453-.591l-2.641-3.409c-1.028-1.064-1.895-1.661-2.902-1.999-1.59-.533-3.499-.073-4.521 1.087-.293.333-.566.886-.639 1.296-.102.568.002.987.694 2.796.537 1.405.902 3.046 1.04 4.685.054.637.056 1.302.004 1.476-.033.114-.037.111-.115-.07-.121-.28-.422-1.282-.585-1.945-.19-.773-.316-1.526-.38-2.272-.088-1.03-.193-1.434-.57-2.194a5.02 5.02 0 0 0-.973-1.405c-1.324-1.387-3.073-1.557-4.763-.463-1.585 1.026-2.355 2.619-1.816 3.759.201.425.43.662 1.34 1.388 2.058 1.643 3.061 2.91 4.393 5.55.829 1.643 1.363 3.044 1.808 4.75.328 1.257.509 1.65.974 2.112.526.524 1.043.723 1.883.723.8 0 1.516-.228 2.245-.716.648-.433 1.49-1.463 1.869-2.285.35-.759.542-1.793.543-2.927.002-1.683-.398-3.294-1.246-5.012-.297-.602-.202-.507.28.281 1.174 1.918 1.808 3.72 2.043 5.81.026.232.048 1.107.049 1.944.001 1.594.03 1.969.19 2.45.358 1.078 1.577 1.88 3.113 2.047.489.053.595.053 1.085-.002z" fill="#48afe4"/></svg>