<svg xmlns="http://www.w3.org/2000/svg" fill="none" width="128" height="128" xmlns:v="https://vecta.io/nano"><circle cx="64" cy="64" r="64" fill="url(#A)"/><circle cx="63.996" cy="64" r="55.854" fill="#000"/><g fill="#fff"><ellipse cx="83.783" cy="25.745" rx="1.163" ry="1.309"/><ellipse cx="-59.488" cy="7.341" rx="1.163" ry="1.309" transform="rotate(242.145)"/><ellipse cx="39.56" cy="74.618" rx="1.163" ry="1.309"/><ellipse cx="19.783" cy="59.491" rx="1.163" ry="1.309"/><ellipse cx="124.828" cy="-49.472" rx="1.163" ry="1.309" transform="rotate(73.343)"/><g transform="rotate(242.145)"><ellipse cx="-39.708" cy="31.78" rx="1.163" ry="1.309"/><ellipse cx="-107.425" cy="-11.923" rx="1.163" ry="1.309"/></g><circle cx="88.44" cy="60.51" r="1.163"/><circle cx="97.746" cy="39.563" r="1.163"/><circle cx="103.56" cy="79.127" r="1.163"/><circle cx="24.44" cy="84.946" r="1.163"/><circle cx="109.7" cy="-39.134" r="1.163" transform="rotate(73.343)"/><g transform="rotate(242.145)"><circle cx="-54.833" cy="42.103" r="1.163"/><circle cx="-122.561" cy="-1.583" r="1.163"/></g></g><path fill="url(#B)" d="M54.463 87.273l.837-16.965-.837-29.813 9.915-1.746-.978 30.37.487 11.31L78.2 79.314l-.768 7.959z"/><defs><linearGradient id="A" x1="64" x2="64" y1="0" y2="128" gradientUnits="userSpaceOnUse"><stop stop-color="#2470b5"/><stop offset="1" stop-color="#c43c83"/></linearGradient><linearGradient id="B" x1="64.004" x2="64.004" y1="54.568" y2="89.352" gradientUnits="userSpaceOnUse"><stop stop-color="#fff"/><stop offset=".505" stop-color="#ddd"/><stop offset="1" stop-color="#fff"/></linearGradient></defs></svg>