<svg xmlns="http://www.w3.org/2000/svg" xmlns:xlink="http://www.w3.org/1999/xlink" width="128" height="128" fill="none" xmlns:v="https://vecta.io/nano"><circle cx="64" cy="64" fill="url(#A)" stroke="#1e2223" r="60.8" stroke-width="6.4"/><path d="M63.693 101.771c-6.342-.065-13.795-2.092-20.464-5.557-4.119-2.092-7.846-4.773-10.723-7.65-.327-.327-.785-.523-1.308-.523h-.131l-2.811.327c-.392 0-.654.065-1.046.065h-.196c-2.615 0-5.1-.916-7.127-2.616-2.484-1.961-4.054-4.904-4.381-8.173l-.85-8.696c-.327-3.138.523-6.211 2.484-8.696 1.635-2.092 3.858-3.596 6.407-4.184.719-.196 1.242-.785 1.373-1.504.523-4.838 1.896-9.415 3.727-12.488 4.054-6.8 10.919-11.703 18.83-13.534 2.158-.458 3.923-.785 5.688-1.046.85-.131 1.7-.196 2.55-.327h.131c2.615-.262 5.296-.458 8.042-.458h.131c2.746 0 5.492.131 8.108.458h.131c.85.131 1.7.196 2.55.327 1.7.196 3.53.523 5.622.981 7.911 1.831 14.776 6.734 18.83 13.534 1.831 3.073 3.204 7.584 3.727 12.488.065.719.589 1.373 1.308 1.504a11.77 11.77 0 0 1 6.408 4.185c1.896 2.484 2.812 5.623 2.484 8.761l-.85 8.63c-.327 3.269-1.896 6.211-4.381 8.173-1.962 1.635-4.446 2.55-7.126 2.55h-.197c-.392 0-.653-.065-.98-.065l-3.139-.327c-.392 0-.85.196-1.242.524-2.877 2.877-6.538 5.492-10.657 7.584-6.669 3.466-14.122 5.492-20.464 5.558h-.197c-.065.196-.196.196-.262.196z" fill="#edeaca"/><g fill="#1e2223"><path d="M108.152 62.28c-1.176-1.569-2.811-2.616-4.642-3.008-2.027-.458-3.53-2.223-3.792-4.25-.458-4.315-1.7-8.5-3.269-11.18-3.596-6.015-9.742-10.461-16.803-12.096a70.96 70.96 0 0 0-5.361-.981c-.85-.131-1.7-.196-2.484-.327-2.55-.262-5.165-.392-7.846-.392a76.86 76.86 0 0 0-7.846.392c-.85.131-1.635.196-2.484.327-1.831.262-3.596.588-5.361.981-7.061 1.634-13.207 6.015-16.803 12.096-1.635 2.681-2.811 6.865-3.269 11.18-.196 2.092-1.7 3.792-3.792 4.25a8.5 8.5 0 0 0-4.642 3.008c-1.438 1.83-2.092 4.119-1.831 6.473l.85 8.63c.262 2.419 1.373 4.577 3.204 6.015 1.504 1.242 3.269 1.831 5.165 1.831.392 0 .654-.065.915-.065l2.811-.327c.196 0 .392-.065.523-.065 1.308 0 2.55.523 3.531 1.438 2.615 2.615 6.015 5.1 9.938 7.061 6.342 3.269 13.338 5.165 19.222 5.231 5.884-.065 12.88-1.962 19.222-5.231 3.857-1.961 7.258-4.446 9.938-7.061.981-.915 2.157-1.438 3.531-1.438.131 0 .392 0 .523.065l2.812.327c.261 0 .523.065.915.065 1.896 0 3.661-.654 5.165-1.831 1.83-1.503 2.942-3.661 3.203-6.015l.851-8.63c0-2.354-.654-4.643-2.093-6.473z"/><use xlink:href="#B"/></g><path d="M90.107 80.914c-3.269 9.154-17.195 14.253-26.152 14.253h-.065-.262c-8.957 0-23.08-5.165-26.284-14.384-.654-5.165.131-11.507 6.342-12.03 1.308-.392 1.504-2.223.262-2.812-14.776-7.258-2.615-27.853 11.376-24.322 6.146 1.831 5.165 2.746 8.499 2.746h.066c3.269 0 2.353-.915 8.499-2.746C86.38 38.154 98.41 58.88 83.634 66.006c-1.046.523-1.177 2.027-.131 2.681.327.196 1.962.653 2.419.785 4.511.85 4.708 7.715 4.184 11.441z" fill="#edeaca"/><path d="M54.147 71.368c1.177-2.615 6.865-1.242 5.558 2.092-.327 1.896-6.146.262-5.558-2.092zm19.092.066c-1.112-2.68-6.865-1.242-5.558 2.027.327 1.896 6.081.327 5.558-2.027zM54.866 58.358a12.9 12.9 0 0 1-.327 2.877c-.654 2.223-2.092 3.857-3.923 4.184-2.288.392-4.446-1.373-5.427-4.119-.196-.654-.392-1.308-.458-2.092-.065-.262-.065-.589-.065-.85-.131-3.531 1.7-6.604 4.25-7.062 2.811-.458 5.427 2.354 5.884 6.211.065.262.065.523.065.85zm28.049.065c0 .261 0 .588-.065.85-.458 3.857-3.139 6.669-5.949 6.146-2.616-.458-4.381-3.531-4.25-7.061 0-.262 0-.589.065-.85.458-3.858 3.139-6.669 5.95-6.211 2.615.523 4.381 3.596 4.25 7.127z" fill="#1e2223"/><g fill="#edeaca"><use xlink:href="#B"/><path d="M30.414 78.626c-6.277 1.176-8.5-13.534-2.158-14.646 2.746-.262.981 1.896 2.158 6.799.981 4.185 2.746 7.519 0 7.846z"/></g><path d="M85.334 83.137l-.719 1.046c-.261.327-.523.589-.784.785-5.82 4.119-12.749 6.015-18.961 6.342-.131.065-.261.065-.392.065h-.065-.785-.719c-.131 0-.262 0-.392-.065-6.212-.458-13.207-2.419-18.896-6.669-.262-.196-.523-.458-.785-.785s-.458-.719-.719-1.046c-.196-.392-.327-.785-.392-1.177-.196-1.046.262-2.157 1.111-3.139l.392-.392c1.177-1.046 2.615-1.635 3.858-1.503.392 0 .719.131 1.111.261s.785.327 1.177.458c.458.131.85.326 1.308.458 4.315 1.438 8.761 2.092 13.077 2.223a48.55 48.55 0 0 0 13.076-2.027c.458-.131.915-.261 1.308-.458.261-.065 1.242-.458 1.242-.458.327-.131.719-.196 1.111-.196 1.439-.065 3.073.654 4.25 1.962 1.242 1.373 1.438 3.008.588 4.316z" fill="#1e2223"/><path d="M81.542 82.614c-.197.262-.392.458-.524.719-.131.131-.261.261-.458.392-4.446 2.942-10.396 4.38-16.084 4.577h-.719-.719c-5.688-.262-11.638-1.831-15.953-4.838-.131-.131-.327-.262-.392-.392 2.354.523 4.773.785 7.192.785l-6.996-3.727c.719-.458 1.7-.719 2.615-.392.392.131.785.262 1.111.327a8.81 8.81 0 0 0 1.242.327c4.119 1.111 8.173 1.635 12.031 1.765a56.63 56.63 0 0 0 12.095-1.504c.392-.131.85-.196 1.242-.327s.785-.196 1.177-.326c1.896-.719 4.25 1.046 3.139 2.615z" fill="#edeaca"/><defs><linearGradient id="A" x1="64" y1="6.4" x2="64" y2="121.6" gradientUnits="userSpaceOnUse"><stop stop-color="#ffdb34"/><stop offset="1" stop-color="#c9d4ed"/></linearGradient><path id="B" d="M97.888 78.495c-2.812-.261-1.046-3.661 0-7.846 1.177-4.904-.589-7.061 2.157-6.799 6.342 1.112 4.119 15.757-2.157 14.645z"/></defs></svg>