<svg xmlns="http://www.w3.org/2000/svg" width="128" height="128" xmlns:v="https://vecta.io/nano"><path d="M64 0c35.349 0 64 28.651 64 64s-28.651 64-64 64S0 99.349 0 64 28.651 0 64 0z" fill="#f0b90b" fill-rule="evenodd"/><path d="M35.174 64l.046 16.923 14.38 8.462v9.908l-22.795-13.37V59.051zm0-16.923v9.862L26.8 51.985v-9.862l8.374-4.954 8.415 4.954zm20.431-4.954l8.374-4.954 8.415 4.954-8.415 4.954zM41.226 77.415v-9.908l8.374 4.954v9.862zm14.379 15.518l8.374 4.954 8.415-4.954v9.862l-8.415 4.954-8.374-4.954zm28.8-50.81l8.374-4.954 8.415 4.954v9.862l-8.415 4.954v-9.862zm8.374 38.8L92.826 64l8.374-4.954v26.872L78.405 99.287v-9.908zm-6.005-3.508L78.4 82.323v-9.862l8.374-4.954zm0-26.83l.046 9.908-14.42 8.461v16.964l-8.374 4.908-8.374-4.908V68.954l-14.421-8.462v-9.908l8.41-4.954 14.333 8.503 14.421-8.503 8.415 4.954zM41.226 33.667L63.98 20.252l22.795 13.415-8.374 4.954-14.421-8.503-14.38 8.503z" fill="#fff"/></svg>