<svg xmlns="http://www.w3.org/2000/svg" width="128" height="128" fill="none" xmlns:v="https://vecta.io/nano"><circle cx="64" cy="64" r="60" fill="#fff"/><path fill-rule="evenodd" d="M64 128c35.346 0 64-28.654 64-64S99.346 0 64 0 0 28.654 0 64s28.654 64 64 64zm7.306-107.093c0 3.77-3.08 6.827-6.88 6.827s-6.879-3.056-6.879-6.827 3.08-6.827 6.879-6.827 6.88 3.056 6.88 6.827zM47.36 24.78v3.742l.066 28.226c0 1.681 1.147 2.101 1.72 2.101h13.032v4.463H49.146c-1.323 0-1.389 1.247-1.389 1.969s.066 1.838 1.389 1.838h13.032v4.857H49.146c-.573 0-1.72.42-1.72 2.1l-.066 28.226v3.742c0 .153.079.459.397.459.582 0 1.566-1.313 1.985-1.969l13.23-19.364c.242-.328.873-.985 1.455-.985s1.213.657 1.455.985l13.23 19.364c.419.656 1.402 1.969 1.985 1.969.318 0 .397-.306.397-.459v-3.742l-.066-28.226c0-1.68-1.147-2.1-1.72-2.1H66.676v-4.857h13.032c1.323 0 1.389-1.116 1.389-1.838s-.066-1.969-1.389-1.969H66.676v-4.463h13.032c.573 0 1.72-.42 1.72-2.101l.066-28.226V24.78c0-.153-.079-.46-.397-.46-.582 0-1.566 1.313-1.985 1.969l-13.23 19.364c-.243.328-.873.985-1.455.985s-1.213-.656-1.455-.985l-13.23-19.364c-.419-.657-1.402-1.969-1.985-1.969-.318 0-.397.306-.397.46zm3.969 14.178v14.047c0 .578.397.678.595.656l8.911-.001h.078l.47.001c.463 0 .154-.591 0-.853l-8.401-14.375c-.132-.197-.397-.525-.926-.459s-.728.656-.728.985zm0 52.907V77.817c0-.578.397-.678.595-.656l8.911.001.548-.001c.463 0 .154.591 0 .853L52.983 92.39c-.132.197-.397.525-.926.46s-.728-.657-.728-.985zm26.195-38.859V38.958c0-.328-.198-.919-.728-.985s-.794.263-.926.459-8.401 14.375-8.401 14.375c-.154.263-.463.853 0 .853l.548-.001 8.911.001c.198.022.595-.079.595-.656zm0 38.859V77.817c0-.578-.397-.678-.595-.656l-8.911.001h-.065l-.483-.001c-.463 0-.154.591 0 .853l8.401 14.375c.132.197.397.525.926.46s.728-.657.728-.985zM64.427 116.48c3.8 0 6.88-3.056 6.88-6.827s-3.08-6.827-6.88-6.827-6.879 3.056-6.879 6.827 3.08 6.827 6.879 6.827z" fill="#000"/></svg>