<svg xmlns="http://www.w3.org/2000/svg" width="128" height="128" viewBox="0 0 33.867 33.867" xmlns:v="https://vecta.io/nano"><defs><clipPath id="A"><path fill="#fff" transform="translate(0 .276)" d="M0 0h116.348v113.808H0z"/></clipPath><clipPath id="B"><path fill="#fff" transform="translate(0 .276)" d="M0 0h116.348v113.808H0z"/></clipPath></defs><g clip-path="url(#A)" transform="matrix(.291081 0 0 .297579 0 -.081987)"><g clip-path="url(#B)"><path d="M116.348 57.179c0 31.42-26.053 56.904-58.174 56.904-11.635 0-22.493-3.34-31.571-9.117C10.583 94.836 0 77.218 0 57.179 0 25.76 26.037.276 58.174.276c27.299 0 50.196 18.393 56.475 43.196 1.1 4.4 1.699 8.991 1.699 13.708z" fill="#47c2ff"/><g fill="#fff"><path d="M58.174 110.68c-30.163 0-54.695-23.996-54.695-53.501S28.011 3.679 58.174 3.679s54.695 23.996 54.695 53.501-24.548 53.501-54.695 53.501zm0-104.516C29.419 6.164 6.02 29.052 6.02 57.179s23.399 51.016 52.154 51.016 52.154-22.888 52.154-51.016S86.929 6.164 58.174 6.164z"/><path d="M112.869 57.179c0 28.966-23.658 52.63-53.061 53.469l-1.634.032c-10.826 0-20.923-3.087-29.419-8.421.922-.411 1.829-.839 2.686-1.282C51.927 90.499 57.51 70.095 74.728 54.441c7.46-6.775 17.525-13.043 31.425-17.253l2.444-.697a52.27 52.27 0 0 1 4.239 19.675c.017.332.033.681.033 1.013zM24.645 76.743c-.081 0-.146-.032-.194-.095-.081-.111-.065-.269.032-.348l5.437-4.369c.113-.095.275-.063.356.032.081.111.065.269-.032.348l-5.437 4.369a.21.21 0 0 1-.162.063zm1.91 15.908c-.081 0-.146-.032-.194-.095-.081-.111-.081-.269.032-.348l12.735-10.209c.113-.079.275-.063.356.032.081.111.081.269-.032.348L26.7 92.604c-.032.032-.097.047-.146.047zM46.394 82.03c1.412 0 2.557-1.12 2.557-2.501s-1.145-2.501-2.557-2.501-2.557 1.12-2.557 2.501 1.145 2.501 2.557 2.501z"/></g><path d="M58.384 75.129c12.217 0 22.121-9.687 22.121-21.638s-9.904-21.638-22.121-21.638-22.121 9.687-22.121 21.638 9.904 21.638 22.121 21.638z" fill="#b5d1ee"/><g fill="#fff"><path d="M56.604 73.309c12.217 0 22.121-9.687 22.121-21.638s-9.904-21.638-22.121-21.638-22.121 9.688-22.121 21.638 9.904 21.638 22.121 21.638zM10.89 79.893a.75.75 0 0 1-.582-.269.74.74 0 0 1 .113-1.045l17.881-14.356a.78.78 0 0 1 1.068.111.74.74 0 0 1-.113 1.045L11.36 79.719a.69.69 0 0 1-.469.174zm7.719 11.381a.75.75 0 0 1-.583-.269.74.74 0 0 1 .113-1.045l15.47-12.41a.78.78 0 0 1 1.068.111.74.74 0 0 1-.113 1.045L19.095 91.1a.79.79 0 0 1-.485.174z"/></g><path d="M84.089 80.36c3.649-3.257 6.174-6.318 5.64-6.836s-3.925 1.702-7.574 4.959-6.174 6.318-5.64 6.836 3.925-1.702 7.574-4.959z" fill="#b5d1ee"/></g></g></svg>