<svg xmlns="http://www.w3.org/2000/svg" width="128" height="128" xmlns:v="https://vecta.io/nano"><circle cx="64" cy="64" r="64" fill="#00b3ed"/><path d="M104.365 96.943H82.017l.128-.108.483-.426.301-.274.477-.426.301-.278.499-.498.256-.256.614-.669.119-.128q.358-.429.705-.855l.188-.242.483-.64.238-.338.397-.58.243-.384.353-.584.23-.428.321-.602.212-.426.301-.64.179-.426.278-.74.137-.366.347-1.144a24.681 24.681 0 0 0-3.616-19.131l.384-.654a7.249 7.249 0 0 1 1.38-1.743 4.608 4.608 0 0 1 1.178-.794 3.744 3.744 0 0 1 .806-.265 3.259 3.259 0 0 1 .819-.054 3.223 3.223 0 0 1 .543.077 3.753 3.753 0 0 1 1.22.512 3.402 3.402 0 0 1 .301.2 5.722 5.722 0 0 1 .48.397 6.753 6.753 0 0 1 .896 1.038 5.614 5.614 0 0 1 .426.64l13.805 24.244a8.155 8.155 0 0 1 .568 1.188l.128.384a5.856 5.856 0 0 1 .179.739 4.352 4.352 0 0 1 .038.753 3.868 3.868 0 0 1-.09.859h0a3.343 3.343 0 0 1-.384 1.024 3.485 3.485 0 0 1-.7.854 4.033 4.033 0 0 1-.722.504l-.278.141a6.694 6.694 0 0 1-2.806.545zm-25.947-8.879q-.031-.356-.077-.722a.585.585 0 0 0-.026-.205l-.12-.819-.026-.15-.141-.744a1.17 1.17 0 0 0-.04-.197c-.051-.285-.128-.575-.201-.852a.79.79 0 0 0-.047-.193q-.096-.393-.214-.794l-.046-.165-.291-.932-.073-.218-4.608 7.936a8.644 8.644 0 0 0-.426.884 6.157 6.157 0 0 0-.452 1.664 4.48 4.48 0 0 0-.022.768 3.917 3.917 0 0 0 .078.572 3.409 3.409 0 0 0 1.088 1.883 4.096 4.096 0 0 0 .989.64 6.568 6.568 0 0 0 2.784.547h.512l.044-.102.202-.534.026-.064.172-.47.05-.141.175-.532.035-.111.136-.483a.691.691 0 0 1 .04-.151l.136-.58.029-.151.1-.512.026-.151.093-.626a.493.493 0 0 1 .02-.173l.064-.58v-.128c0-.23.042-.452.042-.682v-1.678-.186c0-.256-.026-.512-.046-.768zM61.03 60.061c-6.4-10.506-2.719-24.68 9.588-27.488 0 0-7.497 12.09 3.456 20.525l1.137.896 2.989-5.12.14-.31a13.45 13.45 0 0 0 .398-.966 12.942 12.942 0 0 0 .549-1.993 14.94 14.94 0 0 0 .151-1.024v-.008a12.878 12.878 0 0 0 0-2.962c-.036-.34-.087-.684-.151-1.024a8.19 8.19 0 0 0-.17-.754 14.17 14.17 0 0 0-.337-1.119 13.81 13.81 0 0 0-.429-1.088c-.046-.104-.09-.209-.14-.311l-7.258-12.756-3.072-5.536a8.3 8.3 0 0 0-.887-1.26 5.743 5.743 0 0 0-.978-.904 4.557 4.557 0 0 0-.518-.316 3.365 3.365 0 0 0-3.2 0 4.727 4.727 0 0 0-1.015.717 6.826 6.826 0 0 0-.94 1.075q-.22.316-.428.676L19.648 89.937a7.04 7.04 0 0 0-.896 2.41 4.677 4.677 0 0 0-.054.627v.302a3.739 3.739 0 0 0 .072.572 3.246 3.246 0 0 0 .151.534l.105.256a2.962 2.962 0 0 0 .59.844 3.493 3.493 0 0 0 .256.244 4.124 4.124 0 0 0 .334.256 5.012 5.012 0 0 0 1.76.737 7.473 7.473 0 0 0 1.106.159h20.813a5.009 5.009 0 0 0 .678-.065l.205-.026.495-.077.205-.035.654-.136h.074a7.16 7.16 0 0 0 .575-.15l.223-.068.426-.151.219-.077c.206-.077.407-.154.603-.243a22.606 22.606 0 0 1-3.276-4.997c-5.59-11.484 2.65-25.414 2.65-25.414s-1.229 13.203 7.382 13.806a8.136 8.136 0 0 0 6.543-2.129 6.528 6.528 0 0 0 1.194-1.517l.234-.402a6.792 6.792 0 0 0 .719-1.792 16.154 16.154 0 0 0-2.659-13.345z" fill="#fff"/></svg>