<svg xmlns="http://www.w3.org/2000/svg" xmlns:xlink="http://www.w3.org/1999/xlink" width="128" height="128" viewBox="0 0 33.867 33.867" xmlns:v="https://vecta.io/nano"><defs><radialGradient id="A" cx="0" cy="0" r="1" gradientTransform="matrix(14.565974,0,0,16.141154,25.461269,30.890194)" xlink:href="#T"><stop stop-color="#2b80b9"/><stop offset="1" stop-color="#2e4786"/></radialGradient><radialGradient id="B" cx="0" cy="0" r="1" gradientTransform="matrix(19.157405,0,0,21.721465,24.902832,20.321577)" xlink:href="#T"><stop stop-color="#2587cd"/><stop offset=".428" stop-color="#1174bf"/><stop offset=".845" stop-color="#3f67b4"/></radialGradient><radialGradient id="C" cx="0" cy="0" r="1" gradientTransform="matrix(-10.148796,17.504774,-35.110908,-20.356355,11.193282,25.652764)" xlink:href="#T"><stop stop-color="#6485ac"/><stop offset=".644" stop-color="#3b629c" stop-opacity="0"/></radialGradient><radialGradient id="D" cx="0" cy="0" r="1" gradientTransform="matrix(35.839797,0,0,35.860465,30.053856,11.50508)" xlink:href="#T"><stop stop-color="#2587cd"/><stop offset=".428" stop-color="#1174bf"/><stop offset=".845" stop-color="#575a93"/></radialGradient><radialGradient id="E" cx="0" cy="0" r="1" gradientTransform="matrix(4.997517,5.8132473,-8.1650992,7.01935,12.074345,11.108537)" xlink:href="#T"><stop stop-color="#fff"/><stop offset="1" stop-color="#fff" stop-opacity="0"/></radialGradient><radialGradient id="F" cx="0" cy="0" r="1" gradientTransform="matrix(31.731066,0,0,31.74967,10.982852,29.939016)" xlink:href="#T"><stop stop-color="#005da9"/><stop offset="0" stop-color="#0055a5"/><stop offset=".417" stop-color="#6b96c8" stop-opacity=".48"/><stop offset=".926" stop-color="#89aadb" stop-opacity="0"/></radialGradient><radialGradient id="G" cx="0" cy="0" r="1" gradientTransform="matrix(9.1925345,0,0,9.1978262,19.888069,24.643132)" xlink:href="#T"><stop offset=".018" stop-color="#004e91"/><stop offset="1" stop-color="#004e91" stop-opacity="0"/></radialGradient><radialGradient id="H" cx="0" cy="0" r="1" gradientTransform="matrix(11.411727,0,0,11.418342,19.216025,22.037234)" xlink:href="#T"><stop stop-color="#003887"/><stop offset="1" stop-color="#003887" stop-opacity="0"/></radialGradient><radialGradient id="I" cx="0" cy="0" r="1" gradientTransform="matrix(9.0925717,0,0,9.0978632,16.695703,29.687332)" xlink:href="#T"><stop stop-color="#fff"/><stop offset="1" stop-color="#fff" stop-opacity="0"/></radialGradient><radialGradient id="J" cx="0" cy="0" r="1" gradientTransform="matrix(12.979053,0,0,12.986577,9.1343253,26.492569)" xlink:href="#T"><stop stop-color="#00438d"/><stop offset="1" stop-color="#00438d" stop-opacity=".026"/></radialGradient><radialGradient id="K" cx="0" cy="0" r="1" gradientTransform="matrix(15.004934,0,0,15.013616,11.234703,11.025027)" xlink:href="#T"><stop offset=".083" stop-color="#004591"/><stop offset=".713" stop-color="#204885" stop-opacity="0"/></radialGradient><radialGradient id="L" cx="0" cy="0" r="1" gradientTransform="matrix(6.5033508,0,0,7.2040173,10.744727,26.298681)" xlink:href="#T"><stop stop-color="#fff"/><stop offset="1" stop-color="#fff" stop-opacity="0"/></radialGradient><radialGradient id="M" cx="0" cy="0" r="1" gradientTransform="matrix(35.582928,0.14764734,-0.11014516,26.544922,4.8262726,22.839335)" xlink:href="#T"><stop offset=".083" stop-color="#003b7a"/><stop offset=".688" stop-color="#1686d9" stop-opacity="0"/></radialGradient><radialGradient id="N" cx="0" cy="0" r="1" gradientTransform="matrix(19.341786,0,0,19.352948,4.0880353,4.8263683)" xlink:href="#T"><stop offset=".026" stop-color="#003c7c"/><stop offset="1" stop-color="#004081" stop-opacity="0"/></radialGradient><radialGradient id="O" cx="0" cy="0" r="1" gradientTransform="matrix(16.339592,0,0,16.349101,6.6977931,29.687166)" xlink:href="#T"><stop stop-color="#fff"/><stop offset="1" stop-color="#fff" stop-opacity="0"/></radialGradient><path id="P" d="M24.189 15.565c-2.276-1.864-3.691-1.528-5.252-1.972-2.092.057-4.827.711-7.7 2.978.064-.031 1.322-.641 3.347-.379l.754.133c-3.65 1.67-6.288 5.435-6.288 9.131a8.23 8.23 0 0 0 1.426 4.613c.868 1.295 2.09 2.378 3.548 3.143.949.17 1.926.258 2.924.258l.368-.004h.001c1.149-.025 2.27-.167 3.35-.416-2.434-.001-4.518-.789-5.831-2.118v-.001c-.912-.925-1.452-2.114-1.474-3.485-.055-3.436 3.48-6.839 7.674-6.781.687.009 1.33.073 1.925.194.686.138 2.714.883 2.525 1.723 0 0 .322-.087.653-.506 1.119-1.412.74-4.308-1.95-6.511z"/><path id="Q" d="M16.948.397C7.807.397.397 7.763.397 16.909c0 4.665 1.927 8.879 5.029 11.888.995.966 2.11 1.806 3.32 2.499v-.001a12.06 12.06 0 0 1-.346-.401c.254.224.521.441.8.651a16.33 16.33 0 0 0 2.798 1.169 16.27 16.27 0 0 0 2.026.496c-1.458-.765-2.68-1.849-3.548-3.143-.906-1.348-1.426-2.926-1.426-4.613 0-3.695 2.637-7.461 6.288-9.131-.261-.058-.513-.101-.754-.133-2.025-.261-3.283.348-3.347.379 2.872-2.267 5.608-2.921 7.7-2.978 2.319-.064 3.845.606 3.891.625-.951-2.297-2.288-2.158-2.288-2.158.612-.128 1.093-.111 1.742-.111 5.197 0 9.563 4.206 9.563 9.499 0 1.888-.846 4.001-1.771 5.485a16.84 16.84 0 0 0 1.706-2.773 16.48 16.48 0 0 0 1.689-7.251C33.47 7.763 26.088.397 16.948.397z"/><path id="R" d="M9.512 26.366c0 1.341.349 2.585.975 3.694l-.012.008a8.23 8.23 0 0 1-1.426-4.613c0-3.695 2.637-7.461 6.288-9.131-.261-.058-.513-.101-.754-.133-2.025-.261-3.283.348-3.347.379 2.872-2.267 5.608-2.921 7.7-2.978 1.561.444 2.762.979 3.686 1.545l-.004.006c-2.52-1.429-6.343.042-6.343.042 3.445.378 3.823 1.341 3.823 1.341-5.873.456-10.586 4.913-10.586 9.84z"/><path id="S" d="M12.262 9.108c-1.301.021-2.137.301-2.137.301 2.417-2.453 5.786-3.974 9.512-3.974 7.037 0 12.799 5.428 13.283 12.302-2.195-4.665-7.25-7.93-13.136-7.93-7.9 0-14.303 5.881-14.303 13.135 0 2.989 1.088 5.747 2.92 7.954-2.468-2.166-3.762-4.907-3.598-8.461.277-5.981 3.891-10.978 9.079-13.215a9.57 9.57 0 0 0-1.62-.11z"/><linearGradient id="T" gradientUnits="userSpaceOnUse"/></defs><circle cx="16.933" cy="16.933" r="16.933" fill="#fff" paint-order="fill markers stroke"/><path d="M23.276 31.2c-3.303.217-5.702-2.224-5.741-5.149a5.41 5.41 0 0 1 .343-1.969c.393-1.051 1.11-1.951 2.057-2.535.845-.521 1.875-.79 3.025-.688-.595-.121-1.238-.185-1.925-.194-4.194-.059-7.728 3.344-7.674 6.781.022 1.371.561 2.56 1.474 3.485v.001c1.312 1.33 3.397 2.117 5.831 2.118a15.62 15.62 0 0 0 .817-.21 16.5 16.5 0 0 0 5.884-3.064l.446-.393c-.176.141-2.103 1.657-4.538 1.817z" fill="url(#A)"/><use xlink:href="#P" fill="url(#B)"/><use xlink:href="#P" fill="url(#C)"/><use xlink:href="#Q" fill="url(#D)"/><use xlink:href="#Q" opacity=".19" fill="url(#E)"/><path d="M32.952 18.675l-.033-.938c-.484-6.874-6.246-12.302-13.283-12.302-3.726 0-7.095 1.522-9.512 3.974 0 0 .837-.28 2.137-.301a9.58 9.58 0 0 1 1.62.11c-5.189 2.238-8.802 7.234-9.079 13.215-.164 3.554 1.13 6.295 3.598 8.461.254.224.521.44.8.651a16.35 16.35 0 0 0 2.798 1.169c.659.207 1.335.373 2.026.496-1.458-.765-2.68-1.849-3.548-3.143a8.23 8.23 0 0 1-1.426-4.612c0-3.695 2.637-7.461 6.288-9.131a8.86 8.86 0 0 0-.754-.133c-2.025-.261-3.283.348-3.347.379 2.872-2.267 5.608-2.921 7.7-2.978 2.319-.064 3.845.606 3.891.625-.951-2.297-2.288-2.158-2.288-2.158.612-.128 1.093-.111 1.742-.111 5.197 0 9.563 4.206 9.563 9.499 0 1.888-.846 4.001-1.771 5.485a16.82 16.82 0 0 0 1.705-2.773l-.018-.009c.765-1.67 1.19-3.524 1.19-5.478z" fill="url(#F)"/><path d="M15.729 28.342c0 2.417 1.722 4.287 5.755 4.497l-.817.21c-2.434-.001-4.518-.788-5.831-2.118v-.001c-.502-.898-.787-1.922-.787-3.009 0-3.263 2.564-5.959 5.887-6.374a5.04 5.04 0 0 0-2.058 2.535c-1.253.913-2.149 2.593-2.149 4.259z" fill="url(#G)"/><path d="M22.961 20.859c-1.15-.102-2.18.167-3.025.688-3.323.415-5.887 3.111-5.887 6.374 0 1.087.285 2.111.787 3.009-.912-.926-1.452-2.114-1.474-3.485-.055-3.436 3.48-6.839 7.674-6.781.687.009 1.33.073 1.925.194z" fill="url(#H)"/><path opacity=".25" d="M25.328 22.647c.189-.841-.5-1.145-.5-1.145-.557-.291-1.18-.505-1.867-.643-.595-.121-1.238-.185-1.925-.194-4.194-.059-7.728 3.344-7.674 6.781.022 1.371.561 2.56 1.474 3.485v.001c1.312 1.33 3.397 2.117 5.831 2.118a16.56 16.56 0 0 1-3.351.416h-.001c-2.72-1.108-4.611-3.55-4.611-6.385 0-3.877 3.536-7.019 7.897-7.019 2.157 0 4.112.768 5.536 2.014-.309.435-.811.571-.811.571z" fill="url(#I)"/><use xlink:href="#R" fill="url(#J)"/><use xlink:href="#R" fill="url(#K)"/><path opacity=".29" d="M8.336 25.232c0-4.011 2.565-7.462 6.242-8.993l.006-.046a8.87 8.87 0 0 1 .754.133c-3.65 1.67-6.288 5.436-6.288 9.131a8.23 8.23 0 0 0 1.426 4.612c.868 1.295 2.09 2.378 3.548 3.143-.691-.123-1.368-.289-2.026-.496l.005-.017c-2.245-1.804-3.666-4.48-3.666-7.467z" fill="url(#L)"/><use xlink:href="#S" fill="url(#M)"/><use xlink:href="#S" opacity=".53" fill="url(#N)"/><path opacity=".25" d="M12.261 9.109a9.58 9.58 0 0 1 1.62.11c-5.189 2.238-8.802 7.234-9.079 13.215-.164 3.554 1.13 6.295 3.598 8.461a12.18 12.18 0 0 0 .346.401v.001c-1.211-.693-2.325-1.533-3.32-2.499-1.016-1.965-1.585-4.165-1.585-6.487 0-5.676 3.397-10.62 8.42-13.202z" fill="url(#O)"/></svg>