<svg xmlns="http://www.w3.org/2000/svg" width="128" height="128" viewBox="0 0 33.867 33.867" xmlns:v="https://vecta.io/nano"><circle cx="16.933" cy="16.933" r="16.933" fill="#554fd8" paint-order="fill markers stroke"/><path d="M5.131 17.221l7.724 5.765c.012 0 .012.012.024.012l2.864 2.13c.245.184.588.012.588-.294l.012-15.876c-.024-.282-.061-.575-.122-.857-.061-.269-.147-.526-.269-.747.208 1.555-.673 3.366-2.167 4.554-.331.269-.783.563-1.285.771-.539.233-2.167.796-2.167.796L5.425 15.25c-.845.306-1.016 1.432-.294 1.971z" fill="#f2eeff"/><path d="M12.794 12.545c.012-.012.037-.012.049-.024a.69.69 0 0 0 .086-.049c.037-.012.061-.037.098-.049.012-.012.037-.024.049-.024l.122-.073c.012-.012.024-.012.037-.024l.122-.073c.025-.012.037-.024.061-.037.025-.024.061-.037.086-.061.037-.024.073-.061.122-.086.012 0 .012-.012.024-.012l.147-.11c1.493-1.187 2.375-2.999 2.167-4.554-.086-.147-.196-.282-.318-.379L13.1 5.103c-.245-.184-.6-.012-.6.294V9.84c0 2.791-2.167 3.635-2.167 3.635l2.167-.783.294-.147z" fill="#dbd9ff"/><path d="M28.731 16.646l-7.724-5.765c-.012 0-.012-.012-.024-.012l-2.864-2.13c-.245-.184-.588-.012-.588.294v15.876c.024.282.061.575.122.857.061.269.147.526.269.747-.208-1.555.673-3.366 2.167-4.554.331-.269.783-.563 1.285-.771.526-.233 2.167-.783 2.167-.783l4.909-1.775c.845-.318 1.004-1.444.282-1.983z" fill="#f2eeff"/><path d="M21.081 21.322c-.012.012-.037.012-.049.024-.025.012-.049.025-.086.049-.037.012-.061.037-.098.049-.012.012-.037.025-.049.025l-.122.073c-.012.012-.025.012-.037.025l-.122.073c-.025.012-.037.025-.061.037-.025.024-.061.037-.086.061-.037.025-.073.061-.122.086-.012 0-.012.012-.024.012l-.147.11c-1.493 1.187-2.375 2.999-2.167 4.554a1.38 1.38 0 0 0 .318.379l2.534 1.885c.245.184.6.012.6-.294v-4.443c0-2.779 2.167-3.636 2.167-3.636l-2.167.783-.282.147z" fill="#dbd9ff"/></svg>