<svg xmlns="http://www.w3.org/2000/svg" width="128" height="128" viewBox="0 0 33.867 33.867" xmlns:v="https://vecta.io/nano"><circle cx="16.933" cy="16.933" r="16.801" fill="#fff" stroke="#08102c" stroke-width=".265" stroke-linejoin="bevel" paint-order="fill markers stroke"/><path id="Trac\xE9_73" d="M27.912 22.026l-5.109-5.119-5.898 5.935 5.111 5.093c1.247 1.243 3.957 1.166 5.516-.379 1.533-1.574 1.612-4.298.38-5.531z" fill="#31c4e5" opacity="1" fill-opacity="1"/><path id="Trac\xE9_74" d="M22.803 16.907l5.095-5.113c1.243-1.247 1.166-3.957-.379-5.516-1.546-1.546-4.284-1.638-5.516-.393l-5.098 5.098z" fill="#31c4e5" opacity="1" fill-opacity="1"/><path id="Trac\xE9_75" d="M10.968 16.905l5.937-5.922-3.725-3.719s-1.974-2.217-3.9-2.217c-2.201 0-4.18 1.874-4.18 3.629v16.535c0 1.755 1.978 3.629 4.165 3.629 1.939 0 3.891-2.24 3.891-2.24l3.748-3.758z" fill="#173565" fill-opacity="1"/><path id="Trac\xE9_76" d="M22.803 16.907h0l-5.898-5.924-5.937 5.922 5.937 5.937h0z" fill="#08102c" opacity="1" fill-opacity="1"/></svg>