<svg xmlns="http://www.w3.org/2000/svg" width="128" height="128" viewBox="0 0 33.867 33.867" xmlns:v="https://vecta.io/nano"><defs><linearGradient id="A" x1="214.669" y1="323.18" x2="214.667" y2="206.136" gradientUnits="userSpaceOnUse"><stop offset=".286" stop-color="#6f3621"/><stop offset="1" stop-color="#ba843c"/></linearGradient><linearGradient id="B" x1="215.406" y1="1.778" x2="214.667" y2="458.667" gradientUnits="userSpaceOnUse"><stop offset="0" stop-color="#694925"/><stop offset="1" stop-color="#3c1b03"/></linearGradient></defs><g transform="matrix(.073549 0 0 .073549 1.144863 .066148)"><path d="M185.561 453.667c-3.274-.914-11.363-4.676-17.974-8.359s-17.327-9.372-23.814-12.643-23.403-12.765-37.592-21.097l-44.982-27.091c-10.551-6.568-21.517-13.948-24.368-16.4s-7.694-8.329-10.76-13.059-8.558-14.255-12.203-21.168-7.418-15.843-8.384-19.845c-1.364-5.651-1.737-24.861-1.671-85.995.082-75.688.19-79.037 2.8-86.993 1.493-4.551 6.795-15.504 11.782-24.341S29.97 97.809 33.034 94.385c3.207-3.584 11.066-9.489 18.522-13.917 7.123-4.231 17.118-10.48 22.212-13.887s21.168-13.059 35.721-21.447 31.52-17.786 37.705-20.882 16.306-8.464 22.491-11.928 14.52-7.017 18.522-7.896c4.719-1.036 15.714-1.434 31.281-1.132l24.005.466 10.393 5.378 32.884 17.339c12.37 6.579 32.017 17.618 43.659 24.531l40.422 24.687c10.59 6.664 21.999 14.935 25.354 18.38s10.337 13.695 15.515 22.777 10.275 19.41 11.326 22.949c1.291 4.348 2.431 19.904 3.514 47.982 1.256 32.541 1.256 50.554 0 83.095-1.083 28.066-2.223 43.634-3.513 47.979-1.05 3.537-6.245 13.986-11.543 23.22s-12.431 19.701-15.852 23.261-12.053 9.938-19.183 14.173-17.132 10.48-22.225 13.877-20.87 12.749-35.059 20.781l-48.371 26.613c-12.415 6.605-25.215 12.619-28.444 13.363s-15.993 1.315-28.363 1.267c-13.747-.053-24.805-.732-28.444-1.748zm145.586-104.695l12.446-8.716c.723-.641-.162-1.114-2.083-1.114-1.887 0-11.227 4.891-21.473 11.245-9.973 6.185-18.71 11.245-19.415 11.245s-1.283.249-1.283.553.367 1.511.816 2.681c.694 1.809 2.238 1.347 10.309-3.083 5.221-2.866 14.528-8.631 20.682-12.812zm-15.357-1.859c1.866-.71 3.394-2.198 3.394-3.307 0-1.512-1.409-1.984-5.623-1.886-3.092.072-8.897.55-12.899 1.062l-7.276.931 5.292 1.483c2.911.816 6.483 1.757 7.938 2.092s3.351.678 4.214.762 3.095-.427 4.961-1.137zm-168.001-6.454c-.691-.621-11.675-7.51-24.409-15.31l-23.152-14.181 7.276 7.513c5.698 5.882 10.689 9.205 23.002 15.31 8.649 4.289 16.359 7.798 17.133 7.798.877 0 .933-.425.15-1.129zm-103.66-63.386c-2.125-5.152-3.487-9.743-3.028-10.202s-.189-.442-1.441.038c-1.844.708-2.275 2.585-2.275 9.913v9.04l4.961.411c2.729.226 5.115.356 5.303.289s-1.396-4.337-3.521-9.489zm348.03-110.96c-.932-13.892-1.901-19.789-3.992-24.298-1.518-3.274-4.17-8.335-5.891-11.245s-4.12-5.484-5.328-5.72-2.198.322-2.198 1.238 1.126 2.895 2.503 4.397 4.102 5.826 6.056 9.607c2.013 3.896 4.33 11.637 5.346 17.86.986 6.041 2.211 15.152 2.722 20.245s1.173 8.586 1.471 7.76-.012-9.756-.689-19.845zM133.392 132.61c.401-.648.404-1.178.009-1.178s-3.705 1.837-7.355 4.082-6.635 4.335-6.635 4.643 2.982-.998 6.626-2.904 6.954-3.995 7.355-4.643z" fill="#fdfbd0"/><path d="M186.725 453.644c-3.362-.927-15.642-6.827-27.289-13.112l-21.921-11.426c-.41 0-11.986-6.497-25.725-14.438s-30.891-18.252-38.116-22.912-18.353-11.603-24.729-15.428-13.658-9.44-16.182-12.478-6.661-8.981-9.194-13.208-6.995-12.015-9.918-17.309-6.329-13.445-7.571-18.114c-2.006-7.543-2.258-17.119-2.258-85.885s.252-78.342 2.258-85.885c1.242-4.669 4.649-12.821 7.571-18.114s7.385-13.083 9.918-17.309 6.67-10.17 9.194-13.208 9.806-8.659 16.182-12.491S67.682 70.806 76.413 65.24s25.402-15.498 37.044-22.071l44.164-24.191c12.648-6.732 26.043-13.051 29.767-14.043 4.288-1.142 14.148-1.809 26.882-1.819 11.061-.009 23.265.645 27.121 1.453s12.071 4.301 18.256 7.762 17.199 9.284 24.475 12.939 24.067 12.921 37.311 20.59 27.533 16.267 31.752 19.106 13.922 8.931 21.562 13.537 16.455 10.809 19.588 13.783 8.539 10.17 12.014 15.992l10.351 17.86c2.218 4.002 5.147 10.551 6.508 14.553 2.312 6.798 2.475 12.626 2.475 88.641s-.163 81.843-2.475 88.641c-1.361 4.002-4.287 10.551-6.501 14.553s-6.673 11.742-9.909 17.199-8.348 12.494-11.36 15.637-12.025 9.648-20.029 14.457-18.72 11.51-23.814 14.892-19.68 12.133-32.413 19.447-28.213 15.832-34.398 18.93-16.576 8.636-23.092 12.307-15.148 7.451-19.183 8.401c-4.552 1.072-15.372 1.69-28.505 1.63-12.755-.059-23.597-.767-27.28-1.783zm49.771-54.216c3.638-1.272 14.95-6.397 25.137-11.389S289.085 374.087 300 368.13s31.542-18.802 45.838-28.544 28.487-20.418 31.534-23.724 7.258-9.691 9.355-14.187c2.647-5.673 4.265-12.024 5.287-20.747.81-6.914 1.275-14.654 1.034-17.199-.305-3.216-1.595 1.224-4.228 14.556-2.084 10.551-4.947 21.676-6.362 24.722s-4.771 7.511-7.457 9.922-12.029 9.038-20.76 14.726l-31.751 20.356c-8.732 5.507-25.699 15.231-37.705 21.608l-21.829 11.594-23.814 4.663-31.072 5.957c-6.743 1.203-8.524.891-25.137-4.398-9.834-3.131-23.298-7.782-29.92-10.337s-15.701-6.493-20.176-8.751-8.135-3.878-8.135-3.599 7.591 4.686 16.868 9.793l24.806 13.25c4.366 2.181 11.808 5.624 16.537 7.651s11.279 4.468 14.553 5.426c3.737 1.093 10.878 1.579 19.183 1.306 8.129-.267 15.78-1.326 19.845-2.747zM223.693 368.3c1.593-.929-.581-1.31-7.703-1.35-5.457-.03-12.304-.385-15.214-.788-4.627-.641-4.96-.524-2.646.933 1.455.917 4.73 2.107 7.276 2.646s7.204.726 10.349.417 6.717-1.146 7.938-1.858zm34.908-12.108c3.426-1.328 11.575-5.1 18.109-8.382l11.881-5.967 5.705 2.589c3.138 1.424 7.052 2.602 8.699 2.618s4.08.707 5.406 1.535c1.676 1.047 3.586 1.109 6.266.204 3.67-1.239 3.857-1.677 3.891-9.113.019-4.296.538-9.731 1.151-12.078.934-3.571 2.915-5.277 12.158-10.465 6.073-3.409 13.107-7.9 15.632-9.981 2.928-2.414 5.633-6.528 7.472-11.365 2.691-7.079 2.91-10.253 3.303-47.933.231-22.193-.026-37.97-.571-35.059s-.724 9.216-.397 14.012-.12 17.596-.994 28.444c-1.321 16.402-2.246 21.368-5.49 29.477-2.146 5.364-5.115 11.456-6.598 13.539s-8.467 7.619-15.521 12.303-14.611 9.282-16.794 10.217-8.136 4.468-13.23 7.85-14.395 9.213-20.67 12.957-11.994 6.807-12.709 6.807-1.697-4.273-2.183-9.495-.361-10.016.276-10.653 2.611-1.314 4.387-1.503 3.947-.789 4.826-1.332 1.598-.357 1.598.414.933 1.401 2.074 1.401c1.428 0 1.828-.775 1.284-2.49-.659-2.076.7-3.084 8.18-6.068 4.933-1.968 10.073-4.567 11.42-5.776s3.291-3.985 4.319-6.17c1.049-2.23 1.134-2.834.195-1.377-.92 1.427-3.161 4.138-4.98 6.024-2.645 2.742-7.38 4.438-23.632 8.465-16.846 4.174-20.922 4.78-23.814 3.546l-3.49-1.489 3.123 2.667c1.718 1.467 3.877 2.667 4.799 2.667s2.419.895 3.326 1.989c.934 1.126 1.65 5.613 1.65 10.344 0 4.595-.416 9.665-.924 11.265s-3.707 4.385-7.111 6.189c-4.986 2.642-5.417 3.114-2.219 2.433 2.183-.465 6.772-1.933 10.197-3.261zm-92.885-5.778c0-.349-2.53-1.912-5.623-3.473s-15.744-9.114-28.114-16.785l-32.413-20.464c-5.457-3.584-11.241-7.736-12.852-9.227s-5.03-8.133-7.597-14.761c-4.23-10.922-4.838-14.22-6.488-35.204l-1.82-23.152-.148 20.506c-.081 11.279.447 24.674 1.173 29.767s1.985 11.295 2.795 13.78 3.925 7.179 6.921 10.43 8.722 8.402 12.724 11.446 11.141 7.858 15.864 10.697 19.012 10.069 31.752 16.066l23.495 10.956c.182.028.331-.234.331-.583zM83.69 336.205l-17.361-16.493c-4.819-4.573-9.411-9.96-10.205-11.972s-4.442-11.792-8.107-21.734l-6.663-18.076.104-24.921c.057-13.707.581-38.019 1.165-54.027 1.021-27.987 1.225-29.577 5.313-41.362 4.017-11.58 4.664-12.571 11.734-17.967 4.116-3.141 13.327-9.682 20.469-14.535s13.95-8.824 15.128-8.824 5.603.971 9.835 2.159 7.694 2.813 7.694 3.614-4.019 5.3-8.93 9.999l-8.93 8.545 7.938-5.115 17.86-11.28c5.457-3.391 19.751-11.603 31.763-18.249s27.372-14.484 34.133-17.416c12.08-5.239 12.565-5.332 28.036-5.332 15.415 0 16.001.11 28.048 5.269 9.187 3.934 11.466 4.556 8.996 2.454-1.819-1.549-6.88-4.49-11.245-6.537s-13.439-4.937-20.162-6.423-13.981-2.701-16.129-2.701-4.226-.52-4.619-1.155 2.427-4.126 6.267-7.757c6.759-6.392 7.294-6.631 16.843-7.503 8.532-.78 11.162-.456 19.495 2.4 5.298 1.816 15.717 6.378 23.152 10.138s14.115 7.292 14.843 7.848 9.063 5.052 18.522 9.99 22.671 12.441 29.358 16.672 17.106 11.162 23.152 15.401l17.903 12.686c4.26 3.07 8.697 7.922 11.571 12.654 3 4.938 5.348 11.153 6.587 17.432 1.059 5.367 2.612 17.497 3.451 26.957s1.843 17.497 2.232 17.86.339-10.375-.11-23.865-1.51-26.587-2.359-29.106-3.667-8.152-6.264-12.518-6.414-10.149-8.482-12.85c-2.156-2.816-10.363-9.074-19.233-14.665-8.51-5.364-23.51-14.11-33.333-19.436s-27.386-15.483-39.028-22.571-27.895-16.373-36.116-20.633l-14.949-7.745h-18.126-18.126l-11.907 6.15c-6.549 3.382-15.479 8.214-19.845 10.738l-23.741 14.131c-8.692 5.249-25.064 14.621-36.382 20.827s-26.913 15.408-34.655 20.449c-8.83 5.749-15.292 10.996-17.339 14.079-1.795 2.702-4.984 7.89-7.086 11.528s-4.501 8.156-5.329 10.04-1.965 6.647-2.526 10.584-.971 34.843-.912 68.678c.069 39.376.629 63.817 1.555 67.902.796 3.511 2.871 9.166 4.61 12.568s5.368 8.742 8.064 11.867 12.672 11.013 22.168 17.53 17.614 11.837 18.038 11.823-3.099-3.705-7.829-8.204zm101.722-13.071c3.746-2.983 7.496-6.704 8.333-8.269 1.135-2.122.249-1.728-3.485 1.549-2.754 2.417-6.909 5.302-9.234 6.41-3.921 1.87-5.263 1.766-18.566-1.44-7.887-1.901-14.535-3.26-14.773-3.022s5.357 2.605 12.436 5.258 14.132 4.849 15.674 4.88 5.869-2.384 9.616-5.367zm47.747-31.29c-.017-2.828-1.124-6.383-2.575-8.269-1.649-2.143-2.974-2.842-3.763-1.985-.756.822.001 3.955 2.001 8.269 1.77 3.82 3.477 6.946 3.792 6.946s.561-2.233.545-4.961zm-16.176-19.51c3.821-.503 6.706-1.305 6.411-1.782s-4.208-.815-8.697-.75l-8.161.118-4.026 7.159-4.026 7.159 5.776-5.494c4.738-4.507 7.024-5.659 12.723-6.409zm26.577-4.035c.844-1.853 1.535-4.78 1.535-6.505s.744-3.401 1.654-3.726 1.351-.925.981-1.334-3.492.477-6.938 1.969l-6.265 2.712 2.881 5.127c1.585 2.82 3.272 5.127 3.748 5.127s1.558-1.516 2.402-3.37zm-54.642-9.264c-3.611-1.717-6.713-2.973-6.893-2.793s-.019 1.493.358 2.916c.547 2.062 1.947 2.63 6.893 2.793l6.207.205zm36.151-65.168c5.557-5.681 16.456-15.802 24.219-22.491 10.5-9.047 15.075-12.172 17.86-12.202 3.279-.035 3.445-.215 1.334-1.442-1.326-.771-3.959-1.014-5.851-.539s-5.57 3.157-8.173 5.96-12.473 11.099-21.932 18.435c-11.162 8.656-17.896 13.045-19.183 12.503-1.091-.459-3.951-1.552-6.356-2.429s-5.27-2.492-6.368-3.591-3.118-6.403-4.488-11.788-3.372-15.447-4.45-22.36-2.691-20.434-3.584-30.047c-1.301-14.001-1.293-17.877.04-19.484.915-1.103 4.825-3.552 8.687-5.442 3.992-1.953 10.927-3.89 16.07-4.487 6.662-.774 7.629-1.097 3.668-1.225-2.959-.096-8.885.474-13.168 1.266s-11.388 3.239-15.788 5.438-13.358 7.112-19.907 10.918l-20.271 11.761c-4.6 2.662-8.767 4.841-9.261 4.842s-8.637 5.046-18.096 11.213-16.674 11.227-16.033 11.244 6.474-3.005 12.961-6.717c10.618-6.076 12.152-6.599 15.371-5.238 1.967.831 5.766 3.54 8.442 6.019 3.129 2.898 5.722 7.079 7.264 11.709l2.397 7.201 6.386-2.517c3.513-1.385 7.171-2.064 8.13-1.509s10.054 8.276 20.212 17.159 20.685 18.855 23.393 22.16 5.249 6.009 5.646 6.009 5.269-4.648 10.826-10.329zm-84.311-27.435l4.452-2.043-4.968.781c-4.239.667-5.454.257-8.282-2.795-1.823-1.967-3.63-3.26-4.017-2.873s.863 2.564 2.777 4.838 3.954 4.135 4.533 4.135 3.057-.919 5.505-2.043zm157.802-2.027c1.884-2.239 3.425-4.724 3.425-5.523s-1.378-.158-3.062 1.425-4.214 2.885-5.623 2.895-3.974.396-5.702.859l-3.141.841 3.803 1.68c2.091.924 4.494 1.728 5.339 1.787s3.077-1.724 4.961-3.963z" fill="#f8e99e"/><path d="M187.889 453.785c-3.449-.84-15.839-6.587-27.534-12.772l-46.649-25.558c-13.962-7.872-31.637-18.381-39.278-23.353l-25.265-16.116c-6.255-3.892-13.482-9.458-16.06-12.368s-8.698-12.138-13.602-20.506-10.016-18.393-11.362-22.278c-1.894-5.467-2.752-13.992-3.797-37.705-.743-16.853-1.352-41.16-1.354-54.017s.616-36.968 1.373-53.581c.939-20.626 2.045-32.304 3.486-36.821 1.161-3.638 6.245-13.759 11.297-22.491S31.114 97.474 34.513 93.97s11.24-9.409 17.425-13.123 15.413-9.52 20.506-12.903 20.573-12.728 34.398-20.766 30.793-17.453 37.705-20.923 17.825-9.271 24.251-12.891 15.058-7.389 19.183-8.376c4.42-1.057 15.219-1.813 26.289-1.841 10.333-.026 21.942.608 25.798 1.409 4.172.867 16.655 6.557 30.825 14.05a2243.62 2243.62 0 0 1 47.935 26.277c13.267 7.526 29.937 17.468 37.044 22.095s17.983 11.452 24.168 15.168 13.11 8.734 15.389 11.151 5.809 7.075 7.846 10.349 6.589 10.941 10.116 17.036 7.73 15.026 9.339 19.845c2.89 8.654 2.926 9.746 2.936 88.803.011 78.747-.036 80.18-2.874 88.643-1.586 4.731-6.855 15.582-11.709 24.113s-11.144 18.147-13.979 21.368-11.257 9.588-18.717 14.149-17.729 11.079-22.823 14.484-21.168 13.06-35.721 21.456-28.544 16.139-31.09 17.206-12.337 6.208-21.756 11.423-20.519 10.361-24.666 11.436c-5.198 1.347-13.852 1.915-27.856 1.827-11.174-.07-23.138-.814-26.587-1.654zm48.674-54.501c5.13-1.682 15.549-5.997 23.152-9.59s21.102-10.632 29.996-15.643l26.46-14.782c5.659-3.119 20.111-12.448 32.118-20.73s24.555-17.759 27.886-21.06 7.935-9.749 10.232-14.329c2.426-4.838 4.764-12.235 5.58-17.652.773-5.129 1.229-14.059 1.014-19.845l-.391-10.52-4.436 22.613c-3.399 17.33-5.296 23.995-8.117 28.527-2.843 4.568-8.031 8.855-22.787 18.834-18.343 12.404-19.313 12.881-24.297 11.947-2.855-.535-7.126-1.78-9.491-2.767s-4.3-1.995-4.3-2.241.661-2.342 1.468-4.658c1.155-3.314 3.624-5.395 11.573-9.758 5.558-3.05 12.434-7.644 15.281-10.208s6.286-7.161 7.641-10.214c1.863-4.197 2.74-10.818 3.591-27.121.62-11.863.701-33.628.181-48.368s-1.327-27.181-1.794-27.648-.805 12.486-.752 28.784-.549 35.046-1.337 41.663c-.911 7.643-2.902 15.59-5.46 21.794-2.214 5.37-5.345 11.203-6.956 12.963s-9.089 7.282-16.617 12.273-14.238 9.074-14.912 9.074-3.594-1.567-6.489-3.483-5.264-3.711-5.264-3.989 3.572-7.632 7.938-16.341 7.938-16.142 7.938-16.517-.476-.682-1.058-.682-3.408 4.912-6.28 10.915-6.885 13.699-8.918 17.101l-3.696 6.186-19.691 4.728c-10.83 2.601-21.076 4.726-22.768 4.723s-5.162-1.209-7.708-2.681l-4.63-2.676 5.231 4.708c2.877 2.59 6.582 5.047 8.234 5.462 2.149.539 3.249 2.062 3.866 5.35.474 2.528.498 7.254.053 10.503s-1.359 6.924-2.029 8.168-5.765 4.643-11.319 7.554c-8.452 4.429-9.977 5.724-9.347 7.938.414 1.455 1.364 5.778 2.11 9.605s1.047 7.461.668 8.074-8.932 2.459-19.008 4.103l-18.319 2.988-16.44-5.002c-9.042-2.751-22.148-7.227-29.125-9.946s-19.326-8.274-27.442-12.345-15.214-7.395-15.772-7.389 1.962 1.685 5.601 3.73l25.06 14.127c10.144 5.725 26.219 13.845 35.721 18.043 11.497 5.08 20.153 8.018 25.876 8.784 4.73.633 11.874.887 15.876.566s11.474-1.96 16.604-3.642zm33.719-25.413c.027-.546 3.628-4.813 8.001-9.484s9.518-9.305 11.434-10.298c2.833-1.47 3.782-1.49 5.087-.108.882.934 1.999 3.016 2.481 4.627.789 2.634-.456 3.597-12.402 9.592-7.304 3.665-13.588 6.664-13.965 6.664s-.663-.447-.636-.992zm-45.693-5.55l5.292-2.504-16.288-.107-16.288-.107-20.756-10.524c-11.416-5.788-29.984-16.262-41.263-23.275l-34.812-22.22c-13.336-8.827-14.56-10.007-18.062-17.407-2.066-4.366-4.764-10.915-5.995-14.553-1.731-5.116-2.405-13.438-2.973-36.736l-1.074-29.767c-.187.195-.964 6.605-1.727 14.245-.922 9.231-.979 21.764-.169 37.356.998 19.212 1.732 24.658 4.051 30.05 1.584 3.683 5.54 9.107 8.975 12.305 3.378 3.146 10.193 8.6 15.143 12.122s16.858 10.372 26.46 15.223 20.733 10.235 24.735 11.964 17.993 8.392 31.09 14.807c21.218 10.392 24.607 11.661 31.09 11.648 4.365-.009 9.394-1.017 12.568-2.519zM82.678 334.679c-8.539-8.276-17.422-16.632-19.74-18.568-3.074-2.568-5.526-7.001-9.056-16.374l-8.625-22.775-3.784-9.922.751-49.612c.631-41.739 1.129-51.099 3.137-58.98 1.312-5.152 3.265-11.47 4.339-14.041 1.38-3.302 2.995-4.873 5.507-5.353 1.955-.374 6.038-.124 9.074.555s8.017 2.695 11.07 4.48l5.55 3.245 3.998-5.812c2.199-3.196 6.846-7.847 10.326-10.335s12.579-8.416 20.219-13.174 23.184-13.802 34.543-20.098 26.539-14.274 33.736-17.729l13.085-6.282 17.86-.012 17.86-.012 11.576 5.537c6.367 3.045 11.576 5.021 11.576 4.39s-1.774-2.41-3.941-3.954-7.811-4.561-12.539-6.705-9.82-3.898-11.315-3.898-3.093-.981-3.553-2.18-.059-4.027.891-6.284 1.845-5.745 1.988-7.75.623-4.008 1.065-4.45 5.152.513 10.466 2.123 14.722 5.428 20.907 8.485 21.664 11.113 34.398 17.902 31.487 17.807 41.674 24.482 22.987 15.451 28.444 19.501 10.897 8.483 12.087 9.85 3.945 5.854 6.12 9.971c3.025 5.726 4.306 10.544 5.452 20.506l3.317 28.898 1.82 15.876.147-23.152c.081-12.734-.423-26.635-1.12-30.892-.831-5.072-3.436-11.602-7.56-18.949-3.461-6.166-8.218-13.193-10.572-15.617s-11.004-8.545-19.223-13.603-22.981-13.575-32.804-18.926-24.112-13.577-31.752-18.28-20.738-12.427-29.106-17.165-18.489-9.98-22.491-11.648c-6.257-2.609-9.61-3.038-23.931-3.065l-16.655-.031-13.113 6.455c-7.212 3.55-16.685 8.531-21.051 11.07s-15.678 9.357-25.137 15.153-24.343 14.314-33.075 18.928-22.861 12.788-31.398 18.163c-9.342 5.881-17.294 11.98-19.972 15.315-2.447 3.048-6.932 10.098-9.966 15.665-4.362 8.005-5.783 12.295-6.791 20.506-.714 5.816-1.077 37.152-.826 71.241.378 51.386.778 61.878 2.571 67.414 1.167 3.606 4.853 10.552 8.19 15.436 5.268 7.71 8.542 10.58 24.854 21.793l22.094 15.282c1.819 1.303 3.447 2.387 3.618 2.41s-6.676-6.729-15.214-15.005zm102.512-10.314c3.932-3.034 8.006-7.172 9.052-9.195s1.903-4.088 1.903-4.587-2.925 1.828-6.501 5.172-8.158 6.497-10.184 7.005c-2.394.601-10.172-.59-22.223-3.402l-20.462-5.064c-1.208-.464-1.578-.18-.995.762.51.825 4.626 2.692 9.147 4.148l19.466 6.561c6.185 2.152 11.786 3.959 12.446 4.015s4.418-2.38 8.351-5.414zm-54.459-15.983c-1.861-3.093-5.56-10.237-8.222-15.876s-5.34-10.253-5.953-10.253-1.114.482-1.114 1.07 1.977 4.353 4.394 8.366 5.446 9.931 6.733 13.152 2.955 6.6 3.706 7.51 1.923 1.654 2.603 1.654-.286-2.53-2.147-5.623zm73.421-29.246c4.643-4.329 7.703-6.145 10.357-6.145 2.863 0 4.587 1.19 7.184 4.961 1.88 2.729 5.191 8.831 7.358 13.561l3.941 8.599.098-7.072c.068-4.897-.663-8.152-2.375-10.584-1.36-1.931-3.73-5.995-5.265-9.03-2.71-5.356-2.909-5.474-6.788-4.01-2.991 1.129-5.001 1.129-7.995-.001-3.915-1.478-4.067-1.379-7.209 4.671-1.765 3.399-4.282 7.75-5.593 9.668-1.984 2.904-2.272 5.339-1.722 14.553l.661 11.066.378-12.047.378-12.047 6.59-6.145zm40.362-10.268c1.173-2.268 1.839-5.244 1.481-6.614s-.112-2.824.548-3.231 1.199-1.545 1.199-2.528c0-1.313-1.753-.941-6.615 1.404-3.638 1.755-6.615 3.527-6.615 3.937s.672 2.046 1.493 3.635 2.402 3.932 3.513 5.205 2.21 2.315 2.442 2.315 1.382-1.856 2.555-4.124zm-55.262-6.315c2.14.814 3.814.816 4.623.007s-1.185-2.511-5.507-4.702c-6.399-3.242-6.776-3.291-6.776-.873 0 1.408.377 3.542.837 4.742.555 1.446 1.281 1.738 2.152.866.857-.857 2.485-.87 4.67-.04zm36.633-68.863c5.836-5.778 16.863-15.878 24.503-22.444s14.835-11.96 15.988-11.986 7.779 2.265 14.724 5.091l12.628 5.138 3.425-2.823c1.884-1.553 4.025-4.46 4.757-6.461s.859-3.638.28-3.638-2.403 1.554-4.055 3.454c-2.751 3.164-3.691 3.41-11.19 2.933-5-.318-10.377-1.663-13.814-3.454-3.095-1.613-7.102-2.933-8.905-2.933-2.096 0-6.055 2.506-10.974 6.946-4.232 3.82-14.357 12.155-22.5 18.522s-15.653 11.576-16.691 11.576-2.254-.595-2.703-1.323-2.122-1.336-3.716-1.352-4.163-1.058-5.707-2.315c-1.945-1.583-3.651-5.945-5.55-14.193-1.507-6.549-3.06-13.991-3.451-16.537s-1.614-12.873-2.719-22.948-2.009-20.847-2.009-23.94c0-3.699.792-6.317 2.315-7.652 1.273-1.116 4.399-3.091 6.946-4.387 2.618-1.333 8.813-2.629 14.253-2.981 5.292-.343 9.997-1.23 10.454-1.97.552-.893-2.914-1.109-10.284-.642-7.424.47-13.752 1.782-19.054 3.949-4.366 1.785-12.403 5.799-17.86 8.921l-13.891 7.957-19.845 11.286c-8.732 4.953-21.135 12.534-27.564 16.847s-11.363 8.166-10.966 8.563 6.718-2.703 14.047-6.889c13.173-7.524 13.359-7.583 16.258-5.171 1.613 1.342 4.904 4.244 7.313 6.449s5.548 6.646 6.975 9.868 2.135 6.311 1.573 6.864-4.054 1.405-7.759 1.892c-6.199.815-6.954.61-9.451-2.564-1.493-1.898-3.075-3.45-3.516-3.45s-.802.952-.802 2.115 1.8 3.797 4 5.852l4 3.737 12.868-5.238c7.077-2.881 13.862-5.067 15.076-4.86s9.252 6.43 17.86 13.826 19.505 17.369 24.213 22.16 8.864 8.712 9.233 8.712 5.447-4.727 11.284-10.505z" fill="#fae56c"/><path d="M187.889 453.785c-3.449-.84-15.839-6.587-27.534-12.772l-46.649-25.558c-13.962-7.872-31.637-18.381-39.278-23.353l-25.265-16.116c-6.255-3.892-13.482-9.458-16.06-12.368s-8.698-12.138-13.602-20.506-10.016-18.393-11.362-22.278c-1.894-5.467-2.752-13.992-3.797-37.705-.743-16.853-1.352-41.16-1.354-54.017s.616-36.968 1.373-53.581c.939-20.626 2.045-32.304 3.486-36.821 1.161-3.638 6.245-13.759 11.297-22.491S31.114 97.474 34.513 93.97s11.24-9.409 17.425-13.123 15.413-9.52 20.506-12.903 20.573-12.728 34.398-20.766 30.793-17.453 37.705-20.923 17.825-9.271 24.251-12.891 15.058-7.389 19.183-8.376c4.42-1.057 15.219-1.813 26.289-1.841 10.333-.026 21.942.608 25.798 1.409 4.172.867 16.655 6.557 30.825 14.05a2243.62 2243.62 0 0 1 47.935 26.277c13.267 7.526 29.937 17.468 37.044 22.095s17.983 11.452 24.168 15.168 13.11 8.734 15.389 11.151 5.809 7.075 7.846 10.349 6.589 10.941 10.116 17.036 7.73 15.026 9.339 19.845c2.89 8.654 2.926 9.746 2.936 88.803.011 78.747-.036 80.18-2.874 88.643-1.586 4.731-6.855 15.582-11.709 24.113s-11.144 18.147-13.979 21.368-11.257 9.588-18.717 14.149-17.729 11.079-22.823 14.484-21.168 13.06-35.721 21.456-28.544 16.139-31.09 17.206-12.337 6.208-21.756 11.423-20.519 10.361-24.666 11.436c-5.198 1.347-13.852 1.915-27.856 1.827-11.174-.07-23.138-.814-26.587-1.654zm48.674-54.501c5.13-1.682 15.549-5.997 23.152-9.59s21.102-10.632 29.996-15.643l26.46-14.782c5.659-3.119 20.111-12.448 32.118-20.73s24.555-17.759 27.886-21.06 7.935-9.749 10.232-14.329c2.423-4.833 4.764-12.235 5.578-17.637.771-5.12 1.228-14.348 1.014-20.506l-.389-11.197-4.936 24.308c-4.518 22.249-5.32 24.777-9.473 29.845-2.495 3.045-12.214 10.711-21.598 17.036-12.073 8.137-18.228 11.499-21.051 11.499-2.195 0-6.709-.926-10.033-2.059-6.034-2.056-6.041-2.065-4.691-6.463 1.123-3.658 3.211-5.439 12.328-10.516 6.037-3.362 12.895-7.727 15.24-9.7s5.429-6.222 6.853-9.441 2.802-8.002 3.061-10.628.732-19.002 1.051-36.392l.579-31.618 5.911-5.053 5.911-5.053.227-10.957c.125-6.026.453-12.148.73-13.603s.549-3.688.604-4.961c.061-1.399 1.148-2.315 2.747-2.315 1.455 0 2.646-.824 2.646-1.83s1.34-2.207 2.977-2.668c2.779-.782 2.823-.956.661-2.615-1.273-.978-2.315-2.456-2.315-3.286s.595-1.508 1.323-1.508 1.323.893 1.323 1.984 1.164 1.984 2.586 1.984c1.906 0 2.752 1.131 3.217 4.3l2.554 18.853 1.922 14.553.145-23.814c.079-13.098-.426-27.297-1.123-31.553-.831-5.072-3.436-11.602-7.56-18.949-3.461-6.166-8.218-13.193-10.572-15.617s-11.004-8.545-19.223-13.603-22.981-13.575-32.804-18.926-24.112-13.577-31.752-18.28-20.738-12.427-29.106-17.165-18.489-9.98-22.491-11.648c-6.257-2.609-9.61-3.038-23.931-3.065l-16.655-.031-13.113 6.455c-7.212 3.55-16.685 8.531-21.051 11.07s-15.678 9.357-25.137 15.153-24.343 14.314-33.075 18.928-22.861 12.788-31.398 18.163c-9.342 5.881-17.294 11.98-19.972 15.315-2.447 3.048-6.932 10.098-9.966 15.665-4.362 8.005-5.783 12.295-6.791 20.506-.714 5.816-1.077 37.152-.826 71.241.377 51.261.781 61.886 2.56 67.38 1.162 3.587 4.669 10.341 7.793 15.007 4.384 6.548 8.55 10.521 18.249 17.402 6.913 4.905 17.331 12.044 23.152 15.866l10.584 6.949-7.276-7.011-20.261-19.347c-12.515-11.89-13.143-12.762-17.37-24.132-2.412-6.488-4.212-11.972-4-12.188s5.242-.196 11.177.043l10.792.434 2.402 5.603c1.485 3.464 5.985 8.873 11.787 14.169 5.162 4.711 14.309 11.477 20.328 15.035 7.163 4.234 15.572 11.008 24.339 19.606 7.367 7.225 13.697 12.626 14.067 12.002s1.087-3.069 1.594-5.434 1.415-4.3 2.016-4.3 9.038 3.866 18.748 8.591l26.442 13.23c7.493 3.955 10.084 4.639 17.572 4.639 5.521 0 10.611-.846 13.703-2.276l4.919-2.276-17.199-.7-17.199-.7-21.081-11.031c-11.595-6.067-24.395-13.276-28.444-16.021s-15.103-9.753-24.562-15.575l-25.137-15.9c-4.366-2.923-8.965-6.46-10.219-7.859s-4.128-6.979-6.385-12.4c-2.836-6.813-4.47-13.532-5.29-21.763-.653-6.549-1.241-21.433-1.306-33.075-.09-15.837-.462-20.335-1.478-17.86-.747 1.819-1.453 14.917-1.57 29.106s.269 29.561.857 34.159l1.068 8.36-10.319-7.037-13.814-9.24c-3.4-2.143-3.477-2.125-2.836.661.65 2.826.633 2.829-1.291.218-1.683-2.284-1.804-9.708-.879-54.328l1.071-51.682 3.788-11.822 3.788-11.822 8.006.118c6.103.09 9.536.973 14.442 3.714l6.435 3.597 3.631-4.376c1.997-2.407 3.647-4.751 3.666-5.209s3.161-3.175 6.981-6.037 13.197-9.09 20.837-13.839 23.184-13.787 34.543-20.083 26.539-14.274 33.736-17.729l13.085-6.282 17.86-.012 17.86-.012 11.576 5.537c6.367 3.045 11.576 5.051 11.576 4.457s-2.091-2.676-4.648-4.625-7.765-4.92-11.576-6.601-8.864-3.478-11.228-3.994-4.3-1.463-4.3-2.106 1.173-4.144 2.606-7.78c1.738-4.41 2.14-6.898 1.208-7.475-.865-.534-.927-1.335-.164-2.098s5.979.294 13.676 2.774c7.016 2.26 21.097 8.685 32.287 14.732l30.429 16.076c5.821 2.944 17.133 9.516 25.137 14.605s21.597 14.336 30.206 20.549l15.653 11.296-.86 17.309c-.473 9.52-1.512 19.095-2.31 21.278s-2.184 4.862-3.08 5.953-1.876 3.175-2.176 4.63-1.233 2.504-2.073 2.331c-.857-.177-1.196.55-.772 1.654.415 1.083.075 1.969-.756 1.969-1.084 0-1.124.723-.142 2.559.753 1.407 1.37 2.896 1.37 3.307s-.725.6-1.611.418c-.915-.188-1.955 1.671-2.406 4.3l-.794 4.63-1.437-4.63c-1.125-3.624-1.438 2.124-1.441 26.46-.001 17.1-.643 36.439-1.425 42.975-.893 7.467-2.966 15.718-5.578 22.197-3.094 7.676-5.553 11.509-9.616 14.991-3.003 2.573-10.645 7.954-16.984 11.956l-11.525 7.277-6.005-3.519c-3.303-1.935-6.005-3.771-6.005-4.079s3.599-7.484 7.997-15.947 7.778-16.341 7.51-17.506-3.567 4.06-7.331 11.61-8.058 15.692-9.541 18.092c-2.572 4.162-3.605 4.581-22.394 9.093-10.834 2.601-21.082 4.728-22.775 4.725s-5.013-1.185-7.378-2.627-4.3-2.136-4.3-1.542 2.53 2.867 5.623 5.053 6.59 4.323 7.772 4.75c1.328.479 2.485 3.016 3.028 6.636.483 3.223.307 8.403-.391 11.511s-1.763 6.088-2.367 6.622-5.562 3.286-11.019 6.115l-10.195 5.204c-.15.034.625 2.665 1.721 5.846s1.814 7.898 1.595 10.48c-.358 4.231-.876 4.794-5.224 5.691-2.655.548-10.834 1.894-18.175 2.991l-13.349 1.996-14.238-4.581c-7.831-2.519-14.744-4.586-15.362-4.593s-7.762-2.67-15.876-5.918-21.235-9.202-29.159-13.23-15.068-7.313-15.876-7.299 4.782 3.485 12.423 7.713l28.444 15.78c8.004 4.451 21.413 11.072 29.797 14.714 9.463 4.111 18.494 7.061 23.814 7.78 4.713.637 11.844.894 15.846.573s11.474-1.96 16.604-3.642zm-49.899-75.941c5.89-4.901 8.371-8.049 9.914-12.576 1.464-4.297 1.838-8.659 1.296-15.124l-.762-9.086 6.927-6.783c5.022-4.917 7.952-6.783 10.654-6.783 2.871 0 4.422 1.125 6.754 4.898 1.665 2.694 4.943 8.796 7.286 13.561l4.259 8.663.099-7.072c.068-4.898-.661-8.152-2.374-10.584-1.36-1.931-3.73-5.995-5.265-9.03-2.71-5.356-2.909-5.474-6.788-4.01-2.991 1.129-5 1.129-7.991 0-3.878-1.464-4.078-1.346-6.788 4.01-1.536 3.035-3.982 7.207-5.437 9.271-2.208 3.132-2.607 5.648-2.414 15.214l.231 11.462-5.682 5.468c-3.125 3.008-6.982 6.133-8.572 6.946s-4.165 1.478-5.724 1.478-11.698-2.128-22.531-4.73c-18.575-4.461-19.845-4.969-22.279-8.93-1.42-2.31-5.647-10.303-9.394-17.761s-7.426-13.561-8.176-13.561-4.581.935-8.513 2.078-7.149 2.62-7.149 3.282 1.494 1.579 3.319 2.037c2.194.551 3.566 2.017 4.048 4.325.401 1.921 1.198 4.385 1.772 5.476s2.473 2.72 4.221 3.619 2.433 1.643 1.524 1.654-1.654.849-1.654 1.862.866 2.175 1.925 2.582 3.104.512 4.545.234 3.201.198 3.912 1.057 1.493 3.292 1.739 5.408c.385 3.307 1.468 4.237 7.724 6.632 4.002 1.532 8.467 3.44 9.922 4.239s4.296 1.848 6.313 2.33c2.695.644 3.88.322 4.47-1.216.515-1.342 1.573-1.759 2.948-1.162 1.179.512 6.014 2.285 10.744 3.94s9.61 3.056 10.846 3.114 5.782-2.837 10.103-6.433zm57.85-54.475c1.173-2.268 1.839-5.244 1.481-6.614s-.112-2.824.548-3.231 1.199-1.545 1.199-2.528c0-1.313-1.753-.941-6.615 1.404-3.638 1.755-6.615 3.527-6.615 3.937s.672 2.046 1.493 3.635 2.402 3.932 3.513 5.205 2.21 2.315 2.442 2.315 1.382-1.856 2.555-4.124zm-50.362-6.448c.422-.683-2.232-2.761-5.897-4.618-6.308-3.196-6.664-3.24-6.664-.817 0 1.408.308 3.353.684 4.322s3.018 1.895 5.897 2.058c2.867.163 5.558-.262 5.98-.945zm125.025-36.064l-.007-30.76-3.762 4.013a109.96 109.96 0 0 1-7.77 7.386l-4.008 3.373 1.561 10.475c1.042 6.99 3.494 14.766 7.37 23.374 3.195 7.095 5.992 12.899 6.215 12.899s.403-13.842.4-30.76zm-93.293-32.665c5.836-5.778 16.863-15.878 24.503-22.444s14.835-11.96 15.988-11.986 7.779 2.265 14.724 5.091l12.628 5.138 3.458-2.823c1.902-1.553 4.262-5.204 5.245-8.115 1.506-4.457 2.427-5.356 5.84-5.697 3.052-.305 4.899.508 7.483 3.294l3.43 3.699v-7.369-7.369l-10.915-7.076c-6.003-3.892-15.38-9.587-20.837-12.656l-22.491-12.873c-6.913-4.011-12.781-7.086-13.04-6.832s3.694 9.874 8.785 21.378l11.939 27.123 2.683 6.206-5.087-2.652c-4.845-2.525-5.297-2.546-9.483-.431-2.418 1.221-5.78 3.94-7.472 6.042s-5.86 5.725-9.261 8.051-11.223 8.292-17.38 13.258c-7.425 5.988-11.881 8.734-13.23 8.155-1.119-.481-4.001-1.591-6.405-2.467s-5.153-2.433-6.109-3.46-2.674-5.736-3.819-10.465-2.971-14.255-4.057-21.168-2.725-20.838-3.64-30.946l-1.665-18.378 3.892-3.142c2.141-1.728 6.828-4.026 10.417-5.106s9.691-1.963 13.561-1.963c4.388 0 7.036-.568 7.036-1.509 0-1.065-3.217-1.306-10.915-.818-7.224.457-13.599 1.788-18.853 3.936-4.366 1.785-12.403 5.799-17.86 8.921l-13.891 7.957-19.845 11.286c-8.732 4.953-21.041 12.471-27.355 16.707s-11.854 8.309-12.313 9.052c-.563.911.271.93 2.563.059 1.869-.71 8.063-3.983 13.766-7.272s11.142-5.981 12.087-5.981 4.324 2.135 7.509 4.745 6.967 7.051 8.405 9.87 2.615 6.263 2.615 7.653c0 2.049-1.309 2.702-6.911 3.445-6.674.885-7.035.767-10.548-3.468-3.464-4.176-3.639-4.236-3.673-1.277-.02 1.785 1.666 4.697 3.964 6.844l4 3.737 12.868-5.238c7.077-2.881 13.862-5.067 15.076-4.86s9.252 6.43 17.86 13.826 19.505 17.369 24.213 22.16 8.864 8.712 9.233 8.712 5.447-4.727 11.284-10.505zm92.869-92.236c-.304-.304-9.051-1.3-19.439-2.214s-18.055-1.168-17.039-.565l19.047 11.304 17.199 10.207.392-9.09c.216-4.999.144-9.338-.16-9.642z" fill="#fad661"/><path d="M187.889 453.785c-3.449-.84-15.839-6.587-27.534-12.772l-46.649-25.558c-13.962-7.872-31.637-18.381-39.278-23.353l-25.265-16.116c-6.255-3.892-13.482-9.458-16.06-12.368s-8.698-12.138-13.602-20.506-10.016-18.393-11.362-22.278c-1.894-5.467-2.752-13.992-3.797-37.705-.743-16.853-1.352-41.16-1.354-54.017s.616-36.968 1.373-53.581c.939-20.626 2.045-32.304 3.486-36.821 1.161-3.638 6.245-13.759 11.297-22.491S31.114 97.474 34.513 93.97s11.24-9.409 17.425-13.123 15.413-9.52 20.506-12.903 20.573-12.728 34.398-20.766 30.793-17.453 37.705-20.923 17.825-9.271 24.251-12.891 15.058-7.389 19.183-8.376c4.42-1.057 15.219-1.813 26.289-1.841 10.333-.026 21.942.608 25.798 1.409 4.172.867 16.655 6.557 30.825 14.05a2243.62 2243.62 0 0 1 47.935 26.277c13.267 7.526 29.937 17.468 37.044 22.095s17.983 11.452 24.168 15.168 13.11 8.734 15.389 11.151 5.809 7.075 7.846 10.349 6.589 10.941 10.116 17.036 7.73 15.026 9.339 19.845c2.89 8.654 2.926 9.746 2.936 88.803.011 78.747-.036 80.18-2.874 88.643-1.586 4.731-6.855 15.582-11.709 24.113s-11.144 18.147-13.979 21.368-11.257 9.588-18.717 14.149-17.729 11.079-22.823 14.484-21.168 13.06-35.721 21.456-28.544 16.139-31.09 17.206-12.337 6.208-21.756 11.423-20.519 10.361-24.666 11.436c-5.198 1.347-13.852 1.915-27.856 1.827-11.174-.07-23.138-.814-26.587-1.654zm48.674-54.503c5.13-1.68 15.549-5.995 23.152-9.588s21.102-10.632 29.996-15.643l26.46-14.782c5.659-3.119 20.111-12.448 32.118-20.73s24.555-17.759 27.886-21.06 7.935-9.749 10.232-14.329c2.423-4.833 4.764-12.235 5.578-17.637.771-5.12 1.228-14.348 1.014-20.506l-.389-11.197-2.268 9.922c-1.247 5.457-3.421 16.05-4.829 23.54-1.651 8.775-3.667 15.25-5.67 18.209-1.71 2.525-6.681 7.072-11.046 10.105l-19.552 13.323c-10.682 7.182-12.03 7.738-16.792 6.934-2.848-.481-5.88-1.721-6.739-2.756-1.266-1.526-1.031-1.881 1.247-1.881 1.544 0 2.808.595 2.808 1.323s.928 1.323 2.063 1.323 1.694-.596 1.243-1.325.556-1.848 2.237-2.488 3.585-1.182 4.231-1.208 1.539-.543 1.984-1.151 1.96-1.74 3.367-2.517 3.138-2.562 3.847-3.969l2.167-4.463c.483-1.048 1.58-2.14 2.437-2.425s1.559.423 1.559 1.575.595 2.095 1.323 2.095 1.323-1.786 1.323-3.969c0-3.874.156-3.969 6.533-3.969 5.395 0 6.508-.403 6.388-2.315-.079-1.273.214-3.506.652-4.961.619-2.056-.629-3.734-5.597-7.525l-6.393-4.879.541-34.811.541-34.811 6.434-6.042c3.539-3.323 9.739-8.235 13.778-10.916s8.249-5.222 9.355-5.646c1.593-.611 2.116.559 2.512 5.624.275 3.518.604-4.915.731-18.741s-.34-28.62-1.037-32.876c-.831-5.072-3.436-11.602-7.56-18.949-3.461-6.166-8.218-13.193-10.572-15.617s-11.004-8.545-19.223-13.603-22.981-13.575-32.804-18.926-24.112-13.577-31.752-18.28-20.738-12.427-29.106-17.165-18.489-9.98-22.491-11.648c-6.257-2.609-9.61-3.038-23.931-3.065l-16.655-.031-13.113 6.455c-7.212 3.55-16.685 8.531-21.051 11.07s-15.678 9.357-25.137 15.153-24.343 14.314-33.075 18.928-22.861 12.788-31.398 18.163c-9.342 5.881-17.294 11.98-19.972 15.315-2.447 3.048-6.932 10.098-9.966 15.665-4.362 8.005-5.783 12.295-6.791 20.506-.714 5.821-1.076 37.121-.822 71.241.383 51.505.781 61.884 2.589 67.533 1.175 3.671 4.063 9.583 6.417 13.138s6.123 8.291 8.376 10.524 14.181 10.891 26.508 19.239l22.413 15.178-13.878-13.193-22.085-20.938c-7.226-6.819-8.695-9.094-12.291-19.033-2.247-6.209-3.848-11.526-3.558-11.815s5.277-.131 11.083.354c10.548.88 10.557.884 12.199 5.425.904 2.499 4.782 7.519 8.618 11.155s10.177 9.017 14.091 11.958 9.983 6.8 13.487 8.575c4.212 2.135 15.645 12.398 33.75 30.297l27.38 27.069-7.276-2.528c-4.002-1.39-11.641-4.356-16.975-6.59s-13.177-6.176-17.429-8.759-11.05-5.791-15.108-7.13-7.378-2.258-7.378-2.043 4.614 2.904 10.253 5.975l26.318 14.684c8.836 5.005 23.422 12.422 32.413 16.482 9.508 4.293 20.224 8.091 25.61 9.075 5.094.931 12.833 1.392 17.199 1.025s12.136-2.043 17.266-3.723zM212.9 388.424c-.33-.546-1.556-4.226-2.724-8.178s-2.124-7.612-2.124-8.132 3.26-.985 7.245-1.033c4.312-.051 8.998-1.044 11.576-2.452l4.331-2.366-17.86-.691-17.86-.691-20.824-10.993c-11.453-6.046-22.04-11.986-23.526-13.2-2.688-2.196-2.689-2.243-.186-9.483 1.539-4.451 3.225-7.182 4.342-7.033 1.005.134 5.101 1.233 9.103 2.441s8.874 2.5 10.826 2.87c2.036.386 4.752-.17 6.37-1.303 1.551-1.086 3.972-1.674 5.381-1.306 1.437.376 2.56.001 2.56-.854 0-1.149.699-1.15 2.842-.003 2.701 1.446 2.798 1.304 1.964-2.867-.585-2.923-.098-6.279 1.458-10.055 1.9-4.61 2.829-5.525 4.982-4.905 1.455.419 9.131 3.104 17.057 5.966s14.723 4.892 15.104 4.511-.002-.693-.85-.693-1.543-.829-1.543-1.843.886-2.183 1.97-2.599c1.53-.587 1.682-1.512.681-4.145-.711-1.871-.919-7.758-.464-13.147.715-8.457.471-10.26-1.831-13.527-1.461-2.073-3.913-6.252-5.448-9.287-2.71-5.356-2.909-5.474-6.788-4.01-2.991 1.129-5 1.129-7.991 0-3.878-1.464-4.078-1.346-6.788 4.01-1.536 3.035-3.982 7.207-5.437 9.271-2.208 3.132-2.607 5.648-2.414 15.214l.231 11.462-5.682 5.468c-3.125 3.008-6.982 6.133-8.572 6.946s-4.165 1.478-5.724 1.478-11.698-2.128-22.531-4.73c-18.853-4.527-19.814-4.919-22.424-9.142-1.5-2.427-5.333-9.675-8.518-16.107s-6.629-12.797-7.652-14.143c-1.788-2.353-2.447-2.249-16.868 2.646-10.889 3.696-15.186 5.771-15.66 7.561-.464 1.754-1.578.225-3.858-5.292-1.919-4.645-3.685-12.538-4.401-19.666-.657-6.549-1.23-21.73-1.271-33.736-.055-15.828-.456-21.177-1.457-19.456-.764 1.313-1.692 14.312-2.077 29.106-.398 15.264-.13 30.138.624 34.671.726 4.366 1.131 8.139.9 8.384s-6.853-4.088-14.715-9.63l-14.294-10.076.476-25.429 1.29-39.118.814-13.689 9.118 4.759c5.015 2.617 9.731 4.759 10.48 4.759s2.454.989 3.789 2.197 2.67 1.952 2.967 1.654 1.217-9.752 2.046-21.007c1.24-16.835 2.009-21.292 4.339-25.137 1.558-2.57 4.7-7.157 6.983-10.193s5.888-6.976 8.013-8.755 9.816-7.12 17.092-11.867 23.053-14.147 35.059-20.889 28.676-15.588 37.044-19.657l15.214-7.399h17.86 17.86l11.786 5.634c6.482 3.099 12.028 5.391 12.325 5.094s-1.952-2.535-4.997-4.972l-5.537-4.433.821-9.814c.452-5.398 1.103-10.096 1.448-10.441s4.693 1.392 9.663 3.861 16.611 8.655 25.87 13.749l16.833 9.261-.37 4.63c-.203 2.547-.891 4.444-1.529 4.216s-1.865.963-2.727 2.646c-1.094 2.135-1.144 3.354-.164 4.032.967.669.972.978.015.992-.764.011-1.955-.495-2.646-1.126s-4.117-.779-7.613-.331l-6.356.815 8.34 4.525c4.587 2.489 13.639 7.698 20.115 11.576s11.983 7.051 12.238 7.051.463-4.269.463-9.488c0-5.84-.662-10.29-1.722-11.576-.947-1.149-3.357-4.649-5.355-7.778l-3.632-5.689 4.362 2.235c2.399 1.23 12.102 7.278 21.561 13.441s19.721 13.257 22.803 15.764c4.744 3.86 5.535 5.188 5.154 8.663-.247 2.257-1.541 4.902-2.876 5.878s-2.626 3.079-2.869 4.674-.776 3.233-1.184 3.641-1.412.742-2.231.742-1.911 2.06-2.426 4.578c-.59 2.887-.309 5.819.761 7.938.934 1.848 2.075 6.932 2.536 11.298s.892 25.798.958 47.628-.525 45.103-1.313 51.72c-.909 7.634-2.899 15.587-5.446 21.763-2.207 5.353-5.04 10.872-6.295 12.265s-8.99 7.003-17.189 12.468l-14.908 9.935-5.599-3.753-5.885-3.867c-.157-.063 1.576-3.781 3.851-8.264s4.573-7.88 5.106-7.551 1.341-.886 1.797-2.7c.534-2.127 1.758-3.298 3.449-3.298 1.441 0 2.621-.595 2.621-1.323s.936-1.323 2.079-1.323 2.929-.851 3.969-1.89 1.89-2.212 1.89-2.604-.893-.372-1.985.047-1.984.169-1.984-.556 2.233-1.702 4.961-2.171l8.691-1.595c3.653-.726 3.68-.797 1.323-3.455-2.363-2.664-2.352-2.685.57-1.151 1.637.859 2.977 1.269 2.977.91s-4.136-3.951-9.19-7.985-9.489-7.333-9.855-7.333-1.689 3.423-2.942 7.607-5.501 14.156-9.441 22.16-8.325 16.443-9.743 18.753c-2.433 3.961-3.701 4.469-22.277 8.93-10.834 2.601-21.03 4.73-22.659 4.73s-5.406-1.433-8.394-3.183c-4.587-2.688-5.794-2.918-7.762-1.479-2.005 1.466-2.05 1.812-.323 2.474 1.104.424 1.944.345 1.867-.174s-.07-1.524.016-2.231.996-.088 2.023 1.377 5.194 4.348 9.261 6.406l7.395 3.742v9.017c0 4.959-.526 10.395-1.169 12.08-.781 2.048-4.738 4.8-11.941 8.305-8.101 3.943-10.571 5.747-9.962 7.276.446 1.119 1.458 5.452 2.25 9.63s1.07 7.966.618 8.418-4.575 1.627-9.162 2.611-9.645 1.81-11.239 1.835-3.169-.4-3.499-.946zm31.317-119.07c1.009-2.001 2.213-6.114 2.676-9.14l.842-5.501-6.611 3.189c-3.636 1.754-6.611 3.525-6.611 3.935s.672 2.046 1.493 3.635 2.402 3.932 3.513 5.205 2.21 2.315 2.442 2.315 1.248-1.637 2.257-3.638zm-50.085-6.899c.434-.702-2.21-2.795-5.875-4.653-6.308-3.196-6.664-3.24-6.664-.817 0 1.408.361 3.502.803 4.653.539 1.405 2.471 2.093 5.875 2.093 2.79 0 5.427-.574 5.861-1.276zm126.251-36.366l.242-32.35-8.556 8.556-8.556 8.556 1.25 8.91c.687 4.901 1.6 10.101 2.027 11.556s3.179 8.153 6.113 14.884 5.763 12.238 6.286 12.238 1.06-14.557 1.193-32.35zm23.277 9.592l7.938-7.597-.875-21.248c-.627-15.241-1.543-23.106-3.238-27.82-1.3-3.615-2.692-6.563-3.094-6.552s-1.398.458-2.214.992-1.88 3.353-2.366 6.264l-1.633 10.253c-.412 2.729-1.264 4.961-1.892 4.961s-.8.893-.381 1.984c.501 1.304-.043 1.984-1.585 1.984-1.291 0-2.004.342-1.585.761s.24 2.578-.397 4.799c-.694 2.42-.655 4.979.098 6.385.776 1.45.791 3.787.039 6.115-.669 2.073-1.59 8.829-2.046 15.014l-.925 13.23c-.052 1.091-.736 2.878-1.518 3.969s.638.21 3.157-1.958 8.152-7.361 12.518-11.539zm-236.844-24.996c-.654-2.976-.373-3.843 1.246-3.843 1.149 0 2.09-.863 2.09-1.919s.918-2.432 2.039-3.06c1.783-.998 1.695-1.578-.697-4.619-1.505-1.913-3.613-5.577-4.685-8.143s-1.949-7.68-1.949-11.365.911-8.881 2.025-11.548 3.526-6.814 5.359-9.218c2.753-3.609 4.22-4.371 8.417-4.371 3.415 0 5.347.687 5.886 2.093.442 1.151.803 3.294.803 4.761s1.8 4.35 4 6.405l4 3.737 12.756-5.19c7.016-2.855 13.7-5.169 14.853-5.143s8.348 5.419 15.988 11.986 18.803 16.802 24.806 22.746l10.915 10.807 10.915-10.807c6.003-5.944 17.166-16.179 24.806-22.746s14.835-11.96 15.988-11.986 7.779 2.265 14.724 5.091l12.628 5.138 3.458-2.823c1.902-1.553 4.262-5.204 5.245-8.115 1.439-4.259 2.505-5.377 5.462-5.726 2.714-.321 4.843.698 8.144 3.898l4.469 4.332v-7.575-7.575l-12.899-8.317c-7.095-4.574-22.584-13.874-34.421-20.665s-21.727-12.11-21.977-11.819 4.806 12.4 11.237 26.909 11.461 26.613 11.177 26.896-2.059-.496-3.946-1.732c-2.968-1.945-4.008-2.016-7.722-.527-2.361.946-7.086 4.589-10.502 8.095s-6.9 6.375-7.745 6.375c-1.143 0-1.322-7.185-.701-28.114l1.534-34.889c.554-5.362.269-6.941-1.363-7.567-1.44-.553-7.814 5.089-21.109 18.683l-24.282 25.221-5.236 5.746-.784-5.085c-.431-2.797-1.514-12.743-2.406-22.103l-1.622-17.018 3.209-2.582c1.765-1.42 5.282-3.502 7.816-4.627s9.232-2.362 14.884-2.75 10.277-1.297 10.277-2.022c0-.826-4.319-1.064-11.576-.639-8.021.47-14.014 1.678-19.514 3.933-4.366 1.79-12.403 5.809-17.86 8.93l-13.891 7.957-19.845 11.286c-8.732 4.953-20.936 12.412-27.121 16.576s-13.032 9.294-15.214 11.401-6.13 6.496-8.771 9.754-6.095 9.509-7.675 13.891c-2.151 5.967-2.773 10.285-2.475 17.199.394 9.143.432 9.228 3.934 8.82 2.926-.341 3.421.027 2.87 2.133-.421 1.611.156 2.86 1.573 3.404 1.634.627 2.031.319 1.471-1.141-.422-1.1-.547-2-.278-2s1.719 2.084 3.221 4.63 3.347 4.63 4.1 4.63 1.368-.819 1.368-1.819c0-1.109 1.421-1.809 3.638-1.793 2.001.014 2.869.296 1.929.625-1.306.458-1.349 1.033-.181 2.44.84 1.013 2.091 1.493 2.779 1.068s.871-2.502.406-4.616zm24.91-50.125c-2.273-3.589-2.467-5.115-1.403-11.025.679-3.772 1.473-7.636 1.763-8.585.363-1.184 2.214-.373 5.89 2.582 2.949 2.37 6.527 6.943 7.951 10.164s2.59 6.335 2.59 6.921-1.042 1.372-2.315 1.746-4.458 1.059-7.077 1.522c-4.307.762-5.014.444-7.4-3.324zm-13.377 49.082c.425-2.895.063-3.742-1.504-3.513-1.135.166-2.271 1.365-2.524 2.664s.342 2.871 1.323 3.493 1.865 1.14 1.965 1.151.433-1.696.741-3.795zm79.228 82.864c.105-6.707.356-7.162 7.292-13.23 4.055-3.547 8.474-6.272 10.145-6.256 1.92.018 4.25 1.85 6.627 5.21l3.665 5.182-9.232 5.972c-5.078 3.285-11.014 6.894-13.191 8.02s-4.287 2.048-4.687 2.048-.679-3.126-.619-6.946zM49.292 147.969c.729-1.917 1.921-4.599 2.649-5.959 1.076-2.01 2.458-2.366 7.388-1.904 3.336.313 6.692.956 7.459 1.43s-1.898 2.501-5.922 4.504-8.573 4.041-10.108 4.528c-2.551.81-2.677.587-1.465-2.6zm179.462-79.765c-3.139-.398-3.646-.962-3.019-3.355l2.429-9.197c1.616-6.1 1.814-6.291 5.665-5.466 2.195.47 5.032 1.401 6.306 2.068s2.315 2.383 2.315 3.812c0 2.006-.906 2.599-3.969 2.599-3.641 0-3.969.376-3.969 4.552 0 2.504-.447 4.758-.992 5.008s-2.69.241-4.765-.023z" fill="#fac85b"/><path d="M187.889 453.785c-3.449-.84-15.839-6.587-27.534-12.772l-46.649-25.558c-13.962-7.872-31.637-18.381-39.278-23.353l-25.265-16.116c-6.255-3.892-13.482-9.458-16.06-12.368s-8.698-12.138-13.602-20.506-10.016-18.393-11.362-22.278c-1.894-5.467-2.752-13.992-3.797-37.705-.743-16.853-1.352-41.16-1.354-54.017s.616-36.968 1.373-53.581c.939-20.626 2.045-32.304 3.486-36.821 1.161-3.638 6.245-13.759 11.297-22.491S31.114 97.474 34.513 93.97s11.24-9.409 17.425-13.123 15.413-9.52 20.506-12.903 20.573-12.728 34.398-20.766 30.793-17.453 37.705-20.923 17.825-9.271 24.251-12.891 15.058-7.389 19.183-8.376c4.42-1.057 15.219-1.813 26.289-1.841 10.333-.026 21.942.608 25.798 1.409 4.172.867 16.655 6.557 30.825 14.05a2243.62 2243.62 0 0 1 47.935 26.277c13.267 7.526 29.937 17.468 37.044 22.095s17.983 11.452 24.168 15.168 13.11 8.734 15.389 11.151 5.809 7.075 7.846 10.349 6.589 10.941 10.116 17.036 7.73 15.026 9.339 19.845c2.89 8.654 2.926 9.746 2.936 88.803.011 78.747-.036 80.18-2.874 88.643-1.586 4.731-6.855 15.582-11.709 24.113s-11.144 18.147-13.979 21.368-11.257 9.588-18.717 14.149-17.729 11.079-22.823 14.484-21.168 13.06-35.721 21.456-28.544 16.139-31.09 17.206-12.337 6.208-21.756 11.423-20.519 10.361-24.666 11.436c-5.198 1.347-13.852 1.915-27.856 1.827-11.174-.07-23.138-.814-26.587-1.654zm48.674-54.474c5.13-1.697 15.549-6.024 23.152-9.617s21.082-10.632 29.952-15.643l25.137-13.946c4.955-2.659 19.718-12.185 32.806-21.168s26.08-18.681 28.87-21.552 6.579-7.788 8.419-10.928 4.237-8.531 5.327-11.98c1.614-5.11 2.072-18.15 2.472-70.436.274-35.791-.052-67.583-.737-71.894-.816-5.133-3.344-11.497-7.527-18.949-3.464-6.172-8.224-13.204-10.578-15.627s-11.004-8.545-19.223-13.603-22.981-13.575-32.804-18.926-24.112-13.577-31.752-18.28-20.738-12.427-29.106-17.165-18.489-9.98-22.491-11.648c-6.257-2.609-9.61-3.038-23.931-3.065l-16.655-.031-13.113 6.455c-7.212 3.55-16.685 8.531-21.051 11.07s-15.678 9.357-25.137 15.153-24.343 14.314-33.075 18.928-22.861 12.788-31.398 18.163c-9.342 5.881-17.294 11.98-19.972 15.315-2.447 3.048-6.932 10.098-9.966 15.665-4.36 8.001-5.784 12.3-6.794 20.506-.716 5.818-1.091 37.435-.853 71.903.412 59.799.506 61.73 3.349 69.05 1.609 4.142 5.361 10.819 8.339 14.839 3.706 5.003 9.842 10.391 19.448 17.079l24.617 17.024c5.821 3.989 14.751 9.65 19.845 12.579l28.481 16.066c10.571 5.907 26.645 14.085 35.721 18.174s20.073 8.245 24.439 9.237c4.902 1.113 11.481 1.523 17.199 1.071 5.094-.403 13.459-2.12 18.589-3.817zm-56.956-43.66c-10.187-5.431-16.736-9.551-14.553-9.156s10.389 1.483 18.236 2.418c10.301 1.228 14.779 1.301 16.11.264 1.566-1.22 1.471-3.121-.633-12.644-1.362-6.164-2.266-11.418-2.009-11.676s4.071-1.21 8.475-2.118c6.047-1.246 8.152-1.274 8.598-.112.325.846 1.786 1.45 3.249 1.342s3.629-1.002 4.816-1.986c1.711-1.42 1.803-2.016.441-2.879-1.089-.691-1.167-1.096-.214-1.109.826-.011 3.366.764 5.645 1.722s3.887 2 3.575 2.315 1.017.643 2.955.729 7.839 1.851 13.114 3.924l9.592 3.768-.132 7.983c-.072 4.391-.542 9.472-1.043 11.291-.658 2.389-4.021 5.051-12.106 9.585l-11.195 6.277-17.199-.031-17.199-.031-18.522-9.874zm-25.835-13.425l-3.63-2.454c-.198-.136.211-1.673.908-3.415s1.305-2.352 1.351-1.353c.058 1.261.589 1.419 1.738.517.91-.714 3.685-1.685 6.167-2.156 4.222-.802 4.382-.707 2.481 1.468-1.118 1.279-2.868 3.962-3.889 5.963-1.804 3.535-1.949 3.576-5.127 1.431zm-.905-23.793c-17.626-4.324-18.963-4.876-21.37-8.82-1.412-2.314-5.996-10.946-10.186-19.183l-7.618-14.976 2.131-6.854c1.172-3.769 2.776-10.723 3.564-15.453l3.208-20.506c1.306-8.762 1.382-12.159.287-12.86-.888-.569-1.835.231-2.348 1.984-.778 2.655-.87 2.683-.96.291-.055-1.455.507-5.278 1.249-8.496 1.341-5.816 1.314-5.884-4.594-11.907-3.268-3.332-7.151-8.737-8.628-12.011s-2.699-8.266-2.715-11.092.662-7.445 1.506-10.263 3.597-7.534 6.118-10.478c3.762-4.395 5.301-5.281 8.593-4.951 3.365.338 4.299 1.254 5.798 5.694.983 2.911 3.344 6.562 5.245 8.115l3.458 2.823 12.628-5.138c6.945-2.826 13.571-5.117 14.724-5.091s8.348 5.419 15.988 11.986 18.803 16.802 24.806 22.746l10.915 10.807 10.915-10.807c6.003-5.944 17.166-16.179 24.806-22.746s14.835-11.96 15.988-11.986 7.779 2.265 14.724 5.091l12.628 5.138 3.458-2.823c1.902-1.553 4.262-5.204 5.245-8.115 1.495-4.426 2.438-5.357 5.765-5.692 3.194-.321 4.831.573 8.31 4.534 2.383 2.714 5.151 6.893 6.151 9.288s1.819 7.232 1.819 10.751c0 4.231-1.16 8.726-3.426 13.272-1.943 3.899-6.548 9.657-10.639 13.303l-7.213 6.429 3.385 21.685 4.129 25.324c.576 2.818 1.501 3.638 4.1 3.638 2.856 0 3.227.444 2.489 2.977-.477 1.637-1.216 5.06-1.642 7.607s-4.026 11.179-7.999 19.183-8.386 16.443-9.804 18.753c-2.433 3.961-3.701 4.469-22.277 8.93-10.834 2.601-21.115 4.73-22.847 4.73s-5.796-1.696-9.031-3.769-7.072-5.115-8.528-6.761c-2.3-2.601-2.595-4.536-2.255-14.795.328-9.905-.017-12.382-2.142-15.399-1.393-1.978-3.79-6.079-5.325-9.114-2.71-5.356-2.909-5.474-6.788-4.01-2.991 1.129-5 1.129-7.991 0-3.878-1.464-4.078-1.346-6.788 4.01-1.536 3.035-3.982 7.207-5.437 9.271-2.208 3.132-2.607 5.648-2.414 15.214l.231 11.462-5.682 5.468c-3.125 3.008-6.982 6.133-8.572 6.946s-4.566 1.428-6.615 1.368-12.186-2.186-22.527-4.723zm91.376-49.079c1.024-2.001 2.277-6.137 2.785-9.192l.923-5.554-6.72 3.242c-3.696 1.783-6.72 3.577-6.72 3.987s.672 2.046 1.493 3.635 2.402 3.932 3.513 5.205 2.21 2.315 2.442 2.315 1.26-1.637 2.284-3.638zm-50.267-6.283c.535-1.395-1.19-2.972-5.812-5.314l-6.573-3.331.02 2.999c.011 1.649.458 3.674.992 4.5s2.163 1.798 3.618 2.162 3.624.73 4.82.815 2.516-.739 2.935-1.83zm105.362 50.408c0-.29 1.528-3.117 3.397-6.284s3.087-4.567 2.709-3.112l-1.556 6.284c-.477 2.001-1.696 3.638-2.709 3.638s-1.841-.237-1.841-.526zm-101.227-20.747c-.851-5.036-.628-5.459 6.056-11.492 3.817-3.445 8.343-6.66 10.059-7.146 2.526-.714 3.784-.011 6.614 3.699 2.013 2.639 2.988 5.043 2.299 5.67-.658.598-6.359 4.105-12.67 7.793l-11.474 6.705zM77.949 282.159c-1.297-3.222-2.909-11.429-3.58-18.238s-1.295-27.943-1.384-46.966.277-40.11.814-46.86c.85-10.68 1.566-13.256 5.515-19.845 2.496-4.165 7.032-10.132 10.08-13.26s11.818-9.784 19.489-14.789 25.683-15.623 40.026-23.594 31.286-16.795 37.65-19.609c11.519-5.093 11.647-5.116 28.77-5.081l17.199.035 15.214 7.054c8.368 3.88 21.057 10.413 28.198 14.518l28.103 16.394c8.316 4.912 15.422 8.93 15.792 8.93s.672-4.167.672-9.261.27-9.261.599-9.261 2.091.679 3.913 1.51c3.217 1.466 3.293 1.804 2.588 11.576l-.726 10.066 4.845 3.212c2.665 1.767 7.087 5.759 9.827 8.872s6.795 9.109 9.011 13.325c3.1 5.898 4.224 10.107 4.875 18.25.465 5.821.875 26.956.911 46.966s-.571 41.83-1.349 48.487-2.565 14.695-3.97 17.86c-2.151 4.845-2.576 5.232-2.688 2.448-.102-2.527-2.854-5.403-11.67-12.192l-14.183-10.927c-2.549-1.968-2.054-2.612 13.511-17.576l16.157-15.533-1.206-23.365c-1.12-21.7-1.482-23.963-5.075-31.752-2.128-4.613-5.893-10.47-8.368-13.017s-8.451-7.702-13.282-11.456-13.449-9.785-19.151-13.402-20.387-12.357-32.632-19.421-22.473-12.635-22.729-12.379 1.63 5.216 4.191 11.022c3.663 8.307 4.348 11.048 3.215 12.864-.792 1.269-1.441 2.727-1.441 3.239s.85-.223 1.89-1.636c1.73-2.351 1.964-2.378 2.763-.316.48 1.239.431 2.968-.11 3.843-.588.952-.425 1.246.406.732.764-.472 1.749.08 2.189 1.227s.791 2.483.78 2.969-.574.008-1.252-1.063c-1.084-1.715-1.311-1.715-1.899 0-.367 1.071-.86 3.436-1.095 5.255s-1.157 3.159-2.049 2.977c-.994-.203-1.622 1.206-1.622 3.638 0 2.728.651 3.969 2.082 3.969 1.265 0 1.908.902 1.639 2.3-.244 1.265-1.478 2.499-2.743 2.743-1.632.314-2.3-.418-2.3-2.521 0-1.63-.291-2.672-.647-2.317s-.891 2.688-1.19 5.182-1.198 4.386-1.999 4.204-1.456.29-1.456 1.048-1.121 2.582-2.492 4.053c-2.446 2.625-2.483 2.215-1.991-22.216l1.184-33.887.683-8.996-6.961-3.153c-5.891-2.668-7.876-2.972-12.915-1.976-3.274.647-9.228 1.144-13.23 1.103-5.585-.057-6.507-.321-3.969-1.134 1.819-.583 6.582-1.137 10.584-1.231 5.982-.141 6.83-.431 4.767-1.629-1.556-.904-6.581-1.199-13.23-.778-7.051.447-13.466 1.799-18.743 3.951-4.412 1.799-21.38 10.897-37.705 20.218s-34.878 20.427-41.228 24.682-13.628 9.564-16.173 11.798-6.64 6.842-9.099 10.24-5.447 9.096-6.638 12.664-2.459 12.796-2.819 20.506l-1.371 30.226c-.602 13.599-.41 16.207 1.199 16.207 1.097 0 2.298 1.838 2.809 4.3.491 2.365 2.629 7.429 4.751 11.253l3.859 6.953-4.301 8.261c-2.366 4.544-4.622 9.41-5.014 10.813-.557 1.994-1.228 1.27-3.071-3.308zm282.247-46.21c0-4.41.588-7.938 1.323-7.938.728 0 1.323-.63 1.323-1.401s-.595-1.033-1.323-.583-1.323-.287-1.323-1.638 2.37-4.77 5.268-7.599 5.539-4.873 5.87-4.541 1.81 3.418 3.285 6.86 2.158 6.257 1.516 6.257-1.386-.661-1.655-1.468c-.311-.932-1.111-.719-2.192.583-1.471 1.773-1.06 2.172 3.025 2.938 2.6.488 4.728 1.373 4.728 1.968s-.982 2.063-2.182 3.263-3.284 1.894-4.63 1.541c-1.735-.454-2.449.077-2.449 1.822 0 1.774-1.316 2.709-4.71 3.346-3.247.609-4.493 1.449-4.011 2.706.385 1.002.123 1.822-.582 1.822s-1.281-3.572-1.281-7.938zm-226.594-75.079c-1.257-1.389-2.285-2.924-2.285-3.413s1.445-.888 3.21-.888c1.945 0 3.449.913 3.816 2.315.333 1.273.674.38.759-1.984.098-2.755.827-4.3 2.028-4.3 1.031 0 2.175-.744 2.542-1.654s.714-.447.772 1.029 1.058 4.044 2.224 5.708 1.91 3.229 1.654 3.478-3.159.853-6.45 1.343c-4.93.734-6.387.446-8.269-1.634zm-.383-9.727c-.604-.977-.431-1.253.445-.712.788.487 1.811-.309 2.274-1.768s.471-3.254.017-3.988-.157-1.335.66-1.335c.873 0 1.314 1.73 1.07 4.198-.228 2.309-1.104 4.424-1.947 4.7s-1.977-.216-2.52-1.095z" fill="#f4b655"/><path d="M187.384 453.615c-3.727-.912-12.062-4.637-18.522-8.277s-17.794-9.653-25.186-13.361-24.359-13.124-37.705-20.924-28.433-16.949-33.527-20.332-14.481-9.274-20.861-13.092-14.12-9.606-17.199-12.862-9.844-13.26-15.032-22.23-10.374-19.208-11.524-22.751c-1.425-4.391-2.529-16.06-3.466-36.649-.757-16.613-1.376-40.867-1.376-53.896S3.614 192 4.381 175.437c.936-20.236 2.072-32.224 3.463-36.546 1.138-3.537 6.207-13.658 11.264-22.491s11.922-18.848 15.254-22.256S47.031 83.933 55.11 79.026s18.261-11.33 22.627-14.274 20.539-12.513 35.941-21.264l46.796-25.834c10.336-5.457 22.442-10.924 26.902-12.147 5.724-1.571 13.631-2.252 26.896-2.315 10.333-.05 21.942.571 25.798 1.38 4.104.861 16.335 6.418 29.502 13.405l37.044 19.9c8.004 4.381 21.102 11.944 29.106 16.806l34.398 21.058c10.915 6.719 22.3 14.829 25.301 18.022s9.635 12.929 14.741 21.634 10.684 19.894 12.394 24.862l3.109 9.034-.101 80.703-.101 80.703-3.196 8.636c-1.758 4.75-7.062 15.398-11.787 23.662s-10.854 17.598-13.621 20.742-8.725 7.938-13.239 10.655-16.246 10.091-26.069 16.387-28.953 17.793-42.511 25.549-25.061 14.101-25.563 14.101-9.851 4.853-20.776 10.784c-11.212 6.087-23.128 11.552-27.357 12.548-4.663 1.097-14.99 1.716-27.338 1.638-10.95-.069-22.882-.869-26.621-1.784zm48.45-53.566c4.73-1.59 16.934-6.978 27.121-11.972s28.345-14.542 40.351-21.217 33.056-19.94 46.777-29.477 26.64-19.393 28.708-21.902 5.528-7.887 7.687-11.949 4.533-10.959 5.274-15.325c.777-4.576 1.365-33.876 1.388-69.18.023-34.416-.524-64.219-1.249-68.04-.709-3.739-4.112-11.875-7.563-18.081s-8.444-13.392-11.096-15.971-10.982-8.512-18.51-13.185S332.102 90.41 321.18 84.49s-27.894-15.728-37.718-21.796-25.137-14.814-34.03-19.437l-16.17-8.405h-17.701-17.701l-15.079 7.389c-8.294 4.064-24.605 13.211-36.247 20.327s-30.694 18.147-42.336 24.514-26.688 15.15-33.436 19.519-14.216 10.219-16.597 13.001-7.279 10.807-10.885 17.833l-6.555 12.775v70.39 70.39l5.019 10.156c2.803 5.671 7.769 12.943 11.245 16.469 3.424 3.472 17.224 13.729 30.665 22.793s31.897 20.612 41.013 25.662l32.488 17.521c8.753 4.587 20.362 10.255 25.798 12.595s12.861 5.036 16.499 5.991c3.835 1.006 11.063 1.532 17.199 1.25 6.142-.282 14.193-1.7 19.183-3.378zm-76.734-80.261l-19.341-5.158-6.773-1.921-9.494-18.511-9.494-18.511 2.576-8.339c1.417-4.587 4.195-19.292 6.175-32.679l3.599-24.339-7.476-6.958c-4.879-4.541-8.611-9.526-10.745-14.349-1.798-4.065-3.268-9.012-3.268-10.992s1.105-6.507 2.454-10.058 4.08-8.498 6.07-10.991c2.758-3.456 4.451-4.437 7.126-4.126 2.71.315 4.173 1.809 6.425 6.566 1.604 3.387 4.183 7.046 5.732 8.131 2.579 1.806 3.93 1.538 16.042-3.182 7.274-2.835 13.839-5.154 14.588-5.154s9.191 6.78 18.759 15.068 20.506 18.408 24.306 22.491 7.537 7.423 8.306 7.423 4.507-3.341 8.306-7.423 14.737-14.204 24.306-22.491 18.01-15.068 18.759-15.068 7.314 2.319 14.588 5.154c12.112 4.72 13.463 4.988 16.042 3.182 1.549-1.085 4.129-4.744 5.735-8.131 2.033-4.291 3.835-6.289 5.942-6.589 2.134-.304 4.378 1.049 7.631 4.6 2.534 2.767 5.484 7.98 6.554 11.586s1.947 7.999 1.947 9.764-1.824 7.031-4.054 11.703c-2.948 6.176-5.926 9.983-10.915 13.947-3.773 2.999-6.798 6.108-6.722 6.909s1.087 7.112 2.246 14.025l3.647 23.152c.847 5.821 2.692 14.316 4.099 18.877l2.559 8.293-9.486 18.496-9.486 18.496-6.119 1.796c-3.366.988-13.068 3.482-21.561 5.542-15.374 3.729-15.466 3.735-20.845 1.309-2.971-1.34-7.56-4.531-10.196-7.092l-4.794-4.655.661-11.585c.416-7.292.14-12.105-.745-12.99-.773-.773-3.226-4.792-5.451-8.932l-4.046-7.526-8.389-.092-8.389-.092-4.617 8.257c-2.539 4.541-5.099 8.555-5.687 8.918s-.761 5.619-.383 11.677c.684 10.97.669 11.037-3.659 15.966-2.39 2.722-6.611 6.105-9.38 7.518s-6.397 2.514-8.063 2.448-8.685-1.577-15.598-3.357zm87.456-56.806c1.383-4.193 2.275-7.863 1.981-8.157s-3.57 1.005-7.28 2.885-6.747 3.736-6.747 4.124.976 2.61 2.169 4.939 2.825 4.656 3.627 5.171 1.97.425 2.596-.201 2.27-4.569 3.653-8.761zm-54.512 3.98c1.527-2.588 2.777-4.96 2.777-5.27s-2.957-2.062-6.571-3.893-6.9-3.33-7.302-3.33-.337 1.637.144 3.638 1.993 5.871 3.36 8.599 3.01 4.961 3.651 4.961 2.415-2.118 3.942-4.706zm-115.884 9.148c-2.143-6.939-2.393-13.354-2.384-61.331l.009-53.581 4.506-8.327c2.478-4.58 6.844-10.984 9.702-14.23s10.947-9.706 17.976-14.354 19.031-11.984 26.671-16.301l27.357-15.44c7.406-4.175 19.848-10.28 27.649-13.568l14.184-5.977 14.687.44c14.537.435 14.842.511 29.901 7.419 8.368 3.839 19.084 9.323 23.814 12.187s11.576 6.792 15.214 8.729 15.248 8.627 25.798 14.867 22.35 14.329 26.22 17.975 9.127 10.368 11.682 14.937c4.171 7.459 4.755 9.762 5.717 22.544.589 7.83 1.154 27.335 1.255 43.343s-.433 36.114-1.185 44.68-2.253 17.496-3.334 19.845l-1.966 4.271.767-5.292c.422-2.911 1.056-21.233 1.409-40.717.379-20.949.074-40.066-.748-46.782-.794-6.495-2.753-14.336-4.575-18.316-1.752-3.827-5.487-9.508-8.299-12.624s-10.012-9.296-15.999-13.733-15.513-10.828-21.168-14.202l-29.654-17.53c-10.654-6.267-19.925-11.394-20.602-11.394s-4.462-1.737-8.411-3.86-10.933-4.588-15.519-5.478c-4.85-.941-12.539-1.3-18.382-.858-8.341.631-12.2 1.801-22.753 6.898-6.99 3.376-15.685 7.97-19.323 10.21l-11.245 6.736-15.214 8.525c-5.821 3.224-17.133 10.222-25.137 15.552s-16.84 11.943-19.636 14.696-6.752 7.432-8.792 10.397-4.733 8.649-5.984 12.63c-1.855 5.903-2.401 14.425-2.954 46.172-.484 27.731-.211 41.554.949 48.044.896 5.011 1.305 9.434.91 9.829s-1.796-2.769-3.112-7.031z" fill="#c27140"/><path d="M187.89 453.505c-4.176-1.012-12.214-4.458-17.86-7.657s-15.923-8.645-22.835-12.103-22.987-12.272-35.721-19.588-28.213-16.66-34.398-20.766-16.604-10.634-23.152-14.508-14.76-9.787-18.247-13.139c-4.012-3.857-9.98-12.494-16.252-23.522-5.451-9.584-10.744-20.003-11.762-23.152-1.143-3.538-2.392-17.606-3.267-36.817-.779-17.1-1.416-40.914-1.416-52.92s.644-35.82 1.431-52.92c.906-19.672 2.133-33.277 3.341-37.044 1.05-3.274 6.34-13.695 11.756-23.156 6.122-10.696 12.241-19.507 16.178-23.294 3.482-3.351 11.689-9.26 18.238-13.133s16.133-9.868 21.298-13.324 21.24-13.091 35.721-21.413 29.306-16.564 32.945-18.316 14.057-7.13 23.152-11.953 19.692-9.423 23.548-10.224 14.87-1.448 24.475-1.437c10.886.012 20.658.772 25.942 2.018 4.663 1.099 13.593 4.881 19.845 8.404s17.321 9.395 24.598 13.047 22.756 12.125 34.398 18.826 28.312 16.785 37.044 22.408l25.961 16.398c5.547 3.396 12.111 8.71 14.586 11.809s6.634 9.206 9.241 13.572 6.861 11.808 9.453 16.537 5.778 12.172 7.08 16.537c2.156 7.233 2.369 14.929 2.395 86.656.028 77.729-.009 78.835-2.913 87.979-1.617 5.094-6.964 16.23-11.881 24.747s-11.117 18.089-13.778 21.272c-3.185 3.81-11.995 10.233-25.798 18.807l-37.666 23.113c-9.188 5.551-22.583 13.249-29.767 17.105l-34.175 18.364c-11.623 6.25-24.408 12.128-28.444 13.078-4.385 1.032-15.042 1.69-26.515 1.637-11.551-.054-22.205-.822-26.777-1.93zm45.861-52.451c5.08-1.603 18.492-7.526 29.805-13.163s29.499-15.206 40.413-21.265 23.417-13.419 27.783-16.353l24.91-17.078c9.335-6.458 19.316-14.405 22.18-17.659s7.134-9.827 9.488-14.606l4.28-8.689.35-31.932.43-66.39c.044-18.952-.33-37.342-.832-40.865-.538-3.779-3.643-11.505-7.572-18.841-3.663-6.839-8.807-14.578-11.43-17.199s-10.423-8.278-17.333-12.573-22.089-13.012-33.732-19.373-29.503-16.723-39.69-23.028-25.561-15.002-34.165-19.325l-15.643-7.861-17.432.031c-15.132.027-18.391.432-24.708 3.065-4.002 1.668-14.123 6.91-22.491 11.648s-21.466 12.467-29.106 17.176-22.524 13.245-33.075 18.971-25.267 14.217-32.703 18.868-15.773 11.019-18.529 14.149-7.983 11.486-11.618 18.57l-6.608 12.878v71.644 71.644l4.178 7.991c2.298 4.395 6.835 10.946 10.083 14.558 3.492 3.884 16.379 13.656 31.542 23.917 14.101 9.542 34.271 22.234 44.821 28.205s29.496 15.891 42.101 22.045 25.107 11.707 27.783 12.339 9.909 1.209 16.074 1.282c8.171.097 13.711-.657 20.444-2.782zm-60.758-78.428c-.728-.237-9.36-2.337-19.183-4.667s-18.883-5.214-20.133-6.41-6.11-9.837-10.799-19.203l-8.526-17.029 1.944-5.462c1.069-3.004 2.77-9.927 3.779-15.384s2.23-13.495 2.713-17.86 1.717-12.041 2.742-17.055l1.864-9.117-8.954-8.743c-7.057-6.891-9.471-10.3-11.394-16.094-2.287-6.888-2.308-7.798-.324-14.478 1.164-3.92 3.45-9.073 5.079-11.451s4.345-5.063 6.035-5.968c2.21-1.183 3.696-1.251 5.292-.245 1.221.77 2.745 3.233 3.387 5.473s2.822 5.658 4.843 7.594l3.675 3.521 11.704-4.594c6.437-2.527 13.002-4.991 14.589-5.477 2.331-.714 5.633 1.464 17.199 11.345 7.872 6.725 18.86 16.873 24.418 22.551s10.834 10.323 11.725 10.323 6.168-4.646 11.725-10.323 16.522-15.806 24.366-22.506c12.267-10.479 14.742-12.062 17.692-11.322 1.887.474 8.198 2.841 14.024 5.262 7.247 3.011 11.275 4.036 12.751 3.246 1.187-.635 3.116-2.252 4.286-3.593s2.687-4.181 3.371-6.312 2.211-4.485 3.394-5.231c1.51-.953 3.065-.867 5.223.288 1.69.904 4.487 3.708 6.215 6.23s3.91 7.887 4.848 11.923c1.468 6.315 1.413 8.204-.396 13.554-1.156 3.419-3.57 8.449-5.365 11.179s-5.201 6.16-7.568 7.623-4.925 3.407-5.682 4.32c-.96 1.156-.853 4.46.351 10.899.95 5.082 2.132 12.812 2.626 17.178s1.724 12.403 2.733 17.86 2.681 12.304 3.714 15.214c1.879 5.292 1.879 5.292-6.489 22.403-4.603 9.411-9.433 18.126-10.735 19.366s-9.808 4.054-18.904 6.253l-20.73 4.86c-2.939.605-5.745.07-9.386-1.787-2.857-1.457-7.149-4.876-9.538-7.598-4.312-4.911-4.338-5.025-3.504-15.025.837-10.034.817-10.118-4.735-19.936l-5.575-9.859h-9.002c-7.048 0-9.146.454-9.667 2.094-.365 1.151-2.77 5.59-5.343 9.864-4.585 7.614-4.661 7.972-3.798 17.863.875 10.033.855 10.123-3.446 15.021-2.379 2.71-6.591 6.083-9.36 7.495s-5.802 2.521-6.74 2.464-2.302-.298-3.029-.535zm19.157-54.873c1.47-2.882 2.673-5.785 2.673-6.452s-2.938-2.477-6.53-4.022-6.913-2.809-7.382-2.809-.434 1.935.076 4.3 2.058 6.532 3.44 9.261 3.083 4.961 3.781 4.961 2.472-2.358 3.942-5.239zm52.862-.383c1.327-3.092 2.812-7.335 3.3-9.428.663-2.84.452-3.632-.833-3.122l-7.344 2.957c-3.093 1.25-5.623 2.828-5.623 3.505s1.203 3.59 2.673 6.471 3.29 5.239 4.043 5.239 2.456-2.53 3.783-5.623zm-82.398-76.535c12.222-.306 16.666.042 18.522 1.448 1.343 1.017-.832-1.2-4.835-4.928s-8.599-7.508-10.216-8.401c-2.524-1.395-4.732-.914-15.636 3.401l-12.697 5.024-3.547-2.575c-1.951-1.416-4.738-5.052-6.193-8.081s-3.286-5.528-4.069-5.554-2.678 1.292-4.212 2.929-3.423 4.653-4.2 6.701-1.411 5.62-1.412 7.938l-.001 4.214 16.207-.857 32.287-1.259zm106.033-4.113l16.137-.568c.001-.1-4.796-2.116-10.661-4.481-9.3-3.749-11.065-4.084-13.802-2.619-1.726.924-5.114 3.807-7.527 6.407s-3.464 4.034-2.335 3.186c1.225-.919 8.564-1.697 18.188-1.927zm42.909-.765c.753 1.08.852.493.271-1.605-.504-1.819-1.694-4.839-2.645-6.711s-2.636-4.156-3.743-5.075-2.635-1.287-3.395-.818-1.381 1.71-1.381 2.756-2.052 4.174-4.561 6.951l-4.561 5.048 9.414-1.124c7.206-.861 9.692-.725 10.601.578zM76.566 276.064c-.419-2.053-1.368-9.898-2.11-17.434s-1.349-24.118-1.349-36.85.624-31.869 1.388-42.526 1.998-20.866 2.744-22.685 3.482-6.582 6.08-10.584 8.061-10.093 12.14-13.534 16.347-11.52 27.262-17.951l35.059-20.305c8.368-4.737 21.168-11.24 28.444-14.451 12.457-5.497 14.043-5.865 27.148-6.29l13.918-.452 15.849 6.867c8.717 3.777 19.272 8.93 23.456 11.45s7.607 4.907 7.607 5.303-4.019.334-8.93-.137-11.217-1.197-14.011-1.614c-4.792-.714-4.999-.604-3.638 1.939.793 1.483 1.443 3.398 1.443 4.258 0 1.105-.87 1.011-2.977-.322-1.637-1.036-5.953-3.04-9.592-4.452-5.234-2.032-9.93-2.568-22.491-2.568h-15.876l-12.568 6.209c-6.913 3.415-21.201 11.256-31.752 17.426l-31.232 18.566c-6.627 4.042-15.67 10.015-20.097 13.273s-10.422 8.928-13.323 12.598-6.584 10.097-8.185 14.283c-2.587 6.764-3.023 11.285-3.927 40.685-.559 18.191-.505 39.596.12 47.566s.917 14.71.649 14.978-.83-1.192-1.248-3.245zm275.181-2.41c.53-2.911 1.154-14.818 1.387-26.46l.471-23.814c.027-1.455-.53-10.981-1.237-21.168s-1.839-20.343-2.517-22.568-2.28-6.095-3.562-8.599-4.065-6.76-6.184-9.457-7.694-7.724-12.387-11.17l-8.534-6.266v-10.99c0-6.045.355-10.99.788-10.99s2.666 1.295 4.961 2.877 7.15 5.373 10.788 8.424c4.083 3.424 8.738 9.285 12.162 15.314l5.547 9.768 1.256 28.444 1.457 38.367c.11 5.457-.489 18.853-1.332 29.767s-2.094 20.738-2.78 21.829c-.82 1.305-.917.173-.284-3.307z" fill="#aa6e37"/><path d="M188.77 453.711c-3.692-.897-15.004-6.112-25.137-11.589l-27.685-14.597c-5.094-2.551-19.382-10.577-31.752-17.836s-26.956-16.178-32.413-19.819-14.983-9.657-21.168-13.368-13.439-9.02-16.12-11.8-9.157-12.495-14.392-21.591-10.415-18.919-11.512-21.829c-1.303-3.458-2.588-15.607-3.708-35.059-.943-16.372-1.764-40.186-1.824-52.92s.527-37.143 1.306-54.243c.908-19.917 2.152-33.706 3.462-38.367 1.125-4.002 6.498-15.016 11.94-24.475s12.079-19.48 14.749-22.269 7.532-6.63 10.807-8.538 15.479-9.504 27.121-16.881 29.503-18.194 39.69-24.036 23.582-13.15 29.767-16.24 17.585-9.138 25.334-13.442c9.284-5.156 16.954-8.402 22.491-9.519 4.799-.968 16.061-1.601 26.263-1.476 9.823.12 20.54.662 23.814 1.204s13.395 4.933 22.491 9.759l24.475 12.595c4.366 2.102 18.357 9.809 31.09 17.127s27.32 16.076 32.413 19.463 15.512 9.928 23.152 14.536 16.751 11.109 20.247 14.448 9.199 10.833 12.675 16.655l10.479 17.962c2.287 4.058 5.166 11.5 6.397 16.537 1.97 8.063 2.238 18.269 2.238 85.232 0 67.165-.264 77.153-2.254 85.298-1.508 6.175-5.378 14.706-11.701 25.798-5.196 9.115-11.574 19.145-14.173 22.289s-9.19 8.458-14.647 11.809l-25.798 16.34c-8.732 5.636-27.297 16.694-41.256 24.574l-45.356 24.91c-10.986 5.821-23.677 11.585-28.201 12.809-5.956 1.611-13.519 2.219-27.409 2.203-10.601-.012-22.187-.752-25.897-1.652zm45.05-52.475c4.867-1.503 16.205-6.21 25.196-10.459s21.891-10.941 28.666-14.869 16.188-9.137 20.918-11.574 12.767-7.089 17.86-10.336 17.727-11.825 28.073-19.061 21.274-15.948 24.283-19.359 6.884-8.986 8.612-12.388 3.793-9.058 4.588-12.568c.93-4.104 1.483-29.294 1.551-70.548.075-45.93-.349-66.045-1.493-70.78-.879-3.638-4.795-11.977-8.702-18.53s-8.487-13.188-10.178-14.743-8.135-6.098-14.32-10.095-22.557-13.498-36.382-21.113-30.9-17.458-37.943-21.872-18.697-11.287-25.896-15.272-16.32-8.639-20.268-10.34c-6.324-2.724-9.199-3.084-24.131-3.023l-16.952.07-16.123 8.158c-8.868 4.487-24.458 13.291-34.645 19.564S118.187 78.86 106.181 85.41s-28.324 16.139-36.262 21.308c-12.187 7.937-15.235 10.64-19.59 17.378-2.837 4.389-7.058 11.841-9.381 16.56l-4.224 8.58v72.131 72.131l4.16 7.938c2.288 4.366 6.663 10.775 9.721 14.242 3.095 3.508 15.87 13.368 28.807 22.233 12.785 8.761 27.164 18.202 31.953 20.98l25.443 14.503c9.205 5.199 25.533 13.641 36.286 18.759s21.677 9.811 24.277 10.428 9.874 1.181 16.164 1.254c8.131.094 13.994-.657 20.285-2.6zm-59.505-78.61c-.728-.237-9.36-2.349-19.183-4.693s-18.856-4.778-20.074-5.41-6.185-8.96-11.04-18.507c-5.601-11.016-8.598-18.391-8.199-20.184.345-1.554 1.585-6.348 2.756-10.653s3.055-14.724 4.187-23.152 2.556-17.902 3.164-21.053 1.718-6.341 2.465-7.088c.929-.929 1.864-.414 2.959 1.632 1.125 2.102 1.326 6.492.679 14.773l-.922 11.782 14.328-.801 80.078-3.385 67.142-2.584c.842 0 1.392-3.691 1.392-9.348 0-5.141.616-10.5 1.37-11.907s2.254-2.559 3.336-2.559 2.536 1.34 3.233 2.977 2.774 13.395 4.616 26.129 4.21 25.534 5.262 28.444 1.939 6.343 1.971 7.628-3.464 9.322-7.769 17.86-8.624 16.582-9.599 17.875-5.044 3.232-9.042 4.311-13.617 3.442-21.375 5.253l-14.106 3.292-5.383-2.873c-2.961-1.58-7.031-4.599-9.046-6.708-3.522-3.686-3.649-4.298-3.291-15.789.258-8.267-.15-12.577-1.323-13.974-.933-1.11-3.507-5.362-5.722-9.447-2.659-4.906-4.68-7.223-5.953-6.823-1.06.332-4.011.605-6.558.605s-5.437-.272-6.423-.605c-1.117-.377-3.285 2.137-5.756 6.672-2.18 4.002-4.832 8.255-5.894 9.452-1.457 1.643-1.837 5.112-1.549 14.165.366 11.515.237 12.14-3.254 15.784-1.999 2.087-6.061 5.089-9.027 6.672s-5.782 2.831-6.259 2.773-1.463-.298-2.19-.535zm18.623-55.913l3.335-5.593-7.304-3.582c-4.017-1.97-7.658-3.229-8.09-2.797s-.103 3.376.732 6.542 2.4 7.133 3.479 8.815 2.535 2.868 3.237 2.634 2.776-2.942 4.611-6.018zm52.513 1.318c1.082-2.729 2.384-6.896 2.895-9.261.611-2.831.425-4.3-.544-4.3-.81 0-4.437 1.502-8.061 3.339l-6.589 3.339 2.168 4.268c1.192 2.348 2.761 5.013 3.487 5.922s2.075 1.654 2.999 1.654 2.564-2.233 3.646-4.961zm108.129-25.169c0-10.176.528-16.345 1.448-16.914 1.038-.642 1.18 3.735.498 15.467-.523 8.999-1.174 16.61-1.448 16.914s-.498-6.657-.498-15.467zm-279.415-.629c-.241-7.458-.001-14.454.533-15.545s.989 5.011 1.011 13.561-.218 15.545-.533 15.545-.771-6.102-1.011-13.561zm128.555-32.209c-4.709-4.799-15.289-14.398-23.512-21.33l-14.951-12.604-12.17 4.804c-6.694 2.642-13.101 4.799-14.238 4.793s-3.6-1.648-5.472-3.649-4.38-5.573-5.573-7.938-2.719-4.3-3.391-4.3-2.741 1.992-4.599 4.427-4.228 7.256-5.269 10.712-1.571 7.12-1.179 8.141.322 1.856-.155 1.856-2.016-2.53-3.42-5.623-2.562-7.706-2.574-10.253.629-7.012 1.424-9.922 2.9-7.219 4.677-9.574 4.355-4.883 5.728-5.618 3.404-.988 4.513-.562 2.654 2.707 3.434 5.069 3.153 5.958 5.274 7.99l3.856 3.694 12.386-4.799c6.812-2.639 13.677-4.799 15.255-4.799 1.625 0 7.331 3.819 13.164 8.811 5.663 4.846 16.695 15.106 24.518 22.799l14.222 13.988 14.222-13.988c7.822-7.693 18.855-17.953 24.518-22.799 5.833-4.992 11.539-8.811 13.164-8.811 1.578 0 8.442 2.16 15.255 4.799l12.386 4.799 3.856-3.694c2.121-2.032 4.494-5.627 5.274-7.99s2.325-4.643 3.434-5.069 3.14-.173 4.513.562 3.95 3.263 5.728 5.618 3.882 6.663 4.677 9.574 1.449 7.408 1.453 9.993-1.484 7.694-3.307 11.352-4.744 7.994-6.493 9.636l-3.179 2.986 2.156-5.996c1.827-5.082 1.908-6.924.527-12.088-.896-3.351-2.601-7.575-3.789-9.388s-3.245-3.877-4.573-4.587c-1.992-1.066-2.793-.538-4.594 3.03-1.2 2.377-3.713 5.959-5.585 7.96s-4.334 3.643-5.472 3.649-7.544-2.151-14.238-4.793l-12.17-4.803-14.951 12.604c-8.223 6.932-18.804 16.531-23.512 21.33s-9.489 8.726-10.622 8.726-5.914-3.926-10.622-8.726zm122.05-62.922c-4.217-2.67-4.265-2.818-4.265-13.154 0-5.75.463-10.454 1.028-10.454s3.833 2.53 7.261 5.623l6.233 5.623-2.436 6.972c-1.34 3.834-2.688 7.224-2.996 7.532s-2.479-.655-4.825-2.14zm-189-21.859c.398-1.326 1.386-6.313 2.195-11.082l1.471-8.671 13.47-7.843c7.409-4.314 19.273-10.672 26.365-14.13l12.895-6.287 25.472 8.099 26.045 8.601c.315.276-.052 1.127-.816 1.891-.97.97-3.659.729-8.915-.799-5.539-1.61-11.262-2.062-21.675-1.713-11.4.383-15.692 1.121-22.087 3.8-4.366 1.829-16.571 8.436-27.121 14.684l-23.603 13.61c-4.227 2.153-4.388 2.146-3.696-.16zm111.276-34.824c.362-1.819.666-4.422.676-5.785.015-2.061.355-2.198 2.019-.817 1.459 1.211 1.617 2.123.584 3.367-1.076 1.297-.683 1.847 1.637 2.29 2.794.534 2.754.599-.474.764-1.94.099-3.882.924-4.314 1.834s-.49.165-.128-1.654z" fill="#b04f24"/><path d="M188.77 453.711c-3.692-.897-15.004-6.112-25.137-11.589l-27.685-14.597c-5.094-2.551-19.382-10.577-31.752-17.836s-26.956-16.178-32.413-19.819-14.983-9.657-21.168-13.368-13.439-9.02-16.12-11.8-9.157-12.495-14.392-21.591-10.415-18.919-11.512-21.829c-1.303-3.458-2.588-15.607-3.708-35.059-.943-16.372-1.764-40.186-1.824-52.92s.527-37.143 1.306-54.243c.908-19.917 2.152-33.706 3.462-38.367 1.125-4.002 6.498-15.016 11.94-24.475s12.079-19.48 14.749-22.269 7.532-6.63 10.807-8.538 15.479-9.504 27.121-16.881 29.503-18.194 39.69-24.036 23.582-13.15 29.767-16.24 17.585-9.138 25.334-13.442c9.284-5.156 16.954-8.402 22.491-9.519 4.799-.968 16.061-1.601 26.263-1.476 9.823.12 20.54.662 23.814 1.204s13.395 4.933 22.491 9.759l24.475 12.595c4.366 2.102 18.357 9.809 31.09 17.127s27.32 16.076 32.413 19.463 15.512 9.928 23.152 14.536 16.751 11.109 20.247 14.448 9.199 10.833 12.675 16.655l10.479 17.962c2.287 4.058 5.166 11.5 6.397 16.537 1.97 8.063 2.238 18.269 2.238 85.232 0 67.165-.264 77.153-2.254 85.298-1.508 6.175-5.378 14.706-11.701 25.798-5.196 9.115-11.574 19.145-14.173 22.289s-9.19 8.458-14.647 11.809l-25.798 16.34c-8.732 5.636-27.297 16.694-41.256 24.574l-45.356 24.91c-10.986 5.821-23.677 11.585-28.201 12.809-5.956 1.611-13.519 2.219-27.409 2.203-10.601-.012-22.187-.752-25.897-1.652zm27.616-38.127c2.037-.773 5.401-3.873 7.476-6.889 3.069-4.46 5.193-5.931 11.386-7.883 4.187-1.32 14.926-5.856 23.865-10.081s21.795-10.895 28.57-14.824 16.188-9.142 20.918-11.586 14.979-8.49 22.776-13.436 14.498-8.472 14.891-7.836 3.471 2.491 6.84 4.122c5.95 2.88 6.248 2.899 10.436.643 2.371-1.277 6.458-4.091 9.082-6.254s4.771-4.393 4.771-4.955-5.8-.22-12.888.761-13.416 1.608-14.06 1.393 3.816-3.712 9.912-7.77 12.274-7.367 13.73-7.351 2.944.475 3.307 1.02 1.768 1.199 3.121 1.454c1.793.338 3.499-1.363 6.296-6.277 2.765-4.858 4.225-9.841 5.23-17.85.795-6.341 1.446-40.082 1.516-78.594.089-48.685-.323-69.326-1.479-74.098-.881-3.638-4.799-11.977-8.706-18.53s-8.487-13.188-10.178-14.743-8.135-6.098-14.32-10.095-22.557-13.498-36.382-21.113-30.9-17.458-37.943-21.872-18.697-11.287-25.896-15.272-16.32-8.639-20.268-10.34c-6.324-2.724-9.199-3.084-24.131-3.023l-16.952.07-16.123 8.158c-8.868 4.487-24.458 13.291-34.645 19.564S118.187 78.86 106.181 85.41s-28.324 16.139-36.262 21.308c-12.187 7.937-15.235 10.64-19.59 17.378-2.837 4.389-7.058 11.841-9.381 16.56l-4.224 8.58v76.762c0 59.016.4 78.291 1.732 83.377.953 3.638 4.202 10.782 7.22 15.876s6.891 11.153 8.606 13.466 10.373 8.92 19.24 14.683 23.862 14.537 33.321 19.498 21.069 11.396 25.798 14.299l18.538 11.532c5.466 3.439 15.662 9.257 22.658 12.927l12.719 6.674 13.063-.67c7.185-.368 14.73-1.303 16.767-2.076zm-42.071-92.958c-.728-.237-9.36-2.349-19.183-4.693s-18.856-4.778-20.074-5.41-6.185-8.96-11.04-18.507c-5.601-11.016-8.598-18.391-8.199-20.184.345-1.554 1.585-6.348 2.756-10.653s3.055-14.724 4.187-23.152 2.556-17.902 3.164-21.053 1.718-6.341 2.465-7.088c.929-.929 1.864-.414 2.959 1.632 1.125 2.102 1.326 6.492.679 14.773l-.922 11.782 14.328-.801 80.078-3.385 67.142-2.584c.842 0 1.392-3.691 1.392-9.348 0-5.141.616-10.5 1.37-11.907s2.254-2.559 3.336-2.559 2.536 1.34 3.233 2.977 2.774 13.395 4.616 26.129 4.21 25.534 5.262 28.444 1.939 6.343 1.971 7.628-3.464 9.322-7.769 17.86-8.624 16.582-9.599 17.875-5.044 3.232-9.042 4.311-13.617 3.442-21.375 5.253l-14.106 3.292-5.383-2.873c-2.961-1.58-7.031-4.599-9.046-6.708-3.522-3.686-3.649-4.298-3.291-15.789.258-8.267-.15-12.577-1.323-13.974-.933-1.11-3.507-5.362-5.722-9.447-2.659-4.906-4.68-7.223-5.953-6.823-1.06.332-4.011.605-6.558.605s-5.437-.272-6.423-.605c-1.117-.377-3.285 2.137-5.756 6.672-2.18 4.002-4.832 8.255-5.894 9.452-1.457 1.643-1.837 5.112-1.549 14.165.366 11.515.237 12.14-3.254 15.784-1.999 2.087-6.061 5.089-9.027 6.672s-5.782 2.831-6.259 2.773-1.463-.298-2.19-.535zm18.623-55.913l3.335-5.593-7.304-3.582c-4.017-1.97-7.658-3.229-8.09-2.797s-.103 3.376.732 6.542 2.4 7.133 3.479 8.815 2.535 2.868 3.237 2.634 2.776-2.942 4.611-6.018zm52.513 1.318c1.082-2.729 2.384-6.896 2.895-9.261.611-2.831.425-4.3-.544-4.3-.81 0-4.437 1.502-8.061 3.339l-6.589 3.339 2.168 4.268c1.192 2.348 2.761 5.013 3.487 5.922s2.075 1.654 2.999 1.654 2.564-2.233 3.646-4.961zm108.129-25.169c0-10.176.528-16.345 1.448-16.914 1.038-.642 1.18 3.735.498 15.467-.523 8.999-1.174 16.61-1.448 16.914s-.498-6.657-.498-15.467zm-279.415-.629c-.241-7.458-.001-14.454.533-15.545s.989 5.011 1.011 13.561-.218 15.545-.533 15.545-.771-6.102-1.011-13.561zm128.555-32.209c-4.709-4.799-15.289-14.398-23.512-21.33l-14.951-12.604-12.17 4.804c-6.694 2.642-13.101 4.799-14.238 4.793s-3.6-1.648-5.472-3.649-4.38-5.573-5.573-7.938-2.719-4.3-3.391-4.3-2.741 1.992-4.599 4.427-4.228 7.256-5.269 10.712-1.571 7.12-1.179 8.141.322 1.856-.155 1.856-2.016-2.53-3.42-5.623-2.562-7.706-2.574-10.253.629-7.012 1.424-9.922 2.9-7.219 4.677-9.574 4.355-4.883 5.728-5.618 3.404-.988 4.513-.562 2.654 2.707 3.434 5.069 3.153 5.958 5.274 7.99l3.856 3.694 12.386-4.799c6.812-2.639 13.677-4.799 15.255-4.799 1.625 0 7.331 3.819 13.164 8.811 5.663 4.846 16.695 15.106 24.518 22.799l14.222 13.988 14.222-13.988c7.822-7.693 18.855-17.953 24.518-22.799 5.833-4.992 11.539-8.811 13.164-8.811 1.578 0 8.442 2.16 15.255 4.799l12.386 4.799 3.856-3.694c2.121-2.032 4.494-5.627 5.274-7.99s2.325-4.643 3.434-5.069 3.14-.173 4.513.562 3.95 3.263 5.728 5.618 3.882 6.663 4.677 9.574 1.449 7.408 1.453 9.993-1.484 7.694-3.307 11.352-4.744 7.994-6.493 9.636l-3.179 2.986 2.156-5.996c1.827-5.082 1.908-6.924.527-12.088-.896-3.351-2.601-7.575-3.789-9.388s-3.245-3.877-4.573-4.587c-1.992-1.066-2.793-.538-4.594 3.03-1.2 2.377-3.713 5.959-5.585 7.96s-4.334 3.643-5.472 3.649-7.544-2.151-14.238-4.793l-12.17-4.803-14.951 12.604c-8.223 6.932-18.804 16.531-23.512 21.33s-9.489 8.726-10.622 8.726-5.914-3.926-10.622-8.726zm122.05-62.922c-4.217-2.67-4.265-2.818-4.265-13.154 0-5.75.463-10.454 1.028-10.454s3.833 2.53 7.261 5.623l6.233 5.623-2.436 6.972c-1.34 3.834-2.688 7.224-2.996 7.532s-2.479-.655-4.825-2.14zm-189-21.859c.398-1.326 1.386-6.313 2.195-11.082l1.471-8.671 13.47-7.843c7.409-4.314 19.273-10.672 26.365-14.13l12.895-6.287 25.472 8.099 26.045 8.601c.315.276-.052 1.127-.816 1.891-.97.97-3.659.729-8.915-.799-5.539-1.61-11.262-2.062-21.675-1.713-11.4.383-15.692 1.121-22.087 3.8-4.366 1.829-16.571 8.436-27.121 14.684l-23.603 13.61c-4.227 2.153-4.388 2.146-3.696-.16zm111.276-34.824c.362-1.819.666-4.422.676-5.785.015-2.061.355-2.198 2.019-.817 1.459 1.211 1.617 2.123.584 3.367-1.076 1.297-.683 1.847 1.637 2.29 2.794.534 2.754.599-.474.764-1.94.099-3.882.924-4.314 1.834s-.49.165-.128-1.654z" fill="#8f522d"/><g fill="#694925"><path d="M187.545 453.083c-4.366-1.262-14.487-5.911-22.491-10.333s-19.471-10.501-25.481-13.509-19.703-10.582-30.429-16.831-26.645-15.957-35.377-21.576l-25.961-16.39c-5.547-3.396-12.137-8.71-14.645-11.809s-7.755-11.289-11.659-18.202-7.819-13.461-8.7-14.553-2.657-4.961-3.948-8.599c-1.708-4.817-2.797-14.705-4.004-36.382-.912-16.372-1.717-39.293-1.789-50.935s.513-35.754 1.299-53.581c.92-20.833 2.153-35.013 3.452-39.69 1.112-4.002 3.355-9.36 4.986-11.907s5.718-9.7 9.082-15.896 8.251-13.758 10.859-16.804 9.334-8.359 14.946-11.804l26.081-16.449c8.732-5.601 25.872-15.914 38.088-22.919s28.291-15.782 35.721-19.506 17.974-9.281 23.431-12.349 12.899-6.314 16.537-7.213c3.863-.955 15.468-1.636 27.894-1.639 11.868-.002 23.773.668 26.918 1.515 3.102.835 14.661 6.323 25.688 12.196l36.769 19.69c9.196 4.957 22.866 12.683 30.377 17.169s17.847 10.959 22.969 14.385 14.373 9.273 20.558 12.993 13.669 9.334 16.631 12.475 9.578 12.856 14.704 21.588 10.247 18.853 11.381 22.491c1.366 4.38 2.547 16.895 3.496 37.044.788 16.736 1.43 40.948 1.425 53.804s-.627 36.968-1.384 53.581c-.955 20.98-2.031 32.223-3.52 36.81-1.179 3.632-6.236 13.746-11.238 22.476s-11.783 18.678-15.07 22.108-13.961 11.176-23.72 17.214l-36.645 22.456c-10.396 6.313-25.153 14.859-32.793 18.991l-33.736 18.047c-11.295 5.996-23.265 11.343-27.783 12.411-4.986 1.178-14.827 1.848-26.46 1.801-13.454-.054-20.694-.702-26.46-2.368zm44.938-31.375c3.805-1.501 7.045-4.42 11.29-10.172 3.274-4.437 7.336-10.352 9.026-13.144 2.411-3.983 5.594-6.343 14.78-10.957 6.439-3.234 16.268-8.576 21.843-11.872s10.338-5.992 10.585-5.992 1.163 2.233 2.035 4.961 2.047 5.465 2.611 6.08 8.083-2.597 16.708-7.14 22.232-12.19 30.236-16.995 17.53-11.722 21.168-15.371 9.189-11.231 12.335-16.848c4.155-7.418 6.072-12.662 7.008-19.164.709-4.923 1.488-37.23 1.732-71.793l-.647-74.695c-.938-10.196-1.88-13.382-6.742-22.795-3.109-6.018-7.918-13.593-10.687-16.832s-11.125-9.713-18.57-14.386-23.358-13.869-35.365-20.435-30.125-17.067-40.264-23.336-25.204-14.816-33.477-18.995l-15.042-7.598-17.503-.019-17.503-.019-14.277 6.941c-7.853 3.817-17.656 8.942-21.785 11.388l-21.399 12.993c-7.64 4.7-24.012 14.086-36.382 20.858s-28.35 16.172-35.51 20.89c-10.744 7.078-13.936 9.996-18.267 16.696-2.886 4.466-7.149 11.981-9.472 16.701l-4.224 8.581v79.566 79.566l5.66 11.086c3.113 6.097 7.716 13.892 10.23 17.321 2.818 3.845 9.191 9.341 16.625 14.34 6.63 4.458 23.161 14.215 36.736 21.683s32.422 18.326 41.881 24.129 21.366 12.721 26.46 15.372 13.131 6.298 17.86 8.102c7.003 2.672 11.048 3.293 21.785 3.346 9.071.045 14.851-.592 18.522-2.04zm-77.337-104.197l-21.792-5.492-8.951-17.86c-5.627-11.228-8.695-18.843-8.261-20.506l2.57-9.596c1.034-3.822 3.12-15.729 4.634-26.46s3.335-20.883 4.046-22.562 1.885-2.685 2.609-2.237 1.317 3.558 1.317 6.911-.937 12.993-2.083 21.421-2.848 19.315-3.784 24.193c-1.52 7.925-1.455 9.404.615 13.891 1.274 2.762 3.138 6.091 4.141 7.397 1.714 2.232 3.599 2.294 31.237 1.034 16.177-.737 30.305-.998 31.395-.58 1.538.59 1.983 3.19 1.983 11.596 0 10.794-.019 10.854-4.961 15.589-2.729 2.614-6.753 5.653-8.942 6.752-3.737 1.877-5.314 1.663-25.773-3.492zm92.496 3.038c-2.492-1.292-6.551-4.452-9.021-7.022l-4.491-4.673.711-11.395c.391-6.267 1.007-11.692 1.37-12.054s14.242-1.266 30.843-2.007 31.52-1.093 33.153-.781 3.232-.12 3.554-.96-.502-6.556-1.832-12.703-3.578-20.106-4.995-31.021c-2.204-16.972-2.322-20.468-.815-24.145.969-2.365 2.075-4.3 2.457-4.3s1.536 1.637 2.564 3.638 3.157 12.707 4.731 23.791 3.711 23.289 4.747 27.121l2.538 9.615c.4 1.622-2.791 9.557-8.248 20.506l-8.901 17.86-13.879 3.603-21.917 5.439c-7.308 1.669-8.45 1.623-12.568-.513zm-64.624-42.074c-.722-1.35-3.125-7.417-5.339-13.483s-4.025-12.042-4.025-13.28.802-2.559 1.782-2.935 3.51.766 5.623 2.537c3.195 2.679 3.396 3.159 1.195 2.857-2.132-.293-2.558.279-2.192 2.944.25 1.819 1.674 6.163 3.166 9.652 1.825 4.271 3.395 6.213 4.802 5.942 1.15-.221 3.412-2.759 5.028-5.639 2.176-3.878 2.565-5.685 1.501-6.966-.79-.952-1.079-2.087-.643-2.523s1.788-.411 3.004.055c1.763.677 2.075 2.054 1.54 6.803-.369 3.275-2.24 8.325-4.157 11.222-2.488 3.76-4.414 5.268-6.728 5.268-1.804 0-3.825-1.089-4.556-2.454zm50.484-.756c-1.389-1.766-3.572-5.952-4.852-9.303s-1.989-6.972-1.577-8.047 2.217-2.622 4.01-3.439 4.34-1.054 5.66-.527c2.232.891 2.197 1.096-.505 2.933l-2.904 1.975 2.837 5.84c1.563 3.218 3.769 5.84 4.913 5.84s3.091-1.637 4.332-3.638c1.276-2.058 2.258-2.776 2.262-1.654.004 1.091-1.142 4.515-2.546 7.607-2.004 4.414-3.256 5.623-5.828 5.623-1.892 0-4.343-1.356-5.801-3.21zm15.698-21.63c-.132-2.93-.244-2.954-4.194-.912-3.988 2.062-4.033 2.051-2.564-.693.822-1.536 2.948-3.454 4.726-4.264s3.616-1.088 4.085-.619.23 2.799-.532 5.176c-1.12 3.493-1.412 3.744-1.521 1.312zm-44.505-45.399c-3.611-3.704-13.938-13.034-22.948-20.733l-16.383-13.998-4.785 1.378c-2.632.758-8.5 2.762-13.042 4.455-6.372 2.375-9.09 2.791-11.907 1.825-2.448-.839-4.677-3.322-6.767-7.536-1.714-3.456-3.836-6.284-4.714-6.284s-3.238 1.714-5.245 3.808-4.701 7.211-5.988 11.371l-2.34 7.563-1.866-4.425c-1.026-2.434-1.79-7.51-1.697-11.281.1-4.058 1.362-9.319 3.092-12.894 1.608-3.321 4.46-7.248 6.339-8.726s4.059-2.477 4.846-2.22 2.982 3.398 4.88 6.981 4.944 7.367 6.771 8.408c3.049 1.738 4.322 1.494 15.513-2.977 6.705-2.679 13.184-4.869 14.397-4.868s8.159 5.122 15.436 11.379 18.439 16.514 24.806 22.792l11.576 11.415 11.576-11.415c6.367-6.278 17.53-16.535 24.806-22.792s14.238-11.378 15.471-11.379 7.41 2.082 13.727 4.629 12.363 4.63 13.435 4.63 3.676-1.849 5.787-4.109 3.838-5.144 3.838-6.41 1.14-3.333 2.534-4.594c2.38-2.154 2.74-2.158 5.93-.068 1.868 1.224 4.598 4.17 6.067 6.547s3.229 7.262 3.91 10.855c.694 3.659.758 8.666.146 11.38-.601 2.665-2.7 7.589-4.665 10.941s-3.807 5.86-4.094 5.573.163-2.337 1-4.555c1.181-3.13 1.124-5.455-.257-10.386-.978-3.494-3.521-8.338-5.651-10.764s-4.641-4.411-5.58-4.411-3.11 2.828-4.824 6.284c-2.09 4.214-4.319 6.697-6.767 7.536-2.817.966-5.535.549-11.907-1.825-4.541-1.692-10.41-3.697-13.042-4.455l-4.785-1.378-16.383 13.998c-9.011 7.699-19.337 17.028-22.948 20.733s-7.503 6.735-8.649 6.735-5.038-3.031-8.649-6.735z"/><path d="m 187.27437,454.50157 c -4.40359,-1.26657 -14.61131,-5.96201 -22.68387,-10.42249 -8.07292,-4.45865 -19.63733,-10.59136 -25.69937,-13.62558 -6.06112,-3.03424 -19.87229,-10.67214 -30.68961,-16.97555 C 97.384391,407.17637 81.328116,397.38349 72.521503,391.71758 63.71434,386.05111 51.932229,378.6133 46.338087,375.18625 40.743205,371.76103 34.096533,366.40112 31.567093,363.27694 29.037652,360.15093 23.745643,351.89078 19.808297,344.91864 15.870965,337.94707 11.922599,331.34262 11.034179,330.24127 10.153163,329.13987 8.3542161,325.23745 7.0527823,321.5681 5.3273294,316.70929 4.231475,306.73653 3.0144877,284.87373 2.0966507,268.36076 1.2890348,245.24407 1.2156078,233.50179 c -0.072567,-11.74227 0.5140156,-36.06035 1.3032479,-54.04051 0.9361131,-21.01164 2.171511,-35.3131 3.4821231,-40.03001 1.1196805,-4.03645 3.3848296,-9.44043 5.0295182,-12.00842 1.652026,-2.568 5.767416,-9.7837 9.159596,-16.03205 3.394008,-6.24835 8.320723,-13.875233 10.951126,-16.948011 2.630402,-3.072779 9.412909,-8.430864 15.073867,-11.905636 5.660971,-3.474772 17.496849,-10.94012 26.3042,-16.590072 8.807163,-5.649938 26.093286,-16.050402 38.414694,-23.11522 12.32232,-7.063354 28.53388,-15.916396 36.02713,-19.673117 7.49288,-3.75562 18.12829,-9.361521 23.63176,-12.454485 5.50493,-3.0948035 13.01066,-6.3676651 16.68,-7.2744423 3.89513,-0.9545236 15.60069,-1.6520394 28.13263,-1.6520394 11.96989,-0.0022 23.97649,0.6791725 27.14857,1.5235422 3.12785,0.8443294 14.78569,6.3768439 25.9079,12.3002925 11.12183,5.923449 27.80919,14.859109 37.08443,19.859077 9.27523,5.000142 23.06199,12.792229 30.63746,17.315122 7.57549,4.522894 17.99981,11.052088 23.16607,14.508504 5.16536,3.456415 14.49566,9.352329 20.73429,13.10428 6.23733,3.751951 13.78528,9.412909 16.77363,12.582967 2.9865,3.168231 9.66071,12.966618 14.82973,21.772868 5.16902,8.80716 10.33437,19.01414 11.47795,22.68367 1.37669,4.41826 2.56799,17.03978 3.52616,37.36142 0.78936,16.88008 1.45013,41.29858 1.43177,54.2652 -0.004,12.9666 -0.62408,37.28468 -1.39506,54.0405 -0.95452,21.16014 -2.04851,32.4995 -3.55003,37.12575 -1.19318,3.66383 -6.29057,13.86421 -11.33477,22.66862 -5.04419,8.80532 -11.88361,18.83829 -15.19868,22.29746 -3.31509,3.4601 -14.08082,11.27237 -23.92307,17.36101 -9.84244,6.0905 -26.47454,16.28169 -36.95961,22.64881 -10.4849,6.36766 -25.3686,14.98576 -33.07441,19.15366 -7.7058,4.16679 -23.01721,12.35719 -34.02542,18.20171 -11.39167,6.04642 -23.46453,11.4394 -28.02121,12.51689 -5.02768,1.19319 -14.95455,1.86496 -26.68672,1.81723 -13.5687,-0.0538 -20.87123,-0.71586 -26.68655,-2.3881 z M 232.5971,422.858 c 32.11941,-17.64901 62.4037,-33.96589 89.64052,-48.64681 8.69886,-4.58163 22.4221,-12.29478 30.49484,-17.14075 8.07294,-4.84596 17.68041,-11.82304 21.34939,-15.50339 3.66935,-3.68037 9.2679,-11.32743 12.4398,-16.99207 4.19065,-7.48186 6.12353,-12.7702 7.06886,-19.32785 0.71586,-4.96527 1.50518,-37.54865 1.74381,-72.40817 0.23866,-34.85952 -0.047,-68.7603 -0.66076,-75.33501 -0.95453,-10.28299 -1.89616,-13.4971 -6.79903,-22.99004 -3.13524,-6.07029 -7.98487,-13.71003 -10.77864,-16.97554 -2.79193,-3.26735 -11.22097,-9.79654 -18.7289,-14.51034 C 350.85943,98.314233 334.80829,89.040841 322.69927,82.417848 310.58988,75.795029 292.31603,65.203674 282.09014,58.882088 271.86406,52.560315 256.67052,43.938546 248.32646,39.72421 l -15.17114,-7.66359 -17.65288,-0.02016 -17.65287,-0.01881 -14.40021,7.000933 c -7.92058,3.851072 -17.80707,9.018252 -21.97147,11.485299 -4.16495,2.467032 -13.87706,8.362946 -21.58232,13.104279 -7.70582,4.739493 -24.21806,14.207459 -36.69419,21.036784 C 90.724872,91.479171 74.608756,100.96 67.386803,105.71765 c -10.83733,7.13863 -14.055108,10.08107 -18.423635,16.83972 -2.91125,4.50454 -7.210195,12.08369 -9.552412,16.84336 l -4.260404,8.65482 v 80.24743 80.24743 l 5.708678,11.18057 c 3.138868,6.14922 7.782908,14.01107 10.317858,17.46931 2.843333,3.87677 9.269737,9.42209 16.768116,14.46263 6.687054,4.49535 23.359731,14.33779 37.051216,21.86867 13.69166,7.53142 32.69957,18.48275 42.24005,24.3357 9.53957,5.8537 21.54966,12.83078 26.68674,15.50341 5.13782,2.67445 13.24378,6.35113 18.01265,8.17204 7.06335,2.69465 11.14203,3.32058 21.97184,3.37381 9.14857,0.0443 14.97841,-0.6058 18.6808,-2.05769 z" stroke="url(#B)" stroke-width="3.556"/></g><path d="M159.102 319.819l-19.341-5.158-6.773-1.921-9.494-18.511-9.494-18.511 2.576-8.339c1.417-4.587 4.195-19.292 6.175-32.679l3.599-24.339-7.476-6.958c-4.879-4.541-8.611-9.526-10.745-14.349-1.798-4.065-3.268-9.012-3.268-10.992s1.105-6.507 2.454-10.058 4.08-8.498 6.07-10.991c2.758-3.456 4.451-4.437 7.126-4.126 2.71.315 4.173 1.809 6.425 6.566 1.604 3.387 4.183 7.046 5.732 8.131 2.579 1.806 3.93 1.538 16.042-3.182 7.274-2.835 13.839-5.154 14.588-5.154s9.191 6.78 18.759 15.068 20.506 18.408 24.306 22.491 7.537 7.423 8.306 7.423 4.507-3.34 8.306-7.423 14.737-14.204 24.306-22.491 18.01-15.068 18.759-15.068 7.314 2.319 14.588 5.154c12.112 4.72 13.463 4.988 16.042 3.182 1.549-1.085 4.129-4.744 5.735-8.131 2.033-4.291 3.835-6.289 5.942-6.589 2.134-.304 4.378 1.049 7.631 4.6 2.534 2.767 5.484 7.98 6.554 11.586s1.947 7.999 1.947 9.764-1.824 7.031-4.054 11.703c-2.948 6.176-5.926 9.983-10.915 13.947-3.773 2.999-6.798 6.108-6.722 6.909s1.087 7.112 2.246 14.025l3.647 23.152c.847 5.821 2.692 14.316 4.099 18.877l2.559 8.293-9.486 18.496-9.486 18.496-6.119 1.796c-3.366.988-13.068 3.482-21.561 5.542-15.374 3.729-15.466 3.735-20.845 1.309-2.971-1.34-7.56-4.531-10.196-7.092l-4.794-4.655.66-11.585c.416-7.292.14-12.105-.745-12.99-.773-.773-3.226-4.792-5.451-8.932l-4.046-7.526-8.389-.091-8.389-.091-4.617 8.257c-2.539 4.541-5.099 8.555-5.687 8.918s-.761 5.619-.383 11.677c.684 10.97.669 11.037-3.659 15.966-2.39 2.722-6.611 6.105-9.38 7.518s-6.397 2.514-8.063 2.448-8.685-1.577-15.598-3.357zm87.456-56.806c1.383-4.193 2.275-7.863 1.981-8.157s-3.57 1.005-7.28 2.885-6.747 3.736-6.747 4.124.976 2.61 2.169 4.939 2.825 4.656 3.627 5.171 1.97.425 2.596-.201 2.27-4.569 3.653-8.761zm-54.512 3.98c1.527-2.588 2.777-4.96 2.777-5.27s-2.957-2.062-6.571-3.893-6.9-3.33-7.302-3.33-.337 1.637.144 3.638 1.993 5.871 3.36 8.599 3.01 4.961 3.651 4.961 2.415-2.118 3.942-4.706z" fill="url(#A)"/><path d="M188.836 453.304c-3.876-.88-12.351-4.546-18.835-8.146a789.78 789.78 0 0 0-23.877-12.617c-6.649-3.339-22.077-11.794-34.285-18.789S83.095 396.748 75.09 391.51L49.292 375.07c-6.607-4.064-13.348-9.49-16.341-13.154-2.803-3.43-8.028-11.297-11.611-17.482s-7.966-14.222-9.74-17.86-3.828-9.294-4.565-12.568-2.046-22.74-2.908-43.256c-1.237-29.426-1.213-46.186.115-79.38 1.121-28.018 2.336-44.509 3.638-49.354 1.075-4.002 3.612-9.658 5.636-12.568s6.405-10.65 9.735-17.199c3.63-7.139 8.456-14.258 12.051-17.778 3.298-3.229 6.202-5.61 6.454-5.292s.057 4.746-.433 9.84-1.992 13.202-3.338 18.018c-2.369 8.476-2.37 9.011-.05 16.674 1.958 6.466 2.101 8.469.784 10.932-.887 1.658-2.027 9.932-2.533 18.386s-.592 44.614-.191 80.357l.729 64.986 5.66 11.087c3.113 6.098 7.716 13.892 10.23 17.321 2.818 3.845 9.191 9.341 16.625 14.34 6.63 4.458 23.161 14.215 36.736 21.683s32.422 18.326 41.881 24.129 21.366 12.72 26.46 15.372 13.293 6.326 18.221 8.167c7.32 2.734 11.309 3.347 21.785 3.347 8.608 0 14.579-.692 18.161-2.105 3.805-1.501 7.045-4.42 11.29-10.172 3.274-4.437 7.336-10.352 9.026-13.144 2.411-3.983 5.594-6.343 14.78-10.957 6.439-3.234 16.268-8.576 21.843-11.872s10.338-5.992 10.585-5.992 1.163 2.233 2.035 4.961 2.047 5.465 2.611 6.08 8.083-2.597 16.708-7.14 22.232-12.19 30.236-16.995 17.53-11.722 21.168-15.371 9.189-11.231 12.335-16.848c4.059-7.248 6.119-12.812 7.096-19.164.813-5.285 1.432-38.475 1.512-81.054.122-65.023-.087-72.704-2.13-78.22-1.246-3.364-4.325-9.615-6.841-13.891s-5.942-9.68-7.612-12.008-9.288-8.37-16.928-13.427-19.845-12.443-27.121-16.415l-21.124-11.492c-4.342-2.349-17.737-10.275-29.767-17.614l-22.355-13.709c-.265-.201 1.036-2.304 2.891-4.674 2.473-3.16 6.398-5.46 14.722-8.63l11.35-4.321 12.219 6.375c6.721 3.506 20.554 11.323 30.741 17.371s21.815 13.216 25.839 15.929 12.955 8.341 19.845 12.508c7.063 4.271 15.243 10.539 18.752 14.37 3.423 3.737 6.251 7.384 6.284 8.106s2.036 4.293 4.45 7.938 6.331 9.866 8.702 13.826 5.152 10.806 6.18 15.214c1.051 4.51 2.545 23.435 3.416 43.272.948 21.578 1.174 46.986.584 65.488l-1.996 48.754c-.568 10.187-1.808 20.606-2.757 23.152s-2.709 6.119-3.912 7.938-5.364 8.963-9.247 15.876-9.506 15.137-12.495 18.277-9.006 7.866-13.372 10.503-15.975 9.967-25.798 16.289-28.482 17.561-41.464 24.975l-25.798 14.255c-1.207.426-10.827 5.396-21.378 11.044s-21.863 10.99-25.137 11.869-15.092 1.675-26.261 1.767c-11.769.097-23.27-.506-27.353-1.433zm-36.276-136.375l-19.11-4.908-9.04-18.246-9.04-18.246 2.578-8.346c1.418-4.59 3.883-17.812 5.478-29.382s3.458-22.094 4.14-23.388 1.877-1.958 2.656-1.477c.913.564 1.158 4.455.688 10.952-.4 5.542-1.684 16.923-2.851 25.291s-2.686 17.278-3.373 19.8c-1.067 3.915-.637 5.913 2.94 13.673l4.189 9.088 29.189-.924c16.054-.508 29.754-1.452 30.446-2.097s1.733-1.173 2.315-1.173 1.058 4.94 1.058 10.977c0 10.959-.008 10.985-4.961 15.72-2.729 2.608-6.262 5.408-7.851 6.222s-4.566 1.455-6.615 1.426-12.325-2.262-22.835-4.961zm93.198 2.531c-2.183-1.36-5.694-4.31-7.802-6.555-3.717-3.958-3.81-4.388-3.069-14.187.42-5.558.955-10.289 1.187-10.515s14.947-1.019 32.698-1.765c25.635-1.077 32.685-1.766 34.265-3.346 1.772-1.772 1.755-2.835-.151-9.683-1.178-4.231-3.051-14.837-4.163-23.568l-3.199-23.814c-.879-5.932-.72-9.049.63-12.333.993-2.417 2.337-4.067 2.985-3.667s1.834 2.378 2.635 4.395 2.651 12.299 4.112 22.85 3.546 22.458 4.636 26.46l2.641 9.922c.408 1.635-2.768 9.467-8.311 20.496L295.881 312l-18.447 4.87c-10.146 2.679-20.53 4.914-23.077 4.967s-6.417-1.017-8.599-2.377zm-63.18-42.759c-1.116-2.403-3.58-8.722-5.476-14.04s-3.447-10.528-3.447-11.576 1.125-1.906 2.499-1.906 3.905 1.207 5.623 2.682c2.872 2.466 2.91 2.653.477 2.315-2.133-.296-2.558.274-2.192 2.94.25 1.819 1.674 6.163 3.166 9.652 1.838 4.302 3.39 6.214 4.82 5.939 1.16-.223 3.536-2.994 5.281-6.157 2.563-4.646 2.828-5.964 1.379-6.859-.986-.61-1.449-1.452-1.029-1.873s1.743-.389 2.938.07c1.278.49 2.174 2.315 2.174 4.424 0 1.975-1.637 6.823-3.638 10.773-2.834 5.596-4.401 7.272-7.092 7.584-2.795.324-3.841-.433-5.483-3.969zm51.411 1.253c-1.049-1.637-3.235-5.741-4.856-9.121s-2.579-7.105-2.129-8.28 2.287-2.805 4.08-3.622 4.34-1.07 5.66-.561c2.263.872 2.249 1.006-.246 2.354-1.455.786-2.822 1.567-3.037 1.736s.934 3.035 2.555 6.37 3.694 6.351 4.608 6.701 2.907-1.264 4.429-3.589l2.768-4.226-.886 3.969a39.53 39.53 0 0 1-2.718 7.607c-1.25 2.481-2.864 3.638-5.076 3.638-1.916 0-4.024-1.218-5.151-2.977zm8.462-23.311c0-.789 1.462-2.392 3.249-3.563s3.871-1.745 4.631-1.275 1.381 1.674 1.381 2.678-1.042 1.782-2.315 1.73-3.357.346-4.631.885c-1.384.585-2.315.403-2.315-.454zm-37.755-43.965c-3.611-3.712-13.804-12.94-22.652-20.506s-16.837-13.757-17.755-13.757-7.144 1.918-13.836 4.261c-10.577 3.704-12.633 4.049-15.728 2.639-2.191-.998-4.572-3.909-6.191-7.569-1.447-3.271-3.472-5.947-4.501-5.947s-3.15 1.34-4.714 2.977-3.968 5.556-5.344 8.709-2.525 7.023-2.554 8.599c-.046 2.521-.318 2.389-2.255-1.102-1.349-2.431-2.18-6.841-2.144-11.381.038-4.881 1.072-9.508 3.03-13.551 1.635-3.377 4.753-7.408 6.93-8.958 2.96-2.108 4.337-2.438 5.464-1.311.829.829 2.718 4.022 4.198 7.095s4.233 6.437 6.117 7.474c3.148 1.733 4.444 1.492 15.942-2.963 6.883-2.667 13.379-4.836 14.434-4.819s8.17 5.436 15.81 12.044 18.803 16.851 24.806 22.762l10.915 10.748 10.915-10.748c6.003-5.911 17.166-16.155 24.806-22.762s14.755-12.028 15.81-12.044 7.551 2.152 14.434 4.819c11.495 4.454 12.794 4.696 15.942 2.965 1.885-1.036 4.777-4.707 6.429-8.157 1.667-3.483 3.912-6.272 5.048-6.272 1.125 0 3.144.588 4.487 1.306s3.716 3.37 5.275 5.892 3.32 7.659 3.914 11.414.629 8.827.078 11.269-2.609 7.184-4.574 10.536-3.807 5.86-4.094 5.573.182-2.386 1.042-4.664c1.277-3.383 1.156-5.429-.657-11.158-1.221-3.859-3.745-8.653-5.609-10.654s-4.23-3.638-5.258-3.638-3.053 2.676-4.499 5.947c-1.619 3.66-4 6.57-6.191 7.569-3.095 1.41-5.151 1.065-15.728-2.639-6.692-2.344-12.919-4.261-13.836-4.261s-8.907 6.191-17.755 13.757-19.041 16.794-22.652 20.506-7.503 6.749-8.649 6.749-5.038-3.037-8.649-6.749z" fill="#6b3a21"/><path d="M188.029 452.793c-4.94-1.161-9.749-2.734-10.686-3.495s-13.313-7.469-27.502-14.907-34.431-18.589-44.982-24.78-24.839-14.963-31.752-19.491-16.736-10.686-21.83-13.684-12.279-8.596-15.968-12.442c-3.796-3.957-10.767-14.168-16.062-23.529-5.145-9.096-10.287-19.812-11.426-23.814-1.471-5.166-2.442-18.02-3.348-44.32-.702-20.374-1.116-44.783-.919-54.243l1.42-42.997c.716-17.395 1.751-27.939 3.176-32.369 1.79-5.562 2.778-6.76 6.439-7.806 2.774-.792 4.522-2.231 4.876-4.013.303-1.528.87-5.56 1.259-8.96s2.565-9.651 4.836-13.891 6.279-9.942 8.907-12.671 5.254-4.961 5.834-4.961 1.054 2.924 1.054 6.497-1.183 10.271-2.629 14.884-2.637 10.607-2.646 13.321.918 7.272 2.062 10.13c1.913 4.78 1.896 5.707-.211 11.603-2.072 5.798-2.27 13.074-2.085 76.526.113 38.565.743 74.402 1.4 79.637.868 6.907 2.543 12.013 6.108 18.613 2.702 5.002 6.919 11.86 9.371 15.239 2.754 3.796 9.065 9.241 16.513 14.249 6.63 4.458 23.161 14.215 36.736 21.683s32.639 18.467 42.364 24.444 24.311 14.251 32.413 18.388l14.732 7.521h19.222 19.222l14.938-7.659c8.216-4.213 23.975-13.197 35.021-19.965s28.715-16.948 39.266-22.622 25.094-13.955 32.318-18.402 15.261-10.185 17.86-12.751 7.882-10.396 11.739-17.399l7.013-12.734 1.13-18.983c.622-10.441 1.185-43.095 1.252-72.565.069-30.52-.49-58.897-1.3-65.93l-1.421-12.349 3.74-5.379c2.057-2.958 5.705-9.245 8.105-13.972l4.365-8.593 5.697 9.783c3.133 5.381 6.624 12.76 7.757 16.398 1.32 4.238 2.458 15.648 3.168 31.752.609 13.825 1.108 39.723 1.108 57.55s-.497 43.725-1.104 57.55c-.71 16.157-1.842 27.5-3.169 31.752-1.136 3.638-4.445 10.782-7.354 15.876l-9.821 17.199c-2.492 4.366-6.723 10.212-9.402 12.991s-9.931 8.095-16.116 11.814-15.413 9.541-20.506 12.939a588.5 588.5 0 0 1-19.183 12.147c-5.457 3.283-18.417 10.814-28.799 16.737s-19.271 10.768-19.753 10.768-10.145 5.007-21.475 11.128-23.274 11.838-26.543 12.706-14.833 1.665-25.696 1.771c-14.043.137-22.348-.417-28.734-1.918z" fill="#693312"/><path d="M189.801 453.223c-4.07-.925-13.684-5.171-21.365-9.436l-23.226-12.605c-5.094-2.668-11.542-6.231-14.33-7.918l-5.069-3.068 13.007-2.258 22.712-4.007 9.705-1.749 12.278 5.816 12.278 5.816h18.736 18.736l16.17-8.405c8.893-4.623 24.207-13.353 34.03-19.4s20.837-12.611 24.475-14.585l21.248-11.527c8.048-4.365 20.252-11.412 27.119-15.66s14.392-9.531 16.722-11.74 7.242-9.311 10.917-15.783 7.399-14.211 8.276-17.199c1.154-3.934 1.611-25.327 1.654-77.536l-.948-80.816c-.926-8.014-.744-9.075 2.264-13.23 1.799-2.484 5.428-8.883 8.065-14.219l4.795-9.702 5.649 9.702c3.107 5.336 6.577 12.679 7.71 16.317 1.32 4.238 2.458 15.648 3.168 31.752.609 13.825 1.108 39.723 1.108 57.55s-.497 43.725-1.104 57.55c-.71 16.157-1.842 27.5-3.169 31.752-1.136 3.638-4.445 10.782-7.354 15.876l-9.821 17.199c-2.492 4.366-6.723 10.212-9.402 12.991s-9.931 8.095-16.116 11.814-15.413 9.541-20.506 12.939a588.5 588.5 0 0 1-19.183 12.147c-5.457 3.283-18.417 10.814-28.799 16.737s-19.271 10.768-19.753 10.768-10.145 5.007-21.475 11.128-23.274 11.838-26.543 12.706-14.79 1.665-25.601 1.771c-11.856.117-22.593-.474-27.057-1.488zM58.278 348.312c-3.426-1.357-11.165-5.553-17.199-9.325s-16.175-10.456-22.535-14.854c-9.533-6.591-11.67-8.706-12.166-12.039-.331-2.224-1.146-20.415-1.811-40.425l-1.2-42.336c.005-3.274.552-21.73 1.216-41.013l1.833-39.266c.528-3.547 1.547-4.558 6.501-6.45 3.231-1.234 6.151-3.211 6.49-4.393s1.032-6.912 1.541-12.733c.711-8.131 1.852-12.27 4.922-17.86 2.198-4.002 6.107-9.509 8.686-12.238s5.25-4.961 5.935-4.961c.742 0 .894 3.774.376 9.344-.478 5.139-1.796 11.539-2.929 14.222s-2.096 7.884-2.139 11.558.86 8.495 2.008 10.715c1.902 3.679 1.9 4.609-.025 10.519-1.795 5.512-2.132 15.309-2.251 65.357l.681 78.214c.716 16.868 1.246 20.251 4.15 26.46 1.831 3.916 5.969 11.165 9.195 16.109 3.504 5.37 8.454 10.83 12.295 13.561 3.536 2.514 5.58 4.51 4.543 4.436s-4.689-1.245-8.115-2.602z" fill="#51270e"/><path d="M195.294 452.589c.381-.91 1.692-4.879 2.914-8.82 1.411-4.553 1.96-9.378 1.504-13.23l-.718-6.063 16.766-.003 16.766-.003 13.135-6.524c7.224-3.588 22.406-12.136 33.736-18.994s30.425-17.851 42.431-24.427 27.872-15.75 35.257-20.386 15.488-10.71 18.007-13.498 6.597-8.857 9.063-13.488l4.484-8.419.941 8.484c.721 6.502.343 10.768-1.621 18.264-1.831 6.99-2.334 11.956-1.765 17.407.729 6.975.528 7.821-2.348 9.903-1.73 1.252-9.397 6.201-17.037 10.996l-33.995 20.862c-11.057 6.679-27.293 15.955-36.081 20.614l-31.494 16.86c-8.534 4.614-18.492 9.221-22.131 10.238-4.375 1.223-13.71 1.854-27.562 1.864-16.25.012-20.792-.355-20.255-1.638zM51.879 344.082c-6.153-3.104-17.14-9.648-24.417-14.541s-15.002-10.323-17.168-12.066l-3.938-3.169-1.121-28.099c-.617-15.455-.631-28.553-.031-29.107s2.517-1.44 4.261-1.969c2.846-.862 3.085-.641 2.335 2.167-.46 1.72-1.229 12.073-1.709 23.007-.804 18.293-.656 20.372 1.85 26.038 1.735 3.922 4.765 7.636 8.347 10.231 3.093 2.24 8.428 4.907 11.857 5.925s8.332 3.226 10.896 4.907 6.062 5.371 7.772 8.201 5.726 7.164 8.923 9.633 5.254 4.488 4.572 4.488-6.275-2.54-12.428-5.644z" fill="#3c1b03"/></g></svg>