<svg xmlns="http://www.w3.org/2000/svg" width="128" height="128" viewBox="0 0 33.867 33.867" fill-rule="evenodd" xmlns:v="https://vecta.io/nano"><path d="M6.201 2.347L.025 15.318a.251.251 0 0 0 .054.293l16.678 15.982a.254.254 0 0 0 .352 0l16.678-15.981a.251.251 0 0 0 .054-.293L27.666 2.348a.249.249 0 0 0-.227-.146H6.43a.249.249 0 0 0-.229.145z" fill="#50af95"/><path d="M19.076 16.65h0c-.12.009-.738.046-2.118.046-1.098 0-1.877-.033-2.15-.046h0c-4.242-.187-7.408-.925-7.408-1.809s3.166-1.621 7.408-1.811v2.885l2.169.067 2.095-.066v-2.884c4.233.189 7.392.927 7.392 1.809s-3.158 1.62-7.392 1.808h0zm0-3.916v-2.581h5.907V6.217H8.901v3.936h5.906v2.58c-4.8.221-8.41 1.171-8.41 2.311s3.61 2.089 8.41 2.311v8.272h4.269v-8.275c4.789-.221 8.393-1.17 8.393-2.309s-3.601-2.088-8.393-2.31h0zm0 0z" fill="#fff"/></svg>