<svg xmlns="http://www.w3.org/2000/svg" xmlns:xlink="http://www.w3.org/1999/xlink" width="128" height="128" xmlns:v="https://vecta.io/nano"><defs><linearGradient id="A" x1="20.95" x2="73.17" y1="68.26" y2="68.26" xlink:href="#AX"><stop offset="0" stop-color="#600000"/><stop offset=".33" stop-color="#630000"/><stop offset=".59" stop-color="#6d0000"/><stop offset=".83" stop-color="#7e0000"/><stop offset="1" stop-color="#8f0000"/></linearGradient><linearGradient id="B" x1="47.06" x2="47.06" y1="63.55" y2="72.98" xlink:href="#AX"><stop offset=".35" stop-color="#bf1010"/><stop offset=".65" stop-color="#bd1010"/><stop offset=".75" stop-color="#b60f0f"/><stop offset=".83" stop-color="#ab0d0d"/><stop offset=".89" stop-color="#9a0a0a"/><stop offset=".94" stop-color="#840606"/><stop offset=".99" stop-color="#690202"/><stop offset="1" stop-color="#600000"/></linearGradient><linearGradient id="C" x1="20.95" x2="79.1" y1="58.17" y2="58.17" xlink:href="#AX"><stop offset=".38" stop-opacity=".06"/><stop offset="1" stop-opacity="0"/></linearGradient><linearGradient id="D" x1="20.95" x2="78.71" y1="58.03" y2="58.03" xlink:href="#AX"><stop offset=".38" stop-opacity=".13"/><stop offset="1" stop-opacity="0"/></linearGradient><linearGradient id="E" x1="20.95" x2="78.31" y1="57.88" y2="57.88" xlink:href="#AX"><stop offset=".38" stop-opacity=".19"/><stop offset="1" stop-opacity="0"/></linearGradient><linearGradient id="F" x1="20.95" x2="77.92" y1="57.74" y2="57.74" xlink:href="#AX"><stop offset=".38" stop-opacity=".25"/><stop offset="1" stop-opacity="0"/></linearGradient><linearGradient id="G" x1="20.95" x2="77.52" y1="57.59" y2="57.59" xlink:href="#AX"><stop offset=".38" stop-opacity=".31"/><stop offset="1" stop-opacity="0"/></linearGradient><linearGradient id="H" x1="20.95" x2="77.13" y1="57.45" y2="57.45" xlink:href="#AX"><stop offset=".38" stop-opacity=".38"/><stop offset="1" stop-opacity="0"/></linearGradient><linearGradient id="I" x1="20.95" x2="76.73" y1="57.3" y2="57.3" xlink:href="#AX"><stop offset=".38" stop-opacity=".44"/><stop offset="1" stop-opacity="0"/></linearGradient><linearGradient id="J" x1="20.95" x2="76.34" y1="57.16" y2="57.16" xlink:href="#AX"><stop offset=".38" stop-opacity=".5"/><stop offset="1" stop-opacity="0"/></linearGradient><linearGradient id="K" x1="20.95" x2="75.94" y1="57.02" y2="57.02" xlink:href="#AX"><stop offset=".38" stop-opacity=".56"/><stop offset="1" stop-opacity="0"/></linearGradient><linearGradient id="L" x1="20.95" x2="75.55" y1="56.87" y2="56.87" xlink:href="#AX"><stop offset=".38" stop-opacity=".63"/><stop offset="1" stop-opacity="0"/></linearGradient><linearGradient id="M" x1="20.95" x2="75.15" y1="56.73" y2="56.73" xlink:href="#AX"><stop offset=".38" stop-opacity=".69"/><stop offset="1" stop-opacity="0"/></linearGradient><linearGradient id="N" x1="20.95" x2="74.75" y1="56.59" y2="56.59" xlink:href="#AX"><stop offset=".38" stop-opacity=".75"/><stop offset="1" stop-opacity="0"/></linearGradient><linearGradient id="O" x1="20.95" x2="74.36" y1="56.45" y2="56.45" xlink:href="#AX"><stop offset=".38" stop-opacity=".81"/><stop offset="1" stop-opacity="0"/></linearGradient><linearGradient id="P" x1="20.95" x2="73.96" y1="56.31" y2="56.31" xlink:href="#AX"><stop offset=".38" stop-opacity=".88"/><stop offset="1" stop-opacity="0"/></linearGradient><linearGradient id="Q" x1="20.95" x2="73.57" y1="56.18" y2="56.18" xlink:href="#AX"><stop offset=".38" stop-opacity=".94"/><stop offset="1" stop-opacity="0"/></linearGradient><linearGradient id="R" x1="20.95" x2="73.17" y1="56.05" y2="56.05" xlink:href="#AX"><stop offset=".38"/><stop offset="1" stop-opacity="0"/></linearGradient><linearGradient id="S" x1="20.95" x2="73.17" y1="52.41" y2="52.41" xlink:href="#AX"><stop offset="0" stop-color="#bf1010"/><stop offset=".02" stop-color="#c11212"/><stop offset=".24" stop-color="#d22323"/><stop offset=".49" stop-color="#dc2d2d"/><stop offset=".79" stop-color="#df3030"/><stop offset=".84" stop-color="#dc2e2e"/><stop offset=".88" stop-color="#d22626"/><stop offset=".92" stop-color="#c11919"/><stop offset=".95" stop-color="#a90808"/><stop offset=".97" stop-color="#9f0000"/><stop offset="1" stop-color="#df3030"/></linearGradient><linearGradient id="T" x1="20.95" x2="73.17" y1="47.07" y2="47.07" xlink:href="#AX"><stop offset="0" stop-color="#dfdfdf"/><stop offset=".02" stop-color="#e1e1e1"/><stop offset=".24" stop-color="#f2f2f2"/><stop offset=".49" stop-color="#fcfcfc"/><stop offset=".79" stop-color="#fff"/><stop offset=".84" stop-color="#fcfcfc"/><stop offset=".88" stop-color="#f2f2f2"/><stop offset=".92" stop-color="#e1e1e1"/><stop offset=".95" stop-color="#c9c9c9"/><stop offset=".97" stop-color="#bfbfbf"/><stop offset="1" stop-color="#fff"/></linearGradient><linearGradient xlink:href="#T" id="U" y1="60.46" y2="60.46"/><linearGradient xlink:href="#T" id="V" y1="65.81" y2="65.81"/><linearGradient id="W" x1="20.95" x2="73.17" y1="46.21" y2="46.21" xlink:href="#AX"><stop offset="0" stop-color="#00209f"/><stop offset=".02" stop-color="#0222a1"/><stop offset=".24" stop-color="#1333b2"/><stop offset=".49" stop-color="#1d3dbc"/><stop offset=".79" stop-color="#2040bf"/><stop offset=".84" stop-color="#1e3dbc"/><stop offset=".88" stop-color="#1933b2"/><stop offset=".92" stop-color="#1122a1"/><stop offset=".95" stop-color="#050a89"/><stop offset=".97" stop-color="#00007f"/><stop offset="1" stop-color="#2040bf"/></linearGradient><linearGradient xlink:href="#T" id="X" y1="39.6" y2="39.6"/><linearGradient xlink:href="#T" id="Y" y1="48.85" y2="48.85"/><linearGradient xlink:href="#T" id="Z" y1="52.58" y2="52.58"/><linearGradient xlink:href="#T" id="a" y1="47.08" y2="47.08"/><linearGradient xlink:href="#T" id="b" y1="50.81" y2="50.81"/><linearGradient xlink:href="#T" id="c" y1="43.34" y2="43.34"/><linearGradient xlink:href="#T" id="d" x2="73.18" y1="52.28" y2="52.28"/><linearGradient xlink:href="#T" id="e" y1="45.11" y2="45.11"/><linearGradient xlink:href="#T" id="f" y1="50.58" y2="50.58"/><linearGradient xlink:href="#T" id="g" y1="54.32" y2="54.32"/><linearGradient xlink:href="#T" id="h" y1="41.37" y2="41.37"/><linearGradient xlink:href="#T" id="i" y1="46.84" y2="46.84"/><linearGradient xlink:href="#T" id="j" y1="54.55" y2="54.55"/><linearGradient xlink:href="#T" id="k" x2="73.18" y1="47.19" y2="47.19"/><linearGradient xlink:href="#T" id="l" x2="73.16" y1="54.67" y2="54.67"/><linearGradient xlink:href="#T" id="m" y1="43.11" y2="43.11"/><linearGradient xlink:href="#T" id="n" y1="39.37" y2="39.37"/><linearGradient xlink:href="#T" id="o" y1="50.93" y2="50.93"/><linearGradient xlink:href="#T" id="p" y1="41.54" y2="41.54"/><linearGradient xlink:href="#T" id="q" y1="45.28" y2="45.28"/><linearGradient xlink:href="#T" id="r" y1="52.75" y2="52.75"/><linearGradient xlink:href="#T" id="s" y1="49.02" y2="49.02"/><linearGradient xlink:href="#T" id="t" x2="73.18" y1="39.71" y2="39.71"/><linearGradient xlink:href="#T" id="u" x2="73.18" y1="48.54" y2="48.54"/><linearGradient xlink:href="#T" id="v" x1="20.96" y1="47.6" y2="47.6"/><linearGradient xlink:href="#T" id="w" x1="20.96" y1="51.34" y2="51.34"/><linearGradient xlink:href="#T" id="x" x2="73.18" y1="42.26" y2="42.26"/><linearGradient xlink:href="#T" id="y" x1="20.96" y1="40.12" y2="40.12"/><linearGradient xlink:href="#T" id="z" x2="73.18" y1="38.53" y2="38.53"/><linearGradient xlink:href="#T" id="AA" y1="45.44" y2="45.44"/><linearGradient xlink:href="#T" id="AB" y1="41.7" y2="41.7"/><linearGradient xlink:href="#T" id="AC" y1="52.92" y2="52.92"/><linearGradient xlink:href="#T" id="AD" y1="37.96" y2="37.96"/><linearGradient xlink:href="#T" id="AE" y1="49.18" y2="49.18"/><linearGradient xlink:href="#T" id="AF" x2="73.18" y1="46" y2="46"/><linearGradient xlink:href="#T" id="AG" x2="73.18" y1="41.07" y2="41.07"/><linearGradient xlink:href="#T" id="AH" y1="50.21" y2="50.21"/><linearGradient xlink:href="#T" id="AI" x2="73.18" y1="49.74" y2="49.74"/><linearGradient xlink:href="#T" id="AJ" y1="42.73" y2="42.73"/><linearGradient xlink:href="#T" id="AK" y1="53.95" y2="53.95"/><linearGradient xlink:href="#T" id="AL" x2="73.18" y1="41.06" y2="41.06"/><linearGradient xlink:href="#T" id="AM" x2="73.18" y1="38.99" y2="38.99"/><linearGradient xlink:href="#T" id="AN" y1="46.47" y2="46.47"/><linearGradient xlink:href="#T" id="AO" x2="73.18" y1="53.48" y2="53.48"/><linearGradient xlink:href="#T" id="AP" y1="51.86" y2="51.86"/><linearGradient xlink:href="#T" id="AQ" y1="40.64" y2="40.64"/><linearGradient xlink:href="#T" id="AR" y1="48.12" y2="48.12"/><linearGradient xlink:href="#T" id="AS" y1="44.38" y2="44.38"/><linearGradient xlink:href="#T" id="AT"/><path id="AU" d="M22.52 46.22l-.24.74h-.77l.62.45-.23.74.62-.46.62.45-.23-.74.62-.47h-.77l-.24-.71z"/><path id="AV" d="M42.56 46.59l-.24.77-.77.1.63.38-.24.77.62-.54.63.38-.24-.71.62-.54-.77.1-.24-.71z"/><path id="AW" d="M33.66 40.07l-.24.76-.77.06.62.41-.24.76.63-.51.62.4-.24-.72.63-.51-.78.07z"/><linearGradient id="AX" gradientUnits="userSpaceOnUse"/></defs><g transform="matrix(1.662086 0 0 1.662086 -7.941266 -10.627329)"><path fill="url(#A)" d="M21 70.69A2.13 2.13 0 0 0 22.89 73c25.58.18 50.28-1 50.28-4.83 0-11.66-52.17 2.52-52.17 2.52z"/><path fill="url(#B)" d="M21 70.69A2.13 2.13 0 0 0 22.9 73c25.58.2 50.24-.61 50.27-4.83 0-11.66-52.17 2.52-52.17 2.52zm1.9 2.11h-.2a2 2 0 0 1-1.7-1.48 2 2 0 0 0 1.86 1.47c25.56-.16 49.87-8 49.87-4.56S48.46 73 22.9 72.8z"/><g opacity=".3"><path fill="url(#C)" d="M22.91 38.12a1.83 1.83 0 0 0-2 1.66v30.91a2.13 2.13 0 0 0 2 2.26c28.53.17 56.21 8.16 56.19 4.14V42.71c.02-4.1-27.66-4.57-56.19-4.59z" opacity=".06"/><path fill="url(#D)" d="M22.9 38.12a1.82 1.82 0 0 0-1.9 1.66v30.91a2.14 2.14 0 0 0 2 2.26c28.33.16 55.81 7.76 55.8 3.88v-34c-.08-3.93-27.56-4.67-55.9-4.71z" opacity=".13"/><path fill="url(#E)" d="M22.9 38.12a1.83 1.83 0 0 0-1.9 1.66v30.91a2.14 2.14 0 0 0 2 2.26c28.13.15 55.42 7.36 55.4 3.61V43.04c-.07-3.84-27.4-4.87-55.5-4.92z" opacity=".19"/><path fill="url(#F)" d="M22.9 38.12a1.83 1.83 0 0 0-1.9 1.66v30.91a2.14 2.14 0 0 0 2 2.26c27.93.15 55 7 55 3.34V43.2c-.07-3.71-27.16-5.01-55.1-5.08z" opacity=".25"/><path fill="url(#G)" d="M22.9 38.12a1.83 1.83 0 0 0-1.9 1.66v30.91a2.12 2.12 0 0 0 2 2.25c27.73.15 54.63 6.57 54.61 3.08V43.36c-.07-3.58-26.96-5.16-54.71-5.24z" opacity=".31"/><path fill="url(#H)" d="M22.9 38.12a1.84 1.84 0 0 0-1.9 1.66v30.91a2.12 2.12 0 0 0 2 2.25c27.53.14 54.23 6.17 54.22 2.81V43.52c-.08-3.44-26.77-5.31-54.32-5.4z" opacity=".38"/><path fill="url(#I)" d="M22.9 38.12a1.83 1.83 0 0 0-1.9 1.66v30.91a2.12 2.12 0 0 0 2 2.25c27.33.13 53.83 5.77 53.82 2.54v-31.8c-.08-3.31-26.57-5.51-53.92-5.56z" opacity=".44"/><path fill="url(#J)" d="M22.9 38.13a1.82 1.82 0 0 0-1.9 1.65v30.91a2.12 2.12 0 0 0 2 2.25c27.13.12 53.44 5.37 53.43 2.27V43.84c-.08-3.17-26.38-5.67-53.53-5.71z" opacity=".5"/><path fill="url(#K)" d="M22.9 38.13a1.82 1.82 0 0 0-1.9 1.65v30.91a2.12 2.12 0 0 0 2 2.25c26.93.11 53 5 53 2V44c0-3-26.15-5.82-53.1-5.87z" opacity=".56"/><path fill="url(#L)" d="M22.9 38.13a1.82 1.82 0 0 0-1.9 1.65v30.91a2.12 2.12 0 0 0 2 2.25c26.73.1 52.65 4.58 52.64 1.74V44.17c-.08-2.92-25.99-5.99-52.74-6.04z" opacity=".63"/><path fill="url(#M)" d="M22.9 38.13a1.81 1.81 0 0 0-1.9 1.65v30.91a2.12 2.12 0 0 0 2 2.25c26.53.09 52.25 4.18 52.24 1.47V44.33c-.08-2.78-25.79-6.14-52.34-6.2z" opacity=".69"/><path fill="url(#N)" d="M22.9 38.13a1.81 1.81 0 0 0-1.9 1.65v30.91a2.12 2.12 0 0 0 2 2.25c26.33.09 51.86 3.78 51.84 1.2V44.49c-.07-2.65-25.59-6.29-51.94-6.36z" opacity=".75"/><path fill="url(#O)" d="M22.9 38.13a1.82 1.82 0 0 0-1.9 1.65v30.91a2.12 2.12 0 0 0 2 2.25c26.13.08 51.46 3.38 51.45.93V44.65c-.08-2.52-25.39-6.45-51.55-6.52z" opacity=".81"/><path fill="url(#P)" d="M22.9 38.13a1.82 1.82 0 0 0-1.9 1.65v30.91a2.12 2.12 0 0 0 2 2.25c25.84.06 51 2.98 51 .66V44.82c0-2.39-25.14-6.61-51.1-6.69z" opacity=".88"/><path fill="url(#Q)" d="M22.9 38.13a1.82 1.82 0 0 0-1.9 1.65v30.91a2.12 2.12 0 0 0 2 2.25c25.73.06 50.67 2.58 50.66.39V44.98c-.08-2.26-25-6.77-50.76-6.85z" opacity=".94"/><path fill="url(#R)" d="M22.9 38.13a1.82 1.82 0 0 0-1.9 1.65v30.91a2.12 2.12 0 0 0 2 2.25c25.53.1 50.28 2.18 50.26.13V45.14c-.07-2.14-24.8-6.78-50.36-7.01z"/></g><path fill="#0e3ca5" d="M33.66 55.69c1.67 6.17 7.65 10.88 10.67 10.68.1 0 11.45-2.12 17.66-12.5 4.84-8.08 3.19-15.88-3.39-16C56.24 38 30.48 44 33.66 55.69M58 16.09a28.84 28.84 0 0 0-30.42-4.39 17.27 17.27 0 0 0-1.83.9c-.4.21-.81.43-1.2.66h.09a13.45 13.45 0 0 0-3 2.88c-8.28 11 19.48 18.9 34.32 18.92C62.75 40 64.66 21.28 58 16.09z"/><path fill="#5493f7" d="M29.25 16.31c-3.81 5.73-16.51 9.77-18.6 9.14l.27-.52a30.71 30.71 0 0 1 2.47-4 30.28 30.28 0 0 1 3-3.55 31.16 31.16 0 0 1 3.54-3c.78-.57 1.6-1.11 2.43-1.6a9 9 0 0 1 4.2-1.12c5.66.11 2.7 4.65 2.67 4.69m-3.1 40.47c.27 1.8 0 8.92-.38 9.52-.32 0-1 .06-2.89-1a29.48 29.48 0 0 1-2.86-1.9 30.54 30.54 0 0 1-6.58-6.59 30.71 30.71 0 0 1-2.47-4 29.52 29.52 0 0 1-1.9-4.35 30.18 30.18 0 0 1-1.15-4.68 30.58 30.58 0 0 1 0-9.82 30.18 30.18 0 0 1 1.15-4.68c.1-.31.21-.61.32-.91 2.19 2.92 4.73 5.56 6.89 8.5s4.88 7.38 5.45 8.36c3.57 6.06 4.14 9.8 4.42 11.6m42.2-17.98a30.28 30.28 0 0 1-2.12 11.17c-3.58 3.85-27.73-5.63-28-5.73-3.27-1.45-13.33-5.85-14.21-12.77-1.3-10 18.89-16.89 27.77-17.16 1.06 0 4.3 0 6.19 1.59a30.35 30.35 0 0 1 10.4 22.9M52 65.87c-2.63 1.23-5.53.33-4.78-2.23 1.45-4.93 14.07-10 16.86-10.25.34 0 .49.2.34.47A30.75 30.75 0 0 1 52 65.87"/><path fill="url(#S)" d="M22.9 37.83a2 2 0 0 0-1.95 2v30.86a2 2 0 0 0 1.94 2c25.58-.24 50.31-8.69 50.28-4.57V33.31c.03-4.14-24.69 4.33-50.27 4.52z"/><path fill="url(#AT)" d="M26.68 59.16l2.68-.12 2.58-.17 2.48-.21 2.42-.23 2.35-.25 2.31-.27 2.27-.29 2.23-.31 2.25-.31 2.26-.35 2.26-.37 2.29-.39 2.35-.41 2.4-.42 2.47-.43 2.57-.41 2.75-.38a19.19 19.19 0 0 1 3.56-.19c1.12.07 2 .36 2 1.14v-2.71c0-.77-.85-1-1.89-1.13a17.79 17.79 0 0 0-3.34.14l-2.57.35-2.3.36-2.23.37-2.2.39-2.22.44-2.31.4-2.42.4-2.6.41-2.82.43v-2.72l2.82-.44 2.6-.41 2.42-.4 2.31-.4 2.23-.39 2.2-.38 2.23-.38 2.3-.36 2.57-.35a17.79 17.79 0 0 1 3.34-.14c1 .09 1.89.36 1.89 1.13v-2.67c0-.77-.85-1-1.89-1.14a18.68 18.68 0 0 0-3.34.14l-2.57.35-2.3.36-2.23.38-2.2.39-2.23.38-2.31.41-2.42.4-2.6.42-2.82.43v-2.69l2.82-.43 2.6-.41 2.42-.41 2.31-.4 2.23-.38 2.2-.39 2.23-.38 2.3-.36 2.57-.35a19.66 19.66 0 0 1 3.34-.14c1 .09 1.89.37 1.89 1.14v-2.68c0-.77-.85-1-1.89-1.13a17.79 17.79 0 0 0-3.34.14l-2.57.35-2.3.36-2.23.37-2.2.39-2.23.39-2.31.39-2.42.37-2.6.41-2.82.43V41.2l2.82-.43 2.61-.41 2.41-.41 2.31-.39 2.23-.39 2.2-.39 2.23-.37 2.3-.36 2.57-.35a17.79 17.79 0 0 1 3.34-.14c1 .08 1.89.36 1.89 1.13V36c0-.77-.85-1-1.89-1.13a17.79 17.79 0 0 0-3.34.14l-2.57.35-2.3.36-2.23.38-2.2.38-2.23.39-2.31.4-2.41.4-2.61.41-2.82.44v-2.71a170.19 170.19 0 0 1-23.36 2 2 2 0 0 0-1.95 2v19.5h2.93c.93 0 1.88-.11 2.8-.15z"/><path fill="url(#U)" d="M26.67 64.52l2.69-.12 2.58-.17 2.48-.23 2.42-.23 2.35-.25 2.31-.27 2.27-.25 2.23-.34 2.23-.34L50.5 62l2.27-.36 2.29-.4 2.35-.4 2.4-.42 2.47-.42 2.57-.41 2.75-.39a21.08 21.08 0 0 1 3.56-.2c1.12.08 2 .36 2 1.15v-2.71c0-.78-.89-1.07-2-1.15a21.08 21.08 0 0 0-3.56.19l-2.75.39-2.57.41-2.47.43-2.4.42-2.35.4-2.29.4-2.27.36-2.25.36L46 60l-2.25.31-2.27.29-2.31.27-2.35.25-2.42.23-2.48.21-2.58.17-2.69.12-2.79.09L21 62v2.68h2.93z"/><path fill="url(#V)" d="M71.16 61.65a21.08 21.08 0 0 0-3.56.19l-2.75.39-2.56.41-2.48.43-2.4.42-2.35.4-2.29.39-2.27.37-2.25.35-2.25.34-2.25.32-2.25.34-2.31.27-2.35.25-2.42.23-2.48.21-2.58.16-2.69.13-2.79.08h-2.93V70h2.93l2.79-.09c.91-.09 1.81-.07 2.69-.12l2.58-.17 2.48-.2 2.42-.23 2.35-.25 2.31-.28 2.27-.29L46 68l2.23-.34 2.25-.35 2.29-.31 2.29-.39 2.35-.4 2.4-.42 2.48-.43 2.56-.41 2.75-.39a21.08 21.08 0 0 1 3.56-.19c1.12.07 2 .36 2 1.14v-2.72c.01-.79-.88-1.06-2-1.14z"/><path fill="url(#W)" d="M26.5 56.49l2.5-.11 2.35-.14 2.29-.18 2.29-.21 2.35-.24 2.46-.28 2.63-.33 2.89-.41V35.81a170.19 170.19 0 0 1-23.36 2 2 2 0 0 0-1.95 2V56.6h2.9z"/><path fill="url(#X)" d="M27 38.62l-.24.75h-.77l.62.43-.24.75.63-.45.62.43-.24-.73.62-.48h-.77z"/><path fill="url(#Y)" d="M29.2 47.86l-.24.75h-.77l.63.43-.24.75.62-.49.63.42-.24-.72.62-.5-.77.05-.24-.69z"/><path fill="url(#Z)" d="M29.44 52.32l-.24-.72-.24.75h-.77l.63.43-.24.75.62-.49.63.42-.24-.72.62-.5z"/><path fill="url(#a)" d="M27 46.09l-.24.75h-.77l.62.44-.24.75.63-.48.62.43-.24-.73.62-.49h-.77c-.11-.23-.16-.37-.23-.67z"/><path fill="url(#b)" d="M27 49.83l-.24.75h-.77l.62.44-.24.75.63-.49.62.44-.24-.73.62-.49h-.77z"/><path fill="url(#c)" d="M27 42.36l-.24.75h-.77l.62.44-.24.75.63-.48.62.43-.24-.73.62-.49h-.77z"/><path fill="url(#d)" d="M33.66 51.28l-.24.76-.77.07.62.4-.24.76.63-.51.62.41-.24-.72.63-.52-.78.07z"/><path fill="url(#e)" d="M29.2 44.12l-.24.76h-.77l.63.43-.24.76.62-.5.63.43-.24-.73.62-.5-.77.05z"/><path fill="url(#f)" d="M31.43 49.59l-.24.76h-.77l.63.42-.24.75.62-.5.63.41-.24-.72.62-.51-.77.06-.24-.67z"/><path fill="url(#g)" d="M31.67 54.05l-.24-.72-.24.75-.77.06.63.41-.24.76.62-.5.63.41-.24-.72.62-.51z"/><path fill="url(#h)" d="M29.2 40.38l-.24.76h-.77l.63.42-.24.76.62-.49.63.42-.24-.73.62-.49h-.77a7.28 7.28 0 0 1-.24-.65z"/><path fill="url(#i)" d="M31.43 45.85l-.24.76h-.77l.63.42-.24.75.62-.5.63.42-.24-.73.62-.5-.77.06c-.1-.24-.14-.39-.24-.68z"/><path fill="url(#j)" d="M27.21 54.3l-.21-.73-.24.75h-.77l.62.43-.24.75.63-.48.62.44-.24-.74.62-.48z"/><use xlink:href="#AU" fill="url(#k)"/><use xlink:href="#AU" y="-3.74" fill="url(#k)"/><path fill="url(#l)" d="M22.76 54.43l-.24-.74-.24.74h-.77l.62.45-.23.75.62-.47.62.45-.23-.74.62-.46z"/><path fill="url(#m)" d="M30.81 44.1l.62-.5.63.41-.24-.73.62-.5-.77.06-.24-.73-.24.76-.77.05.63.42c-.05.3-.15.45-.24.76z"/><path fill="url(#n)" d="M30.81 40.36l.62-.5.63.41-.24-.72.62-.51-.77.06-.24-.72-.24.75h-.77l.63.42c-.05.35-.15.51-.24.81z"/><path fill="url(#o)" d="M22.52 50l-.24.75h-.77l.62.46-.23.74.62-.46.62.44-.23-.73.62-.47h-.77l-.24-.73z"/><path fill="url(#p)" d="M24.75 40.56l-.24.75h-.77l.62.44-.23.75.62-.47.63.44-.24-.74.62-.48h-.77z"/><path fill="url(#q)" d="M24.75 44.3l-.24.75h-.77l.62.44-.23.75.62-.48.63.44-.24-.73.62-.48L25 45z"/><path fill="url(#r)" d="M25 52.51l-.24-.73-.24.74h-.77l.62.45-.24.74.63-.47.62.44-.23-.74.62-.47z"/><path fill="url(#s)" d="M24.75 48l-.24.75h-.77l.62.45-.23.75.62-.48.62.44-.23-.73.62-.48h-.77c-.1-.22-.14-.37-.24-.7z"/><path fill="url(#t)" d="M22.52 38.74l-.24.74h-.77l.62.45-.23.75.62-.47.63.45-.24-.74.62-.47h-.77z"/><path fill="url(#u)" d="M33.66 47.55l-.24.76-.77.06.62.41-.24.76.63-.51.62.4-.24-.72.63-.52-.78.07z"/><use xlink:href="#AV" fill="url(#v)"/><use xlink:href="#AV" y="-3.74" fill="url(#v)"/><path fill="url(#w)" d="M42.8 51l-.24-.71-.24.77-.77.1.63.38-.24.77.62-.54.63.38-.24-.71.62-.54z"/><path fill="url(#x)" d="M40.33 41.26l-.23.74-.77.09.62.38-.24.77.62-.53.63.38-.24-.71.62-.53-.77.09-.24-.68z"/><path fill="url(#y)" d="M42.56 39.11l-.24.78-.77.09.63.38-.24.77.62-.53.63.38-.24-.72.62-.54c-.3 0-.46.07-.77.1l-.24-.71z"/><path fill="url(#z)" d="M40.33 37.52l-.23.77-.77.09.62.38-.24.77.62-.53.63.39-.24-.72.62-.53-.77.09-.24-.71z"/><path fill="url(#AA)" d="M44.79 44.43l-.24.77-.77.1.63.38-.24.77.62-.54.62.37-.23-.71.62-.57-.77.11-.24-.68z"/><path fill="url(#AB)" d="M44.79 40.69l-.24.77-.77.11.63.37-.24.77.62-.54.63.37-.24-.71.62-.54-.8.11c-.06-.29-.11-.4-.21-.71z"/><path fill="url(#AC)" d="M45 52.61l-.24-.71-.24.78-.77.1.62.37-.23.78.62-.55.62.38-.24-.71.63-.55z"/><path fill="url(#AD)" d="M44.79 37l-.23.77-.78.11.63.37-.24.77.62-.54.63.37-.24-.71.62-.54-.77.11c-.09-.34-.14-.48-.24-.71z"/><path fill="url(#AE)" d="M44.79 48.16l-.24.78-.77.1.62.38-.23.77.62-.54.62.37-.23-.71.62-.55-.77.11-.24-.71z"/><path fill="url(#AF)" d="M40.33 45l-.23.77-.77.08.62.39-.24.77.62-.53.63.38-.24-.71.62-.53-.77.09-.24-.71z"/><use xlink:href="#AW" fill="url(#AG)"/><path fill="url(#AH)" d="M35.88 49.21l-.23.76-.78.07.63.4-.24.77.62-.52.63.4-.24-.72.62-.52-.77.08c-.12-.29-.12-.43-.24-.72z"/><path fill="url(#AI)" d="M40.33 48.73l-.23.77-.77.09.67.41-.24.77.62-.53.63.38-.24-.71.62-.54-.77.1c-.14-.31-.19-.47-.29-.74z"/><path fill="url(#AJ)" d="M35.88 41.73l-.23.77-.78.07.63.4-.24.76.62-.51.63.39-.24-.72.62-.51-.77.07c-.12-.29-.12-.45-.24-.72z"/><path fill="url(#AK)" d="M35.88 53l-.23.76-.78.07.63.4-.24.77.62-.52.63.4-.24-.72.62-.52-.77.07c-.12-.33-.12-.48-.24-.71z"/><use xlink:href="#AW" y="3.74" fill="url(#AL)"/><path fill="url(#AM)" d="M35.88 38l-.23.76-.78.07.63.4-.24.76.62-.51.63.39-.24-.71.63-.52-.78.07c-.12-.28-.12-.43-.24-.71z"/><path fill="url(#AN)" d="M35.88 45.47l-.23.76-.78.08.63.4-.24.76.62-.52.63.4-.24-.72.62-.52-.77.08c-.12-.29-.12-.43-.24-.72z"/><path fill="url(#AO)" d="M40.57 53.19l-.24-.72-.23.77-.77.09.62.39-.24.77.62-.54.63.39-.24-.71.62-.54z"/><path fill="url(#AP)" d="M38.35 51.57l-.24-.72-.24.77-.77.08.63.39-.24.77.62-.53.63.4-.24-.72.62-.53z"/><path fill="url(#AQ)" d="M38.11 39.64l-.24.77-.77.07.63.4-.24.77.62-.53.63.39-.24-.71.62-.53-.77.08-.24-.71z"/><path fill="url(#AR)" d="M38.11 47.12l-.24.76-.77.12.63.39-.24.77.62-.52.63.39-.24-.72.62-.52-.77.08-.24-.75z"/><path fill="url(#AS)" d="M38.11 43.38l-.24.76-.77.08.63.4-.24.76.62-.52.63.39-.24-.71.62-.53-.77.08-.24-.71z"/></g></svg>