<svg xmlns="http://www.w3.org/2000/svg" xmlns:xlink="http://www.w3.org/1999/xlink" width="128" height="128" viewBox="0 0 33.867 33.867" xmlns:v="https://vecta.io/nano"><defs><clipPath id="A"><use xlink:href="#E"/></clipPath><linearGradient id="B" gradientUnits="userSpaceOnUse" x1="8.644" y1=".494" x2="12.333" y2="13.161"><stop offset="0" stop-color="#03b8ff"/><stop offset="1" stop-color="#fa52a0"/></linearGradient><linearGradient id="C" gradientUnits="userSpaceOnUse" x1="11.682" y1="-.39" x2="15.371" y2="12.276"><stop offset="0" stop-color="#03b8ff"/><stop offset="1" stop-color="#fa52a0"/></linearGradient><linearGradient id="D" gradientUnits="userSpaceOnUse" x1="5.616" y1="1.376" x2="9.305" y2="14.042"><stop offset="0" stop-color="#03b8ff"/><stop offset="1" stop-color="#fa52a0"/></linearGradient><path id="E" d="M0 0h24v24H0z"/></defs><circle cx="16.933" cy="16.933" r="16.933" fill="#121e37" paint-order="fill markers stroke"/><g clip-path="url(#A)" transform="matrix(1.105168 0 0 1.105168 3.638475 3.630215)"><linearGradient gradientUnits="userSpaceOnUse" x1="8.644" y1=".494" x2="12.333" y2="13.161"><stop offset="0" stop-color="#03b8ff"/><stop offset="1" stop-color="#fa52a0"/></linearGradient><path d="M5 2.3L23.6 15 19 21.8.4 9z" fill="url(#B)"/><linearGradient gradientUnits="userSpaceOnUse" x1="11.682" y1="-.39" x2="15.371" y2="12.276"><stop offset="0" stop-color="#03b8ff"/><stop offset="1" stop-color="#fa52a0"/></linearGradient><path d="M23.6 15c-1.6 2.3-7 1.4-12.1-2.2C6.3 9.3 3.5 4.6 5 2.3 6.6 0 12 .9 17.1 4.5c5.2 3.4 8 8.2 6.5 10.5z" fill="url(#C)"/><linearGradient gradientUnits="userSpaceOnUse" x1="5.616" y1="1.376" x2="9.305" y2="14.042"><stop offset="0" stop-color="#03b8ff"/><stop offset="1" stop-color="#fa52a0"/></linearGradient><path d="M19 21.7c-1.6 2.3-7 1.4-12.1-2.2s-8-8.2-6.4-10.6c1.6-2.3 7-1.4 12.1 2.2s7.9 8.3 6.4 10.6z" fill="url(#D)"/><path d="M23.6 15L19 21.8h0c-1.6 2.3-7 1.3-12.1-2.2-1-.7-1.9-1.4-2.8-2.2.7-.1 1.6-.5 2.5-1.5 1.6-1.7 2.4-2.1 3.1-2 .7 0 1.5.7 2.8 2.4s3.1 2.2 4.2 1.3c.1-.1.2-.1.3-.2.9-.7 1.2-1 2.9-4.2.4-.8 1.8-2.1 3.7-1.5.5 1.3.5 2.4 0 3.3z" fill="#0e0f23"/><g fill="#fff"><path d="M22.9 14.6c-1.4 2-6.3 1-11-2.3C7.1 9 4.3 4.8 5.7 2.8s6.3-1 11 2.3 7.5 7.5 6.2 9.5zm-4.4-3c-.7 1-3.1.5-5.5-1.1-2.3-1.6-3.7-3.7-3-4.7s3.1-.5 5.5 1.1c2.3 1.6 3.7 3.7 3 4.7z" fill-rule="evenodd"/><path d="M4.6 4.6c0-.1-.1-.2-.2-.1s-.2.1-.2.2c.1.3.2.5.2.7 0 .1.1.2.2.1.1 0 .2-.1.1-.2 0-.2 0-.4-.1-.7zm.5 1.6c0-.1-.1-.2-.2-.1s-.1.1-.1.2c1.1 2.5 3.4 5.2 6.4 7.2.1.1.2 0 .3 0 .1-.1 0-.2 0-.3-3.1-2-5.3-4.6-6.4-7zM17.2 16c-.1 0-.2 0-.2.1s0 .2.1.2l1 .3c.1 0 .2 0 .2-.1s0-.2-.1-.2l-1-.3zm1.8.4c-.1 0-.2.1-.2.2s.1.2.2.2c.8.1 1.7.2 2.4.1.1 0 .2-.1.2-.2s-.1-.2-.2-.2c-.8.1-1.6 0-2.4-.1z"/></g></g></svg>