<svg xmlns="http://www.w3.org/2000/svg" width="128" height="128" viewBox="0 0 33.867 33.867" xmlns:v="https://vecta.io/nano"><circle cx="16.933" cy="16.933" r="16.933" fill="#fff" paint-order="stroke fill markers"/><path d="M16.534 28.878c-4.622-.279-8.69-3.226-10.407-7.541a12.05 12.05 0 0 1-.458-7.4c.735-2.854 2.532-5.364 5.005-6.992 2.529-1.665 5.582-2.313 8.549-1.815.682.114 1.039.2 1.675.401 1.797.569 3.465 1.583 4.812 2.926a11.85 11.85 0 0 1 3.02 5.006l.134.437.215-.012a11.07 11.07 0 0 0 2.268-.452c.203-.068.377-.116.387-.106s.017.669.017 1.465v1.447l-.207.077c-.486.182-1.325.381-1.999.476l-.295.041-.02.552a6.21 6.21 0 0 0-.007.565c.023.024.823-.103 1.236-.196.22-.05.583-.148.807-.218s.424-.128.446-.128c.029 0 .037.415.031 1.464l-.009 1.464-.309.103c-.729.243-1.751.447-2.448.488-.215.013-.405.041-.422.063s-.089.187-.16.368c-.646 1.629-1.663 3.111-2.972 4.329-2.396 2.231-5.611 3.383-8.885 3.186zm1.82-3.166c2.922-.372 5.495-2.171 6.826-4.773.113-.222.192-.415.175-.43-.049-.043-1.721-.461-2.324-.581-.3-.06-.763-.128-1.028-.151a8.81 8.81 0 0 0-3.513.531c-.06.024-.064-.06-.064-1.449 0-1.37.005-1.476.064-1.5.975-.397 2.424-.622 3.413-.531.756.07 1.19.161 3.142.658.567.144 1.041.252 1.054.239.024-.024.064-1.113.041-1.113a93.72 93.72 0 0 1-1.069-.274c-2.656-.689-3.33-.772-4.696-.582-.623.087-1.478.301-1.884.473-.06.025-.064-.057-.064-1.448v-1.475l.288-.11c.37-.141 1.082-.316 1.569-.385 1.262-.179 2.075-.094 4.136.435l.974.257c.033.013.06.012.06-.002s-.115-.252-.257-.53c-.448-.884-.946-1.569-1.653-2.275-1.473-1.473-3.353-2.357-5.46-2.568a11.46 11.46 0 0 0-2.149.056 9.03 9.03 0 0 0-4.152 1.779c-1.67 1.296-2.849 3.189-3.252 5.223-.125.633-.163 1.033-.164 1.736a8.34 8.34 0 0 0 .884 3.859 8.52 8.52 0 0 0 1.816 2.498c1.512 1.458 3.409 2.305 5.559 2.484.293.024 1.393-.008 1.729-.05z"/></svg>