<svg xmlns="http://www.w3.org/2000/svg" width="128" height="128" viewBox="0 0 33.867 33.867" xmlns:v="https://vecta.io/nano"><defs><linearGradient id="A" x1="16.933" y1="5.209" x2="16.933" y2="25.39" gradientUnits="userSpaceOnUse"><stop stop-color="#ffbf00"/><stop offset="1" stop-color="#e843c4"/></linearGradient><filter  x=".334" y=".208" width="37.333" height="33.682" filterUnits="userSpaceOnUse" color-interpolation-filters="sRGB"><feFlood flood-opacity="0"/><feBlend in="SourceGraphic"/><feGaussianBlur stdDeviation="2.667"/></filter></defs><g fill="#211426"><circle cx="16.933" cy="16.933" r="16.933" paint-order="fill markers stroke"/><path d="m 28.726384,16.646757 c 0,3.406924 -1.538086,6.464864 -3.972174,8.558224 L 19.095809,20.39568 h 5.496111 c 0.444505,0 0.811361,-0.348891 0.811361,-0.786686 0,-0.430992 -0.35978,-0.786688 -0.811361,-0.786688 H 9.2747325 c -0.4445085,0 -0.8113821,0.348894 -0.8113821,0.786688 0,0.43099 0.3597974,0.786686 0.8113821,0.786686 h 6.1733915 l -6.1098905,4.993998 c -2.5681737,-2.100162 -4.1979657,-5.24029 -4.1979657,-8.749723 0,-6.314274 5.2773952,-11.4314444 11.7895182,-11.4314444 6.512127,0.00683 11.796598,5.1239724 11.796598,11.4382464 z" stroke="url(#A)" stroke-width=".605" stroke-miterlimit="10"/></g></svg>