<svg xmlns="http://www.w3.org/2000/svg" width="128" height="128" viewBox="0 0 33.867 33.867" xmlns:v="https://vecta.io/nano"><circle cx="16.933" cy="16.933" r="16.933" fill="#fff" paint-order="stroke fill markers"/><g fill="#0669f8"><path d="M16.541 5.409h9.224a3.07 3.07 0 0 1 3.075 3.075h0a3.07 3.07 0 0 1-3.075 3.075h-9.224a3.07 3.07 0 0 1-3.075-3.075h0c.022-1.701 1.396-3.075 3.075-3.075zm-8.439 8.439h9.224a3.07 3.07 0 0 1 3.075 3.075h0a3.07 3.07 0 0 1-3.075 3.075H8.102a3.07 3.07 0 0 1-3.075-3.075h0a3.07 3.07 0 0 1 3.075-3.075z"/><circle cx="8.233" cy="8.353" r="3.206"/></g><g fill="#031625"><circle cx="25.634" cy="16.792" r="3.206"/><circle cx="25.634" cy="25.514" r="3.206"/><circle cx="16.933" cy="25.514" r="3.206"/></g><circle cx="8.233" cy="25.514" r="3.206" fill="#0669f8"/></svg>