<svg xmlns="http://www.w3.org/2000/svg" width="128" height="128" xmlns:v="https://vecta.io/nano"><path d="M64 0C28.654 0 0 28.654 0 64s28.654 64 64 64 64-28.654 64-64S99.346 0 64 0zm0 117.559c-29.581 0-53.559-23.98-53.559-53.559S34.422 10.441 64 10.441 117.559 34.422 117.559 64 93.58 117.559 64 117.559z" fill="#d98b31"/><path d="M64 10.446c-29.58 0-53.559 23.979-53.559 53.559S34.42 117.564 64 117.564s53.559-23.979 53.559-53.559S93.58 10.446 64 10.446zm20.255 84.783H68.877V65.964l-9.869 6.243v17.847l4.59 4.728-.342.426H47.765V37.945l-4.36-4.728.457-.426h15.146v29.087l9.869-5.891V37.945l-5.394-4.728.23-.426h16.41v57.263l4.475 4.728z" fill="#000"/><path fill="#d98b31" d="M80.123 32.771h-16.41l-.23.444 5.394 4.728v18.024l-9.866 5.891V32.771H43.865l-.457.444 4.357 4.728v57.287h15.491l.345-.444-4.59-4.728V72.21l9.869-6.243v29.262h15.373l.347-.444-4.475-4.728z"/></svg>