<svg xmlns="http://www.w3.org/2000/svg" width="128" height="128" viewBox="0 0 33.867 33.867" xmlns:v="https://vecta.io/nano"><circle cx="16.933" cy="16.933" r="16.933" fill="#00153e" paint-order="fill markers stroke"/><path fill-rule="evenodd" d="M30.576 20.718c-.05.112-.167.171-.259.131s-.127-.162-.077-.275.166-.17.259-.13.128.162.077.273zm-3.525 6.148c-.106.103-.259.116-.343.03s-.065-.237.042-.339.259-.116.343-.03.065.238-.042.339zm-.829-.321l-5.272 1.767c-.067-.071-.149-.127-.239-.165l-.248-3.486a.73.73 0 0 0 .292-.307h2.549a.73.73 0 0 0 .187.237c.078.065.17.113.268.141s.201.035.302.02a.73.73 0 0 0 .284-.103l1.889 1.865c-.005.01-.008.021-.012.03zm-5.516 3.575c-.041-.035-.087-.064-.135-.087l.126-.714a.67.67 0 0 0 .415-.462l4.182-1.402zm-.431.69c-.145.027-.281-.046-.303-.163s.078-.233.224-.26.282.046.303.163-.078.232-.224.259zm-.665-.511l-5.038-.339 5.253-.822c.079.087.178.153.289.193l-.119.676c-.171.056-.308.163-.385.293zm-4.925-5.556c.083-.018.163-.051.235-.097l4.691 3.948-6.636 1.038zm-2.199 4.554l-1.663-4.849c.02-.03.038-.061.053-.093h2.995a.73.73 0 0 0 .244.282zm.104.79c-.025.116-.162.185-.307.155s-.242-.15-.217-.267.162-.185.308-.155.241.15.216.266zm-5.715-4.225c.009-.048.011-.098.007-.147l2.806-1.185a.73.73 0 0 0 .243.17c.092.039.191.06.291.06a.76.76 0 0 0 .1-.01l1.589 4.636zm-.469-.765l-1.248-5.964 4.469 4.478a.71.71 0 0 0-.136.384L6.6 25.215a.83.83 0 0 0-.195-.119zm-.031.78c-.079.089-.233.082-.344-.015s-.136-.248-.057-.338.234-.082.345.015.136.248.057.337zm-2.369-5.561c.106-.141.156-.34.12-.55-.005-.026-.013-.05-.02-.075l.408-.841 1.03 4.922zm-.036-5.566l.214 2.834c-.07.105-.11.227-.116.353s.022.251.082.363l-.365.751zm-.265-3.401c.049-.138.18-.219.293-.18s.165.182.116.322-.18.219-.293.18-.165-.183-.116-.321zm1.117 6.613c0 .147-.108.266-.242.266s-.242-.119-.242-.266.108-.265.242-.265.242.119.242.265zm-.305-6.27c.017-.049.029-.1.036-.152l2.52-1.661-2.353 7.222-.385-5.121c.081-.081.143-.18.182-.288zm4.004-4.6l-.983 1.553a.78.78 0 0 0-.388.227c-.104.112-.172.252-.197.403l-1.65 1.087zm1.659-1.55a.79.79 0 0 0 .362-.023.75.75 0 0 0 .407-.287l4.322.929a.71.71 0 0 0 .144.336L13.997 9.42c-.112.022-.218.07-.309.14a.73.73 0 0 0-.212.264h-2.595c-.051-.106-.126-.198-.219-.269a.74.74 0 0 0-.319-.138c-.116-.02-.235-.012-.347.023s-.214.097-.297.179l-1.557-.464c.008-.103-.014-.206-.064-.297zm.076-.837c.141-.043.284.015.32.128s-.052.24-.194.283-.284-.015-.319-.128.052-.241.193-.283zm8.265-.979l-2.296 1.646a.72.72 0 0 0-.231-.04.73.73 0 0 0-.575.281l-3.423-.736zm.803.123a.82.82 0 0 0 .151.042c.217.037.423-.015.565-.123l3.541 1.959c-.006.015-.012.03-.015.047l-6.677-.18zm.012-.627c.02-.117.155-.191.301-.166s.247.14.226.257-.156.191-.302.166-.247-.14-.226-.257zm.492 13.316c0 .058-.016.114-.048.163s-.078.086-.131.108-.112.028-.169.017-.11-.039-.151-.079a.29.29 0 0 1-.065-.318c.022-.053.06-.099.108-.131s.105-.049.163-.049c.078 0 .152.03.207.085a.29.29 0 0 1 .086.206zm-.165-6.13c-.056 0-.111-.017-.158-.049s-.083-.076-.105-.128-.027-.109-.016-.164.039-.106.079-.145.091-.067.146-.078.113-.005.165.016.097.058.128.105.048.102.048.158c0 .037-.008.074-.022.109a.28.28 0 0 1-.062.092c-.027.026-.058.047-.093.062s-.072.021-.11.021zm-3.96-4.455a.29.29 0 0 1 .18-.27c.053-.022.112-.028.169-.017s.109.039.15.08a.29.29 0 0 1 .064.318c-.022.053-.06.099-.108.131s-.105.049-.163.049c-.038 0-.076-.007-.112-.022s-.068-.036-.095-.063-.049-.059-.063-.094-.022-.073-.022-.111zm.212.821c.026.004.053.007.08.008.111-.001.221-.027.32-.076l2.72 3.041a.71.71 0 0 0-.113.383.72.72 0 0 0 .125.404.73.73 0 0 0 .33.266v5.042a.71.71 0 0 0-.118.037l-4.484-5.391a.71.71 0 0 0-.203-.942zm-2.061 3.35a.29.29 0 0 1 .049-.162c.032-.048.078-.086.131-.108s.112-.028.169-.017.109.039.15.079.069.093.08.149a.29.29 0 0 1-.016.169c-.022.053-.06.099-.108.131s-.105.049-.163.049c-.038 0-.076-.007-.112-.022a.29.29 0 0 1-.095-.063c-.027-.027-.049-.059-.063-.094s-.022-.073-.022-.111zm-3.916 0c0-.057.016-.112.048-.159a.29.29 0 0 1 .129-.106c.052-.022.11-.028.166-.017s.107.038.147.078.068.091.079.146.006.113-.016.165-.058.097-.106.129-.103.048-.16.048a.29.29 0 0 1-.11-.021c-.035-.014-.066-.035-.093-.062a.28.28 0 0 1-.062-.092c-.015-.035-.022-.072-.022-.109zm.287 13.613a.29.29 0 0 1 .161.05c.048.032.085.077.107.13s.028.111.016.167-.039.108-.08.148a.29.29 0 0 1-.149.079c-.056.011-.115.005-.168-.017s-.099-.059-.131-.107a.29.29 0 0 1-.049-.161c0-.077.031-.151.086-.206s.129-.085.207-.085zM7.318 9.035c.098-.11.251-.136.34-.057s.084.231-.015.341-.25.135-.339.057-.083-.231.014-.341zm-2.154 8.556l2.544-7.812a.76.76 0 0 0 .165-.11l1.614.481c.004.139.047.274.126.389s.189.205.318.259V23.11l-4.76-4.771a.71.71 0 0 0-.009-.749zm14.936 5.719a.75.75 0 0 0-.175.023l-4.617-5.566c.029-.078.045-.16.046-.243a.73.73 0 0 0-.094-.365c-.063-.111-.154-.204-.264-.27a.74.74 0 0 0-.364-.103c-.128-.002-.255.03-.367.092a.73.73 0 0 0-.377.624.73.73 0 0 0 .352.638v5.228a.73.73 0 0 0-.398.418h-2.934a.73.73 0 0 0-.399-.418v-12.57a.73.73 0 0 0 .239-.163c.068-.07.121-.152.156-.243h2.554a.73.73 0 0 0 .269.337c.122.083.266.127.413.127a.75.75 0 0 0 .176-.024l4.539 5.456a.71.71 0 0 0-.051.26.73.73 0 0 0 .352.628c.108.066.232.102.358.106a.74.74 0 0 0 .364-.083.73.73 0 0 0 .391-.605.73.73 0 0 0-.075-.365c-.056-.113-.141-.21-.245-.281v-5.155c.177-.078.316-.222.386-.402h2.943c.035.09.088.173.156.243s.149.125.239.163v12.57c-.091.039-.174.096-.243.168a.73.73 0 0 0-.156.25h-2.488a.73.73 0 0 0-.268-.345c-.123-.085-.269-.131-.418-.131zm.327 5.182c.162 0 .293.116.293.258s-.131.258-.293.258-.293-.116-.293-.258.131-.258.293-.258zm-.612-4.465c0-.058.017-.114.048-.162a.29.29 0 0 1 .131-.108c.053-.022.112-.029.169-.017s.11.039.151.079a.29.29 0 0 1 .065.318c-.022.053-.06.099-.108.131s-.105.049-.163.049a.29.29 0 0 1-.112-.022c-.035-.015-.068-.036-.095-.063s-.049-.059-.064-.094-.022-.073-.022-.111zm-5.485-6.51a.29.29 0 0 1 .049-.162c.032-.048.078-.086.131-.108s.113-.028.17-.017a.29.29 0 0 1 .231.229.29.29 0 0 1-.016.169c-.022.053-.06.099-.108.131s-.105.049-.163.049c-.078 0-.152-.03-.207-.085s-.086-.129-.086-.206zm.197 6.219a.29.29 0 0 1 .268.18c.022.053.028.111.016.167s-.039.108-.08.148-.093.068-.149.079-.115.005-.168-.017a.29.29 0 0 1-.179-.268c0-.038.008-.076.022-.111s.037-.067.064-.094a.29.29 0 0 1 .095-.063c.035-.015.074-.022.112-.022zm.286-.369v-5.147a.72.72 0 0 0 .101-.033l4.552 5.488a.71.71 0 0 0-.1.36.72.72 0 0 0 .147.434.73.73 0 0 0 .38.259l.242 3.395a.8.8 0 0 0-.13.057l-4.76-4.007a.69.69 0 0 0 .014-.138.72.72 0 0 0-.122-.401.73.73 0 0 0-.324-.267zm9.099-16.817l-.253 2.92a.73.73 0 0 0-.361.352h-2.983a.73.73 0 0 0-.27-.305c-.117-.074-.253-.113-.392-.113-.05 0-.1.005-.149.015l-2.815-3.149a.66.66 0 0 0 .026-.115l6.968.187a.8.8 0 0 0 .229.208zm.054 3.283c.058 0 .114.018.161.05a.29.29 0 0 1 .107.13c.022.053.028.111.016.168a.29.29 0 0 1-.08.148c-.041.04-.093.068-.149.079s-.115.005-.168-.017-.098-.059-.13-.107-.049-.104-.049-.161c0-.038.008-.076.022-.111a.29.29 0 0 1 .064-.094c.027-.027.06-.048.095-.063a.29.29 0 0 1 .112-.022zm.13-4.106c.073-.124.245-.158.385-.077s.194.247.121.371-.246.158-.385.077-.194-.247-.121-.37zm5.179 6.823l-4.589-2.492a.72.72 0 0 0-.142-.363c-.08-.106-.187-.188-.31-.237l.243-2.793zm-3.034-5.128c-.025.215.091.457.316.614.115.081.25.129.391.138l1.691 2.934-3.475-4.387zm.503-.074c.068-.098.222-.108.343-.024s.164.231.095.328-.222.108-.343.024-.164-.231-.095-.328zM24.26 24.027a.29.29 0 0 1-.049.162c-.032.048-.078.086-.131.108s-.112.028-.169.017-.109-.039-.15-.08a.29.29 0 0 1-.064-.318c.022-.053.06-.099.108-.131s.105-.049.163-.049c.038 0 .076.007.112.022s.068.036.095.063.049.059.064.094.022.073.022.111zM3.476 20.149c-.118.02-.234-.08-.259-.225s.051-.278.168-.298.234.081.259.225-.05.278-.168.298zm26.421-7.33c.097-.03.204.04.24.158s-.014.237-.111.267-.204-.04-.24-.158.014-.237.11-.267zm.676 7.29c-.233-.099-.523.047-.65.326-.089.197-.07.406.029.548l-2.978 5.103a.65.65 0 0 0-.316.044l-1.979-1.953c.033-.164.009-.334-.07-.481a.72.72 0 0 0-.361-.327v-12.57c.124-.053.231-.138.309-.248l4.859 2.525.013.061c.089.293.357.47.598.395s.365-.374.276-.667c-.081-.267-.311-.436-.534-.406l-2.361-4.469c.182-.254.075-.622-.228-.831a.72.72 0 0 0-.607-.115l-1.609-1.05c-.026-.214-.161-.423-.379-.549a.77.77 0 0 0-.622-.072l-3.744-2.072c-.052-.223-.269-.415-.558-.465-.32-.055-.617.081-.721.312l-8.095 1.427c-.158-.113-.388-.151-.619-.081-.332.1-.539.384-.493.654l-5.63 5.72c-.249-.013-.505.175-.61.472-.087.247-.043.5.09.66l-.314 7.299c-.169.134-.259.384-.213.65.051.294.252.513.485.558l2.148 4.827c-.087.22-.007.509.221.709.183.161.413.22.606.179l5.215 3.649c-.013.266.215.522.547.592.228.048.448-.003.596-.119l6.747.456c.13.185.396.287.681.235.266-.049.47-.217.54-.419l5.741-3.335c.187.02.4-.053.567-.212.196-.189.271-.445.214-.653l2.944-5.265c.182-.017.364-.149.456-.355.126-.279.04-.586-.192-.686" fill="#3399c3"/></svg>