<svg xmlns="http://www.w3.org/2000/svg" width="128" height="128" viewBox="0 0 33.867 33.867" xmlns:v="https://vecta.io/nano"><circle cx="16.933" cy="16.933" r="16.933"/><path d="M5.292 26.723l-.005-.992a2.28 2.28 0 0 1 .336-.072 8.46 8.46 0 0 0 .981-.232l.265-.094c.425-.165.799-.441 1.086-.794.198-.248.369-.518.518-.799.21-.386.391-.788.557-1.196l.987-2.476 3.374-8.535 3.137-8.138.066-.165 1.136-.32.061.154 1.301 3.644 4.488 12.4 1.263 3.38c.165.458.364.91.59 1.34l.32.54c.353.551.899.943 1.533 1.108a8.2 8.2 0 0 0 1.037.204l.248.039c.033.11.017.215.017.32v.336c.006.11 0 .215-.006.325l-.094.017h-.116-8.606c-.011-.017-.017-.039-.022-.061v-.893c0-.011.006-.028.011-.039a1.42 1.42 0 0 1 .221-.044 8.85 8.85 0 0 0 1.064-.21c.138-.039.281-.088.414-.143.066-.028.132-.061.198-.099.347-.193.485-.496.452-.882-.017-.176-.044-.347-.094-.518-.072-.265-.165-.524-.254-.777L16.39 7.895c-.017-.055-.028-.116-.083-.165-.017.011-.044.022-.055.033a.26.26 0 0 0-.033.083l-2.702 7.421-1.985 5.497-.733 2.227a5.39 5.39 0 0 0-.204.871 2.19 2.19 0 0 0-.017.601.92.92 0 0 0 .38.651 1.7 1.7 0 0 0 .458.232 4.42 4.42 0 0 0 .794.204l.899.143c.022.006.039.006.066.011l.017.066v.866a.16.16 0 0 1-.011.05c-.028.006-.055.011-.083.011h-.116z" fill="#fff"/></svg>