<svg xmlns="http://www.w3.org/2000/svg" width="128" height="128" viewBox="0 0 33.867 33.867" xmlns:v="https://vecta.io/nano"><circle cx="16.933" cy="16.933" r="16.933" fill="#172852" paint-order="fill markers stroke"/><path d="M18.082 19.91c-5.183-2.335-8.404-7.004-8.605-11.747a.238.238 0 0 0-.397-.168A11.911 11.911 0 1 0 28.083 21.18a.238.238 0 0 0-.275-.317 14.969 14.969 0 0 1-9.726-.952z" fill="#f9d65d"/><path d="M28.625 14.788h0v-.075h0l-.238-1.013v-.042h0l-.149-.467v-.037h0l-.369-.962h0 0l-.21-.467h0 0l-.233-.467h0 0 0l-.257-.467h0 0l-.257-.402h0l-.028-.047h0l-.593-.808-.037-.047h0l-.341-.402h0l-.341-.374h0 0l-.322-.322h0l-.131-.093h0l-.341-.313-.042-.037h0l-.364-.303h0l-.033-.028h0l-.397-.303h0l-.416-.289h0l-.868-.528h0-.033l-.43-.224h0l-.061-.028h0l-.934-.402-.051-.023h0l-.5-.191h0l-.467-.145h-.047 0l-.523-.145h0l-.504-.103h-.033 0l-.528-.093h0l-.822-.084h.135 0l.322.033h0l.299.037h0l.28.047h0l.261.051h0l.247.056h0l.224.061h0l.21.065h0l.191.075h.028l.177.079h.033l.159.084h.037l.145.084.042.033.126.084.056.042.107.079.061.056.093.079a.64.64 0 0 0 .079.079.864.864 0 0 0 .065.065l.135.154a3.268 3.268 0 0 1 .668 1.349c.219.934.182 1.868.392 2.773l.107.467c0 .042 0 .079.033.117q.047.177.098.336l.028.103c1.074 3.455 3.222 5.099 6.102 7.298a12.018 12.018 0 0 0 .149-1.91 11.631 11.631 0 0 0-.196-2.148z" fill="#ec7730"/><path d="M28.709 15.302c-.425-.976-.425-.976-11.715-5.052-5.687-2.068-6.742-4.053-2.647-4.949a13.89 13.89 0 0 1 .607-.117 11.943 11.943 0 0 1 13.755 10.118" fill="#f9d65d"/></svg>