<svg xmlns="http://www.w3.org/2000/svg" width="128" height="128" viewBox="0 0 33.867 33.867" xmlns:v="https://vecta.io/nano"><circle cx="16.933" cy="16.933" r="16.933" fill-rule="evenodd"/><g fill="#fff"><path d="M9.429 7.283L8.293 8.418 9.73 9.855l1.439 1.436-.119.351c-.154.461-.216.847-.216 1.358 0 1.665.872 3.083 2.415 3.926.621.339 1.687.721 2.87 1.026l3.117.909c.621.295.928.615 1.057 1.098.056.21.053.681-.003.906-.144.549-.612 1.101-1.192 1.402-.784.411-2.148.524-3.177.26-.383-.094-.925-.361-1.198-.583-.555-.458-.988-1.248-1.179-2.161l-.06-.273c-.009-.013-3.221.301-3.236.32-.012.009-.003.141.019.292.1.724.354 1.587.646 2.186l.169.348-1.396 1.396-1.392 1.396 1.138 1.138 1.135 1.135 1.44-1.439 1.436-1.436.248.103c1.311.552 3.277.724 5.184.448.458-.066 1.12-.223 1.468-.351l.207-.075 1.377 1.377 1.374 1.374 1.135-1.135 1.138-1.138-1.276-1.276-1.273-1.273.16-.326c.332-.668.47-1.236.499-2.017.05-1.49-.336-2.612-1.214-3.538-.916-.963-1.948-1.421-4.861-2.155-2.054-.514-2.939-.869-3.29-1.314-.348-.439-.379-1.054-.075-1.502.176-.26.608-.539 1.079-.696.53-.179 1.421-.26 2.082-.191 1.396.147 2.098.743 2.405 2.048l.075.301c.006.009 2.277-.072 2.957-.107l.389-.019-.022-.273c-.044-.555-.154-1.051-.354-1.568l-.11-.292 1.414-1.418 1.414-1.414-1.135-1.138L23.3 6.145l-1.43 1.43-1.433 1.433-.348-.132c-.856-.32-1.684-.461-2.904-.496-1.333-.034-2.503.138-3.4.502l-.332.135-1.443-1.436-1.443-1.436z"/><path d="M18.902 20.813h5.721v5.204h-5.721z"/></g><path fill-rule="evenodd" d="M26.396 23.859a4.63 4.63 0 1 1-9.26 0 4.63 4.63 0 1 1 9.26 0zm-5.942 1.843h-.899c-.189 0-.282 0-.339-.036s-.099-.106-.103-.179c-.003-.067.043-.149.137-.313l2.219-3.911c.094-.166.142-.249.202-.28a.23.23 0 0 1 .207 0c.06.031.108.114.202.28l.456.796.003.004c.102.178.154.269.176.363.025.104.025.213 0 .316-.023.096-.074.187-.177.367l-1.165 2.06-.003.006c-.103.18-.155.271-.227.339a.68.68 0 0 1-.276.16c-.094.026-.2.026-.412.026zm2.269 0h1.288c.19 0 .286 0 .342-.037s.1-.107.103-.18c.003-.065-.042-.144-.132-.298l-.655-1.119-.007-.013c-.091-.153-.136-.231-.195-.261-.065-.033-.141-.033-.206 0-.059.031-.107.111-.201.274l-.643 1.103-.003.004c-.094.162-.141.244-.138.31a.23.23 0 0 0 .103.18c.056.036.151.036.341.036z" fill="#e84142"/></svg>