<svg xmlns="http://www.w3.org/2000/svg" width="128" height="128" viewBox="0 0 33.867 33.867" xmlns:v="https://vecta.io/nano"><path fill="snow" d="M13.616 25.534l.279-.474c.025-.039.039-.083.054-.132.411-.577.929-1.091 1.418-1.585l1.986-1.863 1.218-1.081.201-.181c.005-.01-.005.039 0 .03s.073-.073.083-.083c.768-.538 1.164-1.501 1.462-2.362.328-.959.47-2.01.435-3.023-.073-2.069-.968-3.971-2.367-5.478-2.876-3.096-7.781-4.299-11.669-2.519-1.203.548-2.367 1.272-3.169 2.308-.582.753-.929 1.726-1.198 2.651-.02.073-.025.137-.015.2-.171.406-.318.817-.426 1.242-.161.641-.264 1.301-.318 1.961-.108 1.281-.01 2.592.298 3.839.108.435.245.861.406 1.281C3.467 25.98 7.84 30.797 13.885 32.23a15.57 15.57 0 0 0 2.856.401l.005-.093c.333.035.753.264.983.064.225.039.421-.068.646-.039.073.025.166.005.245 0 .186.025.308-.035.494-.03s.362-.005.543.015c.225.025.665-.015.783-.225.108-.196-.157-.479-.318-.631a4.37 4.37 0 0 1-.88-1.179c-.108-.205-.176-.386-.259-.616s-.176-.465-.22-.709c-.054-.318-.289-.518-.621-.44-.426.098-.748.103-1.179.186h-.122c-.362-.157-.724-.113-1.1-.132-.068-.015-.137-.035-.205-.054a5.52 5.52 0 0 0-1.012-.562c-.098-.098-.186-.2-.254-.308-.186-.279-.303-.494-.391-.812-.054-.201-.274-.318-.474-.308-.01-.201-.005-.391.025-.558.035-.245.098-.46.191-.665z"/><path fill="#ec3e3f" d="M33.301 16.853c-.049-1.687-.23-3.419-.616-5.067-.205-.861-.484-1.741-.929-2.514a8.22 8.22 0 0 0-.729-1.052c-.274-.337-.582-.675-.973-.875-.01-.005-.02-.01-.035-.015l-.117-.181c-.504-.758-1.076-1.467-1.717-2.113s-1.35-1.267-2.132-1.726l-1.272-.704-.509-.225c-.318-.171-.65-.313-.993-.416v.005a.43.43 0 0 0-.337.064l-.973-.396c-1.448-.514-2.993-.748-4.529-.783-1.423-.035-2.871.088-4.265.401-.709.161-1.423.406-2.069.753-.323.171-.616.372-.89.611-.113.098-.303.059-.391.171l-.113.059c-1.399.734-2.646 1.766-3.834 2.807-.504.445-1.066.929-1.418 1.521l-.186.161-.161.298c-.088.171-.157.337-.313.455l-.078.132a.34.34 0 0 0 .514.064c.499-.445 1.008-.866 1.575-1.218a9.73 9.73 0 0 1 1.814-.885c1.272-.465 2.621-.665 3.971-.587 2.621.147 5.086 1.497 6.813 3.472.489.558.978 1.086 1.34 1.736a8.35 8.35 0 0 1 .47.993l.284.773c-.064 0-.127-.005-.186-.005a1.47 1.47 0 0 1 .078.152c.113.24.161.509.215.768.064.333.122.655.127.998l-.005.24c.108.768.054 1.565-.137 2.304-.23.9-.616 1.79-1.135 2.582l1.076-.968 1.115-.919c.035-.03.083.015.054.049l-1.052 1.086-1.1 1.042-.665.626-1.453 1.413-1.8 1.824c-.543.582-1.154 1.188-1.497 1.922-.274.592-.293 1.35.24 1.805.474.401 1.174.514 1.77.597 1.311.186 2.7.044 3.976-.284 1.345-.342 2.568-1.047 3.58-1.986.044-.044.113.02.073.068-1.056 1.223-2.499 2.157-4.025 2.68l-.748.215c.044.137.049.293.073.43l.122.533c.098.342.24.665.391.988.157.333.308.665.533.954l.377.44.191.2c2.308-.499 4.465-1.516 6.304-2.959.313-.108.621-.259.895-.416.577-.328 1.125-.739 1.565-1.237.69-.768 1.286-1.736 1.462-2.778.626-.9 1.159-1.863 1.565-2.9.636-1.668.866-3.409.817-5.184z"/><path d="M33.761 15.058c-.24-2.113-.924-4.226-1.976-6.109a16.84 16.84 0 0 0-1.834-2.641 16.61 16.61 0 0 0-2.308-2.23c-.836-.66-1.741-1.247-2.69-1.731-.929-.479-1.927-.875-2.969-1.179a16.68 16.68 0 0 0-3.14-.582l-.587-.039-.205-.01-.694-.015-.792.025-.704.059h-.035c-.025 0-.049.005-.073.005l-.093.01a16.24 16.24 0 0 0-3.12.65c-1.008.318-1.991.734-2.93 1.247s-1.824 1.11-2.641 1.78a16.3 16.3 0 0 0-2.24 2.26l-.064.078-.044.059c-.005.01-.015.015-.02.03l-.416.548-.455.655-.367.592c-.039.059-.073.117-.108.181l-.289.518a16.5 16.5 0 0 0-1.218 2.949c-.313 1.042-.523 2.093-.626 3.13-.108 1.061-.113 2.142-.01 3.203a16.46 16.46 0 0 0 .616 3.15 16.69 16.69 0 0 0 1.223 2.974 16.56 16.56 0 0 0 1.78 2.68c.68.836 1.443 1.604 2.274 2.289a16.49 16.49 0 0 0 5.673 3.047c1.55.47 3.184.704 4.798.704.548 0 1.091-.03 1.629-.083a16.88 16.88 0 0 0 3.184-.65 16.72 16.72 0 0 0 2.998-1.262c1.903-1.037 3.619-2.47 4.964-4.147a16.29 16.29 0 0 0 1.77-2.724c.494-.959.9-1.971 1.203-3.013.597-2.044.778-4.265.533-6.407zm-14.99 5.16l-.2.181-1.218 1.081-1.986 1.863c-.528.538-1.091 1.096-1.516 1.726l-.147.23-.025.039-.117.22-.068.147c-.098.235-.166.484-.191.739l-.01.117c-.02.347.044.694.21 1.012.254.484.709.797 1.213.998.054.025.113.044.171.064.152.054.308.098.46.132l.67.122c.025.005.044.005.068.01l.499.049.249.015a8.58 8.58 0 0 0 1.585-.088c0 .152.049.323.083.46a5.44 5.44 0 0 0 .166.553c.132.372.289.748.504 1.076.205.323.479.592.739.871.137.147.289.289.445.416.01.01.025.02.035.03l-1.36.205c-2.035.215-4.157.025-6.133-.558-1.066-.313-2.103-.748-3.086-1.281-4.055-2.304-6.847-6.334-7.62-10.877-.117-.685-.274-1.369-.352-2.059-.328-2.749.293-5.815 1.565-8.27.039-.073.083-.215.147-.274.606-.548 1.223-1.076 1.912-1.526a10.71 10.71 0 0 1 2.763-1.291 8.71 8.71 0 0 1 2.988-.362c1.042.064 2.074.323 3.047.699 1.761.68 3.365 1.8 4.504 3.316 1.022 1.365 1.712 3.003 1.859 4.71.157 1.814-.318 3.565-1.345 5.042l-.484.44m8.671 8.72c-.787.655-1.648 1.237-2.558 1.736s-1.868.9-2.846 1.208a15.81 15.81 0 0 1-1.453.377c-.039-.044-.083-.083-.117-.122a8.13 8.13 0 0 1-.377-.44c-.225-.289-.377-.626-.533-.954s-.293-.646-.391-.988a5 5 0 0 1-.122-.533c-.025-.137-.03-.293-.073-.43.254-.059.504-.132.748-.215 1.526-.523 2.969-1.457 4.025-2.68.044-.049-.025-.113-.073-.068-1.012.939-2.235 1.643-3.58 1.986-1.276.323-2.67.47-3.976.284-.592-.083-1.296-.196-1.77-.597-.533-.455-.514-1.213-.24-1.805.337-.729.954-1.335 1.497-1.922.582-.626 1.203-1.213 1.8-1.824.474-.484.959-.949 1.453-1.413l.665-.626 1.1-1.042c.367-.352.694-.729 1.052-1.086.035-.035-.02-.078-.054-.049-.367.313-.753.597-1.115.919l-.646.582c.734-1.14 1.125-2.47 1.159-3.849.044-1.785-.553-3.58-1.516-5.067-1.061-1.638-2.573-2.91-4.333-3.746-1.981-.939-4.196-1.36-6.353-.875-1.184.264-2.313.753-3.331 1.409-.43.274-.856.582-1.247.929a16.25 16.25 0 0 1 .836-1.14 15.96 15.96 0 0 1 2.172-2.206c.787-.655 1.653-1.242 2.563-1.741s1.873-.9 2.851-1.203a15.68 15.68 0 0 1 3.032-.626c2.039-.215 4.162-.02 6.138.562s3.859 1.575 5.453 2.866c.802.65 1.541 1.379 2.201 2.172s1.242 1.653 1.736 2.563.9 1.873 1.203 2.851a15.63 15.63 0 0 1 .626 3.027 15.96 15.96 0 0 1-.562 6.133c-.582 1.976-1.575 3.859-2.866 5.448a16.2 16.2 0 0 1-2.176 2.196z"/><circle cx="13.861" cy="15.009" r="3.966"/><circle cx="12.237" cy="14.584" r="1.369" fill="#fff"/><circle cx="3.966" cy="15.669" r="3.966"/><path fill="#ec3e3f" d="M9.278 18.482c.142.499.166 1.061.127 1.58-.939.279-1.873.284-2.846.117-.553-.093-1.086-.269-1.614-.46l-.792-.308-.43-.196c.161-.025.318-.073.474-.108l.655-.176a11.44 11.44 0 0 0 1.365-.509c.421-.186.827-.401 1.223-.641.362-.215.743-.44 1.056-.729.03.098.108.161.166.245l.264.372a3.22 3.22 0 0 1 .352.812z"/><circle cx="2.279" cy="15.151" r="1.369" fill="#fff"/><path d="M9.581 18.413a5.74 5.74 0 0 0-.489-.836c-.083-.122-.176-.245-.279-.352-.073-.083-.152-.186-.259-.22l.015-.015c.015-.015-.005-.039-.025-.03-.113.054-.22.117-.328.181l-.841.504a12.49 12.49 0 0 1-1.296.606c-.416.171-.846.318-1.277.45l-.65.181c-.225.054-.474.083-.69.161-.035.015-.059.039-.068.073v.01c-.01.049.015.098.064.117.176.181.479.293.694.411l.748.391c.02.01.044.02.068.03a9.6 9.6 0 0 0 1.58.592c1.003.274 2.176.318 3.15-.093.127-.01.245-.103.259-.289a3.42 3.42 0 0 0-.068-.973c-.054-.328-.166-.606-.308-.9zm-3.018 1.77c-.553-.093-1.086-.269-1.614-.46l-.792-.308-.43-.196c.161-.025.318-.073.474-.108l.655-.176a11.45 11.45 0 0 0 1.365-.509 10.78 10.78 0 0 0 1.223-.641c.362-.215.743-.44 1.056-.729.03.098.108.161.166.245l.264.372a3.01 3.01 0 0 1 .352.802c.142.499.166 1.061.127 1.58-.944.289-1.878.289-2.846.127z"/><path d="M32.925 19.646c.631-2.954.386-5.908-.45-8.789-.049-.166-.113-.352-.269-.421-.367-.161-.577.421-.572.827.03 3.942-1.863 8.363-4.27 11.366-2.274 2.846-5.507 5.448-9.278 6.03-.411.064-.822.117-1.242.098-.411-.015-.817-.166-1.203-.303-.416-.147-.841-.284-1.242-.465-.381-.176-.66-.479-.743-.895-.01-.044-.073-.03-.073.015-.005.166.02.328.073.484.01.025.015.049.025.073-.005.015-.01.03-.015.049-.039.743.484 1.252 1.115 1.643h-.176c-4.191-.025-8.344-1.927-11.092-5.091-.132-.152-.44-.274-.479-.078-.015.078.039.152.088.215 1.003 1.247 1.893 2.739 3.018 3.859.494.616 1.061 1.179 1.731 1.599.694.435 1.477.734 2.245 1.017a3.92 3.92 0 0 0 .176.122 5.73 5.73 0 0 0 .773.44c.562.274 1.149.504 1.741.704 1.179.396 2.411.602 3.649.694 5.649.435 10.549-2.035 13.704-6.754 1.267-1.898 2.22-4.01 2.719-6.236.02-.068.035-.137.049-.205zm-28.694-.137c.2.147.381.117.567.284.254.093.494.21.734.333.558.21 1.149.337 1.736.377.827.059 1.638-.098 2.46-.186.035-.2.054-.401.098-.597-.03-.078-.068-.157-.113-.23-.01-.02-.03-.025-.049-.02-.01-.025.005-.333-.005-.357-.049-.113-.035-.117-.127-.088-.597.186-1.188.411-1.81.514-.861.147-1.736.073-2.592-.064-.445-.073-.939-.166-1.365-.362.035.073-.152.064-.108.127.152.083.514.269.646.386.015.01.03.02.039.03-.064-.108-.073-.113 0-.015.068.088-.127-.142-.113-.132z" opacity=".3"/><g opacity=".3"><path d="M24.659 16.388h-.494c-.044 0-.088-.005-.132-.02-.166-.059-.205-.161-.108-.308l.807-1.223 1.232-1.854c.024-.039.049-.073.078-.108a.21.21 0 0 1 .347-.01c.088.093.147.205.22.313l.333.509c.137.196.132.396.005.587l-1.247 1.844c-.127.186-.323.254-.533.269-.171.01-.342 0-.509 0zm2.529 0h-.792c-.024 0-.054.005-.078 0-.215-.049-.337-.166-.201-.391l.807-1.272c.132-.201.333-.201.46 0l.807 1.301c.108.176.044.313-.166.342-.293.044-.592.005-.836.02z"/></g></svg>