<svg xmlns="http://www.w3.org/2000/svg" width="128" height="128" viewBox="0 0 33.867 33.867" xmlns:v="https://vecta.io/nano"><circle cx="16.933" cy="16.933" r="16.933" fill="#272424"/><path d="M9.236 22.455l-.163-.57-.435-.214c-.239-.118-.574-.256-.744-.307l-.309-.092v-1.896-1.896l-1.249-2.088-1.249-2.088.212-.255.212-.255h-.904-.904v-.441-.441h2.381 2.381v.441.441h-.431-.431l-.123.199-.123.199.677 1.389.677 1.389.135-.135c.074-.074.417-.715.762-1.423l.626-1.287-.102-.165c-.056-.091-.276-.165-.488-.165H9.26l-.026-.446-.026-.446 2.363.022 2.363.022v.425.425h-.314c-.507 0-1.06.487-1.715 1.511l-.613.959-.311.003-.311.003.239.151.239.151-.201.375c-.11.206-.277.375-.371.375h-.17l-.006.309c-.003.17-.122.463-.265.651l-.259.342v2.7 2.7h-.239H9.4zm-.417-2.488v-.235h-.265c-.448 0-.308.29.22.456.024.008.044-.092.044-.221zm-1.411-5.674c0-.049-.04-.088-.088-.088s-.088.04-.088.088.04.088.088.088.088-.04.088-.088zm3.528-.078c0-.091-.079-.215-.176-.275l-.176-.109v.275.275h.176c.097 0 .176-.075.176-.166zm-4.233-1.51c0-.049-.04-.088-.088-.088s-.088.04-.088.088.04.088.088.088.088-.04.088-.088zm.647-.559l-.118-.118v.235.235l.118-.118.118-.118zm.412.029c0-.049-.04-.088-.088-.088s-.088.04-.088.088.04.088.088.088.088-.04.088-.088zm17.992 10.672l-.007-.258c-.004-.045-.248-.323-.543-.617l-.536-.536h-.427-.427v-2.013-2.013l-.463-.707c-.255-.389-.433-.747-.397-.795s-.116-.282-.338-.518l-.404-.43-.084-.462-.084-.462.311.1.311.1-.259-.183-.259-.183-.199.165-.199.165-.19-.418-.19-.418.198-.198.198-.198-.432-.027-.609-.068c-.097-.023-.355-.05-.573-.061l-.397-.02v-.445-.445l2.381.018 2.381.018v.426.426h-.529c-.656 0-.671-.115.212 1.665l.741 1.494.229-.19c.126-.105.229-.295.229-.422s.247-.683.55-1.234l.55-1.002-.241-.153c-.133-.084-.38-.154-.55-.155l-.309-.003v-.441-.441h2.381 2.381v.41.41l-.659.163-.659.163-1.371 2.264-1.371 2.264-.026 2.719-.026 2.719h-.149c-.082 0-.149-.079-.149-.176zm-.529-3.087c0-.049-.04-.088-.088-.088s-.088.04-.088.088.04.088.088.088.088-.04.088-.088zm1.529-4.439l-.118-.118-.118.118-.118.118h.235.235zm-3.822-.147c0-.049-.04-.088-.088-.088s-.088.04-.088.088.04.088.088.088.088-.04.088-.088zm4.41-1.058c0-.049-.04-.088-.088-.088s-.088.04-.088.088.04.088.088.088.088-.04.088-.088zm-5.174-.735l-.118-.118-.118.118-.118.118h.235.235zm.706-.529l-.118-.118v.235.235l.118-.118.118-.118zm-.735-.412c.06-.097.069-.176.021-.176s-.137.079-.197.176-.069.176-.021.176.137-.079.197-.176zm3.616.088c0-.049-.04-.088-.088-.088s-.088.04-.088.088.04.088.088.088.088-.04.088-.088zm2.117 0c0-.049-.04-.088-.088-.088s-.088.04-.088.088.04.088.088.088.088-.04.088-.088zM12.568 21.47l-.397-.058v-.429-.429h.237c.13 0 .362-.139.515-.309l.278-.309.909-2.469 1.456-4.013.547-1.543h1.032 1.032l.179.47.179.47-.227.144-.227.144.267.003.267.003 1.033 2.778 1.391 3.626.358.847.503.101.503.101v.419.419l-.485.023-1.323.049-.838.026-.003-.269-.003-.269-.13.192c-.071.106-.313.238-.537.295l-.408.103-.103-.269-.103-.269.178-.114c.098-.063.237-.301.308-.529l.129-.414-.297-.776-.297-.776h-1.273-1.273l-.212.586c-.117.322-.212.761-.212.976v.39l.261.1.261.1-.035.423-.035.423-.358.021c-.965.056-2.695.063-3.048.012zm.573-.74l-.099-.16-.259.099-.259.099v.252.252l.358-.191.358-.191zm8.026.442c0-.049-.04-.088-.088-.088s-.088.04-.088.088.04.088.088.088.088-.04.088-.088zm-1.764-.706c0-.049-.04-.088-.088-.088s-.088.04-.088.088.04.088.088.088.088-.04.088-.088zm-5.468-.706c0-.049-.04-.088-.088-.088s-.088.04-.088.088.04.088.088.088.088-.04.088-.088zm0-.706c0-.049-.04-.088-.088-.088s-.088.04-.088.088.04.088.088.088.088-.04.088-.088zm5.233-.382l-.118-.118v.235.235l.118-.118.118-.118zm.764.206c0-.049-.04-.088-.088-.088s-.088.04-.088.088.04.088.088.088.088-.04.088-.088zm-1.852-1.808l-.489-1.362-.363-1.053-.412 1.22-.412 1.362v.142h.901.901zm-1.852.044c0-.049-.04-.088-.088-.088s-.088.04-.088.088.04.088.088.088.088-.04.088-.088zm2.822-.285v-.176l-.176.109c-.097.06-.176.188-.176.285v.176l.176-.109c.097-.06.176-.188.176-.285zm-3.528-.244c0-.049-.04-.088-.088-.088s-.088.04-.088.088.04.088.088.088.088-.04.088-.088zm2.822-.687c0-.038-.119-.115-.265-.171l-.265-.102v.171.171h.265c.146 0 .265-.031.265-.069zm-.409-1.198l-.093-.232-.014.338-.014.338.107-.107.107-.107-.093-.232zm.056-2.172c0-.049-.04-.088-.088-.088s-.088.04-.088.088.04.088.088.088.088-.04.088-.088z" fill="#4be43e"/></svg>