<svg xmlns="http://www.w3.org/2000/svg" width="128" height="128" viewBox="0 0 33.867 33.867" xmlns:v="https://vecta.io/nano"><circle cx="16.933" cy="16.933" r="16.933" fill="#fff" paint-order="stroke fill markers"/><path d="M21.633 30.11c-.482-.294-1.546-.496-3.082-.586l-.555-.032-1.438.015-1.438.015-.46.031-3.262.353-.53.097-.209.028-.233-.031-.233-.031-.217-.079c-.543-.198-.979-.526-2.349-1.765l-.774-.7v-.199-.199l.043-.146.043-.146.101-.112.101-.112.113-.059.113-.059.279-.011.279-.011.28.058.551.138.271.081.084-.157c.046-.086.148-.243.227-.348l.144-.191.181-.149.181-.149.212-.11c.284-.147.592-.251 1.16-.391l.474-.117.134-.262a5.75 5.75 0 0 1 1.002-1.381l.194-.194-.004-.508-.004-.508.026-.237.046-.397.02-.16h-.045c-.09 0-.881-.26-1.329-.437l-.46-.182-.488-.248c-1.345-.684-2.475-1.597-3.266-2.641-.229-.302-.492-.713-.515-.805l-.016-.064.245-.398 1.247-1.979.206-.318-.192-.305c-.106-.168-.284-.487-.397-.709l-.205-.404-.182-.46c-.388-.983-.624-1.959-.777-3.22l-.061-.502-.001-.99-.001-.99.05-.404c.132-1.064.365-1.844.686-2.29l.113-.157.133-.089.133-.089.169.015.169.015.347.113.347.113.53.261.53.261.474.285 2.711 1.809.871.616.133-.025c.196-.037.855-.108 1.332-.143l.418-.031h1.004 1.004l.46.032 1.425.157.045.014.735-.522c2.383-1.692 3.71-2.484 4.739-2.828l.324-.108.166-.017.166-.017.085.044a1.15 1.15 0 0 1 .224.196l.139.152.113.219c.643 1.244.775 3.808.314 6.115l-.108.544-.126.438c-.287.998-.696 1.924-1.178 2.666l-.151.232.414.646 1.177 1.883.121.205-.079.143c-.467.842-1.387 1.811-2.419 2.551a11.59 11.59 0 0 1-3.624 1.663l-.299.077.013.059a6.55 6.55 0 0 1 .042.407l.029.348.213.753.232.775.019.022.408-.181c1.244-.552 1.918-1.126 3.489-2.971l.766-.838.351-.35.293-.233c.711-.567 1.337-.88 1.982-.993l.262-.046.237.016.237.016.153.046a1.4 1.4 0 0 1 .477.238l.101.079.063.146.063.146.037.21c.021.116.038.299.038.408l.001.198-.043.248-.043.248-.084.181-.084.181-.089.094a.67.67 0 0 1-.179.132l-.09.038h-.142-.142l-.336-.07-.336-.07h-.159-.159l-.134.046-.134.046-.196.184c-.243.229-.727.79-1.406 1.631l-.521.645-.294.293c-.528.526-1.573 1.426-2.433 2.096l-.356.287a4.25 4.25 0 0 0 .322.179l.71.418.387.249.219-.093a6.88 6.88 0 0 1 1-.322l.171-.033.225.01.225.01.086.086.086.086.015.115.015.115-.072.231-.072.231-.146.245-.146.245-.224.255-.224.255-.293.247-.293.247-.39.26c-.775.516-1.668.941-2.352 1.119-.316.082-.328.082-.446.01zm-6.798-9.71c.109-.047.229-.17.27-.279l.03-.08.027-.481.027-.481-.028-.464c-.104-1.727-.628-3.027-1.61-3.993-.496-.488-1.292-.97-1.845-1.115l-.155-.041-.209-.001-.209-.001-.125.028c-.212.048-.446.137-.638.244l-.184.102-.239.239-.239.239-.112.195a3.07 3.07 0 0 0-.321.813l-.062.246-.001.446-.001.446.062.196.062.196.2.292a10.33 10.33 0 0 0 1.097 1.332 7.55 7.55 0 0 0 1.25 1.056l.338.229.336.166a4.74 4.74 0 0 0 1.423.465l.223.035.273.003.273.003.09-.038zm5.423-.044a6.42 6.42 0 0 0 .556-.155l.296-.099.322-.159.322-.159.363-.242c.845-.565 1.687-1.42 2.349-2.386l.204-.298.058-.182.058-.182.014-.354.014-.354-.049-.274-.049-.274-.093-.261-.093-.261-.118-.199-.118-.199-.239-.239-.239-.239-.184-.102c-.193-.107-.426-.196-.638-.244l-.125-.028-.209.001-.209.001-.155.041c-.371.098-.996.425-1.411.738a5.16 5.16 0 0 0-1.147 1.259 7.08 7.08 0 0 0-.282.53l-.168.348-.109.335c-.195.595-.294 1.159-.337 1.919l-.025.444.025.479.025.479.031.082c.04.105.158.231.264.281l.084.039.376-.014.376-.014.26-.056z"/></svg>