<svg xmlns="http://www.w3.org/2000/svg" width="128" height="128" xmlns:v="https://vecta.io/nano"><circle cx="64" cy="64" r="63.5" fill="#fff" paint-order="stroke fill markers"/><path d="M104.371 26.863l-3.515 3.515c17.383 19.009 17.383 48.142 0 67.151l3.515 3.515c19.339-20.977 19.339-53.286 0-74.263zm-73.912.305c19.009-17.383 48.142-17.383 67.151 0l3.515-3.515c-20.977-19.339-53.286-19.339-74.263 0zm-3.291 70.396c-17.361-19.004-17.361-48.112 0-67.116l-3.515-3.515c-19.339 20.977-19.339 53.286 0 74.263zm70.396 3.245c-19.009 17.383-48.142 17.383-67.151 0l-3.515 3.515c20.977 19.339 53.286 19.339 74.263 0z" fill="#5a5564"/><path d="M86.189 52.273c-.703-7.334-7.029-9.794-15.031-10.544V31.631h-6.186v9.911h-4.944v-9.911H53.89V41.8H41.343v6.619s4.569-.082 4.499 0a3.2 3.2 0 0 1 3.515 2.718v27.835c-.036.584-.306 1.129-.75 1.511-.436.389-1.011.584-1.593.539.082.07-4.499 0-4.499 0l-1.172 7.392h12.43v10.333h6.186v-10.18h4.944V98.7h6.197V88.485c10.45-.633 17.737-3.21 18.651-12.992.738-7.873-2.964-11.387-8.88-12.805 3.597-1.769 5.822-5.049 5.319-10.415zm-8.669 22.001c0 7.685-13.168 6.807-17.362 6.807V67.444c4.194.012 17.362-1.195 17.362 6.83zm-2.87-19.213c0 7.029-10.989 6.174-14.48 6.174V48.841c3.491 0 14.48-1.101 14.48 6.221z" fill="#f09242"/><path d="M63.988 128C28.645 127.994-.002 99.339 0 63.996S28.653.002 63.996 0 127.994 28.645 128 63.988A64 64 0 0 1 63.988 128zm0-123.009c-32.561.026-58.94 26.436-58.927 58.998s26.413 58.951 58.974 58.951 58.961-26.389 58.974-58.951c.006-15.653-6.211-30.667-17.281-41.733S79.641 4.978 63.988 4.991z" fill="#282138"/></svg>