<svg xmlns="http://www.w3.org/2000/svg" width="128" height="128" fill="none" xmlns:v="https://vecta.io/nano"><path fill="#000" d="M24.415 21.901h79.084v71.925H24.415z"/><path fill-rule="evenodd" d="M128 64c0 35.347-28.653 64-64 64S0 99.347 0 64 28.654 0 64 0s64 28.654 64 64zM45.864 89.469H33.444c-2.61 0-3.899 0-4.685-.503-.849-.551-1.368-1.462-1.431-2.469-.047-.927.597-2.06 1.887-4.324l30.668-54.057c1.305-2.295 1.965-3.443 2.799-3.868.896-.456 1.965-.456 2.862 0 .833.424 1.494 1.572 2.799 3.868l6.305 11.006.032.056c1.409 2.463 2.124 3.711 2.436 5.022.346 1.431.346 2.94 0 4.371-.314 1.321-1.022 2.578-2.453 5.078L58.552 82.126l-.042.073c-1.419 2.483-2.138 3.741-3.134 4.691-1.085 1.038-2.39 1.792-3.821 2.217-1.305.361-2.767.361-5.691.361zm31.366 0h17.797c2.626 0 3.947 0 4.733-.518.849-.551 1.383-1.479 1.431-2.484.045-.897-.585-1.986-1.821-4.118l-.129-.222-8.915-15.251-.101-.172c-1.253-2.118-1.885-3.188-2.697-3.602a3.13 3.13 0 0 0-2.846 0c-.818.424-1.478 1.541-2.783 3.789l-8.883 15.251-.03.052c-1.3 2.245-1.95 3.366-1.903 4.287.063 1.006.582 1.934 1.431 2.484.77.503 2.091.503 4.717.503z" fill="#fff"/></svg>