<svg xmlns="http://www.w3.org/2000/svg" width="128" height="128" xmlns:v="https://vecta.io/nano"><defs><linearGradient id="A" x1="64.002" x2="64.002" y1="-52.622" y2="189.159" gradientUnits="userSpaceOnUse"><stop offset=".195" stop-color="#708b96"/><stop offset="1" stop-color="#f7fbe7"/></linearGradient></defs><g fill="#fff"><path d="M7.112 64C7.112 32.58 32.58 7.112 64 7.112S120.888 32.58 120.888 64 95.42 120.888 64 120.888 7.112 95.42 7.112 64z"/><path d="M38.968 39.084h50.064v50.064H38.968z"/></g><path fill="#708b96" fill-rule="evenodd" d="M58.54 89.144v-9.48c-7.132-2.244-12.288-8.764-12.288-16.46 0-9.552 7.944-17.296 17.748-17.296s17.748 7.744 17.748 17.296c0 7.696-5.156 14.216-12.288 16.46v9.48h19.572v-7.052h-9.664c5.812-4.408 9.548-11.256 9.548-18.944 0-13.292-11.156-24.064-24.916-24.064S39.084 49.856 39.084 63.148c0 7.688 3.736 14.536 9.548 18.944h-9.664v7.052z"/><path fill="url(#A)" d="M64 113.776c-27.492 0-49.776-22.284-49.776-49.776H0c0 35.348 28.652 64 64 64zM113.776 64c0 27.492-22.284 49.776-49.776 49.776V128c35.348 0 64-28.652 64-64zM64 14.224c27.492 0 49.776 22.284 49.776 49.776H128c0-35.348-28.652-64-64-64zM64 0C28.652 0 0 28.652 0 64h14.224c0-27.492 22.284-49.776 49.776-49.776z"/></svg>