<svg xmlns="http://www.w3.org/2000/svg" width="128" height="128" viewBox="0 0 33.867 33.867" xmlns:v="https://vecta.io/nano"><circle cx="16.933" cy="16.933" r="16.933" fill="#283265"/><g transform="matrix(.264583 0 0 .264583 1.170216 1.058076)" fill="#fff"><path d="M34.034 3.769c1.202 1.192 1.202 3.124 0 4.316L7.926 33.979c-1.202 1.192-3.15 1.192-4.351 0s-1.202-3.124 0-4.316L29.683 3.769c1.202-1.192 3.15-1.192 4.351 0zM2.277 19.728a3.1 3.1 0 0 0 4.355 0l13.26-13.151c1.203-1.193 1.203-3.127 0-4.319a3.1 3.1 0 0 0-4.355 0L2.277 15.409c-1.203 1.193-1.203 3.127 0 4.319zm33.228-1.984c1.203 1.193 1.203 3.127 0 4.319l-13.26 13.151a3.1 3.1 0 0 1-4.355 0c-1.203-1.193-1.203-3.127 0-4.319l13.26-13.151a3.1 3.1 0 0 1 4.355 0z" transform="rotate(315 89.041 -9.738)"/><path d="M70.148-.003L56.847 13.189H18.554c-2.863 0-5.191 2.273-5.249 5.098l-.001.109v37.98L.002 69.568V14.231C.002 6.449 6.3.125 14.116-.001l.237-.002zm13.86 13.747v55.684c0 7.592-6.144 13.762-13.769 13.884l-.232.002H13.863l13.301-13.192h38.293c2.863 0 5.191-2.273 5.249-5.098l.001-.109V26.936z" transform="rotate(315 72.899 29.705)"/></g></svg>