<svg xmlns="http://www.w3.org/2000/svg" width="128" height="128" viewBox="0 0 33.867 33.867" xmlns:v="https://vecta.io/nano"><defs><linearGradient id="A" x1="3.704" y1="15.875" x2="30.163" y2="15.875" gradientUnits="userSpaceOnUse"><stop offset="0" stop-color="#dea821"/><stop offset=".416" stop-color="#efd295"/><stop offset=".549" stop-color="#efd295"/><stop offset="1" stop-color="#dea821"/></linearGradient></defs><circle cx="16.933" cy="16.933" r="16.933" fill="#1f1f1f"/><path d="M7.546 25.706c-1.808-.028-1.895-.034-2.186-.151a2.62 2.62 0 0 1-1.572-3.099l.05-.199 2.53.006 4.705.04 2.174.034.415.198c.76.363 1.302 1.053 1.469 1.87.068.335.041.968-.052 1.213l-.053.139-2.799-.011-4.682-.04zm11.244-.079c-.096-.252-.124-.882-.055-1.222.166-.817.709-1.507 1.469-1.87l.415-.198 2.174-.034 4.705-.04 2.53-.006.05.199c.275 1.089-.144 2.208-1.054 2.816-.664.443-.412.422-5.59.465l-4.588.038zm-10.45-4.47c-.323-.506-.855-1.647-1.056-2.267-.672-2.071-.671-4.255.003-6.308.783-2.384 2.43-4.405 4.606-5.65.453-.259 1.063-.551 1.063-.509 0 .012-.153.107-.34.212-1.27.71-2.499 2.012-3.233 3.425-1.225 2.359-1.268 5.207-.112 7.614a8.93 8.93 0 0 0 2.912 3.354l.578.381H10.63 8.501zm13.101.033c1.326-.839 2.496-2.143 3.155-3.516 1.483-3.089.979-6.753-1.284-9.342-.582-.666-1.162-1.138-2.221-1.81-.28-.178.395.141.88.416 4.661 2.639 6.45 8.532 4.047 13.326-.162.324-.375.714-.473.867l-.178.278-2.135-.001h-2.135l.345-.218zm1.915-6.777c-.2-.783-.908-1.811-1.665-2.418-.943-.756-1.953-1.213-3.245-1.47a10.03 10.03 0 0 0-2.733-.05c-2.515.436-4.442 1.847-5.094 3.728l-.149.431-.037-.199c-.057-.306.018-.981.167-1.495.546-1.885 2.318-3.328 4.743-3.864.626-.138 2.191-.167 2.873-.053 2.277.381 4.037 1.571 4.847 3.279.288.608.401 1.141.383 1.819l-.015.578zm-13.983-.399c-.054-.433.011-1.384.137-2.002.548-2.692 2.553-4.905 5.175-5.713.776-.239 1.361-.323 2.248-.323 1.576 0 2.925.401 4.198 1.249a7.75 7.75 0 0 1 2.589 2.937c.566 1.126.903 2.806.773 3.851l-.039.315-.122-.477c-.641-2.517-2.539-4.561-4.995-5.379-.872-.291-1.271-.348-2.403-.348-.89 0-1.111.017-1.587.124-1.438.322-2.627.957-3.676 1.964-1.081 1.037-1.774 2.218-2.136 3.64l-.122.477z" fill="url(#A)"/></svg>