<svg xmlns="http://www.w3.org/2000/svg" width="128" height="128" viewBox="0 0 33.867 33.867" xmlns:v="https://vecta.io/nano"><defs><mask id="A" maskUnits="userSpaceOnUse" x="0" y="0" width="42" height="41"><path fill="#c4c4c4" d="M0 0h42v41H0z"/></mask><linearGradient id="B" x1="21" y1="0" x2="21.04" y2="49.8" gradientUnits="userSpaceOnUse"><stop stop-color="#da88de"/><stop offset=".374" stop-color="#5e75e8"/><stop offset="1" stop-color="#80c6eb"/></linearGradient></defs><circle cx="16.933" cy="16.933" r="16.933" fill="#fff"/><g mask="url(#A)" transform="matrix(.79375 0 0 .79375 .264583 .661458)"><path d="M12.052 26.154c-.119.452-.506.561-.849.241l-6.797-6.212c-.35-.321-.275-.722.171-.897l9.536-3.733c.447-.175.707.058.588.51z" fill="url(#B)"/><path d="M6.438 32.06c-.365.306-.73.182-.811-.284L3.766 21.678c-.082-.459.134-.576.484-.255l6.469 5.913c.35.321.342.831-.022 1.137z" fill="url(#B)"/><path d="M14.24 13.541c.313.357.201.787-.238.962l-9.484 3.711c-.447.175-.67-.044-.506-.481L7.905 7.482c.164-.437.558-.51.871-.153z" fill="url(#B)"/><path d="M4.309 30.339c.082.459-.06.518-.32.124L.312 24.9c-.261-.394-.238-1.021.045-1.4l1.645-2.158c.283-.372.588-.306.677.153z" fill="url(#B)"/><path d="M3.148 17.106c-.164.437-.424.437-.581-.007L1.309 13.41a1.4 1.4 0 0 1 .372-1.378l4.482-3.974c.357-.313.506-.211.342.226z" fill="url(#B)"/><path d="M1.964 18.528c.149.445.045 1.115-.246 1.487l-1.28 1.691c-.283.372-.476.299-.432-.168l.618-5.862c.052-.467.216-.481.365-.036z" fill="url(#B)"/><path d="M7.019 5.332c.156.182 0 .583-.357.904l-2.01 1.786c-.357.313-.409.262-.127-.109l1.69-2.224c.283-.379.648-.54.804-.357z" fill="url(#B)"/><path d="M19.734 36.522c-.238.401-.663.423-.93.036l-5.271-7.509c-.268-.386-.104-.744.372-.787l10.586-1.072c.476-.051.67.241.424.649z" fill="url(#B)"/><path d="M17.531 36.529c.268.386.119.576-.328.43L7.28 33.656c-.454-.153-.529-.525-.164-.831l4.251-3.587c.365-.306.878-.241 1.154.146z" fill="url(#B)"/><path d="M24.715 25.447c.313.357.179.685-.298.736L13.675 27.27c-.476.051-.767-.284-.648-.736l2.688-10.244c.119-.452.469-.532.782-.182z" fill="url(#B)"/><path d="M32.427 34.225c.313.357.186.722-.283.824l-10.929 2.253c-.469.095-.655-.153-.41-.561l5.152-8.632c.238-.401.692-.445 1.005-.087z" fill="url(#B)"/><path d="M14.851 39.985a1.38 1.38 0 0 1-1.414-.16l-5.077-4.389c-.357-.314-.283-.437.171-.292l8.68 2.887c.454.153.477.452.06.678z" fill="url(#B)"/><path d="M26.636 40.4c-.372.299-1.02.364-1.452.153l-3.536-1.764c-.424-.211-.395-.467.074-.561l9.417-1.939c.469-.095.551.066.179.364z" fill="url(#B)"/><path d="M16.779 40.612c-.476-.022-.521-.219-.104-.445l1.898-.999c.424-.219 1.117-.226 1.541-.014l2.769 1.378c.424.211.387.372-.097.35z" fill="url(#B)"/><path d="M34.192 36.223c.156.182-.052.51-.476.729l-2.494 1.305c-.424.219-.462.16-.097-.139l2.107-1.684c.365-.299.797-.394.96-.211z" fill="url(#B)"/><path d="M27.879 25.337c-.447.175-.707-.058-.588-.51l2.65-10.09c.119-.452.506-.561.856-.241l6.797 6.212c.35.321.275.722-.171.897z" fill="url(#B)"/><path d="M38.234 19.213c.082.459-.134.576-.484.255l-6.469-5.913c-.35-.321-.342-.831.022-1.137l4.251-3.587c.365-.306.73-.182.811.284z" fill="url(#B)"/><path d="M34.088 33.408c-.164.438-.558.51-.871.153l-5.464-6.212c-.313-.357-.201-.787.238-.962l9.484-3.711c.447-.175.67.044.506.481z" fill="url(#B)"/><path d="M41.681 15.991c.261.394.238 1.021-.045 1.4l-1.645 2.151c-.283.372-.588.306-.677-.153l-1.63-8.836c-.082-.459.06-.518.32-.124z" fill="url(#B)"/><path d="M40.676 27.488a1.4 1.4 0 0 1-.372 1.378l-4.482 3.973c-.357.313-.506.212-.343-.226l3.358-8.829c.164-.437.424-.437.581.007z" fill="url(#B)"/><path d="M41.376 25.206c-.052.467-.216.481-.365.037l-.983-2.887c-.149-.445-.037-1.116.246-1.487l1.288-1.692c.283-.372.477-.299.432.168z" fill="url(#B)"/><path d="M35.777 35.202c-.283.379-.648.532-.811.357-.156-.182 0-.583.357-.904l2.017-1.786c.357-.313.409-.263.127.109z" fill="url(#B)"/><path d="M28.459 11.842c.268.386.104.744-.372.787l-10.586 1.072c-.477.051-.67-.241-.424-.649l5.181-8.683c.238-.401.663-.423.931-.036z" fill="url(#B)"/><path d="M30.626 11.653c-.365.306-.878.241-1.154-.146l-5.01-7.145c-.268-.386-.119-.576.328-.43l9.924 3.303c.454.153.529.525.164.831z" fill="url(#B)"/><path d="M26.278 24.601c-.119.452-.469.532-.782.182l-8.211-9.339c-.313-.357-.179-.685.298-.736l10.742-1.086c.477-.051.767.284.648.736z" fill="url(#B)"/><path d="M16.035 12.79c-.238.401-.692.445-1.005.088L9.565 6.666c-.313-.357-.186-.722.283-.824l10.929-2.253c.469-.095.655.153.409.561z" fill="url(#B)"/><path d="M24.782 2.86c-.454-.153-.476-.452-.059-.678L27.142.913c.424-.219 1.057-.146 1.422.16l5.07 4.389c.357.314.283.437-.171.292z" fill="url(#B)"/><path d="M10.853 4.602c-.469.095-.551-.066-.179-.365L15.35.49c.372-.299 1.02-.365 1.452-.153l3.544 1.764c.424.211.395.467-.075.561z" fill="url(#B)"/><path d="M23.427 1.715c-.424.219-1.117.226-1.541.015L19.117.352c-.424-.211-.387-.372.097-.35l6.008.27c.476.022.521.219.104.445z" fill="url(#B)"/><path d="M8.769 4.457c-.372.299-.804.394-.96.211s.052-.51.476-.729l2.494-1.305c.424-.219.462-.16.097.139z" fill="url(#B)"/><path d="M5.567 34.13c.186-.153.596 0 .923.35l1.824 1.976c.32.35.268.401-.112.124l-2.278-1.655c-.38-.277-.543-.634-.357-.795z" fill="url(#B)"/><path d="M37.103 7.526c.186-.153.521.051.745.467l1.333 2.442c.223.416.164.452-.142.095l-1.72-2.063c-.298-.357-.394-.787-.216-.941z" fill="url(#B)"/><path d="M36.068 5.966c.387.277.544.634.365.795-.186.153-.596 0-.923-.35l-1.824-1.976c-.32-.35-.268-.401.112-.124z" fill="url(#B)"/><path d="M4.674 32.424c.305.364.402.787.216.941s-.521-.051-.744-.467l-1.333-2.442c-.223-.416-.164-.452.141-.095z" fill="url(#B)"/><path d="M8.484 47.132c.675.376 1.21.885 1.603 1.522s.593 1.346.593 2.112a4.01 4.01 0 0 1-.593 2.122c-.393.647-.933 1.161-1.603 1.541S7.07 55 6.259 55s-1.55-.19-2.225-.571-1.21-.894-1.603-1.541a4.01 4.01 0 0 1-.593-2.122 3.97 3.97 0 0 1 .593-2.112c.393-.642.933-1.147 1.603-1.522s1.414-.561 2.225-.561 1.55.185 2.225.561zm-4.003.633c-.549.309-.986.728-1.307 1.256s-.486 1.113-.486 1.746.16 1.218.486 1.755.758.961 1.307 1.275 1.146.471 1.792.471a3.49 3.49 0 0 0 1.773-.471 3.56 3.56 0 0 0 1.302-1.275 3.37 3.37 0 0 0 .486-1.755c0-.771-.243-1.47-.724-2.088a3.49 3.49 0 0 0-.84-.775c-.607-.4-1.273-.599-1.996-.599-.646 0-1.243.152-1.792.461z" fill="url(#B)"/><path d="M19.636 54.757l-1.71-2.531-.593.024h-2.327v2.293c0 .214-.175.385-.393.385h-.049c-.219 0-.393-.171-.393-.385v-7.906h3.162c1.059 0 1.875.238 2.453.718s.865 1.156.865 2.036c0 .69-.17 1.261-.51 1.722s-.826.78-1.452.961l1.603 2.25c.185.257-.005.609-.326.609a.4.4 0 0 1-.33-.176zm-2.302-3.244c.806 0 1.428-.181 1.865-.538s.656-.88.656-1.56c0-.666-.219-1.17-.656-1.517s-1.059-.523-1.865-.523h-2.327v4.139z" fill="url(#B)"/><path d="M30.119 47.179c.481.366.719.875.719 1.522 0 .49-.141.904-.418 1.232s-.67.552-1.171.652c.622.081 1.107.304 1.452.675s.52.842.52 1.413c0 .714-.272 1.265-.811 1.66s-1.292.595-2.254.595h-3.585v-8.301h3.551c.85 0 1.515.181 1.996.552zm-.636 2.726c.33-.257.495-.623.495-1.099 0-.457-.165-.813-.495-1.066s-.797-.376-1.394-.366h-2.677v2.916h2.677c.598 0 1.064-.129 1.394-.385zm.296 3.868a1.36 1.36 0 0 0 .597-1.18c0-.499-.204-.885-.607-1.161s-.967-.414-1.686-.414h-2.676v3.178h2.676c.733 0 1.297-.143 1.695-.423z" fill="url(#B)"/><path d="M38.498 47.498a4.38 4.38 0 0 0-1.161-.171c-.583 0-1.049.114-1.399.338s-.525.533-.525.918c0 .343.097.618.291.833s.432.381.714.504.67.257 1.161.409a10.49 10.49 0 0 1 1.389.49 2.51 2.51 0 0 1 .899.704c.248.309.369.718.369 1.223 0 .442-.126.833-.384 1.175s-.612.604-1.074.79-.991.281-1.588.281a4.53 4.53 0 0 1-1.724-.343 4.87 4.87 0 0 1-1.205-.699.38.38 0 0 1-.092-.48.39.39 0 0 1 .573-.114 4.21 4.21 0 0 0 .981.561c.5.205.991.309 1.477.309.646 0 1.161-.129 1.54-.385s.568-.604.568-1.037c0-.347-.097-.633-.291-.856a1.91 1.91 0 0 0-.714-.509 13.67 13.67 0 0 0-1.185-.414l-1.38-.49c-.35-.152-.641-.385-.884-.69s-.364-.704-.364-1.194c0-.419.121-.785.364-1.104s.583-.561 1.02-.728.942-.257 1.516-.257a5.03 5.03 0 0 1 1.389.2 5.71 5.71 0 0 1 .889.343c.194.095.272.324.175.514l-.01.024c-.097.19-.335.262-.529.162-.262-.124-.529-.224-.806-.304z" fill="url(#B)"/></g></svg>