<svg xmlns="http://www.w3.org/2000/svg" width="128" height="128" shape-rendering="geometricPrecision" image-rendering="optimizeQuality" fill-rule="nonzero" xmlns:v="https://vecta.io/nano"><path fill="#f5ac37" d="M64 0c35.349 0 64 28.656 64 64 0 35.349-28.651 64-64 64-35.344 0-64-28.653-64-64S28.656 0 64 0z"/><path fill="#fefefd" d="M66.359 68.519h24.319c.518 0 .763 0 .801-.68a46.49 46.49 0 0 0 0-7.439c0-.481-.239-.68-.76-.68H42.319c-.599 0-.76.199-.76.76V67.6c0 .919 0 .919.959.919zM88.762 51.4a.78.78 0 0 0 0-.559c-.406-.884-.887-1.728-1.446-2.52-.841-1.354-1.832-2.601-2.961-3.721-.533-.677-1.149-1.284-1.84-1.8a28.75 28.75 0 0 0-12.001-6.08c-2.232-.501-4.513-.74-6.8-.72H42.236c-.599 0-.68.239-.68.76v14.199c0 .599 0 .76.76.76h46.158s.4-.081.481-.32h-.196zm0 25.439c-.68-.075-1.365-.075-2.045 0H42.359c-.599 0-.801 0-.801.801v13.882c0 .639 0 .801.801.801h20.48a10.23 10.23 0 0 0 2.917-.199c2.972-.213 5.895-.858 8.683-1.921 1.014-.351 1.993-.809 2.917-1.359h.279c4.801-2.497 8.701-6.42 11.16-11.235 0 0 .279-.605-.035-.763zm-55.242 22.68v-.239-9.32-3.159-9.4c0-.521 0-.599-.639-.599h-8.68c-.481 0-.68 0-.68-.639v-7.6h9.279c.518 0 .72 0 .72-.68v-7.52c0-.481 0-.599-.639-.599h-8.68c-.481 0-.68 0-.68-.639v-7.039c0-.441 0-.559.639-.559h8.6c.599 0 .76 0 .76-.76v-21.56c0-.639 0-.801.801-.801H64.32c2.177.086 4.34.325 6.48.72a39.1 39.1 0 0 1 12.519 4.64c2.569 1.512 4.933 3.338 7.039 5.44 1.584 1.644 3.013 3.424 4.28 5.319a32.08 32.08 0 0 1 3.125 6.12 1.04 1.04 0 0 0 1.195.841h7.16c.919 0 .919 0 .959.881v6.561c0 .639-.239.801-.881.801h-5.521c-.559 0-.72 0-.68.72a40.86 40.86 0 0 1 0 7.318c0 .68 0 .76.763.76h6.316c.279.36 0 .72 0 1.083.04.464.04.933 0 1.397v4.841c0 .68-.199.881-.801.881h-7.56a1 1 0 0 0-1.161.76c-1.8 4.68-4.68 8.876-8.401 12.24a48.18 48.18 0 0 1-4.28 3.439c-1.601.922-3.159 1.881-4.801 2.641a43.25 43.25 0 0 1-9.441 2.998c-3.087.553-6.218.804-9.36.76H33.509v-.04z"/></svg>