<svg xmlns="http://www.w3.org/2000/svg" xmlns:xlink="http://www.w3.org/1999/xlink" width="128" height="128" viewBox="0 0 33.867 33.867" xmlns:v="https://vecta.io/nano"><defs><linearGradient id="A" x1="107.91" y1="112.74" x2="644.08" y2="630.96" gradientUnits="userSpaceOnUse"><stop offset="0" stop-color="#fff"/><stop offset="1" stop-color="#e6ff9e"/></linearGradient><linearGradient id="B" x1="94.067" y1="73.528" x2="401.594" y2="420.849" gradientUnits="userSpaceOnUse"><stop offset="0" stop-color="#fdff99"/><stop offset="1" stop-color="#f09a4f"/></linearGradient><linearGradient id="C" x1="69.958" y1="59.408" x2="415.354" y2="424.74" gradientUnits="userSpaceOnUse"><stop offset="0" stop-color="#fbe375"/><stop offset="1" stop-color="#bd7133"/></linearGradient><linearGradient id="D" x1="126.85" y1="222.09" x2="289.87" y2="391.09" gradientUnits="userSpaceOnUse"><stop offset="0" stop-color="#e6ff9e"/><stop offset=".49" stop-color="#80f043"/><stop offset="1" stop-color="#26a378"/></linearGradient><linearGradient id="E" x1="175" y1="175.65" x2="338.02" y2="344.65" xlink:href="#D"/><linearGradient id="F" x1="211.45" y1="140.49" x2="374.47" y2="309.49" xlink:href="#D"/><linearGradient xlink:href="#D" id="G"/><filter id="H" x="-.046" y="-.046" width="1.092" height="1.092" color-interpolation-filters="sRGB"><feGaussianBlur stdDeviation=".217"/></filter></defs><g transform="matrix(.062264 0 0 .062264 1.190624 1.190624)"><path d="M459.08 338.2V167.28L338.22 46.42H167.3L46.44 167.28V338.2L167.3 459.06h170.92z" fill="url(#A)" transform="matrix(1.002861 0 0 1.002861 1.43273 -1.204793)"/><path d="M296.234 373.213h-82.636l-35.762 86.326h154.15zM461.606 175.77l-86.326 35.762v82.626l86.326 35.762z" fill="#29b058"/><path d="M310.815 138.514l58.427 58.437 86.326-35.762L346.567 52.188zM199.016 366.805l-58.427-58.427-86.326 35.752 109.001 109.001z" fill="#60e841"/><path d="M213.598 132.477h82.636l35.752-86.326h-154.15z" fill="#b5f759"/><path d="M140.59 196.951l58.427-58.437-35.752-86.326-109.002 109z" fill="#e6ff9e"/><path d="M369.242 308.739l-58.427 58.427 35.752 86.326 109.001-108.991z" fill="#26a378"/><path d="M134.552 294.158v-82.626L48.226 175.77v154.15z" fill="#b5f759"/><path d="M12.263 4.064l10.623.093 7.446 7.577-.093 10.623-7.577 7.446-10.623-.093-7.446-7.577.093-10.623z" transform="matrix(16.25759 -.139273 .142406 15.899979 -20.051297 -13.968754)" opacity=".16" fill="none" stroke="#000" stroke-width="1.336" stroke-linejoin="bevel" filter="url(#H)"/><path d="M353.136 10.719H152.564L10.709 152.554v200.572l141.835 141.845h200.572l141.855-141.835V152.564zm108.69 327.244l-35.331 35.331-72.306-19.375 19.375 72.306-32.944 32.944H169.211l-35.1-35.1 19.355-72.266-72.296 19.325-33.165-33.165V166.554l34.98-34.98 72.647 19.466-19.466-72.647 33.094-33.044h171.36l35.2 35.2-19.466 72.687 72.647-19.466 32.824 32.824z" fill="url(#B)"/><path d="M350.96 15.954L489.726 154.72v196.25L350.96 489.736H154.72L15.954 350.97V154.72L154.72 15.954h196.24M148.222 143.628L84.339 126.51l-2.918-.782-2.136 2.136-34.99 34.98-1.534 1.534v175.761l1.534 1.534 33.165 33.195 2.196 2.106 2.918-.782 63.531-17.049-17.049 63.531-.782 2.918 2.136 2.146 35.1 35.1 1.534 1.534h175.741l1.544-1.534 32.944-32.954 2.136-2.136-.782-2.918-17.049-63.531 63.531 17.049 2.918.782 2.136-2.136 35.341-35.331 1.534-1.534V164.378l-1.534-1.534-32.824-32.814-2.136-2.146-2.928.792-63.882 17.109 17.119-63.872.782-2.928-2.126-2.136-35.2-35.21-1.544-1.534h-175.73l-1.534 1.534-33.034 33.094-2.146 2.136.782 2.928 17.119 63.882m204.914-132.96H152.564L10.709 152.554v200.572l141.835 141.845h200.572l141.855-141.835V152.564zM155.633 151.04l-19.466-72.647 33.094-33.044H340.62l35.2 35.2-19.466 72.687 72.647-19.466 32.824 32.824v171.369l-35.331 35.331-72.306-19.375 19.375 72.306-32.944 32.944H169.211l-35.1-35.1 19.355-72.266-72.296 19.335-33.165-33.175V166.554l34.98-34.98z" style="mix-blend-mode:overlay" opacity=".5" fill="#fdff99"/><path d="M353.136 10.719l141.835 141.835v200.572L353.136 494.971H152.564L10.709 353.136V152.564L152.544 10.719h200.572M155.633 151.04l-72.647-19.466-34.98 34.98v171.409l33.165 33.165 72.296-19.325-19.365 72.296 35.1 35.1H340.62l32.944-32.944-19.375-72.306 72.306 19.375 35.331-35.331V166.554l-32.824-32.824-72.647 19.506 19.466-72.647-35.2-35.2h-171.41l-33.094 33.034 19.466 72.657M353.136 2.125H152.564a8.595 8.595 0 0 0-6.067 2.517L4.642 146.477a8.595 8.595 0 0 0-2.517 6.077v200.572a8.595 8.595 0 0 0 2.517 6.077l141.835 141.845a8.584 8.584 0 0 0 6.067 2.507h200.572a8.605 8.605 0 0 0 6.067-2.507l141.855-141.835a8.595 8.595 0 0 0 2.517-6.077V152.564a8.595 8.595 0 0 0-2.517-6.077L359.203 4.642a8.615 8.615 0 0 0-6.067-2.517zM172.762 53.953H337.06l29.183 29.183L348.061 151a8.595 8.595 0 0 0 8.294 10.811 8.444 8.444 0 0 0 2.226-.301l67.864-18.202 26.796 26.806v164.299l-29.314 29.304-67.513-18.051a8.855 8.855 0 0 0-2.216-.291 8.595 8.595 0 0 0-8.304 10.811l18.051 67.513-26.887 26.887H172.762l-29.083-29.083 18.052-67.513a8.584 8.584 0 0 0-8.294-10.811 8.424 8.424 0 0 0-2.216.301l-67.514 18.05-27.117-27.117V170.114l28.963-28.912 67.864 18.182a8.795 8.795 0 0 0 2.216.291 8.584 8.584 0 0 0 8.264-10.861L145.744 80.95z" fill="url(#C)"/><g transform="matrix(1.002861 0 0 1.002861 1.43273 -1.204793)"><path d="M226.78 357.25l-70-155.8-8.31 8.31v86.4l61.09 61.09z" fill="url(#G)"/><path d="M300.28 352.92L208.84 149.4l-7.74 7.74 89.91 200.11h4.95z" fill="url(#E)"/><path d="M357.05 209.76l-61.09-61.09h-59.93l83.24 185.26 37.78-37.77z" fill="url(#F)"/></g></g></svg>