<svg xmlns="http://www.w3.org/2000/svg" xmlns:xlink="http://www.w3.org/1999/xlink" width="24" height="24" viewBox="0 0 6.35 6.35" xmlns:v="https://vecta.io/nano"><defs><linearGradient id="A" x1="5.023" y1="5.437" x2="105.842" y2="102.881" gradientUnits="userSpaceOnUse"><stop offset="0" stop-color="#fff"/><stop offset="1" stop-color="#e6ff9e"/></linearGradient><linearGradient id="B" x1="2.101" y1="-1.75" x2="59.762" y2="63.372" gradientUnits="userSpaceOnUse"><stop offset="0" stop-color="#fdff99"/><stop offset="1" stop-color="#f09a4f"/></linearGradient><linearGradient id="C" x1="-2.42" y1="-4.398" x2="62.342" y2="64.102" gradientUnits="userSpaceOnUse"><stop offset="0" stop-color="#fbe375"/><stop offset="1" stop-color="#bd7133"/></linearGradient><linearGradient id="D" x1="126.85" y1="222.09" x2="289.87" y2="391.09" gradientUnits="userSpaceOnUse"><stop offset="0" stop-color="#e6ff9e"/><stop offset=".49" stop-color="#80f043"/><stop offset="1" stop-color="#26a378"/></linearGradient><linearGradient id="E" x1="175" y1="175.65" x2="338.02" y2="344.65" xlink:href="#D"/><linearGradient id="F" x1="211.45" y1="140.49" x2="374.47" y2="309.49" xlink:href="#D"/><linearGradient xlink:href="#D" id="G"/><filter id="H" x="-.046" y="-.046" width="1.092" height="1.092" color-interpolation-filters="sRGB"><feGaussianBlur stdDeviation=".217"/></filter></defs><g transform="matrix(.062264 0 0 .062264 1.190624 1.190624)"><path d="M71.056 47.831V15.692L48.33-7.034H16.19L-6.536 15.692v32.139L16.19 70.557H48.33z" fill="url(#A)"/><path d="M40.007 54.441H24.513l-6.705 16.186h28.903zM71.014 17.42l-16.186 6.705v15.492l16.186 6.705z" fill="#29b058"/><path d="M42.741 10.435l10.955 10.957 16.186-6.705L49.445-5.752zM21.779 53.239L10.824 42.284-5.362 48.988l20.438 20.438z" fill="#60e841"/><path d="M24.513 9.303h15.494l6.704-16.186H17.807z" fill="#b5f759"/><path d="M10.824 21.392l10.955-10.957-6.703-16.186-20.438 20.438z" fill="#e6ff9e"/><path d="M53.696 42.352L42.741 53.307l6.703 16.186 20.438-20.436z" fill="#26a378"/><path d="M9.692 39.618V24.125L-6.494 17.42v28.903z" fill="#b5f759"/><path d="M12.263 4.064l10.623.093 7.446 7.577-.093 10.623-7.577 7.446-10.623-.093-7.446-7.577.093-10.623z" transform="matrix(3.048298 -.026114 .026701 2.981246 -19.296396 -18.155919)" opacity=".16" fill="none" stroke="#000" stroke-width="1.336" stroke-linejoin="bevel" filter="url(#H)"/><path d="M50.676-13.527H13.069l-26.598 26.594v37.607L13.065 77.27h37.607L77.27 50.676V13.069zm20.379 61.358l-6.625 6.625-13.557-3.633 3.633 13.557-6.177 6.177H16.19l-6.581-6.581 3.629-13.55L-.317 54.05l-6.218-6.218V15.692L.023 9.133l13.621 3.65L9.994-.838l6.205-6.196h32.13l6.6 6.6-3.65 13.629 13.621-3.65 6.154 6.155z" fill="url(#B)"/><path d="M50.268-12.545l26.019 26.019V50.27L50.268 76.289H13.473L-12.545 50.27V13.473l26.019-26.019h36.795M12.255 11.393L.277 8.184-.27 8.037l-.401.4-6.561 6.559-.288.288v32.955l.288.288 6.218 6.224.412.395.547-.147 11.912-3.197-3.197 11.912-.147.547.4.402 6.581 6.581.288.288h32.951l.289-.288 6.177-6.179.401-.4-.147-.547-3.197-11.912 11.912 3.197.547.147.4-.401 6.626-6.625.288-.288V15.284l-.288-.288-6.154-6.153-.4-.402-.549.149-11.978 3.208 3.21-11.976.147-.549-.399-.4-6.6-6.602-.289-.288H15.782l-.288.288-6.194 6.205-.402.401.147.549 3.21 11.978m38.421-24.93H13.069l-26.598 26.594v37.607L13.065 77.27h37.607L77.27 50.676V13.069zm-37.032 26.31L9.995-.838 16.2-7.034h32.13l6.6 6.6-3.65 13.629 13.621-3.65 6.154 6.155v32.132l-6.625 6.625-13.557-3.633 3.633 13.557-6.177 6.177H16.19l-6.581-6.581 3.629-13.55-13.556 3.625-6.218-6.22V15.692L.023 9.133z" style="mix-blend-mode:overlay" opacity=".5" fill="#fdff99"/><path d="M50.676-13.527L77.27 13.067v37.607L50.676 77.27H13.069l-26.598-26.594V13.069l26.594-26.596h37.607m-37.028 26.31L.023 9.133l-6.559 6.559v32.139l6.218 6.218 13.556-3.623-3.631 13.556 6.581 6.581h32.141l6.177-6.177-3.633-13.557 13.557 3.633 6.625-6.625V15.692l-6.154-6.155-13.621 3.657L54.93-.426l-6.6-6.6H16.19L9.985-.832l3.65 13.623m37.041-27.929H13.069a1.612 1.612 0 0 0-1.138.472l-26.598 26.594a1.612 1.612 0 0 0-.472 1.139v37.607a1.612 1.612 0 0 0 .472 1.139L11.928 78.41a1.61 1.61 0 0 0 1.138.47h37.607a1.613 1.613 0 0 0 1.138-.47l26.598-26.594a1.612 1.612 0 0 0 .472-1.139V13.069a1.612 1.612 0 0 0-.472-1.139L51.814-14.666a1.615 1.615 0 0 0-1.138-.472zm-33.82 9.718h30.806L53.134.051l-3.409 12.725a1.612 1.612 0 0 0 1.555 2.027 1.583 1.583 0 0 0 .417-.056l12.725-3.413 5.024 5.026v30.806L63.95 52.66l-12.659-3.385a1.66 1.66 0 0 0-.416-.055 1.612 1.612 0 0 0-1.557 2.027l3.385 12.659-5.041 5.041H16.856l-5.453-5.453 3.385-12.659a1.61 1.61 0 0 0-1.555-2.027 1.58 1.58 0 0 0-.415.056L.158 52.25l-5.084-5.084V16.36l5.431-5.421 12.725 3.409a1.649 1.649 0 0 0 .415.055 1.61 1.61 0 0 0 1.55-2.036L11.79-.359z" fill="url(#C)"/><g transform="matrix(.188036 0 0 .188036 -15.268141 -15.762677)"><path d="M226.78 357.25l-70-155.8-8.31 8.31v86.4l61.09 61.09z" fill="url(#G)"/><path d="M300.28 352.92L208.84 149.4l-7.74 7.74 89.91 200.11h4.95z" fill="url(#E)"/><path d="M357.05 209.76l-61.09-61.09h-59.93l83.24 185.26 37.78-37.77z" fill="url(#F)"/></g></g></svg>