<svg xmlns="http://www.w3.org/2000/svg" width="128" height="128" xmlns:v="https://vecta.io/nano"><circle cx="64" cy="64" r="64" fill-rule="evenodd" fill="#e84142"/><path d="M28.637 28.345l-4.937 5.25c-.022.067 2.401 2.446 5.385 5.273l5.767 5.498.337.314-.606 1.01c-5.318 8.796-6.418 19.387-3.074 29.126.628 1.84 1.705 4.196 2.625 5.744.449.763.651 1.257.606 1.346s-2.76 2.962-6.036 6.395l-5.991 6.305c-.022.067 9.155 8.931 10.03 9.649l.337.292 5.183-5.408 5.924-6.216.763-.763.718.449c3.658 2.334 7.943 3.949 12.678 4.802 2.379.426 6.911.539 9.447.224 4.892-.561 9.738-2.199 13.71-4.6l1.032-.628 1.1 1.077 11.466 10.905c.09.045 9.94-10.255 9.918-10.389-.022-.067-6.777-6.552-10.905-10.434l-1.369-1.301.628-1.032c5.273-8.774 6.373-19.41 2.962-29.215-.494-1.436-1.997-4.667-2.872-6.148l-.426-.74 5.767-6.036 5.722-6.126c-.09-.224-10.187-9.761-10.322-9.761-.09 0-2.625 2.58-5.655 5.767l-5.61 5.789c-.045.022-.337-.112-.606-.314-.763-.516-2.693-1.571-3.77-2.064-3.276-1.503-6.328-2.423-9.873-2.939-1.84-.269-7.36-.314-9.065-.067-4.084.583-7.427 1.593-10.838 3.299-.987.471-2.132 1.1-2.58 1.369l-.808.494-.92-.898c-.494-.494-2.738-2.603-4.959-4.735l-5.026-4.802-.987-.965zm37.675 14.63c3.568.426 6.754 1.638 9.694 3.702 1.503 1.055 3.747 3.299 4.802 4.802 5.991 8.482 4.847 20.016-2.693 27.084-6.44 6.014-15.752 7.36-23.583 3.366-5.655-2.895-9.649-8.19-10.928-14.54-.404-2.019-.404-5.789 0-7.786.381-1.975.898-3.388 1.862-5.363a20.59 20.59 0 0 1 20.846-11.264zm-15.374 7.114h25.949V73.69H50.938z" fill="#fff"/><path fill-rule="evenodd" d="M84.927 63.903c0 11.598-9.402 21-21 21s-21-9.402-21-21 9.402-21 21-21 21 9.402 21 21zM57.976 72.26H53.9c-.856 0-1.279 0-1.537-.165-.279-.181-.449-.48-.469-.81-.015-.304.196-.676.619-1.419l10.063-17.737c.428-.753.645-1.13.918-1.269a1.04 1.04 0 0 1 .939 0c.273.139.49.516.918 1.269l2.069 3.611.011.018c.462.808.697 1.218.799 1.648.114.469.114.965 0 1.434-.103.433-.335.846-.805 1.666l-5.286 9.344-.014.024c-.466.815-.701 1.228-1.028 1.539-.356.341-.784.588-1.254.728-.428.119-.908.119-1.868.119zm10.292 0h5.84c.862 0 1.295 0 1.553-.17.279-.181.454-.485.47-.815.015-.294-.192-.652-.598-1.351l-.042-.073-2.925-5.004-.033-.056c-.411-.695-.619-1.046-.885-1.182-.294-.15-.64-.15-.934 0-.268.139-.485.506-.913 1.243l-2.915 5.004-.009.017c-.427.737-.64 1.105-.625 1.407.021.33.191.634.469.815.253.165.686.165 1.548.165z" fill="#e84142"/></svg>