<svg xmlns="http://www.w3.org/2000/svg" width="128" height="128" viewBox="0 0 33.867 33.867" xmlns:v="https://vecta.io/nano"><path d="M31.55 8.505l-14.534 8.558v16.737l14.534-8.436z" fill="#f2f2f2"/><path d="M2.317 25.364V8.505l14.699 8.558V33.8z" fill="#fff"/><path d="M2.317 25.364V8.505L17.021.066 31.55 8.505v16.86L21.255 31.34 31.55 8.505l-6.096 3.591-4.32 8.999-4.119 8.681-4.109-8.681-4.422-8.999-6.168-3.592 10.412 22.835z" fill="#f77942"/><path d="M31.55 8.505l-6.093 3.585-8.436 17.677V17.063L2.317 8.505 17.021.066 31.55 8.505v16.86l-10.295 5.976z" fill="#eb6a28"/><path d="M31.55 8.505v16.86l-10.295 5.976h0zm-14.534 8.558l8.441-4.973-8.437 17.676z" fill="#d7561d"/></svg>