<svg xmlns="http://www.w3.org/2000/svg" width="128" height="128" xmlns:v="https://vecta.io/nano"><path d="M57.55 127.856c-12.117-1.759-19.971-4.594-28.872-10.423-13.981-9.157-24.052-24.046-27.594-40.796C-.261 70.278-.372 58.634.851 52.329 3.31 39.66 9.364 28.127 18.255 19.174c5.608-5.647 9.736-8.719 16.209-12.065C44.359 1.995 52.751-.01 64.213 0c10.756.01 19.168 1.964 28.43 6.606 6.485 3.25 10.968 6.519 16.595 12.099 9.46 9.382 14.965 19.65 17.887 33.369 1.167 5.479 1.165 18.017-.004 23.887-1.136 5.705-3.985 13.607-6.702 18.588-6.011 11.024-16.634 21.324-27.679 26.841-4.091 2.044-11.87 4.672-16.495 5.574-3.813.743-15.787 1.315-18.697.893zm26.893-55.145c0-.393-.309-.714-.686-.714-.795 0-1.332.679-.888 1.123.569.569 1.574.307 1.574-.409zM49.84 69.863c.052-.258-.281-.541-.739-.63-.521-.1-.833.133-.833.623 0 .828 1.407.834 1.572.007zm34.365-6.383c2.412-1.12 4.046-2.676 4.046-3.855 0-.504-.665-1.673-1.477-2.598-1.698-1.933-3.682-2.215-6.429-.911-3.651 1.732-5.273 5.892-2.935 7.529 1.418.993 4.463.919 6.796-.164zm-29.784-.825c1.592-2.023 1.303-4.154-.883-6.496-1.824-1.955-1.944-2.004-4.948-2.004-3.568 0-5.082.942-5.082 3.163 0 1.537 2.331 3.516 6.426 5.454 2.998 1.419 3.284 1.412 4.487-.118zm49.172-24.201c1.952-3.812 1.98-6.025.111-8.802-1.118-1.662-1.773-2.174-2.925-2.287-1.877-.184-7.11 2.17-8.72 3.923l-1.19 1.295 1.428 1.019c2.626 1.874 6.744 6.027 7.657 7.722.834 1.547.953 1.611 1.54.831.35-.465 1.295-2.131 2.099-3.701zm-72.881.69c1.802-1.845 3.277-3.486 3.277-3.647s-.97-1.85-2.156-3.752c-2.189-3.51-6.594-7.979-7.552-7.661-.733.243-.945 10.484-.273 13.181.48 1.926 2.476 5.234 3.159 5.234.148 0 1.744-1.509 3.546-3.354z" fill="#87cef2"/><path d="M57.395 111.008c-2.972-.626-6.752-2.465-8.847-4.304-1.534-1.346-2.609-1.759-6.88-2.644-6.619-1.37-9.995-2.679-12.964-5.025-1.784-1.41-2.566-1.776-2.957-1.386s-.38.929.039 2.039c.313.83.513 1.565.444 1.633s-.813-.413-1.653-1.07c-1.092-.855-1.752-1.964-2.312-3.891-.431-1.482-1.387-3.449-2.124-4.37-2.063-2.577-3.318-5.893-3.628-9.585l-.282-3.36-1.355.271c-1.352.27-1.355.266-1.344-2.215.008-1.919.388-3.186 1.665-5.555 1.709-3.171 1.64-4.364-.197-3.381-.552.295-1.003.743-1.003.996s-.185.459-.412.459c-1.013 0 .571-4.139 4.19-10.943 4.923-9.257 9.363-15.916 13.218-19.827 1.648-1.671 2.996-3.175 2.996-3.342s-.97-1.859-2.156-3.761c-1.968-3.157-6.383-7.803-7.415-7.803-.762 0-.448-1.171.81-3.023 1.061-1.56 1.413-1.772 2.499-1.506 2.566.629 9.406 4.852 12.429 7.674l3.115 2.908 2.142-.919c8.262-3.544 22.993-4.158 33.03-1.376l3.08.854 8.671-4.645c9.078-4.863 10.921-5.534 13.016-4.738 2.052.78 2.706 3.078 2.551 8.957l-.135 5.092-1.117-2.141c-1.571-3.011-2.399-3.806-3.965-3.806-1.879 0-7.038 2.442-8.483 4.015l-1.19 1.295 1.428.994c.785.546 2.835 2.403 4.554 4.125 4.458 4.467 5.035 6.069 10.455 29.061.524 2.224 2.026 6.269 3.338 8.987l2.385 4.943-2.036-.279-2.036-.279-.008 4.138c-.006 3.079-.304 5.044-1.167 7.68l-1.158 3.542-.418-1.639c-.426-1.672-1.295-3.016-1.295-2.003 0 .297-1.362 2.534-3.026 4.972s-3.194 4.968-3.401 5.622c-.619 1.964-1.7 3.308-3.847 4.785-1.12.77-2.153 1.4-2.296 1.4s-.124-.678.042-1.507c.27-1.348.205-1.467-.607-1.132-4.23 1.746-8.317 2.101-13.853 1.202-2.85-.462-3.025-.43-5.236.972-4.058 2.573-10.702 3.807-15.293 2.84zm27.047-38.296c0-.393-.309-.714-.686-.714-.795 0-1.332.679-.888 1.123.569.569 1.574.307 1.574-.409zM49.84 69.863c.052-.258-.281-.541-.739-.63-.521-.1-.833.133-.833.623 0 .828 1.407.834 1.572.007zm34.365-6.383c2.412-1.12 4.046-2.676 4.046-3.855 0-.504-.665-1.673-1.477-2.598-1.698-1.933-3.682-2.215-6.429-.911-3.651 1.732-5.273 5.892-2.935 7.529 1.418.993 4.463.919 6.796-.164zm-29.784-.825c1.592-2.023 1.303-4.154-.883-6.496-1.824-1.955-1.944-2.004-4.948-2.004-3.568 0-5.082.942-5.082 3.163 0 1.537 2.331 3.516 6.426 5.454 2.998 1.419 3.284 1.412 4.487-.118z" fill="#e4b288"/><path d="M57.395 111.008c-2.972-.626-6.752-2.465-8.847-4.304-1.534-1.346-2.609-1.759-6.88-2.644-2.784-.576-6.253-1.496-7.708-2.044-2.968-1.117-4.787-2.241-3.723-2.301 5.232-.296 12.129-1.158 13.138-1.643 2.38-1.144 3.401-3.331 3.361-7.2-.02-1.897.195-3.88.477-4.407.447-.836.231-1.167-1.698-2.597-4.005-2.97-5.535-6.486-4.432-10.185a64.07 64.07 0 0 0 1.023-4.018c.539-2.51 2.447-5.165 3.991-5.552 1.608-.403 3.822.919 4.726 2.822.428.902.778 1.782.778 1.956s.75 1.024 1.666 1.887c1.447 1.364 1.666 1.866 1.666 3.817v2.246l1.547-1.304c3.059-2.578 6.437-3.241 9.659-1.896 1.948.813 6.162 4.685 8.651 7.947.967 1.268 1.938 2.305 2.157 2.305.674 0 5.71-3.885 8.007-6.177 4.399-4.389 6.275-11.286 4.513-16.588-.445-1.338-2.212-4.739-3.928-7.557-5.335-8.763-5.457-9.016-5.457-11.313 0-2.393 1.304-5.454 3.619-8.494 2.438-3.202 2.44-3.078-.046-4.143l-2.279-.976 8.317-4.489c9.038-4.878 11.254-5.73 13.232-5.088 2.202.714 2.941 2.974 2.916 8.92l-.022 5.234-1.422-2.754c-1.969-3.814-2.912-4.158-6.98-2.551-1.768.699-4.071 2.016-5.118 2.928l-1.904 1.658 1.428 1.06c2.584 1.918 7.004 6.289 8.099 8.009 1.479 2.324 3.703 9.088 5.234 15.915 2.564 11.436 3.157 13.409 5.495 18.265l2.38 4.943-2.036-.279-2.036-.279-.008 4.138c-.006 3.079-.304 5.044-1.167 7.68l-1.158 3.542-.418-1.639c-.426-1.672-1.295-3.016-1.295-2.003 0 .297-1.362 2.534-3.026 4.972s-3.194 4.968-3.401 5.622c-.619 1.964-1.7 3.308-3.847 4.785-1.12.77-2.153 1.4-2.296 1.4s-.124-.678.042-1.507c.27-1.348.205-1.467-.607-1.132-4.23 1.746-8.317 2.101-13.853 1.202-2.85-.462-3.025-.43-5.236.972-4.058 2.573-10.702 3.807-15.293 2.84zM49.84 69.863c.052-.258-.281-.541-.739-.63-.521-.1-.833.133-.833.623 0 .828 1.407.834 1.572.007zm-25.263 30.387c-1.092-.855-1.752-1.964-2.312-3.891-.431-1.482-1.387-3.449-2.124-4.37-2.063-2.577-3.318-5.893-3.628-9.585l-.282-3.36-1.355.271c-1.352.27-1.355.266-1.344-2.215.008-1.919.388-3.186 1.665-5.555 1.709-3.171 1.64-4.364-.197-3.381-.552.295-1.003.743-1.003.996s-.185.459-.412.459c-1.014 0 .572-4.14 4.194-10.943 5.085-9.552 8.105-14.058 12.758-19.031l3.783-4.044-1.95-3.3c-2.008-3.398-4.699-6.482-7.166-8.214l-1.407-.988 1.323-1.999c1.157-1.748 1.484-1.96 2.597-1.687 2.575.632 9.411 4.85 12.439 7.676l3.115 2.908 2.142-.919c6.109-2.621 16.549-3.792 24.989-2.804 4.273.5 10.38 1.802 8.957 1.91-.31.023-.701.476-.869 1.007s-.826 1.305-1.462 1.721c-.97.635-1.504.669-3.318.213-1.872-.471-2.445-.419-4.266.386-1.157.512-3.092 1.61-4.301 2.441-3.2 2.201-6.775 3.315-10.64 3.315-3.013 0-3.398.113-4.302 1.261-.546.694-1.125 2.09-1.287 3.103-.463 2.893-2.364 4.2-6.108 4.2-2.608 0-3.317.207-5.318 1.552a105 105 0 0 1-4.561 2.87c-2.696 1.578-2.994 2.085-4.474 7.614-1.053 3.934-1.94 6.168-3.723 9.375-.838 1.509-.211 5.34 1.448 8.848.631 1.334 1.147 2.562 1.147 2.731s-1.071 1.488-2.38 2.933c-1.452 1.603-2.38 3.068-2.38 3.759 0 .622.855 2.595 1.901 4.384s2.252 4.328 2.681 5.643 1.013 2.713 1.297 3.105-.068.192-.783-.446c-1.012-.902-1.428-1.033-1.872-.588s-.445.908-.002 2.08c.313.83.513 1.565.444 1.633s-.813-.413-1.653-1.07zm56.246-23.539c-.813-.233-2.044-.99-2.737-1.682-2.672-2.671-.902-7.314 2.788-7.314 3.865 0 6.095 2.71 5.063 6.153-.823 2.745-2.399 3.621-5.113 2.843zm3.62-4.001c0-.393-.309-.714-.686-.714-.795 0-1.332.679-.888 1.123.569.569 1.574.307 1.574-.409z" fill="#ca9d78"/><path d="M57.395 111.008c-2.972-.626-6.752-2.465-8.847-4.304-1.534-1.346-2.609-1.759-6.88-2.644-5.121-1.06-9.685-2.546-11.162-3.634-.709-.522-.618-.606.742-.687 7.09-.423 11.808-1.092 12.942-1.834 2.005-1.313 2.799-3.344 2.696-6.895-.05-1.722.143-3.746.429-4.498.44-1.157.389-1.438-.334-1.823-1.881-1.003-5.179-4.921-5.752-6.832-.504-1.681-.477-2.301.172-4.041.422-1.13.832-2.85.911-3.821.159-1.956 1.758-4.882 2.911-5.324 2.455-.942 5.121.623 5.883 3.452.287 1.064 1.059 2.211 1.915 2.843 1.297.958 1.435 1.315 1.435 3.705v2.645l1.492-1.254c5.406-4.547 9.667-4.02 15.49 1.916 7.666 7.815 8.99 13.716 4.279 19.066l-1.952 2.216 6.41-.271c6.324-.267 10.83-1.271 12.855-2.864 4.886-3.842 7.554-16.445 7.726-36.506.077-8.971-.596-14.32-2.327-18.502-.97-2.343-.487-2.326 1.139.04 1.755 2.553 3.908 8.849 5.585 16.329 2.564 11.436 3.157 13.409 5.495 18.265l2.38 4.943-2.036-.279-2.036-.279-.008 4.138c-.006 3.079-.304 5.044-1.167 7.68l-1.158 3.542-.418-1.639c-.426-1.672-1.295-3.016-1.295-2.003 0 .297-1.362 2.534-3.026 4.972s-3.194 4.968-3.401 5.622c-.619 1.964-1.7 3.308-3.847 4.785-1.12.77-2.153 1.4-2.296 1.4s-.124-.678.042-1.507c.27-1.348.205-1.467-.607-1.132-4.23 1.746-8.317 2.101-13.853 1.202-2.85-.462-3.025-.43-5.236.972-4.058 2.573-10.702 3.807-15.293 2.84zM49.84 69.863c.052-.258-.281-.541-.739-.63-.521-.1-.833.133-.833.623 0 .828 1.407.834 1.572.007zm-25.263 30.387c-1.092-.855-1.752-1.964-2.312-3.891-.431-1.482-1.387-3.449-2.124-4.37-2.063-2.577-3.318-5.893-3.628-9.585l-.282-3.36-1.355.271c-1.352.27-1.355.266-1.344-2.215.008-1.919.388-3.186 1.665-5.555 1.709-3.171 1.64-4.364-.197-3.381-.552.295-1.003.743-1.003.996s-.185.459-.412.459c-1.016 0 .575-4.144 4.203-10.943 5.486-10.282 7.597-13.387 12.529-18.423l4.296-4.387L32.277 32c-2.176-3.603-4.544-6.256-7.29-8.168l-1.148-.799 1.302-1.966c1.136-1.716 1.464-1.926 2.576-1.654 2.575.632 9.411 4.85 12.439 7.676l3.115 2.908 2.142-.919c7.839-3.363 21.518-4.107 31.82-1.73l2.284.527-1.359 1.484c-1.297 1.416-1.527 1.484-5.033 1.484s-3.815.09-6.803 2.012c-5.141 3.305-7.323 4.081-11.608 4.13-3.759.043-3.798.056-4.879 1.66-.599.889-1.09 2.117-1.09 2.728s-.618 1.803-1.374 2.649c-1.284 1.437-1.594 1.543-4.751 1.622-3.26.082-3.525.182-7.63 2.872-4.49 2.942-5.854 4.622-6.446 7.942-.576 3.232-2.562 8.491-3.639 9.637-.919.978-1.014 1.471-.781 4.043.169 1.858.784 3.974 1.682 5.786l1.416 2.857-2.567 2.791c-1.412 1.535-2.567 3.231-2.567 3.768s.94 2.627 2.09 4.643 2.372 4.522 2.716 5.568.956 2.331 1.358 2.855c.518.675.349.614-.581-.208-1.021-.902-1.439-1.033-1.883-.588s-.445.908-.002 2.08c.313.83.513 1.565.444 1.633s-.813-.413-1.653-1.07zM79.921 76.2c-2.927-1.618-3.759-3.651-2.565-6.269 1.103-2.42 4.74-2.928 7.051-.984 1.215 1.022 1.464 1.579 1.464 3.266 0 3.717-2.911 5.667-5.95 3.987zm4.522-3.489c0-.393-.309-.714-.686-.714-.795 0-1.332.679-.888 1.123.569.569 1.574.307 1.574-.409zm20.062-42.047c-.615-1.364-1.657-2.832-2.314-3.263-1.127-.738-1.385-.718-4.502.342-2.041.694-4.097 1.82-5.37 2.94L90.256 32.5l-4.274-2.03-4.274-2.03 8.626-4.583c9.187-4.88 10.805-5.471 12.85-4.694 2.075.788 2.731 3.065 2.574 8.928l-.135 5.054z" fill="#979d9d"/><path d="M55.187 110.035c-2.934-1.04-4.834-2.162-6.966-4.115-.915-.838-2.646-1.422-6.664-2.249-6.358-1.307-11.379-3.059-10.376-3.62.366-.205 3.154-.582 6.196-.839 7.998-.675 9.687-2.132 9.509-8.203-.05-1.722.143-3.746.429-4.498.44-1.157.389-1.438-.334-1.823-1.881-1.003-5.179-4.921-5.752-6.832-.504-1.681-.477-2.301.172-4.041.422-1.13.832-2.85.911-3.821.159-1.956 1.758-4.882 2.911-5.324 2.455-.942 5.121.623 5.883 3.452.287 1.064 1.059 2.211 1.915 2.843 1.297.958 1.435 1.315 1.435 3.705v2.645l1.492-1.254c5.406-4.547 9.667-4.02 15.49 1.916 7.666 7.815 8.99 13.716 4.279 19.066l-1.952 2.216 6.41-.271c6.324-.267 10.83-1.271 12.855-2.864 4.886-3.842 7.554-16.445 7.726-36.506.077-8.971-.596-14.32-2.327-18.502-.94-2.271-.474-2.375.937-.208 1.574 2.416 4.259 10.69 5.812 17.906 2.033 9.448 3.008 12.703 5.169 17.27l2.047 4.325-1.957-.359c-1.076-.197-2.01-.306-2.076-.241s.065 1.103.29 2.307c.469 2.51.007 6.094-1.269 9.845-.883 2.597-.884 2.598-1.19 1.071-.168-.841-.496-1.528-.729-1.528-.536 0-6.891 9.724-7.666 11.729-.61 1.577-1.78 2.821-3.953 4.201l-1.308.831.296-1.481c.342-1.709.27-1.734-2.099-.736-3.074 1.294-5.785 1.561-10.852 1.067l-4.872-.474-4.064 2.013c-3.727 1.846-4.431 2.028-8.493 2.201-3.629.154-4.941.006-7.268-.819zm-5.169-39.751c.337-.877-.814-1.791-1.452-1.154-.52.519-.043 1.915.654 1.915.278 0 .637-.343.798-.762zm-25.97 29.13c-.584-.622-1.341-2.186-1.681-3.476s-1.393-3.36-2.34-4.599c-1.9-2.488-3.05-5.767-3.497-9.967l-.293-2.758-1.43.314-1.43.314.288-2.435c.175-1.474.954-3.624 1.974-5.448.927-1.657 1.544-3.155 1.371-3.329-.574-.574-1.98-.327-2.798.491-3.185 3.184 5.759-14.461 11.623-22.93.906-1.308 3.252-4.023 5.213-6.033l3.566-3.654-2.036-3.483c-1.135-1.941-3.404-4.794-5.124-6.443l-3.088-2.96.909-1.56c.5-.858 1.34-1.623 1.867-1.701 1.91-.28 10.187 4.746 13.581 8.247 1.132 1.168 2.259 2.123 2.504 2.123s1.748-.519 3.339-1.154c5.224-2.084 10.574-2.79 19.077-2.518 7.25.232 13.09 1.022 13.09 1.77 0 .19-.437.901-.97 1.579-.909 1.155-1.202 1.227-4.641 1.135-3.575-.095-3.752-.046-6.8 1.914-5.141 3.305-7.323 4.081-11.608 4.13-3.759.043-3.798.056-4.879 1.66-.599.889-1.09 2.117-1.09 2.728s-.618 1.803-1.374 2.649c-1.284 1.437-1.594 1.543-4.751 1.622-3.26.082-3.525.182-7.63 2.872-4.49 2.942-5.854 4.622-6.446 7.942-.576 3.232-2.562 8.491-3.639 9.637-.919.978-1.014 1.471-.781 4.043.169 1.858.784 3.974 1.682 5.786l1.416 2.857-2.567 2.791c-1.412 1.535-2.567 3.237-2.567 3.782s.833 2.421 1.851 4.167c1.839 3.154 3.384 6.478 3.384 7.278 0 .23-.416.418-.924.418-1.253 0-1.553.634-.995 2.101.584 1.535.03 1.576-1.357.099zM79.921 76.2c-2.927-1.618-3.759-3.651-2.565-6.269 1.103-2.42 4.74-2.928 7.051-.984 1.215 1.022 1.464 1.579 1.464 3.266 0 3.717-2.911 5.667-5.95 3.987zm4.362-3.045c.375-.977-.378-1.707-1.222-1.186-.719.444-.388 1.931.43 1.931.278 0 .635-.336.792-.746zm1.966-42.468c-2.017-.961-3.677-1.885-3.689-2.052-.031-.455 15.07-8.417 17.142-9.037 4.222-1.264 5.664.437 6.033 7.116.289 5.238-.195 6.328-1.497 3.377-.461-1.043-1.378-2.251-2.039-2.684-1.135-.744-1.385-.725-4.509.338-2.044.695-4.097 1.82-5.374 2.944-1.137 1-2.142 1.803-2.232 1.782s-1.816-.823-3.833-1.784z" fill="#b58e70"/><path d="M55.187 110.035c-2.934-1.04-4.834-2.162-6.966-4.115-.915-.838-2.646-1.422-6.664-2.249-2.985-.614-6.712-1.612-8.283-2.219-2.772-1.07-2.814-1.112-1.428-1.425.785-.177 2.63-.347 4.1-.378 8.332-.176 11.506-2.542 11.016-8.214-.413-4.787.708-7.073 6.06-12.356 5.586-5.514 7.844-6.65 11.355-5.712 3.073.822 6.761 3.832 10.067 8.217 4.939 6.552 5.162 11.411.719 15.713l-1.807 1.75 1.802.338c2.316.434 9.78-.097 12.854-.915 5.965-1.587 8.212-4.072 10.213-11.291 1.883-6.791 2.548-13.705 2.582-26.84.029-11.228-.061-12.7-.978-15.939-.556-1.963-.944-3.639-.863-3.725s.788 1.199 1.572 2.855c1.679 3.546 3.866 11.135 5.587 19.388 1.317 6.315 2.538 9.968 4.879 14.605l1.464 2.898-1.995-.365c-1.097-.201-2.049-.313-2.114-.248s.065 1.103.29 2.307c.469 2.51.007 6.094-1.269 9.845-.883 2.597-.884 2.598-1.19 1.071-.168-.841-.496-1.528-.729-1.528-.536 0-6.891 9.724-7.666 11.729-.61 1.577-1.78 2.821-3.953 4.201l-1.308.831.296-1.481c.342-1.709.27-1.734-2.099-.736-3.074 1.294-5.785 1.561-10.852 1.067l-4.872-.474-4.064 2.013c-3.727 1.846-4.431 2.028-8.493 2.201-3.629.154-4.941.006-7.268-.819zm24.17-34.208c-1.966-1.198-2.687-2.602-2.326-4.528.548-2.919 3.638-4.329 6.38-2.911 1.796.928 2.46 2.07 2.46 4.228 0 3.632-3.22 5.219-6.514 3.212zm4.927-2.672c.375-.977-.378-1.707-1.222-1.186-.719.444-.388 1.931.43 1.931.278 0 .635-.336.792-.746zm-38.296.277c-2.363-.56-3.431-1.765-3.431-3.871 0-2.392 2.317-5.176 4.307-5.176 3.959 0 6.267 7.203 2.887 9.011-1.056.565-1.513.569-3.762.036zm4.031-3.148c.337-.877-.814-1.791-1.452-1.154-.52.519-.043 1.915.654 1.915.278 0 .637-.343.798-.762zm-18.143-39.24c-1.821-2.831-3.587-4.929-5.096-6.056-1.271-.948-2.31-1.839-2.309-1.98.006-.914 2.041-3.348 2.799-3.348 1.07 0 5.193 2.107 8.779 4.486 2.38 1.579 6.521 5.375 6.498 5.956-.008.204-6.391 4.506-7.626 5.14-.142.073-1.512-1.817-3.044-4.199zm54.332-.671c-1.778-.873-3.183-1.767-3.122-1.987.16-.576 14.468-8.146 16.607-8.787 2.28-.683 4.042-.247 5.018 1.242.931 1.42 1.605 10.714.777 10.714-.282 0-.649-.429-.816-.954-.551-1.734-2.65-3.804-3.859-3.804-1.727 0-6.632 2.126-8.721 3.78-1.01.8-2.02 1.438-2.244 1.418s-1.862-.75-3.641-1.623z" fill="#916f5d"/><path d="M56.507 106.694c-2.389-1.182-3.541-2.343-2.324-2.343.438 0 1.447.337 2.244.748 1.333.689 1.519.683 2.356-.074.5-.452.909-.974.909-1.16s-1.282-.806-2.849-1.377c-3.672-1.338-6.531-3.54-8.29-6.385-1.171-1.893-1.408-2.793-1.438-5.455-.047-4.179 1.163-6.629 5.434-11.001 7.74-7.923 11.882-8.279 18.509-1.59 8.106 8.182 9.216 14.156 3.608 19.414-2.986 2.8-8.055 5.928-9.608 5.928-1.351 0-1.4.748-.096 1.445.71.38 1.396.384 2.451.017.806-.281 1.862-.511 2.346-.511 1.053 0 1.159 1.08.185 1.888-1.02.846-6.069 1.2-7.349.516-.86-.46-1.28-.426-2.204.179-1.445.946-1.491.943-3.883-.24zm23.364-30.906c-2.429-1.202-3.157-2.629-2.52-4.936.534-1.933 1.715-2.738 4.117-2.806 1.32-.037 1.961.283 3.086 1.541 1.184 1.325 1.375 1.866 1.149 3.257-.298 1.838-1.957 3.911-3.128 3.91-.413 0-1.629-.435-2.704-.967zm4.783-2.32c.404-.653-.227-1.946-.948-1.946-.836 0-1.318.824-.986 1.688.295.768 1.518.931 1.935.258zm-40.059-.745c-2.62-1.139-2.703-4.163-.187-6.855 1.711-1.831 2.934-1.871 4.851-.159 1.896 1.693 2.499 5.276 1.14 6.776-1.011 1.117-3.542 1.221-5.804.238zm5.338-2.833c0-1.056-.673-1.383-1.616-.787-.9.569-.273 2.056.782 1.853.459-.088.834-.568.834-1.066zm54.501-41.664c-.393-.254-.5-.461-.238-.461s.797.208 1.19.461.5.461.238.461-.797-.208-1.19-.461zm-1.849-2.26c-.066-1.281.536-1.381 1.433-.238.585.746.57.768-.14.213-.672-.525-.827-.489-1.016.238-.176.677-.234.632-.278-.213z" fill="#2e2d2c"/><path d="M56.271 106.238c-2.585-1.365-2.659-1.977-.125-1.038 2.194.813 2.206.812 3.112-.307 1.088-1.344 1.156-1.969.213-1.969-.383 0-1.846-.43-3.251-.955-7.375-2.758-10.763-10.022-7.721-16.554 2.308-4.956 10.451-11.99 13.88-11.99 2.628 0 5.947 2.042 9.5 5.845 5.36 5.737 7.218 11.162 5.174 15.113-1.463 2.829-9.51 8.541-12.031 8.541-1.727 0-1.745.935-.043 2.263.619.483 1.155.46 2.797-.119 2.476-.873 2.387-.873 2.387-.019 0 1.598-4.932 2.585-7.162 1.433-1.288-.666-1.534-.667-2.476-.007-1.345.941-2.104.899-4.254-.236zm6.991-8.073c.753-.831.791-1.192.3-2.829-.773-2.578-2.575-3.915-5.036-3.734l-1.93.142-.145 2.541c-.21 3.668.671 4.834 3.652 4.834 1.692 0 2.522-.251 3.158-.953zm-9.382-6.514c.132-3.23.228-3.491 1.803-4.873.915-.803 2.696-1.983 3.958-2.622 5.029-2.547 6.574-5.136 4.295-7.198-.977-.884-1.038-.873-4.151.759-5.819 3.049-9.598 8.121-9.608 12.892-.005 2.451 1.451 4.858 2.786 4.604.619-.118.808-.85.918-3.561zm25.901-16.164c-1.987-.979-2.646-2.211-2.265-4.238.879-4.685 7.878-3.71 7.878 1.097 0 3.603-2.189 4.828-5.613 3.141zm4.899-2.768c0-1.089-1.598-1.6-2.16-.691-.589.952.048 1.938 1.149 1.78.642-.092 1.01-.488 1.01-1.089zm-39.031.13c-2.198-.773-2.618-1.295-2.618-3.251 0-3.602 3.407-5.868 6.046-4.021 2.154 1.508 2.554 6.338.611 7.377-1.082.579-2.174.55-4.039-.105zm4.438-2.947c.133-1.131.004-1.288-.947-1.153-1.25.178-1.78 1.732-.801 2.352.997.631 1.58.231 1.748-1.199z" fill="#181818"/></svg>