<svg xmlns="http://www.w3.org/2000/svg" xmlns:xlink="http://www.w3.org/1999/xlink" width="128" height="128" fill="none" xmlns:v="https://vecta.io/nano"><path d="M128 63.943l-.044-.281L95.947 9.807c-22.133.078-44.88-.123-63.867-.043L.044 63.662 0 63.948l32.047 53.909v-.011h63.911.006.011z" fill="#e25100"/><path d="M82.446 57.051h-8.299v-3.237h-3.32v21.039h3.32v8.092H53.675v-8.092h3.319V53.814h-3.319v3.237h-8.3V45.722h37.071z" fill="url(#A)"/><path d="M74.978 83.757H52.846v-9.71h3.32V54.625h-1.66v3.237h-9.959V44.915h38.731v12.947h-9.959v-3.237h-1.66v19.421h3.319zm-20.472-1.619h18.812v-6.474h-3.32V53.007h4.98v3.237h6.639v-9.71H46.207v9.71h6.64v-3.237h4.98v22.657h-3.32z" fill="#962700"/><path style="mix-blend-mode:overlay" opacity=".5" d="M44.162 97.321l-19.83-33.484 19.83-33.49h39.66l19.831 33.49-19.831 33.484z" fill="url(#B)"/><path style="mix-blend-mode:overlay" d="M32.08 9.764l12.082 20.583 39.663-.008L95.953 9.81z" fill="url(#C)"/><path style="mix-blend-mode:overlay" d="M34.365 10.149l11.221 18.083h36.839l11.304-18.083z" fill="url(#D)"/><g style="mix-blend-mode:multiply" opacity=".24"><path d="M95.976 117.851l-12.154-20.53h-39.66L32.044 117.85z" fill="#000"/></g><path style="mix-blend-mode:overlay" opacity=".25" d="M91.916 116.699L81.381 99.42H46.795l-10.618 17.279z" fill="url(#E)"/><path style="mix-blend-mode:overlay" d="M.044 63.662l24.284.163 19.834-33.478L32.08 9.764z" fill="url(#F)"/><g style="mix-blend-mode:multiply" opacity=".23"><path d="M128 63.943l-24.347-.106-19.831 33.484 12.153 20.53z" fill="#000"/></g><path style="mix-blend-mode:overlay" d="M125.419 67.429l-21.501-.102-17.595 29.606 10.74 18.202z" fill="url(#G)"/><g style="mix-blend-mode:multiply" opacity=".1"><path d="M32.044 117.854l12.118-20.533-19.83-33.485-24.328.113z" fill="#000"/></g><path style="mix-blend-mode:overlay" opacity=".53" d="M3.24 67.429l21.501-.102L42.33 96.932l-10.74 18.202z" fill="url(#H)"/><path style="mix-blend-mode:overlay" d="M2.917 60.948l21.496.113L42.007 31.45l-10.74-18.202z" fill="url(#I)"/><path style="mix-blend-mode:overlay" d="M95.951 9.817L83.824 30.349l19.829 33.488 24.303-.175z" fill="url(#J)"/><path style="mix-blend-mode:overlay" d="M125.085 60.948l-21.495.113L85.995 31.45l10.74-18.202z" fill="url(#K)"/><g fill="#fff"><path opacity=".7" d="M58.343 37.634c-3.43 1.624-13.041 7.671-13.041 7.671l-11.226 9.392c-.365.345 12.693-7.709 12.693-7.709z"/><path opacity=".7" d="M34.74 37.691l11.464 9.64 11.885 6.144c.1.043-10.872-7.677-10.872-7.677z"/><path d="M48.274 47.997c1.776-2.228 6.778-1.818 8.189-1.84h-1.35.498.852l-1.787-.119s-5.019-.658-6.086-1.823c-2.368-2.643-1.92-9.29-1.975-6.738-.188 8.631-8.814 8.631-11.619 8.68h1.439-.243-1.184c6.695.183 10.928.156 11.492 7.671.172 2.487-.293-3.237 1.776-5.832z"/></g><defs><linearGradient id="A" x1="45.375" y1="64.334" x2="82.446" y2="64.334" xlink:href="#L"><stop stop-color="#ffe800"/><stop offset=".83" stop-color="#d45900"/></linearGradient><linearGradient id="B" x1="24.332" y1="63.837" x2="103.645" y2="63.837" xlink:href="#L"><stop stop-color="#fff"/></linearGradient><linearGradient id="C" x1="8365.329" y1="1061.018" x2="8365.329" y2="258.61" xlink:href="#L"><stop stop-color="#fff"/></linearGradient><linearGradient id="D" x1="4591.098" y1="563.305" x2="10960.213" y2="563.305" xlink:href="#L"><stop stop-color="#fff"/></linearGradient><linearGradient id="E" x1="4497.546" y1="3474.372" x2="10112.746" y2="3474.372" xlink:href="#L"><stop stop-color="#fff"/></linearGradient><linearGradient id="F" x1="-77644.819" y1="-4926.162" x2="-75182.419" y2="-9284.545" xlink:href="#L"><stop stop-color="#fff"/></linearGradient><linearGradient id="G" x1="7863.679" y1="8462.339" x2="9270.186" y2="3861.017" xlink:href="#L"><stop stop-color="#fff"/></linearGradient><linearGradient id="H" x1="1055.947" y1="4440.75" x2="4080.864" y2="9222.179" xlink:href="#L"><stop stop-color="#fff"/></linearGradient><linearGradient id="I" x1="781.6" y1="3068.489" x2="3543.344" y2="3068.489" xlink:href="#L"><stop stop-color="#fff"/></linearGradient><linearGradient id="J" x1="38526.833" y1="60253.766" x2="40991.739" y2="64616.433" xlink:href="#L"><stop stop-color="#fff"/></linearGradient><linearGradient id="K" x1="6734.506" y1="3068.489" x2="9495.839" y2="3068.489" xlink:href="#L"><stop stop-color="#fff"/></linearGradient><linearGradient id="L" gradientUnits="userSpaceOnUse"/></defs></svg>