<svg xmlns="http://www.w3.org/2000/svg" width="128" height="128" viewBox="0 0 33.867 33.867" xmlns:v="https://vecta.io/nano"><defs><linearGradient id="A" x1="4.022" y1="6.093" x2="29.971" y2="27.69" gradientUnits="userSpaceOnUse"><stop offset="0" stop-color="#12d145"/><stop offset="1" stop-color="#24b66f"/></linearGradient></defs><circle cx="16.933" cy="16.933" r="16.933" fill="url(#A)"/><g fill="#fff"><circle opacity=".2" cx="16.933" cy="16.933" r="16.933"/><path d="M16.933 33.867a16.8 16.8 0 0 1-4.268-.552c-4.377-1.143-8.044-3.913-10.331-7.817C.047 21.604-.584 17.041.55 12.664a16.77 16.77 0 0 1 7.817-10.33C12.271.047 16.825-.584 21.202.55c4.377 1.143 8.044 3.913 10.331 7.817A16.85 16.85 0 0 1 33.317 21.2c-1.981 7.61-8.862 12.666-16.383 12.666zM16.904.392a16.43 16.43 0 0 0-8.34 2.277A16.45 16.45 0 0 0 .925 12.763 16.46 16.46 0 0 0 2.66 25.301a16.45 16.45 0 0 0 10.094 7.639c8.823 2.297 17.872-3.006 20.169-11.828a16.46 16.46 0 0 0-1.735-12.538A16.45 16.45 0 0 0 21.093.934a16.4 16.4 0 0 0-4.189-.542zM9.079 7.193c-.089 0-.177-.039-.236-.118-.099-.128-.079-.315.049-.414 2.355-1.833 5.282-2.819 8.258-2.77.168 0 .296.138.296.296s-.138.296-.296.286c-2.838-.049-5.637.897-7.873 2.642a.3.3 0 0 1-.197.079zm8.987 22.74c-.148 0-.276-.118-.296-.266-.01-.168.108-.306.266-.325a12.39 12.39 0 0 0 6.573-2.602c1.902-1.488 3.321-3.489 4.109-5.766.049-.158.217-.237.374-.187s.237.217.187.375c-.818 2.385-2.306 4.475-4.296 6.042-1.991 1.557-4.375 2.504-6.888 2.721-.02.01-.02.01-.029.01zm-4.631-.444c-.029 0-.049 0-.079-.01a12.97 12.97 0 0 1-6.691-4.505c-1.409-1.804-2.326-3.953-2.641-6.21-.02-.158.089-.315.256-.335.158-.02.315.089.335.256a12.43 12.43 0 0 0 2.523 5.924 12.33 12.33 0 0 0 6.385 4.298c.158.049.246.207.207.365-.049.138-.167.217-.296.217zm16.24-12.725c-.158 0-.286-.128-.296-.286-.089-2.642-1.005-5.136-2.641-7.225a12.52 12.52 0 0 0-5.154-3.884c-.148-.059-.227-.237-.167-.384s.236-.227.384-.168c2.119.848 3.981 2.257 5.4 4.061a12.93 12.93 0 0 1 2.769 7.57c.01.168-.118.296-.286.306z"/><path d="M4.517 14.369c-.02 0-.039 0-.069-.01-.158-.039-.256-.197-.227-.355.67-2.898 2.326-5.51 4.671-7.344.128-.099.315-.079.414.049s.079.315-.049.414c-2.237 1.755-3.823 4.248-4.464 7.008-.02.138-.148.237-.276.237zm8.287 4.229a2.65 2.65 0 0 1-.916-.069c-1.389-.365-2.217-1.774-1.853-3.164s1.774-2.218 3.163-1.853c.079.02.148.039.217.069l.266-1.025-.217-.059a3.65 3.65 0 1 0-1.843 7.067 3.66 3.66 0 0 0 1.695.039 4.39 4.39 0 0 1-.512-1.005zm2.247-1.912a2.55 2.55 0 0 1-.788 1.272 2.43 2.43 0 0 0 .532.927 3.63 3.63 0 0 0 1.271-1.942l1.399-5.372-1.025-.266-.749 2.878a3.55 3.55 0 0 0-.601-.769l-.335 1.272a2.56 2.56 0 0 1 .296 2.001zm7.134-6.063a3.65 3.65 0 0 0-4.454 2.612c0 .01 0 .02-.01.029l-1.389 5.343 1.025.266.749-2.888c.227.384.512.729.867 1.005l.305-1.173a2.59 2.59 0 0 1-.522-2.316c.365-1.39 1.774-2.218 3.163-1.853s2.217 1.774 1.853 3.164c-.355 1.36-1.715 2.178-3.075 1.873l-.266 1.025a3.65 3.65 0 0 0 4.365-2.632c.512-1.962-.66-3.953-2.611-4.455zm-3.183 7.324a2.59 2.59 0 0 1-3.163 1.853c-1.389-.365-2.217-1.774-1.853-3.164l1.005-3.864.246-.946-1.015-.266-.246.946c-.01.039-.02.079-.039.118l-1.045 4.031h.01a3.65 3.65 0 0 0 2.67 4.17 3.61 3.61 0 0 0 2.779-.394l-.404 1.538c-.365 1.39-1.774 2.218-3.163 1.853-.749-.197-1.33-.7-1.656-1.331a2.47 2.47 0 0 1-.276-1.055l-.995.582c.069.355.197.7.365 1.015a3.67 3.67 0 0 0 2.306 1.824 3.63 3.63 0 0 0 3.823-1.331 3.69 3.69 0 0 0 .621-1.281l.897-3.43.148-.582.897-3.43-1.025-.266z"/></g></svg>