<svg xmlns="http://www.w3.org/2000/svg" width="128" height="128" xmlns:v="https://vecta.io/nano"><g transform="scale(.5)" fill-rule="evenodd"><circle fill="#fff" cx="128" cy="128" r="128"/><path d="M47.114 115.912c4.866-1.811 8.706-5.645 10.527-10.508-2.924-5.363-1.966-12.011 2.353-16.33a13.77 13.77 0 0 1 16.327-2.353 16.69 16.69 0 0 0 6.395-4.105 16.82 16.82 0 0 0 4.104-6.403c-3.16-5.79-1.769-13.009 3.318-17.209a13.76 13.76 0 0 1 17.524 0c5.086 4.2 6.478 11.419 3.318 17.209.86 2.42 2.264 4.611 4.104 6.403a16.71 16.71 0 0 0 6.402 4.105c1.231.048 9.432.513 14.761 7.409 2.46 3.252 3.832 7.197 3.919 11.274 1.817 4.868 5.662 8.703 10.534 10.508a13.76 13.76 0 0 1 17.207 3.318c4.199 5.087 4.199 12.439 0 17.526a13.76 13.76 0 0 1-17.207 3.318c-4.862 1.816-8.697 5.652-10.513 10.515 2.924 5.363 1.966 12.011-2.353 16.33a13.77 13.77 0 0 1-16.327 2.353c-4.865 1.811-8.703 5.649-10.513 10.515 3.16 5.79 1.769 13.009-3.318 17.209a13.76 13.76 0 0 1-17.524 0c-5.086-4.2-6.478-11.419-3.318-17.209-1.816-4.863-5.651-8.698-10.513-10.515a13.76 13.76 0 0 1-16.333-2.342c-4.321-4.32-5.277-10.972-2.347-16.334-1.824-4.862-5.663-8.696-10.527-10.515a13.76 13.76 0 0 1-17.202-3.323c-4.197-5.087-4.197-12.436 0-17.522a13.76 13.76 0 0 1 17.202-3.323zm5.472 5.473a13.78 13.78 0 0 1 0 13.196c1.821 4.871 5.663 8.714 10.534 10.535a13.76 13.76 0 0 1 16.34 2.341c4.322 4.323 5.276 10.979 2.34 16.342 1.816 4.863 5.651 8.698 10.513 10.515 4.112-2.244 9.082-2.244 13.194 0 4.862-1.816 8.697-5.652 10.513-10.515-2.924-5.363-1.966-12.011 2.353-16.33a13.77 13.77 0 0 1 16.327-2.353c4.862-1.816 8.697-5.652 10.513-10.515-2.237-4.114-2.237-9.082 0-13.196-1.811-4.866-5.648-8.704-10.513-10.515-3.873-.561-7.529-2.133-10.602-4.556a23 23 0 0 1-8.078-14.092c-1.806-4.874-5.644-8.72-10.513-10.535a13.81 13.81 0 0 1-13.194 0c-4.865 1.811-8.703 5.649-10.513 10.515 2.912 5.362 1.949 12.001-2.367 16.314a13.77 13.77 0 0 1-16.313 2.355c-4.865 1.807-8.708 5.635-10.534 10.494z" fill="#217f52"/><path d="M121.311 110.877a17.87 17.87 0 0 0-10.516 10.515 13.81 13.81 0 0 1 0 13.196 16.71 16.71 0 0 0 4.105 6.403c1.992 2.08 4.506 3.588 7.28 4.365 2.374.575.684 3.906-.766 5.343s-4.789 3.14-5.344.766c-.777-2.773-2.285-5.287-4.365-7.279-1.791-1.842-3.982-3.247-6.404-4.105a13.77 13.77 0 0 1-17.207-3.323c-4.199-5.087-4.199-12.436 0-17.522a13.77 13.77 0 0 1 17.207-3.323 17.87 17.87 0 0 0 10.516-10.515c-2.93-5.362-1.974-12.014 2.348-16.334a13.77 13.77 0 0 1 16.337-2.342c2.419-.863 4.61-2.267 6.404-4.105 1.841-1.791 3.246-3.982 4.105-6.403-3.161-5.79-1.769-13.009 3.319-17.209a13.77 13.77 0 0 1 17.528 0c5.088 4.2 6.48 11.419 3.319 17.209.857 2.422 2.262 4.613 4.105 6.403 1.791 1.839 3.979 3.243 6.397 4.105a13.77 13.77 0 0 1 16.337 2.342c4.322 4.32 5.278 10.972 2.348 16.334a17.87 17.87 0 0 0 10.516 10.515 13.77 13.77 0 0 1 17.207 3.323c4.199 5.087 4.199 12.436 0 17.522a13.77 13.77 0 0 1-17.207 3.323 17.87 17.87 0 0 0-10.516 10.515c2.93 5.362 1.974 12.014-2.348 16.334a13.77 13.77 0 0 1-16.337 2.342c-4.86 1.822-8.694 5.656-10.516 10.515 3.161 5.79 1.769 13.009-3.319 17.209a13.77 13.77 0 0 1-17.528 0c-5.088-4.2-6.48-11.419-3.319-17.209-.861-2.418-2.265-4.606-4.105-6.396a16.12 16.12 0 0 0-7.28-4.365c-2.374-.581-.684-3.906.766-5.343s4.789-3.14 5.344-.773c.776 2.775 2.284 5.292 4.365 7.286a16.75 16.75 0 0 0 6.404 4.105 13.78 13.78 0 0 1 13.198 0 17.92 17.92 0 0 0 10.516-10.515 13.77 13.77 0 0 1 2.353-16.33c4.32-4.319 10.969-5.277 16.332-2.353a17.92 17.92 0 0 0 10.516-10.515c-2.244-4.113-2.244-9.084 0-13.196a17.92 17.92 0 0 0-10.516-10.515c-5.363 2.924-12.012 1.966-16.332-2.353a13.77 13.77 0 0 1-2.353-16.33A17.92 17.92 0 0 0 163.69 81.68a13.78 13.78 0 0 1-13.198 0 16.75 16.75 0 0 0-6.404 4.105 16.87 16.87 0 0 0-4.105 6.403c2.932 5.361 1.978 12.013-2.342 16.335a13.77 13.77 0 0 1-16.336 2.348z" fill="#2db269"/><circle fill="#217f52" fill-rule="nonzero" cx="129.164" cy="156.897" r="13.964"/></g></svg>