<svg xmlns="http://www.w3.org/2000/svg" width="128" height="128" viewBox="0 0 33.867 33.867" xmlns:v="https://vecta.io/nano"><defs><linearGradient id="A" x1="31.549" y1="17.136" x2="6.603" y2="17.071" gradientUnits="userSpaceOnUse"><stop offset="0" stop-color="#e9d775"/><stop offset=".497" stop-color="#c0ad4d"/><stop offset=".983" stop-color="#e4d468"/></linearGradient><linearGradient id="B" x1="2.233" y1="17.08" x2="27.65" y2="17.08" gradientUnits="userSpaceOnUse"><stop offset="0" stop-color="#d7a96f"/><stop offset="1" stop-color="#836345"/></linearGradient></defs><circle cx="16.933" cy="16.933" r="16.933" fill="#1f1f1f"/><g stroke="#000" stroke-width=".529"><path d="M31.549 21.07v-7.868l-6.954-4.138-14.834 8.293-3.158-1.797v3.021l3.158 1.714 14.834-8.181 4.316 2.754v4.771l-4.316 2.269-4.077-2.717-2.544 1.399 6.621 4.438z" fill="url(#A)"/><path d="M24.595 16.949l2.791 1.632V15.56l-2.791-1.712-14.834 8.079-4.556-2.624-.013-4.744 4.569-2.445 4.29 2.845 2.354-1.316-6.644-4.578-7.263 4.138v7.868l7.263 4.034z" fill="url(#B)"/></g></svg>