<svg xmlns="http://www.w3.org/2000/svg" width="128" height="128" xmlns:v="https://vecta.io/nano"><path d="M64 128a63.85 63.85 0 0 0 64-64A63.85 63.85 0 0 0 64 0 63.85 63.85 0 0 0 0 64a63.85 63.85 0 0 0 64 64z" fill="#2775ca"/><path d="M81.6 74.133C81.6 64.8 76 61.6 64.8 60.267c-8-1.067-9.6-3.2-9.6-6.934s2.667-6.133 8-6.133c4.8 0 7.467 1.6 8.8 5.6.267.8 1.067 1.333 1.867 1.333h4.266A1.82 1.82 0 0 0 80 52.267V52c-1.067-5.867-5.867-10.4-12-10.933v-6.4c0-1.067-.8-1.867-2.133-2.134h-4c-1.067 0-1.867.8-2.134 2.134V40.8c-8 1.067-13.066 6.4-13.066 13.067 0 8.8 5.333 12.266 16.533 13.6 7.467 1.333 9.867 2.933 9.867 7.2s-3.734 7.2-8.8 7.2c-6.934 0-9.334-2.934-10.134-6.934-.266-1.066-1.066-1.6-1.866-1.6h-4.534a1.82 1.82 0 0 0-1.866 1.867v.267C46.933 82.133 51.2 86.933 60 88.267v6.4c0 1.066.8 1.866 2.133 2.133h4c1.067 0 1.867-.8 2.134-2.133v-6.4c8-1.334 13.333-6.934 13.333-14.134zm-31.2 28c-20.8-7.466-31.467-30.666-23.733-51.2 4-11.2 12.8-19.733 23.733-23.733 1.067-.533 1.6-1.333 1.6-2.667V20.8c0-1.067-.533-1.867-1.6-2.133-.267 0-.8 0-1.067.266-25.333 8-39.2 34.934-31.2 60.267 4.8 14.933 16.267 26.4 31.2 31.2 1.067.533 2.134 0 2.4-1.067.267-.266.267-.533.267-1.066v-3.734c0-.8-.8-1.866-1.6-2.4zm28.267-83.2c-1.067-.533-2.134 0-2.4 1.067-.267.267-.267.533-.267 1.067V24.8c0 1.067.8 2.133 1.6 2.667 20.8 7.466 31.467 30.666 23.733 51.2-4 11.2-12.8 19.733-23.733 23.733-1.067.533-1.6 1.333-1.6 2.667v3.733c0 1.067.533 1.867 1.6 2.133.267 0 .8 0 1.067-.266 25.333-8 39.2-34.934 31.2-60.267-4.8-15.2-16.534-26.667-31.2-31.467z" fill="#fff"/></svg>