<svg xmlns="http://www.w3.org/2000/svg" width="128" height="128" xmlns:v="https://vecta.io/nano"><circle cx="64" cy="64" r="64" fill="#129487"/><g transform="scale(1.6)"><path d="M25.3 40.5h-2.7v16.4h2.7v2.8h32.9V46.1h-5.5v-3h2.8v-2.8h2.7V24h-2.7v-2.8H22.6v13.6h2.7z" fill="#fff"/><g fill="#e4e4e4"><path d="M52.8 29.4v-2.8-2.7h-2.7v2.7 2.8 2.8 2.7 2.8h2.7v-2.8-2.7z"/><path d="M47.3 37.7h2.8v2.8h-2.8z"/><path d="M47.3 43.2v-2.8h-2.8-2.7v2.8h2.7z"/><path d="M39 43.2h2.8V46H39zm-11 8.3h-2.7v2.8H28h2.8 2.7 2.8H39h2.8 2.7 2.8 2.8 2.7v-2.8-2.8V46h-2.7v2.7 2.8h-2.8-2.8-2.7H39h-2.7-2.8-2.7z"/></g><g fill="#129487"><path d="M55.6 26.6h-2.8v2.8 2.8 2.7 2.8h2.8v-2.8-2.7-2.8z"/><path d="M50.1 37.7h2.8v2.8h-2.8z"/><path d="M47.3 40.4h2.8v2.8h-2.8zm-5.5 2.8h2.8V46h-2.8zM28 32.2v2.7h2.8 2.7 2.8H39h2.8v-2.7H39h-2.7-2.8-2.7zm2.8 22.1H28V57h2.8 2.7 2.8H39h2.8 2.7 2.8 2.8 2.7 2.8v-2.7-2.8-2.8h-2.8v2.8 2.8h-2.7-2.8-2.8-2.7H39h-2.7-2.8z"/></g><path d="M33.5 21.1h-2.7H28h-2.7-2.8v2.8 2.7 2.8 2.8 2.7h2.8v2.8 2.7H28v-2.7h2.8 2.7v-2.8h-2.7H28v-2.7h-2.7v-2.8-2.8-2.7H28h2.8 2.7 2.8H39h2.8 2.7 2.8 2.8 2.7v2.7h2.8v2.8 2.8 2.7 2.8h-2.8v2.7h-2.7v2.8h-2.8-2.8V46h2.8 2.8 2.7v-2.8h2.8v-2.8h2.7v-2.7-2.8-2.7-2.8-2.8-2.7h-2.7v-2.8h-2.8-2.7-2.8-2.8-2.7H39h-2.7z"/><path d="M39 57h-2.7-2.8-2.7H28v-2.7h-2.7v-2.8-2.8V46v-2.8-2.8h-2.8v2.8V46v2.7 2.8 2.8V57h2.8v2.8H28h2.8 2.7 2.8H39h2.8 2.7 2.8 2.8 2.7 2.8 2.7V57v-2.7-2.8-2.8V46h-2.7-2.8v2.7h2.8v2.8 2.8V57h-2.8-2.7-2.8-2.8-2.7z"/></g></svg>