<svg xmlns="http://www.w3.org/2000/svg" xmlns:xlink="http://www.w3.org/1999/xlink" width="128" height="128" viewBox="0 0 33.867 33.867" xmlns:v="https://vecta.io/nano"><defs><linearGradient xlink:href="#B" id="A" x1="2.177" y1="60.09" x2="47.67" y2="83.778"/><linearGradient id="B" xlink:href="#J"><stop offset="0" stop-color="#e4a905"/><stop offset="1" stop-color="#f1c158"/></linearGradient><linearGradient xlink:href="#D" id="C" x1="2.177" y1="60.182" x2="48.2" y2="83.517"/><linearGradient id="D" xlink:href="#J"><stop offset="0" stop-color="#c88e00"/><stop offset="1" stop-color="#f1c158"/></linearGradient><linearGradient id="E" x1="52.65" y1="82.875" x2="97.475" y2="60.25" xlink:href="#J"><stop offset="0" stop-color="#f1c158"/><stop offset="1" stop-color="#e4a905"/></linearGradient><linearGradient id="F" x1="52.65" y1="83.325" x2="97.85" y2="60.2" xlink:href="#J"><stop offset="0" stop-color="#f1c158"/><stop offset="1" stop-color="#c88e00"/></linearGradient><linearGradient xlink:href="#B" id="G" x1="32.396" y1="9.462" x2="74.996" y2="36.736"/><linearGradient xlink:href="#D" id="H" x1="31.748" y1="9.626" x2="74.852" y2="37.046"/><linearGradient id="I" x1="13.757" y1="18.532" x2="23.447" y2="13.276" xlink:href="#J"><stop offset="0" stop-color="#cd940b"/><stop offset=".21" stop-color="#ffd67a"/><stop offset="1" stop-color="#d90b18"/></linearGradient><linearGradient id="J" gradientUnits="userSpaceOnUse"/></defs><circle cx="16.933" cy="16.933" r="16.933" fill="#fff" paint-order="fill markers stroke"/><path d="M22.288 13.109l-3.166 5.506-1.019-1.762 1.955-3.744h-9.416l6.305 10.848 2.203-3.799.551-.936 3.552-6.112zm-3.249.661l-1.349 2.34-1.377-2.34zm-2.092 8.59l-5.011-8.59h3.497l3.249 5.589z" fill="url(#I)"/><g transform="matrix(.275321 0 0 .275321 3.153525 1.930537)"><path transform="matrix(1.000802 .001467 -.001466 1.001391 -.016096 -.062486)" d="M31.3 9.1l43.8 28-6.5-28z" fill="url(#G)"/><path d="M24.8 37.2h50.3L31.3 9.1z" fill="url(#H)"/><path d="M79.5 92.2l18.6-32.4-46.2 23.9z" fill="url(#E)"/><path d="M77.1 40.2L51.9 83.7l46.2-23.9z" fill="url(#F)"/><path d="M20.7 92.2L2 59.8l46.2 23.9z" fill="url(#A)"/><path d="M23.1 40.2l25.1 43.5L2 59.8z" fill="url(#C)"/></g></svg>