<svg xmlns="http://www.w3.org/2000/svg" xmlns:xlink="http://www.w3.org/1999/xlink" width="128" height="128" viewBox="0 0 33.867 33.867" xmlns:v="https://vecta.io/nano"><defs><linearGradient x1="4.966" y1="8.324" x2="4.966" y2="26.538" id="A" xlink:href="#M"><stop stop-color="#a6e50f" offset="0%"/><stop stop-color="#02d0e1" offset="100%"/></linearGradient><mask id="B" fill="#fff"><path d="M3.228 6.462A3.23 3.23 0 0 1 0 3.231 3.23 3.23 0 0 1 3.228 0a3.23 3.23 0 0 1 3.228 3.231 3.23 3.23 0 0 0 3.228 3.231 3.23 3.23 0 1 1 0 6.462 3.23 3.23 0 0 1-3.228-3.231 3.23 3.23 0 0 0-3.228-3.231zm.03 13.103a3.26 3.26 0 1 1 0-6.522 3.26 3.26 0 1 1 0 6.522z"/></mask><linearGradient x1="5.412" y1="7.903" x2="6.902" y2="9.147" id="C" gradientTransform="scale(0.81240386,1.2309149)" xlink:href="#M"><stop stop-color="#a6e50f" offset="0%"/><stop stop-color="#02d0e1" offset="100%"/></linearGradient><mask id="D" fill="#fff"><path d="M3.228 6.462A3.23 3.23 0 0 1 0 3.231 3.23 3.23 0 0 1 3.228 0a3.23 3.23 0 0 1 3.228 3.231 3.23 3.23 0 0 0 3.228 3.231 3.23 3.23 0 1 1 0 6.462 3.23 3.23 0 0 1-3.228-3.231 3.23 3.23 0 0 0-3.228-3.231zm.03 13.103a3.26 3.26 0 1 1 0-6.522 3.26 3.26 0 1 1 0 6.522z"/></mask><linearGradient x1="3.674" y1="12.076" x2="3.674" y2="41.946" id="E" xlink:href="#M"><stop stop-color="#0072ff" offset="0%"/><stop stop-color="#00effe" offset="100%"/></linearGradient><mask id="F" fill="#fff"><path d="M12.913 28.878a3.22 3.22 0 0 1-3.228 3.209 3.22 3.22 0 0 1-3.228-3.209 3.22 3.22 0 0 0-3.228-3.209A3.22 3.22 0 0 1 0 22.461a3.22 3.22 0 0 1 3.228-3.209 3.22 3.22 0 0 0 3.228-3.209 3.22 3.22 0 0 0-3.228-3.209A3.22 3.22 0 0 1 0 9.626a3.22 3.22 0 0 1 3.228-3.209 3.22 3.22 0 0 0 3.228-3.209A3.22 3.22 0 0 1 9.685 0a3.22 3.22 0 0 1 3.228 3.209 3.22 3.22 0 0 1-3.228 3.209 3.22 3.22 0 0 0-3.228 3.209 3.22 3.22 0 0 0 3.228 3.209 3.22 3.22 0 0 1 3.228 3.209 3.22 3.22 0 0 1-3.228 3.209 3.22 3.22 0 0 0-3.228 3.209 3.22 3.22 0 0 0 3.228 3.209 3.22 3.22 0 0 1 3.228 3.209z"/></mask><linearGradient x1="4.245" y1="19.826" x2="4.08" y2="12.42" id="G" xlink:href="#M"><stop stop-color="#0072ff" offset="0%"/><stop stop-color="#00effe" offset="100%"/></linearGradient><mask id="H" fill="#fff"><path d="M12.913 28.878a3.22 3.22 0 0 1-3.228 3.209 3.22 3.22 0 0 1-3.228-3.209 3.22 3.22 0 0 0-3.228-3.209A3.22 3.22 0 0 1 0 22.461a3.22 3.22 0 0 1 3.228-3.209 3.22 3.22 0 0 0 3.228-3.209 3.22 3.22 0 0 0-3.228-3.209A3.22 3.22 0 0 1 0 9.626a3.22 3.22 0 0 1 3.228-3.209 3.22 3.22 0 0 0 3.228-3.209A3.22 3.22 0 0 1 9.685 0a3.22 3.22 0 0 1 3.228 3.209 3.22 3.22 0 0 1-3.228 3.209 3.22 3.22 0 0 0-3.228 3.209 3.22 3.22 0 0 0 3.228 3.209 3.22 3.22 0 0 1 3.228 3.209 3.22 3.22 0 0 1-3.228 3.209 3.22 3.22 0 0 0-3.228 3.209 3.22 3.22 0 0 0 3.228 3.209 3.22 3.22 0 0 1 3.228 3.209z"/></mask><linearGradient x1="3.498" y1="14.686" x2="3.498" y2="56.577" id="I" xlink:href="#M"><stop stop-color="#fede00" offset="0%"/><stop stop-color="#ff5320" offset="100%"/></linearGradient><mask id="J" fill="#fff"><path d="M3.243 25.731C1.452 25.731 0 24.284 0 22.5s1.452-3.231 3.243-3.231 3.243 1.447 3.243 3.231-1.452 3.231-3.243 3.231zm22.583 16.055a3.22 3.22 0 1 1-6.447 0 3.22 3.22 0 0 0-3.223-3.214 3.22 3.22 0 0 1-3.223-3.214 3.22 3.22 0 0 0-3.223-3.214 3.22 3.22 0 0 1-3.223-3.214 3.22 3.22 0 0 1 3.223-3.214 3.22 3.22 0 0 0 3.223-3.214 3.22 3.22 0 0 0-3.223-3.214 3.22 3.22 0 0 1-3.223-3.214 3.22 3.22 0 0 1 3.223-3.214 3.22 3.22 0 0 0 3.223-3.214 3.22 3.22 0 0 1 3.223-3.214 3.22 3.22 0 0 0 3.223-3.214 3.22 3.22 0 1 1 6.447 0 3.22 3.22 0 0 1-3.223 3.214 3.22 3.22 0 0 0-3.223 3.214 3.22 3.22 0 0 1-3.223 3.214 3.22 3.22 0 0 0-3.223 3.214 3.22 3.22 0 0 0 3.223 3.214 3.22 3.22 0 0 1 3.223 3.214 3.22 3.22 0 0 1-3.223 3.214 3.22 3.22 0 0 0-3.223 3.214 3.22 3.22 0 0 0 3.223 3.214 3.22 3.22 0 0 1 3.223 3.214 3.22 3.22 0 0 0 3.223 3.214 3.22 3.22 0 0 1 3.223 3.214z"/></mask><linearGradient x1="4.857" y1="13.857" x2="11.644" y2="20.264" id="K" gradientTransform="scale(0.75757049,1.3200092)" xlink:href="#M"><stop stop-color="#fede00" offset="0%"/><stop stop-color="#ff5320" offset="100%"/></linearGradient><mask id="L" fill="#fff"><path d="M3.243 25.731C1.452 25.731 0 24.284 0 22.5s1.452-3.231 3.243-3.231 3.243 1.447 3.243 3.231-1.452 3.231-3.243 3.231zm22.583 16.055a3.22 3.22 0 1 1-6.447 0 3.22 3.22 0 0 0-3.223-3.214 3.22 3.22 0 0 1-3.223-3.214 3.22 3.22 0 0 0-3.223-3.214 3.22 3.22 0 0 1-3.223-3.214 3.22 3.22 0 0 1 3.223-3.214 3.22 3.22 0 0 0 3.223-3.214 3.22 3.22 0 0 0-3.223-3.214 3.22 3.22 0 0 1-3.223-3.214 3.22 3.22 0 0 1 3.223-3.214 3.22 3.22 0 0 0 3.223-3.214 3.22 3.22 0 0 1 3.223-3.214 3.22 3.22 0 0 0 3.223-3.214 3.22 3.22 0 1 1 6.447 0 3.22 3.22 0 0 1-3.223 3.214 3.22 3.22 0 0 0-3.223 3.214 3.22 3.22 0 0 1-3.223 3.214 3.22 3.22 0 0 0-3.223 3.214 3.22 3.22 0 0 0 3.223 3.214 3.22 3.22 0 0 1 3.223 3.214 3.22 3.22 0 0 1-3.223 3.214 3.22 3.22 0 0 0-3.223 3.214 3.22 3.22 0 0 0 3.223 3.214 3.22 3.22 0 0 1 3.223 3.214 3.22 3.22 0 0 0 3.223 3.214 3.22 3.22 0 0 1 3.223 3.214z"/></mask><linearGradient id="M" gradientUnits="userSpaceOnUse"/></defs><circle cx="16.933" cy="16.933" r="16.933" fill="#fff"/><g transform="matrix(2.666667 0 0 2.666667 -19.620637 -15.896885)"><g transform="matrix(.264583 0 0 .264583 7.754614 6.358207)"><path fill="url(#I)" mask="url(#J)" d="M-17.571 87.063h129.72V-42.18h-129.72z"/><path fill="url(#K)" mask="url(#L)" d="M-17.571 87.063h129.72V-42.18h-129.72z"/></g><g transform="matrix(.264583 0 0 .264583 12.827712 8.118261)"><path fill="url(#E)" mask="url(#F)" d="M-37.081 80.334H93.235V-48.482H-37.081z"/><path fill="url(#G)" mask="url(#H)" d="M-37.081 80.334H93.235V-48.482H-37.081z"/></g><g transform="matrix(.264583 0 0 .264583 16.244288 9.67125)"><path fill="url(#A)" mask="url(#B)" d="M-50.112 74.941H80.203V-55.494H-50.112z"/><path fill="url(#C)" mask="url(#D)" d="M-50.112 74.941H80.203V-55.494H-50.112z"/></g></g></svg>