<svg xmlns="http://www.w3.org/2000/svg" width="128" height="128" xmlns:v="https://vecta.io/nano"><path d="M64 0h0c35.347 0 64 28.655 64 64h0c0 35.347-28.653 64-64 64h0C28.655 128 0 99.347 0 64h0C0 28.655 28.655 0 64 0z" fill="#1c7eff"/><path d="M104.054 32.061l-4.639.516-2.677.298c-.774.085-1.647.151-2.206.76-.809.879-.038 2.011.62 2.703l1.963 2.075.676.712c.051.057-.534.628-.602.703l-3.437 3.743-.168.182c-1.13-1.577-2.356-3.094-3.671-4.52l-1.793-1.866c-.048-.048-.327-.395-.386-.337l-.489.453-.441.412c-.062.055.337.44.386.497l1.696 2.031 1.761 2.38.82 1.222.418.659.203.33c.128.213.142.213-.027.395l-2.136 2.324c-3.288-6.176-8.398-11.415-14.716-14.486-7.463-3.631-16.165-4.092-24.016-1.446-7.846 2.648-14.496 8.293-18.51 15.515-4.006 7.207-5.246 15.889-3.55 23.946.223 1.057.498 2.102.82 3.136.053.168.115.209-.014.347l-.274.285-.536.564-1.117 1.182-3.677 3.879-3.922 4.144c-.019.02-.168.151-.144.172l.955.92c.105.104.188.295.304.173.137-.133.273-.274.408-.411l5.027-5.122 3.783-3.855c2.047 5.264 5.367 9.904 9.649 13.571 6.441 5.52 15.115 8.273 23.56 7.523a32.51 32.51 0 0 0 11.96-3.464c3.122-1.598 5.867-3.703 8.386-6.128 2.219-2.138 4.091-4.723 5.573-7.41a33.63 33.63 0 0 0 3.872-11.663c.473-3.544.416-7.135-.175-10.658a35.5 35.5 0 0 0-1.206-4.933 25.33 25.33 0 0 0-.385-1.126c-.062-.182-.215-.381-.066-.529l.54-.54 1.962-1.937c1.797 3.742 2.876 7.918 3.254 12.04.395 4.274.008 8.617-1.13 12.754-.687 2.496-1.599 4.939-2.753 7.254-1.037 2.071-2.213 4.031-3.481 5.963l4.325 2.739c1.824-3.23 3.423-6.54 4.576-10.077 1.293-3.969 2.074-8.172 2.095-12.354.022-4.291-.599-8.527-1.934-12.609-.644-1.963-1.434-3.882-2.383-5.721l-.662-1.26c-.059-.099-.111-.198-.171-.294-.085-.151.02-.171.128-.279l.624-.614 2.112-2.085 2.156-2.137 3.185 3.361c.693.733 1.986 1.516 2.617.273.309-.608.298-1.318.329-1.986l.296-5.883.122-2.446c.04-.776.031-1.528-.332-2.242-.626-1.247-1.981-1.87-3.333-1.719zM32.683 69.104c-1.857-7.689-.488-16.068 3.735-22.757 4.164-6.598 10.889-11.324 18.629-12.599 7.962-1.311 16.232 1.226 22.309 6.477 2.497 2.159 4.646 4.764 6.242 7.655.456.828.872 1.678 1.243 2.547.193.454.375.911.543 1.369.077.202.283.531.13.697l-.602.653-4.141 4.462-8.663 9.303-4.442 4.76-1.571 1.685c-.367.389-1.153 1.219-1.768.943-.797-.357-.9-1.801-1.046-2.565l-1.159-6.162-2.32-12.517c-.37-1.793-1.394-3.69-3.409-3.903-1.359-.145-2.634.554-3.581 1.477-.97.939-1.875 1.952-2.805 2.932l-4.489 4.739L33.27 71.228c-.221-.702-.419-1.41-.587-2.124-1.314-5.45.168.714 0 0zm30.564-32.055c2.674.538 5.265 1.547 7.575 3.01 2.114 1.339 3.915 2.993 5.566 4.868l-3.041 2.375c-1.072-1.398-2.232-2.648-3.574-3.791-1.542-1.308-3.388-2.331-5.269-3.058-3.947-1.526-8.259-1.693-12.362-.753-2.467.565-4.847 1.614-6.981 2.967-1.004.635-1.937 1.351-2.852 2.103-.08.066-.089.114-.154.037a13.15 13.15 0 0 0-.269-.304l-.528-.602c2.739-2.588 5.834-4.665 9.402-5.935 3.978-1.418 8.351-1.756 12.489-.918zm10.441 49.877c-6.809 4.318-15.497 5.313-23.094 2.563-2.205-.796-4.284-1.875-6.224-3.183-.923-.627-1.831-1.311-2.65-2.066l-.485-.442-.251-.224c-.019-.017-.151-.145-.077-.062-1.697-1.719-3.241-3.507-4.538-5.554-.551-.869-1.048-1.771-1.498-2.702-.216-.443-.422-.893-.616-1.349-.078-.187-.303-.507-.151-.659l.599-.614 3.968-4.04 8.61-8.771 4.572-4.659c.912-.929 1.796-1.901 2.754-2.78.409-.364 1.091-.878 1.666-.651.774.298.927 1.506 1.049 2.206l1.104 6.325 2.104 12.213c.154.908.291 1.88.767 2.683.842 1.433 2.214 2.377 3.945 2.084 1.474-.253 2.551-1.267 3.566-2.283l4.598-4.611 13.348-13.357c.569 3.638.506 7.342-.235 10.953l-.048.226.019-.09.264-1.203-.009.042-.14.674-.019.092c-.145.689-.298 1.398-.121.511-1.504 7.574-6.255 14.588-12.778 18.727z" fill="#fff"/></svg>