<svg xmlns="http://www.w3.org/2000/svg" width="128" height="128" viewBox="0 0 33.867 33.867" xmlns:v="https://vecta.io/nano"><circle cx="16.933" cy="16.933" r="16.933" fill="#1b1b1e" paint-order="stroke fill markers"/><path d="M9.153 18.173l.043-.112v-.198-.198l.181-.696.181-.696.311-.658.311-.658.337-.507.337-.507.601-.604.601-.604.624-.413.624-.413.623-.269.623-.269.564-.144.564-.144.695-.073.695-.073.459.042.459.042.587.104.587.104.508.182.508.182.494.248.494.248.415.282.415.282.532.503.532.503.396.532.396.532.298.572.298.572.207.634.207.634.088.574.088.574h1.935 1.935l-.048-.477-.048-.477-.135-.713-.135-.713-.218-.664-.218-.664-.343-.724-.343-.724-.402-.617-.402-.617-.407-.494-.407-.494-.483-.464-.483-.464-.353-.286-.353-.286-.617-.402-.617-.402-.724-.346-.724-.346-.658-.215-.658-.215-.683-.146-.683-.146-1.271-.04-1.271-.04-.785.116-.785.116-.556.145-.556.145-.741.279-.741.279-.706.394-.706.394-.53.394-.53.394-.485.429-.485.429-.534.636-.534.636-.367.565-.367.565-.321.642-.321.642-.246.706-.246.706-.152.7-.152.7-.041.583-.041.583h1.909 1.909z" fill="#fa538b"/><path d="M17.325 26.692l.608-.064.297-.08.297-.08-.022-.149-.022-.149-.248-.077-.248-.077-.141-.084-.141-.084.076-.077.076-.077.418-.066.418-.066.553-.066.553-.066.047-.047.047-.047-.24-.196-.24-.196.075-.046.075-.046 1.118-.073 1.118-.073.45-.065.45-.065.044-.044.044-.044-.132-.097-.132-.097.168-.037.168-.037.82-.065.82-.065.183-.12.183-.12.046-.146.046-.146-.267-.225-.267-.225.044-.114.044-.114.219-.113.219-.113.826-.209.826-.209.177-.13.177-.13.021-.14.021-.14-.108-.089-.108-.089-.372-.083-.372-.083-.022-.115-.022-.115.233-.073.233-.073.565-.042.565-.042.3-.037.3-.037v-.135-.135l-.297-.151-.297-.151.164-.132.164-.132h.116.116l.27-.075.27-.075.096-.231.096-.231 1.363-.127 1.363-.127.067-.061.067-.061h-7.213-7.213l-.678-.005-1.373.002-1.373.002.067.06.067.06 5.119.475 5.119.475.161.048.161.048-.339.421-.339.421-.458.37-.458.37-.671.349-.671.349-.604.212-.604.212-.667.144-.667.144-.777.084-.777.084-.953-.042-.953-.042-.636-.107-.636-.107-.636-.172-.636-.172-.591-.25-.591-.25-.468-.28-.468-.28-.369-.317-.369-.317-.295-.341-.295-.341-.236-.493-.236-.493v-.161-.161H7.245 5.293l.045.335.045.335.139.115.139.115.267.046.267.046.197.077.197.077-.025.079-.025.079-.26.124-.26.124v.136.136l.3.037.3.037.565.042.565.042.233.073.233.073-.022.115-.022.115-.372.083-.372.083-.108.089-.108.089.021.14.021.14.177.13.177.13.824.203.824.203.235.137.235.137.022.151.022.151-.208.107-.208.107-.04.104-.04.104.138.176.138.176.228.07.228.07.735.047.735.047.105.04.105.04-.128.094-.128.094.039.039.039.039.45.065.45.065 1.118.073 1.118.073.064.04.064.04v.049.049l-.222.127-.222.127.069.069.069.069.595.068.595.068.106.006.106.006-.088.036-.088.036v.098.098l.618.186.618.186.061.057.061.057-.132.071-.132.071-.263.049-.263.049v.057.057l.088.036.088.036.141.004.141.004.608-.064z" fill="#ddb567"/><path d="M17.324 18.991l.095-.226.095-.226.249-.074.249-.074.232-.194.232-.194h.134.134l.18.141.18.141h.132.132v-.145-.145l-.101-.195-.101-.195-.285-.129-.285-.129-.107-.367-.107-.367-.151-.191-.151-.191.026-.019.026-.019.33-.189.33-.189.146-.186.146-.186v-.132-.132h-.133-.133l-.476.179-.476.179-.032-.032-.032-.032.165-.086.165-.086.125-.131.125-.131.026-.365.026-.365-.217-.199-.217-.199.005-.362.005-.362-.162.031-.162.031.032-.083.032-.083-.069-.183-.069-.183-.145-.046-.145-.046v-.101-.101h-.205-.205l.035-.133.035-.133-.083-.052-.083-.052-.193.143-.193.143-.224-.142-.224-.142-.1.038-.1.038.038.146.038.146h-.14-.14l-.275.183-.275.183-.113.144-.113.144-.05-.08-.05-.08h-.102-.102v.212.212h-.078-.078l.04.161.04.161-.139.087-.139.087v.088.088l.216.123.216.123-.048.318-.048.318h.115.115l-.045.282-.045.282h.08.08v.177.177h.062.062l.039.148.039.148.066-.041.066-.041.266.13.266.13-.522.196-.522.196-.064.058-.064.058.083.1.083.1.248.04.248.04.393-.064.393-.064.134-.043.134-.043v.085.085l.147.493.147.493.165.165.165.165.045.142.045.142-.128.176-.128.176c-.139.609.901.102.678.005zm-1.433-4.113l-.111-.088-.113-.18-.113-.18.401-.197.401-.197.092.126.092.126-.001.181-.001.181-.052.078-.052.078-.154.081-.154.081h-.062-.062l-.111-.088zm1.184-.658l-.111-.111v-.135-.135l.351-.178.351-.178h.031.031l.076.219.076.219-.071.133-.071.133-.135.072-.135.072h-.141-.141z" fill="#fa538b"/><path d="M15.296 14.678l.195-.098.204.293.158.152.087.049.099.018.117-.002.133-.065.108-.046.143-.094.094-.132.037-.091.006-.067-.004-.108-.002-.118.006-.043.028-.055.106-.053.068.008.067.076.067.067.088.081.147.011.131-.002.104-.006.183-.094.139-.077.077-.132.065-.125.032-.092-.022-.133-.032-.11-.059-.165.113-.069.01-.12-.05-.071-.075-.067-.142.017-.033.027-.02.078-.82.399-.051.072-.005.225-.109.055-.096-.013-.06-.061-.112-.102-.1.002-1.111.544-.574.026-.104.082-.056.352h.234l-.015-.254.466-.032z" fill="#ddb567" paint-order="normal"/><path d="M15.817 14.848l-.127-.183-.13-.236.4-.196.4-.196.091.125.091.125.03.203-.009.149-.06.105-.073.08-.135.089-.135.06-.135.011-.062-.021-.113-.08zm1.274-.597l-.125-.142-.023-.126.023-.143.349-.177.349-.177h.031.031l.076.218.076.218-.071.132-.071.132-.134.072-.134.072-.128.017-.153-.017z" fill="#00142e"/></svg>